<?xml version="1.0" standalone="no"?>
<!DOCTYPE svg PUBLIC "-//W3C//DTD SVG 1.1//EN" "http://www.w3.org/Graphics/SVG/1.1/DTD/svg11.dtd" >
<svg xmlns="http://www.w3.org/2000/svg" xmlns:xlink="http://www.w3.org/1999/xlink" version="1.1">
<metadata>
Created by FontForge 20170731 at Sat Feb 27 18:00:30 2021
 By Aleksey,,,
Universidad Nacional de Colombia, Unidad de Medios de Comunicacio'n (Unimedios), 2012-2015.
</metadata>
<defs>
<font id="AncizarSans-LightItalic" horiz-adv-x="1005" >
  <font-face 
    font-family="Ancizar Sans Light"
    font-weight="300"
    font-style="italic"
    font-stretch="normal"
    units-per-em="2048"
    panose-1="2 11 5 2 4 3 0 0 0 3"
    ascent="1536"
    descent="-512"
    x-height="922"
    cap-height="1253"
    bbox="-213 -498 2265 1729"
    underline-thickness="0"
    underline-position="0"
    slope="-4"
    unicode-range="U+0020-FB04"
  />
<missing-glyph horiz-adv-x="919" 
d="M-51 0v1440h1024v-1440h-1024zM461 813l348 524h-696zM51 1245v-1050l348 524zM522 719l348 -524v1050zM113 102h696l-348 525z" />
    <glyph glyph-name="f_f" unicode="ff" horiz-adv-x="978" 
d="M371 -465q-36 0 -84 10l22 107q83 -17 135 -17q67 0 114 72t58 234l66 886h-356l-60 -823q-19 -242 -120.5 -355.5t-256.5 -113.5q-32 0 -84 10l23 107q93 -19 137 -19q65 0 112 73.5t58 234.5l68 886h-129l14 80l119 15h2l6 71q31 416 383 416q56 0 86 -10l-25 -109
q-68 15 -149 15q-63 0 -109.5 -44.5t-52.5 -138.5l-14 -200h354l8 112q31 416 383 416q58 0 88 -10l-26 -109q-67 15 -148 15q-64 0 -110.5 -44.5t-53.5 -138.5l-16 -241h225l-24 -95h-209l-57 -823q-8 -124 -41 -216t-84.5 -146.5t-114 -80.5t-137.5 -26z" />
    <glyph glyph-name="fi" unicode="fi" horiz-adv-x="923" 
d="M-111 -465q-32 0 -84 10l23 107q93 -19 137 -19q65 0 112 73.5t58 234.5l66 886h-127l14 80l119 15l8 112q14 204 125.5 310t269.5 106q50 0 119.5 -8.5t114.5 -24.5l-39 -119q-109 48 -256 48q-87 0 -140.5 -55t-60.5 -163l-14 -206h364l115 20l-68 -942h-124l59 827
h-354l-60 -823q-19 -242 -120.5 -355.5t-256.5 -113.5z" />
    <glyph glyph-name="fl" unicode="fl" horiz-adv-x="987" 
d="M-111 -465q-32 0 -84 10l23 107q93 -19 137 -19q65 0 112 73.5t58 234.5l66 886h-127l14 80l119 15l8 112q14 204 125.5 310t269.5 106q79 0 156 -14l76 14q-21 -313 -39 -565.5t-26.5 -374t-15 -204.5t-8 -107t-1.5 -33q0 -37 15.5 -54.5t39.5 -17.5q47 0 113 53l24 -77
q-128 -90 -194 -90q-52 0 -89.5 36.5t-37.5 102.5q0 4 2 22q22 256 84 1188q-100 17 -160 17q-87 0 -140.5 -55t-60.5 -163l-14 -206h215l-25 -95h-198l-60 -823q-19 -242 -120.5 -355.5t-256.5 -113.5z" />
    <glyph glyph-name="f_f_i" unicode="ffi" horiz-adv-x="1404" 
d="M371 -465q-36 0 -84 10l22 107q93 -19 135 -19q67 0 114 73t58 235l66 886h-356l-60 -823q-19 -242 -120.5 -355.5t-256.5 -113.5q-32 0 -84 10l23 107q93 -19 137 -19q65 0 112 73.5t58 234.5l68 886h-129l14 80l119 15h2l6 71q31 416 383 416q56 0 86 -10l-25 -109
q-68 15 -149 15q-63 0 -109.5 -44.5t-52.5 -138.5l-14 -200h354l8 112q7 104 42 185.5t90 131t121.5 74.5t142.5 25q50 0 119 -8.5t114 -24.5l-39 -119q-109 48 -256 48q-87 0 -140.5 -55t-60.5 -163l-14 -206h365l114 20l-67 -942h-125l59 827h-354l-59 -823
q-19 -242 -120.5 -355.5t-256.5 -113.5z" />
    <glyph glyph-name="f_f_l" unicode="ffl" horiz-adv-x="1468" 
d="M373 -465q-34 0 -86 10l24 107q93 -19 135 -19q65 0 112 73.5t58 234.5l66 886h-356l-60 -823q-19 -242 -120.5 -355.5t-256.5 -113.5q-32 0 -84 10l23 107q93 -19 137 -19q65 0 112 73.5t58 234.5l68 886h-129l14 80l119 15h2l6 71q31 416 383 416q56 0 86 -10l-25 -109
q-68 15 -149 15q-63 0 -109.5 -44.5t-52.5 -138.5l-14 -200h356l8 112q7 104 42 185.5t89.5 131t121.5 74.5t143 25q78 0 155 -14l76 14q-22 -313 -40 -565.5t-27 -373.5t-15.5 -205t-8 -107.5t-1.5 -32.5q0 -37 16 -54.5t39 -17.5q49 0 115 53l22 -77q-128 -90 -194 -90
q-50 0 -87.5 36.5t-37.5 102.5q0 5 2 32q5 62 11 137.5t26 358t47 682.5q-100 17 -160 17q-87 0 -140.5 -55t-62.5 -163l-14 -206h223l-24 -95h-207l-59 -823q-18 -241 -119.5 -355t-255.5 -114z" />
    <glyph glyph-name=".notdef" horiz-adv-x="919" 
d="M-51 0v1440h1024v-1440h-1024zM461 813l348 524h-696zM51 1245v-1050l348 524zM522 719l348 -524v1050zM113 102h696l-348 525z" />
    <glyph glyph-name=".null" horiz-adv-x="0" 
 />
    <glyph glyph-name="nonmarkingreturn" horiz-adv-x="682" 
 />
    <glyph glyph-name="space" unicode=" " horiz-adv-x="456" 
 />
    <glyph glyph-name="exclam" unicode="!" horiz-adv-x="616" 
d="M332 348l-109 -39q19 220 26 490t-3 446l182 64q-67 -544 -96 -961zM156 86q3 33 48 76t75 43q26 0 66.5 -39t39.5 -70q-3 -36 -48 -78.5t-73 -42.5q-29 0 -69 39.5t-39 71.5z" />
    <glyph glyph-name="quotedbl" unicode="&#x22;" horiz-adv-x="638" 
d="M436 997l2 422h127l-59 -422h-70zM174 997l4 422h127l-63 -422h-68z" />
    <glyph glyph-name="numbersign" unicode="#" horiz-adv-x="1030" 
d="M600 479l80 258h-236l-79 -258h235zM451 0l120 387h-235l-121 -387h-106l120 387h-206l2 31l24 61h209l80 258h-229l2 31l24 57h232l133 428h106l-133 -428h236l133 428h106l-133 -428h195l-2 -30l-25 -58h-197l-79 -258h217l-2 -30l-25 -62h-219l-121 -387h-106z" />
    <glyph glyph-name="dollar" unicode="$" 
d="M524 -281h-141l43 265q-50 -4 -76 -4q-164 0 -260 43l37 114q174 -57 326 -51q112 -3 182 61t70 156q0 89 -35 145t-144 111l-96 51q-132 66 -192 134.5t-60 175.5q0 138 96 234t248 116l-4 250h141l-38 -246q173 -3 256 -39l-31 -117q-177 56 -332 56q-87 0 -145 -61
t-58 -140q0 -78 38 -133.5t147 -110.5l100 -51q125 -64 184.5 -133t59.5 -164q0 -143 -87 -243t-235 -138z" />
    <glyph glyph-name="percent" unicode="%" horiz-adv-x="1204" 
d="M623 997q-9 -129 -97.5 -218t-210.5 -89q-113 0 -174.5 79.5t-52.5 199.5q5 126 92.5 216.5t210.5 90.5q110 0 174 -80t58 -199zM70 0l956 1253h113l-953 -1253h-116zM514 981q9 104 -33.5 157.5t-128.5 53.5q-80 0 -118 -52t-44 -155q-9 -104 32.5 -157.5t127.5 -53.5
q151 0 164 207zM1118 285q-9 -129 -96 -217t-209 -88q-113 0 -175 78t-56 198q9 128 96.5 218.5t210.5 90.5q111 0 174.5 -80t54.5 -200zM1012 268q7 105 -34.5 158t-127.5 53q-80 0 -118 -52t-44 -155q-15 -209 162 -209q149 0 162 205z" />
    <glyph glyph-name="ampersand" unicode="&#x26;" horiz-adv-x="1222" 
d="M1053 -96q0 -181 -166 -326l-80 74q54 47 80 74t44.5 63.5t18.5 77.5q0 44 -31.5 105.5t-109.5 168.5q-200 -159 -422 -159q-132 0 -220.5 77.5t-88.5 188.5q0 222 307 420q-67 79 -104 145.5t-37 132.5q0 139 105 233.5t241 94.5q167 0 282 -66l-41 -102
q-157 70 -288 70q-73 0 -127 -51t-54 -130q0 -36 11 -69.5t39 -74.5t53.5 -72t79 -93t90.5 -108q177 -215 221 -273q113 145 113 313q0 129 -60 234l113 47q61 -86 61 -233q0 -109 -46.5 -221t-129.5 -207q78 -107 112 -184.5t34 -149.5zM449 84q164 0 311 121
q-57 76 -252 317q-28 35 -70 84q-239 -142 -239 -313q0 -90 74 -149.5t176 -59.5z" />
    <glyph glyph-name="quotesingle" unicode="'" horiz-adv-x="378" 
d="M174 997l4 422h127l-61 -422h-70z" />
    <glyph glyph-name="parenleft" unicode="(" horiz-adv-x="645" 
d="M551 -178l-86 -72q-188 152 -263.5 356t-56.5 465q20 266 120.5 466t316.5 356l73 -72q-188 -142 -279.5 -328.5t-107.5 -421.5q-33 -477 283 -749z" />
    <glyph glyph-name="parenright" unicode=")" horiz-adv-x="645" 
d="M94 1319l86 72q188 -152 263.5 -356.5t56.5 -465.5q-20 -266 -120.5 -465t-316.5 -356l-73 72q188 142 279.5 328t107.5 421q33 478 -283 750z" />
    <glyph glyph-name="asterisk" unicode="*" horiz-adv-x="880" 
d="M504 1413q23 -83 18 -170q-7 -90 -35 -149l-32 -9q-15 141 -62 283zM807 1219q-28 -47 -114 -102t-171 -73l-22 39q53 40 117 97.5t100 103.5zM164 1233q49 2 132.5 -43.5t137.5 -106.5l-20 -32q-49 22 -130 41.5t-149 27.5zM772 848q-48 -3 -133 42t-141 109l20 31
q46 -19 130 -39.5t147 -27.5zM127 858q25 47 115 103t172 69l14 -29q-44 -32 -107 -95t-110 -118zM430 670q-26 60 -20 161q7 91 34 162l37 4q5 -55 22.5 -137.5t37.5 -140.5z" />
    <glyph glyph-name="plus" unicode="+" 
d="M911 492h-354l-25 -363h-114l24 363h-354l6 104h357l24 346h115l-25 -346h353z" />
    <glyph glyph-name="comma" unicode="," horiz-adv-x="460" 
d="M111 100q3 28 35.5 56t58.5 28t64.5 -41t37.5 -84q-3 -40 -38.5 -121.5t-112.5 -234.5l-88 33q103 238 106 262q1 9 -31.5 42.5t-31.5 59.5z" />
    <glyph glyph-name="hyphen" unicode="-" horiz-adv-x="636" 
d="M537 553l2 -25l-31 -82h-408l-2 25l29 82h410z" />
    <glyph glyph-name="period" unicode="." horiz-adv-x="460" 
d="M82 72q0 31 39 71.5t65 40.5q27 0 68.5 -33.5t38.5 -62.5q-1 -30 -42 -69t-69 -39q-26 0 -64.5 31.5t-35.5 60.5z" />
    <glyph glyph-name="slash" unicode="/" horiz-adv-x="647" 
d="M8 -225l512 1644h119l-512 -1644h-119z" />
    <glyph glyph-name="zero" unicode="0" 
d="M926 793q0 -174 -25 -311.5t-68.5 -230.5t-106 -154.5t-135 -89t-157.5 -27.5q-159 0 -256.5 131.5t-97.5 361.5q0 400 131 600.5t356 200.5q161 0 260 -132t99 -349zM506 80q287 0 287 635q0 213 -76.5 334.5t-210.5 121.5q-139 0 -216 -150t-77 -470q0 -231 75.5 -351
t217.5 -120z" />
    <glyph glyph-name="one" unicode="1" 
d="M633 0h-125l80 1128l-328 -131l-27 119q146 43 398 137h90z" />
    <glyph glyph-name="two" unicode="2" 
d="M819 0h-735l14 100q171 163 276 270.5t189 211.5t119.5 183.5t36.5 154.5q0 113 -66 179t-180 66q-94 0 -270 -86l-29 109q163 86 330 86q152 0 253 -87.5t101 -234.5q0 -160 -145.5 -353t-476.5 -495l608 9z" />
    <glyph glyph-name="three" unicode="3" 
d="M371 -20q-160 0 -293 38l39 117q66 -22 154 -35.5t157 -13.5q142 0 220.5 68t78.5 188q0 122 -85.5 193t-227.5 71q-20 0 -63 -2t-58 -2l-12 98q200 0 318 73.5t118 189.5q0 91 -61.5 146.5t-161.5 55.5q-134 0 -258 -67l-33 104q175 72 334 72q137 0 221 -76t84 -194
q0 -121 -81 -205t-194 -121q138 -24 212.5 -105.5t74.5 -201.5q0 -73 -32.5 -142.5t-92 -125t-153 -89.5t-205.5 -34z" />
    <glyph glyph-name="four" unicode="4" 
d="M623 397l45 670l-508 -670h463zM909 289h-170l-20 -289h-125l20 289h-596l7 86l667 878h115l-59 -856h202z" />
    <glyph glyph-name="five" unicode="5" 
d="M299 -20q-47 0 -121.5 10.5t-116.5 23.5l45 117q138 -49 308 -49q145 0 228 80t83 196q0 127 -95 201t-247 74q-105 0 -195 -23l88 643h619l-27 -110h-499l-56 -414q73 12 142 12q171 0 283.5 -90.5t109.5 -242.5q3 -189 -144.5 -308.5t-404.5 -119.5z" />
    <glyph glyph-name="six" unicode="6" 
d="M885 442q0 -90 -26 -167.5t-69 -130.5t-98 -91t-111.5 -55.5t-111.5 -17.5q-164 0 -265.5 127t-101.5 370q0 391 148.5 594t433.5 203q114 0 223 -31l-35 -119q-142 45 -288 45q-137 0 -226 -121.5t-114 -385.5q185 98 321 98q146 0 233 -86.5t87 -231.5zM500 80
q120 0 189 77t69 234q0 119 -68 192.5t-190 73.5q-19 0 -38.5 -2t-42 -8t-38 -10t-41.5 -13.5t-35 -13t-36.5 -14.5t-30.5 -12q0 -17 -1 -53.5t-1 -55.5q-1 -190 76.5 -292.5t187.5 -102.5z" />
    <glyph glyph-name="seven" unicode="7" 
d="M336 -20l-131 32l586 1125h-689l33 116h793l-6 -102q-582 -1171 -586 -1171z" />
    <glyph glyph-name="eight" unicode="8" 
d="M436 -20q-162 0 -260 76.5t-98 217.5q0 50 17 95.5t40.5 78t66.5 69t75.5 59t86.5 57.5q17 11 25 16q-108 67 -158.5 134.5t-50.5 170.5q0 94 54.5 168.5t139.5 112.5t181 37q138 2 227.5 -63t89.5 -175q0 -41 -10.5 -78t-32.5 -70t-44 -59t-58.5 -55.5t-61.5 -47.5
t-67 -46q153 -84 216 -153.5t63 -170.5q0 -107 -67 -194.5t-167.5 -133.5t-206.5 -46zM301 989q0 -79 46 -136t171 -130q129 84 182.5 141t53.5 127q0 81 -69 133t-181 52q-84 0 -143.5 -50t-59.5 -137zM498 78q41 0 84 12t83.5 36t66.5 67t26 98q0 93 -59.5 155t-231.5 160
q-60 -37 -101.5 -67.5t-80 -68t-57.5 -79t-19 -86.5q0 -102 81 -164.5t208 -62.5z" />
    <glyph glyph-name="nine" unicode="9" 
d="M512 596q94 0 262 74q4 66 4 106q0 190 -78 292.5t-188 102.5q-119 0 -187.5 -76.5t-68.5 -234.5q0 -117 69 -190.5t187 -73.5zM293 -20q-41 0 -103.5 8.5t-95.5 21.5l35 113q119 -39 203 -39q82 0 151.5 28t128 86.5t98.5 158t56 233.5q-182 -96 -317 -96
q-146 0 -233 86t-87 231q0 90 26 167.5t68.5 131t97 91.5t111 55.5t111.5 17.5q164 0 265 -127.5t101 -370.5q0 -192 -46 -344t-128 -250.5t-194.5 -150t-247.5 -51.5z" />
    <glyph glyph-name="colon" unicode=":" horiz-adv-x="460" 
d="M121 645q0 31 39 72t65 41q27 0 68.5 -33.5t38.5 -62.5q-1 -30 -42 -69.5t-69 -39.5q-26 0 -64.5 31.5t-35.5 60.5zM80 72q0 31 39 71.5t65 40.5q27 0 68.5 -33.5t38.5 -62.5q-1 -30 -42 -69t-69 -39q-26 0 -64.5 31.5t-35.5 60.5z" />
    <glyph glyph-name="semicolon" unicode=";" horiz-adv-x="460" 
d="M127 645q0 31 39 72t65 41q27 0 68.5 -33.5t38.5 -62.5q-1 -30 -42 -69.5t-69 -39.5q-26 0 -64.5 31.5t-35.5 60.5zM96 100q3 28 35.5 56t58.5 28t65 -41t38 -84q-3 -40 -38 -120t-114 -236l-88 33q9 20 27.5 62.5t29 67t23.5 55t19.5 49.5t7.5 28t-32 42.5t-32 59.5z
" />
    <glyph glyph-name="equal" unicode="=" 
d="M868 709l-2 -31l-41 -70h-675l4 31l41 70h673zM852 479l-2 -30l-41 -68h-676l4 31l41 67h674z" />
    <glyph glyph-name="question" unicode="?" horiz-adv-x="790" 
d="M455 350l-111 -43q-29 36 -42 54t-26.5 54t-11.5 72q4 58 36.5 96.5t123.5 112.5q93 72 128.5 124t41.5 128q7 96 -56 156.5t-165 60.5q-39 0 -88 -21.5t-135 -72.5l-41 107q172 90 331 90q138 0 225 -82.5t80 -212.5q-8 -88 -63 -154.5t-166 -152.5
q-73 -57 -100.5 -85.5t-28.5 -58.5q-4 -24 17.5 -76t50.5 -96zM236 88q0 27 43.5 67t70.5 40q24 0 62 -37t37 -66q-3 -29 -47 -66.5t-68 -37.5q-28 0 -64.5 35.5t-33.5 64.5z" />
    <glyph glyph-name="at" unicode="@" horiz-adv-x="1574" 
d="M645 -309q-55 0 -111.5 12t-115 40t-111 68.5t-97.5 102t-76 136.5t-45.5 176t-6.5 216q14 185 72 340.5t142 259t189 176.5t210.5 105.5t207.5 32.5q187 0 323.5 -66t208 -200t58.5 -320q-11 -159 -90.5 -302t-203.5 -239t-269 -129l-15 252q-50 -114 -122.5 -176.5
t-130.5 -62.5q-83 0 -124 99.5t-30 260.5q5 70 22 137t49 130t75.5 110.5t106 76.5t136.5 29q53 0 98.5 -12.5t63.5 -36.5l-49 -698q149 77 245.5 216t112.5 333q20 225 -114 357t-382 132q-141 0 -263 -64.5t-206 -173t-135.5 -249.5t-60.5 -295q-9 -166 27.5 -296.5
t108 -210.5t166.5 -121.5t208 -41.5q51 0 98 6t92.5 20t68 21.5t66.5 27t45 19.5l21 -88q-58 -26 -87 -37t-94 -32.5t-134.5 -31t-147.5 -9.5zM721 217q15 0 36.5 12.5t48.5 44.5t52 79t46.5 125t31.5 173l12 189q-58 20 -114 20q-57 0 -97 -28t-63.5 -81t-35 -116.5
t-15.5 -147.5q-10 -145 19.5 -207.5t78.5 -62.5z" />
    <glyph glyph-name="A" unicode="A" horiz-adv-x="1089" 
d="M725 549l-143 555l-236 -555h379zM868 0l-114 438h-455l-186 -438h-133l548 1253h146l334 -1253h-140z" />
    <glyph glyph-name="B" unicode="B" horiz-adv-x="997" 
d="M461 1159h-121l-33 -471h154q119 0 193.5 64t74.5 174t-68 171.5t-200 61.5zM473 590q0 2 -60.5 2t-111.5 -2l-35 -494l197 2q155 0 233 63.5t78 176.5q0 119 -77.5 185.5t-223.5 66.5zM127 0l88 1253h309q165 0 252.5 -71.5t87.5 -200.5q0 -106 -57.5 -189.5
t-153.5 -132.5q36 -5 70 -16.5t69 -33t61 -51.5t42 -75t16 -100q0 -121 -70 -209.5t-184 -131t-256 -42.5h-274z" />
    <glyph glyph-name="C" unicode="C" horiz-adv-x="1019" 
d="M885 160l30 -92q-231 -91 -383 -91q-89 0 -168.5 32t-144 94.5t-102 167t-37.5 237.5q0 120 21.5 230t67.5 208.5t112.5 171t163 114.5t212.5 42q78 0 168 -19t150 -43l-45 -116q-188 69 -330 69q-59 0 -111.5 -18.5t-102.5 -64.5t-86.5 -115.5t-58.5 -179t-22 -248.5
q0 -113 30.5 -201.5t81.5 -141t112 -79.5t126 -27q26 0 52 2t46 5t45 8.5t39.5 9t39 11.5t33.5 11.5t32.5 12t28.5 10.5z" />
    <glyph glyph-name="D" unicode="D" horiz-adv-x="1136" 
d="M215 1253h342q243 0 385.5 -143t140.5 -367q1 -179 -52.5 -323.5t-144.5 -234.5t-206.5 -137.5t-245.5 -47.5h-307zM340 1143l-72 -1032h197q216 0 349.5 151.5t133.5 429.5q0 214 -114 332.5t-326 118.5h-168z" />
    <glyph glyph-name="E" unicode="E" horiz-adv-x="921" 
d="M127 0l88 1253h635l-23 -110l-487 6l-31 -440h447l-21 -105l-432 4l-35 -504l537 7l-25 -111h-653z" />
    <glyph glyph-name="F" unicode="F" horiz-adv-x="897" 
d="M729 584l-428 4l-41 -588h-133l88 1253h635l-23 -110l-487 6l-31 -459h443z" />
    <glyph glyph-name="G" unicode="G" horiz-adv-x="1118" 
d="M963 82q-206 -102 -422 -102q-67 0 -132 19t-125 61t-105 102.5t-72 150t-27 197.5q0 165 40 303.5t115 241.5t192 161t263 58q173 0 342 -66l-51 -127q-201 84 -365 84q-187 0 -291 -162.5t-104 -439.5q0 -126 33 -221t88 -147.5t117 -77.5t131 -25q119 0 250 41l37 490
h127z" />
    <glyph glyph-name="H" unicode="H" horiz-adv-x="1189" 
d="M842 0l43 604h-582l-43 -604h-133l88 1253h133l-39 -544h582l39 544h133l-88 -1253h-133z" />
    <glyph glyph-name="I" unicode="I" horiz-adv-x="475" 
d="M348 1253l-88 -1253h-133l88 1253h133z" />
    <glyph glyph-name="J" unicode="J" horiz-adv-x="671" 
d="M547 1253l-62 -893q-12 -180 -112.5 -280t-257.5 -100q-73 0 -135 20l28 119q101 -37 178 -37q58 0 105 57.5t53 145.5l68 968h135z" />
    <glyph glyph-name="K" unicode="K" horiz-adv-x="1058" 
d="M973 0h-168l-488 674l586 579h158l-596 -575zM346 1253l-88 -1253h-131l88 1253h131z" />
    <glyph glyph-name="L" unicode="L" horiz-adv-x="899" 
d="M127 0l88 1253h133l-80 -1147l535 7l-23 -113h-653z" />
    <glyph glyph-name="M" unicode="M" horiz-adv-x="1550" 
d="M668 0l-299 1059l-156 -1059h-123l201 1253h155l304 -1071l452 1071h152l30 -1253h-131l-24 1044l-443 -1044h-118z" />
    <glyph glyph-name="N" unicode="N" horiz-adv-x="1216" 
d="M891 0l-578 1042l-71 -1042h-115l84 1253h125l563 -1011l76 1011h115l-89 -1253h-110z" />
    <glyph glyph-name="O" unicode="O" horiz-adv-x="1155" 
d="M1075 731q0 -161 -35.5 -292t-92.5 -214.5t-133 -140.5t-153.5 -80.5t-156.5 -23.5q-186 0 -305 143.5t-119 398.5q0 161 35.5 292t92.5 215t133 140.5t153.5 80.5t156.5 24q186 0 305 -144t119 -399zM578 88q72 0 135 35t114 104t81 183.5t30 261.5q0 114 -21 202
t-55.5 142t-83.5 88.5t-98.5 47.5t-106.5 13q-71 0 -133.5 -34.5t-112.5 -103t-79 -183t-29 -262.5q0 -113 20.5 -201t54 -142.5t81 -89t97 -48t106.5 -13.5z" />
    <glyph glyph-name="P" unicode="P" horiz-adv-x="946" 
d="M457 1153h-115l-39 -551h148q61 0 116.5 16.5t101 49t72.5 88t27 127.5q0 141 -79 205.5t-232 64.5zM381 504h-84l-37 -504h-133l88 1253h287q195 0 298 -82.5t103 -234.5q0 -192 -144.5 -312t-377.5 -120z" />
    <glyph glyph-name="Q" unicode="Q" horiz-adv-x="1155" 
d="M797 -348q-41 0 -106 22.5t-123 49t-125.5 49t-112.5 22.5q-81 0 -156 -55l-24 106v2q54 28 131 39q109 36 237 93h-14q-186 0 -305 143.5t-119 398.5q0 161 35.5 292t92.5 215t133 140.5t153.5 80.5t156.5 24q186 0 305 -144t119 -399q0 -442 -250 -639
q-38 -35 -143 -98t-217 -117q31 -8 171 -55t200 -47q86 0 147 49l-8 -117q-90 -55 -178 -55zM578 88q72 0 135 35t114 104t81 183.5t30 261.5q0 114 -21 202t-55.5 142t-83.5 88.5t-98.5 47.5t-106.5 13q-71 0 -133.5 -34.5t-112.5 -103t-79 -183t-29 -262.5
q0 -113 20.5 -201t54 -142.5t81 -89t97 -48t106.5 -13.5z" />
    <glyph glyph-name="R" unicode="R" horiz-adv-x="1011" 
d="M477 1153h-135l-37 -520h182q51 0 98 15.5t86.5 46t63 81.5t23.5 117q0 128 -67.5 194t-213.5 66zM422 537h-123l-39 -537h-133l88 1253h297q182 0 281.5 -84t99.5 -227q0 -130 -73 -226.5t-195 -142.5l297 -573h-160l-260 543q-40 -6 -80 -6z" />
    <glyph glyph-name="S" unicode="S" horiz-adv-x="876" 
d="M477 559l-96 51q-132 66 -192 134.5t-60 175.5q0 154 118 254t296 100q195 0 284 -39l-30 -117q-177 56 -332 56q-87 0 -145 -61t-58 -140q0 -78 37.5 -133.5t146.5 -110.5l101 -51q125 -64 184.5 -133t59.5 -164q0 -183 -137.5 -292t-352.5 -109q-164 0 -260 43l37 114
q174 -57 325 -51q112 -3 182 61t70 156q0 89 -34.5 145t-143.5 111z" />
    <glyph glyph-name="T" unicode="T" horiz-adv-x="1028" 
d="M987 1139l-373 6l-77 -1145h-136l80 1145l-385 -6l29 114h891z" />
    <glyph glyph-name="U" unicode="U" horiz-adv-x="1198" 
d="M213 1253h133q-12 -181 -22.5 -345.5t-15.5 -234.5t-9 -132.5t-5 -90t-1 -57.5q0 -151 78.5 -225t220.5 -74q136 0 210 78t87 256l53 825h131l-55 -809q-15 -231 -140 -347.5t-343 -116.5q-165 0 -275 92.5t-110 265.5q0 20 0.5 38t2.5 51.5t4.5 68t8 108t11 150.5
t15.5 215.5t21 283.5z" />
    <glyph glyph-name="V" unicode="V" horiz-adv-x="1095" 
d="M575 0h-153l-340 1253h139l297 -1112l449 1112h135z" />
    <glyph glyph-name="W" unicode="W" horiz-adv-x="1693" 
d="M1135 0l-261 1051l-425 -1051h-134l-194 1253h133l160 -1052l424 1052h120l265 -1063l321 1063h127l-401 -1253h-135z" />
    <glyph glyph-name="X" unicode="X" horiz-adv-x="1019" 
d="M803 0l-303 553l-363 -553h-141l448 653l-329 600h145l275 -499l327 499h144l-414 -602l358 -651h-147z" />
    <glyph glyph-name="Y" unicode="Y" horiz-adv-x="1058" 
d="M559 0h-135l37 512l-375 741h150l309 -620l379 620h137l-465 -735z" />
    <glyph glyph-name="Z" unicode="Z" horiz-adv-x="1044" 
d="M885 0h-805l8 98l719 1041h-653l34 114h777l-11 -114l-714 -1026h678z" />
    <glyph glyph-name="bracketleft" unicode="[" horiz-adv-x="645" 
d="M500 -139l-8 -97h-351l113 1610h350l-8 -96h-231l-101 -1417h236z" />
    <glyph glyph-name="backslash" unicode="\" horiz-adv-x="647" 
d="M242 1419l282 -1644h-118l-283 1644h119z" />
    <glyph glyph-name="bracketright" unicode="]" horiz-adv-x="645" 
d="M391 -236h-350l8 97h232l100 1417h-236l9 96h350z" />
    <glyph glyph-name="underscore" unicode="_" horiz-adv-x="901" 
d="M881 -207v-92h-901v92h901z" />
    <glyph glyph-name="grave" unicode="`" horiz-adv-x="681" 
d="M535 1053h-109l-279 254l144 28z" />
    <glyph glyph-name="a" unicode="a" horiz-adv-x="860" 
d="M584 -20l-4 245l2 29q-55 -127 -141.5 -200.5t-157.5 -73.5q-94 0 -148.5 84.5t-54.5 271.5q0 157 51.5 294.5t151.5 224.5t227 87q58 0 124.5 -16t110.5 -43l-61 -883zM338 90q32 0 69 24.5t76 74.5t71 142.5t46 211.5l16 264q-73 37 -163 37q-105 0 -174.5 -132
t-69.5 -358q0 -124 33 -194t96 -70z" />
    <glyph glyph-name="b" unicode="b" horiz-adv-x="905" 
d="M459 80q96 0 162.5 120.5t66.5 350.5q0 144 -36.5 211t-96.5 67q-30 0 -69.5 -30t-81.5 -85t-78.5 -151t-53.5 -211l-14 -233q119 -39 201 -39zM432 -23q-94 0 -199 46l-47 -72l-61 41l90 1386l127 25l-49 -762q69 139 151 220t160 81q215 0 215 -379q0 -153 -56.5 -290
t-146 -216.5t-184.5 -79.5z" />
    <glyph glyph-name="c" unicode="c" horiz-adv-x="749" 
d="M635 215l43 -61q-62 -64 -153.5 -119t-184.5 -55q-121 0 -189.5 90t-68.5 278q0 138 33.5 253t89 188t124 113t140.5 40q23 0 44 -1.5t40 -5.5t34 -7t30.5 -9.5t25.5 -10t22.5 -10.5t17 -9.5t15.5 -9.5l11 -7l-52 -104q-3 2 -24 14t-25 14t-22 11.5t-24 12t-22 9
t-25.5 8.5t-24 5.5t-28 4.5t-28.5 1q-56 0 -101 -49.5t-70 -123.5t-37.5 -146.5t-12.5 -131.5q0 -161 41.5 -238t130.5 -77q36 0 69.5 10.5t69 35t54.5 39.5t57 48z" />
    <glyph glyph-name="d" unicode="d" horiz-adv-x="899" 
d="M346 90q25 0 58.5 21t71.5 67.5t71 111t58.5 161t33.5 206.5v-4l10 146q-124 39 -211 39q-94 0 -158.5 -119t-64.5 -350q0 -144 35.5 -211.5t95.5 -67.5zM627 -20l-15 307q-69 -143 -152 -226.5t-163 -83.5q-215 0 -215 379q0 154 56.5 290.5t145.5 216t185 79.5
q102 0 188 -29l35 463l125 25l-94 -1401z" />
    <glyph glyph-name="e" unicode="e" horiz-adv-x="720" 
d="M346 -20q-124 0 -194 91t-70 265q0 272 112 439t273 167q95 0 150 -59t55 -138q0 -73 -41 -133.5t-107 -98.5t-145.5 -59.5t-161.5 -23.5q-2 -20 -2 -65q0 -140 44 -210.5t110 -70.5q64 0 121.5 33t127.5 94l44 -64q-64 -67 -151.5 -117t-164.5 -50zM432 850
q-74 0 -133 -80.5t-78 -261.5q147 6 236.5 68t89.5 151q0 54 -32 88.5t-83 34.5z" />
    <glyph glyph-name="f" unicode="f" horiz-adv-x="497" 
d="M-111 -465q-32 0 -84 10l23 107q93 -19 137 -19q65 0 112 73.5t58 234.5l66 886h-127l14 80l119 15l8 112q31 416 383 416q58 0 88 -10l-27 -109q-67 15 -147 15q-64 0 -110.5 -44.5t-53.5 -138.5l-16 -241h225l-25 -95h-208l-58 -823q-8 -124 -41 -216t-84.5 -146.5
t-114 -80.5t-137.5 -26z" />
    <glyph glyph-name="g" unicode="g" horiz-adv-x="763" 
d="M391 467q172 0 172 205q0 87 -54 136.5t-124 49.5q-162 0 -162 -199q0 -84 51.5 -138t116.5 -54zM692 -104q0 -69 -62 -134t-156 -104t-187 -39q-137 0 -219 51.5t-82 132.5q0 55 34 105t113 108l133 95q-66 35 -89 61.5t-25 60.5q1 49 30 81t99 79q-77 23 -126 85
t-49 149q0 137 87.5 226t234.5 89q66 0 127 -33l131 191l82 -82l-18 -37l-146 -107q76 -69 76 -172q0 -135 -90.5 -227t-231.5 -92q-52 -34 -75 -59t-23 -52q0 -8 5.5 -16.5t18 -18t26 -18t37 -21t42.5 -22t51.5 -25.5t55.5 -28q107 -56 151.5 -104.5t44.5 -122.5zM342 -289
q93 0 165.5 45t72.5 113q0 53 -52.5 98t-169.5 99q-24 12 -34 16l-93 -70q-71 -50 -99 -84.5t-28 -83.5q0 -56 62.5 -94.5t175.5 -38.5z" />
    <glyph glyph-name="h" unicode="h" horiz-adv-x="903" 
d="M272 350v37l-26 -387h-125l94 1378l125 25l-51 -756q72 143 157 219t166 76q172 0 172 -233q0 -146 -65 -709h-125q1 22 29 295t28 346q0 104 -23.5 146t-82.5 42q-31 0 -72 -29.5t-83 -85t-75 -151.5t-43 -213z" />
    <glyph glyph-name="i" unicode="i" horiz-adv-x="432" 
d="M190 1231q0 28 34.5 67t54.5 39q22 0 50.5 -30t28.5 -58q0 -22 -33.5 -62t-54.5 -40q-23 0 -51.5 28.5t-28.5 55.5zM186 920l125 22l-67 -942h-123z" />
    <glyph glyph-name="j" unicode="j" horiz-adv-x="438" 
d="M199 1231q0 28 34 67t54 39q22 0 51 -30t29 -58q0 -22 -33.5 -62t-54.5 -40q-23 0 -51.5 28.5t-28.5 55.5zM-121 -471l-20 121q8 0 25 -1t24 -1q102 0 151.5 79t61.5 269l67 926l127 24l-71 -962q-13 -206 -124 -329.5t-241 -125.5z" />
    <glyph glyph-name="k" unicode="k" horiz-adv-x="786" 
d="M649 -14q-24 24 -48.5 55.5t-105.5 154.5t-212 336l-39 -532h-123l98 1376l127 29l-63 -866q117 83 201.5 172.5t162.5 210.5h129q-151 -234 -360 -387q115 -177 191.5 -288t96 -136t56.5 -70z" />
    <glyph glyph-name="l" unicode="l" horiz-adv-x="477" 
d="M410 147l24 -77q-128 -90 -194 -90q-50 0 -87.5 36.5t-37.5 102.5q0 4 1 13q20 196 91 1244l125 25q-12 -182 -23.5 -341.5t-19.5 -271.5t-15 -207t-11.5 -155t-8.5 -107.5t-6 -72.5t-3.5 -42.5t-2 -25t-0.5 -12.5q0 -37 15.5 -54.5t39.5 -17.5q47 0 113 53z" />
    <glyph glyph-name="m" unicode="m" horiz-adv-x="1366" 
d="M713 0l-127 -2q1 14 26 291t25 350q0 108 -18 149t-74 41q-31 0 -72 -29.5t-83.5 -85t-76 -151.5t-43.5 -213l-26 -350h-123l63 920l99 22l14 -242l-4 -45q70 139 154.5 213t164.5 74q85 0 122.5 -57t37.5 -176v-45q69 135 151 206.5t162 71.5q85 0 122.5 -57t37.5 -176
q0 -105 -21 -341t-36 -368h-127q0 4 15 166t24.5 290.5t9.5 184.5q0 108 -18 148t-74 40q-28 0 -64 -24t-74.5 -68.5t-72.5 -121t-51 -169.5q-6 -79 -15.5 -174t-17.5 -173.5t-10 -98.5z" />
    <glyph glyph-name="n" unicode="n" horiz-adv-x="903" 
d="M545 829q-30 0 -68.5 -27t-79.5 -77.5t-74.5 -138t-46.5 -193.5l-30 -393h-125l63 920l99 22l10 -287q70 139 154.5 213t164.5 74q172 0 172 -233q0 -146 -65 -709h-125q1 22 29 295t28 346q0 104 -23.5 146t-82.5 42z" />
    <glyph glyph-name="o" unicode="o" horiz-adv-x="882" 
d="M799 557q0 -103 -26 -202.5t-75.5 -184.5t-133.5 -137.5t-189 -52.5q-132 0 -211.5 101.5t-79.5 283.5q0 103 25.5 202t75 184.5t133.5 138t190 52.5q128 0 209.5 -102t81.5 -283zM424 70q57 0 101.5 33.5t70 84t42 117.5t22.5 125t6 115q0 140 -52 223.5t-157 83.5
q-69 0 -119.5 -50t-75 -128.5t-35 -152t-10.5 -144.5q0 -147 54 -227t153 -80z" />
    <glyph glyph-name="p" unicode="p" horiz-adv-x="907" 
d="M463 80q96 0 162.5 120.5t66.5 350.5q0 144 -36.5 211t-96.5 67q-25 0 -58 -21t-71 -67t-71 -110t-58 -160.5t-33 -206.5v29l-14 -172q130 -41 209 -41zM211 -440l-125 -25l98 1385l99 22l12 -293l-2 -14q71 141 154 224t161 83q215 0 215 -379q0 -153 -56.5 -290
t-146 -216.5t-184.5 -79.5q-102 0 -190 35z" />
    <glyph glyph-name="q" unicode="q" horiz-adv-x="901" 
d="M565 -465l51 758q-71 -146 -154.5 -231t-164.5 -85q-215 0 -215 379q0 154 56.5 290.5t145.5 216t185 79.5q124 0 219 -41l31 68l63 -15l-92 -1394zM346 90q25 0 58.5 21t71.5 67.5t71 111t58.5 161t33.5 206.5v-12l10 156q-132 37 -211 37q-94 0 -158.5 -119t-64.5 -350
q0 -144 35.5 -211.5t95.5 -67.5z" />
    <glyph glyph-name="r" unicode="r" horiz-adv-x="606" 
d="M274 342l-2 6l-26 -348h-125l61 920l101 22l12 -268q112 268 315 268q3 0 7 0.5t6.5 0.5t5.5 -1l-25 -135q-1 0 -5.5 1t-13.5 2t-20 1q-32 0 -61.5 -7t-69.5 -35.5t-70 -76t-55.5 -138t-34.5 -212.5z" />
    <glyph glyph-name="s" unicode="s" horiz-adv-x="690" 
d="M309 -20q-134 0 -264 49l31 112q164 -63 272 -63q61 0 89 35t28 86q0 42 -20.5 82t-75.5 88l-119 108q-59 55 -85 101t-26 112q0 60 26 109.5t66.5 80t86.5 46.5t90 16q54 0 127.5 -13.5t101.5 -25.5l-35 -110q-163 51 -229 51q-52 0 -83.5 -32t-31.5 -85q0 -39 17 -74.5
t77 -89.5l123 -110q62 -58 86.5 -103t24.5 -98q0 -70 -29.5 -125.5t-74.5 -86t-89.5 -45.5t-83.5 -15z" />
    <glyph glyph-name="t" unicode="t" horiz-adv-x="655" 
d="M602 113q-169 -133 -299 -133q-66 0 -112 46t-46 115q0 89 66 686h-150l11 74l149 21q7 71 21 186l125 25q-1 -12 -10 -92t-13 -119h305l-31 -95h-286q-7 -61 -20.5 -176t-18.5 -162.5t-12.5 -117t-10 -108t-2.5 -66.5q0 -53 26 -80t68 -27q47 0 95.5 24t113.5 70z" />
    <glyph glyph-name="u" unicode="u" horiz-adv-x="897" 
d="M616 -20l-8 294q-70 -144 -153.5 -219t-165.5 -75q-86 0 -127 57.5t-41 175.5q0 72 13 217t32 311t20 179l127 20q-1 -23 -30 -305.5t-29 -353.5q0 -106 21.5 -147.5t78.5 -41.5q31 0 71 29.5t82 85t75 152t43 212.5v-10l26 359l125 22l-61 -942z" />
    <glyph glyph-name="v" unicode="v" horiz-adv-x="786" 
d="M324 0h-123l-62 909l119 23l57 -805q69 64 122.5 155t89.5 204t58 210t44 226h108q-10 -109 -41 -235.5t-80.5 -257.5t-126 -247t-165.5 -182z" />
    <glyph glyph-name="w" unicode="w" horiz-adv-x="1228" 
d="M655 0l-37 510q-98 -314 -301 -512l-118 2l-66 926l119 14l57 -825q104 107 183 289.5t108 383.5l-10 134h117l51 -803q231 212 317 803h109q-14 -118 -44 -241t-78 -254.5t-123.5 -245.5t-166.5 -181h-117z" />
    <glyph glyph-name="x" unicode="x" horiz-adv-x="706" 
d="M492 -6q-46 101 -164 381q-171 -208 -236 -375h-115q19 61 52.5 123.5t84.5 130t84 107.5t93 108q-156 369 -189 440l129 21q70 -150 156 -363q149 182 215 355h117q-19 -72 -72 -159t-99 -144.5t-122 -145.5q151 -365 195 -459z" />
    <glyph glyph-name="y" unicode="y" horiz-adv-x="827" 
d="M-127 -465q-34 0 -86 8l14 121q68 -10 127 -10q115 0 223.5 84t200.5 235h-51l-143 936l125 31l129 -862q89 174 151 393.5t88 450.5h115q-8 -100 -30.5 -219t-63.5 -253t-94.5 -263t-128 -248t-159 -208t-193 -142.5t-224.5 -53.5z" />
    <glyph glyph-name="z" unicode="z" horiz-adv-x="727" 
d="M637 0h-600l8 102l483 721l-415 -6l14 105h549l-12 -107l-484 -717l477 8z" />
    <glyph glyph-name="braceleft" unicode="{" horiz-adv-x="645" 
d="M111 567l4 37q156 47 159 144q3 48 1 161.5t4 214.5q13 267 321 267l-8 -99q-78 0 -136.5 -35.5t-64.5 -103.5q-5 -75 0.5 -209t1.5 -190q-4 -69 -47.5 -120t-103.5 -67q57 -16 94 -66.5t33 -119.5q-4 -57 -28.5 -192t-29.5 -209q-7 -67 48 -103.5t133 -36.5l-9 -98
q-158 0 -225 68t-59 198q7 101 28.5 216.5t24.5 160.5q3 52 -33.5 86t-112.5 57z" />
    <glyph glyph-name="bar" unicode="|" horiz-adv-x="518" 
d="M139 -451l131 1870h109l-131 -1870h-109z" />
    <glyph glyph-name="braceright" unicode="}" horiz-adv-x="645" 
d="M403 567q-57 16 -94 67t-33 120q4 57 28.5 192t29.5 209q7 67 -47.5 103t-132.5 36l8 99q158 0 225 -68.5t59 -198.5q-7 -101 -28.5 -216t-24.5 -160q-3 -53 33.5 -87.5t112.5 -56.5l-4 -39l-5 -37q-76 -23 -117 -57t-42 -86q-3 -48 -0.5 -162t-3.5 -215
q-13 -266 -322 -266l8 98q77 0 136 36t65 104q5 75 -0.5 209t-1.5 190q4 69 47.5 119.5t103.5 66.5z" />
    <glyph glyph-name="exclamdown" unicode="&#xa1;" horiz-adv-x="616" 
d="M418 823q-3 -33 -48 -75.5t-75 -42.5q-27 0 -67.5 38.5t-39.5 69.5q3 36 48 78.5t73 42.5q29 0 69.5 -39.5t39.5 -71.5zM242 561l108 39q-19 -218 -25.5 -489.5t3.5 -446.5l-183 -63q69 564 97 960z" />
    <glyph glyph-name="cent" unicode="&#xa2;" 
d="M799 317q-96 -101 -211 -147l12 -287h-129l31 264q-24 -4 -41 -4q-121 0 -189.5 90.5t-68.5 278.5q0 134 31.5 246.5t84 186t118 115t136.5 46.5l-4 250h127l-37 -254q20 -3 38 -7t34 -9.5t28 -10.5t24 -11.5t18.5 -10.5t16 -10t11.5 -7l-51 -104q-3 2 -24 14t-25 14
t-22 11.5t-24 12t-22 9t-25.5 8.5t-24 5.5t-28 4.5t-28.5 1q-56 0 -101 -49.5t-70 -123.5t-37.5 -146.5t-12.5 -131.5q0 -161 41.5 -238t130.5 -77q36 0 69.5 10.5t69 35t54.5 39.5t57 48z" />
    <glyph glyph-name="sterling" unicode="&#xa3;" 
d="M922 123l-37 -123h-813h-2l-45 115q153 43 208 97t62 171q4 44 -12 180h-191l2 27l51 69l95 5h30q-13 117 -8 215q12 176 130 285.5t300 109.5q163 0 246 -49l-51 -129q-148 63 -238 63q-118 0 -177.5 -57.5t-68.5 -194.5q-7 -86 9 -243h389l-33 -101h-348q9 -89 6 -155
q-13 -178 -154 -299z" />
    <glyph glyph-name="section" unicode="&#xa7;" horiz-adv-x="999" 
d="M236 655q-5 -75 47.5 -129.5t191.5 -111.5q126 29 203.5 83.5t83.5 127.5q6 75 -47 129t-193 112q-126 -30 -202.5 -84t-83.5 -127zM383 -150q-149 0 -266 46l47 110q185 -69 280 -69q98 0 151 39t58 106q6 62 -37.5 107t-136.5 85l-82 35q-176 78 -237 143.5t-54 174.5
q7 99 90.5 172.5t217.5 111.5q-101 44 -152.5 102t-44.5 146q8 116 113.5 193.5t285.5 77.5q137 0 242 -37l-47 -111q-164 61 -256 61q-100 0 -153 -39t-58 -106q-4 -62 39.5 -107t136.5 -85l80 -35q176 -77 237.5 -143t55.5 -175q-7 -100 -90 -173t-219 -111
q101 -42 152 -100t44 -148q-6 -116 -111.5 -193.5t-285.5 -77.5z" />
    <glyph glyph-name="dieresis" unicode="&#xa8;" horiz-adv-x="813" 
d="M492 1229q1 25 35 58.5t55 33.5q23 0 59 -25.5t33 -48.5q-1 -27 -35 -60.5t-55 -33.5q-23 0 -59 26.5t-33 49.5zM135 1229q1 25 35 58.5t55 33.5q23 0 59 -25.5t33 -48.5q-1 -27 -35 -60.5t-55 -33.5q-23 0 -59 26.5t-33 49.5z" />
    <glyph glyph-name="copyright" unicode="&#xa9;" horiz-adv-x="1159" 
d="M68 489q7 117 55 215t123.5 162t170.5 99.5t197 35.5q118 0 212.5 -39.5t154.5 -108.5t89 -162.5t22 -201.5q-11 -154 -91.5 -272t-200 -177.5t-257.5 -59.5q-156 0 -268.5 67.5t-164.5 182.5t-42 259zM154 489q-12 -196 99 -314t294 -118q195 0 320 122.5t137 309.5
q12 199 -99.5 316t-296.5 117q-193 0 -317.5 -124t-136.5 -309zM748 301l10 -72q-112 -41 -221 -41q-125 0 -192.5 81t-57.5 223q11 146 100.5 234.5t237.5 88.5q80 0 153 -27l-22 -73q-111 30 -185 30q-26 0 -49 -5.5t-48 -22t-43.5 -43t-32 -70.5t-17.5 -102
q-7 -121 48.5 -178.5t141.5 -57.5q75 0 177 35z" />
    <glyph glyph-name="ordfeminine" unicode="&#xaa;" horiz-adv-x="481" 
d="M324 705l-9 120q-35 -59 -80.5 -89.5t-87.5 -30.5q-49 0 -79.5 43.5t-30.5 136.5q0 39 8 79.5t26 81.5t43.5 72.5t65 51.5t86.5 20q92 0 164 -31l-31 -442zM199 776q18 0 42 22.5t50.5 80t38.5 135.5l8 96q-49 18 -86 18q-36 0 -61.5 -25t-37.5 -64.5t-17 -75t-5 -68.5
q0 -119 68 -119z" />
    <glyph glyph-name="guillemotleft" unicode="&#xab;" horiz-adv-x="1073" 
d="M848 80l-346 395l401 395l62 -67l-295 -328l245 -328zM469 80l-346 395l401 395l62 -67l-295 -328l246 -328z" />
    <glyph glyph-name="registered" unicode="&#xae;" horiz-adv-x="1159" 
d="M88 1053q10 156 90 274.5t199.5 178t257.5 59.5q235 0 363 -144.5t114 -367.5q-11 -153 -91.5 -271.5t-200.5 -178.5t-257 -60q-156 0 -268.5 68t-164.5 183t-42 259zM174 1053q-12 -195 99 -312.5t294 -117.5q196 0 320.5 121.5t136.5 308.5q12 199 -99 315.5
t-296 116.5q-193 0 -318 -123.5t-137 -308.5zM590 1090q63 0 97 24t40 80q3 58 -27 85.5t-98 27.5h-76l-16 -215q27 -2 80 -2zM567 1026q-6 0 -26.5 1t-34.5 1l-19 -262h-88l43 606h185q93 0 143.5 -40.5t44.5 -123.5q-5 -101 -123 -155l144 -287h-103l-119 264
q-32 -4 -47 -4z" />
    <glyph glyph-name="macron" unicode="&#xaf;" horiz-adv-x="890" 
d="M709 1249l-2 -30l-35 -68h-490l2 31l37 67h488z" />
    <glyph glyph-name="twosuperior" unicode="&#xb2;" horiz-adv-x="550" 
d="M457 799h-414l4 69q177 150 234 210q100 103 104 165q3 55 -30.5 85t-88.5 30q-67 0 -157 -39l-23 72q89 47 221 47q86 0 140 -49.5t49 -124.5q-4 -76 -84.5 -166t-253.5 -224l321 9z" />
    <glyph glyph-name="threesuperior" unicode="&#xb3;" horiz-adv-x="548" 
d="M205 786q-79 0 -160 23l25 72q82 -23 166 -23q139 0 145 111q4 60 -38.5 91.5t-113.5 31.5q-16 0 -51 -5l-14 68q212 0 219 109q3 44 -31 72t-82 28q-66 0 -151 -37l-19 72q115 39 199 39q77 0 132.5 -37.5t49.5 -110.5q-3 -53 -43 -93t-102 -60q149 -24 143 -150
q-4 -50 -31 -90t-67.5 -63t-86 -35.5t-89.5 -12.5z" />
    <glyph glyph-name="acute" unicode="&#xb4;" horiz-adv-x="698" 
d="M137 1053l285 282l139 -28l-315 -254h-109z" />
    <glyph glyph-name="paragraph" unicode="&#xb6;" horiz-adv-x="1110" 
d="M657 1163l-49 -708h-139q-201 0 -305 109.5t-92 285.5q13 177 133 290t325 113h431l-87 -1202q-9 -155 -116 -242.5t-275 -87.5q-75 0 -133 21l29 117q119 -40 198 -31.5t119 51t45 117.5l82 1167h-166z" />
    <glyph glyph-name="cedilla" unicode="&#xb8;" horiz-adv-x="583" 
d="M186 -182l97 182h88l-64 -113q87 -43 107 -60q43 -35 39 -89q-5 -71 -84 -129t-228 -74l-12 76q52 7 85.5 13.5t64.5 17.5t46.5 27.5t16.5 39.5q1 30 -34.5 52t-117.5 46z" />
    <glyph glyph-name="onesuperior" unicode="&#xb9;" horiz-adv-x="417" 
d="M281 799h-95l39 542l-155 -59l-19 80q81 17 207 63h68z" />
    <glyph glyph-name="ordmasculine" unicode="&#xba;" horiz-adv-x="481" 
d="M438 991q0 -48 -14 -97t-41.5 -92t-74 -70t-105.5 -27q-75 0 -118.5 50t-43.5 148q0 50 14 99t41.5 92t74 69.5t105.5 26.5q74 0 118 -50.5t44 -148.5zM236 772q102 0 102 219q0 65 -25 99t-69 34q-103 0 -103 -221q0 -131 95 -131z" />
    <glyph glyph-name="guillemotright" unicode="&#xbb;" horiz-adv-x="1073" 
d="M604 870l346 -395l-401 -395l-62 67l295 328l-245 330zM225 870l346 -395l-401 -395l-61 67l294 328l-245 330z" />
    <glyph glyph-name="questiondown" unicode="&#xbf;" horiz-adv-x="739" 
d="M516 829q0 -27 -44 -66.5t-71 -39.5q-24 0 -61.5 36.5t-36.5 65.5q3 29 47 67t68 38q28 0 64.5 -35.5t33.5 -65.5zM297 567l111 43q28 -35 41.5 -54t26.5 -54.5t11 -71.5q-4 -58 -36 -96.5t-123 -112.5q-93 -72 -128.5 -124t-41.5 -128q-7 -96 56 -156.5t165 -60.5
q39 0 88 21.5t135 72.5l41 -106q-172 -90 -332 -90q-138 0 -225 82.5t-80 212.5q4 47 22 87.5t53 79.5t67.5 68t87.5 72q74 58 101 85.5t28 57.5q4 24 -17.5 76t-50.5 96z" />
    <glyph glyph-name="Agrave" unicode="&#xc0;" horiz-adv-x="1089" 
d="M698 1360h-108l-279 254l144 28zM725 549l-143 555l-236 -555h379zM868 0l-114 438h-455l-186 -438h-133l548 1253h146l334 -1253h-140z" />
    <glyph glyph-name="Aacute" unicode="&#xc1;" horiz-adv-x="1089" 
d="M467 1360l285 282l139 -28l-316 -254h-108zM725 549l-143 555l-236 -555h379zM868 0l-114 438h-455l-186 -438h-133l548 1253h146l334 -1253h-140z" />
    <glyph glyph-name="Acircumflex" unicode="&#xc2;" horiz-adv-x="1089" 
d="M786 1360l-174 164l-196 -164h-111l279 282h75l238 -282h-111zM725 549l-143 555l-236 -555h379zM868 0l-114 438h-455l-186 -438h-133l548 1253h146l334 -1253h-140z" />
    <glyph glyph-name="Atilde" unicode="&#xc3;" horiz-adv-x="1089" 
d="M856 1571l51 -62l-9 -9q-34 -34 -54.5 -52.5t-59 -37.5t-75.5 -19q-40 0 -129 33.5t-113 33.5q-18 0 -42.5 -9.5t-41.5 -20.5t-35 -23.5t-20 -13.5l-45 53q33 34 58 56.5t68 44.5t83 22q46 0 124.5 -30t104.5 -30q67 0 135 64zM725 549l-143 555l-236 -555h379zM868 0
l-114 438h-455l-186 -438h-133l548 1253h146l334 -1253h-140z" />
    <glyph glyph-name="Adieresis" unicode="&#xc4;" horiz-adv-x="1089" 
d="M688 1536q1 25 35 58.5t55 33.5q23 0 59 -25.5t33 -48.5q-1 -27 -35 -60.5t-55 -33.5q-23 0 -59 26.5t-33 49.5zM332 1536q1 25 35 58.5t55 33.5q23 0 59 -25.5t33 -48.5q-1 -27 -35 -60.5t-55 -33.5q-23 0 -59 26.5t-33 49.5zM725 549l-143 555l-236 -555h379zM868 0
l-114 438h-455l-186 -438h-133l548 1253h146l334 -1253h-140z" />
    <glyph glyph-name="Aring" unicode="&#xc5;" horiz-adv-x="1089" 
d="M799 1542q-4 -71 -64 -122.5t-133 -51.5q-75 0 -125.5 46.5t-44.5 127.5q3 72 62.5 123t132.5 51q76 0 127 -46t45 -128zM520 1542q-3 -41 23.5 -67.5t64.5 -26.5t69 26.5t34 67.5q3 44 -24 71t-66 27t-68.5 -27t-32.5 -71zM725 549l-143 555l-236 -555h379zM868 0
l-114 438h-455l-186 -438h-133l548 1253h146l334 -1253h-140z" />
    <glyph glyph-name="AE" unicode="&#xc6;" horiz-adv-x="1458" 
d="M733 1149l-360 -606h327l41 606h-8zM662 0l30 432h-385l-258 -432h-137l764 1253h710l-24 -110l-485 6l-31 -440h444l-20 -105l-430 4l-35 -504l534 7l-22 -111h-655z" />
    <glyph glyph-name="Ccedilla" unicode="&#xc7;" horiz-adv-x="1019" 
d="M676 -262q-5 -71 -83.5 -129t-227.5 -74l-13 76q52 7 85.5 13.5t64.5 17.5t46.5 27.5t16.5 39.5q1 30 -34 52t-117 46l-4 11l86 162q-84 6 -157 41t-132 97.5t-93 163t-34 226.5q0 120 21.5 230t67.5 208.5t112.5 171t163 114.5t212.5 42q78 0 168 -19t150 -43l-45 -116
q-188 69 -330 69q-59 0 -111.5 -18.5t-102.5 -64.5t-86.5 -115.5t-58.5 -179t-22 -248.5q0 -113 30.5 -201.5t81.5 -141t112 -79.5t126 -27q26 0 52 2t46 5t45 8.5t39.5 9t39 11.5t33.5 11.5t32.5 12t28.5 10.5l30 -92q-197 -77 -333 -88l-52 -93q87 -43 107 -60
q43 -35 39 -89z" />
    <glyph glyph-name="Egrave" unicode="&#xc8;" horiz-adv-x="921" 
d="M715 1360h-109l-278 254l143 28zM127 0l88 1253h635l-23 -110l-487 6l-31 -440h447l-21 -105l-432 4l-35 -504l537 7l-25 -111h-653z" />
    <glyph glyph-name="Eacute" unicode="&#xc9;" horiz-adv-x="921" 
d="M371 1360l284 282l140 -28l-316 -254h-108zM127 0l88 1253h635l-23 -110l-487 6l-31 -440h447l-21 -105l-432 4l-35 -504l537 7l-25 -111h-653z" />
    <glyph glyph-name="Ecircumflex" unicode="&#xca;" horiz-adv-x="921" 
d="M739 1360l-174 164l-196 -164h-111l279 282h75l238 -282h-111zM127 0l88 1253h635l-23 -110l-487 6l-31 -440h447l-21 -105l-432 4l-35 -504l537 7l-25 -111h-653z" />
    <glyph glyph-name="Edieresis" unicode="&#xcb;" horiz-adv-x="921" 
d="M608 1536q1 25 35 58.5t55 33.5q23 0 59.5 -25.5t33.5 -48.5q-1 -27 -35.5 -60.5t-55.5 -33.5q-23 0 -59 26.5t-33 49.5zM252 1536q1 25 35 58.5t55 33.5q23 0 59 -25.5t33 -48.5q-1 -27 -35 -60.5t-55 -33.5q-23 0 -59 26.5t-33 49.5zM127 0l88 1253h635l-23 -110
l-487 6l-31 -440h447l-21 -105l-432 4l-35 -504l537 7l-25 -111h-653z" />
    <glyph glyph-name="Igrave" unicode="&#xcc;" horiz-adv-x="481" 
d="M362 1360h-108l-279 254l144 28zM348 1253l-88 -1253h-133l88 1253h133z" />
    <glyph glyph-name="Iacute" unicode="&#xcd;" horiz-adv-x="481" 
d="M211 1360l285 282l139 -28l-316 -254h-108zM348 1253l-88 -1253h-133l88 1253h133z" />
    <glyph glyph-name="Icircumflex" unicode="&#xce;" horiz-adv-x="481" 
d="M487 1360l-174 164l-196 -164h-111l279 282h75l238 -282h-111zM348 1253l-88 -1253h-133l88 1253h133z" />
    <glyph glyph-name="Idieresis" unicode="&#xcf;" horiz-adv-x="481" 
d="M365 1536q1 26 34.5 59t55.5 33t58.5 -25.5t33.5 -48.5q-1 -27 -35 -60.5t-55 -33.5q-24 0 -59.5 26.5t-32.5 49.5zM63 1536q1 25 35.5 58.5t55.5 33.5q22 0 58.5 -25.5t33.5 -48.5q-1 -27 -35 -60.5t-55 -33.5q-23 0 -59.5 26.5t-33.5 49.5zM348 1253l-88 -1253h-133
l88 1253h133z" />
    <glyph glyph-name="Eth" unicode="&#xd0;" horiz-adv-x="1163" 
d="M463 0h-307l41 592h-134v26l35 76h107l39 559h342q243 0 385.5 -143t140.5 -367q1 -179 -52.5 -323.5t-144.5 -234.5t-206.5 -137.5t-245.5 -47.5zM297 111h197q216 0 349.5 151.5t133.5 429.5q0 214 -114 332.5t-326 118.5h-168l-31 -449h348v-26l-33 -76h-323z" />
    <glyph glyph-name="Ntilde" unicode="&#xd1;" horiz-adv-x="1216" 
d="M903 1571l51 -62l-9 -9q-34 -34 -54.5 -52.5t-59 -37.5t-75.5 -19q-40 0 -129 33.5t-113 33.5q-18 0 -42.5 -9.5t-41.5 -20.5t-35 -23.5t-20 -13.5l-45 53q33 34 58 56.5t68 44.5t83 22q46 0 124.5 -30t104.5 -30q67 0 135 64zM891 0l-578 1042l-71 -1042h-115l84 1253
h125l563 -1011l76 1011h115l-89 -1253h-110z" />
    <glyph glyph-name="Ograve" unicode="&#xd2;" horiz-adv-x="1124" 
d="M793 1360h-109l-278 254l143 28zM1075 731q0 -161 -35.5 -292t-92.5 -214.5t-133 -140.5t-153.5 -80.5t-156.5 -23.5q-186 0 -305 143.5t-119 398.5q0 161 35.5 292t92.5 215t133 140.5t153.5 80.5t156.5 24q186 0 305 -144t119 -399zM578 88q72 0 135 35t114 104
t81 183.5t30 261.5q0 114 -21 202t-55.5 142t-83.5 88.5t-98.5 47.5t-106.5 13q-71 0 -133.5 -34.5t-112.5 -103t-79 -183t-29 -262.5q0 -113 20.5 -201t54 -142.5t81 -89t97 -48t106.5 -13.5z" />
    <glyph glyph-name="Oacute" unicode="&#xd3;" horiz-adv-x="1124" 
d="M459 1360l284 282l140 -28l-316 -254h-108zM1075 731q0 -161 -35.5 -292t-92.5 -214.5t-133 -140.5t-153.5 -80.5t-156.5 -23.5q-186 0 -305 143.5t-119 398.5q0 161 35.5 292t92.5 215t133 140.5t153.5 80.5t156.5 24q186 0 305 -144t119 -399zM578 88q72 0 135 35
t114 104t81 183.5t30 261.5q0 114 -21 202t-55.5 142t-83.5 88.5t-98.5 47.5t-106.5 13q-71 0 -133.5 -34.5t-112.5 -103t-79 -183t-29 -262.5q0 -113 20.5 -201t54 -142.5t81 -89t97 -48t106.5 -13.5z" />
    <glyph glyph-name="Ocircumflex" unicode="&#xd4;" horiz-adv-x="1124" 
d="M831 1360l-174 164l-196 -164h-111l279 282h76l237 -282h-111zM1075 731q0 -161 -35.5 -292t-92.5 -214.5t-133 -140.5t-153.5 -80.5t-156.5 -23.5q-186 0 -305 143.5t-119 398.5q0 161 35.5 292t92.5 215t133 140.5t153.5 80.5t156.5 24q186 0 305 -144t119 -399z
M578 88q72 0 135 35t114 104t81 183.5t30 261.5q0 114 -21 202t-55.5 142t-83.5 88.5t-98.5 47.5t-106.5 13q-71 0 -133.5 -34.5t-112.5 -103t-79 -183t-29 -262.5q0 -113 20.5 -201t54 -142.5t81 -89t97 -48t106.5 -13.5z" />
    <glyph glyph-name="Otilde" unicode="&#xd5;" horiz-adv-x="1124" 
d="M901 1571l51 -62l-9 -9q-34 -34 -54.5 -52.5t-59 -37.5t-75.5 -19q-40 0 -129 33.5t-113 33.5q-18 0 -42.5 -9.5t-41.5 -20.5t-35 -23.5t-20 -13.5l-45 53q33 34 58 56.5t68 44.5t83 22q46 0 124.5 -30t104.5 -30q67 0 135 64zM1075 731q0 -161 -35.5 -292t-92.5 -214.5
t-133 -140.5t-153.5 -80.5t-156.5 -23.5q-186 0 -305 143.5t-119 398.5q0 161 35.5 292t92.5 215t133 140.5t153.5 80.5t156.5 24q186 0 305 -144t119 -399zM578 88q72 0 135 35t114 104t81 183.5t30 261.5q0 114 -21 202t-55.5 142t-83.5 88.5t-98.5 47.5t-106.5 13
q-71 0 -133.5 -34.5t-112.5 -103t-79 -183t-29 -262.5q0 -113 20.5 -201t54 -142.5t81 -89t97 -48t106.5 -13.5z" />
    <glyph glyph-name="Odieresis" unicode="&#xd6;" horiz-adv-x="1124" 
d="M725 1536q1 25 35 58.5t55 33.5q23 0 59 -25.5t33 -48.5q-1 -27 -35 -60.5t-55 -33.5q-23 0 -59 26.5t-33 49.5zM369 1536q1 25 35 58.5t55 33.5q23 0 59 -25.5t33 -48.5q-1 -27 -35 -60.5t-55 -33.5q-23 0 -59 26.5t-33 49.5zM1075 731q0 -161 -35.5 -292t-92.5 -214.5
t-133 -140.5t-153.5 -80.5t-156.5 -23.5q-186 0 -305 143.5t-119 398.5q0 161 35.5 292t92.5 215t133 140.5t153.5 80.5t156.5 24q186 0 305 -144t119 -399zM578 88q72 0 135 35t114 104t81 183.5t30 261.5q0 114 -21 202t-55.5 142t-83.5 88.5t-98.5 47.5t-106.5 13
q-71 0 -133.5 -34.5t-112.5 -103t-79 -183t-29 -262.5q0 -113 20.5 -201t54 -142.5t81 -89t97 -48t106.5 -13.5z" />
    <glyph glyph-name="multiply" unicode="&#xd7;" 
d="M739 211l-243 262l-281 -262l-68 72l283 262l-242 262l78 70l240 -261l280 261l68 -70l-281 -262l242 -262z" />
    <glyph glyph-name="Oslash" unicode="&#xd8;" horiz-adv-x="1155" 
d="M219 582q0 -293 133 -416l385 962q-70 37 -164 37q-71 0 -133.5 -34.5t-112.5 -103t-79 -183t-29 -262.5zM578 88q72 0 135 35t114 104t81 183.5t30 261.5q0 278 -123 401l-383 -958q68 -27 146 -27zM504 -20q-60 0 -119 16l-68 -166h-98l82 205q-103 62 -162 186.5
t-59 300.5q0 161 35.5 292t92.5 215t133 140.5t153.5 80.5t156.5 24q68 0 135 -23l68 168h100l-84 -211q96 -63 150.5 -185.5t54.5 -291.5q0 -161 -35.5 -292t-92.5 -214.5t-133 -140.5t-153.5 -80.5t-156.5 -23.5z" />
    <glyph glyph-name="Ugrave" unicode="&#xd9;" horiz-adv-x="1179" 
d="M782 1360h-108l-279 254l144 28zM213 1253h133q-12 -181 -22.5 -345.5t-15.5 -234.5t-9 -132.5t-5 -90t-1 -57.5q0 -151 78.5 -225t220.5 -74q136 0 210 78t87 256l53 825h131l-55 -809q-15 -231 -140 -347.5t-343 -116.5q-165 0 -275 92.5t-110 265.5q0 20 0.5 38
t2.5 51.5t4.5 68t8 108t11 150.5t15.5 215.5t21 283.5z" />
    <glyph glyph-name="Uacute" unicode="&#xda;" horiz-adv-x="1179" 
d="M387 1360l285 282l139 -28l-315 -254h-109zM213 1253h133q-12 -181 -22.5 -345.5t-15.5 -234.5t-9 -132.5t-5 -90t-1 -57.5q0 -151 78.5 -225t220.5 -74q136 0 210 78t87 256l53 825h131l-55 -809q-15 -231 -140 -347.5t-343 -116.5q-165 0 -275 92.5t-110 265.5
q0 20 0.5 38t2.5 51.5t4.5 68t8 108t11 150.5t15.5 215.5t21 283.5z" />
    <glyph glyph-name="Ucircumflex" unicode="&#xdb;" horiz-adv-x="1179" 
d="M809 1360l-174 164l-197 -164h-110l278 282h76l238 -282h-111zM213 1253h133q-12 -181 -22.5 -345.5t-15.5 -234.5t-9 -132.5t-5 -90t-1 -57.5q0 -151 78.5 -225t220.5 -74q136 0 210 78t87 256l53 825h131l-55 -809q-15 -231 -140 -347.5t-343 -116.5q-165 0 -275 92.5
t-110 265.5q0 20 0.5 38t2.5 51.5t4.5 68t8 108t11 150.5t15.5 215.5t21 283.5z" />
    <glyph glyph-name="Udieresis" unicode="&#xdc;" horiz-adv-x="1179" 
d="M686 1536q1 25 35 58.5t55 33.5q23 0 59 -25.5t33 -48.5q-1 -27 -35 -60.5t-55 -33.5q-23 0 -59 26.5t-33 49.5zM330 1536q1 25 35 58.5t55 33.5q23 0 59 -25.5t33 -48.5q-1 -27 -35 -60.5t-55 -33.5q-23 0 -59 26.5t-33 49.5zM213 1253h133q-12 -181 -22.5 -345.5
t-15.5 -234.5t-9 -132.5t-5 -90t-1 -57.5q0 -151 78.5 -225t220.5 -74q136 0 210 78t87 256l53 825h131l-55 -809q-15 -231 -140 -347.5t-343 -116.5q-165 0 -275 92.5t-110 265.5q0 20 0.5 38t2.5 51.5t4.5 68t8 108t11 150.5t15.5 215.5t21 283.5z" />
    <glyph glyph-name="Yacute" unicode="&#xdd;" horiz-adv-x="1015" 
d="M453 1360l284 282l140 -28l-316 -254h-108zM559 0h-135l37 512l-375 741h150l309 -620l379 620h137l-465 -735z" />
    <glyph glyph-name="Thorn" unicode="&#xde;" horiz-adv-x="925" 
d="M457 928h-129l-41 -551h164q62 0 117 16t100.5 48.5t72.5 88t27 127.5q0 271 -311 271zM381 276h-100l-21 -276h-133l88 1253h135l-16 -227h168q196 0 298.5 -82t102.5 -235q0 -192 -144.5 -312.5t-377.5 -120.5z" />
    <glyph glyph-name="germandbls" unicode="&#xdf;" horiz-adv-x="927" 
d="M553 -20q-70 0 -176 26l26 115l24 -8l24 -8t21.5 -6.5t23.5 -6.5t23 -5.5t26 -4.5t26.5 -3t31.5 -2.5t34 -0.5q46 0 85 32.5t38 84.5q0 38 -10.5 65.5t-55 75t-133.5 115.5q-121 84 -121 213q0 52 22.5 101t56 86t73 78t73 76t56 80t22.5 91q0 75 -56.5 131t-164.5 57
q-96 -2 -151.5 -77t-61.5 -220l-53 -1055q-4 -94 -29.5 -178t-71 -151t-117.5 -106.5t-161 -39.5q-26 0 -59 10l24 107q54 -12 103 -12q72 0 122 59.5t56 175.5l53 1106q6 122 44.5 215t98.5 147t129.5 80.5t145.5 26.5q111 0 190.5 -73t79.5 -181q0 -49 -32 -102t-78 -99
t-91.5 -90.5t-77.5 -91t-32 -86.5q0 -63 27 -106.5t110 -104.5q97 -73 138 -134t44 -124q0 -112 -89.5 -195t-229.5 -83z" />
    <glyph glyph-name="agrave" unicode="&#xe0;" horiz-adv-x="862" 
d="M651 1053h-108l-279 254l144 28zM584 -20l-4 245l2 29q-55 -127 -141.5 -200.5t-157.5 -73.5q-94 0 -148.5 84.5t-54.5 271.5q0 157 51.5 294.5t151.5 224.5t227 87q58 0 124.5 -16t110.5 -43l-61 -883zM338 90q32 0 69 24.5t76 74.5t71 142.5t46 211.5l16 264
q-73 37 -163 37q-105 0 -174.5 -132t-69.5 -358q0 -124 33 -194t96 -70z" />
    <glyph glyph-name="aacute" unicode="&#xe1;" horiz-adv-x="862" 
d="M393 1053l285 282l139 -28l-315 -254h-109zM584 -20l-4 245l2 29q-55 -127 -141.5 -200.5t-157.5 -73.5q-94 0 -148.5 84.5t-54.5 271.5q0 157 51.5 294.5t151.5 224.5t227 87q58 0 124.5 -16t110.5 -43l-61 -883zM338 90q32 0 69 24.5t76 74.5t71 142.5t46 211.5l16 264
q-73 37 -163 37q-105 0 -174.5 -132t-69.5 -358q0 -124 33 -194t96 -70z" />
    <glyph glyph-name="acircumflex" unicode="&#xe2;" horiz-adv-x="862" 
d="M690 1053l-174 164l-197 -164h-110l278 282h76l238 -282h-111zM584 -20l-4 245l2 29q-55 -127 -141.5 -200.5t-157.5 -73.5q-94 0 -148.5 84.5t-54.5 271.5q0 157 51.5 294.5t151.5 224.5t227 87q58 0 124.5 -16t110.5 -43l-61 -883zM338 90q32 0 69 24.5t76 74.5
t71 142.5t46 211.5l16 264q-73 37 -163 37q-105 0 -174.5 -132t-69.5 -358q0 -124 33 -194t96 -70z" />
    <glyph glyph-name="atilde" unicode="&#xe3;" horiz-adv-x="862" 
d="M776 1264l51 -62q-64 -64 -94 -84q-52 -35 -104 -35q-40 0 -129 34t-113 34q-18 0 -42.5 -10t-41.5 -21t-35 -23.5t-20 -13.5l-45 54q33 34 58 56.5t68 44.5t83 22q46 0 124.5 -30t104.5 -30q67 0 135 64zM584 -20l-4 245l2 29q-55 -127 -141.5 -200.5t-157.5 -73.5
q-94 0 -148.5 84.5t-54.5 271.5q0 157 51.5 294.5t151.5 224.5t227 87q58 0 124.5 -16t110.5 -43l-61 -883zM338 90q32 0 69 24.5t76 74.5t71 142.5t46 211.5l16 264q-73 37 -163 37q-105 0 -174.5 -132t-69.5 -358q0 -124 33 -194t96 -70z" />
    <glyph glyph-name="adieresis" unicode="&#xe4;" horiz-adv-x="862" 
d="M578 1229q1 25 35 58.5t55 33.5q23 0 59 -25.5t33 -48.5q-1 -27 -35 -60.5t-55 -33.5q-23 0 -59 26.5t-33 49.5zM221 1229q1 25 35 58.5t55 33.5q23 0 59 -25.5t33 -48.5q-1 -27 -35 -60.5t-55 -33.5q-23 0 -59 26.5t-33 49.5zM584 -20l-4 245l2 29
q-55 -127 -141.5 -200.5t-157.5 -73.5q-94 0 -148.5 84.5t-54.5 271.5q0 157 51.5 294.5t151.5 224.5t227 87q58 0 124.5 -16t110.5 -43l-61 -883zM338 90q32 0 69 24.5t76 74.5t71 142.5t46 211.5l16 264q-73 37 -163 37q-105 0 -174.5 -132t-69.5 -358q0 -124 33 -194
t96 -70z" />
    <glyph glyph-name="aring" unicode="&#xe5;" horiz-adv-x="862" 
d="M678 1241q-4 -71 -64 -122.5t-133 -51.5q-75 0 -125.5 46.5t-44.5 127.5q3 72 62.5 123t132.5 51q76 0 127 -46t45 -128zM399 1241q-3 -41 23.5 -67.5t64.5 -26.5t69 26.5t34 67.5q3 44 -24 71t-66 27t-68.5 -27t-32.5 -71zM584 -20l-4 245l2 29q-55 -127 -141.5 -200.5
t-157.5 -73.5q-94 0 -148.5 84.5t-54.5 271.5q0 157 51.5 294.5t151.5 224.5t227 87q58 0 124.5 -16t110.5 -43l-61 -883zM338 90q32 0 69 24.5t76 74.5t71 142.5t46 211.5l16 264q-73 37 -163 37q-105 0 -174.5 -132t-69.5 -358q0 -124 33 -194t96 -70z" />
    <glyph glyph-name="ae" unicode="&#xe6;" horiz-adv-x="1241" 
d="M952 850q-74 0 -133 -80.5t-78 -261.5q146 6 236 67.5t90 151.5q0 55 -31.5 89t-83.5 34zM332 90q55 0 132.5 77.5t139.5 203.5q9 235 105 395q-50 34 -114.5 59t-123.5 25q-120 0 -191 -139.5t-71 -397.5q0 -96 36 -159.5t87 -63.5zM868 -20q-107 0 -175 69.5t-85 204.5
q-59 -104 -127 -169t-118.5 -86.5t-98.5 -21.5q-32 0 -63 17.5t-59 53.5t-45 102t-17 153q0 129 26.5 241.5t79 202.5t140 142.5t200.5 52.5q128 0 256 -86q92 86 205 86q95 0 151 -59t56 -138q0 -73 -41 -133.5t-108 -98.5t-146.5 -59.5t-161.5 -23.5q-2 -20 -2 -65
q0 -140 44 -210.5t112 -70.5q64 0 120.5 33t127.5 94l43 -64q-64 -68 -150.5 -117.5t-163.5 -49.5z" />
    <glyph glyph-name="ccedilla" unicode="&#xe7;" horiz-adv-x="755" 
d="M520 -262q-5 -71 -83.5 -129t-227.5 -74l-12 76q52 7 85.5 13.5t64.5 17.5t46.5 27.5t16.5 39.5q1 30 -34.5 52t-117.5 46l-4 11l86 162q-121 0 -189.5 90t-68.5 278q0 138 33.5 253t89 188t124 113t140.5 40q23 0 44 -1.5t40 -5.5t34 -7t30.5 -9.5t25.5 -10t22.5 -10.5
t17 -9.5t15.5 -9.5l11 -7l-52 -104q-3 2 -24 14t-25 14t-22 11.5t-24 12t-22 9t-25.5 8.5t-24 5.5t-28 4.5t-28.5 1q-56 0 -101 -49.5t-70 -123.5t-37.5 -146.5t-12.5 -131.5q0 -161 41.5 -238t130.5 -77q36 0 69.5 10.5t69 35t54.5 39.5t57 48l43 -61q-43 -45 -107.5 -90.5
t-134.5 -67.5l-61 -109l18 -9q39 -19 56 -29t38 -27t28 -37t5 -47z" />
    <glyph glyph-name="egrave" unicode="&#xe8;" horiz-adv-x="731" 
d="M631 1053h-109l-278 254l143 28zM346 -20q-124 0 -194 91t-70 265q0 272 112 439t273 167q95 0 150 -59t55 -138q0 -73 -41 -133.5t-107 -98.5t-145.5 -59.5t-161.5 -23.5q-2 -20 -2 -65q0 -140 44 -210.5t110 -70.5q64 0 121.5 33t127.5 94l44 -64q-64 -67 -151.5 -117
t-164.5 -50zM432 850q-74 0 -133 -80.5t-78 -261.5q147 6 236.5 68t89.5 151q0 54 -32 88.5t-83 34.5z" />
    <glyph glyph-name="eacute" unicode="&#xe9;" horiz-adv-x="731" 
d="M332 1053l284 282l140 -28l-316 -254h-108zM346 -20q-124 0 -194 91t-70 265q0 272 112 439t273 167q95 0 150 -59t55 -138q0 -73 -41 -133.5t-107 -98.5t-145.5 -59.5t-161.5 -23.5q-2 -20 -2 -65q0 -140 44 -210.5t110 -70.5q64 0 121.5 33t127.5 94l44 -64
q-64 -67 -151.5 -117t-164.5 -50zM432 850q-74 0 -133 -80.5t-78 -261.5q147 6 236.5 68t89.5 151q0 54 -32 88.5t-83 34.5z" />
    <glyph glyph-name="ecircumflex" unicode="&#xea;" horiz-adv-x="731" 
d="M633 1053l-174 164l-197 -164h-110l278 282h76l237 -282h-110zM346 -20q-124 0 -194 91t-70 265q0 272 112 439t273 167q95 0 150 -59t55 -138q0 -73 -41 -133.5t-107 -98.5t-145.5 -59.5t-161.5 -23.5q-2 -20 -2 -65q0 -140 44 -210.5t110 -70.5q64 0 121.5 33t127.5 94
l44 -64q-64 -67 -151.5 -117t-164.5 -50zM432 850q-74 0 -133 -80.5t-78 -261.5q147 6 236.5 68t89.5 151q0 54 -32 88.5t-83 34.5z" />
    <glyph glyph-name="edieresis" unicode="&#xeb;" horiz-adv-x="731" 
d="M541 1229q1 25 35 58.5t55 33.5q23 0 59 -25.5t33 -48.5q-1 -27 -35 -60.5t-55 -33.5q-23 0 -59 26.5t-33 49.5zM184 1229q1 25 35 58.5t55 33.5q23 0 59.5 -25.5t33.5 -48.5q-1 -27 -35.5 -60.5t-55.5 -33.5q-23 0 -59 26.5t-33 49.5zM346 -20q-124 0 -194 91t-70 265
q0 272 112 439t273 167q95 0 150 -59t55 -138q0 -73 -41 -133.5t-107 -98.5t-145.5 -59.5t-161.5 -23.5q-2 -20 -2 -65q0 -140 44 -210.5t110 -70.5q64 0 121.5 33t127.5 94l44 -64q-64 -67 -151.5 -117t-164.5 -50zM432 850q-74 0 -133 -80.5t-78 -261.5q147 6 236.5 68
t89.5 151q0 54 -32 88.5t-83 34.5z" />
    <glyph glyph-name="igrave" unicode="&#xec;" horiz-adv-x="421" 
d="M322 1057h-109l-279 254l144 28zM311 942l-67 -942h-125l65 920z" />
    <glyph glyph-name="iacute" unicode="&#xed;" horiz-adv-x="421" 
d="M186 1057l285 282l139 -28l-315 -254h-109zM311 942l-67 -942h-125l65 920z" />
    <glyph glyph-name="icircumflex" unicode="&#xee;" horiz-adv-x="421" 
d="M440 1057l-174 164l-196 -164h-111l279 282h75l238 -282h-111zM311 942l-67 -942h-125l65 920z" />
    <glyph glyph-name="idieresis" unicode="&#xef;" horiz-adv-x="421" 
d="M326 1229q1 25 35 58.5t55 33.5q23 0 59 -25.5t33 -48.5q-1 -27 -35 -60.5t-55 -33.5q-23 0 -59 26.5t-33 49.5zM25 1229q1 26 34 59t54 33q23 0 59 -25.5t33 -48.5q-1 -26 -34.5 -60t-53.5 -34q-24 0 -59.5 26.5t-32.5 49.5zM311 942l-67 -942h-125l65 920z" />
    <glyph glyph-name="eth" unicode="&#xf0;" horiz-adv-x="825" 
d="M324 -20q-107 0 -174.5 95t-67.5 279q1 126 37 238t94 187.5t129.5 119t142.5 43.5q67 0 136 -29q-31 170 -136 289l-200 -100l-56 63l197 99q-56 51 -160 114l74 62q114 -72 176 -129l191 96l57 -64l-186 -94q96 -107 138 -242t42 -323q0 -131 -29 -247.5t-75.5 -198
t-104 -141t-115.5 -88.5t-110 -29zM369 90q29 -1 64 22t71.5 71.5t66.5 114.5t49 160.5t19 200.5q0 99 -4 146q-109 33 -182 33q-103 0 -169.5 -107.5t-66.5 -335.5q0 -157 39.5 -232t112.5 -73z" />
    <glyph glyph-name="ntilde" unicode="&#xf1;" horiz-adv-x="903" 
d="M764 1264l51 -62l-9 -9q-26 -26 -41 -39.5t-41 -33t-52.5 -28.5t-55.5 -9q-40 0 -128.5 34t-112.5 34q-18 0 -42.5 -10t-41.5 -21t-35 -23.5t-20 -13.5l-46 54q33 34 58 56.5t68 44.5t83 22q46 0 125 -30t105 -30q67 0 135 64zM545 829q-30 0 -68.5 -27t-79.5 -77.5
t-74.5 -138t-46.5 -193.5l-30 -393h-125l63 920l99 22l10 -287q70 139 154.5 213t164.5 74q172 0 172 -233q0 -146 -65 -709h-125q1 22 29 295t28 346q0 104 -23.5 146t-82.5 42z" />
    <glyph glyph-name="ograve" unicode="&#xf2;" horiz-adv-x="882" 
d="M672 1053h-109l-278 254l143 28zM799 557q0 -103 -26 -202.5t-75.5 -184.5t-133.5 -137.5t-189 -52.5q-132 0 -211.5 101.5t-79.5 283.5q0 103 25.5 202t75 184.5t133.5 138t190 52.5q128 0 209.5 -102t81.5 -283zM424 70q57 0 101.5 33.5t70 84t42 117.5t22.5 125t6 115
q0 140 -52 223.5t-157 83.5q-69 0 -119.5 -50t-75 -128.5t-35 -152t-10.5 -144.5q0 -147 54 -227t153 -80z" />
    <glyph glyph-name="oacute" unicode="&#xf3;" horiz-adv-x="882" 
d="M414 1053l284 282l140 -28l-316 -254h-108zM799 557q0 -103 -26 -202.5t-75.5 -184.5t-133.5 -137.5t-189 -52.5q-132 0 -211.5 101.5t-79.5 283.5q0 103 25.5 202t75 184.5t133.5 138t190 52.5q128 0 209.5 -102t81.5 -283zM424 70q57 0 101.5 33.5t70 84t42 117.5
t22.5 125t6 115q0 140 -52 223.5t-157 83.5q-69 0 -119.5 -50t-75 -128.5t-35 -152t-10.5 -144.5q0 -147 54 -227t153 -80z" />
    <glyph glyph-name="ocircumflex" unicode="&#xf4;" horiz-adv-x="882" 
d="M705 1053l-175 164l-196 -164h-111l279 282h76l237 -282h-110zM799 557q0 -103 -26 -202.5t-75.5 -184.5t-133.5 -137.5t-189 -52.5q-132 0 -211.5 101.5t-79.5 283.5q0 103 25.5 202t75 184.5t133.5 138t190 52.5q128 0 209.5 -102t81.5 -283zM424 70q57 0 101.5 33.5
t70 84t42 117.5t22.5 125t6 115q0 140 -52 223.5t-157 83.5q-69 0 -119.5 -50t-75 -128.5t-35 -152t-10.5 -144.5q0 -147 54 -227t153 -80z" />
    <glyph glyph-name="otilde" unicode="&#xf5;" horiz-adv-x="882" 
d="M803 1264l51 -62l-9 -9q-26 -26 -41 -39.5t-41 -33t-52.5 -28.5t-55.5 -9q-40 0 -128.5 34t-112.5 34q-18 0 -42.5 -10t-42 -21t-35.5 -23.5t-20 -13.5l-45 54q33 34 58 56.5t68 44.5t83 22q46 0 125 -30t105 -30q67 0 135 64zM799 557q0 -103 -26 -202.5t-75.5 -184.5
t-133.5 -137.5t-189 -52.5q-132 0 -211.5 101.5t-79.5 283.5q0 103 25.5 202t75 184.5t133.5 138t190 52.5q128 0 209.5 -102t81.5 -283zM424 70q57 0 101.5 33.5t70 84t42 117.5t22.5 125t6 115q0 140 -52 223.5t-157 83.5q-69 0 -119.5 -50t-75 -128.5t-35 -152
t-10.5 -144.5q0 -147 54 -227t153 -80z" />
    <glyph glyph-name="odieresis" unicode="&#xf6;" horiz-adv-x="882" 
d="M596 1229q1 25 35 58.5t55 33.5q23 0 59 -25.5t33 -48.5q-1 -27 -35 -60.5t-55 -33.5q-23 0 -59 26.5t-33 49.5zM240 1229q1 25 35 58.5t55 33.5q23 0 59 -25.5t33 -48.5q-1 -27 -35 -60.5t-55 -33.5q-23 0 -59 26.5t-33 49.5zM799 557q0 -103 -26 -202.5t-75.5 -184.5
t-133.5 -137.5t-189 -52.5q-132 0 -211.5 101.5t-79.5 283.5q0 103 25.5 202t75 184.5t133.5 138t190 52.5q128 0 209.5 -102t81.5 -283zM424 70q57 0 101.5 33.5t70 84t42 117.5t22.5 125t6 115q0 140 -52 223.5t-157 83.5q-69 0 -119.5 -50t-75 -128.5t-35 -152
t-10.5 -144.5q0 -147 54 -227t153 -80z" />
    <glyph glyph-name="divide" unicode="&#xf7;" 
d="M416 852q3 31 44.5 73t69.5 42q34 0 74 -34t37 -65q0 -30 -43 -71t-72 -41q-30 0 -71.5 33.5t-38.5 62.5zM942 592l-6 -105h-873l7 105h872zM373 211q0 30 42.5 72.5t69.5 42.5q29 0 72.5 -34.5t40.5 -64.5t-46 -71t-71 -41q-27 0 -69 33.5t-39 62.5z" />
    <glyph glyph-name="oslash" unicode="&#xf8;" horiz-adv-x="882" 
d="M213 377q0 -170 72 -248l245 711q-35 12 -73 12q-56 0 -100.5 -34.5t-70.5 -86t-43.5 -118t-23.5 -124.5t-6 -112zM424 70q70 0 121.5 49t77 126.5t36.5 152t11 147.5q0 161 -70 243l-244 -708q33 -10 68 -10zM375 -20q-19 0 -51 4l-45 -129h-89l54 155
q-75 42 -117.5 133t-42.5 222q0 103 25.5 202t75 184.5t133.5 138t190 52.5q31 0 55 -6l47 135h88l-57 -164q74 -42 116 -132t42 -218q0 -103 -26 -202.5t-75.5 -184.5t-133.5 -137.5t-189 -52.5z" />
    <glyph glyph-name="ugrave" unicode="&#xf9;" horiz-adv-x="897" 
d="M623 1053h-109l-278 254l143 28zM616 -20l-8 294q-70 -144 -153.5 -219t-165.5 -75q-86 0 -127 57.5t-41 175.5q0 72 13 217t32 311t20 179l127 20q-1 -23 -30 -305.5t-29 -353.5q0 -106 21.5 -147.5t78.5 -41.5q31 0 71 29.5t82 85t75 152t43 212.5v-10l26 359l125 22
l-61 -942z" />
    <glyph glyph-name="uacute" unicode="&#xfa;" horiz-adv-x="897" 
d="M375 1053l284 282l140 -28l-316 -254h-108zM616 -20l-8 294q-70 -144 -153.5 -219t-165.5 -75q-86 0 -127 57.5t-41 175.5q0 72 13 217t32 311t20 179l127 20q-1 -23 -30 -305.5t-29 -353.5q0 -106 21.5 -147.5t78.5 -41.5q31 0 71 29.5t82 85t75 152t43 212.5v-10
l26 359l125 22l-61 -942z" />
    <glyph glyph-name="ucircumflex" unicode="&#xfb;" horiz-adv-x="897" 
d="M684 1053l-174 164l-197 -164h-110l278 282h76l238 -282h-111zM616 -20l-8 294q-70 -144 -153.5 -219t-165.5 -75q-86 0 -127 57.5t-41 175.5q0 72 13 217t32 311t20 179l127 20q-1 -23 -30 -305.5t-29 -353.5q0 -106 21.5 -147.5t78.5 -41.5q31 0 71 29.5t82 85t75 152
t43 212.5v-10l26 359l125 22l-61 -942z" />
    <glyph glyph-name="udieresis" unicode="&#xfc;" horiz-adv-x="897" 
d="M588 1229q1 25 35 58.5t55 33.5q23 0 59 -25.5t33 -48.5q-1 -27 -35 -60.5t-55 -33.5q-23 0 -59 26.5t-33 49.5zM231 1229q1 25 35.5 58.5t55.5 33.5q23 0 59 -25.5t33 -48.5q-1 -27 -35 -60.5t-55 -33.5q-23 0 -59.5 26.5t-33.5 49.5zM616 -20l-8 294
q-70 -144 -153.5 -219t-165.5 -75q-86 0 -127 57.5t-41 175.5q0 72 13 217t32 311t20 179l127 20q-1 -23 -30 -305.5t-29 -353.5q0 -106 21.5 -147.5t78.5 -41.5q31 0 71 29.5t82 85t75 152t43 212.5v-10l26 359l125 22l-61 -942z" />
    <glyph glyph-name="yacute" unicode="&#xfd;" horiz-adv-x="827" 
d="M414 1053l284 282l140 -28l-316 -254h-108zM-127 -465q-34 0 -86 8l14 121q68 -10 127 -10q115 0 223.5 84t200.5 235h-51l-143 936l125 31l129 -862q89 174 151 393.5t88 450.5h115q-8 -100 -30.5 -219t-63.5 -253t-94.5 -263t-128 -248t-159 -208t-193 -142.5
t-224.5 -53.5z" />
    <glyph glyph-name="thorn" unicode="&#xfe;" horiz-adv-x="897" 
d="M455 80q96 0 162.5 120.5t66.5 350.5q0 144 -36.5 211t-96.5 67q-25 0 -58 -21t-71 -67t-71 -110t-58 -160.5t-33 -206.5v10l-12 -153q130 -41 207 -41zM209 -440l-127 -25l131 1843l127 25l-55 -768q71 141 154 224t161 83q215 0 215 -379q0 -153 -56.5 -290
t-146 -216.5t-184.5 -79.5q-101 0 -186 35z" />
    <glyph glyph-name="ydieresis" unicode="&#xff;" horiz-adv-x="827" 
d="M582 1229q1 25 35 58.5t55 33.5q23 0 59 -25.5t33 -48.5q-1 -27 -35 -60.5t-55 -33.5q-23 0 -59 26.5t-33 49.5zM225 1229q1 25 35 58.5t55 33.5q23 0 59.5 -25.5t33.5 -48.5q-1 -27 -35.5 -60.5t-55.5 -33.5q-23 0 -59 26.5t-33 49.5zM-127 -465q-34 0 -86 8l14 121
q68 -10 127 -10q115 0 223.5 84t200.5 235h-51l-143 936l125 31l129 -862q89 174 151 393.5t88 450.5h115q-8 -100 -30.5 -219t-63.5 -253t-94.5 -263t-128 -248t-159 -208t-193 -142.5t-224.5 -53.5z" />
    <glyph glyph-name="Amacron" unicode="&#x100;" horiz-adv-x="1089" 
d="M868 1556l-2 -30l-35 -68h-489l2 31l37 67h487zM725 549l-143 555l-236 -555h379zM868 0l-114 438h-455l-186 -438h-133l548 1253h146l334 -1253h-140z" />
    <glyph glyph-name="amacron" unicode="&#x101;" horiz-adv-x="862" 
d="M768 1249l-2 -30l-35 -68h-489l2 31l37 67h487zM584 -20l-4 245l2 29q-55 -127 -141.5 -200.5t-157.5 -73.5q-94 0 -148.5 84.5t-54.5 271.5q0 157 51.5 294.5t151.5 224.5t227 87q58 0 124.5 -16t110.5 -43l-61 -883zM338 90q32 0 69 24.5t76 74.5t71 142.5t46 211.5
l16 264q-73 37 -163 37q-105 0 -174.5 -132t-69.5 -358q0 -124 33 -194t96 -70z" />
    <glyph glyph-name="Abreve" unicode="&#x102;" horiz-adv-x="1089" 
d="M612 1479q83 0 134.5 52.5t74.5 133.5h80q-6 -119 -97 -211t-208 -92q-85 0 -143 44t-81.5 111t-19.5 148h78q31 -186 182 -186zM725 549l-143 555l-236 -555h379zM868 0l-114 438h-455l-186 -438h-133l548 1253h146l334 -1253h-140z" />
    <glyph glyph-name="abreve" unicode="&#x103;" horiz-adv-x="862" 
d="M512 1171q83 0 134.5 53t74.5 134h80q-6 -119 -97 -211t-208 -92q-85 0 -143 44t-81.5 111t-19.5 148h78q31 -187 182 -187zM584 -20l-4 245l2 29q-55 -127 -141.5 -200.5t-157.5 -73.5q-94 0 -148.5 84.5t-54.5 271.5q0 157 51.5 294.5t151.5 224.5t227 87
q58 0 124.5 -16t110.5 -43l-61 -883zM338 90q32 0 69 24.5t76 74.5t71 142.5t46 211.5l16 264q-73 37 -163 37q-105 0 -174.5 -132t-69.5 -358q0 -124 33 -194t96 -70z" />
    <glyph glyph-name="Aogonek" unicode="&#x104;" horiz-adv-x="1089" 
d="M725 549l-143 555l-236 -555h379zM879 0h-11l-114 438h-455l-186 -438h-133l548 1253h146l334 -1253h-25q-81 -58 -141.5 -129t-63.5 -133q-4 -42 21 -65t63 -23q17 0 31.5 4.5t32 14t18.5 9.5l19 -69q-29 -15 -41.5 -20.5t-42 -13t-62.5 -7.5q-75 0 -110.5 42t-32.5 116
q9 133 205 274z" />
    <glyph glyph-name="aogonek" unicode="&#x105;" horiz-adv-x="862" 
d="M516 -432q-75 0 -110.5 42t-32.5 116q9 133 205 274h6l-4 225l2 29q-55 -127 -141.5 -200.5t-157.5 -73.5q-94 0 -148.5 84.5t-54.5 271.5q0 157 51.5 294.5t151.5 224.5t227 87q58 0 124.5 -16t110.5 -43l-61 -883h-2q-81 -58 -141.5 -129t-63.5 -133q-4 -42 21 -65
t63 -23q17 0 31.5 4.5t32 14t18.5 9.5l19 -69q-29 -15 -41.5 -20.5t-42 -13t-62.5 -7.5zM338 90q32 0 69 24.5t76 74.5t71 142.5t46 211.5l16 264q-73 37 -163 37q-105 0 -174.5 -132t-69.5 -358q0 -124 33 -194t96 -70z" />
    <glyph glyph-name="Cacute" unicode="&#x106;" horiz-adv-x="1019" 
d="M463 1360l285 282l139 -28l-316 -254h-108zM885 160l30 -92q-231 -91 -383 -91q-89 0 -168.5 32t-144 94.5t-102 167t-37.5 237.5q0 120 21.5 230t67.5 208.5t112.5 171t163 114.5t212.5 42q78 0 168 -19t150 -43l-45 -116q-188 69 -330 69q-59 0 -111.5 -18.5
t-102.5 -64.5t-86.5 -115.5t-58.5 -179t-22 -248.5q0 -113 30.5 -201.5t81.5 -141t112 -79.5t126 -27q26 0 52 2t46 5t45 8.5t39.5 9t39 11.5t33.5 11.5t32.5 12t28.5 10.5z" />
    <glyph glyph-name="cacute" unicode="&#x107;" horiz-adv-x="755" 
d="M393 1053l285 282l139 -28l-315 -254h-109zM635 215l43 -61q-62 -64 -153.5 -119t-184.5 -55q-121 0 -189.5 90t-68.5 278q0 138 33.5 253t89 188t124 113t140.5 40q23 0 44 -1.5t40 -5.5t34 -7t30.5 -9.5t25.5 -10t22.5 -10.5t17 -9.5t15.5 -9.5l11 -7l-52 -104
q-3 2 -24 14t-25 14t-22 11.5t-24 12t-22 9t-25.5 8.5t-24 5.5t-28 4.5t-28.5 1q-56 0 -101 -49.5t-70 -123.5t-37.5 -146.5t-12.5 -131.5q0 -161 41.5 -238t130.5 -77q36 0 69.5 10.5t69 35t54.5 39.5t57 48z" />
    <glyph glyph-name="Ccircumflex" unicode="&#x108;" horiz-adv-x="1019" 
d="M872 1360l-174 164l-196 -164h-111l279 282h75l238 -282h-111zM885 160l30 -92q-231 -91 -383 -91q-89 0 -168.5 32t-144 94.5t-102 167t-37.5 237.5q0 120 21.5 230t67.5 208.5t112.5 171t163 114.5t212.5 42q78 0 168 -19t150 -43l-45 -116q-188 69 -330 69
q-59 0 -111.5 -18.5t-102.5 -64.5t-86.5 -115.5t-58.5 -179t-22 -248.5q0 -113 30.5 -201.5t81.5 -141t112 -79.5t126 -27q26 0 52 2t46 5t45 8.5t39.5 9t39 11.5t33.5 11.5t32.5 12t28.5 10.5z" />
    <glyph glyph-name="ccircumflex" unicode="&#x109;" horiz-adv-x="755" 
d="M680 1053l-174 164l-197 -164h-110l278 282h76l238 -282h-111zM635 215l43 -61q-62 -64 -153.5 -119t-184.5 -55q-121 0 -189.5 90t-68.5 278q0 138 33.5 253t89 188t124 113t140.5 40q23 0 44 -1.5t40 -5.5t34 -7t30.5 -9.5t25.5 -10t22.5 -10.5t17 -9.5t15.5 -9.5
l11 -7l-52 -104q-3 2 -24 14t-25 14t-22 11.5t-24 12t-22 9t-25.5 8.5t-24 5.5t-28 4.5t-28.5 1q-56 0 -101 -49.5t-70 -123.5t-37.5 -146.5t-12.5 -131.5q0 -161 41.5 -238t130.5 -77q36 0 69.5 10.5t69 35t54.5 39.5t57 48z" />
    <glyph glyph-name="Cdotaccent" unicode="&#x10a;" horiz-adv-x="1019" 
d="M575 1511q1 28 41 66.5t64 38.5q25 0 63 -30t35 -58q0 -27 -39.5 -64t-62.5 -37q-27 0 -65.5 29t-35.5 55zM885 160l30 -92q-231 -91 -383 -91q-89 0 -168.5 32t-144 94.5t-102 167t-37.5 237.5q0 120 21.5 230t67.5 208.5t112.5 171t163 114.5t212.5 42q78 0 168 -19
t150 -43l-45 -116q-188 69 -330 69q-59 0 -111.5 -18.5t-102.5 -64.5t-86.5 -115.5t-58.5 -179t-22 -248.5q0 -113 30.5 -201.5t81.5 -141t112 -79.5t126 -27q26 0 52 2t46 5t45 8.5t39.5 9t39 11.5t33.5 11.5t32.5 12t28.5 10.5z" />
    <glyph glyph-name="cdotaccent" unicode="&#x10b;" horiz-adv-x="755" 
d="M367 1204q1 28 40.5 66.5t63.5 38.5q25 0 63 -30t35 -58q0 -27 -39.5 -64t-62.5 -37q-27 0 -65 29t-35 55zM635 215l43 -61q-62 -64 -153.5 -119t-184.5 -55q-121 0 -189.5 90t-68.5 278q0 138 33.5 253t89 188t124 113t140.5 40q23 0 44 -1.5t40 -5.5t34 -7t30.5 -9.5
t25.5 -10t22.5 -10.5t17 -9.5t15.5 -9.5l11 -7l-52 -104q-3 2 -24 14t-25 14t-22 11.5t-24 12t-22 9t-25.5 8.5t-24 5.5t-28 4.5t-28.5 1q-56 0 -101 -49.5t-70 -123.5t-37.5 -146.5t-12.5 -131.5q0 -161 41.5 -238t130.5 -77q36 0 69.5 10.5t69 35t54.5 39.5t57 48z" />
    <glyph glyph-name="Ccaron" unicode="&#x10c;" horiz-adv-x="1019" 
d="M680 1366h-74l-237 285h108l174 -164l197 164h113zM885 160l30 -92q-231 -91 -383 -91q-89 0 -168.5 32t-144 94.5t-102 167t-37.5 237.5q0 120 21.5 230t67.5 208.5t112.5 171t163 114.5t212.5 42q78 0 168 -19t150 -43l-45 -116q-188 69 -330 69q-59 0 -111.5 -18.5
t-102.5 -64.5t-86.5 -115.5t-58.5 -179t-22 -248.5q0 -113 30.5 -201.5t81.5 -141t112 -79.5t126 -27q26 0 52 2t46 5t45 8.5t39.5 9t39 11.5t33.5 11.5t32.5 12t28.5 10.5z" />
    <glyph glyph-name="ccaron" unicode="&#x10d;" horiz-adv-x="755" 
d="M520 1059h-74l-237 284h108l175 -163l196 163h113zM635 215l43 -61q-62 -64 -153.5 -119t-184.5 -55q-121 0 -189.5 90t-68.5 278q0 138 33.5 253t89 188t124 113t140.5 40q23 0 44 -1.5t40 -5.5t34 -7t30.5 -9.5t25.5 -10t22.5 -10.5t17 -9.5t15.5 -9.5l11 -7l-52 -104
q-3 2 -24 14t-25 14t-22 11.5t-24 12t-22 9t-25.5 8.5t-24 5.5t-28 4.5t-28.5 1q-56 0 -101 -49.5t-70 -123.5t-37.5 -146.5t-12.5 -131.5q0 -161 41.5 -238t130.5 -77q36 0 69.5 10.5t69 35t54.5 39.5t57 48z" />
    <glyph glyph-name="Dcaron" unicode="&#x10e;" horiz-adv-x="1136" 
d="M590 1366h-74l-237 285h108l174 -164l197 164h112zM215 1253h342q243 0 385.5 -143t140.5 -367q1 -179 -52.5 -323.5t-144.5 -234.5t-206.5 -137.5t-245.5 -47.5h-307zM340 1143l-72 -1032h197q216 0 349.5 151.5t133.5 429.5q0 214 -114 332.5t-326 118.5h-168z" />
    <glyph glyph-name="dcaron" unicode="&#x10f;" horiz-adv-x="1021" 
d="M952 1364q4 20 32.5 36.5t57.5 16.5q22 0 43.5 -46.5t18.5 -94.5q-5 -58 -38 -120t-118 -169l-53 41q5 8 17.5 26.5t17 25.5t14 22.5t13.5 22.5t11 19.5t10 20.5t7 18t5.5 18.5t2.5 17.5q2 40 -19.5 90.5t-21.5 54.5zM346 90q25 0 58.5 21t71.5 67.5t71 111t58.5 161
t33.5 206.5v-4l10 146q-124 39 -211 39q-94 0 -158.5 -119t-64.5 -350q0 -144 35.5 -211.5t95.5 -67.5zM627 -20l-15 307q-69 -143 -152 -226.5t-163 -83.5q-215 0 -215 379q0 154 56.5 290.5t145.5 216t185 79.5q102 0 188 -29l35 463l125 25l-94 -1401z" />
    <glyph glyph-name="Dcroat" unicode="&#x110;" horiz-adv-x="1167" 
d="M465 0h-307l41 592h-136v26l35 76h109l39 559h342q243 0 385.5 -143t140.5 -367q1 -179 -52.5 -323.5t-144.5 -234.5t-206.5 -137.5t-245.5 -47.5zM299 111h197q216 0 349.5 151.5t133.5 429.5q0 214 -114 332.5t-326 118.5h-168l-31 -449h346v-26l-33 -76h-321z" />
    <glyph glyph-name="dcroat" unicode="&#x111;" horiz-adv-x="905" 
d="M346 90q25 0 58.5 21t71.5 67.5t71 111t58.5 161t33.5 206.5v-4l10 146q-124 39 -211 39q-94 0 -158.5 -119t-64.5 -350q0 -144 35.5 -211.5t95.5 -67.5zM627 -20l-15 307q-69 -143 -152 -226.5t-163 -83.5q-215 0 -215 379q0 154 56.5 290.5t145.5 216t185 79.5
q102 0 188 -29l17 226h-283l4 30l35 62h252l10 145l125 25l-12 -170h127l-4 -31l-35 -61h-94l-76 -1139z" />
    <glyph glyph-name="Emacron" unicode="&#x112;" horiz-adv-x="921" 
d="M811 1556l-2 -30l-35 -68h-489l2 31l37 67h487zM127 0l88 1253h635l-23 -110l-487 6l-31 -440h447l-21 -105l-432 4l-35 -504l537 7l-25 -111h-653z" />
    <glyph glyph-name="emacron" unicode="&#x113;" horiz-adv-x="731" 
d="M733 1249l-2 -30l-35 -68h-489l2 31l37 67h487zM346 -20q-124 0 -194 91t-70 265q0 272 112 439t273 167q95 0 150 -59t55 -138q0 -73 -41 -133.5t-107 -98.5t-145.5 -59.5t-161.5 -23.5q-2 -20 -2 -65q0 -140 44 -210.5t110 -70.5q64 0 121.5 33t127.5 94l44 -64
q-64 -67 -151.5 -117t-164.5 -50zM432 850q-74 0 -133 -80.5t-78 -261.5q147 6 236.5 68t89.5 151q0 54 -32 88.5t-83 34.5z" />
    <glyph glyph-name="Ebreve" unicode="&#x114;" horiz-adv-x="921" 
d="M532 1479q83 0 134.5 52.5t74.5 133.5h80q-6 -119 -97 -211t-208 -92q-85 0 -143 44t-81.5 111t-19.5 148h78q31 -186 182 -186zM127 0l88 1253h635l-23 -110l-487 6l-31 -440h447l-21 -105l-432 4l-35 -504l537 7l-25 -111h-653z" />
    <glyph glyph-name="ebreve" unicode="&#x115;" horiz-adv-x="731" 
d="M438 1171q83 0 134.5 53t74.5 134h80q-6 -119 -97 -211t-208 -92q-85 0 -143 44t-81.5 111t-19.5 148h78q31 -187 182 -187zM346 -20q-124 0 -194 91t-70 265q0 272 112 439t273 167q95 0 150 -59t55 -138q0 -73 -41 -133.5t-107 -98.5t-145.5 -59.5t-161.5 -23.5
q-2 -20 -2 -65q0 -140 44 -210.5t110 -70.5q64 0 121.5 33t127.5 94l44 -64q-64 -67 -151.5 -117t-164.5 -50zM432 850q-74 0 -133 -80.5t-78 -261.5q147 6 236.5 68t89.5 151q0 54 -32 88.5t-83 34.5z" />
    <glyph glyph-name="Edotaccent" unicode="&#x116;" horiz-adv-x="921" 
d="M459 1511q1 28 40.5 66.5t63.5 38.5q25 0 63.5 -30t35.5 -58q0 -27 -40 -64t-63 -37q-27 0 -65 29t-35 55zM127 0l88 1253h635l-23 -110l-487 6l-31 -440h447l-21 -105l-432 4l-35 -504l537 7l-25 -111h-653z" />
    <glyph glyph-name="edotaccent" unicode="&#x117;" horiz-adv-x="731" 
d="M336 1204q1 28 40.5 66.5t63.5 38.5q25 0 63.5 -30t35.5 -58q0 -27 -40 -64t-63 -37q-27 0 -65 29t-35 55zM346 -20q-124 0 -194 91t-70 265q0 272 112 439t273 167q95 0 150 -59t55 -138q0 -73 -41 -133.5t-107 -98.5t-145.5 -59.5t-161.5 -23.5q-2 -20 -2 -65
q0 -140 44 -210.5t110 -70.5q64 0 121.5 33t127.5 94l44 -64q-64 -67 -151.5 -117t-164.5 -50zM432 850q-74 0 -133 -80.5t-78 -261.5q147 6 236.5 68t89.5 151q0 54 -32 88.5t-83 34.5z" />
    <glyph glyph-name="Eogonek" unicode="&#x118;" horiz-adv-x="921" 
d="M127 0l88 1253h635l-23 -110l-487 6l-31 -440h447l-21 -105l-432 4l-35 -504l537 7l-25 -111h-653zM444 -274q9 133 205 274h105q-81 -58 -141.5 -129t-63.5 -133q-4 -42 21 -65t63 -23q17 0 31.5 4.5t32 14t18.5 9.5l18 -69q-62 -32 -100 -38q-21 -3 -45 -3
q-75 0 -111 42.5t-33 115.5z" />
    <glyph glyph-name="eogonek" unicode="&#x119;" horiz-adv-x="731" 
d="M436 -340q-75 0 -110.5 42t-32.5 116q5 78 80 164q-8 -2 -27 -2q-124 0 -194 91t-70 265q0 272 112 439t273 167q95 0 150 -59t55 -138q0 -73 -41 -133.5t-107 -98.5t-145.5 -59.5t-161.5 -23.5q-2 -20 -2 -65q0 -140 44 -210.5t110 -70.5q64 0 121.5 33t127.5 94l44 -64
q-37 -37 -60 -55q-1 -1 -3 -2t-3 -2q-17 -13 -29 -20q-70 -56 -118.5 -119.5t-51.5 -118.5q-4 -42 21 -65t63 -23q17 0 31.5 5t31.5 14t19 10l19 -70q-29 -15 -41.5 -20.5t-42 -13t-62.5 -7.5zM432 850q-74 0 -133 -80.5t-78 -261.5q147 6 236.5 68t89.5 151q0 54 -32 88.5
t-83 34.5z" />
    <glyph glyph-name="Ecaron" unicode="&#x11a;" horiz-adv-x="921" 
d="M580 1366h-74l-238 285h109l174 -164l197 164h112zM127 0l88 1253h635l-23 -110l-487 6l-31 -440h447l-21 -105l-432 4l-35 -504l537 7l-25 -111h-653z" />
    <glyph glyph-name="ecaron" unicode="&#x11b;" horiz-adv-x="731" 
d="M473 1059h-74l-237 284h108l174 -163l197 163h113zM346 -20q-124 0 -194 91t-70 265q0 272 112 439t273 167q95 0 150 -59t55 -138q0 -73 -41 -133.5t-107 -98.5t-145.5 -59.5t-161.5 -23.5q-2 -20 -2 -65q0 -140 44 -210.5t110 -70.5q64 0 121.5 33t127.5 94l44 -64
q-64 -67 -151.5 -117t-164.5 -50zM432 850q-74 0 -133 -80.5t-78 -261.5q147 6 236.5 68t89.5 151q0 54 -32 88.5t-83 34.5z" />
    <glyph glyph-name="Gcircumflex" unicode="&#x11c;" horiz-adv-x="1105" 
d="M881 1360l-174 164l-197 -164h-111l279 282h76l237 -282h-110zM963 82q-206 -102 -422 -102q-67 0 -132 19t-125 61t-105 102.5t-72 150t-27 197.5q0 165 40 303.5t115 241.5t192 161t263 58q173 0 342 -66l-51 -127q-201 84 -365 84q-187 0 -291 -162.5t-104 -439.5
q0 -126 33 -221t88 -147.5t117 -77.5t131 -25q119 0 250 41l37 490h127z" />
    <glyph glyph-name="gcircumflex" unicode="&#x11d;" horiz-adv-x="763" 
d="M391 467q172 0 172 205q0 87 -54 136.5t-124 49.5q-162 0 -162 -199q0 -84 51.5 -138t116.5 -54zM692 -104q0 -69 -62 -134t-156 -104t-187 -39q-137 0 -219 51.5t-82 132.5q0 55 34 105t113 108l133 95q-66 35 -89 61.5t-25 60.5q1 49 30 81t99 79q-77 23 -126 85
t-49 149q0 137 87.5 226t234.5 89q66 0 127 -33l98 144h-63l-174 164l-197 -164h-110l278 282h76l211 -252l12 17l82 -82l-18 -37l-146 -107q76 -69 76 -172q0 -135 -90.5 -227t-231.5 -92q-52 -34 -75 -59t-23 -52q0 -8 5.5 -16.5t18 -18t26 -18t37 -21t42.5 -22
t51.5 -25.5t55.5 -28q107 -56 151.5 -104.5t44.5 -122.5zM342 -289q93 0 165.5 45t72.5 113q0 53 -52.5 98t-169.5 99q-24 12 -34 16l-93 -70q-71 -50 -99 -84.5t-28 -83.5q0 -56 62.5 -94.5t175.5 -38.5z" />
    <glyph glyph-name="Gbreve" unicode="&#x11e;" horiz-adv-x="1105" 
d="M686 1479q83 0 134.5 52.5t74.5 133.5h80q-6 -119 -97 -211t-208 -92q-85 0 -143 44t-81.5 111t-19.5 148h78q31 -186 182 -186zM963 82q-206 -102 -422 -102q-67 0 -132 19t-125 61t-105 102.5t-72 150t-27 197.5q0 165 40 303.5t115 241.5t192 161t263 58
q173 0 342 -66l-51 -127q-201 84 -365 84q-187 0 -291 -162.5t-104 -439.5q0 -126 33 -221t88 -147.5t117 -77.5t131 -25q119 0 250 41l37 490h127z" />
    <glyph glyph-name="gbreve" unicode="&#x11f;" horiz-adv-x="763" 
d="M401 1171q83 0 134.5 53t74.5 134h80q-6 -119 -97 -211t-208 -92q-85 0 -143 44t-81.5 111t-19.5 148h78q31 -187 182 -187zM391 467q172 0 172 205q0 87 -54 136.5t-124 49.5q-162 0 -162 -199q0 -84 51.5 -138t116.5 -54zM692 -104q0 -69 -62 -134t-156 -104t-187 -39
q-137 0 -219 51.5t-82 132.5q0 55 34 105t113 108l133 95q-66 35 -89 61.5t-25 60.5q1 49 30 81t99 79q-77 23 -126 85t-49 149q0 137 87.5 226t234.5 89q66 0 127 -33l131 191l82 -82l-18 -37l-146 -107q76 -69 76 -172q0 -135 -90.5 -227t-231.5 -92q-52 -34 -75 -59
t-23 -52q0 -8 5.5 -16.5t18 -18t26 -18t37 -21t42.5 -22t51.5 -25.5t55.5 -28q107 -56 151.5 -104.5t44.5 -122.5zM342 -289q93 0 165.5 45t72.5 113q0 53 -52.5 98t-169.5 99q-24 12 -34 16l-93 -70q-71 -50 -99 -84.5t-28 -83.5q0 -56 62.5 -94.5t175.5 -38.5z" />
    <glyph glyph-name="Gdotaccent" unicode="&#x120;" horiz-adv-x="1105" 
d="M569 1511q1 28 41 66.5t64 38.5q25 0 63 -30t35 -58q0 -27 -39.5 -64t-62.5 -37q-27 0 -65.5 29t-35.5 55zM963 82q-206 -102 -422 -102q-67 0 -132 19t-125 61t-105 102.5t-72 150t-27 197.5q0 165 40 303.5t115 241.5t192 161t263 58q173 0 342 -66l-51 -127
q-201 84 -365 84q-187 0 -291 -162.5t-104 -439.5q0 -126 33 -221t88 -147.5t117 -77.5t131 -25q119 0 250 41l37 490h127z" />
    <glyph glyph-name="gdotaccent" unicode="&#x121;" horiz-adv-x="763" 
d="M303 1204q1 28 41 66.5t64 38.5q25 0 63 -30t35 -58q0 -27 -40 -64t-63 -37q-27 0 -65 29t-35 55zM391 467q172 0 172 205q0 87 -54 136.5t-124 49.5q-162 0 -162 -199q0 -84 51.5 -138t116.5 -54zM692 -104q0 -69 -62 -134t-156 -104t-187 -39q-137 0 -219 51.5
t-82 132.5q0 55 34 105t113 108l133 95q-66 35 -89 61.5t-25 60.5q1 49 30 81t99 79q-77 23 -126 85t-49 149q0 137 87.5 226t234.5 89q66 0 127 -33l131 191l82 -82l-18 -37l-146 -107q76 -69 76 -172q0 -135 -90.5 -227t-231.5 -92q-52 -34 -75 -59t-23 -52
q0 -8 5.5 -16.5t18 -18t26 -18t37 -21t42.5 -22t51.5 -25.5t55.5 -28q107 -56 151.5 -104.5t44.5 -122.5zM342 -289q93 0 165.5 45t72.5 113q0 53 -52.5 98t-169.5 99q-24 12 -34 16l-93 -70q-71 -50 -99 -84.5t-28 -83.5q0 -56 62.5 -94.5t175.5 -38.5z" />
    <glyph glyph-name="Gcommaaccent" unicode="&#x122;" horiz-adv-x="1105" 
d="M963 82q-206 -102 -422 -102q-67 0 -132 19t-125 61t-105 102.5t-72 150t-27 197.5q0 165 40 303.5t115 241.5t192 161t263 58q173 0 342 -66l-51 -127q-201 84 -365 84q-187 0 -291 -162.5t-104 -439.5q0 -126 33 -221t88 -147.5t117 -77.5t131 -25q119 0 250 41l37 490
h127zM449 -162q5 25 29.5 46.5t51.5 21.5q28 0 63 -40.5t32 -78.5q-3 -35 -30.5 -90t-107.5 -195l-71 29q83 146 88 209q1 9 -27.5 41.5t-27.5 56.5z" />
    <glyph glyph-name="gcommaaccent" unicode="&#x123;" horiz-adv-x="763" 
d="M530 1126q-5 -25 -29.5 -47t-51.5 -22q-28 0 -63 41.5t-32 79.5q3 35 30.5 89t107.5 193l71 -26q-83 -148 -88 -211q-1 -7 27.5 -40t27.5 -57zM391 467q172 0 172 205q0 87 -54 136.5t-124 49.5q-162 0 -162 -199q0 -84 51.5 -138t116.5 -54zM692 -104q0 -69 -62 -134
t-156 -104t-187 -39q-137 0 -219 51.5t-82 132.5q0 55 34 105t113 108l133 95q-66 35 -89 61.5t-25 60.5q1 49 30 81t99 79q-77 23 -126 85t-49 149q0 137 87.5 226t234.5 89q66 0 127 -33l131 191l82 -82l-18 -37l-146 -107q76 -69 76 -172q0 -135 -90.5 -227t-231.5 -92
q-52 -34 -75 -59t-23 -52q0 -8 5.5 -16.5t18 -18t26 -18t37 -21t42.5 -22t51.5 -25.5t55.5 -28q107 -56 151.5 -104.5t44.5 -122.5zM342 -289q93 0 165.5 45t72.5 113q0 53 -52.5 98t-169.5 99q-24 12 -34 16l-93 -70q-71 -50 -99 -84.5t-28 -83.5q0 -56 62.5 -94.5
t175.5 -38.5z" />
    <glyph glyph-name="Hcircumflex" unicode="&#x124;" horiz-adv-x="1171" 
d="M852 1360l-174 164l-197 -164h-110l278 282h76l238 -282h-111zM842 0l43 604h-582l-43 -604h-133l88 1253h133l-39 -544h582l39 544h133l-88 -1253h-133z" />
    <glyph glyph-name="hcircumflex" unicode="&#x125;" horiz-adv-x="901" 
d="M485 1413l-174 164l-196 -164h-111l279 283h75l238 -283h-111zM272 350v37l-26 -387h-125l94 1378l125 25l-51 -756q72 143 157 219t166 76q172 0 172 -233q0 -146 -65 -709h-125q1 22 29 295t28 346q0 104 -23.5 146t-82.5 42q-31 0 -72 -29.5t-83 -85t-75 -151.5
t-43 -213z" />
    <glyph glyph-name="Hbar" unicode="&#x126;" horiz-adv-x="1228" 
d="M918 709l14 209h-582l-14 -209h582zM868 0l43 604h-581l-43 -604h-133l63 918h-125v26l33 68h100l17 241h133l-17 -241h582l16 241h134l-17 -241h127l2 -27l-33 -67h-104l-64 -918h-133z" />
    <glyph glyph-name="hbar" unicode="&#x127;" horiz-adv-x="890" 
d="M272 350v37l-26 -387h-125l78 1139h-191l6 30l35 62h156l10 147l125 25l-12 -172h260l-6 -31l-35 -61h-225l-33 -492q72 143 157 219t166 76q172 0 172 -233q0 -146 -65 -709h-125q1 22 29 295t28 346q0 104 -23.5 146t-82.5 42q-31 0 -72 -29.5t-83 -85t-75 -151.5
t-43 -213z" />
    <glyph glyph-name="Itilde" unicode="&#x128;" horiz-adv-x="481" 
d="M547 1571l51 -62q-4 -4 -21.5 -22t-24.5 -24t-23.5 -21t-27.5 -21t-27.5 -14.5t-33 -12t-34.5 -3.5q-40 0 -119 33.5t-103 33.5q-18 0 -41 -9.5t-39.5 -20.5t-33.5 -23.5t-19 -13.5l-45 53q36 37 57.5 57t63.5 43t82 23q46 0 114.5 -30t94.5 -30q61 0 129 64zM348 1253
l-88 -1253h-133l88 1253h133z" />
    <glyph glyph-name="itilde" unicode="&#x129;" horiz-adv-x="421" 
d="M520 1264l51 -62q-64 -64 -94 -84q-52 -35 -104 -35q-40 0 -129 34t-113 34q-18 0 -42.5 -10t-41.5 -21t-35 -23.5t-20 -13.5l-45 54q33 34 58 56.5t68 44.5t83 22q46 0 124.5 -30t104.5 -30q67 0 135 64zM311 942l-67 -942h-125l65 920z" />
    <glyph glyph-name="Imacron" unicode="&#x12a;" horiz-adv-x="481" 
d="M553 1556l-2 -30l-35 -68h-489l2 31l37 67h487zM348 1253l-88 -1253h-133l88 1253h133z" />
    <glyph glyph-name="imacron" unicode="&#x12b;" horiz-adv-x="421" 
d="M537 1249l-2 -30l-35 -68h-490l2 31l37 67h488zM311 940l-67 -942h-125l65 920z" />
    <glyph glyph-name="Ibreve" unicode="&#x12c;" horiz-adv-x="481" 
d="M307 1479q83 0 134.5 52.5t74.5 133.5h80q-6 -119 -97 -211t-208 -92q-85 0 -143 44t-81.5 111t-19.5 148h78q31 -186 182 -186zM348 1253l-88 -1253h-133l88 1253h133z" />
    <glyph glyph-name="ibreve" unicode="&#x12d;" horiz-adv-x="421" 
d="M276 1171q83 0 134.5 53t74.5 134h80q-6 -119 -97 -211t-208 -92q-85 0 -143 44t-81.5 111t-19.5 148h78q31 -187 182 -187zM311 942l-67 -942h-125l65 920z" />
    <glyph glyph-name="Iogonek" unicode="&#x12e;" horiz-adv-x="481" 
d="M133 0h-6l88 1253h133l-88 -1253h-22q-81 -58 -141.5 -129t-63.5 -133q-4 -42 21 -65t63 -23q17 0 31.5 4.5t32 14t18.5 9.5l18 -69q-62 -32 -100 -38q-21 -3 -45 -3q-75 0 -111 42.5t-33 115.5q9 133 205 274z" />
    <glyph glyph-name="iogonek" unicode="&#x12f;" horiz-adv-x="421" 
d="M190 1231q0 28 34.5 67t54.5 39q22 0 50.5 -30t28.5 -58q0 -22 -33.5 -62t-54.5 -40q-23 0 -51.5 28.5t-28.5 55.5zM137 0h-16l65 920l125 22l-67 -942h-2q-81 -58 -141.5 -129t-63.5 -133q-4 -42 21 -65t63 -23q17 0 31.5 4.5t32 14t18.5 9.5l18 -69q-62 -32 -100 -38
q-21 -3 -45 -3q-75 0 -111 42.5t-33 115.5q9 133 205 274z" />
    <glyph glyph-name="Idotaccent" unicode="&#x130;" horiz-adv-x="481" 
d="M205 1511q1 28 40.5 66.5t63.5 38.5q25 0 63.5 -30t35.5 -58q0 -27 -40 -64t-63 -37q-27 0 -65 29t-35 55zM348 1253l-88 -1253h-133l88 1253h133z" />
    <glyph glyph-name="dotlessi" unicode="&#x131;" horiz-adv-x="411" 
d="M301 942l-68 -942h-124l65 920z" />
    <glyph glyph-name="IJ" unicode="&#x132;" horiz-adv-x="1177" 
d="M348 1253l-88 -1253h-133l88 1253h133zM1051 1253l-62 -893q-12 -180 -113 -280t-258 -100q-73 0 -135 20l29 119q101 -37 178 -37q58 0 105 57.5t53 145.5l67 968h136z" />
    <glyph glyph-name="ij" unicode="&#x133;" horiz-adv-x="856" 
d="M631 1231q0 28 34 67t54 39q22 0 51 -30t29 -58q0 -22 -33.5 -62t-54.5 -40q-23 0 -51.5 28.5t-28.5 55.5zM190 1231q0 28 34.5 67t54.5 39q22 0 50.5 -30t28.5 -58q0 -22 -33.5 -62t-54.5 -40q-23 0 -51.5 28.5t-28.5 55.5zM186 920l125 22l-67 -942h-123zM311 -471
l-20 121q8 0 25 -1t24 -1q102 0 151.5 79t61.5 269l68 926l127 24l-72 -962q-13 -206 -124 -329.5t-241 -125.5z" />
    <glyph glyph-name="Jcircumflex" unicode="&#x134;" horiz-adv-x="651" 
d="M676 1360l-174 164l-197 -164h-110l278 282h76l237 -282h-110zM547 1253l-62 -893q-12 -180 -112.5 -280t-257.5 -100q-73 0 -135 20l28 119q101 -37 178 -37q58 0 105 57.5t53 145.5l68 968h135z" />
    <glyph glyph-name="jcircumflex" unicode="&#x135;" horiz-adv-x="438" 
d="M453 1053l-174 164l-197 -164h-111l279 282h76l237 -282h-110zM-121 -471l-20 121q8 0 25 -1t24 -1q102 0 151.5 79t61.5 269l67 926l127 24l-71 -962q-13 -206 -124 -329.5t-241 -125.5z" />
    <glyph glyph-name="Kcommaaccent" unicode="&#x136;" horiz-adv-x="1058" 
d="M973 0h-168l-488 674l586 579h158l-596 -575zM346 1253l-88 -1253h-131l88 1253h131zM395 -162q5 25 30 46.5t52 21.5q28 0 62.5 -40.5t31.5 -78.5q-3 -36 -31 -92t-106 -193l-72 29q84 148 89 209q1 9 -28 41.5t-28 56.5z" />
    <glyph glyph-name="kcommaaccent" unicode="&#x137;" horiz-adv-x="794" 
d="M649 -14q-24 24 -48.5 55.5t-105.5 154.5t-212 336l-39 -532h-123l98 1376l127 29l-63 -866q117 83 201.5 172.5t162.5 210.5h129q-151 -234 -360 -387q115 -177 191.5 -288t96 -136t56.5 -70zM313 -162q5 25 30 46.5t52 21.5q28 0 62.5 -40.5t31.5 -78.5q-3 -36 -31 -92
t-106 -193l-71 29q83 146 88 209q1 9 -28 41.5t-28 56.5z" />
    <glyph glyph-name="Lacute" unicode="&#x139;" horiz-adv-x="874" 
d="M176 1360l285 282l139 -28l-315 -254h-109zM127 0l88 1253h133l-80 -1147l535 7l-23 -113h-653z" />
    <glyph glyph-name="lacute" unicode="&#x13a;" horiz-adv-x="495" 
d="M188 1446l285 283l139 -29l-315 -254h-109zM410 147l24 -77q-128 -90 -194 -90q-50 0 -87.5 36.5t-37.5 102.5q0 4 1 13q20 196 91 1244l125 25q-12 -182 -23.5 -341.5t-19.5 -271.5t-15 -207t-11.5 -155t-8.5 -107.5t-6 -72.5t-3.5 -42.5t-2 -25t-0.5 -12.5
q0 -37 15.5 -54.5t39.5 -17.5q47 0 113 53z" />
    <glyph glyph-name="Lcommaaccent" unicode="&#x13b;" horiz-adv-x="874" 
d="M127 0l88 1253h133l-80 -1147l535 7l-23 -113h-653zM358 -162q5 25 30 46.5t52 21.5q28 0 63 -40.5t32 -78.5q-3 -35 -30.5 -90t-107.5 -195l-71 29q83 146 88 209q1 9 -28 41.5t-28 56.5z" />
    <glyph glyph-name="lcommaaccent" unicode="&#x13c;" horiz-adv-x="495" 
d="M410 147l24 -77q-128 -90 -194 -90q-50 0 -87.5 36.5t-37.5 102.5q0 4 1 13q20 196 91 1244l125 25q-12 -182 -23.5 -341.5t-19.5 -271.5t-15 -207t-11.5 -155t-8.5 -107.5t-6 -72.5t-3.5 -42.5t-2 -25t-0.5 -12.5q0 -37 15.5 -54.5t39.5 -17.5q47 0 113 53zM172 -162
q5 25 30 46.5t52 21.5q28 0 62.5 -40.5t31.5 -78.5q-3 -36 -31 -92t-106 -193l-72 29q83 146 88 209q1 9 -27.5 41.5t-27.5 56.5z" />
    <glyph glyph-name="Lcaron" unicode="&#x13d;" horiz-adv-x="894" 
d="M711 1364q4 20 32.5 36.5t57.5 16.5q22 0 43 -46.5t18 -94.5q-5 -58 -37.5 -120t-117.5 -169l-54 41q6 9 22 33.5t21.5 32.5t17 27t15.5 28t10.5 23t9 25t3.5 22q2 40 -19.5 90.5t-21.5 54.5zM127 0l88 1253h133l-80 -1147l535 7l-23 -113h-653z" />
    <glyph glyph-name="lcaron" unicode="&#x13e;" horiz-adv-x="538" 
d="M471 1364q4 20 32.5 36.5t57.5 16.5q22 0 43.5 -46.5t18.5 -94.5q-5 -58 -38 -120t-118 -169l-53 41q5 8 17.5 26.5t17 25.5t14 22.5t13.5 22.5t11 19.5t10 20.5t7 18t5.5 18.5t2.5 17.5q2 40 -19.5 90.5t-21.5 54.5zM410 147l24 -77q-128 -90 -194 -90q-50 0 -87.5 36.5
t-37.5 102.5q0 4 1 13q20 196 91 1244l125 25q-12 -182 -23.5 -341.5t-19.5 -271.5t-15 -207t-11.5 -155t-8.5 -107.5t-6 -72.5t-3.5 -42.5t-2 -25t-0.5 -12.5q0 -37 15.5 -54.5t39.5 -17.5q47 0 113 53z" />
    <glyph glyph-name="Ldot" unicode="&#x13f;" horiz-adv-x="874" 
d="M580 610q1 28 40.5 66.5t63.5 38.5q25 0 63 -30t35 -58q0 -27 -39.5 -64t-62.5 -37q-27 0 -65 29t-35 55zM127 0l88 1253h133l-80 -1147l535 7l-23 -113h-653z" />
    <glyph glyph-name="ldot" unicode="&#x140;" horiz-adv-x="555" 
d="M410 147l24 -77q-128 -90 -194 -90q-50 0 -87.5 36.5t-37.5 102.5q0 4 1 13q20 196 91 1244l125 25q-12 -182 -23.5 -341.5t-19.5 -271.5t-15 -207t-11.5 -155t-8.5 -107.5t-6 -72.5t-3.5 -42.5t-2 -25t-0.5 -12.5q0 -37 15.5 -54.5t39.5 -17.5q47 0 113 53zM391 510
q1 28 41 66t64 38q25 0 63 -30t35 -58q0 -27 -39.5 -63.5t-62.5 -36.5q-27 0 -65.5 29t-35.5 55z" />
    <glyph glyph-name="Lslash" unicode="&#x141;" horiz-adv-x="917" 
d="M139 0l39 539l-135 -56l8 117l135 55l41 598h133l-38 -540l315 131l-10 -117l-314 -131l-32 -490l534 7l-22 -113h-654z" />
    <glyph glyph-name="lslash" unicode="&#x142;" horiz-adv-x="526" 
d="M240 -20q-50 0 -87.5 36.5t-37.5 102.5q0 3 1 11q10 92 36 454l-113 -47l10 106l111 47q8 115 47 686l125 25q-9 -137 -24.5 -355.5t-20.5 -300.5l180 78l-10 -108l-178 -76q-8 -113 -15.5 -204.5t-11 -135.5t-6 -74.5t-3.5 -41.5t-1 -17q0 -37 15.5 -54.5t39.5 -17.5
q47 0 113 53l24 -77q-128 -90 -194 -90z" />
    <glyph glyph-name="Nacute" unicode="&#x143;" horiz-adv-x="1216" 
d="M506 1360l285 282l139 -28l-316 -254h-108zM891 0l-578 1042l-71 -1042h-115l84 1253h125l563 -1011l76 1011h115l-89 -1253h-110z" />
    <glyph glyph-name="nacute" unicode="&#x144;" horiz-adv-x="903" 
d="M371 1053l284 282l140 -28l-316 -254h-108zM545 829q-30 0 -68.5 -27t-79.5 -77.5t-74.5 -138t-46.5 -193.5l-30 -393h-125l63 920l99 22l10 -287q70 139 154.5 213t164.5 74q172 0 172 -233q0 -146 -65 -709h-125q1 22 29 295t28 346q0 104 -23.5 146t-82.5 42z" />
    <glyph glyph-name="Ncommaaccent" unicode="&#x145;" horiz-adv-x="1216" 
d="M891 0l-578 1042l-71 -1042h-115l84 1253h125l563 -1011l76 1011h115l-89 -1253h-110zM506 -162q5 25 30 46.5t52 21.5q28 0 62.5 -40.5t31.5 -78.5q-3 -36 -31 -92t-106 -193l-72 29q83 146 88 209q1 9 -27.5 41.5t-27.5 56.5z" />
    <glyph glyph-name="ncommaaccent" unicode="&#x146;" horiz-adv-x="903" 
d="M545 829q-30 0 -68.5 -27t-79.5 -77.5t-74.5 -138t-46.5 -193.5l-30 -393h-125l63 920l99 22l10 -287q70 139 154.5 213t164.5 74q172 0 172 -233q0 -146 -65 -709h-125q1 22 29 295t28 346q0 104 -23.5 146t-82.5 42zM330 -162q5 25 30 46.5t52 21.5q28 0 62.5 -40.5
t31.5 -78.5q-3 -36 -31 -92t-106 -193l-72 29q83 146 88 209q1 9 -27.5 41.5t-27.5 56.5z" />
    <glyph glyph-name="Ncaron" unicode="&#x147;" horiz-adv-x="1216" 
d="M674 1366h-74l-238 285h109l174 -164l197 164h112zM891 0l-578 1042l-71 -1042h-115l84 1253h125l563 -1011l76 1011h115l-89 -1253h-110z" />
    <glyph glyph-name="ncaron" unicode="&#x148;" horiz-adv-x="903" 
d="M528 1059h-73l-238 284h109l174 -163l196 163h113zM545 829q-30 0 -68.5 -27t-79.5 -77.5t-74.5 -138t-46.5 -193.5l-30 -393h-125l63 920l99 22l10 -287q70 139 154.5 213t164.5 74q172 0 172 -233q0 -146 -65 -709h-125q1 22 29 295t28 346q0 104 -23.5 146t-82.5 42z
" />
    <glyph glyph-name="Eng" unicode="&#x14a;" horiz-adv-x="1216" 
d="M655 -369q-43 0 -139 31l39 121q90 -39 156 -39q156 0 168 211l4 59l-570 1028l-71 -1042h-115l84 1253h125l563 -1011l76 1011h115l-84 -1198l-2 -43q-10 -181 -106 -281t-243 -100z" />
    <glyph glyph-name="eng" unicode="&#x14b;" horiz-adv-x="903" 
d="M350 -471l-20 121q8 0 25 -1t24 -1q103 0 155 84.5t72 300.5q4 52 16.5 193t20.5 251t8 164q0 104 -23.5 146t-82.5 42q-30 0 -68.5 -27t-79.5 -77.5t-74.5 -138t-46.5 -193.5l-30 -393h-125l63 920l99 22l10 -287q70 139 154.5 213t164.5 74q172 0 172 -233
q0 -70 -9.5 -194t-23.5 -275t-16 -172q-6 -136 -44.5 -243.5t-95.5 -169.5t-119.5 -93.5t-125.5 -32.5z" />
    <glyph glyph-name="Omacron" unicode="&#x14c;" horiz-adv-x="1124" 
d="M901 1556l-2 -30l-35 -68h-489l2 31l37 67h487zM1075 731q0 -161 -35.5 -292t-92.5 -214.5t-133 -140.5t-153.5 -80.5t-156.5 -23.5q-186 0 -305 143.5t-119 398.5q0 161 35.5 292t92.5 215t133 140.5t153.5 80.5t156.5 24q186 0 305 -144t119 -399zM578 88q72 0 135 35
t114 104t81 183.5t30 261.5q0 114 -21 202t-55.5 142t-83.5 88.5t-98.5 47.5t-106.5 13q-71 0 -133.5 -34.5t-112.5 -103t-79 -183t-29 -262.5q0 -113 20.5 -201t54 -142.5t81 -89t97 -48t106.5 -13.5z" />
    <glyph glyph-name="omacron" unicode="&#x14d;" horiz-adv-x="882" 
d="M780 1249l-2 -30l-35 -68h-489l2 31l37 67h487zM799 557q0 -103 -26 -202.5t-75.5 -184.5t-133.5 -137.5t-189 -52.5q-132 0 -211.5 101.5t-79.5 283.5q0 103 25.5 202t75 184.5t133.5 138t190 52.5q128 0 209.5 -102t81.5 -283zM424 70q57 0 101.5 33.5t70 84t42 117.5
t22.5 125t6 115q0 140 -52 223.5t-157 83.5q-69 0 -119.5 -50t-75 -128.5t-35 -152t-10.5 -144.5q0 -147 54 -227t153 -80z" />
    <glyph glyph-name="Obreve" unicode="&#x14e;" horiz-adv-x="1124" 
d="M610 1479q83 0 134.5 52.5t74.5 133.5h80q-6 -119 -97 -211t-208 -92q-85 0 -143 44t-81.5 111t-19.5 148h78q31 -186 182 -186zM1075 731q0 -161 -35.5 -292t-92.5 -214.5t-133 -140.5t-153.5 -80.5t-156.5 -23.5q-186 0 -305 143.5t-119 398.5q0 161 35.5 292t92.5 215
t133 140.5t153.5 80.5t156.5 24q186 0 305 -144t119 -399zM578 88q72 0 135 35t114 104t81 183.5t30 261.5q0 114 -21 202t-55.5 142t-83.5 88.5t-98.5 47.5t-106.5 13q-71 0 -133.5 -34.5t-112.5 -103t-79 -183t-29 -262.5q0 -113 20.5 -201t54 -142.5t81 -89t97 -48
t106.5 -13.5z" />
    <glyph glyph-name="obreve" unicode="&#x14f;" horiz-adv-x="882" 
d="M514 1171q83 0 134.5 53t74.5 134h80q-6 -119 -97 -211t-208 -92q-85 0 -143 44t-81.5 111t-19.5 148h78q31 -187 182 -187zM799 557q0 -103 -26 -202.5t-75.5 -184.5t-133.5 -137.5t-189 -52.5q-132 0 -211.5 101.5t-79.5 283.5q0 103 25.5 202t75 184.5t133.5 138
t190 52.5q128 0 209.5 -102t81.5 -283zM424 70q57 0 101.5 33.5t70 84t42 117.5t22.5 125t6 115q0 140 -52 223.5t-157 83.5q-69 0 -119.5 -50t-75 -128.5t-35 -152t-10.5 -144.5q0 -147 54 -227t153 -80z" />
    <glyph glyph-name="Ohungarumlaut" unicode="&#x150;" horiz-adv-x="1124" 
d="M557 1360l295 282l141 -28l-327 -254h-109zM332 1360l295 282l141 -28l-328 -254h-108zM1075 731q0 -161 -35.5 -292t-92.5 -214.5t-133 -140.5t-153.5 -80.5t-156.5 -23.5q-186 0 -305 143.5t-119 398.5q0 161 35.5 292t92.5 215t133 140.5t153.5 80.5t156.5 24
q186 0 305 -144t119 -399zM578 88q72 0 135 35t114 104t81 183.5t30 261.5q0 114 -21 202t-55.5 142t-83.5 88.5t-98.5 47.5t-106.5 13q-71 0 -133.5 -34.5t-112.5 -103t-79 -183t-29 -262.5q0 -113 20.5 -201t54 -142.5t81 -89t97 -48t106.5 -13.5z" />
    <glyph glyph-name="ohungarumlaut" unicode="&#x151;" horiz-adv-x="882" 
d="M506 1053l295 282l141 -28l-328 -254h-108zM281 1053l294 282l142 -28l-328 -254h-108zM799 557q0 -103 -26 -202.5t-75.5 -184.5t-133.5 -137.5t-189 -52.5q-132 0 -211.5 101.5t-79.5 283.5q0 103 25.5 202t75 184.5t133.5 138t190 52.5q128 0 209.5 -102t81.5 -283z
M424 70q57 0 101.5 33.5t70 84t42 117.5t22.5 125t6 115q0 140 -52 223.5t-157 83.5q-69 0 -119.5 -50t-75 -128.5t-35 -152t-10.5 -144.5q0 -147 54 -227t153 -80z" />
    <glyph glyph-name="OE" unicode="&#x152;" horiz-adv-x="1536" 
d="M573 88q94 0 177 55l65 938q-97 84 -233 84q-56 0 -107 -18.5t-98.5 -62.5t-82 -109.5t-55 -166.5t-20.5 -226q0 -250 98.5 -372t255.5 -122zM739 0l2 35q-113 -55 -231 -55q-204 0 -317 148.5t-113 412.5q0 153 35 279t92 208.5t132 139.5t152 81.5t156 24.5
q112 0 178 -39l2 18h635l-22 -110l-488 6l-30 -440h446l-20 -105l-433 4l-34 -504l536 7l-24 -111h-654z" />
    <glyph glyph-name="oe" unicode="&#x153;" horiz-adv-x="1294" 
d="M922 -20q-86 0 -146.5 43.5t-89.5 128.5q-118 -172 -311 -172q-132 0 -211.5 101.5t-79.5 283.5q0 103 25.5 202t75 184.5t133.5 138t190 52.5q85 0 151 -46.5t103 -133.5q54 88 126 134t154 46q95 0 150 -59t55 -138q0 -73 -40.5 -133.5t-107 -98.5t-145.5 -59.5
t-161 -23.5q-2 -20 -2 -65q0 -140 43.5 -210.5t109.5 -70.5q64 0 122 33t128 94l43 -64q-64 -67 -151 -117t-164 -50zM424 70q57 0 101.5 33.5t70 84t42 117.5t22.5 125t6 115q0 140 -52 223.5t-157 83.5q-69 0 -119.5 -50t-75 -128.5t-35 -152t-10.5 -144.5q0 -147 54 -227
t153 -80zM1008 850q-74 0 -133 -79t-78 -259v-4q147 6 236 68t89 151q0 54 -31.5 88.5t-82.5 34.5z" />
    <glyph glyph-name="Racute" unicode="&#x154;" horiz-adv-x="1011" 
d="M354 1360l285 282l139 -28l-315 -254h-109zM477 1153h-135l-37 -520h182q51 0 98 15.5t86.5 46t63 81.5t23.5 117q0 128 -67.5 194t-213.5 66zM422 537h-123l-39 -537h-133l88 1253h297q182 0 281.5 -84t99.5 -227q0 -130 -73 -226.5t-195 -142.5l297 -573h-160l-260 543
q-40 -6 -80 -6z" />
    <glyph glyph-name="racute" unicode="&#x155;" horiz-adv-x="606" 
d="M328 1053l284 282l140 -28l-316 -254h-108zM274 342l-2 6l-26 -348h-125l61 920l101 22l12 -268q112 268 315 268q3 0 7 0.5t6.5 0.5t5.5 -1l-25 -135q-1 0 -5.5 1t-13.5 2t-20 1q-32 0 -61.5 -7t-69.5 -35.5t-70 -76t-55.5 -138t-34.5 -212.5z" />
    <glyph glyph-name="Rcommaaccent" unicode="&#x156;" horiz-adv-x="1011" 
d="M477 1153h-135l-37 -520h182q51 0 98 15.5t86.5 46t63 81.5t23.5 117q0 128 -67.5 194t-213.5 66zM422 537h-123l-39 -537h-133l88 1253h297q182 0 281.5 -84t99.5 -227q0 -130 -73 -226.5t-195 -142.5l297 -573h-160l-260 543q-40 -6 -80 -6zM399 -162q5 25 30 46.5
t52 21.5q28 0 62.5 -40.5t31.5 -78.5q-3 -36 -31 -92t-106 -193l-71 29q83 146 88 209q1 9 -28 41.5t-28 56.5z" />
    <glyph glyph-name="rcommaaccent" unicode="&#x157;" horiz-adv-x="606" 
d="M274 342l-2 6l-26 -348h-125l61 920l101 22l12 -268q112 268 315 268q3 0 7 0.5t6.5 0.5t5.5 -1l-25 -135q-1 0 -5.5 1t-13.5 2t-20 1q-32 0 -61.5 -7t-69.5 -35.5t-70 -76t-55.5 -138t-34.5 -212.5zM92 -162q5 25 30 46.5t52 21.5q28 0 62.5 -40.5t31.5 -78.5
q-3 -36 -31 -92t-106 -193l-72 29q83 146 88 209q1 9 -27.5 41.5t-27.5 56.5z" />
    <glyph glyph-name="Rcaron" unicode="&#x158;" horiz-adv-x="1011" 
d="M537 1366h-74l-238 285h109l174 -164l197 164h112zM477 1153h-135l-37 -520h182q51 0 98 15.5t86.5 46t63 81.5t23.5 117q0 128 -67.5 194t-213.5 66zM422 537h-123l-39 -537h-133l88 1253h297q182 0 281.5 -84t99.5 -227q0 -130 -73 -226.5t-195 -142.5l297 -573h-160
l-260 543q-40 -6 -80 -6z" />
    <glyph glyph-name="rcaron" unicode="&#x159;" horiz-adv-x="606" 
d="M436 1059h-74l-237 284h108l175 -163l196 163h113zM274 342l-2 6l-26 -348h-125l61 920l101 22l12 -268q112 268 315 268q3 0 7 0.5t6.5 0.5t5.5 -1l-25 -135q-1 0 -5.5 1t-13.5 2t-20 1q-32 0 -61.5 -7t-69.5 -35.5t-70 -76t-55.5 -138t-34.5 -212.5z" />
    <glyph glyph-name="Sacute" unicode="&#x15a;" horiz-adv-x="874" 
d="M389 1360l285 282l139 -28l-315 -254h-109zM477 559l-96 51q-132 66 -192 134.5t-60 175.5q0 154 118 254t296 100q195 0 284 -39l-30 -117q-177 56 -332 56q-87 0 -145 -61t-58 -140q0 -78 37.5 -133.5t146.5 -110.5l101 -51q125 -64 184.5 -133t59.5 -164
q0 -183 -137.5 -292t-352.5 -109q-164 0 -260 43l37 114q174 -57 325 -51q112 -3 182 61t70 156q0 89 -34.5 145t-143.5 111z" />
    <glyph glyph-name="sacute" unicode="&#x15b;" horiz-adv-x="690" 
d="M334 1053l284 282l140 -28l-316 -254h-108zM309 -20q-134 0 -264 49l31 112q164 -63 272 -63q61 0 89 35t28 86q0 42 -20.5 82t-75.5 88l-119 108q-59 55 -85 101t-26 112q0 60 26 109.5t66.5 80t86.5 46.5t90 16q54 0 127.5 -13.5t101.5 -25.5l-35 -110q-163 51 -229 51
q-52 0 -83.5 -32t-31.5 -85q0 -39 17 -74.5t77 -89.5l123 -110q62 -58 86.5 -103t24.5 -98q0 -70 -29.5 -125.5t-74.5 -86t-89.5 -45.5t-83.5 -15z" />
    <glyph glyph-name="Scircumflex" unicode="&#x15c;" horiz-adv-x="874" 
d="M754 1360l-174 164l-197 -164h-111l279 282h76l237 -282h-110zM477 559l-96 51q-132 66 -192 134.5t-60 175.5q0 154 118 254t296 100q195 0 284 -39l-30 -117q-177 56 -332 56q-87 0 -145 -61t-58 -140q0 -78 37.5 -133.5t146.5 -110.5l101 -51q125 -64 184.5 -133
t59.5 -164q0 -183 -137.5 -292t-352.5 -109q-164 0 -260 43l37 114q174 -57 325 -51q112 -3 182 61t70 156q0 89 -34.5 145t-143.5 111z" />
    <glyph glyph-name="scircumflex" unicode="&#x15d;" horiz-adv-x="690" 
d="M614 1053l-174 164l-196 -164h-111l279 282h75l238 -282h-111zM309 -20q-134 0 -264 49l31 112q164 -63 272 -63q61 0 89 35t28 86q0 42 -20.5 82t-75.5 88l-119 108q-59 55 -85 101t-26 112q0 60 26 109.5t66.5 80t86.5 46.5t90 16q54 0 127.5 -13.5t101.5 -25.5
l-35 -110q-163 51 -229 51q-52 0 -83.5 -32t-31.5 -85q0 -39 17 -74.5t77 -89.5l123 -110q62 -58 86.5 -103t24.5 -98q0 -70 -29.5 -125.5t-74.5 -86t-89.5 -45.5t-83.5 -15z" />
    <glyph glyph-name="Scedilla" unicode="&#x15e;" horiz-adv-x="874" 
d="M178 -465l-12 76q52 7 85.5 13.5t64.5 17.5t46.5 27.5t16.5 39.5q1 30 -34.5 52t-117.5 46l-4 11l86 162h-8q-164 0 -260 43l37 114q174 -57 325 -51q112 -3 182 61t70 156q0 89 -34.5 145t-143.5 111l-96 51q-132 66 -192 134.5t-60 175.5q0 154 118 254t296 100
q195 0 284 -39l-30 -117q-177 56 -332 56q-87 0 -145 -61t-58 -140q0 -78 37.5 -133.5t146.5 -110.5l101 -51q125 -64 184.5 -133t59.5 -164q0 -159 -108 -264.5t-284 -130.5l-55 -99l18 -9q39 -19 56 -29t38 -27t28 -37t5 -47q-5 -71 -83.5 -129t-227.5 -74z" />
    <glyph glyph-name="scedilla" unicode="&#x15f;" horiz-adv-x="690" 
d="M125 -465l-12 76q52 7 85.5 13.5t64.5 17.5t46.5 27.5t16.5 39.5q1 30 -34.5 52t-117.5 46l-4 11l86 164q-96 6 -211 47l31 112q164 -63 272 -63q61 0 89 35t28 86q0 42 -20.5 82t-75.5 88l-119 108q-59 55 -85 101t-26 112q0 60 26 109.5t66.5 80t86.5 46.5t90 16
q54 0 127.5 -13.5t101.5 -25.5l-35 -110q-163 51 -229 51q-52 0 -83.5 -32t-31.5 -85q0 -39 17 -74.5t77 -89.5l123 -110q62 -58 86.5 -103t24.5 -98q0 -63 -23.5 -114t-61.5 -82t-77.5 -49t-79.5 -25l-53 -95l18 -9q39 -19 56 -29t38 -27t28 -37t5 -47q-5 -71 -83.5 -129
t-227.5 -74z" />
    <glyph glyph-name="Scaron" unicode="&#x160;" horiz-adv-x="874" 
d="M594 1366h-74l-237 285h108l174 -164l197 164h112zM477 559l-96 51q-132 66 -192 134.5t-60 175.5q0 154 118 254t296 100q195 0 284 -39l-30 -117q-177 56 -332 56q-87 0 -145 -61t-58 -140q0 -78 37.5 -133.5t146.5 -110.5l101 -51q125 -64 184.5 -133t59.5 -164
q0 -183 -137.5 -292t-352.5 -109q-164 0 -260 43l37 114q174 -57 325 -51q112 -3 182 61t70 156q0 89 -34.5 145t-143.5 111z" />
    <glyph glyph-name="scaron" unicode="&#x161;" horiz-adv-x="690" 
d="M463 1059h-74l-237 284h108l174 -163l197 163h112zM309 -20q-134 0 -264 49l31 112q164 -63 272 -63q61 0 89 35t28 86q0 42 -20.5 82t-75.5 88l-119 108q-59 55 -85 101t-26 112q0 60 26 109.5t66.5 80t86.5 46.5t90 16q54 0 127.5 -13.5t101.5 -25.5l-35 -110
q-163 51 -229 51q-52 0 -83.5 -32t-31.5 -85q0 -39 17 -74.5t77 -89.5l123 -110q62 -58 86.5 -103t24.5 -98q0 -70 -29.5 -125.5t-74.5 -86t-89.5 -45.5t-83.5 -15z" />
    <glyph glyph-name="Tcommaaccent" unicode="&#x162;" horiz-adv-x="1028" 
d="M987 1139l-373 6l-77 -1145h-136l80 1145l-385 -6l29 114h891zM346 -162q5 25 30 46.5t52 21.5q28 0 62.5 -40.5t31.5 -78.5q-3 -36 -31 -92t-106 -193l-72 29q83 146 88 209q1 9 -27.5 41.5t-27.5 56.5z" />
    <glyph glyph-name="tcommaaccent" unicode="&#x163;" horiz-adv-x="655" 
d="M602 113q-169 -133 -299 -133q-66 0 -112 46t-46 115q0 89 66 686h-150l11 74l149 21q7 71 21 186l125 25q-1 -12 -10 -92t-13 -119h305l-31 -95h-286q-7 -61 -20.5 -176t-18.5 -162.5t-12.5 -117t-10 -108t-2.5 -66.5q0 -53 26 -80t68 -27q47 0 95.5 24t113.5 70z
M256 -162q5 25 30 46.5t52 21.5q28 0 62.5 -40.5t31.5 -78.5q-3 -36 -31 -92t-106 -193l-72 29q83 146 88 209q1 9 -27.5 41.5t-27.5 56.5z" />
    <glyph glyph-name="Tcaron" unicode="&#x164;" horiz-adv-x="1028" 
d="M602 1366h-74l-237 285h108l174 -164l197 164h113zM987 1139l-373 6l-77 -1145h-136l80 1145l-385 -6l29 114h891z" />
    <glyph glyph-name="tcaron" unicode="&#x165;" horiz-adv-x="655" 
d="M502 1368q4 20 32.5 36.5t57.5 16.5q22 0 43 -46.5t18 -94.5q-5 -58 -37.5 -120t-117.5 -169l-54 41q6 9 22 33.5t21.5 32.5t17 27t15.5 28t10.5 23t9 25t3.5 22q2 40 -19.5 90.5t-21.5 54.5zM602 113q-169 -133 -299 -133q-66 0 -112 46t-46 115q0 89 66 686h-150l11 74
l149 21q7 71 21 186l125 25q-1 -12 -10 -92t-13 -119h305l-31 -95h-286q-7 -61 -20.5 -176t-18.5 -162.5t-12.5 -117t-10 -108t-2.5 -66.5q0 -53 26 -80t68 -27q47 0 95.5 24t113.5 70z" />
    <glyph glyph-name="Tbar" unicode="&#x166;" horiz-adv-x="1028" 
d="M874 659h-292l-45 -659h-136l48 659h-336l6 27l37 64h299l26 395l-385 -6l29 114h891l-29 -114l-373 6l-26 -395h327l-4 -27z" />
    <glyph glyph-name="tbar" unicode="&#x167;" horiz-adv-x="655" 
d="M602 113q-169 -133 -299 -133q-66 0 -112 46t-46 115q0 71 27 330h-133l6 31l35 57h102q3 42 29 268h-150l11 74l149 21q7 71 21 186l125 25q-1 -12 -10 -92t-13 -119h305l-31 -95h-286q-12 -119 -31 -268h277l-7 -31l-34 -57h-246q-23 -209 -23 -274q0 -53 26 -80
t68 -27q47 0 95.5 24t113.5 70z" />
    <glyph glyph-name="Utilde" unicode="&#x168;" horiz-adv-x="1179" 
d="M915 1571l52 -62q-66 -66 -101 -88q-49 -30 -98 -30q-40 0 -129 33.5t-113 33.5q-18 0 -42.5 -9.5t-41.5 -20.5t-35 -23.5t-20 -13.5l-45 53q33 34 58 56.5t68 44.5t83 22q46 0 124.5 -30t104.5 -30q67 0 135 64zM213 1253h133q-12 -181 -22.5 -345.5t-15.5 -234.5
t-9 -132.5t-5 -90t-1 -57.5q0 -151 78.5 -225t220.5 -74q136 0 210 78t87 256l53 825h131l-55 -809q-15 -231 -140 -347.5t-343 -116.5q-165 0 -275 92.5t-110 265.5q0 20 0.5 38t2.5 51.5t4.5 68t8 108t11 150.5t15.5 215.5t21 283.5z" />
    <glyph glyph-name="utilde" unicode="&#x169;" horiz-adv-x="897" 
d="M770 1264l51 -62q-64 -64 -94 -84q-52 -35 -104 -35q-40 0 -129 34t-113 34q-18 0 -42.5 -10t-41.5 -21t-35 -23.5t-20 -13.5l-45 54q33 34 58 56.5t68 44.5t83 22q46 0 124.5 -30t104.5 -30q67 0 135 64zM616 -20l-8 294q-70 -144 -153.5 -219t-165.5 -75
q-86 0 -127 57.5t-41 175.5q0 72 13 217t32 311t20 179l127 20q-1 -23 -30 -305.5t-29 -353.5q0 -106 21.5 -147.5t78.5 -41.5q31 0 71 29.5t82 85t75 152t43 212.5v-10l26 359l125 22l-61 -942z" />
    <glyph glyph-name="Umacron" unicode="&#x16a;" horiz-adv-x="1179" 
d="M909 1556l-2 -30l-35 -68h-489l2 31l37 67h487zM213 1253h133q-12 -181 -22.5 -345.5t-15.5 -234.5t-9 -132.5t-5 -90t-1 -57.5q0 -151 78.5 -225t220.5 -74q136 0 210 78t87 256l53 825h131l-55 -809q-15 -231 -140 -347.5t-343 -116.5q-165 0 -275 92.5t-110 265.5
q0 20 0.5 38t2.5 51.5t4.5 68t8 108t11 150.5t15.5 215.5t21 283.5z" />
    <glyph glyph-name="umacron" unicode="&#x16b;" horiz-adv-x="897" 
d="M776 1249l-2 -30l-35 -68h-489l2 31l37 67h487zM616 -20l-8 294q-70 -144 -153.5 -219t-165.5 -75q-86 0 -127 57.5t-41 175.5q0 72 13 217t32 311t20 179l127 20q-1 -23 -30 -305.5t-29 -353.5q0 -106 21.5 -147.5t78.5 -41.5q31 0 71 29.5t82 85t75 152t43 212.5v-10
l26 359l125 22l-61 -942z" />
    <glyph glyph-name="Ubreve" unicode="&#x16c;" horiz-adv-x="1179" 
d="M668 1479q83 0 134.5 52.5t74.5 133.5h79q-6 -119 -97 -211t-208 -92q-85 0 -143 44t-81 111t-19 148h77q31 -186 183 -186zM213 1253h133q-12 -181 -22.5 -345.5t-15.5 -234.5t-9 -132.5t-5 -90t-1 -57.5q0 -151 78.5 -225t220.5 -74q136 0 210 78t87 256l53 825h131
l-55 -809q-15 -231 -140 -347.5t-343 -116.5q-165 0 -275 92.5t-110 265.5q0 20 0.5 38t2.5 51.5t4.5 68t8 108t11 150.5t15.5 215.5t21 283.5z" />
    <glyph glyph-name="ubreve" unicode="&#x16d;" horiz-adv-x="897" 
d="M504 1171q83 0 134.5 53t74.5 134h80q-6 -119 -97.5 -211t-208.5 -92q-85 0 -143 44t-81 111t-19 148h78q31 -187 182 -187zM616 -20l-8 294q-70 -144 -153.5 -219t-165.5 -75q-86 0 -127 57.5t-41 175.5q0 72 13 217t32 311t20 179l127 20q-1 -23 -30 -305.5t-29 -353.5
q0 -106 21.5 -147.5t78.5 -41.5q31 0 71 29.5t82 85t75 152t43 212.5v-10l26 359l125 22l-61 -942z" />
    <glyph glyph-name="Uring" unicode="&#x16e;" horiz-adv-x="1179" 
d="M856 1548q-4 -71 -64 -122.5t-133 -51.5q-75 0 -125.5 46.5t-44.5 127.5q3 72 62.5 123t132.5 51q76 0 127 -46t45 -128zM578 1548q-3 -41 23.5 -67.5t64.5 -26.5t68.5 26.5t33.5 67.5q3 44 -24 71.5t-66 27.5q-38 0 -67.5 -27.5t-32.5 -71.5zM213 1253h133
q-12 -181 -22.5 -345.5t-15.5 -234.5t-9 -132.5t-5 -90t-1 -57.5q0 -151 78.5 -225t220.5 -74q136 0 210 78t87 256l53 825h131l-55 -809q-15 -231 -140 -347.5t-343 -116.5q-165 0 -275 92.5t-110 265.5q0 20 0.5 38t2.5 51.5t4.5 68t8 108t11 150.5t15.5 215.5t21 283.5z
" />
    <glyph glyph-name="uring" unicode="&#x16f;" horiz-adv-x="897" 
d="M678 1241q-4 -71 -64 -122.5t-133 -51.5q-75 0 -125.5 46.5t-44.5 127.5q3 72 62.5 123t132.5 51q76 0 127 -46t45 -128zM399 1241q-3 -41 23.5 -67.5t64.5 -26.5t69 26.5t34 67.5q3 44 -24 71t-66 27t-68.5 -27t-32.5 -71zM616 -20l-8 294q-70 -144 -153.5 -219
t-165.5 -75q-86 0 -127 57.5t-41 175.5q0 72 13 217t32 311t20 179l127 20q-1 -23 -30 -305.5t-29 -353.5q0 -106 21.5 -147.5t78.5 -41.5q31 0 71 29.5t82 85t75 152t43 212.5v-10l26 359l125 22l-61 -942z" />
    <glyph glyph-name="Uhungarumlaut" unicode="&#x170;" horiz-adv-x="1179" 
d="M571 1360l295 282l142 -28l-328 -254h-109zM346 1360l295 282l141 -28l-327 -254h-109zM213 1253h133q-12 -181 -22.5 -345.5t-15.5 -234.5t-9 -132.5t-5 -90t-1 -57.5q0 -151 78.5 -225t220.5 -74q136 0 210 78t87 256l53 825h131l-55 -809q-15 -231 -140 -347.5
t-343 -116.5q-165 0 -275 92.5t-110 265.5q0 20 0.5 38t2.5 51.5t4.5 68t8 108t11 150.5t15.5 215.5t21 283.5z" />
    <glyph glyph-name="uhungarumlaut" unicode="&#x171;" horiz-adv-x="897" 
d="M485 1053l295 282l142 -28l-328 -254h-109zM260 1053l295 282l141 -28l-327 -254h-109zM616 -20l-8 294q-70 -144 -153.5 -219t-165.5 -75q-86 0 -127 57.5t-41 175.5q0 72 13 217t32 311t20 179l127 20q-1 -23 -30 -305.5t-29 -353.5q0 -106 21.5 -147.5t78.5 -41.5
q31 0 71 29.5t82 85t75 152t43 212.5v-10l26 359l125 22l-61 -942z" />
    <glyph glyph-name="Uogonek" unicode="&#x172;" horiz-adv-x="1179" 
d="M616 -391q-75 0 -110.5 42t-32.5 116q7 99 133 217q-46 -4 -71 -4q-165 0 -275 92.5t-110 265.5q0 20 0.5 38t2.5 51.5t4.5 68t8 108t11 150.5t15.5 215.5t21 283.5h133q-12 -181 -22.5 -345.5t-15.5 -234.5t-9 -132.5t-5 -90t-1 -57.5q0 -151 78.5 -225t220.5 -74
q136 0 210 78t87 256l53 825h131l-55 -809q-21 -333 -268 -428q-71 -56 -120 -118.5t-52 -118.5q-4 -42 21 -65t63 -23q17 0 31.5 4.5t31.5 13.5t18 10l19 -69q-29 -15 -41.5 -20.5t-42 -13t-62.5 -7.5z" />
    <glyph glyph-name="uogonek" unicode="&#x173;" horiz-adv-x="897" 
d="M547 -432q-75 0 -111 42.5t-33 115.5q9 133 205 274h8l-8 274q-70 -144 -153.5 -219t-165.5 -75q-86 0 -127 57.5t-41 175.5q0 72 13 217t32 311t20 179l127 20q-1 -23 -30 -305.5t-29 -353.5q0 -106 21.5 -147.5t78.5 -41.5q31 0 71 29.5t82 85t75 152t43 212.5v-10
l26 359l125 22l-61 -942h-2q-81 -58 -141.5 -129t-63.5 -133q-4 -42 21 -65t63 -23q17 0 31.5 4.5t32 14t18.5 9.5l18 -69q-62 -32 -100 -38q-21 -3 -45 -3z" />
    <glyph glyph-name="Wcircumflex" unicode="&#x174;" horiz-adv-x="1693" 
d="M1112 1360l-174 164l-197 -164h-110l278 282h76l238 -282h-111zM1165 0l-260 1051l-426 -1051h-133l-194 1253h133l159 -1052l424 1052h121l264 -1063l322 1063h127l-402 -1253h-135z" />
    <glyph glyph-name="wcircumflex" unicode="&#x175;" horiz-adv-x="1277" 
d="M866 1053l-174 164l-196 -164h-111l279 282h75l238 -282h-111zM655 0l-37 510q-98 -314 -301 -512l-118 2l-66 926l119 14l57 -825q104 107 183 289.5t108 383.5l-10 134h117l51 -803q231 212 317 803h109q-14 -118 -44 -241t-78 -254.5t-123.5 -245.5t-166.5 -181h-117z
" />
    <glyph glyph-name="Ycircumflex" unicode="&#x176;" horiz-adv-x="1015" 
d="M774 1360l-174 164l-197 -164h-110l278 282h76l238 -282h-111zM559 0h-135l37 512l-375 741h150l309 -620l379 620h137l-465 -735z" />
    <glyph glyph-name="ycircumflex" unicode="&#x177;" horiz-adv-x="827" 
d="M651 1053l-174 164l-196 -164h-111l279 282h75l238 -282h-111zM-127 -465q-34 0 -86 8l14 121q68 -10 127 -10q115 0 223.5 84t200.5 235h-51l-143 936l125 31l129 -862q89 174 151 393.5t88 450.5h115q-8 -100 -30.5 -219t-63.5 -253t-94.5 -263t-128 -248t-159 -208
t-193 -142.5t-224.5 -53.5z" />
    <glyph glyph-name="Ydieresis" unicode="&#x178;" horiz-adv-x="1015" 
d="M659 1536q1 25 35.5 58.5t55.5 33.5q23 0 59 -25.5t33 -48.5q-1 -27 -35 -60.5t-55 -33.5q-23 0 -59.5 26.5t-33.5 49.5zM303 1536q1 25 35 58.5t55 33.5q23 0 59 -25.5t33 -48.5q-1 -27 -35 -60.5t-55 -33.5q-23 0 -59 26.5t-33 49.5zM559 0h-135l37 512l-375 741h150
l309 -620l379 620h137l-465 -735z" />
    <glyph glyph-name="Zacute" unicode="&#x179;" horiz-adv-x="1044" 
d="M354 1360l285 282l139 -28l-315 -254h-109zM885 0h-805l8 98l719 1041h-653l34 114h777l-11 -114l-714 -1026h678z" />
    <glyph glyph-name="zacute" unicode="&#x17a;" horiz-adv-x="727" 
d="M293 1053l285 282l139 -28l-316 -254h-108zM637 0h-600l8 102l483 721l-415 -6l14 105h549l-12 -107l-484 -717l477 8z" />
    <glyph glyph-name="Zdotaccent" unicode="&#x17b;" horiz-adv-x="1044" 
d="M473 1511q1 28 41 66.5t64 38.5q25 0 63 -30t35 -58q0 -27 -40 -64t-63 -37q-27 0 -65 29t-35 55zM885 0h-805l8 98l719 1041h-653l34 114h777l-11 -114l-714 -1026h678z" />
    <glyph glyph-name="zdotaccent" unicode="&#x17c;" horiz-adv-x="727" 
d="M285 1204q1 28 40.5 66.5t63.5 38.5q25 0 63 -30t35 -58q0 -27 -39.5 -64t-62.5 -37q-27 0 -65 29t-35 55zM637 0h-600l8 102l483 721l-415 -6l14 105h549l-12 -107l-484 -717l477 8z" />
    <glyph glyph-name="Zcaron" unicode="&#x17d;" horiz-adv-x="1044" 
d="M571 1366h-73l-238 285h109l174 -164l196 164h113zM885 0h-805l8 98l719 1041h-653l34 114h777l-11 -114l-714 -1026h678z" />
    <glyph glyph-name="zcaron" unicode="&#x17e;" horiz-adv-x="727" 
d="M444 1059h-73l-238 284h109l174 -163l196 163h113zM637 0h-600l8 102l483 721l-415 -6l14 105h549l-12 -107l-484 -717l477 8z" />
    <glyph glyph-name="Acaron" unicode="&#x1cd;" horiz-adv-x="1089" 
d="M635 1366h-74l-237 285h108l174 -164l197 164h112zM725 549l-143 555l-236 -555h379zM868 0l-114 438h-455l-186 -438h-133l548 1253h146l334 -1253h-140z" />
    <glyph glyph-name="acaron" unicode="&#x1ce;" horiz-adv-x="862" 
d="M541 1059h-74l-238 284h109l174 -163l197 163h112zM584 -20l-4 245l2 29q-55 -127 -141.5 -200.5t-157.5 -73.5q-94 0 -148.5 84.5t-54.5 271.5q0 157 51.5 294.5t151.5 224.5t227 87q58 0 124.5 -16t110.5 -43l-61 -883zM338 90q32 0 69 24.5t76 74.5t71 142.5t46 211.5
l16 264q-73 37 -163 37q-105 0 -174.5 -132t-69.5 -358q0 -124 33 -194t96 -70z" />
    <glyph glyph-name="AEacute" unicode="&#x1fc;" horiz-adv-x="1458" 
d="M770 1360l285 282l139 -28l-315 -254h-109zM733 1149l-360 -606h327l41 606h-8zM662 0l30 432h-385l-258 -432h-137l764 1253h710l-24 -110l-485 6l-31 -440h444l-20 -105l-430 4l-35 -504l534 7l-22 -111h-655z" />
    <glyph glyph-name="aeacute" unicode="&#x1fd;" horiz-adv-x="1241" 
d="M692 1053l285 282l139 -28l-315 -254h-109zM952 850q-74 0 -133 -80.5t-78 -261.5q146 6 236 67.5t90 151.5q0 55 -31.5 89t-83.5 34zM332 90q55 0 132.5 77.5t139.5 203.5q9 235 105 395q-50 34 -114.5 59t-123.5 25q-120 0 -191 -139.5t-71 -397.5q0 -96 36 -159.5
t87 -63.5zM868 -20q-107 0 -175 69.5t-85 204.5q-59 -104 -127 -169t-118.5 -86.5t-98.5 -21.5q-32 0 -63 17.5t-59 53.5t-45 102t-17 153q0 129 26.5 241.5t79 202.5t140 142.5t200.5 52.5q128 0 256 -86q92 86 205 86q95 0 151 -59t56 -138q0 -73 -41 -133.5t-108 -98.5
t-146.5 -59.5t-161.5 -23.5q-2 -20 -2 -65q0 -140 44 -210.5t112 -70.5q64 0 120.5 33t127.5 94l43 -64q-64 -68 -150.5 -117.5t-163.5 -49.5z" />
    <glyph glyph-name="Oslashacute" unicode="&#x1fe;" horiz-adv-x="1155" 
d="M504 1360l284 282l140 -28l-316 -254h-108zM219 582q0 -293 133 -416l385 962q-70 37 -164 37q-71 0 -133.5 -34.5t-112.5 -103t-79 -183t-29 -262.5zM578 88q72 0 135 35t114 104t81 183.5t30 261.5q0 278 -123 401l-383 -958q68 -27 146 -27zM504 -20q-60 0 -119 16
l-68 -166h-98l82 205q-103 62 -162 186.5t-59 300.5q0 161 35.5 292t92.5 215t133 140.5t153.5 80.5t156.5 24q68 0 135 -23l68 168h100l-84 -211q96 -63 150.5 -185.5t54.5 -291.5q0 -161 -35.5 -292t-92.5 -214.5t-133 -140.5t-153.5 -80.5t-156.5 -23.5z" />
    <glyph glyph-name="oslashacute" unicode="&#x1ff;" horiz-adv-x="882" 
d="M360 1053l285 282l139 -28l-315 -254h-109zM213 377q0 -170 72 -248l245 711q-35 12 -73 12q-56 0 -100.5 -34.5t-70.5 -86t-43.5 -118t-23.5 -124.5t-6 -112zM424 70q70 0 121.5 49t77 126.5t36.5 152t11 147.5q0 161 -70 243l-244 -708q33 -10 68 -10zM375 -20
q-19 0 -51 4l-45 -129h-89l54 155q-75 42 -117.5 133t-42.5 222q0 103 25.5 202t75 184.5t133.5 138t190 52.5q31 0 55 -6l47 135h88l-57 -164q74 -42 116 -132t42 -218q0 -103 -26 -202.5t-75.5 -184.5t-133.5 -137.5t-189 -52.5z" />
    <glyph glyph-name="Scommaaccent" unicode="&#x218;" horiz-adv-x="874" 
d="M477 559l-96 51q-132 66 -192 134.5t-60 175.5q0 154 118 254t296 100q195 0 284 -39l-30 -117q-177 56 -332 56q-87 0 -145 -61t-58 -140q0 -78 37.5 -133.5t146.5 -110.5l101 -51q125 -64 184.5 -133t59.5 -164q0 -183 -137.5 -292t-352.5 -109q-164 0 -260 43l37 114
q174 -57 325 -51q112 -3 182 61t70 156q0 89 -34.5 145t-143.5 111zM299 -162q5 25 30 46.5t52 21.5q28 0 62.5 -40.5t31.5 -78.5q-3 -36 -31 -92t-106 -193l-72 29q83 146 88 209q1 9 -27.5 41.5t-27.5 56.5z" />
    <glyph glyph-name="scommaaccent" unicode="&#x219;" horiz-adv-x="690" 
d="M309 -20q-134 0 -264 49l31 112q164 -63 272 -63q61 0 89 35t28 86q0 42 -20.5 82t-75.5 88l-119 108q-59 55 -85 101t-26 112q0 60 26 109.5t66.5 80t86.5 46.5t90 16q54 0 127.5 -13.5t101.5 -25.5l-35 -110q-163 51 -229 51q-52 0 -83.5 -32t-31.5 -85q0 -39 17 -74.5
t77 -89.5l123 -110q62 -58 86.5 -103t24.5 -98q0 -70 -29.5 -125.5t-74.5 -86t-89.5 -45.5t-83.5 -15zM176 -162q5 25 30 46.5t52 21.5q28 0 62.5 -40.5t31.5 -78.5q-3 -36 -31 -92t-106 -193l-72 29q83 146 88 209q1 9 -27.5 41.5t-27.5 56.5z" />
    <glyph glyph-name="uni021A" unicode="&#x21a;" horiz-adv-x="1028" 
d="M424 0h-23l80 1145l-385 -6l29 114h891l-29 -114l-373 6l-77 -1145h-25l-63 -113l18 -9q39 -19 56 -29t38 -27t28 -37t5 -47q-5 -71 -83.5 -129t-227.5 -74l-13 76q52 7 85.5 13.5t64.5 17.5t46.5 27.5t16.5 39.5q1 30 -34 52t-117 46l-4 11z" />
    <glyph glyph-name="uni021B" unicode="&#x21b;" horiz-adv-x="655" 
d="M477 -262q-5 -71 -83.5 -129t-227.5 -74l-12 76q52 7 85.5 13.5t64.5 17.5t46.5 27.5t16.5 39.5q1 30 -34.5 52t-117.5 46l-4 11l86 162q-64 3 -108 48t-44 113q0 89 66 686h-150l11 74l149 21q7 71 21 186l125 25q-1 -12 -10 -92t-13 -119h305l-31 -95h-286
q-7 -61 -20.5 -176t-18.5 -162.5t-12.5 -117t-10 -108t-2.5 -66.5q0 -53 26 -80t68 -27q47 0 95.5 24t113.5 70l31 -71q-121 -93 -211 -121l-59 -105l18 -9q39 -19 56 -29t38 -27t28 -37t5 -47z" />
    <glyph glyph-name="circumflex" unicode="&#x2c6;" horiz-adv-x="821" 
d="M596 1053l-174 164l-197 -164h-110l278 282h76l238 -282h-111z" />
    <glyph glyph-name="caron" unicode="&#x2c7;" horiz-adv-x="825" 
d="M428 1059h-74l-237 284h108l174 -163l197 163h113z" />
    <glyph glyph-name="breve" unicode="&#x2d8;" horiz-adv-x="845" 
d="M408 1171q83 0 134 52.5t74 134.5h80q-6 -119 -97 -211t-208 -92q-85 0 -143 44t-81.5 111t-19.5 148h78q31 -187 183 -187z" />
    <glyph glyph-name="dotaccent" unicode="&#x2d9;" horiz-adv-x="358" 
d="M76 1204q1 28 40.5 66.5t63.5 38.5q25 0 63.5 -30t35.5 -58q0 -27 -40 -64t-63 -37q-27 0 -65 29t-35 55z" />
    <glyph glyph-name="ring" unicode="&#x2da;" horiz-adv-x="667" 
d="M516 1241q-4 -71 -64 -122.5t-133 -51.5q-75 0 -125 46.5t-44 127.5q3 72 62.5 123t131.5 51q76 0 127 -46t45 -128zM238 1241q-3 -41 23.5 -67.5t64.5 -26.5t68.5 26.5t33.5 67.5q3 44 -24 71t-66 27q-38 0 -67.5 -27t-32.5 -71z" />
    <glyph glyph-name="ogonek" unicode="&#x2db;" horiz-adv-x="610" 
d="M152 -274q9 133 204 274h105q-81 -58 -141.5 -129t-63.5 -133q-4 -42 21 -65t63 -23q17 0 31.5 4.5t32 14t18.5 9.5l18 -69q-62 -32 -100 -38q-21 -3 -45 -3q-75 0 -110.5 42t-32.5 116z" />
    <glyph glyph-name="tilde" unicode="&#x2dc;" horiz-adv-x="788" 
d="M655 1264l52 -62l-9 -9q-26 -26 -41 -39.5t-41 -33t-52.5 -28.5t-55.5 -9q-40 0 -129 34t-113 34q-18 0 -42.5 -10t-41.5 -21t-35 -23.5t-20 -13.5l-45 54q33 34 58 56.5t68 44.5t83 22q46 0 124.5 -30t104.5 -30q67 0 135 64z" />
    <glyph glyph-name="hungarumlaut" unicode="&#x2dd;" horiz-adv-x="927" 
d="M358 1053l295 282l142 -28l-328 -254h-109zM133 1053l295 282l141 -28l-327 -254h-109z" />
    <glyph glyph-name="commaaccent" unicode="&#x326;" horiz-adv-x="493" 
d="M174 -162q5 25 30 46.5t52 21.5q28 0 62.5 -40.5t31.5 -78.5q-3 -36 -31 -92t-106 -193l-72 29q83 146 88 209q1 9 -27.5 41.5t-27.5 56.5z" />
    <glyph glyph-name="Wgrave" unicode="&#x1e80;" horiz-adv-x="1693" 
d="M1014 1360h-109l-278 254l143 28zM1135 0l-261 1051l-425 -1051h-134l-194 1253h133l160 -1052l424 1052h120l265 -1063l321 1063h127l-401 -1253h-135z" />
    <glyph glyph-name="wgrave" unicode="&#x1e81;" horiz-adv-x="1277" 
d="M801 1053h-109l-278 254l143 28zM655 0l-37 510q-98 -314 -301 -512l-118 2l-66 926l119 14l57 -825q104 107 183 289.5t108 383.5l-10 134h117l51 -803q231 212 317 803h109q-14 -118 -44 -241t-78 -254.5t-123.5 -245.5t-166.5 -181h-117z" />
    <glyph glyph-name="Wacute" unicode="&#x1e82;" horiz-adv-x="1693" 
d="M813 1360l285 282l139 -28l-315 -254h-109zM1135 0l-261 1051l-425 -1051h-134l-194 1253h133l160 -1052l424 1052h120l265 -1063l321 1063h127l-401 -1253h-135z" />
    <glyph glyph-name="wacute" unicode="&#x1e83;" horiz-adv-x="1277" 
d="M604 1053l285 282l139 -28l-315 -254h-109zM655 0l-37 510q-98 -314 -301 -512l-118 2l-66 926l119 14l57 -825q104 107 183 289.5t108 383.5l-10 134h117l51 -803q231 212 317 803h109q-14 -118 -44 -241t-78 -254.5t-123.5 -245.5t-166.5 -181h-117z" />
    <glyph glyph-name="Wdieresis" unicode="&#x1e84;" horiz-adv-x="1693" 
d="M989 1536q1 25 35 58.5t55 33.5q23 0 59 -25.5t33 -48.5q-1 -27 -35 -60.5t-55 -33.5q-23 0 -59 26.5t-33 49.5zM633 1536q1 25 35 58.5t55 33.5q23 0 59 -25.5t33 -48.5q-1 -27 -35 -60.5t-55 -33.5q-23 0 -59 26.5t-33 49.5zM1135 0l-261 1051l-425 -1051h-134
l-194 1253h133l160 -1052l424 1052h120l265 -1063l321 1063h127l-401 -1253h-135z" />
    <glyph glyph-name="wdieresis" unicode="&#x1e85;" horiz-adv-x="1277" 
d="M764 1229q1 25 35 58.5t55 33.5q23 0 59 -25.5t33 -48.5q-1 -27 -35 -60.5t-55 -33.5q-23 0 -59 26.5t-33 49.5zM408 1229q1 25 35 58.5t55 33.5q23 0 59 -25.5t33 -48.5q-1 -27 -35 -60.5t-55 -33.5q-23 0 -59 26.5t-33 49.5zM655 0l-37 510q-98 -314 -301 -512l-118 2
l-66 926l119 14l57 -825q104 107 183 289.5t108 383.5l-10 134h117l51 -803q231 212 317 803h109q-14 -118 -44 -241t-78 -254.5t-123.5 -245.5t-166.5 -181h-117z" />
    <glyph glyph-name="Ygrave" unicode="&#x1ef2;" horiz-adv-x="1015" 
d="M766 1360h-109l-278 254l143 28zM559 0h-135l37 512l-375 741h150l309 -620l379 620h137l-465 -735z" />
    <glyph glyph-name="ygrave" unicode="&#x1ef3;" horiz-adv-x="827" 
d="M629 1053h-109l-278 254l143 28zM-127 -465q-34 0 -86 8l14 121q68 -10 127 -10q115 0 223.5 84t200.5 235h-51l-143 936l125 31l129 -862q89 174 151 393.5t88 450.5h115q-8 -100 -30.5 -219t-63.5 -253t-94.5 -263t-128 -248t-159 -208t-193 -142.5t-224.5 -53.5z" />
    <glyph glyph-name="endash" unicode="&#x2013;" horiz-adv-x="929" 
d="M829 547l2 -25l-30 -76h-701l-2 25l29 76h702z" />
    <glyph glyph-name="emdash" unicode="&#x2014;" horiz-adv-x="1327" 
d="M1227 547l2 -25l-31 -76h-1098l-2 25l29 76h1100z" />
    <glyph glyph-name="quoteleft" unicode="&#x2018;" horiz-adv-x="460" 
d="M350 1044q0 -28 -31 -55.5t-57 -27.5t-67 40.5t-41 83.5q0 39 31 118.5t104 238.5l92 -33q-95 -240 -96 -262q-1 -9 32.5 -43t32.5 -60z" />
    <glyph glyph-name="quoteright" unicode="&#x2019;" horiz-adv-x="462" 
d="M195 1333q3 28 35.5 55t58.5 27t64.5 -40t37.5 -83q-5 -70 -151 -356l-88 33q103 238 106 262q1 9 -31.5 42.5t-31.5 59.5z" />
    <glyph glyph-name="quotesinglbase" unicode="&#x201a;" horiz-adv-x="460" 
d="M111 84q3 28 35.5 55t58.5 27t64.5 -40t37.5 -83q-5 -70 -151 -356l-88 32q103 237 106 263q1 9 -31.5 42.5t-31.5 59.5z" />
    <glyph glyph-name="quotedblleft" unicode="&#x201c;" horiz-adv-x="776" 
d="M651 1044q-1 -28 -34.5 -55.5t-59.5 -27.5t-64.5 40.5t-37.5 83.5q5 71 151 357l88 -33q-10 -25 -26.5 -63.5t-28 -65.5t-23 -56t-18.5 -48.5t-8 -28.5t30.5 -43t30.5 -60zM350 1044q-1 -28 -34.5 -55.5t-59.5 -27.5t-64.5 40.5t-35.5 83.5q1 40 36 120.5t113 236.5
l88 -33q-10 -25 -26.5 -63.5t-28 -65.5t-23 -56t-18.5 -48.5t-8 -28.5t30.5 -43t30.5 -60z" />
    <glyph glyph-name="quotedblright" unicode="&#x201d;" horiz-adv-x="747" 
d="M479 1333q3 28 35.5 55t58.5 27t65 -40t38 -83q-3 -40 -39 -122.5t-113 -233.5l-88 33q9 20 27.5 62.5t29 67t23.5 55t19.5 49.5t7.5 28t-32 42.5t-32 59.5zM195 1333q3 28 35.5 55t58.5 27t64.5 -40t37.5 -83q-5 -70 -151 -356l-88 33q103 238 106 262q1 9 -31.5 42.5
t-31.5 59.5z" />
    <glyph glyph-name="quotedblbase" unicode="&#x201e;" horiz-adv-x="751" 
d="M399 84q3 28 36 55t59 27t64.5 -40t37.5 -83q-3 -40 -39 -122.5t-113 -233.5l-88 32q8 18 27.5 62.5t29.5 68t23 55t19.5 50t7.5 27.5t-32 42.5t-32 59.5zM111 84q3 28 35.5 55t58.5 27t64.5 -40t37.5 -83q-5 -70 -151 -356l-88 32q103 237 106 263q1 9 -31.5 42.5
t-31.5 59.5z" />
    <glyph glyph-name="bullet" unicode="&#x2022;" horiz-adv-x="536" 
d="M90 545q4 49 70.5 114.5t111.5 65.5t109.5 -54t60.5 -102q-1 -48 -69 -114t-111 -66q-45 0 -109 54t-63 102z" />
    <glyph glyph-name="ellipsis" unicode="&#x2026;" horiz-adv-x="1519" 
d="M82 84q0 30 39 69.5t65 39.5q27 0 68.5 -33t38.5 -62q-1 -30 -42 -68t-69 -38q-26 0 -64.5 31t-35.5 61zM1139 84q1 30 41 69.5t65 39.5q27 0 67.5 -33t37.5 -62q0 -30 -40 -68t-69 -38q-27 0 -66 31t-36 61zM608 84q1 30 41 69.5t66 39.5q27 0 67 -33t37 -62
q0 -30 -40.5 -68t-67.5 -38t-66.5 31t-36.5 61z" />
    <glyph glyph-name="guilsinglleft" unicode="&#x2039;" horiz-adv-x="679" 
d="M455 80l-346 395l401 395l61 -67l-295 -328l246 -328z" />
    <glyph glyph-name="guilsinglright" unicode="&#x203a;" horiz-adv-x="679" 
d="M225 870l346 -395l-401 -395l-61 67l294 328l-245 330z" />
    <glyph glyph-name="fraction" unicode="&#x2044;" horiz-adv-x="387" 
d="M-166 10l625 1276l94 -37l-627 -1278z" />
    <glyph glyph-name="Euro" unicode="&#x20ac;" 
d="M969 63q-62 -33 -164.5 -58t-202.5 -25q-442 0 -473 456h-164l33 86l104 17h25q1 12 2 32.5t2 32.5q4 52 8 82h-159l32 84l111 16h35q58 238 204.5 363t335.5 125q85 0 185 -18t145 -42l-55 -122q-53 27 -150 46t-178 19q-132 0 -221.5 -85.5t-122.5 -285.5h535l-35 -100
h-514q0 -6 -1 -19t-1 -20q-4 -82 -4 -108h477l-35 -103h-436q18 -177 104 -256.5t240 -79.5q162 0 317 76z" />
    <glyph glyph-name="minus" unicode="&#x2212;" 
d="M887 600l-6 -113h-762l6 113h762z" />
    <glyph glyph-name="idotaccent" horiz-adv-x="468" 
d="M190 1231q0 28 34.5 67t54.5 39q22 0 50.5 -30t28.5 -58q0 -22 -33.5 -62t-54.5 -40q-23 0 -51.5 28.5t-28.5 55.5zM186 920l125 22l-67 -942h-123z" />
    <glyph glyph-name="caron.alt" horiz-adv-x="567" 
d="M236 1364q4 20 32.5 36.5t57.5 16.5q22 0 43 -46.5t18 -94.5q-5 -58 -38 -120t-118 -169l-53 41q5 8 17.5 26.5t17 25.5t14 22.5t13.5 22.5t11 19.5t10 20.5t7 18t5.5 18.5t2.5 17.5q2 40 -19 90.5t-21 54.5z" />
    <glyph glyph-name="caron.alt.sc" horiz-adv-x="567" 
d="M236 911q5 20 33 38t57 18q22 0 43 -47.5t18 -96.5q-5 -57 -37.5 -117.5t-118.5 -168.5l-53 38q8 12 25.5 39.5t24 37.5t18 30t16 31t9 25.5t5.5 27.5q2 40 -19 90.5t-21 54.5z" />
    <glyph glyph-name="caron.alt.case" horiz-adv-x="567" 
d="M236 1200q4 20 32.5 36.5t57.5 16.5q22 0 43 -46.5t18 -94.5q-5 -58 -38 -120t-118 -169l-53 41q5 8 17.5 26.5t17 25.5t14 22.5t13.5 22.5t11 19.5t10 20.5t7 18t5.5 18.5t2.5 17.5q2 40 -19 90.5t-21 54.5z" />
    <glyph glyph-name="commaaccent.case" horiz-adv-x="493" 
d="M174 -162q5 25 30 46.5t52 21.5q28 0 62.5 -40.5t31.5 -78.5q-3 -36 -31 -92t-106 -193l-72 29q83 146 88 209q1 9 -27.5 41.5t-27.5 56.5z" />
    <glyph glyph-name="acute.case" horiz-adv-x="698" 
d="M137 1360l285 282l139 -28l-315 -254h-109z" />
    <glyph glyph-name="grave.case" horiz-adv-x="681" 
d="M535 1360h-109l-279 254l144 28z" />
    <glyph glyph-name="hungarumlaut.case" horiz-adv-x="927" 
d="M358 1360l295 282l142 -28l-328 -254h-109zM133 1360l295 282l141 -28l-327 -254h-109z" />
    <glyph glyph-name="circumflex.case" horiz-adv-x="821" 
d="M596 1360l-174 164l-197 -164h-110l278 282h76l238 -282h-111z" />
    <glyph glyph-name="caron.case" horiz-adv-x="825" 
d="M428 1366h-74l-237 285h108l174 -164l197 164h113z" />
    <glyph glyph-name="breve.case" horiz-adv-x="845" 
d="M408 1479q83 0 134 52.5t74 133.5h80q-6 -119 -97 -211t-208 -92q-85 0 -143 44t-81.5 111t-19.5 148h78q31 -186 183 -186z" />
    <glyph glyph-name="tilde.case" horiz-adv-x="788" 
d="M655 1571l52 -62q-66 -66 -101 -88q-49 -30 -98 -30q-40 0 -129 33.5t-113 33.5q-18 0 -42.5 -9.5t-41.5 -20.5t-35 -23.5t-20 -13.5l-45 53q33 34 58 56.5t68 44.5t83 22q46 0 124.5 -30t104.5 -30q67 0 135 64z" />
    <glyph glyph-name="macron.case" horiz-adv-x="890" 
d="M709 1556l-2 -30l-35 -68h-490l2 31l37 67h488z" />
    <glyph glyph-name="dieresis.case" horiz-adv-x="813" 
d="M492 1536q1 25 35 58.5t55 33.5q23 0 59 -25.5t33 -48.5q-1 -27 -35 -60.5t-55 -33.5q-23 0 -59 26.5t-33 49.5zM135 1536q1 25 35 58.5t55 33.5q23 0 59 -25.5t33 -48.5q-1 -27 -35 -60.5t-55 -33.5q-23 0 -59 26.5t-33 49.5z" />
    <glyph glyph-name="dotaccent.case" horiz-adv-x="358" 
d="M76 1511q1 28 40.5 66.5t63.5 38.5q25 0 63.5 -30t35.5 -58q0 -27 -40 -64t-63 -37q-27 0 -65 29t-35 55z" />
    <glyph glyph-name="ring.case" horiz-adv-x="667" 
d="M516 1548q-4 -71 -64 -122.5t-133 -51.5q-75 0 -125 46.5t-44 127.5q3 72 62.5 123t131.5 51q76 0 127 -46t45 -128zM238 1548q-3 -41 23.5 -67.5t64.5 -26.5t68.5 26.5t33.5 67.5q3 44 -24 71.5t-66 27.5q-38 0 -67.5 -27.5t-32.5 -71.5z" />
    <glyph glyph-name="cedilla.case" horiz-adv-x="583" 
d="M186 -182l97 182h88l-64 -113q87 -43 107 -60q43 -35 39 -89q-5 -71 -84 -129t-228 -74l-12 76q52 7 85.5 13.5t64.5 17.5t46.5 27.5t16.5 39.5q1 30 -34.5 52t-117.5 46z" />
    <glyph glyph-name="ogonek.case" horiz-adv-x="610" 
d="M152 -274q9 133 204 274h105q-81 -58 -141.5 -129t-63.5 -133q-4 -42 21 -65t63 -23q17 0 31.5 4.5t32 14t18.5 9.5l18 -69q-62 -32 -100 -38q-21 -3 -45 -3q-75 0 -110.5 42t-32.5 116z" />
    <glyph glyph-name="zero.fit" 
d="M926 793q0 -174 -25 -311.5t-68.5 -230.5t-106 -154.5t-135 -89t-157.5 -27.5q-159 0 -256.5 131.5t-97.5 361.5q0 400 131 600.5t356 200.5q161 0 260 -132t99 -349zM506 80q287 0 287 635q0 213 -76.5 334.5t-210.5 121.5q-139 0 -216 -150t-77 -470q0 -231 75.5 -351
t217.5 -120z" />
    <glyph glyph-name="one.fit" horiz-adv-x="704" 
d="M492 0h-125l79 1128l-327 -131l-27 119q141 42 397 137h91z" />
    <glyph glyph-name="two.fit" horiz-adv-x="968" 
d="M811 0h-735l14 100q171 163 276 270.5t189 211.5t119.5 183.5t36.5 154.5q0 113 -66 179t-180 66q-94 0 -270 -86l-29 109q163 86 330 86q152 0 253 -87.5t101 -234.5q0 -160 -146 -353t-477 -495l609 9z" />
    <glyph glyph-name="three.fit" horiz-adv-x="892" 
d="M315 -20q-159 0 -292 38l38 117q66 -22 154.5 -35.5t157.5 -13.5q142 0 220.5 68t78.5 188q0 122 -86 193t-228 71q-20 0 -63 -2t-57 -2l-13 98q201 0 319 73.5t118 189.5q0 91 -62 146.5t-162 55.5q-134 0 -258 -67l-33 104q175 72 334 72q137 0 221 -76t84 -194
q0 -121 -80.5 -205t-193.5 -121q138 -24 212.5 -105.5t74.5 -201.5q0 -73 -33 -142.5t-92.5 -125t-153 -89.5t-205.5 -34z" />
    <glyph glyph-name="four.fit" horiz-adv-x="1075" 
d="M651 397l45 670l-508 -670h463zM938 289h-170l-20 -289h-125l20 289h-596l6 86l668 878h115l-60 -856h203z" />
    <glyph glyph-name="five.fit" horiz-adv-x="980" 
d="M299 -20q-47 0 -121.5 10.5t-116.5 23.5l45 117q138 -49 308 -49q145 0 228 80t83 196q0 127 -95 201t-247 74q-105 0 -195 -23l88 643h619l-27 -110h-499l-56 -414q73 12 142 12q171 0 283.5 -90.5t109.5 -242.5q3 -189 -144.5 -308.5t-404.5 -119.5z" />
    <glyph glyph-name="six.fit" horiz-adv-x="964" 
d="M862 442q0 -90 -26 -167.5t-69 -130.5t-98 -91t-111.5 -55.5t-111.5 -17.5q-164 0 -265 127t-101 370q0 391 148.5 594t433.5 203q114 0 223 -31l-35 -119q-142 45 -289 45q-137 0 -226 -121.5t-114 -385.5q185 98 322 98q146 0 232.5 -86.5t86.5 -231.5zM477 80
q120 0 189 77t69 234q0 119 -68 192.5t-190 73.5q-19 0 -38.5 -2t-42 -8t-38 -10t-41.5 -13.5t-35 -13t-36.5 -14.5t-30.5 -12q0 -17 -1 -53.5t-1 -55.5q-1 -190 76.5 -292.5t187.5 -102.5z" />
    <glyph glyph-name="seven.fit" horiz-adv-x="964" 
d="M324 -20l-131 32l585 1125h-688l33 116h792l-6 -102q-581 -1171 -585 -1171z" />
    <glyph glyph-name="eight.fit" horiz-adv-x="964" 
d="M426 -20q-162 0 -260 76.5t-98 217.5q0 50 17 95.5t40.5 78t66.5 69t75.5 59t86.5 57.5q17 11 25 16q-108 67 -158.5 134.5t-50.5 170.5q0 94 54.5 168.5t139.5 112.5t181 37q138 2 227.5 -63t89.5 -175q0 -41 -10.5 -78t-32.5 -70t-44 -59t-58.5 -55.5t-61.5 -47.5
t-67 -46q152 -84 215 -153t63 -171q0 -107 -67 -194.5t-167 -133.5t-206 -46zM291 989q0 -79 46 -136t171 -130q128 84 181.5 141t53.5 127q0 81 -68.5 133t-180.5 52q-84 0 -143.5 -50t-59.5 -137zM487 78q32 0 66.5 7t69.5 23.5t62.5 40.5t45 61t17.5 81q0 93 -59.5 155
t-231.5 160q-60 -37 -101.5 -67.5t-80 -68t-57.5 -79t-19 -86.5q0 -102 80.5 -164.5t207.5 -62.5z" />
    <glyph glyph-name="nine.fit" horiz-adv-x="974" 
d="M498 596q94 0 262 74q4 66 4 106q0 190 -78 292.5t-188 102.5q-119 0 -187.5 -76.5t-68.5 -234.5q0 -117 69 -190.5t187 -73.5zM279 -20q-41 0 -103.5 8.5t-95.5 21.5l35 113q119 -39 202 -39q82 0 152 28t128 86.5t98.5 158t56.5 233.5q-182 -96 -318 -96
q-146 0 -232.5 86t-86.5 231q0 90 26 167.5t68 131t96.5 91.5t111 55.5t111.5 17.5q164 0 265.5 -127.5t101.5 -370.5q0 -192 -46 -344t-128 -250.5t-194.5 -150t-247.5 -51.5z" />
    <glyph glyph-name="zero.osf" horiz-adv-x="968" 
d="M905 569q0 -167 -57.5 -301t-165.5 -211t-248 -77q-166 0 -267 116.5t-101 313.5q0 164 56.5 298t164.5 213.5t248 79.5q164 0 267 -117.5t103 -314.5zM498 82q119 0 197.5 118.5t78.5 323.5q0 181 -81.5 277t-223.5 96q-121 0 -201 -120t-80 -322q0 -183 84 -278
t226 -95z" />
    <glyph glyph-name="one.osf" horiz-adv-x="651" 
d="M449 0h-125l65 860l-328 -131l-24 119q112 31 397 137h88z" />
    <glyph glyph-name="two.osf" horiz-adv-x="897" 
d="M788 0h-735l15 100q166 103 281 191t176.5 158t87.5 125.5t26 107.5q0 94 -65.5 151.5t-178.5 57.5q-106 0 -270 -86l-29 108q167 88 330 88q154 0 252 -79.5t98 -223.5q0 -133 -130 -277t-406 -315l573 7z" />
    <glyph glyph-name="three.osf" horiz-adv-x="837" 
d="M276 -295q-149 0 -292 39l39 119q68 -22 155.5 -35.5t155.5 -13.5q144 0 222.5 67.5t78.5 188.5t-86 192.5t-227 71.5q-22 0 -64.5 -2t-56.5 -2l-15 98q202 0 319.5 73t117.5 189q0 91 -61 147t-161 56q-134 0 -260 -68l-30 103q68 30 159 51.5t172 21.5q137 0 221.5 -76
t84.5 -194q0 -63 -24 -118t-64 -94.5t-87 -67.5t-100 -45q138 -24 212.5 -106t74.5 -202q0 -73 -32.5 -143t-92 -126t-153.5 -90t-206 -34z" />
    <glyph glyph-name="four.osf" horiz-adv-x="907" 
d="M563 109l47 684l-512 -684h465zM854 0h-172l-20 -289h-125l20 289h-602l6 86l676 899h115l-62 -876h207z" />
    <glyph glyph-name="five.osf" horiz-adv-x="837" 
d="M201 -291q-49 0 -122.5 11t-115.5 26l45 117q138 -49 305 -49q146 0 230 80t84 196q0 126 -96 200.5t-248 74.5q-103 0 -193 -23l88 643h619l-27 -111h-500l-55 -413q73 12 141 12q171 0 284 -91t110 -243q3 -190 -144.5 -310t-404.5 -120z" />
    <glyph glyph-name="six.osf" horiz-adv-x="954" 
d="M877 442q0 -90 -26 -167.5t-69 -130.5t-98 -91t-111.5 -55.5t-111.5 -17.5q-164 0 -265.5 127t-101.5 370q0 391 148.5 594t433.5 203q114 0 223 -31l-35 -119q-142 45 -289 45q-291 0 -339 -507q185 98 321 98q146 0 233 -86.5t87 -231.5zM492 80q120 0 189 77t69 234
q0 119 -68 192.5t-190 73.5q-16 0 -34.5 -2.5t-34 -5t-36.5 -8.5t-34 -10t-35.5 -12.5t-31 -11.5t-31 -12t-26.5 -11q0 -17 -1 -53.5t-1 -55.5q-1 -189 77 -292t188 -103z" />
    <glyph glyph-name="seven.osf" horiz-adv-x="872" 
d="M274 -291l-120 35l583 1124h-696l31 117h794l-6 -102q-582 -1174 -586 -1174z" />
    <glyph glyph-name="eight.osf" horiz-adv-x="964" 
d="M430 -20q-162 0 -260 76.5t-98 217.5q0 50 17 95.5t40.5 78t66.5 69t75.5 59t86.5 57.5q17 11 25 16q-108 67 -158.5 134.5t-50.5 170.5q0 94 54.5 168.5t139.5 112.5t181 37q138 2 227.5 -63t89.5 -175q0 -41 -10.5 -78t-32.5 -70t-44 -59t-58.5 -55.5t-61.5 -47.5
t-67 -46q152 -84 215 -153t63 -171q0 -107 -67 -194.5t-167 -133.5t-206 -46zM295 989q0 -79 46 -136t171 -130q129 84 182.5 141t53.5 127q0 81 -69 133t-181 52q-84 0 -143.5 -50t-59.5 -137zM492 78q41 0 84 12t83.5 36t66.5 67t26 98q0 93 -59.5 155t-231.5 160
q-60 -37 -101.5 -67.5t-80 -68t-57.5 -79t-19 -86.5q0 -102 81 -164.5t208 -62.5z" />
    <glyph glyph-name="nine.osf" horiz-adv-x="944" 
d="M457 322q40 0 96.5 15t81.5 25t82 33q4 70 4 109q1 189 -77.5 292t-188.5 103q-118 0 -187 -77.5t-69 -235.5q0 -117 69.5 -190.5t188.5 -73.5zM236 -295q-40 0 -103 9t-96 22l35 112q116 -38 202 -38q82 0 152 28t128.5 86.5t99 157.5t57.5 233q-187 -96 -320 -96
q-146 0 -232.5 86.5t-86.5 231.5q0 90 26 168t68.5 131t97.5 91t111.5 56t111.5 18q164 0 265.5 -128t101.5 -371q0 -192 -46 -344t-129 -250.5t-195.5 -150.5t-247.5 -52z" />
    <glyph glyph-name="zero.tosf" horiz-adv-x="946" 
d="M895 569q0 -167 -57.5 -301t-165.5 -211t-248 -77q-166 0 -267.5 117t-101.5 313q0 164 56.5 298t164.5 213.5t248 79.5q164 0 267.5 -117.5t103.5 -314.5zM487 82q119 0 198 118.5t79 323.5q0 181 -81.5 277t-223.5 96q-121 0 -201 -120t-80 -322q0 -183 83.5 -278
t225.5 -95z" />
    <glyph glyph-name="one.tosf" horiz-adv-x="946" 
d="M627 0h-125l65 860l-327 -131l-25 119q112 31 397 137h88z" />
    <glyph glyph-name="two.tosf" horiz-adv-x="946" 
d="M813 0h-735l14 100q166 103 281 191t177 158t88 125.5t26 107.5q0 94 -65.5 151.5t-178.5 57.5q-106 0 -270 -86l-29 108q167 88 330 88q154 0 252 -79.5t98 -223.5q0 -133 -130 -277t-407 -315l574 7z" />
    <glyph glyph-name="three.tosf" horiz-adv-x="946" 
d="M322 -295q-150 0 -293 39l39 119q68 -22 155.5 -35.5t155.5 -13.5q144 0 222.5 67.5t78.5 188.5t-86 192.5t-227 71.5q-22 0 -64.5 -2t-56.5 -2l-15 98q202 0 319.5 73t117.5 189q0 91 -61 147t-161 56q-134 0 -260 -68l-30 103q68 30 159 51.5t172 21.5q137 0 221.5 -76
t84.5 -194q0 -63 -24 -118t-64 -94.5t-87 -67.5t-100 -45q138 -24 212.5 -106t74.5 -202q0 -73 -32.5 -143t-91.5 -126t-153 -90t-206 -34z" />
    <glyph glyph-name="four.tosf" horiz-adv-x="946" 
d="M594 109l47 684l-512 -684h465zM885 0h-172l-21 -289h-125l21 289h-602l6 86l676 899h114l-61 -876h207z" />
    <glyph glyph-name="five.tosf" horiz-adv-x="946" 
d="M264 -291q-49 0 -122 11t-115 26l45 117q138 -49 305 -49q146 0 229.5 80t83.5 196q0 126 -96 200.5t-248 74.5q-102 0 -192 -23l88 643h618l-26 -111h-500l-55 -413q73 12 141 12q111 0 200.5 -39t142 -116t50.5 -179q3 -190 -144.5 -310t-404.5 -120z" />
    <glyph glyph-name="six.tosf" horiz-adv-x="946" 
d="M885 442q0 -90 -26 -167.5t-69 -130.5t-98 -91t-111.5 -55.5t-111.5 -17.5q-164 0 -265.5 127t-101.5 370q0 391 148.5 594t433.5 203q114 0 223 -31l-35 -119q-142 45 -288 45q-137 0 -226 -121.5t-114 -385.5q185 98 321 98q146 0 233 -86.5t87 -231.5zM500 80
q120 0 189 77t69 234q0 119 -68 192.5t-190 73.5q-19 0 -38.5 -2t-42 -8t-38 -10t-41.5 -13.5t-35 -13t-36.5 -14.5t-30.5 -12q0 -17 -1 -53.5t-1 -55.5q-1 -190 76.5 -292.5t187.5 -102.5z" />
    <glyph glyph-name="seven.tosf" horiz-adv-x="946" 
d="M334 -291l-121 35l584 1124h-697l31 117h795l-6 -102q-582 -1174 -586 -1174z" />
    <glyph glyph-name="eight.tosf" horiz-adv-x="946" 
d="M416 -20q-162 0 -260.5 76.5t-98.5 217.5q0 62 21 113.5t71 98.5t84.5 72.5t109.5 73.5l9 6t8 5t9 6q-108 67 -158.5 134.5t-50.5 170.5q0 94 54.5 168.5t139.5 112.5t181 37q138 2 227.5 -63t89.5 -175q0 -41 -10.5 -78t-32.5 -70t-44 -59t-58.5 -55.5t-61.5 -47.5
t-67 -46q152 -84 215 -153t63 -171q0 -107 -67 -194.5t-167 -133.5t-206 -46zM281 989q0 -79 46 -136t171 -130q128 84 181.5 141t53.5 127q0 81 -69 133t-181 52q-84 0 -143 -50t-59 -137zM477 78q41 0 84 12t83.5 36t66.5 67t26 98q0 93 -59.5 155t-231.5 160
q-60 -37 -101.5 -67.5t-80 -68t-57.5 -79t-19 -86.5q0 -102 81 -164.5t208 -62.5z" />
    <glyph glyph-name="nine.tosf" horiz-adv-x="946" 
d="M471 322q40 0 96.5 15t81.5 25t82 33q4 70 4 109q1 189 -77.5 292t-188.5 103q-118 0 -187 -77.5t-69 -235.5q0 -117 69.5 -190.5t188.5 -73.5zM250 -295q-40 0 -103 9t-96 22l35 112q116 -38 203 -38q171 0 286.5 121.5t149.5 383.5q-187 -96 -319 -96q-146 0 -233 86.5
t-87 231.5q0 112 39.5 203.5t102 146.5t134 84.5t140.5 29.5q164 0 265 -128t101 -371q0 -192 -46 -344t-129 -250.5t-195.5 -150.5t-247.5 -52z" />
    <glyph glyph-name="A.sc" horiz-adv-x="888" 
d="M578 399l-113 447l-195 -447h308zM678 0l-78 311h-367l-135 -311h-118l442 985h139l250 -985h-133z" />
    <glyph glyph-name="Agrave.sc" horiz-adv-x="888" 
d="M580 1092h-109l-278 256l143 28zM578 399l-113 447l-195 -447h308zM678 0l-78 311h-367l-135 -311h-118l442 985h139l250 -985h-133z" />
    <glyph glyph-name="Aacute.sc" horiz-adv-x="888" 
d="M424 1092l285 284l139 -28l-316 -256h-108zM578 399l-113 447l-195 -447h308zM678 0l-78 311h-367l-135 -311h-118l442 985h139l250 -985h-133z" />
    <glyph glyph-name="Acircumflex.sc" horiz-adv-x="888" 
d="M698 1092l-174 165l-196 -165h-111l279 284h75l238 -284h-111zM578 399l-113 447l-195 -447h308zM678 0l-78 311h-367l-135 -311h-118l442 985h139l250 -985h-133z" />
    <glyph glyph-name="Atilde.sc" horiz-adv-x="888" 
d="M778 1305l51 -62q-1 -1 -19 -19.5t-22 -21.5t-21 -19t-24.5 -20.5t-24 -15t-28 -14.5t-27.5 -7.5t-32 -3.5q-40 0 -129 34t-113 34q-11 0 -23.5 -3t-25 -9t-23.5 -11.5t-23 -13.5t-19 -13t-15.5 -11.5t-9.5 -6.5l-45 56q117 122 209 122q46 0 124.5 -29.5t104.5 -29.5
q67 0 135 64zM578 399l-113 447l-195 -447h308zM678 0l-78 311h-367l-135 -311h-118l442 985h139l250 -985h-133z" />
    <glyph glyph-name="Adieresis.sc" horiz-adv-x="888" 
d="M586 1268q1 27 35 60.5t55 33.5q23 0 59 -26t33 -50q-1 -25 -35 -58.5t-55 -33.5q-23 0 -59 26t-33 48zM229 1268q1 27 35 60.5t55 33.5q23 0 59.5 -26t33.5 -50q-1 -25 -35 -58.5t-55 -33.5q-23 0 -59.5 26t-33.5 48zM578 399l-113 447l-195 -447h308zM678 0l-78 311
h-367l-135 -311h-118l442 985h139l250 -985h-133z" />
    <glyph glyph-name="Aring.sc" horiz-adv-x="888" 
d="M709 1280q-4 -71 -64 -122.5t-133 -51.5q-75 0 -125.5 46.5t-44.5 127.5q3 72 63 124t132 52q76 0 127 -46.5t45 -129.5zM430 1280q-3 -41 23.5 -67.5t64.5 -26.5t69 26.5t34 67.5q3 44 -24.5 71t-66.5 27q-38 0 -67.5 -27t-32.5 -71zM578 399l-113 447l-195 -447h308z
M678 0l-78 311h-367l-135 -311h-118l442 985h139l250 -985h-133z" />
    <glyph glyph-name="Amacron.sc" horiz-adv-x="888" 
d="M786 1290l-2 -30l-34 -68h-490l2 31l37 67h487zM578 399l-113 447l-195 -447h308zM678 0l-78 311h-367l-135 -311h-118l442 985h139l250 -985h-133z" />
    <glyph glyph-name="Abreve.sc" horiz-adv-x="888" 
d="M518 1212q83 0 134.5 53t74.5 134h80q-6 -119 -97 -211t-208 -92q-85 0 -143 44t-81.5 111t-19.5 148h78q31 -187 182 -187zM578 399l-113 447l-195 -447h308zM678 0l-78 311h-367l-135 -311h-118l442 985h139l250 -985h-133z" />
    <glyph glyph-name="Aogonek.sc" horiz-adv-x="888" 
d="M578 399l-113 447l-195 -447h308zM707 0h-29l-78 311h-367l-135 -311h-118l442 985h139l250 -985q-81 -58 -141.5 -129t-63.5 -133q-4 -42 21 -65t63 -23q17 0 31.5 4.5t32 14t18.5 9.5l19 -69q-29 -15 -41.5 -20.5t-42 -13t-62.5 -7.5q-75 0 -110.5 42t-32.5 116
q9 133 205 274z" />
    <glyph glyph-name="Acaron.sc" horiz-adv-x="888" 
d="M547 1100h-74l-237 284h108l174 -163l197 163h112zM578 399l-113 447l-195 -447h308zM678 0l-78 311h-367l-135 -311h-118l442 985h139l250 -985h-133z" />
    <glyph glyph-name="B.sc" horiz-adv-x="931" 
d="M455 901h-101l-24 -358h135q83 0 142 45.5t59 126.5q0 87 -59.5 136.5t-151.5 49.5zM463 459h-10q-10 0 -25 -0.5t-32.5 -1t-37 -0.5h-34.5l-27 -369h205q90 0 146.5 46t56.5 126q0 91 -63 145t-179 54zM158 0l71 985h275q131 0 212 -65t81 -172q0 -154 -162 -232
q86 -14 144.5 -66t58.5 -149q0 -134 -120.5 -217.5t-318.5 -83.5h-241z" />
    <glyph glyph-name="C.sc" horiz-adv-x="874" 
d="M756 135l28 -90q-164 -63 -313 -68q-81 2 -151.5 30t-125 81.5t-85.5 139t-31 192.5q0 276 138 428.5t368 152.5q110 0 252 -45l-39 -106q-42 17 -121.5 33t-161.5 16q-137 0 -218 -112.5t-81 -348.5q0 -171 85.5 -261.5t211.5 -90.5q130 0 244 49z" />
    <glyph glyph-name="Ccedilla.sc" horiz-adv-x="874" 
d="M631 -262q-5 -71 -84 -129t-228 -74l-12 76q52 7 85.5 13.5t64.5 17.5t46.5 27.5t16.5 39.5q1 30 -34 52t-117 46l-4 11l84 159q-162 11 -266.5 125t-104.5 318q0 276 138 428.5t368 152.5q110 0 252 -45l-39 -106q-42 17 -121.5 33t-161.5 16q-137 0 -218 -112.5
t-81 -348.5q0 -171 85.5 -261.5t211.5 -90.5q130 0 244 49l28 -90q-129 -49 -245 -63l-54 -95q87 -43 107 -60q43 -35 39 -89z" />
    <glyph glyph-name="Cacute.sc" horiz-adv-x="874" 
d="M397 1092l285 284l139 -28l-315 -256h-109zM756 135l28 -90q-164 -63 -313 -68q-81 2 -151.5 30t-125 81.5t-85.5 139t-31 192.5q0 276 138 428.5t368 152.5q110 0 252 -45l-39 -106q-42 17 -121.5 33t-161.5 16q-137 0 -218 -112.5t-81 -348.5q0 -171 85.5 -261.5
t211.5 -90.5q130 0 244 49z" />
    <glyph glyph-name="Ccircumflex.sc" horiz-adv-x="874" 
d="M764 1092l-174 165l-197 -165h-110l278 284h76l237 -284h-110zM756 135l28 -90q-164 -63 -313 -68q-81 2 -151.5 30t-125 81.5t-85.5 139t-31 192.5q0 276 138 428.5t368 152.5q110 0 252 -45l-39 -106q-42 17 -121.5 33t-161.5 16q-137 0 -218 -112.5t-81 -348.5
q0 -171 85.5 -261.5t211.5 -90.5q130 0 244 49z" />
    <glyph glyph-name="Cdotaccent.sc" horiz-adv-x="874" 
d="M487 1245q1 28 41 66.5t64 38.5q25 0 63 -30t35 -58q0 -28 -39.5 -64.5t-62.5 -36.5q-28 0 -66 28.5t-35 55.5zM756 135l28 -90q-164 -63 -313 -68q-81 2 -151.5 30t-125 81.5t-85.5 139t-31 192.5q0 276 138 428.5t368 152.5q110 0 252 -45l-39 -106q-42 17 -121.5 33
t-161.5 16q-137 0 -218 -112.5t-81 -348.5q0 -171 85.5 -261.5t211.5 -90.5q130 0 244 49z" />
    <glyph glyph-name="Ccaron.sc" horiz-adv-x="874" 
d="M621 1100h-74l-238 284h109l174 -163l196 163h113zM756 135l28 -90q-164 -63 -313 -68q-81 2 -151.5 30t-125 81.5t-85.5 139t-31 192.5q0 276 138 428.5t368 152.5q110 0 252 -45l-39 -106q-42 17 -121.5 33t-161.5 16q-137 0 -218 -112.5t-81 -348.5
q0 -171 85.5 -261.5t211.5 -90.5q130 0 244 49z" />
    <glyph glyph-name="D.sc" horiz-adv-x="1036" 
d="M229 985h299q100 0 182.5 -32.5t137 -88.5t84 -131.5t29.5 -161.5q0 -181 -74 -311.5t-200 -195t-290 -64.5h-239zM356 897l-61 -805h182q157 0 251.5 111.5t94.5 322.5q0 179 -94 275t-252 96h-121z" />
    <glyph glyph-name="Dcaron.sc" horiz-adv-x="1036" 
d="M575 1100h-73l-238 284h109l174 -163l196 163h113zM229 985h299q100 0 182.5 -32.5t137 -88.5t84 -131.5t29.5 -161.5q0 -181 -74 -311.5t-200 -195t-290 -64.5h-239zM356 897l-61 -805h182q157 0 251.5 111.5t94.5 322.5q0 179 -94 275t-252 96h-121z" />
    <glyph glyph-name="E.sc" horiz-adv-x="890" 
d="M158 0l71 985h557l-22 -100l-408 6l-24 -332h377l-21 -94l-362 4l-29 -373l448 8l-22 -104h-565z" />
    <glyph glyph-name="Egrave.sc" horiz-adv-x="890" 
d="M723 1092h-109l-278 256l143 28zM158 0l71 985h557l-22 -100l-408 6l-24 -332h377l-21 -94l-362 4l-29 -373l448 8l-22 -104h-565z" />
    <glyph glyph-name="Eacute.sc" horiz-adv-x="890" 
d="M295 1092l285 284l139 -28l-316 -256h-108zM158 0l71 985h557l-22 -100l-408 6l-24 -332h377l-21 -94l-362 4l-29 -373l448 8l-22 -104h-565z" />
    <glyph glyph-name="Ecircumflex.sc" horiz-adv-x="890" 
d="M700 1092l-174 165l-196 -165h-111l279 284h75l238 -284h-111zM158 0l71 985h557l-22 -100l-408 6l-24 -332h377l-21 -94l-362 4l-29 -373l448 8l-22 -104h-565z" />
    <glyph glyph-name="Edieresis.sc" horiz-adv-x="890" 
d="M602 1268q1 27 35 60.5t55 33.5q23 0 59 -26t33 -50q-1 -25 -35 -58.5t-55 -33.5q-23 0 -59 26t-33 48zM246 1268q1 27 35 60.5t55 33.5q23 0 59 -26t33 -50q-1 -25 -35 -58.5t-55 -33.5q-23 0 -59 26t-33 48zM158 0l71 985h557l-22 -100l-408 6l-24 -332h377l-21 -94
l-362 4l-29 -373l448 8l-22 -104h-565z" />
    <glyph glyph-name="Emacron.sc" horiz-adv-x="890" 
d="M791 1290l-3 -30l-34 -68h-490l2 31l37 67h488zM158 0l71 985h557l-22 -100l-408 6l-24 -332h377l-21 -94l-362 4l-29 -373l448 8l-22 -104h-565z" />
    <glyph glyph-name="Ebreve.sc" horiz-adv-x="890" 
d="M526 1212q83 0 134.5 53t74.5 134h80q-6 -119 -97 -211t-208 -92q-85 0 -143 44t-81.5 111t-19.5 148h78q31 -187 182 -187zM158 0l71 985h557l-22 -100l-408 6l-24 -332h377l-21 -94l-362 4l-29 -373l448 8l-22 -104h-565z" />
    <glyph glyph-name="Edotaccent.sc" horiz-adv-x="890" 
d="M399 1245q1 28 41 66.5t64 38.5q25 0 63 -30t35 -58q0 -28 -39.5 -64.5t-62.5 -36.5q-28 0 -66 28.5t-35 55.5zM158 0l71 985h557l-22 -100l-408 6l-24 -332h377l-21 -94l-362 4l-29 -373l448 8l-22 -104h-565z" />
    <glyph glyph-name="Eogonek.sc" horiz-adv-x="890" 
d="M158 0l71 985h557l-22 -100l-408 6l-24 -332h377l-21 -94l-362 4l-29 -373l448 8l-22 -104h-565zM416 -274q9 133 205 274h104q-81 -58 -141.5 -129t-63.5 -133q-4 -42 21 -65t63 -23q17 0 31.5 4.5t32 14t18.5 9.5l19 -69q-29 -15 -41.5 -20.5t-42 -13t-62.5 -7.5
q-75 0 -110.5 42t-32.5 116z" />
    <glyph glyph-name="Ecaron.sc" horiz-adv-x="890" 
d="M551 1100h-74l-237 284h108l174 -163l197 163h112zM156 0l71 985h557l-22 -100l-408 6l-24 -332h377l-21 -94l-362 4l-29 -373l448 8l-22 -104h-565z" />
    <glyph glyph-name="F.sc" horiz-adv-x="851" 
d="M686 453l-362 4l-33 -457h-133l71 985h557l-22 -100l-408 6l-24 -340h377z" />
    <glyph glyph-name="G.sc" horiz-adv-x="929" 
d="M805 51q-176 -69 -324 -69q-172 0 -287.5 115t-115.5 325q0 262 133 422t364 160q84 0 169 -17.5t130 -38.5l-51 -108q-55 25 -146 43t-169 18q-130 0 -210 -109t-83 -335q1 -95 27.5 -169.5t69 -118.5t93 -66.5t105.5 -22.5q80 0 174 22l31 398h125z" />
    <glyph glyph-name="Gcircumflex.sc" horiz-adv-x="929" 
d="M754 1092l-174 165l-197 -165h-111l279 284h76l237 -284h-110zM805 51q-176 -69 -324 -69q-172 0 -287.5 115t-115.5 325q0 262 133 422t364 160q84 0 169 -17.5t130 -38.5l-51 -108q-55 25 -146 43t-169 18q-130 0 -210 -109t-83 -335q1 -95 27.5 -169.5t69 -118.5
t93 -66.5t105.5 -22.5q80 0 174 22l31 398h125z" />
    <glyph glyph-name="Gbreve.sc" horiz-adv-x="929" 
d="M573 1212q83 0 134.5 53t74.5 134h80q-6 -119 -97 -211t-208 -92q-85 0 -143 44t-81.5 111t-19.5 148h78q31 -187 182 -187zM805 51q-176 -69 -324 -69q-172 0 -287.5 115t-115.5 325q0 262 133 422t364 160q84 0 169 -17.5t130 -38.5l-51 -108q-55 25 -146 43t-169 18
q-130 0 -210 -109t-83 -335q1 -95 27.5 -169.5t69 -118.5t93 -66.5t105.5 -22.5q80 0 174 22l31 398h125z" />
    <glyph glyph-name="Gdotaccent.sc" horiz-adv-x="929" 
d="M481 1245q1 28 41 66.5t64 38.5q25 0 63 -30t35 -58q0 -28 -39.5 -64.5t-62.5 -36.5q-28 0 -66 28.5t-35 55.5zM805 51q-176 -69 -324 -69q-172 0 -287.5 115t-115.5 325q0 262 133 422t364 160q84 0 169 -17.5t130 -38.5l-51 -108q-55 25 -146 43t-169 18
q-130 0 -210 -109t-83 -335q1 -95 27.5 -169.5t69 -118.5t93 -66.5t105.5 -22.5q80 0 174 22l31 398h125z" />
    <glyph glyph-name="Gcommaaccent.sc" horiz-adv-x="929" 
d="M805 51q-176 -69 -324 -69q-172 0 -287.5 115t-115.5 325q0 262 133 422t364 160q84 0 169 -17.5t130 -38.5l-51 -108q-55 25 -146 43t-169 18q-130 0 -210 -109t-83 -335q1 -95 27.5 -169.5t69 -118.5t93 -66.5t105.5 -22.5q80 0 174 22l31 398h125zM420 -162
q5 25 30 46.5t52 21.5q28 0 62.5 -40.5t31.5 -78.5q-3 -36 -31 -92t-106 -193l-72 29q83 146 88 209q1 9 -27.5 41.5t-27.5 56.5z" />
    <glyph glyph-name="H.sc" horiz-adv-x="1107" 
d="M745 0l35 467h-454l-35 -467h-133l71 985h133l-30 -426h454l31 426h135l-71 -985h-136z" />
    <glyph glyph-name="Hcircumflex.sc" horiz-adv-x="1107" 
d="M795 1092l-174 165l-197 -165h-111l279 284h76l237 -284h-110zM745 0l35 467h-454l-35 -467h-133l71 985h133l-30 -426h454l31 426h135l-71 -985h-136z" />
    <glyph glyph-name="I.sc" horiz-adv-x="518" 
d="M362 985l-71 -985h-133l71 985h133z" />
    <glyph glyph-name="Igrave.sc" horiz-adv-x="518" 
d="M395 1092h-108l-279 256l144 28zM362 985l-71 -985h-133l71 985h133z" />
    <glyph glyph-name="Iacute.sc" horiz-adv-x="518" 
d="M221 1092l285 284l139 -28l-315 -256h-109zM362 985l-71 -985h-133l71 985h133z" />
    <glyph glyph-name="Icircumflex.sc" horiz-adv-x="518" 
d="M502 1092l-174 165l-197 -165h-111l279 284h76l237 -284h-110zM362 985l-71 -985h-133l71 985h133z" />
    <glyph glyph-name="Idieresis.sc" horiz-adv-x="518" 
d="M387 1268q1 27 35 60.5t55 33.5q23 0 59 -26t33 -50q-1 -25 -35 -58.5t-55 -33.5q-23 0 -59 26t-33 48zM31 1268q1 27 35 60.5t55 33.5q23 0 59 -26t33 -50q-1 -25 -35 -58.5t-55 -33.5q-23 0 -59 26t-33 48zM362 985l-71 -985h-133l71 985h133z" />
    <glyph glyph-name="Itilde.sc" horiz-adv-x="518" 
d="M563 1305l51 -62q-1 -1 -19 -19.5t-22 -21.5t-21 -19t-24.5 -20.5t-24 -15t-28 -14.5t-27.5 -7.5t-32 -3.5q-40 0 -129 34t-113 34q-11 0 -23.5 -3t-25 -9t-23.5 -11.5t-23 -13.5t-19 -13t-15.5 -11.5t-9.5 -6.5l-45 56q117 122 209 122q46 0 124.5 -29.5t104.5 -29.5
q67 0 135 64zM362 985l-71 -985h-133l71 985h133z" />
    <glyph glyph-name="Imacron.sc" horiz-adv-x="518" 
d="M571 1290l-2 -30l-34 -68h-490l2 31l37 67h487zM362 985l-71 -985h-133l71 985h133z" />
    <glyph glyph-name="Ibreve.sc" horiz-adv-x="518" 
d="M309 1212q83 0 134.5 53t74.5 134h80q-6 -119 -97 -211t-208 -92q-85 0 -143 44t-81.5 111t-19.5 148h78q31 -187 182 -187zM362 985l-71 -985h-133l71 985h133z" />
    <glyph glyph-name="Iogonek.sc" horiz-adv-x="518" 
d="M184 0h-26l71 985h133l-71 -985h-2q-81 -58 -141.5 -129t-63.5 -133q-4 -42 21 -65t63 -23q17 0 31.5 4.5t32 14t18.5 9.5l18 -69q-62 -32 -100 -38q-21 -3 -45 -3q-75 0 -110.5 42t-32.5 116q9 133 204 274z" />
    <glyph glyph-name="Idotaccent.sc" horiz-adv-x="518" 
d="M205 1245q1 28 40.5 66.5t63.5 38.5q25 0 63.5 -30t35.5 -58q0 -28 -40 -64.5t-63 -36.5q-28 0 -65.5 28.5t-34.5 55.5zM362 985l-71 -985h-133l71 985h133z" />
    <glyph glyph-name="J.sc" horiz-adv-x="649" 
d="M492 985l-52 -702q-13 -152 -96 -226.5t-213 -74.5q-65 0 -123 20l37 111q6 -2 21.5 -8.5t21.5 -8.5t19 -6t21.5 -5.5t21.5 -3t26 -1.5q56 0 90.5 34.5t38.5 102.5l55 768h132z" />
    <glyph glyph-name="Jcircumflex.sc" horiz-adv-x="591" 
d="M623 1092l-174 165l-197 -165h-111l279 284h76l237 -284h-110zM492 985l-52 -702q-13 -152 -96 -226.5t-213 -74.5q-65 0 -123 20l37 111q6 -2 21.5 -8.5t21.5 -8.5t19 -6t21.5 -5.5t21.5 -3t26 -1.5q56 0 90.5 34.5t38.5 102.5l55 768h132z" />
    <glyph glyph-name="K.sc" horiz-adv-x="962" 
d="M711 0l-375 528l438 457h170l-461 -446l402 -539h-174zM362 985l-71 -985h-133l71 985h133z" />
    <glyph glyph-name="Kcommaaccent.sc" horiz-adv-x="962" 
d="M711 0l-375 528l438 457h170l-461 -446l402 -539h-174zM362 985l-71 -985h-133l71 985h133zM367 -162q5 25 30 46.5t52 21.5q28 0 62.5 -40.5t31.5 -78.5q-3 -36 -31 -92t-106 -193l-72 29q83 146 88 209q1 9 -27.5 41.5t-27.5 56.5z" />
    <glyph glyph-name="L.sc" horiz-adv-x="813" 
d="M158 0l71 985h133l-63 -885l459 4l-29 -104h-571z" />
    <glyph glyph-name="Lacute.sc" horiz-adv-x="813" 
d="M244 1092l284 284l140 -28l-316 -256h-108zM158 0l71 985h133l-63 -885l459 4l-29 -104h-571z" />
    <glyph glyph-name="Lcommaaccent.sc" horiz-adv-x="813" 
d="M158 0l71 985h133l-63 -885l459 4l-29 -104h-571zM348 -162q5 25 30 46.5t52 21.5q28 0 62.5 -40.5t31.5 -78.5q-3 -36 -31 -92t-106 -193l-72 29q83 146 88 209q1 9 -27.5 41.5t-27.5 56.5z" />
    <glyph glyph-name="Lcaron.sc" horiz-adv-x="813" 
d="M594 952q5 20 33 38t57 18q22 0 43 -47.5t18 -96.5q-5 -58 -37.5 -118t-117.5 -168l-53 38q8 12 25.5 39.5t24 37.5t18 30t16 31t9 25.5t5.5 27.5q2 40 -19.5 90.5t-21.5 54.5zM158 0l71 985h133l-63 -885l459 4l-29 -104h-571z" />
    <glyph glyph-name="M.sc" horiz-adv-x="1345" 
d="M584 0l-258 793l-123 -793h-121l166 985h145l258 -795l361 795h145l37 -985h-131l-25 791l-362 -791h-92z" />
    <glyph glyph-name="N.sc" horiz-adv-x="1136" 
d="M801 0l-471 784l-60 -784h-112l71 985h121l461 -768l57 768h113l-74 -985h-106z" />
    <glyph glyph-name="Ntilde.sc" horiz-adv-x="1136" 
d="M877 1305l51 -62l-15.5 -15.5l-17 -17t-16.5 -16t-18.5 -16.5t-18.5 -14.5t-20.5 -14t-21 -11t-23 -9t-23 -5t-25.5 -2.5q-40 0 -129 34t-113 34q-11 0 -23.5 -3t-25 -9t-23.5 -11.5t-23 -13.5t-19 -13t-15.5 -11.5t-9.5 -6.5l-45 56q117 122 209 122q46 0 124.5 -29.5
t104.5 -29.5q68 0 136 64zM801 0l-471 784l-60 -784h-112l71 985h121l461 -768l57 768h113l-74 -985h-106z" />
    <glyph glyph-name="Nacute.sc" horiz-adv-x="1136" 
d="M483 1092l285 284l139 -28l-315 -256h-109zM801 0l-471 784l-60 -784h-112l71 985h121l461 -768l57 768h113l-74 -985h-106z" />
    <glyph glyph-name="Ncommaaccent.sc" horiz-adv-x="1136" 
d="M801 0l-471 784l-60 -784h-112l71 985h121l461 -768l57 768h113l-74 -985h-106zM406 -162q5 25 29.5 46.5t51.5 21.5q28 0 63 -40.5t32 -78.5q-3 -35 -30.5 -90t-107.5 -195l-71 29q83 146 88 209q1 9 -27.5 41.5t-27.5 56.5z" />
    <glyph glyph-name="Ncaron.sc" horiz-adv-x="1136" 
d="M623 1100h-74l-238 284h109l174 -163l197 163h112zM801 0l-471 784l-60 -784h-112l71 985h121l461 -768l57 768h113l-74 -985h-106z" />
    <glyph glyph-name="O.sc" horiz-adv-x="995" 
d="M920 551q0 -145 -40.5 -258.5t-109 -180.5t-150 -101t-171.5 -34q-173 3 -272 125t-99 328q0 136 40 247.5t106.5 180.5t148.5 106t170 37q176 0 276.5 -121.5t100.5 -328.5zM502 80q132 0 205 113.5t73 345.5q0 175 -77 270.5t-199 95.5q-133 0 -211 -118.5t-78 -344.5
q0 -179 80.5 -270.5t206.5 -91.5z" />
    <glyph glyph-name="Ograve.sc" horiz-adv-x="995" 
d="M772 1092h-108l-279 256l143 28zM920 551q0 -145 -40.5 -258.5t-109 -180.5t-150 -101t-171.5 -34q-173 3 -272 125t-99 328q0 136 40 247.5t106.5 180.5t148.5 106t170 37q176 0 276.5 -121.5t100.5 -328.5zM502 80q132 0 205 113.5t73 345.5q0 175 -77 270.5t-199 95.5
q-133 0 -211 -118.5t-78 -344.5q0 -179 80.5 -270.5t206.5 -91.5z" />
    <glyph glyph-name="Oacute.sc" horiz-adv-x="995" 
d="M375 1092l284 284l140 -28l-316 -256h-108zM920 551q0 -145 -40.5 -258.5t-109 -180.5t-150 -101t-171.5 -34q-173 3 -272 125t-99 328q0 136 40 247.5t106.5 180.5t148.5 106t170 37q176 0 276.5 -121.5t100.5 -328.5zM502 80q132 0 205 113.5t73 345.5q0 175 -77 270.5
t-199 95.5q-133 0 -211 -118.5t-78 -344.5q0 -179 80.5 -270.5t206.5 -91.5z" />
    <glyph glyph-name="Ocircumflex.sc" horiz-adv-x="995" 
d="M735 1092l-174 165l-196 -165h-111l278 284h76l238 -284h-111zM920 551q0 -145 -40.5 -258.5t-109 -180.5t-150 -101t-171.5 -34q-173 3 -272 125t-99 328q0 136 40 247.5t106.5 180.5t148.5 106t170 37q176 0 276.5 -121.5t100.5 -328.5zM502 80q132 0 205 113.5
t73 345.5q0 175 -77 270.5t-199 95.5q-133 0 -211 -118.5t-78 -344.5q0 -179 80.5 -270.5t206.5 -91.5z" />
    <glyph glyph-name="Otilde.sc" horiz-adv-x="995" 
d="M827 1305l52 -62l-15.5 -15.5l-17 -17t-16.5 -16t-18.5 -16.5t-18.5 -14.5t-20.5 -14t-21 -11t-23 -9t-23 -5t-25.5 -2.5q-40 0 -129 34t-113 34q-11 0 -23.5 -3t-25 -9t-23.5 -11.5t-23 -13.5t-19 -13t-15.5 -11.5t-9.5 -6.5l-45 56q117 122 209 122q46 0 124.5 -29.5
t104.5 -29.5q67 0 135 64zM920 551q0 -145 -40.5 -258.5t-109 -180.5t-150 -101t-171.5 -34q-173 3 -272 125t-99 328q0 136 40 247.5t106.5 180.5t148.5 106t170 37q176 0 276.5 -121.5t100.5 -328.5zM502 80q132 0 205 113.5t73 345.5q0 175 -77 270.5t-199 95.5
q-133 0 -211 -118.5t-78 -344.5q0 -179 80.5 -270.5t206.5 -91.5z" />
    <glyph glyph-name="Odieresis.sc" horiz-adv-x="995" 
d="M655 1268q1 27 35 60.5t55 33.5q23 0 59.5 -26t33.5 -50q-1 -25 -35 -58.5t-55 -33.5q-23 0 -59.5 26t-33.5 48zM299 1268q1 27 35 60.5t55 33.5q23 0 59 -26t33 -50q-1 -25 -35 -58.5t-55 -33.5q-23 0 -59 26t-33 48zM920 551q0 -145 -40.5 -258.5t-109 -180.5
t-150 -101t-171.5 -34q-173 3 -272 125t-99 328q0 136 40 247.5t106.5 180.5t148.5 106t170 37q176 0 276.5 -121.5t100.5 -328.5zM502 80q132 0 205 113.5t73 345.5q0 175 -77 270.5t-199 95.5q-133 0 -211 -118.5t-78 -344.5q0 -179 80.5 -270.5t206.5 -91.5z" />
    <glyph glyph-name="Omacron.sc" horiz-adv-x="995" 
d="M829 1290l-2 -30l-34 -68h-490l2 31l37 67h487zM920 551q0 -145 -40.5 -258.5t-109 -180.5t-150 -101t-171.5 -34q-173 3 -272 125t-99 328q0 136 40 247.5t106.5 180.5t148.5 106t170 37q176 0 276.5 -121.5t100.5 -328.5zM502 80q132 0 205 113.5t73 345.5
q0 175 -77 270.5t-199 95.5q-133 0 -211 -118.5t-78 -344.5q0 -179 80.5 -270.5t206.5 -91.5z" />
    <glyph glyph-name="Obreve.sc" horiz-adv-x="995" 
d="M561 1212q83 0 134.5 53t74.5 134h80q-6 -119 -97 -211t-208 -92q-85 0 -143 44t-81.5 111t-19.5 148h78q31 -187 182 -187zM920 551q0 -145 -40.5 -258.5t-109 -180.5t-150 -101t-171.5 -34q-173 3 -272 125t-99 328q0 136 40 247.5t106.5 180.5t148.5 106t170 37
q176 0 276.5 -121.5t100.5 -328.5zM502 80q132 0 205 113.5t73 345.5q0 175 -77 270.5t-199 95.5q-133 0 -211 -118.5t-78 -344.5q0 -179 80.5 -270.5t206.5 -91.5z" />
    <glyph glyph-name="Ohungarumlaut.sc" horiz-adv-x="995" 
d="M524 1092l295 284l142 -28l-328 -256h-109zM299 1092l295 284l141 -28l-327 -256h-109zM920 551q0 -145 -40.5 -258.5t-109 -180.5t-150 -101t-171.5 -34q-173 3 -272 125t-99 328q0 136 40 247.5t106.5 180.5t148.5 106t170 37q176 0 276.5 -121.5t100.5 -328.5zM502 80
q132 0 205 113.5t73 345.5q0 175 -77 270.5t-199 95.5q-133 0 -211 -118.5t-78 -344.5q0 -179 80.5 -270.5t206.5 -91.5z" />
    <glyph glyph-name="P.sc" horiz-adv-x="864" 
d="M449 897h-93l-30 -418h147q92 0 153.5 54t61.5 151q0 102 -60.5 157.5t-178.5 55.5zM385 387h-66l-28 -387h-133l71 985h236q174 0 269 -66t95 -198q0 -144 -127.5 -239t-316.5 -95z" />
    <glyph glyph-name="Q.sc" horiz-adv-x="995" 
d="M715 -289q-56 0 -138.5 23.5t-151.5 47t-93 23.5q-52 0 -109 -41l-45 101q141 34 281 112h-10q-173 3 -272 125t-99 328q0 136 40 247.5t106.5 180.5t148.5 106t170 37q176 0 276.5 -121.5t100.5 -328.5q0 -172 -54 -293.5t-147 -191.5q-113 -98 -324 -187
q5 -1 139.5 -27t194.5 -26q85 0 141 37v-101q-26 -21 -68.5 -36t-86.5 -15zM502 80q132 0 205 113.5t73 345.5q0 175 -77 270.5t-199 95.5q-133 0 -211 -118.5t-78 -344.5q0 -179 80.5 -270.5t206.5 -91.5z" />
    <glyph glyph-name="R.sc" horiz-adv-x="956" 
d="M451 897h-95l-28 -383h135q95 0 156 45t61 143q0 86 -62 140.5t-167 54.5zM416 418h-94l-31 -418h-133l71 985h273q145 0 229 -66t84 -192q0 -85 -60 -156.5t-153 -111.5l277 -459h-156l-244 422q-46 -4 -63 -4z" />
    <glyph glyph-name="Racute.sc" horiz-adv-x="956" 
d="M367 1092l284 284l140 -28l-316 -256h-108zM451 897h-95l-28 -383h135q95 0 156 45t61 143q0 86 -62 140.5t-167 54.5zM416 418h-94l-31 -418h-133l71 985h273q145 0 229 -66t84 -192q0 -85 -60 -156.5t-153 -111.5l277 -459h-156l-244 422q-46 -4 -63 -4z" />
    <glyph glyph-name="Rcommaaccent.sc" horiz-adv-x="956" 
d="M451 897h-95l-28 -383h135q95 0 156 45t61 143q0 86 -62 140.5t-167 54.5zM416 418h-94l-31 -418h-133l71 985h273q145 0 229 -66t84 -192q0 -85 -60 -156.5t-153 -111.5l277 -459h-156l-244 422q-46 -4 -63 -4zM348 -162q5 25 30 46.5t52 21.5q28 0 62.5 -40.5
t31.5 -78.5q-3 -36 -31 -92t-106 -193l-72 29q83 146 88 209q1 9 -27.5 41.5t-27.5 56.5z" />
    <glyph glyph-name="Rcaron.sc" horiz-adv-x="956" 
d="M520 1100h-74l-237 284h108l175 -163l196 163h113zM451 897h-95l-28 -383h135q95 0 156 45t61 143q0 86 -62 140.5t-167 54.5zM416 418h-94l-31 -418h-133l71 985h273q145 0 229 -66t84 -192q0 -85 -60 -156.5t-153 -111.5l277 -459h-156l-244 422q-46 -4 -63 -4z" />
    <glyph glyph-name="S.sc" horiz-adv-x="833" 
d="M469 418l-109 49q-119 55 -167 116.5t-48 147.5q0 113 102 191.5t249 78.5q96 0 165 -12t95 -24l-35 -109q-121 47 -281 47q-70 0 -122 -34.5t-52 -98.5q0 -61 33.5 -103t118.5 -81l104 -47q111 -50 161 -111t50 -139q0 -136 -112.5 -221.5t-292.5 -85.5q-162 0 -254 38
l39 111q132 -53 303 -53q74 0 134 41.5t60 107.5q0 123 -141 191z" />
    <glyph glyph-name="Sacute.sc" horiz-adv-x="833" 
d="M356 1092l285 284l139 -28l-315 -256h-109zM469 418l-109 49q-119 55 -167 116.5t-48 147.5q0 113 102 191.5t249 78.5q96 0 165 -12t95 -24l-35 -109q-121 47 -281 47q-70 0 -122 -34.5t-52 -98.5q0 -61 33.5 -103t118.5 -81l104 -47q111 -50 161 -111t50 -139
q0 -136 -112.5 -221.5t-292.5 -85.5q-162 0 -254 38l39 111q132 -53 303 -53q74 0 134 41.5t60 107.5q0 123 -141 191z" />
    <glyph glyph-name="Scircumflex.sc" horiz-adv-x="833" 
d="M709 1092l-174 165l-197 -165h-111l279 284h76l237 -284h-110zM469 418l-109 49q-119 55 -167 116.5t-48 147.5q0 113 102 191.5t249 78.5q96 0 165 -12t95 -24l-35 -109q-121 47 -281 47q-70 0 -122 -34.5t-52 -98.5q0 -61 33.5 -103t118.5 -81l104 -47
q111 -50 161 -111t50 -139q0 -136 -112.5 -221.5t-292.5 -85.5q-162 0 -254 38l39 111q132 -53 303 -53q74 0 134 41.5t60 107.5q0 123 -141 191z" />
    <glyph glyph-name="Scedilla.sc" horiz-adv-x="833" 
d="M176 -465l-12 76q52 7 85.5 13.5t64.5 17.5t46.5 27.5t16.5 39.5q1 30 -34.5 52t-117.5 46l-4 11l86 164q-148 3 -233 38l39 111q132 -53 303 -53q74 0 134 41.5t60 107.5q0 123 -141 191l-109 49q-119 55 -167 116.5t-48 147.5q0 113 102 191.5t249 78.5q96 0 165 -12
t95 -24l-35 -109q-121 47 -281 47q-70 0 -122 -34.5t-52 -98.5q0 -61 33.5 -103t118.5 -81l104 -47q111 -50 161 -111t50 -139q0 -123 -92.5 -205.5t-243.5 -97.5l-55 -99l18 -9q39 -19 56 -29t38 -27t28 -37t5 -47q-5 -71 -83.5 -129t-227.5 -74z" />
    <glyph glyph-name="Scaron.sc" horiz-adv-x="833" 
d="M520 1100h-74l-237 284h108l175 -163l196 163h113zM469 418l-109 49q-119 55 -167 116.5t-48 147.5q0 113 102 191.5t249 78.5q96 0 165 -12t95 -24l-35 -109q-121 47 -281 47q-70 0 -122 -34.5t-52 -98.5q0 -61 33.5 -103t118.5 -81l104 -47q111 -50 161 -111t50 -139
q0 -136 -112.5 -221.5t-292.5 -85.5q-162 0 -254 38l39 111q132 -53 303 -53q74 0 134 41.5t60 107.5q0 123 -141 191z" />
    <glyph glyph-name="Scommaaccent.sc" horiz-adv-x="833" 
d="M469 418l-109 49q-119 55 -167 116.5t-48 147.5q0 113 102 191.5t249 78.5q96 0 165 -12t95 -24l-35 -109q-121 47 -281 47q-70 0 -122 -34.5t-52 -98.5q0 -61 33.5 -103t118.5 -81l104 -47q111 -50 161 -111t50 -139q0 -136 -112.5 -221.5t-292.5 -85.5q-162 0 -254 38
l39 111q132 -53 303 -53q74 0 134 41.5t60 107.5q0 123 -141 191zM274 -162q5 25 30 46.5t52 21.5q28 0 63 -40.5t32 -78.5q-3 -35 -30.5 -90t-107.5 -195l-71 29q83 146 88 209q1 9 -28 41.5t-28 56.5z" />
    <glyph glyph-name="T.sc" horiz-adv-x="833" 
d="M821 881l-305 6l-63 -887h-134l64 887l-317 -6l26 104h752z" />
    <glyph glyph-name="Tcommaaccent.sc" horiz-adv-x="833" 
d="M821 881l-305 6l-63 -887h-134l64 887l-317 -6l26 104h752zM289 -162q5 25 30 46.5t52 21.5q28 0 62.5 -40.5t31.5 -78.5q-3 -36 -31 -92t-106 -193l-72 29q83 146 88 209q1 9 -27.5 41.5t-27.5 56.5z" />
    <glyph glyph-name="Tcaron.sc" horiz-adv-x="833" 
d="M498 1100h-74l-238 284h109l174 -163l197 163h112zM821 881l-305 6l-63 -887h-134l64 887l-317 -6l26 104h752z" />
    <glyph glyph-name="U.sc" horiz-adv-x="1114" 
d="M217 985h133q-7 -104 -14.5 -205t-11.5 -156.5t-8 -109.5t-5.5 -80t-3 -51.5t-2 -39.5t-0.5 -30q0 -225 250 -225q212 0 229 242l45 655h127l-43 -623q-14 -186 -119.5 -283t-297.5 -97q-156 0 -243 75.5t-87 221.5q0 57 51 706z" />
    <glyph glyph-name="Ugrave.sc" horiz-adv-x="1114" 
d="M784 1092h-108l-279 256l144 28zM217 985h133q-7 -104 -14.5 -205t-11.5 -156.5t-8 -109.5t-5.5 -80t-3 -51.5t-2 -39.5t-0.5 -30q0 -225 250 -225q212 0 229 242l45 655h127l-43 -623q-14 -186 -119.5 -283t-297.5 -97q-156 0 -243 75.5t-87 221.5q0 57 51 706z" />
    <glyph glyph-name="Uacute.sc" horiz-adv-x="1114" 
d="M436 1092l285 284l139 -28l-315 -256h-109zM217 985h133q-7 -104 -14.5 -205t-11.5 -156.5t-8 -109.5t-5.5 -80t-3 -51.5t-2 -39.5t-0.5 -30q0 -225 250 -225q212 0 229 242l45 655h127l-43 -623q-14 -186 -119.5 -283t-297.5 -97q-156 0 -243 75.5t-87 221.5
q0 57 51 706z" />
    <glyph glyph-name="Ucircumflex.sc" horiz-adv-x="1114" 
d="M805 1092l-174 165l-197 -165h-110l278 284h76l237 -284h-110zM217 985h133q-7 -104 -14.5 -205t-11.5 -156.5t-8 -109.5t-5.5 -80t-3 -51.5t-2 -39.5t-0.5 -30q0 -225 250 -225q212 0 229 242l45 655h127l-43 -623q-14 -186 -119.5 -283t-297.5 -97q-156 0 -243 75.5
t-87 221.5q0 57 51 706z" />
    <glyph glyph-name="Udieresis.sc" horiz-adv-x="1114" 
d="M700 1268q1 27 35.5 60.5t55.5 33.5q23 0 59 -26t33 -50q-1 -25 -35 -58.5t-55 -33.5q-23 0 -59.5 26t-33.5 48zM344 1268q1 27 35 60.5t55 33.5q23 0 59 -26t33 -50q-1 -25 -35 -58.5t-55 -33.5q-23 0 -59 26t-33 48zM217 985h133q-7 -104 -14.5 -205t-11.5 -156.5
t-8 -109.5t-5.5 -80t-3 -51.5t-2 -39.5t-0.5 -30q0 -225 250 -225q212 0 229 242l45 655h127l-43 -623q-14 -186 -119.5 -283t-297.5 -97q-156 0 -243 75.5t-87 221.5q0 57 51 706z" />
    <glyph glyph-name="Utilde.sc" horiz-adv-x="1114" 
d="M858 1305l51 -62q-1 -1 -19 -19.5t-22 -21.5t-21 -19t-24.5 -20.5t-24 -15t-28 -14.5t-27.5 -7.5t-32 -3.5q-40 0 -129 34t-113 34q-11 0 -23.5 -3t-25 -9t-23.5 -11.5t-23 -13.5t-19 -13t-15.5 -11.5t-9.5 -6.5l-45 56q117 122 209 122q46 0 124.5 -29.5t104.5 -29.5
q67 0 135 64zM217 985h133q-7 -104 -14.5 -205t-11.5 -156.5t-8 -109.5t-5.5 -80t-3 -51.5t-2 -39.5t-0.5 -30q0 -225 250 -225q212 0 229 242l45 655h127l-43 -623q-14 -186 -119.5 -283t-297.5 -97q-156 0 -243 75.5t-87 221.5q0 57 51 706z" />
    <glyph glyph-name="Umacron.sc" horiz-adv-x="1114" 
d="M870 1290l-2 -30l-34 -68h-490l2 31l37 67h487zM217 985h133q-7 -104 -14.5 -205t-11.5 -156.5t-8 -109.5t-5.5 -80t-3 -51.5t-2 -39.5t-0.5 -30q0 -225 250 -225q212 0 229 242l45 655h127l-43 -623q-14 -186 -119.5 -283t-297.5 -97q-156 0 -243 75.5t-87 221.5
q0 57 51 706z" />
    <glyph glyph-name="Ubreve.sc" horiz-adv-x="1114" 
d="M590 1212q83 0 134.5 53t74.5 134h80q-6 -119 -97.5 -211t-208.5 -92q-85 0 -143 44t-81 111t-19 148h78q31 -187 182 -187zM217 985h133q-7 -104 -14.5 -205t-11.5 -156.5t-8 -109.5t-5.5 -80t-3 -51.5t-2 -39.5t-0.5 -30q0 -225 250 -225q212 0 229 242l45 655h127
l-43 -623q-14 -186 -119.5 -283t-297.5 -97q-156 0 -243 75.5t-87 221.5q0 57 51 706z" />
    <glyph glyph-name="Uring.sc" horiz-adv-x="1114" 
d="M797 1280q-4 -71 -64 -122.5t-133 -51.5q-75 0 -125.5 46.5t-44.5 127.5q3 72 63 124t132 52q76 0 127 -46.5t45 -129.5zM518 1280q-3 -41 23.5 -67.5t64.5 -26.5t69 26.5t34 67.5q3 44 -24.5 71t-66.5 27q-38 0 -67.5 -27t-32.5 -71zM217 985h133q-7 -104 -14.5 -205
t-11.5 -156.5t-8 -109.5t-5.5 -80t-3 -51.5t-2 -39.5t-0.5 -30q0 -225 250 -225q212 0 229 242l45 655h127l-43 -623q-14 -186 -119.5 -283t-297.5 -97q-156 0 -243 75.5t-87 221.5q0 57 51 706z" />
    <glyph glyph-name="Uhungarumlaut.sc" horiz-adv-x="1114" 
d="M578 1092l294 284l142 -28l-328 -256h-108zM352 1092l295 284l141 -28l-327 -256h-109zM217 985h133q-7 -104 -14.5 -205t-11.5 -156.5t-8 -109.5t-5.5 -80t-3 -51.5t-2 -39.5t-0.5 -30q0 -225 250 -225q212 0 229 242l45 655h127l-43 -623q-14 -186 -119.5 -283
t-297.5 -97q-156 0 -243 75.5t-87 221.5q0 57 51 706z" />
    <glyph glyph-name="Uogonek.sc" horiz-adv-x="1114" 
d="M578 -391q-75 0 -111 42.5t-33 115.5q7 104 135 219q-46 -4 -73 -4q-156 0 -243 75.5t-87 221.5q0 57 51 706h133q-7 -104 -14.5 -205t-11.5 -156.5t-8 -109.5t-5.5 -80t-3 -51.5t-2 -39.5t-0.5 -30q0 -225 250 -225q212 0 229 242l45 655h127l-43 -623
q-15 -226 -170 -321q-81 -58 -141 -129t-63 -133q-4 -42 21 -65t63 -23q17 0 31.5 4.5t32 14t18.5 9.5l18 -69q-62 -32 -100 -38q-21 -3 -45 -3z" />
    <glyph glyph-name="V.sc" horiz-adv-x="958" 
d="M492 0h-121l-303 985h141l248 -817l368 817h129z" />
    <glyph glyph-name="W.sc" horiz-adv-x="1431" 
d="M948 0l-215 782l-336 -782h-123l-165 985h137l127 -790l338 790h102l217 -792l242 792h123l-320 -985h-127z" />
    <glyph glyph-name="Wcircumflex.sc" horiz-adv-x="1431" 
d="M954 1092l-174 165l-196 -165h-111l279 284h75l238 -284h-111zM948 0l-215 782l-336 -782h-123l-165 985h137l127 -790l338 790h102l217 -792l242 792h123l-320 -985h-127z" />
    <glyph glyph-name="Wgrave.sc" horiz-adv-x="1431" 
d="M860 1092h-108l-279 256l143 28zM948 0l-215 782l-336 -782h-123l-165 985h137l127 -790l338 790h102l217 -792l242 792h123l-320 -985h-127z" />
    <glyph glyph-name="Wacute.sc" horiz-adv-x="1431" 
d="M696 1092l285 284l139 -28l-315 -256h-109zM948 0l-215 782l-336 -782h-123l-165 985h137l127 -790l338 790h102l217 -792l242 792h123l-320 -985h-127z" />
    <glyph glyph-name="Wdieresis.sc" horiz-adv-x="1431" 
d="M874 1268q1 27 35.5 60.5t55.5 33.5q23 0 59 -26t33 -50q-1 -25 -35 -58.5t-55 -33.5q-23 0 -59.5 26t-33.5 48zM518 1268q1 27 35 60.5t55 33.5q23 0 59 -26t33 -50q-1 -25 -35 -58.5t-55 -33.5q-23 0 -59 26t-33 48zM948 0l-215 782l-336 -782h-123l-165 985h137
l127 -790l338 790h102l217 -792l242 792h123l-320 -985h-127z" />
    <glyph glyph-name="X.sc" horiz-adv-x="905" 
d="M668 0l-234 416l-282 -416h-146l371 518l-264 467h147l207 -367l252 367h145l-338 -469l291 -516h-149z" />
    <glyph glyph-name="Y.sc" horiz-adv-x="892" 
d="M479 0h-133l31 401l-295 584h147l234 -469l272 469h139l-364 -579z" />
    <glyph glyph-name="Yacute.sc" horiz-adv-x="892" 
d="M422 1092l285 284l139 -28l-316 -256h-108zM479 0h-133l31 401l-295 584h147l234 -469l272 469h139l-364 -579z" />
    <glyph glyph-name="Ycircumflex.sc" horiz-adv-x="892" 
d="M676 1092l-174 165l-197 -165h-110l278 284h76l237 -284h-110zM479 0h-133l31 401l-295 584h147l234 -469l272 469h139l-364 -579z" />
    <glyph glyph-name="Ydieresis.sc" horiz-adv-x="892" 
d="M600 1268q1 27 35 60.5t55 33.5q23 0 59 -26t33 -50q-1 -25 -35 -58.5t-55 -33.5q-23 0 -59 26t-33 48zM244 1268q1 27 35 60.5t55 33.5q23 0 59 -26t33 -50q-1 -25 -35 -58.5t-55 -33.5q-23 0 -59 26t-33 48zM479 0h-133l31 401l-295 584h147l234 -469l272 469h139
l-364 -579z" />
    <glyph glyph-name="Ygrave.sc" horiz-adv-x="892" 
d="M719 1092h-109l-278 256l143 28zM479 0h-133l31 401l-295 584h147l234 -469l272 469h139l-364 -579z" />
    <glyph glyph-name="Z.sc" horiz-adv-x="915" 
d="M754 0h-666l4 96l590 789h-535l33 100h651l-6 -100l-587 -785h544z" />
    <glyph glyph-name="Zacute.sc" horiz-adv-x="915" 
d="M385 1092l285 284l139 -28l-315 -256h-109zM754 0h-666l4 96l590 789h-535l33 100h651l-6 -100l-587 -785h544z" />
    <glyph glyph-name="Zdotaccent.sc" horiz-adv-x="915" 
d="M406 1245q1 28 40.5 66.5t63.5 38.5q25 0 63 -30t35 -58q0 -28 -39.5 -64.5t-62.5 -36.5q-28 0 -65.5 28.5t-34.5 55.5zM754 0h-666l4 96l590 789h-535l33 100h651l-6 -100l-587 -785h544z" />
    <glyph glyph-name="Zcaron.sc" horiz-adv-x="915" 
d="M555 1100h-74l-237 284h108l174 -163l197 163h113zM754 0h-666l4 96l590 789h-535l33 100h651l-6 -100l-587 -785h544z" />
    <glyph glyph-name="AE.sc" horiz-adv-x="1257" 
d="M625 895l-301 -496h276l37 496h-12zM571 0l23 311h-324l-190 -311h-131l620 985h633l-24 -100l-408 6l-25 -332h377l-18 -94l-365 4l-28 -373l450 8l-22 -104h-568z" />
    <glyph glyph-name="AEacute.sc" horiz-adv-x="1257" 
d="M668 1092l284 284l140 -28l-316 -256h-108zM625 895l-301 -496h276l37 496h-12zM571 0l23 311h-324l-190 -311h-131l620 985h633l-24 -100l-408 6l-25 -332h377l-18 -94l-365 4l-28 -373l450 8l-22 -104h-568z" />
    <glyph glyph-name="Eth.sc" horiz-adv-x="1036" 
d="M387 0h-240l35 471h-100l6 88h100l31 426h299q199 0 315.5 -118t116.5 -296q0 -181 -73.5 -311.5t-199.5 -195t-290 -64.5zM285 92h182q157 0 251.5 111.5t94.5 322.5q0 179 -94 275t-252 96h-121l-27 -338h275l-23 -88h-258z" />
    <glyph glyph-name="Oslash.sc" horiz-adv-x="995" 
d="M215 442q0 -187 94 -284l314 719q-58 28 -119 28q-133 0 -211 -118.5t-78 -344.5zM502 80q132 0 205 113.5t73 345.5q0 180 -84 280l-311 -715q53 -24 117 -24zM449 -23q-55 0 -111 17l-55 -125h-101l72 164q-85 54 -130.5 156.5t-45.5 240.5q0 136 40 247.5t106.5 180.5
t148.5 106t170 37q69 0 125 -18l57 129h98l-73 -170q82 -56 126 -156.5t44 -234.5q0 -145 -40.5 -258.5t-109 -180.5t-150 -101t-171.5 -34z" />
    <glyph glyph-name="Oslashacute.sc" horiz-adv-x="995" 
d="M395 1092l285 284l139 -28l-315 -256h-109zM215 442q0 -187 94 -284l314 719q-58 28 -119 28q-133 0 -211 -118.5t-78 -344.5zM502 80q132 0 205 113.5t73 345.5q0 180 -84 280l-311 -715q53 -24 117 -24zM449 -23q-55 0 -111 17l-55 -125h-101l72 164
q-85 54 -130.5 156.5t-45.5 240.5q0 136 40 247.5t106.5 180.5t148.5 106t170 37q69 0 125 -18l57 129h98l-73 -170q82 -56 126 -156.5t44 -234.5q0 -145 -40.5 -258.5t-109 -180.5t-150 -101t-171.5 -34z" />
    <glyph glyph-name="Thorn.sc" horiz-adv-x="884" 
d="M449 719l-107 -2l-29 -416h160q92 0 153.5 54t61.5 151q0 102 -60.5 157.5t-178.5 55.5zM385 209h-80l-14 -209h-133l71 985h133l-12 -180h113q175 0 270.5 -65.5t95.5 -196.5q0 -145 -127.5 -239.5t-316.5 -94.5z" />
    <glyph glyph-name="Dcroat.sc" horiz-adv-x="1036" 
d="M387 0h-240l35 471h-100l6 88h100l31 426h299q199 0 315.5 -118t116.5 -296q0 -181 -73.5 -311.5t-199.5 -195t-290 -64.5zM285 92h182q157 0 251.5 111.5t94.5 322.5q0 179 -94 275t-252 96h-121l-27 -338h275l-23 -88h-258z" />
    <glyph glyph-name="Hbar.sc" horiz-adv-x="1107" 
d="M786 559l13 166h-455l-12 -166h454zM745 0l35 467h-454l-35 -467h-133l53 725h-150v33l31 51h125l12 176h133l-12 -176h455l12 176h135l-12 -176h145v-31l-30 -53h-121l-53 -725h-136z" />
    <glyph glyph-name="IJ.sc" horiz-adv-x="1067" 
d="M362 985l-71 -985h-133l71 985h133zM909 985l-51 -702q-13 -152 -96 -226.5t-213 -74.5q-65 0 -123 20l37 111q6 -2 21.5 -8.5t21.5 -8.5t19 -6t21.5 -5.5t21.5 -3t26 -1.5q56 0 90.5 34.5t38.5 102.5l55 768h131z" />
    <glyph glyph-name="Ldot.sc" horiz-adv-x="813" 
d="M557 551q1 28 41 66t64 38q25 0 63 -30t35 -58q0 -28 -40 -64t-63 -36q-28 0 -65.5 28.5t-34.5 55.5zM158 0l71 985h133l-63 -885l459 4l-29 -104h-571z" />
    <glyph glyph-name="Lslash.sc" horiz-adv-x="813" 
d="M150 0l30 426l-125 -47l8 94l123 47l35 465h133l-30 -414l235 88l-8 -94l-234 -88l-26 -377l459 4l-29 -104h-571z" />
    <glyph glyph-name="Eng.sc" horiz-adv-x="1136" 
d="M606 -285q-68 0 -125 21l33 106q84 -30 145 -30q54 0 87 38t40 111l5 55l-461 768l-60 -784h-112l71 985h121l461 -768l57 768h113l-74 -985h-2q-15 -130 -97.5 -207.5t-201.5 -77.5z" />
    <glyph glyph-name="OE.sc" horiz-adv-x="1376" 
d="M494 80q90 0 157 55l49 678q-72 90 -198 90q-144 0 -215.5 -126t-71.5 -335q0 -183 76.5 -272.5t202.5 -89.5zM641 0l2 18q-81 -37 -199 -41q-93 1 -165.5 39t-115 101.5t-64 141t-21.5 165.5q0 248 129.5 412.5t341.5 164.5q94 0 162 -36l2 20h557l-23 -100l-407 6
l-25 -332h377l-21 -94l-362 4l-29 -373l449 8l-23 -104h-565z" />
    <glyph glyph-name="Tbar.sc" horiz-adv-x="833" 
d="M719 526h-230l-36 -526h-134l37 526h-268v23l33 61h241l21 277l-317 -6l26 104h752l-23 -104l-305 6l-20 -277h256v-22z" />
    <glyph glyph-name="commaaccent.sc" horiz-adv-x="493" 
d="M174 -162q5 25 30 46.5t52 21.5q28 0 62.5 -40.5t31.5 -78.5q-3 -36 -31 -92t-106 -193l-72 29q83 146 88 209q1 9 -27.5 41.5t-27.5 56.5z" />
    <glyph glyph-name="acute.sc" horiz-adv-x="698" 
d="M137 1092l285 284l139 -28l-315 -256h-109z" />
    <glyph glyph-name="grave.sc" horiz-adv-x="681" 
d="M535 1092h-109l-279 256l144 28z" />
    <glyph glyph-name="hungarumlaut.sc" horiz-adv-x="927" 
d="M358 1092l295 284l142 -28l-328 -256h-109zM133 1092l295 284l141 -28l-327 -256h-109z" />
    <glyph glyph-name="circumflex.sc" horiz-adv-x="821" 
d="M596 1092l-174 165l-197 -165h-110l278 284h76l238 -284h-111z" />
    <glyph glyph-name="caron.sc" horiz-adv-x="825" 
d="M428 1100h-74l-237 284h108l174 -163l197 163h113z" />
    <glyph glyph-name="breve.sc" horiz-adv-x="845" 
d="M408 1212q83 0 134 52.5t74 134.5h80q-6 -119 -97 -211t-208 -92q-85 0 -143 44t-81.5 111t-19.5 148h78q31 -187 183 -187z" />
    <glyph glyph-name="tilde.sc" horiz-adv-x="788" 
d="M655 1305l52 -62l-15.5 -15.5l-17 -17t-16.5 -16t-18.5 -16.5t-18.5 -14.5t-20.5 -14t-21 -11t-23 -9t-23 -5t-25.5 -2.5q-40 0 -129 34t-113 34q-11 0 -23.5 -3t-25 -9t-23.5 -11.5t-23 -13.5t-19 -13t-15.5 -11.5t-9.5 -6.5l-45 56q117 122 209 122q46 0 124.5 -29.5
t104.5 -29.5q67 0 135 64z" />
    <glyph glyph-name="macron.sc" horiz-adv-x="890" 
d="M709 1290l-2 -30l-35 -68h-490l2 31l37 67h488z" />
    <glyph glyph-name="dieresis.sc" horiz-adv-x="813" 
d="M492 1268q1 27 35 60.5t55 33.5q23 0 59 -26t33 -50q-1 -25 -35 -58.5t-55 -33.5q-23 0 -59 26t-33 48zM135 1268q1 27 35 60.5t55 33.5q23 0 59 -26t33 -50q-1 -25 -35 -58.5t-55 -33.5q-23 0 -59 26t-33 48z" />
    <glyph glyph-name="dotaccent.sc" horiz-adv-x="358" 
d="M76 1245q1 28 40.5 66.5t63.5 38.5q25 0 63.5 -30t35.5 -58q0 -28 -40 -64.5t-63 -36.5q-28 0 -65.5 28.5t-34.5 55.5z" />
    <glyph glyph-name="ring.sc" horiz-adv-x="667" 
d="M516 1280q-4 -71 -64 -122.5t-133 -51.5q-75 0 -125 46.5t-44 127.5q3 72 62.5 124t131.5 52q76 0 127 -46.5t45 -129.5zM238 1280q-3 -41 23.5 -67.5t64.5 -26.5t68.5 26.5t33.5 67.5q3 44 -24 71t-66 27q-38 0 -67.5 -27t-32.5 -71z" />
    <glyph glyph-name="cedilla.sc" horiz-adv-x="583" 
d="M186 -182l97 182h88l-64 -113q87 -43 107 -60q43 -35 39 -89q-5 -71 -84 -129t-228 -74l-12 76q52 7 85.5 13.5t64.5 17.5t46.5 27.5t16.5 39.5q1 30 -34.5 52t-117.5 46z" />
    <glyph glyph-name="ogonek.sc" horiz-adv-x="610" 
d="M152 -274q9 133 204 274h105q-81 -58 -141.5 -129t-63.5 -133q-4 -42 21 -65t63 -23q17 0 31.5 4.5t32 14t18.5 9.5l18 -69q-62 -32 -100 -38q-21 -3 -45 -3q-75 0 -110.5 42t-32.5 116z" />
    <glyph glyph-name="Dotlessi.sc" horiz-adv-x="528" 
d="M356 985l-71 -985h-142l72 985h141z" />
    <glyph glyph-name="Tcedilla.sc" horiz-adv-x="833" 
d="M338 0h-19l64 887l-317 -6l26 104h752l-23 -104l-305 6l-63 -887h-27l-64 -113q87 -43 107 -60q43 -35 39 -89q-5 -71 -83.5 -129t-227.5 -74l-13 76q52 7 85.5 13.5t64.5 17.5t46.5 27.5t16.5 39.5q1 30 -34 52t-117 46l-4 11z" />
    <glyph glyph-name="f_f.sc" horiz-adv-x="1595" 
d="M686 453l-362 4l-33 -457h-133l71 985h557l-22 -100l-408 6l-24 -340h377zM1430 453l-363 4l-33 -457h-133l72 985h557l-23 -100l-407 6l-25 -340h377z" />
    <glyph glyph-name="f_f_i.sc" horiz-adv-x="2025" 
d="M1870 985l-72 -985h-133l72 985h133zM686 453l-362 4l-33 -457h-133l71 985h557l-22 -100l-408 6l-24 -340h377zM1434 453l-363 4l-33 -457h-133l72 985h557l-23 -100l-407 6l-25 -340h377z" />
    <glyph glyph-name="f_f_l.sc" horiz-adv-x="2320" 
d="M686 453l-362 4l-33 -457h-133l71 985h557l-22 -100l-408 6l-24 -340h377zM1434 453l-363 4l-33 -457h-133l72 985h557l-23 -100l-407 6l-25 -340h377zM1665 0l72 985h133l-64 -885l459 4l-29 -104h-571z" />
    <glyph glyph-name="fi.sc" horiz-adv-x="1269" 
d="M1114 985l-72 -985h-133l72 985h133zM686 453l-362 4l-33 -457h-133l71 985h557l-22 -100l-408 6l-24 -340h377z" />
    <glyph glyph-name="fl.sc" horiz-adv-x="1572" 
d="M686 453l-362 4l-33 -457h-133l71 985h557l-22 -100l-408 6l-24 -340h377zM918 0l71 985h133l-63 -885l459 4l-29 -104h-571z" />
    </font>
</defs>
</svg>
