<?xml version="1.0" standalone="no"?>
<!DOCTYPE svg PUBLIC "-//W3C//DTD SVG 1.1//EN" "http://www.w3.org/Graphics/SVG/1.1/DTD/svg11.dtd" >
<svg xmlns="http://www.w3.org/2000/svg" xmlns:xlink="http://www.w3.org/1999/xlink" version="1.1">
<metadata>
Created by FontForge 20170731 at Sat Feb 27 18:00:29 2021
 By Aleksey,,,
Universidad Nacional de Colombia, Unidad de Medios de Comunicacio'n (Unimedios), 2012-2015.
</metadata>
<defs>
<font id="AncizarSans-RegularItalic" horiz-adv-x="1019" >
  <font-face 
    font-family="Ancizar Sans"
    font-weight="400"
    font-style="italic"
    font-stretch="normal"
    units-per-em="2048"
    panose-1="2 11 6 2 4 3 0 0 0 3"
    ascent="1536"
    descent="-512"
    x-height="922"
    cap-height="1253"
    bbox="-215 -508 2388 1761"
    underline-thickness="0"
    underline-position="0"
    slope="-4"
    unicode-range="U+0020-FB04"
  />
<missing-glyph horiz-adv-x="1024" 
d="M0 0v1440h1024v-1440h-1024zM512 813l348 524h-696zM102 1245v-1050l349 524zM573 719l349 -524v1050zM164 102h696l-348 525z" />
    <glyph glyph-name="f_f" unicode="ff" horiz-adv-x="1007" 
d="M393 -471q-47 0 -98 14l33 142q67 -19 129 -19q63 0 107 64t54 207l62 866h-326l-57 -803q-9 -124 -45 -217t-91 -147.5t-120.5 -80.5t-140.5 -26q-48 0 -99 14l33 142q66 -19 129 -19q64 0 108 64t54 207l61 866h-125l13 98l121 21l4 53q7 101 34.5 178.5t66 125
t90 77.5t102.5 41.5t108 11.5q65 0 105 -12l-33 -140q-61 15 -146 15q-60 0 -102.5 -40.5t-48.5 -125.5l-13 -184h326l6 94q7 101 34.5 178.5t66 125t90.5 77.5t103 41.5t108 11.5q64 0 104 -12l-33 -140q-62 15 -145 15q-60 0 -103 -40.5t-49 -125.5l-16 -225h215l-27 -119
h-196l-55 -803q-8 -124 -44 -217t-91.5 -147.5t-121.5 -80.5t-141 -26z" />
    <glyph glyph-name="fi" unicode="fi" horiz-adv-x="956" 
d="M-100 -471q-48 0 -99 14l33 142q66 -19 129 -19q64 0 108 64t54 207l61 866h-125l13 98l121 21l6 94q7 107 44.5 191.5t96.5 136.5t131.5 79t153.5 27q152 0 258 -39l-54 -147q-52 22 -125.5 35.5t-136.5 13.5q-85 0 -136 -50.5t-58 -154.5l-13 -186h351l143 24l-68 -946
h-165l57 803h-326l-57 -803q-9 -124 -45 -217t-91 -147.5t-120.5 -80.5t-140.5 -26z" />
    <glyph glyph-name="fl" unicode="fl" horiz-adv-x="1024" 
d="M-100 -471q-48 0 -99 14l33 142q66 -19 129 -19q64 0 108 64t54 207l61 866h-125l13 98l121 21l6 94q7 107 44.5 191.5t96.5 136.5t131.5 79t153.5 27q80 0 168 -16l94 16q-20 -288 -37.5 -526t-27 -358t-16.5 -206.5t-9 -118.5t-2 -46q0 -34 15 -52t38 -18q45 0 111 49
l26 -106q-139 -93 -217 -93q-61 0 -102 41t-41 117q0 15 2 40.5t8 100.5t14.5 183.5t25 334t36.5 506.5q-92 15 -144 15q-85 0 -136 -50.5t-58 -154.5l-13 -186h203l-26 -119h-185l-57 -803q-9 -124 -45 -217t-91 -147.5t-120.5 -80.5t-140.5 -26z" />
    <glyph glyph-name="f_f_i" unicode="ffi" horiz-adv-x="1449" 
d="M393 -471q-47 0 -98 14l33 142q67 -19 129 -19q63 0 107 64t54 207l62 866h-326l-57 -803q-9 -124 -45 -217t-91 -147.5t-120.5 -80.5t-140.5 -26q-48 0 -99 14l33 142q66 -19 129 -19q64 0 108 64t54 207l61 866h-125l13 98l121 21l4 53q7 101 34.5 178.5t66 125
t90 77.5t102.5 41.5t108 11.5q65 0 105 -12l-33 -140q-61 15 -146 15q-60 0 -102.5 -40.5t-48.5 -125.5l-13 -184h326l6 94q7 107 44.5 191.5t96.5 136.5t131.5 79t153.5 27q152 0 258 -39l-53 -147q-52 22 -125.5 35.5t-136.5 13.5q-85 0 -136.5 -50.5t-58.5 -154.5
l-12 -186h350l144 24l-68 -946h-166l58 803h-326l-57 -803q-9 -124 -45 -217t-91.5 -147.5t-121 -80.5t-140.5 -26z" />
    <glyph glyph-name="f_f_l" unicode="ffl" horiz-adv-x="1517" 
d="M393 -471q-47 0 -98 14l33 142q67 -19 129 -19q63 0 107 64t54 207l62 866h-326l-57 -803q-9 -124 -45 -217t-91 -147.5t-120.5 -80.5t-140.5 -26q-48 0 -99 14l33 142q66 -19 129 -19q64 0 108 64t54 207l61 866h-125l13 98l121 21l4 53q7 101 34.5 178.5t66 125
t90 77.5t102.5 41.5t108 11.5q65 0 105 -12l-33 -140q-61 15 -146 15q-60 0 -102.5 -40.5t-48.5 -125.5l-13 -184h326l6 94q7 107 44.5 191.5t96.5 136.5t131.5 79t153.5 27q80 0 168 -16l94 16q-20 -288 -37.5 -526t-27 -358t-16.5 -206.5t-9 -118.5t-2 -46q0 -34 15 -52
t38 -18q45 0 111 49l27 -106q-139 -93 -217 -93q-61 0 -102.5 41t-41.5 117q0 15 2 40.5t8 100.5t14.5 183.5t25 334t36.5 506.5q-92 15 -143 15q-85 0 -136.5 -50.5t-58.5 -154.5l-12 -186h213l-27 -119h-194l-57 -803q-9 -124 -45 -217t-91.5 -147.5t-121 -80.5
t-140.5 -26z" />
    <glyph glyph-name=".notdef" horiz-adv-x="1024" 
d="M0 0v1440h1024v-1440h-1024zM512 813l348 524h-696zM102 1245v-1050l349 524zM573 719l349 -524v1050zM164 102h696l-348 525z" />
    <glyph glyph-name=".null" horiz-adv-x="0" 
 />
    <glyph glyph-name="nonmarkingreturn" horiz-adv-x="682" 
 />
    <glyph glyph-name="space" unicode=" " horiz-adv-x="444" 
 />
    <glyph glyph-name="exclam" unicode="!" horiz-adv-x="626" 
d="M354 354l-139 -39q18 227 25.5 487.5t-2.5 444.5l213 64q-70 -568 -97 -957zM145 88q3 36 55.5 83.5t84.5 47.5q30 0 76 -43.5t45 -77.5q-3 -36 -54.5 -82.5t-81.5 -46.5q-32 0 -79 43t-46 76z" />
    <glyph glyph-name="quotedbl" unicode="&#x22;" horiz-adv-x="667" 
d="M440 977l2 442h164l-63 -442h-103zM162 977l2 442h164l-64 -442h-102z" />
    <glyph glyph-name="numbersign" unicode="#" horiz-adv-x="1081" 
d="M623 485l75 246h-233l-76 -246h234zM471 0l119 379h-234l-118 -379h-123l118 379h-213l3 31l36 75h207l76 246h-236l3 31l36 74h230l131 417h123l-131 -417h233l131 417h123l-131 -417h207l-2 -31l-37 -74h-201l-76 -246h230l-2 -30l-37 -76h-223l-119 -379h-123z" />
    <glyph glyph-name="dollar" unicode="$" 
d="M532 -287h-161l41 264q-14 -2 -43 -2q-171 0 -289 50l45 151q178 -66 338 -63q97 -1 159 54.5t62 139.5q0 78 -33.5 130t-130.5 102l-112 57q-124 63 -183 134.5t-59 176.5q0 141 96.5 241t247.5 124l-4 254h162l-39 -248q168 -5 274 -47l-41 -154q-192 66 -334 66
q-81 0 -134.5 -53t-53.5 -125q0 -69 36.5 -120.5t133.5 -101.5l117 -59q123 -62 180 -135t57 -170q0 -144 -92.5 -246.5t-245.5 -138.5z" />
    <glyph glyph-name="percent" unicode="%" horiz-adv-x="1251" 
d="M643 995q-9 -133 -99.5 -223t-217.5 -90q-119 0 -184 79.5t-56 205.5q8 131 98 222t217 91q116 0 183 -80t59 -205zM59 0l998 1253h137l-995 -1253h-140zM514 979q7 101 -32.5 152t-119.5 51q-74 0 -109.5 -50t-41.5 -149q-15 -203 151 -203q139 0 152 199zM1165 289
q-9 -133 -98.5 -223.5t-216.5 -90.5q-118 0 -184 79.5t-58 205.5q9 131 100 222t218 91q116 0 182 -79.5t57 -204.5zM1038 272q7 101 -32.5 152t-118.5 51q-74 0 -110 -50t-42 -149q-7 -101 32 -151.5t120 -50.5q139 0 151 198z" />
    <glyph glyph-name="ampersand" unicode="&#x26;" horiz-adv-x="1236" 
d="M1079 -82q0 -189 -182 -340l-96 88q71 64 102 108.5t31 100.5q0 42 -26 96t-95 148q-192 -142 -414 -142q-147 0 -239 78.5t-92 198.5q0 215 297 403q-69 80 -105.5 145t-36.5 134q0 144 110.5 243t266.5 99q175 0 283 -64l-52 -129q-144 68 -278 68q-68 0 -118 -46.5
t-50 -117.5q0 -42 23.5 -87t52 -79t94.5 -107.5t111 -127.5q130 -155 208 -254q91 132 91 270q0 131 -68 238l150 63q32 -44 49.5 -112t17.5 -136q0 -218 -168 -417q72 -100 102.5 -173.5t30.5 -148.5zM469 104q146 0 279 99q-25 32 -59 73.5t-83 100.5t-84 102
q-55 66 -94 107q-201 -132 -201 -283q0 -87 72 -143t170 -56z" />
    <glyph glyph-name="quotesingle" unicode="'" horiz-adv-x="389" 
d="M162 977l2 442h164l-64 -442h-102z" />
    <glyph glyph-name="parenleft" unicode="(" horiz-adv-x="655" 
d="M571 -182l-94 -82q-376 289 -336 844q19 267 128 477t327 366l82 -82q-365 -278 -397 -761q-32 -485 290 -762z" />
    <glyph glyph-name="parenright" unicode=")" horiz-adv-x="655" 
d="M84 1339l94 82q376 -289 336 -843q-19 -267 -128.5 -477.5t-326.5 -366.5l-82 82q366 279 398 762t-291 761z" />
    <glyph glyph-name="asterisk" unicode="*" horiz-adv-x="862" 
d="M498 1409q24 -70 18 -164q-7 -86 -33 -147l-41 -8q-5 60 -23 137.5t-42 136.5zM797 1212q-36 -52 -116 -100t-163 -65l-24 38q49 36 109.5 95t98.5 110zM160 1235q60 -3 136 -45t128 -103l-21 -38q-51 23 -128.5 39.5t-145.5 21.5zM758 846q-61 3 -137 45t-129 104l20 37
q50 -21 129.5 -38.5t144.5 -22.5zM121 866q36 52 116 100.5t162 65.5l21 -35q-48 -36 -107 -96t-100 -115zM418 674q-25 62 -19 160q7 84 33 153l43 6q5 -59 23.5 -137t42.5 -135z" />
    <glyph glyph-name="plus" unicode="+" 
d="M918 481h-345l-24 -350h-135l24 350h-344l8 125h344l25 338h135l-24 -338h344z" />
    <glyph glyph-name="comma" unicode="," horiz-adv-x="471" 
d="M96 111q3 34 41 66t70 32q34 0 78 -45.5t41 -97.5q-6 -81 -166 -369l-105 39q8 17 30 64.5t31 67.5t23 52.5t20 51t7 30.5q1 10 -35 46t-35 63z" />
    <glyph glyph-name="hyphen" unicode="-" horiz-adv-x="655" 
d="M563 563v-31l-39 -96h-432v31l41 96h430z" />
    <glyph glyph-name="period" unicode="." horiz-adv-x="471" 
d="M70 82q1 35 48.5 81t78.5 46q32 0 80 -38t45 -71q-1 -34 -49 -79.5t-80 -45.5t-79 37t-44 70z" />
    <glyph glyph-name="slash" unicode="/" horiz-adv-x="673" 
d="M14 -225l512 1644h133l-512 -1644h-133z" />
    <glyph glyph-name="zero" unicode="0" 
d="M950 786q0 -213 -38.5 -372t-109 -253.5t-160.5 -140t-200 -45.5q-172 0 -272 133t-100 365q0 209 38.5 366.5t108 252t159 140.5t199.5 46q174 0 274.5 -134t100.5 -358zM508 104q264 0 264 611q0 203 -66.5 317.5t-189.5 114.5q-268 0 -268 -604q0 -209 66 -324
t194 -115z" />
    <glyph glyph-name="one" unicode="1" 
d="M666 0h-172l75 1085l-317 -129l-33 154q141 42 420 143h115z" />
    <glyph glyph-name="two" unicode="2" 
d="M840 0h-760l14 131q334 309 469.5 477.5t136.5 300.5q0 102 -63 163t-168 61q-102 0 -270 -84l-35 141q177 88 354 88q162 0 264.5 -88.5t102.5 -239.5q0 -156 -141.5 -345.5t-456.5 -465.5l585 8z" />
    <glyph glyph-name="three" unicode="3" 
d="M369 -25q-164 0 -299 41l47 152q152 -49 303 -49q132 0 207 60.5t75 168.5t-75.5 173t-206.5 65q-36 0 -129 -6l-19 131q203 0 313.5 66t110.5 173q0 84 -56.5 134.5t-147.5 50.5q-62 0 -133.5 -20t-127.5 -50l-36 135q70 32 169 55t185 23q146 0 233.5 -76.5
t87.5 -197.5q0 -115 -76.5 -199.5t-191.5 -124.5q133 -26 204 -107t71 -198q0 -78 -35.5 -150t-99 -127.5t-161 -89t-212.5 -33.5z" />
    <glyph glyph-name="four" unicode="4" 
d="M612 406l41 618l-467 -618h426zM928 268h-160l-18 -268h-166l18 268h-598l8 117l662 868h164l-60 -847h197z" />
    <glyph glyph-name="five" unicode="5" 
d="M309 -25q-128 0 -254 37l51 150q146 -51 308 -51q133 0 212 71t79 180q0 115 -88.5 181.5t-235.5 66.5q-109 0 -203 -22l88 665h654l-33 -141h-492l-49 -375q84 15 135 15q172 0 283 -90.5t110 -243.5q2 -200 -151.5 -321.5t-413.5 -121.5z" />
    <glyph glyph-name="six" unicode="6" 
d="M911 446q0 -108 -38 -199t-100.5 -149.5t-140 -90.5t-159.5 -32q-175 0 -278 130t-103 374q0 397 158.5 598t443.5 201q127 0 236 -33l-41 -153q-139 47 -283 47q-277 0 -327 -459q164 94 305 94q153 0 240 -89t87 -239zM510 104q107 0 169 71.5t62 217.5
q0 110 -62.5 179t-172.5 69q-94 0 -236 -70q-2 -31 -2 -100q0 -175 69.5 -271t172.5 -96z" />
    <glyph glyph-name="seven" unicode="7" 
d="M371 -27l-176 50l565 1077h-662l39 153h817l-8 -133q-573 -1147 -575 -1147z" />
    <glyph glyph-name="eight" unicode="8" 
d="M446 -25q-174 0 -276 79t-102 222q0 62 22 115t67.5 98.5t90.5 78.5t114 75q-100 62 -147 130.5t-47 170.5q0 149 119 241.5t280 90.5q150 2 243 -65.5t93 -184.5q0 -71 -38.5 -137t-92 -113t-131.5 -96q145 -82 204.5 -151t59.5 -173q0 -108 -67 -196.5t-172 -136.5
t-220 -48zM330 983q0 -71 43.5 -123t161.5 -121q109 71 158.5 125.5t49.5 120.5q0 73 -62.5 119.5t-162.5 46.5q-80 0 -134 -46t-54 -122zM506 102q90 0 163.5 52t73.5 143q0 82 -57 139.5t-219 145.5q-113 -70 -170 -133.5t-57 -139.5q0 -93 74.5 -150t191.5 -57z" />
    <glyph glyph-name="nine" unicode="9" 
d="M520 610q96 0 234 70q4 62 4 100q0 175 -69.5 271t-172.5 96q-107 0 -169 -71.5t-62 -217.5q0 -110 62.5 -179t172.5 -69zM303 -25q-50 0 -114.5 10t-102.5 23l39 146q115 -39 207 -39q159 0 267.5 107.5t143.5 346.5q-165 -92 -301 -92q-153 0 -240 90t-87 240
q0 108 38 199t100.5 149.5t140 90.5t159.5 32q175 0 278 -130t103 -374q0 -197 -49.5 -352t-136.5 -251.5t-200 -146t-245 -49.5z" />
    <glyph glyph-name="colon" unicode=":" horiz-adv-x="471" 
d="M104 655q1 35 48.5 81t78.5 46q32 0 80 -37.5t45 -70.5q-1 -34 -49 -79.5t-80 -45.5t-79 36.5t-44 69.5zM63 82q1 35 48.5 81t78.5 46q32 0 80 -38t45 -71q-1 -34 -49 -79.5t-80 -45.5t-79 37t-44 70z" />
    <glyph glyph-name="semicolon" unicode=";" horiz-adv-x="471" 
d="M109 655q1 35 48.5 81t78.5 46q32 0 79.5 -37.5t44.5 -70.5q-1 -34 -49 -79.5t-80 -45.5t-78.5 36.5t-43.5 69.5zM80 111q3 34 40.5 66t69.5 32q34 0 78 -45.5t41 -97.5q-6 -81 -166 -369l-104 39q8 17 30 64.5t31 67.5t23 52.5t20 51t7 30.5q1 10 -35 46t-35 63z" />
    <glyph glyph-name="equal" unicode="=" 
d="M879 727l-2 -31l-43 -90h-678l2 31l43 90h678zM862 481l-2 -30l-43 -91h-678l2 31l43 90h678z" />
    <glyph glyph-name="question" unicode="?" horiz-adv-x="819" 
d="M479 360l-149 -47q-25 31 -39 52.5t-26.5 55t-10.5 66.5q4 58 36 97t122 112q94 73 130 124.5t42 127.5q6 84 -52 140.5t-149 56.5q-44 0 -92 -20.5t-137 -73.5l-52 131q184 96 351 96q148 0 240 -85t83 -220q-7 -87 -64 -155.5t-165 -151.5q-72 -55 -100 -84.5
t-29 -59.5q-3 -22 16 -71t45 -91zM229 86q1 33 51 78t82 45q27 0 70.5 -42t42.5 -75q-3 -33 -53.5 -77t-77.5 -44q-32 0 -75 41t-40 74z" />
    <glyph glyph-name="at" unicode="@" horiz-adv-x="1595" 
d="M662 -309q-58 0 -117 12t-121 39t-116.5 67.5t-102 102.5t-79.5 137.5t-47 178.5t-7 221q14 186 73 341t145 258.5t193.5 175.5t216 104t215.5 32q192 0 333 -67.5t215 -202t61 -320.5q-17 -244 -186 -433.5t-400 -240.5l-18 250q-56 -110 -126 -169.5t-130 -59.5
q-88 0 -132 97t-32 263q5 70 22.5 137t51.5 130.5t79.5 111t111.5 76.5t144 29q118 0 181 -50l-48 -678q303 166 330 525q19 216 -114 342.5t-377 126.5q-138 0 -257 -61t-202 -164t-134 -239.5t-61 -287.5q-8 -133 14 -242t67.5 -185t111.5 -128.5t144.5 -77t168.5 -24.5
q43 0 86 5.5t73 11.5t67.5 18.5t54.5 19.5t49.5 21t38.5 16l28 -109q-73 -32 -119.5 -50t-146.5 -39t-202 -21zM735 242q19 0 45 19t57.5 60t59 123.5t39.5 190.5l14 196q-49 17 -106 17q-53 0 -91 -26.5t-60.5 -77t-33.5 -111t-16 -141.5q-6 -89 6 -147t34 -80.5t52 -22.5z
" />
    <glyph glyph-name="A" unicode="A" horiz-adv-x="1103" 
d="M717 532l-133 541l-222 -541h355zM848 0l-96 391h-449l-160 -391h-174l537 1253h209l315 -1253h-182z" />
    <glyph glyph-name="B" unicode="B" horiz-adv-x="1021" 
d="M477 1135h-106l-31 -435h135q112 0 181 57.5t69 157.5q0 102 -64 161t-184 59zM481 580h-149l-33 -457h176q139 0 213 58.5t74 162.5q0 108 -73 172t-208 64zM117 0l88 1253h336q176 0 266 -71.5t90 -206.5q0 -99 -53 -179.5t-144 -131.5q47 -9 87.5 -28.5t76.5 -52
t57 -83t21 -113.5q0 -123 -72.5 -212.5t-188.5 -132t-259 -42.5h-305z" />
    <glyph glyph-name="C" unicode="C" horiz-adv-x="1015" 
d="M889 184l33 -123q-218 -86 -381 -86q-96 0 -180 33.5t-149.5 99t-103.5 171t-38 239.5q0 118 22 227.5t70.5 207t117.5 169.5t170 114t222 42q78 0 165 -17.5t146 -41.5l-51 -150q-189 66 -318 66q-58 0 -109.5 -19t-98 -63t-80 -110.5t-53 -167.5t-19.5 -228
q0 -107 29.5 -191t78.5 -134t107.5 -75.5t120.5 -25.5q59 0 120.5 11.5t94 22t84.5 29.5z" />
    <glyph glyph-name="D" unicode="D" horiz-adv-x="1161" 
d="M205 1253h370q245 0 390 -143t145 -377q0 -172 -53 -313t-144 -231.5t-210 -139.5t-254 -49h-332zM373 1112l-68 -971h168q98 0 180.5 34.5t144 101t96 170.5t34.5 235q0 206 -107.5 318t-300.5 112h-147z" />
    <glyph glyph-name="E" unicode="E" horiz-adv-x="944" 
d="M117 0l88 1253h674l-31 -141l-475 6l-27 -397h440l-28 -137l-422 6l-31 -453l529 6l-31 -143h-686z" />
    <glyph glyph-name="F" unicode="F" horiz-adv-x="915" 
d="M752 561l-418 4l-39 -565h-178l88 1253h674l-31 -141l-475 6l-29 -420h438z" />
    <glyph glyph-name="G" unicode="G" horiz-adv-x="1128" 
d="M977 76q-204 -101 -424 -101q-76 0 -145.5 20.5t-131.5 64t-107.5 106.5t-72 154t-26.5 200q0 157 40 293.5t116.5 240.5t197 164t272.5 60q99 0 199.5 -21.5t155.5 -46.5l-56 -159q-201 84 -366 84q-179 0 -277 -152t-98 -420q0 -95 20.5 -171.5t54.5 -126t80.5 -83
t95 -47.5t101.5 -14q92 0 213 31l35 471h164z" />
    <glyph glyph-name="H" unicode="H" horiz-adv-x="1212" 
d="M829 0l41 582h-534l-41 -582h-178l88 1253h178l-37 -530h535l37 530h178l-88 -1253h-179z" />
    <glyph glyph-name="I" unicode="I" horiz-adv-x="499" 
d="M383 1253l-88 -1253h-178l88 1253h178z" />
    <glyph glyph-name="J" unicode="J" horiz-adv-x="688" 
d="M571 1253l-61 -893q-12 -179 -118.5 -282t-266.5 -103q-85 0 -156 27l39 152q92 -37 168 -37q57 0 101.5 52.5t50.5 139.5l65 944h178z" />
    <glyph glyph-name="K" unicode="K" horiz-adv-x="1095" 
d="M1022 0h-215l-459 674l553 579h205l-565 -575zM381 1253l-88 -1253h-176l88 1253h176z" />
    <glyph glyph-name="L" unicode="L" horiz-adv-x="913" 
d="M117 0l88 1253h178l-78 -1112l529 6l-31 -147h-686z" />
    <glyph glyph-name="M" unicode="M" horiz-adv-x="1585" 
d="M662 0l-275 1010l-145 -1010h-164l198 1253h216l278 -1009l414 1009h217l24 -1253h-176l-16 1004l-414 -1004h-157z" />
    <glyph glyph-name="N" unicode="N" horiz-adv-x="1232" 
d="M877 0l-535 973l-68 -973h-157l86 1253h170l520 -954l65 954h158l-88 -1253h-151z" />
    <glyph glyph-name="O" unicode="O" horiz-adv-x="1175" 
d="M1106 729q0 -156 -35 -284.5t-93 -214t-135.5 -144.5t-159 -85t-167.5 -26q-199 0 -322.5 146.5t-123.5 402.5q0 156 35 284.5t92.5 214t135 144.5t159 85t167.5 26q199 0 323 -146.5t124 -402.5zM588 117q68 0 126.5 32.5t106.5 97.5t75.5 176t27.5 255
q0 127 -28.5 219.5t-78 143t-107 73.5t-126.5 23q-67 0 -125 -32.5t-105 -98t-73.5 -176t-26.5 -255.5q0 -102 18.5 -182.5t49 -131.5t74 -84t90.5 -46.5t102 -13.5z" />
    <glyph glyph-name="P" unicode="P" horiz-adv-x="978" 
d="M477 1126h-102l-37 -514h133q125 0 208 67t83 191q0 129 -73.5 192.5t-211.5 63.5zM414 481h-84l-35 -481h-178l88 1253h319q204 0 311 -86.5t107 -244.5q0 -195 -146 -318t-382 -123z" />
    <glyph glyph-name="Q" unicode="Q" horiz-adv-x="1175" 
d="M815 -369q-55 0 -145.5 36l-181 72t-146.5 36q-72 0 -164 -60l-28 129q63 29 112 37q174 67 232 94q-190 9 -307 155t-117 394q0 156 35 284.5t92.5 214t135 144.5t159 85t167.5 26q199 0 323 -146.5t124 -402.5q0 -234 -73 -396t-197 -253q-115 -87 -349 -205
q44 -11 123 -36t139.5 -40.5t104.5 -15.5q93 0 164 53l-10 -145q-95 -60 -193 -60zM588 117q68 0 126.5 32.5t106.5 97.5t75.5 176t27.5 255q0 127 -28.5 219.5t-78 143t-107 73.5t-126.5 23q-67 0 -125 -32.5t-105 -98t-73.5 -176t-26.5 -255.5q0 -102 18.5 -182.5
t49 -131.5t74 -84t90.5 -46.5t102 -13.5z" />
    <glyph glyph-name="R" unicode="R" horiz-adv-x="1038" 
d="M492 1126h-117l-35 -479h160q106 0 179 62t73 178q0 239 -260 239zM446 518h-114l-37 -518h-178l88 1253h330q190 0 293.5 -86t103.5 -235q0 -125 -69 -221.5t-187 -147.5l289 -563h-205l-244 522q-46 -4 -70 -4z" />
    <glyph glyph-name="S" unicode="S" horiz-adv-x="905" 
d="M477 539l-112 57q-124 63 -183 134.5t-59 176.5q0 161 122.5 266t305.5 105q197 0 309 -47l-41 -154q-192 66 -334 66q-81 0 -134.5 -53t-53.5 -125q0 -69 36.5 -120.5t133.5 -101.5l117 -59q123 -62 180 -135t57 -170q0 -181 -140 -292.5t-355 -111.5q-171 0 -289 50
l45 151q178 -66 338 -63q97 -1 159 54.5t62 139.5q0 78 -33.5 130t-130.5 102z" />
    <glyph glyph-name="T" unicode="T" horiz-adv-x="1028" 
d="M993 1106l-356 6l-78 -1112h-178l78 1112l-379 -6l35 147h913z" />
    <glyph glyph-name="U" unicode="U" horiz-adv-x="1218" 
d="M203 1253h178q-12 -176 -23.5 -343t-16.5 -235t-9 -132.5t-5 -90.5t-1 -53q0 -141 74 -209.5t204 -68.5q123 0 190.5 72.5t79.5 236.5l56 823h172l-55 -802q-15 -233 -145 -354.5t-357 -121.5q-177 0 -290.5 96t-113.5 273q0 20 0.5 37t2.5 51t4 67t7.5 107t11 148.5
t16 215t20.5 283.5z" />
    <glyph glyph-name="V" unicode="V" horiz-adv-x="1114" 
d="M610 0h-207l-329 1253h184l272 -1067l424 1067h179z" />
    <glyph glyph-name="W" unicode="W" horiz-adv-x="1708" 
d="M1114 0l-237 977l-392 -977h-186l-186 1253h180l143 -1001l391 1001h160l242 -1007l295 1007h166l-387 -1253h-189z" />
    <glyph glyph-name="X" unicode="X" horiz-adv-x="1042" 
d="M786 0l-282 518l-334 -518h-190l446 657l-326 596h195l256 -465l299 465h192l-413 -606l354 -647h-197z" />
    <glyph glyph-name="Y" unicode="Y" horiz-adv-x="1060" 
d="M582 0h-179l35 500l-364 753h194l285 -585l346 585h180l-463 -749z" />
    <glyph glyph-name="Z" unicode="Z" horiz-adv-x="1056" 
d="M905 0h-831l8 121l688 983h-627l37 149h803l-10 -139l-684 -969h651z" />
    <glyph glyph-name="bracketleft" unicode="[" horiz-adv-x="655" 
d="M524 -135l-8 -109h-373l115 1643h373l-8 -109h-238l-100 -1425h239z" />
    <glyph glyph-name="backslash" unicode="\" horiz-adv-x="673" 
d="M262 1419l283 -1644h-133l-283 1644h133z" />
    <glyph glyph-name="bracketright" unicode="]" horiz-adv-x="655" 
d="M397 -244h-372l8 109h237l101 1425h-240l8 109h373z" />
    <glyph glyph-name="underscore" unicode="_" horiz-adv-x="901" 
d="M881 -207v-112h-901v112h901z" />
    <glyph glyph-name="grave" unicode="`" horiz-adv-x="673" 
d="M551 1047h-143l-285 262l184 34z" />
    <glyph glyph-name="a" unicode="a" horiz-adv-x="897" 
d="M594 -25l-8 242q-59 -112 -143 -177t-156 -65q-100 0 -158.5 87t-58.5 274q0 162 56 300.5t161.5 224t238.5 85.5q73 0 146.5 -17t122.5 -46l-62 -883zM362 113q24 0 51 13.5t57.5 46.5t57 81.5t48.5 126.5t32 174l17 231q-72 35 -148 35q-102 0 -167.5 -120.5
t-65.5 -346.5q0 -116 31 -178.5t87 -62.5z" />
    <glyph glyph-name="b" unicode="b" horiz-adv-x="929" 
d="M469 102q92 0 151.5 115.5t59.5 333.5q0 135 -33 196.5t-88 61.5q-29 0 -66 -28t-75 -80t-70 -140t-47 -194l-14 -230q99 -35 182 -35zM436 -25q-103 0 -196 39l-68 -63l-61 41l92 1399l168 28l-49 -737q65 119 144 191.5t163 72.5q227 0 227 -375q0 -125 -38 -238.5
t-98 -190.5t-135 -122t-149 -45z" />
    <glyph glyph-name="c" unicode="c" horiz-adv-x="755" 
d="M643 229l49 -90q-182 -164 -344 -164q-126 0 -201 92.5t-75 286.5q0 138 34.5 252.5t92.5 187.5t130.5 112.5t151.5 39.5q145 0 246 -72l-61 -131q-44 27 -66.5 39t-65.5 26.5t-83 14.5q-49 0 -89 -42t-64 -107.5t-37 -137.5t-13 -139q0 -288 160 -288q42 0 88 20.5
t74 41t73 58.5z" />
    <glyph glyph-name="d" unicode="d" horiz-adv-x="925" 
d="M623 -25l-13 271q-65 -122 -145 -196.5t-166 -74.5q-227 0 -227 375q0 125 38 238.5t98 190.5t135 122t149 45q86 0 163 -22l35 465l168 28l-96 -1417zM369 113q32 0 72.5 33t81 94t72 165.5t40.5 229.5l10 147q-99 35 -188 35q-92 0 -150.5 -114t-58.5 -332
q0 -135 33 -196.5t88 -61.5z" />
    <glyph glyph-name="e" unicode="e" horiz-adv-x="749" 
d="M360 -25q-134 0 -210 94t-76 273q0 140 34 256.5t91 191.5t130 115.5t152 40.5q104 0 165 -61.5t61 -147.5q0 -94 -68.5 -168t-171 -112t-219.5 -43v-39q0 -137 42.5 -201.5t108.5 -64.5q103 0 244 120l49 -90q-69 -68 -158 -116t-174 -48zM442 829q-71 0 -121 -82.5
t-67 -236.5q133 9 212 66t79 141q0 50 -28 81t-75 31z" />
    <glyph glyph-name="f" unicode="f" horiz-adv-x="514" 
d="M-100 -471q-48 0 -99 14l33 142q66 -19 129 -19q64 0 108 64t54 207l61 866h-125l13 98l121 21l6 94q7 101 34.5 178.5t66 125t90 77.5t102.5 41.5t108 11.5q65 0 105 -12l-33 -140q-61 15 -146 15q-60 0 -102.5 -40.5t-48.5 -125.5l-17 -225h215l-26 -119h-197l-55 -803
q-8 -124 -44 -217t-91.5 -147.5t-121 -80.5t-140.5 -26z" />
    <glyph glyph-name="g" unicode="g" horiz-adv-x="778" 
d="M401 475q69 0 110.5 44.5t41.5 139.5q0 84 -46.5 132.5t-113.5 48.5q-145 0 -145 -183q0 -81 44.5 -131.5t108.5 -50.5zM719 -94q0 -78 -64.5 -150t-166 -115.5t-205.5 -43.5q-147 0 -230.5 53.5t-83.5 138.5q0 62 38 115.5t130 115.5l107 70q-61 34 -85 63.5t-26 65.5
q1 44 32.5 82.5t96.5 81.5q-79 25 -124.5 87.5t-45.5 152.5q0 141 96 232t250 91q66 0 129 -26l138 198l98 -98l-19 -41l-149 -105q74 -74 74 -180q0 -137 -97 -231t-250 -94h-6q-77 -52 -77 -93q0 -27 51.5 -56t177.5 -81q114 -46 162.5 -98.5t48.5 -134.5zM344 -283
q94 0 161.5 42.5t67.5 105.5q0 51 -49.5 90t-169.5 86q-25 10 -41 16l-69 -51q-67 -48 -95 -81.5t-28 -80.5q0 -53 58 -90t165 -37z" />
    <glyph glyph-name="h" unicode="h" horiz-adv-x="931" 
d="M299 342v10l-25 -352h-168l97 1391l168 28l-52 -743q72 132 155.5 201t164.5 69q186 0 186 -241q0 -72 -14 -218t-32.5 -307t-20.5 -180h-168q2 30 18 171t28.5 274t12.5 186q0 94 -22 133t-74 39q-23 0 -51.5 -15.5t-61 -51.5t-61 -87t-50.5 -131.5t-30 -175.5z" />
    <glyph glyph-name="i" unicode="i" horiz-adv-x="446" 
d="M174 1225q0 33 40.5 79t68.5 46t65 -35t37 -68q0 -29 -40.5 -75t-68.5 -46q-29 0 -65.5 34t-36.5 65zM172 918l168 28l-68 -946h-166z" />
    <glyph glyph-name="j" unicode="j" horiz-adv-x="446" 
d="M178 1225q0 33 40.5 79t68.5 46t65 -35t37 -68q0 -29 -40 -75t-68 -46q-29 0 -66 34t-37 65zM-137 -471l-23 156q36 -4 62 -4q93 0 141.5 71.5t60.5 241.5l68 926l168 28l-70 -956q-7 -108 -43 -196.5t-91.5 -146t-125.5 -89t-147 -31.5z" />
    <glyph glyph-name="k" unicode="k" horiz-adv-x="827" 
d="M657 -16q-25 28 -51.5 64.5t-101 156t-193.5 323.5l-39 -528h-166l101 1391l168 28l-64 -887q195 142 346 390h170q-141 -237 -346 -398q108 -170 179.5 -275t94 -134t58.5 -72z" />
    <glyph glyph-name="l" unicode="l" horiz-adv-x="499" 
d="M436 174l27 -106q-139 -93 -217 -93q-61 0 -102.5 41t-41.5 117q0 14 2 39t9 101.5t16.5 193.5t27.5 361.5t40 560.5l168 28q-20 -290 -37.5 -523t-27 -349.5t-16.5 -197t-9.5 -109.5t-2.5 -43q0 -34 15.5 -52t38.5 -18q44 0 110 49z" />
    <glyph glyph-name="m" unicode="m" horiz-adv-x="1411" 
d="M299 342v4l-27 -346h-166l64 918l141 28l15 -246l-2 -16q71 128 153 195t162 67q92 0 134 -58.5t42 -182.5v-15q71 125 152 190.5t159 65.5q92 0 134.5 -58.5t42.5 -182.5q0 -56 -8.5 -166.5t-18.5 -205.5t-21.5 -204t-13.5 -129h-168q2 24 16.5 169.5t25.5 276.5t11 185
q0 97 -17.5 134.5t-68.5 37.5q-26 0 -58.5 -21t-68 -62.5t-67 -116t-47.5 -167.5q-9 -102 -26 -259.5t-19 -176.5h-168q2 24 16.5 169.5t25.5 276.5t11 185q0 97 -17.5 134.5t-68.5 37.5q-23 0 -51.5 -15.5t-61 -51.5t-61 -87t-50.5 -131.5t-30 -175.5z" />
    <glyph glyph-name="n" unicode="n" horiz-adv-x="931" 
d="M553 803q-28 0 -63 -23.5t-72.5 -70t-69 -130t-45.5 -188.5l-29 -391h-168l64 918l141 28l11 -266q72 131 154.5 198.5t162.5 67.5q186 0 186 -241q0 -72 -14 -218t-32.5 -307t-20.5 -180h-168q2 30 18 171t28.5 274t12.5 186q0 94 -22 133t-74 39z" />
    <glyph glyph-name="o" unicode="o" horiz-adv-x="897" 
d="M823 551q0 -82 -16.5 -162t-51.5 -155.5t-85.5 -132.5t-124.5 -91.5t-162 -34.5q-138 0 -223.5 102.5t-85.5 293.5q0 82 16.5 162t51.5 155t85.5 132t124.5 91.5t162 34.5q139 0 224 -102.5t85 -292.5zM436 90q50 0 89.5 32t62 80t37 112t19.5 119.5t5 111.5
q0 134 -46.5 210t-141.5 76q-50 0 -89.5 -32.5t-62 -81t-37 -113t-19.5 -119.5t-5 -108q0 -140 47.5 -213.5t140.5 -73.5z" />
    <glyph glyph-name="p" unicode="p" horiz-adv-x="931" 
d="M473 102q92 0 151.5 115.5t59.5 333.5q0 135 -33 196.5t-88 61.5q-32 0 -72.5 -33t-81 -94t-72 -165.5t-40.5 -229.5v6l-12 -154q105 -37 188 -37zM242 -442l-168 -29l96 1389l141 28l13 -270q63 121 143 195.5t166 74.5q227 0 227 -375q0 -125 -38 -238.5t-98 -190.5
t-135 -122t-149 -45q-78 0 -166 25z" />
    <glyph glyph-name="q" unicode="q" horiz-adv-x="925" 
d="M561 -471l49 717q-65 -122 -145 -196.5t-166 -74.5q-227 0 -227 375q0 125 38 238.5t98 190.5t135 122t149 45q113 0 213 -39l53 64l63 -25l-92 -1388zM369 113q32 0 72.5 33t81 94t72 165.5t40.5 229.5v-4l10 151q-99 35 -188 35q-92 0 -150.5 -114t-58.5 -332
q0 -135 33 -196.5t88 -61.5z" />
    <glyph glyph-name="r" unicode="r" horiz-adv-x="628" 
d="M301 338v2l-27 -340h-168l64 918l141 28l11 -270q55 139 137.5 204.5t171.5 65.5q22 0 28 -2l-32 -176q-24 6 -49 6q-35 0 -65.5 -7.5t-67.5 -35t-64 -72.5t-49.5 -127.5t-30.5 -193.5z" />
    <glyph glyph-name="s" unicode="s" horiz-adv-x="708" 
d="M311 -25q-148 0 -276 56l43 141q154 -70 270 -70q52 0 79.5 31t27.5 76q0 71 -95 149l-116 99q-64 54 -92.5 104t-28.5 121q0 119 90.5 191.5t204.5 72.5q63 0 138 -15t106 -30l-44 -135q-141 57 -233 57q-49 0 -76.5 -28.5t-27.5 -75.5q0 -32 20 -65t76 -81l117 -98
q66 -56 93 -103t27 -110q0 -67 -28.5 -123.5t-73.5 -91t-97.5 -53.5t-103.5 -19z" />
    <glyph glyph-name="t" unicode="t" horiz-adv-x="663" 
d="M618 106q-173 -131 -309 -131q-75 0 -127.5 51t-52.5 136q0 57 64 641h-146l12 98l146 21q18 171 20 188l168 29q-10 -101 -24 -217h295l-31 -119h-277q-59 -490 -59 -576q0 -52 25 -78t67 -26q75 0 193 84z" />
    <glyph glyph-name="u" unicode="u" horiz-adv-x="927" 
d="M618 -25l-10 271q-72 -133 -154 -202t-163 -69q-185 0 -185 242q0 72 14 218t33 304t21 179l170 26q-2 -30 -18.5 -176.5t-29.5 -285t-13 -191.5q0 -94 21 -133t73 -39q22 0 49.5 14.5t59 48.5t59.5 82.5t50.5 124.5t31.5 166l26 363l168 28l-63 -946z" />
    <glyph glyph-name="v" unicode="v" horiz-adv-x="808" 
d="M371 0h-187l-63 909l164 29l49 -795q205 232 289 779h149q-15 -158 -63.5 -328t-138 -337t-199.5 -257z" />
    <glyph glyph-name="w" unicode="w" horiz-adv-x="1269" 
d="M668 0l-37 446q-97 -278 -275 -448l-168 2l-65 922l162 22l49 -799q96 105 168 277t100 364l-10 136h158l53 -785q112 121 183 329.5t99 455.5h150q-13 -121 -44 -249t-79.5 -255t-120 -238.5t-155.5 -179.5h-168z" />
    <glyph glyph-name="x" unicode="x" horiz-adv-x="737" 
d="M494 -10q-142 321 -160 362q-137 -172 -211 -352h-154q64 194 314 473q-151 344 -193 434l170 27q7 -16 62 -140.5t90 -203.5q116 148 192 332h154q-61 -185 -295 -451q160 -366 201 -455z" />
    <glyph glyph-name="y" unicode="y" horiz-adv-x="841" 
d="M-106 -471q-48 0 -109 12l20 154q59 -12 127 -12q225 0 408 292h-74l-135 936l166 33l117 -835q162 328 227 813h156q-7 -84 -25.5 -184t-48 -215.5t-73.5 -231t-98 -227.5t-125 -208.5t-150 -169.5t-178 -115t-205 -42z" />
    <glyph glyph-name="z" unicode="z" horiz-adv-x="751" 
d="M662 0h-631l8 111l465 686l-402 -11l19 136h590l-11 -115l-467 -680l451 10z" />
    <glyph glyph-name="braceleft" unicode="{" horiz-adv-x="655" 
d="M119 625q156 32 162 139q3 48 -1.5 169t1.5 222q8 127 94.5 196.5t247.5 69.5l-9 -112q-77 0 -135.5 -36t-64.5 -104q-5 -75 0.5 -213t1.5 -194q-4 -69 -49 -120t-105 -67q57 -16 95 -66.5t34 -119.5q-4 -57 -29 -195t-30 -212q-6 -67 48 -103.5t132 -36.5l-8 -112
q-161 0 -237 69.5t-68 196.5q7 101 30.5 223.5t26.5 167.5q6 108 -145 139z" />
    <glyph glyph-name="bar" unicode="|" horiz-adv-x="559" 
d="M150 -451l131 1870h129l-131 -1870h-129z" />
    <glyph glyph-name="braceright" unicode="}" horiz-adv-x="655" 
d="M393 578q-57 16 -95 66.5t-34 119.5q4 57 29.5 195t30.5 212q6 67 -48.5 103.5t-132.5 36.5l9 112q161 0 237 -69.5t68 -196.5q-7 -101 -31 -223t-27 -168q-3 -54 34.5 -89t111.5 -50l-8 -99q-156 -32 -162 -139q-3 -48 1.5 -169t-1.5 -222q-8 -127 -94.5 -196.5
t-247.5 -69.5l8 112q77 0 136 36t65 104q5 75 -0.5 213t-1.5 194q4 69 48.5 120t104.5 67z" />
    <glyph glyph-name="exclamdown" unicode="&#xa1;" horiz-adv-x="626" 
d="M440 825q-3 -36 -55 -83.5t-84 -47.5q-30 0 -76 43.5t-45 77.5q3 36 54 82.5t81 46.5q32 0 79 -43t46 -76zM231 559l140 39q-18 -227 -25.5 -487.5t2.5 -444.5l-213 -63q68 550 96 956z" />
    <glyph glyph-name="cent" unicode="&#xa2;" 
d="M819 303q-101 -92 -213 -137l10 -289h-153l35 262h-23q-126 0 -201 92.5t-75 286.5q0 129 30.5 238t82.5 182t118 116.5t139 53.5l-6 254h154l-39 -256q101 -16 176 -68l-61 -131q-44 27 -66.5 39t-65.5 26.5t-83 14.5q-49 0 -89 -42t-64 -107.5t-37 -137.5t-13 -139
q0 -289 160 -289q42 0 88 21t73.5 41.5t73.5 58.5z" />
    <glyph glyph-name="sterling" unicode="&#xa3;" 
d="M938 154l-41 -154h-825h-2l-43 135q143 38 197 88t61 160q3 37 -13 170h-190l2 27l49 84l92 12h31q-11 118 -6 196q12 181 135 293.5t311 112.5q166 0 260 -51l-61 -154q-152 62 -240 62q-104 0 -160 -52.5t-65 -175.5q-6 -74 6 -231h381l-41 -123h-327q7 -91 4 -145
q-9 -150 -136 -271z" />
    <glyph glyph-name="section" unicode="&#xa7;" horiz-adv-x="995" 
d="M258 651q-5 -68 42 -116t169 -99q119 22 190.5 72t77.5 117q5 68 -42 116t-169 99q-119 -22 -190.5 -72t-77.5 -117zM379 -164q-165 0 -277 49l58 140q1 0 27 -10t37 -13.5t38.5 -13t45.5 -14t42.5 -10.5t45.5 -8.5t40 -2.5q90 0 137 35t52 96q4 56 -34 96.5t-122 75.5
l-94 39q-115 48 -176 89.5t-89.5 96t-23.5 133.5q7 99 83.5 173.5t203.5 115.5q-90 45 -134 104.5t-38 143.5q8 124 120.5 206.5t294.5 82.5q160 0 258 -43l-57 -140q-4 1 -26.5 9.5t-34 12.5t-35 12t-41 12.5t-40 9.5t-42.5 7.5t-39 2.5q-90 0 -136.5 -35t-51.5 -96
q-4 -56 33.5 -96.5t121.5 -75.5l95 -39q170 -71 232.5 -137.5t55.5 -181.5q-7 -99 -83.5 -173.5t-202.5 -115.5q90 -45 134 -104.5t38 -143.5q-8 -124 -121 -206.5t-295 -82.5z" />
    <glyph glyph-name="dieresis" unicode="&#xa8;" horiz-adv-x="876" 
d="M512 1219q1 30 41.5 70t67.5 40q28 0 69.5 -31.5t38.5 -60.5q-1 -30 -42 -70.5t-66 -40.5q-29 0 -70.5 32.5t-38.5 60.5zM145 1219q1 30 41.5 70t67.5 40q28 0 69.5 -31.5t38.5 -60.5q-1 -30 -41.5 -70.5t-66.5 -40.5q-29 0 -70.5 32.5t-38.5 60.5z" />
    <glyph glyph-name="copyright" unicode="&#xa9;" horiz-adv-x="1196" 
d="M74 500q11 159 93 280t204.5 182.5t263.5 61.5q240 0 371 -148.5t116 -375.5q-8 -120 -58 -220t-126.5 -166t-174 -102.5t-202.5 -36.5q-160 0 -275.5 70t-168.5 188.5t-43 266.5zM168 500q-13 -200 100 -319.5t299 -119.5q197 0 323 125t138 314q13 201 -99.5 319.5
t-299.5 118.5q-197 0 -323 -124t-138 -314zM776 319l12 -81q-110 -45 -229 -45q-129 0 -200.5 81t-61.5 224q11 149 104.5 241t245.5 92q101 0 164 -28l-29 -90q-98 30 -178 30q-171 0 -188 -231q-7 -113 46.5 -169t141.5 -56q74 0 172 32z" />
    <glyph glyph-name="ordfeminine" unicode="&#xaa;" horiz-adv-x="520" 
d="M340 702l-6 111q-36 -53 -81 -82t-89 -29q-56 0 -90.5 45t-34.5 138q0 54 15 106.5t45 98t81.5 74t116.5 28.5q94 0 174 -33l-33 -440zM221 784q31 0 69.5 54t55.5 159l8 113q-38 12 -75 12q-35 0 -60.5 -24.5t-37 -63t-16.5 -73t-5 -66.5q0 -111 61 -111z" />
    <glyph glyph-name="guillemotleft" unicode="&#xab;" horiz-adv-x="1079" 
d="M836 66l-344 409l401 410l88 -72l-283 -338l234 -338zM446 66l-344 409l402 410l88 -72l-283 -338l234 -338z" />
    <glyph glyph-name="registered" unicode="&#xae;" horiz-adv-x="1196" 
d="M94 1057q11 159 93 280t204.5 182.5t263.5 61.5q240 0 371.5 -148.5t116.5 -375.5q-8 -120 -58 -220t-126.5 -166t-174 -102.5t-202.5 -36.5q-240 0 -371.5 149t-116.5 376zM188 1057q-13 -200 100.5 -319.5t299.5 -119.5q197 0 323 125t138 314q13 201 -100 319.5
t-300 118.5q-197 0 -323 -124t-138 -314zM610 1094q117 0 125 98q3 55 -27 83t-98 28h-61l-14 -207q25 -2 75 -2zM584 1018q-34 0 -54 2l-18 -254h-115l43 614h207q102 0 156.5 -42.5t48.5 -127.5q-6 -105 -121 -159l139 -285h-127l-110 256q-32 -4 -49 -4z" />
    <glyph glyph-name="macron" unicode="&#xaf;" horiz-adv-x="886" 
d="M717 1260l-2 -31l-43 -94h-502l2 30l43 95h502z" />
    <glyph glyph-name="twosuperior" unicode="&#xb2;" horiz-adv-x="559" 
d="M473 799h-430l6 82q152 118 240 206.5t92 147.5q3 53 -28 80.5t-83 27.5q-79 0 -164 -40l-24 88q104 49 233 49q94 0 149 -50.5t50 -129.5q-6 -78 -83.5 -162.5t-244.5 -208.5l314 10z" />
    <glyph glyph-name="threesuperior" unicode="&#xb3;" horiz-adv-x="555" 
d="M211 784q-85 0 -170 23l31 86q88 -23 164 -23q133 0 139 103q4 54 -34 82t-105 28q-26 0 -58 -4l-12 82q207 0 213 99q3 43 -28 67.5t-79 24.5q-67 0 -151 -35l-23 82q112 41 211 41q81 0 139 -38.5t52 -109.5q-3 -56 -45.5 -96.5t-106.5 -60.5q77 -11 116 -49t36 -99
q-4 -50 -32.5 -90t-71.5 -64t-91 -36.5t-94 -12.5z" />
    <glyph glyph-name="acute" unicode="&#xb4;" horiz-adv-x="686" 
d="M111 1047l284 296l180 -34l-321 -262h-143z" />
    <glyph glyph-name="paragraph" unicode="&#xb6;" horiz-adv-x="1122" 
d="M662 1128l-50 -702h-139q-204 0 -312.5 111.5t-94.5 296.5q12 187 137.5 303t333.5 116h454l-84 -1196q-10 -158 -121 -247t-280 -89q-85 0 -154 25l35 143q119 -40 195 -31t113 51.5t42 117.5l78 1101h-153z" />
    <glyph glyph-name="cedilla" unicode="&#xb8;" horiz-adv-x="591" 
d="M180 -186l101 186h96l-60 -111q38 -18 53 -25t40 -23t34.5 -28.5t17 -32t5.5 -42.5q-5 -74 -88 -134.5t-240 -74.5l-16 88q103 12 155.5 31.5t55.5 60.5q1 29 -34.5 50.5t-115.5 43.5z" />
    <glyph glyph-name="onesuperior" unicode="&#xb9;" horiz-adv-x="432" 
d="M301 799h-119l37 522l-145 -57l-23 96q77 19 217 65h78z" />
    <glyph glyph-name="ordmasculine" unicode="&#xba;" horiz-adv-x="520" 
d="M473 989q0 -52 -15.5 -101.5t-45.5 -91.5t-79.5 -68t-111.5 -26q-80 0 -128 51.5t-48 151.5q0 71 26 134.5t85 108t141 44.5q81 0 128.5 -51t47.5 -152zM256 778q96 0 96 211q0 62 -24 95.5t-66 33.5q-96 0 -96 -213q0 -127 90 -127z" />
    <glyph glyph-name="guillemotright" unicode="&#xbb;" horiz-adv-x="1079" 
d="M633 885l344 -410l-402 -409l-88 71l283 338l-233 338zM244 885l344 -410l-402 -409l-88 71l283 338l-234 338z" />
    <glyph glyph-name="questiondown" unicode="&#xbf;" horiz-adv-x="757" 
d="M543 831q-1 -33 -51 -77.5t-82 -44.5q-27 0 -70.5 41.5t-42.5 74.5q3 33 53.5 77t77.5 44q32 0 75 -41t40 -74zM293 557l149 47q25 -31 39 -52.5t26.5 -55t10.5 -66.5q-4 -58 -36 -97t-122 -112q-94 -73 -130 -124.5t-42 -127.5q-6 -84 52 -140t149 -56q44 0 92 20.5
t137 73.5l52 -131q-184 -96 -351 -96q-148 0 -240 85t-83 220q7 87 64 155.5t165 151.5q72 56 100 84.5t29 58.5q3 22 -16 71t-45 91z" />
    <glyph glyph-name="Agrave" unicode="&#xc0;" horiz-adv-x="1103" 
d="M737 1354h-143l-285 262l185 35zM717 532l-133 541l-222 -541h355zM848 0l-96 391h-449l-160 -391h-174l537 1253h209l315 -1253h-182z" />
    <glyph glyph-name="Aacute" unicode="&#xc1;" horiz-adv-x="1103" 
d="M459 1354l284 297l181 -35l-322 -262h-143zM717 532l-133 541l-222 -541h355zM848 0l-96 391h-449l-160 -391h-174l537 1253h209l315 -1253h-182z" />
    <glyph glyph-name="Acircumflex" unicode="&#xc2;" horiz-adv-x="1103" 
d="M788 1354l-167 157l-189 -157h-137l274 297h123l234 -297h-138zM717 532l-133 541l-222 -541h355zM848 0l-96 391h-449l-160 -391h-174l537 1253h209l315 -1253h-182z" />
    <glyph glyph-name="Atilde" unicode="&#xc3;" horiz-adv-x="1103" 
d="M870 1591l62 -71q-117 -142 -215 -142q-40 0 -131 34t-115 34q-53 0 -139 -72l-56 72q130 137 220 137q46 0 127.5 -30.5t107.5 -30.5q66 0 139 69zM717 532l-133 541l-222 -541h355zM848 0l-96 391h-449l-160 -391h-174l537 1253h209l315 -1253h-182z" />
    <glyph glyph-name="Adieresis" unicode="&#xc4;" horiz-adv-x="1103" 
d="M688 1526q1 30 41.5 70t67.5 40q28 0 69.5 -31.5t38.5 -60.5q-1 -30 -41.5 -70t-66.5 -40q-29 0 -70.5 32t-38.5 60zM322 1526q1 30 41 70t67 40q28 0 70 -31.5t39 -60.5q-1 -30 -42 -70t-67 -40q-29 0 -70 32t-38 60zM717 532l-133 541l-222 -541h355zM848 0l-96 391
h-449l-160 -391h-174l537 1253h209l315 -1253h-182z" />
    <glyph glyph-name="Aring" unicode="&#xc5;" horiz-adv-x="1103" 
d="M817 1542q-4 -74 -66.5 -128t-138.5 -54q-79 0 -131.5 49t-46.5 133q4 75 66.5 129.5t138.5 54.5q80 0 132 -48.5t46 -135.5zM532 1542q-3 -40 22.5 -66t63.5 -26t68 26t33 66q3 43 -23.5 69.5t-64.5 26.5t-67 -26.5t-32 -69.5zM717 532l-133 541l-222 -541h355zM848 0
l-96 391h-449l-160 -391h-174l537 1253h209l315 -1253h-182z" />
    <glyph glyph-name="AE" unicode="&#xc6;" horiz-adv-x="1492" 
d="M731 1116l-334 -584h305l41 584h-12zM666 0l26 391h-377l-223 -391h-174l735 1253h774l-30 -141l-475 6l-27 -397h440l-28 -137l-422 6l-31 -453l528 6l-30 -143h-686z" />
    <glyph glyph-name="Ccedilla" unicode="&#xc7;" horiz-adv-x="1015" 
d="M700 -262q-5 -74 -87.5 -134.5t-239.5 -74.5l-17 88q103 12 155.5 31.5t55.5 60.5q1 29 -34 50.5t-115 43.5l-4 11l88 163q-188 13 -310 152t-122 389q0 118 22 227.5t70.5 207t117.5 169.5t170 114t222 42q78 0 165 -17.5t146 -41.5l-51 -150q-189 66 -318 66
q-58 0 -109.5 -19t-98 -63t-80 -110.5t-53 -167.5t-19.5 -228q0 -107 29.5 -191t78.5 -134t107.5 -75.5t120.5 -25.5q59 0 120.5 11.5t94 22t84.5 29.5l33 -123q-181 -73 -324 -84l-47 -88q37 -17 52.5 -25t40.5 -23.5t34 -28t16.5 -32t5.5 -42.5z" />
    <glyph glyph-name="Egrave" unicode="&#xc8;" horiz-adv-x="944" 
d="M745 1354h-143l-285 262l185 35zM117 0l88 1253h674l-31 -141l-475 6l-27 -397h440l-28 -137l-422 6l-31 -453l529 6l-31 -143h-686z" />
    <glyph glyph-name="Eacute" unicode="&#xc9;" horiz-adv-x="944" 
d="M365 1354l284 297l180 -35l-321 -262h-143zM117 0l88 1253h674l-31 -141l-475 6l-27 -397h440l-28 -137l-422 6l-31 -453l529 6l-31 -143h-686z" />
    <glyph glyph-name="Ecircumflex" unicode="&#xca;" horiz-adv-x="944" 
d="M739 1354l-168 157l-188 -157h-137l274 297h123l234 -297h-138zM117 0l88 1253h674l-31 -141l-475 6l-27 -397h440l-28 -137l-422 6l-31 -453l529 6l-31 -143h-686z" />
    <glyph glyph-name="Edieresis" unicode="&#xcb;" horiz-adv-x="944" 
d="M614 1526q1 30 41.5 70t67.5 40q28 0 69.5 -31.5t38.5 -60.5q-1 -30 -41.5 -70t-66.5 -40q-29 0 -70.5 32t-38.5 60zM248 1526q1 30 41 70t67 40q28 0 70 -31.5t39 -60.5q-1 -30 -42 -70t-67 -40q-29 0 -70 32t-38 60zM117 0l88 1253h674l-31 -141l-475 6l-27 -397h440
l-28 -137l-422 6l-31 -453l529 6l-31 -143h-686z" />
    <glyph glyph-name="Igrave" unicode="&#xcc;" horiz-adv-x="503" 
d="M403 1354h-143l-285 262l185 35zM383 1253l-88 -1253h-178l88 1253h178z" />
    <glyph glyph-name="Iacute" unicode="&#xcd;" horiz-adv-x="503" 
d="M199 1354l284 297l181 -35l-322 -262h-143zM383 1253l-88 -1253h-178l88 1253h178z" />
    <glyph glyph-name="Icircumflex" unicode="&#xce;" horiz-adv-x="503" 
d="M494 1354l-168 157l-189 -157h-137l274 297h123l234 -297h-137zM383 1253l-88 -1253h-178l88 1253h178z" />
    <glyph glyph-name="Idieresis" unicode="&#xcf;" horiz-adv-x="503" 
d="M369 1526q1 30 41 70t67 40q28 0 70 -31.5t39 -60.5q-1 -30 -42 -70t-67 -40q-29 0 -70 32t-38 60zM43 1526q1 30 41.5 70t67.5 40q28 0 69.5 -31.5t38.5 -60.5q-1 -30 -41.5 -70t-66.5 -40q-29 0 -70.5 32t-38.5 60zM383 1253l-88 -1253h-178l88 1253h178z" />
    <glyph glyph-name="Eth" unicode="&#xd0;" horiz-adv-x="1179" 
d="M467 0h-332l41 575h-129v31l37 101h100l39 546h371q245 0 389.5 -143t144.5 -377q0 -172 -53 -313t-144 -231.5t-210 -139.5t-254 -49zM324 141h168q201 0 327.5 140.5t126.5 400.5q0 206 -107 318t-300 112h-148l-29 -405h328v-31l-37 -101h-299z" />
    <glyph glyph-name="Ntilde" unicode="&#xd1;" horiz-adv-x="1232" 
d="M928 1591l61 -71q-117 -142 -215 -142q-40 0 -131 34t-115 34q-53 0 -139 -72l-55 72q130 137 219 137q46 0 127.5 -30.5t107.5 -30.5q67 0 140 69zM877 0l-535 973l-68 -973h-157l86 1253h170l520 -954l65 954h158l-88 -1253h-151z" />
    <glyph glyph-name="Ograve" unicode="&#xd2;" horiz-adv-x="1155" 
d="M831 1354h-143l-285 262l185 35zM1106 729q0 -156 -35 -284.5t-93 -214t-135.5 -144.5t-159 -85t-167.5 -26q-199 0 -322.5 146.5t-123.5 402.5q0 156 35 284.5t92.5 214t135 144.5t159 85t167.5 26q199 0 323 -146.5t124 -402.5zM588 117q68 0 126.5 32.5t106.5 97.5
t75.5 176t27.5 255q0 127 -28.5 219.5t-78 143t-107 73.5t-126.5 23q-67 0 -125 -32.5t-105 -98t-73.5 -176t-26.5 -255.5q0 -102 18.5 -182.5t49 -131.5t74 -84t90.5 -46.5t102 -13.5z" />
    <glyph glyph-name="Oacute" unicode="&#xd3;" horiz-adv-x="1155" 
d="M451 1354l284 297l180 -35l-321 -262h-143zM1106 729q0 -156 -35 -284.5t-93 -214t-135.5 -144.5t-159 -85t-167.5 -26q-199 0 -322.5 146.5t-123.5 402.5q0 156 35 284.5t92.5 214t135 144.5t159 85t167.5 26q199 0 323 -146.5t124 -402.5zM588 117q68 0 126.5 32.5
t106.5 97.5t75.5 176t27.5 255q0 127 -28.5 219.5t-78 143t-107 73.5t-126.5 23q-67 0 -125 -32.5t-105 -98t-73.5 -176t-26.5 -255.5q0 -102 18.5 -182.5t49 -131.5t74 -84t90.5 -46.5t102 -13.5z" />
    <glyph glyph-name="Ocircumflex" unicode="&#xd4;" horiz-adv-x="1155" 
d="M831 1354l-167 157l-189 -157h-137l274 297h123l234 -297h-138zM1106 729q0 -156 -35 -284.5t-93 -214t-135.5 -144.5t-159 -85t-167.5 -26q-199 0 -322.5 146.5t-123.5 402.5q0 156 35 284.5t92.5 214t135 144.5t159 85t167.5 26q199 0 323 -146.5t124 -402.5zM588 117
q68 0 126.5 32.5t106.5 97.5t75.5 176t27.5 255q0 127 -28.5 219.5t-78 143t-107 73.5t-126.5 23q-67 0 -125 -32.5t-105 -98t-73.5 -176t-26.5 -255.5q0 -102 18.5 -182.5t49 -131.5t74 -84t90.5 -46.5t102 -13.5z" />
    <glyph glyph-name="Otilde" unicode="&#xd5;" horiz-adv-x="1155" 
d="M911 1591l62 -71q-117 -142 -215 -142q-40 0 -131 34t-115 34q-53 0 -139 -72l-56 72q130 137 220 137q46 0 127.5 -30.5t107.5 -30.5q66 0 139 69zM1106 729q0 -156 -35 -284.5t-93 -214t-135.5 -144.5t-159 -85t-167.5 -26q-199 0 -322.5 146.5t-123.5 402.5
q0 156 35 284.5t92.5 214t135 144.5t159 85t167.5 26q199 0 323 -146.5t124 -402.5zM588 117q68 0 126.5 32.5t106.5 97.5t75.5 176t27.5 255q0 127 -28.5 219.5t-78 143t-107 73.5t-126.5 23q-67 0 -125 -32.5t-105 -98t-73.5 -176t-26.5 -255.5q0 -102 18.5 -182.5
t49 -131.5t74 -84t90.5 -46.5t102 -13.5z" />
    <glyph glyph-name="Odieresis" unicode="&#xd6;" horiz-adv-x="1155" 
d="M721 1526q1 30 41 70t67 40q28 0 70 -31.5t39 -60.5q-1 -30 -42 -70t-67 -40q-29 0 -70 32t-38 60zM354 1526q1 30 41.5 70t67.5 40q28 0 69.5 -31.5t38.5 -60.5q-1 -30 -41.5 -70t-66.5 -40q-29 0 -70.5 32t-38.5 60zM1106 729q0 -156 -35 -284.5t-93 -214
t-135.5 -144.5t-159 -85t-167.5 -26q-199 0 -322.5 146.5t-123.5 402.5q0 156 35 284.5t92.5 214t135 144.5t159 85t167.5 26q199 0 323 -146.5t124 -402.5zM588 117q68 0 126.5 32.5t106.5 97.5t75.5 176t27.5 255q0 127 -28.5 219.5t-78 143t-107 73.5t-126.5 23
q-67 0 -125 -32.5t-105 -98t-73.5 -176t-26.5 -255.5q0 -102 18.5 -182.5t49 -131.5t74 -84t90.5 -46.5t102 -13.5z" />
    <glyph glyph-name="multiply" unicode="&#xd7;" 
d="M739 203l-237 256l-273 -256l-79 88l272 254l-236 254l95 86l235 -252l270 252l82 -86l-272 -254l235 -254z" />
    <glyph glyph-name="Oslash" unicode="&#xd8;" horiz-adv-x="1175" 
d="M254 575q0 -253 108 -368l365 899q-61 31 -143 31q-67 0 -125 -32.5t-105 -98t-73.5 -176t-26.5 -255.5zM588 117q68 0 126.5 32.5t106.5 97.5t75.5 176t27.5 255q0 233 -101 356l-364 -895q56 -22 129 -22zM516 -25q-62 0 -117 15l-65 -160h-125l84 205
q-105 64 -164 190t-59 299q0 156 35 284.5t92.5 214t135 144.5t159 85t167.5 26q71 0 129 -18l66 159h125l-84 -209q99 -66 155 -189.5t56 -291.5q0 -156 -35 -284.5t-93 -214t-135.5 -144.5t-159 -85t-167.5 -26z" />
    <glyph glyph-name="Ugrave" unicode="&#xd9;" horiz-adv-x="1206" 
d="M819 1354h-143l-285 262l184 35zM203 1253h178q-12 -176 -23.5 -343t-16.5 -235t-9 -132.5t-5 -90.5t-1 -53q0 -141 74 -209.5t204 -68.5q123 0 190.5 72.5t79.5 236.5l56 823h172l-55 -802q-15 -233 -145 -354.5t-357 -121.5q-177 0 -290.5 96t-113.5 273q0 20 0.5 37
t2.5 51t4 67t7.5 107t11 148.5t16 215t20.5 283.5z" />
    <glyph glyph-name="Uacute" unicode="&#xda;" horiz-adv-x="1206" 
d="M397 1354l285 297l180 -35l-321 -262h-144zM203 1253h178q-12 -176 -23.5 -343t-16.5 -235t-9 -132.5t-5 -90.5t-1 -53q0 -141 74 -209.5t204 -68.5q123 0 190.5 72.5t79.5 236.5l56 823h172l-55 -802q-15 -233 -145 -354.5t-357 -121.5q-177 0 -290.5 96t-113.5 273
q0 20 0.5 37t2.5 51t4 67t7.5 107t11 148.5t16 215t20.5 283.5z" />
    <glyph glyph-name="Ucircumflex" unicode="&#xdb;" horiz-adv-x="1206" 
d="M823 1354l-168 157l-188 -157h-137l274 297h123l234 -297h-138zM203 1253h178q-12 -176 -23.5 -343t-16.5 -235t-9 -132.5t-5 -90.5t-1 -53q0 -141 74 -209.5t204 -68.5q123 0 190.5 72.5t79.5 236.5l56 823h172l-55 -802q-15 -233 -145 -354.5t-357 -121.5
q-177 0 -290.5 96t-113.5 273q0 20 0.5 37t2.5 51t4 67t7.5 107t11 148.5t16 215t20.5 283.5z" />
    <glyph glyph-name="Udieresis" unicode="&#xdc;" horiz-adv-x="1206" 
d="M709 1526q1 30 41 70t67 40q28 0 70 -31.5t39 -60.5q-1 -30 -42 -70t-67 -40q-29 0 -70 32t-38 60zM342 1526q1 30 41.5 70t67.5 40q28 0 69.5 -31.5t38.5 -60.5q-1 -30 -41.5 -70t-66.5 -40q-29 0 -70.5 32t-38.5 60zM203 1253h178q-12 -176 -23.5 -343t-16.5 -235
t-9 -132.5t-5 -90.5t-1 -53q0 -141 74 -209.5t204 -68.5q123 0 190.5 72.5t79.5 236.5l56 823h172l-55 -802q-15 -233 -145 -354.5t-357 -121.5q-177 0 -290.5 96t-113.5 273q0 20 0.5 37t2.5 51t4 67t7.5 107t11 148.5t16 215t20.5 283.5z" />
    <glyph glyph-name="Yacute" unicode="&#xdd;" horiz-adv-x="1032" 
d="M438 1354l285 297l180 -35l-321 -262h-144zM582 0h-179l35 500l-364 753h194l285 -585l346 585h180l-463 -749z" />
    <glyph glyph-name="Thorn" unicode="&#xde;" horiz-adv-x="962" 
d="M477 905h-119l-36 -514h149q125 0 208 67t83 191q0 129 -73.5 192.5t-211.5 63.5zM414 260h-101l-18 -260h-178l88 1253h178l-16 -221h157q204 0 311 -87t107 -245q0 -195 -146 -317.5t-382 -122.5z" />
    <glyph glyph-name="germandbls" unicode="&#xdf;" horiz-adv-x="956" 
d="M575 -25q-80 0 -186 29l33 146q62 -25 108.5 -36.5t108.5 -11.5q46 0 80.5 29t34.5 76q0 52 -33 99.5t-143 131.5q-67 52 -98 105t-31 121q0 57 29 111.5t70 97.5t82 85t70 91t29 98q0 75 -53.5 126.5t-147.5 51.5q-85 0 -134.5 -68t-55.5 -202l-53 -1051
q-9 -209 -120.5 -342t-277.5 -133q-42 0 -82 14l33 138q57 -17 105 -17q71 0 116.5 57t51.5 175l53 1085q6 119 45 211.5t100 147.5t134 82.5t153 27.5q122 0 206.5 -75t84.5 -189q0 -50 -30 -102t-72.5 -95.5t-84.5 -85t-72 -85t-30 -81.5q0 -58 24.5 -98t106.5 -102
q98 -76 139 -138.5t43 -130.5q0 -122 -97 -207.5t-239 -85.5z" />
    <glyph glyph-name="agrave" unicode="&#xe0;" horiz-adv-x="901" 
d="M729 1047h-143l-285 262l184 34zM594 -25l-8 242q-59 -112 -143 -177t-156 -65q-100 0 -158.5 87t-58.5 274q0 162 56 300.5t161.5 224t238.5 85.5q73 0 146.5 -17t122.5 -46l-62 -883zM362 113q24 0 51 13.5t57.5 46.5t57 81.5t48.5 126.5t32 174l17 231q-72 35 -148 35
q-102 0 -167.5 -120.5t-65.5 -346.5q0 -116 31 -178.5t87 -62.5z" />
    <glyph glyph-name="aacute" unicode="&#xe1;" horiz-adv-x="901" 
d="M401 1047l285 296l180 -34l-321 -262h-144zM594 -25l-8 242q-59 -112 -143 -177t-156 -65q-100 0 -158.5 87t-58.5 274q0 162 56 300.5t161.5 224t238.5 85.5q73 0 146.5 -17t122.5 -46l-62 -883zM362 113q24 0 51 13.5t57.5 46.5t57 81.5t48.5 126.5t32 174l17 231
q-72 35 -148 35q-102 0 -167.5 -120.5t-65.5 -346.5q0 -116 31 -178.5t87 -62.5z" />
    <glyph glyph-name="acircumflex" unicode="&#xe2;" horiz-adv-x="901" 
d="M713 1047l-168 157l-189 -157h-137l275 296h122l234 -296h-137zM594 -25l-8 242q-59 -112 -143 -177t-156 -65q-100 0 -158.5 87t-58.5 274q0 162 56 300.5t161.5 224t238.5 85.5q73 0 146.5 -17t122.5 -46l-62 -883zM362 113q24 0 51 13.5t57.5 46.5t57 81.5t48.5 126.5
t32 174l17 231q-72 35 -148 35q-102 0 -167.5 -120.5t-65.5 -346.5q0 -116 31 -178.5t87 -62.5z" />
    <glyph glyph-name="atilde" unicode="&#xe3;" horiz-adv-x="901" 
d="M811 1284l61 -72q-116 -141 -215 -141q-40 0 -130.5 34t-114.5 34q-54 0 -140 -72l-55 72q130 137 219 137q46 0 128 -31t108 -31q65 0 139 70zM594 -25l-8 242q-59 -112 -143 -177t-156 -65q-100 0 -158.5 87t-58.5 274q0 162 56 300.5t161.5 224t238.5 85.5
q73 0 146.5 -17t122.5 -46l-62 -883zM362 113q24 0 51 13.5t57.5 46.5t57 81.5t48.5 126.5t32 174l17 231q-72 35 -148 35q-102 0 -167.5 -120.5t-65.5 -346.5q0 -116 31 -178.5t87 -62.5z" />
    <glyph glyph-name="adieresis" unicode="&#xe4;" horiz-adv-x="901" 
d="M600 1219q1 30 41.5 70t67.5 40q28 0 69.5 -31.5t38.5 -60.5q-1 -30 -42 -70.5t-66 -40.5q-29 0 -70.5 32.5t-38.5 60.5zM233 1219q1 30 41.5 70t67.5 40q28 0 70 -31.5t39 -60.5q-1 -30 -42 -70.5t-67 -40.5q-29 0 -70.5 32.5t-38.5 60.5zM594 -25l-8 242
q-59 -112 -143 -177t-156 -65q-100 0 -158.5 87t-58.5 274q0 162 56 300.5t161.5 224t238.5 85.5q73 0 146.5 -17t122.5 -46l-62 -883zM362 113q24 0 51 13.5t57.5 46.5t57 81.5t48.5 126.5t32 174l17 231q-72 35 -148 35q-102 0 -167.5 -120.5t-65.5 -346.5
q0 -116 31 -178.5t87 -62.5z" />
    <glyph glyph-name="aring" unicode="&#xe5;" horiz-adv-x="901" 
d="M717 1235q-4 -74 -66.5 -128t-138.5 -54q-79 0 -131.5 49t-46.5 133q4 75 66.5 129.5t138.5 54.5q80 0 132 -48.5t46 -135.5zM432 1235q-3 -40 22.5 -66t63.5 -26t67.5 26t32.5 66q3 43 -23.5 69.5t-64.5 26.5t-66.5 -26.5t-31.5 -69.5zM594 -25l-8 242
q-59 -112 -143 -177t-156 -65q-100 0 -158.5 87t-58.5 274q0 162 56 300.5t161.5 224t238.5 85.5q73 0 146.5 -17t122.5 -46l-62 -883zM362 113q24 0 51 13.5t57.5 46.5t57 81.5t48.5 126.5t32 174l17 231q-72 35 -148 35q-102 0 -167.5 -120.5t-65.5 -346.5
q0 -116 31 -178.5t87 -62.5z" />
    <glyph glyph-name="ae" unicode="&#xe6;" horiz-adv-x="1275" 
d="M887 -25q-110 0 -183 65t-96 191q-74 -127 -163 -191.5t-169 -64.5q-89 0 -147.5 84t-58.5 256q0 178 56 321t162.5 226.5t243.5 83.5q135 0 273 -74q92 74 203 74q104 0 164.5 -61.5t60.5 -147.5q0 -94 -68.5 -168t-171 -112t-219.5 -43v-39q0 -137 43 -201.5t109 -64.5
q102 0 243 120l50 -90q-69 -68 -158 -116t-174 -48zM969 829q-71 0 -121.5 -83t-67.5 -236q133 9 212 66t79 141q0 50 -27.5 81t-74.5 31zM360 113q53 0 121 71.5t119 198.5q9 222 102 373q-106 69 -217 69q-109 0 -175 -126.5t-66 -364.5q0 -103 32.5 -162t83.5 -59z" />
    <glyph glyph-name="ccedilla" unicode="&#xe7;" horiz-adv-x="763" 
d="M537 -262q-5 -74 -88 -134.5t-240 -74.5l-16 88q103 12 155 31.5t55 60.5q1 29 -34 50.5t-115 43.5l-4 11l88 161q-123 3 -194.5 95.5t-71.5 283.5q0 138 34.5 252.5t92.5 187.5t130.5 112.5t151.5 39.5q145 0 246 -72l-61 -131q-44 27 -66.5 39t-65.5 26.5t-83 14.5
q-49 0 -89 -42t-64 -107.5t-37 -137.5t-13 -139q0 -288 160 -288q42 0 88 20.5t74 41t73 58.5l49 -90q-122 -113 -252 -149l-53 -101q38 -18 53 -25t40 -23t34.5 -28.5t17 -32t5.5 -42.5z" />
    <glyph glyph-name="egrave" unicode="&#xe8;" horiz-adv-x="757" 
d="M655 1047h-143l-285 262l185 34zM360 -25q-134 0 -210 94t-76 273q0 140 34 256.5t91 191.5t130 115.5t152 40.5q104 0 165 -61.5t61 -147.5q0 -94 -68.5 -168t-171 -112t-219.5 -43v-39q0 -137 42.5 -201.5t108.5 -64.5q103 0 244 120l49 -90q-69 -68 -158 -116
t-174 -48zM442 829q-71 0 -121 -82.5t-67 -236.5q133 9 212 66t79 141q0 50 -28 81t-75 31z" />
    <glyph glyph-name="eacute" unicode="&#xe9;" horiz-adv-x="757" 
d="M328 1047l284 296l181 -34l-322 -262h-143zM360 -25q-134 0 -210 94t-76 273q0 140 34 256.5t91 191.5t130 115.5t152 40.5q104 0 165 -61.5t61 -147.5q0 -94 -68.5 -168t-171 -112t-219.5 -43v-39q0 -137 42.5 -201.5t108.5 -64.5q103 0 244 120l49 -90
q-69 -68 -158 -116t-174 -48zM442 829q-71 0 -121 -82.5t-67 -236.5q133 9 212 66t79 141q0 50 -28 81t-75 31z" />
    <glyph glyph-name="ecircumflex" unicode="&#xea;" horiz-adv-x="757" 
d="M639 1047l-168 157l-188 -157h-138l275 296h123l233 -296h-137zM360 -25q-134 0 -210 94t-76 273q0 140 34 256.5t91 191.5t130 115.5t152 40.5q104 0 165 -61.5t61 -147.5q0 -94 -68.5 -168t-171 -112t-219.5 -43v-39q0 -137 42.5 -201.5t108.5 -64.5q103 0 244 120
l49 -90q-69 -68 -158 -116t-174 -48zM442 829q-71 0 -121 -82.5t-67 -236.5q133 9 212 66t79 141q0 50 -28 81t-75 31z" />
    <glyph glyph-name="edieresis" unicode="&#xeb;" horiz-adv-x="757" 
d="M547 1219q1 30 41 70t67 40q28 0 70 -31.5t39 -60.5q-1 -30 -42 -70.5t-67 -40.5q-29 0 -70 32.5t-38 60.5zM180 1219q1 30 41.5 70t67.5 40q28 0 69.5 -31.5t38.5 -60.5q-1 -30 -42 -70.5t-66 -40.5q-29 0 -70.5 32.5t-38.5 60.5zM360 -25q-134 0 -210 94t-76 273
q0 140 34 256.5t91 191.5t130 115.5t152 40.5q104 0 165 -61.5t61 -147.5q0 -94 -68.5 -168t-171 -112t-219.5 -43v-39q0 -137 42.5 -201.5t108.5 -64.5q103 0 244 120l49 -90q-69 -68 -158 -116t-174 -48zM442 829q-71 0 -121 -82.5t-67 -236.5q133 9 212 66t79 141
q0 50 -28 81t-75 31z" />
    <glyph glyph-name="igrave" unicode="&#xec;" horiz-adv-x="440" 
d="M358 1049h-143l-285 262l185 35zM340 946l-68 -946h-166l66 918z" />
    <glyph glyph-name="iacute" unicode="&#xed;" horiz-adv-x="440" 
d="M174 1049l285 297l180 -35l-322 -262h-143zM340 946l-68 -946h-166l66 918z" />
    <glyph glyph-name="icircumflex" unicode="&#xee;" horiz-adv-x="440" 
d="M444 1049l-168 157l-188 -157h-137l274 297h123l234 -297h-138zM340 946l-68 -946h-166l66 918z" />
    <glyph glyph-name="idieresis" unicode="&#xef;" horiz-adv-x="440" 
d="M332 1219q1 30 41 70t67 40q28 0 70 -31.5t39 -60.5q-1 -30 -42 -70.5t-67 -40.5q-29 0 -70 32.5t-38 60.5zM6 1219q1 30 41.5 70t67.5 40q28 0 69.5 -31.5t38.5 -60.5q-1 -30 -42 -70.5t-66 -40.5q-29 0 -70.5 32.5t-38.5 60.5zM340 946l-68 -946h-166l66 918z" />
    <glyph glyph-name="eth" unicode="&#xf0;" horiz-adv-x="858" 
d="M330 -25q-113 0 -185.5 96t-72.5 279q0 129 38.5 243t100 190t137 119.5t150.5 43.5q54 0 110 -16q-37 151 -129 254l-200 -107l-68 76l195 102q-64 55 -164 111l84 78q116 -58 198 -125l193 102l67 -75l-182 -97q105 -110 151 -248.5t46 -318.5q0 -130 -30.5 -246
t-80 -198.5t-111.5 -143t-125.5 -90t-121.5 -29.5zM387 113q35 0 77 36.5t80.5 101t64.5 171t26 229.5q0 95 -4 140q-87 26 -162 26q-97 0 -159 -104.5t-62 -325.5q0 -274 139 -274z" />
    <glyph glyph-name="ntilde" unicode="&#xf1;" horiz-adv-x="931" 
d="M793 1284l61 -72q-116 -141 -215 -141q-40 0 -131 34t-115 34q-53 0 -139 -72l-55 72q130 137 219 137q46 0 127.5 -31t107.5 -31q66 0 140 70zM553 803q-28 0 -63 -23.5t-72.5 -70t-69 -130t-45.5 -188.5l-29 -391h-168l64 918l141 28l11 -266q72 131 154.5 198.5
t162.5 67.5q186 0 186 -241q0 -72 -14 -218t-32.5 -307t-20.5 -180h-168q2 30 18 171t28.5 274t12.5 186q0 94 -22 133t-74 39z" />
    <glyph glyph-name="ograve" unicode="&#xf2;" horiz-adv-x="897" 
d="M696 1047h-143l-285 262l185 34zM823 551q0 -82 -16.5 -162t-51.5 -155.5t-85.5 -132.5t-124.5 -91.5t-162 -34.5q-138 0 -223.5 102.5t-85.5 293.5q0 82 16.5 162t51.5 155t85.5 132t124.5 91.5t162 34.5q139 0 224 -102.5t85 -292.5zM436 90q50 0 89.5 32t62 80t37 112
t19.5 119.5t5 111.5q0 134 -46.5 210t-141.5 76q-50 0 -89.5 -32.5t-62 -81t-37 -113t-19.5 -119.5t-5 -108q0 -140 47.5 -213.5t140.5 -73.5z" />
    <glyph glyph-name="oacute" unicode="&#xf3;" horiz-adv-x="897" 
d="M389 1047l285 296l180 -34l-322 -262h-143zM823 551q0 -82 -16.5 -162t-51.5 -155.5t-85.5 -132.5t-124.5 -91.5t-162 -34.5q-138 0 -223.5 102.5t-85.5 293.5q0 82 16.5 162t51.5 155t85.5 132t124.5 91.5t162 34.5q139 0 224 -102.5t85 -292.5zM436 90q50 0 89.5 32
t62 80t37 112t19.5 119.5t5 111.5q0 134 -46.5 210t-141.5 76q-50 0 -89.5 -32.5t-62 -81t-37 -113t-19.5 -119.5t-5 -108q0 -140 47.5 -213.5t140.5 -73.5z" />
    <glyph glyph-name="ocircumflex" unicode="&#xf4;" horiz-adv-x="897" 
d="M700 1047l-168 157l-188 -157h-137l274 296h123l234 -296h-138zM823 551q0 -82 -16.5 -162t-51.5 -155.5t-85.5 -132.5t-124.5 -91.5t-162 -34.5q-138 0 -223.5 102.5t-85.5 293.5q0 82 16.5 162t51.5 155t85.5 132t124.5 91.5t162 34.5q139 0 224 -102.5t85 -292.5z
M436 90q50 0 89.5 32t62 80t37 112t19.5 119.5t5 111.5q0 134 -46.5 210t-141.5 76q-50 0 -89.5 -32.5t-62 -81t-37 -113t-19.5 -119.5t-5 -108q0 -140 47.5 -213.5t140.5 -73.5z" />
    <glyph glyph-name="otilde" unicode="&#xf5;" horiz-adv-x="897" 
d="M799 1284l61 -72q-116 -141 -215 -141q-40 0 -131 34t-115 34q-53 0 -139 -72l-55 72q130 137 219 137q46 0 127.5 -31t107.5 -31q66 0 140 70zM823 551q0 -82 -16.5 -162t-51.5 -155.5t-85.5 -132.5t-124.5 -91.5t-162 -34.5q-138 0 -223.5 102.5t-85.5 293.5
q0 82 16.5 162t51.5 155t85.5 132t124.5 91.5t162 34.5q139 0 224 -102.5t85 -292.5zM436 90q50 0 89.5 32t62 80t37 112t19.5 119.5t5 111.5q0 134 -46.5 210t-141.5 76q-50 0 -89.5 -32.5t-62 -81t-37 -113t-19.5 -119.5t-5 -108q0 -140 47.5 -213.5t140.5 -73.5z" />
    <glyph glyph-name="odieresis" unicode="&#xf6;" horiz-adv-x="897" 
d="M588 1219q1 30 41 70t67 40q28 0 70 -31.5t39 -60.5q-1 -30 -42 -70.5t-67 -40.5q-29 0 -70 32.5t-38 60.5zM221 1219q1 30 41.5 70t67.5 40q28 0 69.5 -31.5t38.5 -60.5q-1 -30 -41.5 -70.5t-66.5 -40.5q-29 0 -70.5 32.5t-38.5 60.5zM823 551q0 -82 -16.5 -162
t-51.5 -155.5t-85.5 -132.5t-124.5 -91.5t-162 -34.5q-138 0 -223.5 102.5t-85.5 293.5q0 82 16.5 162t51.5 155t85.5 132t124.5 91.5t162 34.5q139 0 224 -102.5t85 -292.5zM436 90q50 0 89.5 32t62 80t37 112t19.5 119.5t5 111.5q0 134 -46.5 210t-141.5 76
q-50 0 -89.5 -32.5t-62 -81t-37 -113t-19.5 -119.5t-5 -108q0 -140 47.5 -213.5t140.5 -73.5z" />
    <glyph glyph-name="divide" unicode="&#xf7;" 
d="M410 858q3 38 48 82.5t79 44.5q39 0 83.5 -35.5t41.5 -72.5q-1 -37 -48 -81t-82 -44q-37 0 -81 35t-41 71zM950 604l-8 -125h-872l8 125h872zM365 207q1 38 47 82.5t80 44.5q35 0 81 -36.5t43 -72.5q-3 -38 -49 -81.5t-80 -43.5q-35 0 -80 35.5t-42 71.5z" />
    <glyph glyph-name="oslash" unicode="&#xf8;" horiz-adv-x="897" 
d="M240 377q0 -132 45 -205l252 643q-37 16 -76 16q-62 0 -108 -47.5t-69 -122t-33.5 -146t-10.5 -138.5zM436 90q62 0 108 46.5t69 120t33.5 146t10.5 142.5q0 125 -43 198l-249 -639q28 -14 71 -14zM383 -25q-28 0 -68 7l-49 -127h-104l63 163q-71 44 -111 134t-40 219
q0 82 16.5 162t51.5 155t85.5 132t124.5 91.5t162 34.5q41 0 72 -8l51 133h104l-65 -170q70 -46 108.5 -134.5t38.5 -215.5q0 -82 -16.5 -162t-51.5 -155.5t-85.5 -132.5t-124.5 -91.5t-162 -34.5z" />
    <glyph glyph-name="ugrave" unicode="&#xf9;" horiz-adv-x="927" 
d="M680 1047h-143l-285 262l184 34zM618 -25l-10 271q-72 -133 -154 -202t-163 -69q-185 0 -185 242q0 72 14 218t33 304t21 179l170 26q-2 -30 -18.5 -176.5t-29.5 -285t-13 -191.5q0 -94 21 -133t73 -39q22 0 49.5 14.5t59 48.5t59.5 82.5t50.5 124.5t31.5 166l26 363
l168 28l-63 -946z" />
    <glyph glyph-name="uacute" unicode="&#xfa;" horiz-adv-x="927" 
d="M373 1047l284 296l181 -34l-322 -262h-143zM618 -25l-10 271q-72 -133 -154 -202t-163 -69q-185 0 -185 242q0 72 14 218t33 304t21 179l170 26q-2 -30 -18.5 -176.5t-29.5 -285t-13 -191.5q0 -94 21 -133t73 -39q22 0 49.5 14.5t59 48.5t59.5 82.5t50.5 124.5t31.5 166
l26 363l168 28l-63 -946z" />
    <glyph glyph-name="ucircumflex" unicode="&#xfb;" horiz-adv-x="927" 
d="M690 1047l-168 157l-188 -157h-137l274 296h123l233 -296h-137zM618 -25l-10 271q-72 -133 -154 -202t-163 -69q-185 0 -185 242q0 72 14 218t33 304t21 179l170 26q-2 -30 -18.5 -176.5t-29.5 -285t-13 -191.5q0 -94 21 -133t73 -39q22 0 49.5 14.5t59 48.5t59.5 82.5
t50.5 124.5t31.5 166l26 363l168 28l-63 -946z" />
    <glyph glyph-name="udieresis" unicode="&#xfc;" horiz-adv-x="927" 
d="M594 1219q1 30 41 70t67 40q28 0 70 -31.5t39 -60.5q-1 -30 -42 -70.5t-67 -40.5q-29 0 -70 32.5t-38 60.5zM227 1219q1 30 41.5 70t67.5 40q28 0 69.5 -31.5t38.5 -60.5q-1 -30 -41.5 -70.5t-66.5 -40.5q-29 0 -70.5 32.5t-38.5 60.5zM618 -25l-10 271
q-72 -133 -154 -202t-163 -69q-185 0 -185 242q0 72 14 218t33 304t21 179l170 26q-2 -30 -18.5 -176.5t-29.5 -285t-13 -191.5q0 -94 21 -133t73 -39q22 0 49.5 14.5t59 48.5t59.5 82.5t50.5 124.5t31.5 166l26 363l168 28l-63 -946z" />
    <glyph glyph-name="yacute" unicode="&#xfd;" horiz-adv-x="841" 
d="M373 1047l284 296l181 -34l-322 -262h-143zM-106 -471q-48 0 -109 12l20 154q59 -12 127 -12q225 0 408 292h-74l-135 936l166 33l117 -835q162 328 227 813h156q-7 -84 -25.5 -184t-48 -215.5t-73.5 -231t-98 -227.5t-125 -208.5t-150 -169.5t-178 -115t-205 -42z" />
    <glyph glyph-name="thorn" unicode="&#xfe;" horiz-adv-x="925" 
d="M467 102q92 0 151.5 115.5t59.5 333.5q0 135 -33 196.5t-88 61.5q-32 0 -72.5 -33t-81 -94t-72 -165.5t-40.5 -229.5v4l-10 -152q105 -37 186 -37zM240 -442l-168 -29l129 1862l168 28l-52 -741q65 120 145 194t165 74q227 0 227 -375q0 -125 -38 -238.5t-98 -190.5
t-135 -122t-149 -45q-76 0 -164 25z" />
    <glyph glyph-name="ydieresis" unicode="&#xff;" horiz-adv-x="841" 
d="M569 1219q1 30 41.5 70t67.5 40q28 0 69.5 -31.5t38.5 -60.5q-1 -30 -41.5 -70.5t-66.5 -40.5q-29 0 -70.5 32.5t-38.5 60.5zM203 1219q1 30 41 70t67 40q28 0 70 -31.5t39 -60.5q-1 -30 -42 -70.5t-67 -40.5q-29 0 -70 32.5t-38 60.5zM-106 -471q-48 0 -109 12l20 154
q59 -12 127 -12q225 0 408 292h-74l-135 936l166 33l117 -835q162 328 227 813h156q-7 -84 -25.5 -184t-48 -215.5t-73.5 -231t-98 -227.5t-125 -208.5t-150 -169.5t-178 -115t-205 -42z" />
    <glyph glyph-name="Amacron" unicode="&#x100;" horiz-adv-x="1103" 
d="M889 1567l-2 -31l-43 -94h-502l2 31l43 94h502zM717 532l-133 541l-222 -541h355zM848 0l-96 391h-449l-160 -391h-174l537 1253h209l315 -1253h-182z" />
    <glyph glyph-name="amacron" unicode="&#x101;" horiz-adv-x="901" 
d="M809 1260l-2 -31l-43 -94h-502l2 30l43 95h502zM594 -25l-8 242q-59 -112 -143 -177t-156 -65q-100 0 -158.5 87t-58.5 274q0 162 56 300.5t161.5 224t238.5 85.5q73 0 146.5 -17t122.5 -46l-62 -883zM362 113q24 0 51 13.5t57.5 46.5t57 81.5t48.5 126.5t32 174l17 231
q-72 35 -148 35q-102 0 -167.5 -120.5t-65.5 -346.5q0 -116 31 -178.5t87 -62.5z" />
    <glyph glyph-name="Abreve" unicode="&#x102;" horiz-adv-x="1103" 
d="M621 1491q80 0 130 49.5t72 132.5h103q-7 -129 -104 -223t-220 -94q-132 0 -200 90.5t-60 226.5h102q25 -182 177 -182zM717 532l-133 541l-222 -541h355zM848 0l-96 391h-449l-160 -391h-174l537 1253h209l315 -1253h-182z" />
    <glyph glyph-name="abreve" unicode="&#x103;" horiz-adv-x="901" 
d="M532 1184q80 0 130.5 49.5t72.5 132.5h103q-7 -129 -104 -223t-220 -94q-132 0 -200 90.5t-60 226.5h102q25 -182 176 -182zM594 -25l-8 242q-59 -112 -143 -177t-156 -65q-100 0 -158.5 87t-58.5 274q0 162 56 300.5t161.5 224t238.5 85.5q73 0 146.5 -17t122.5 -46
l-62 -883zM362 113q24 0 51 13.5t57.5 46.5t57 81.5t48.5 126.5t32 174l17 231q-72 35 -148 35q-102 0 -167.5 -120.5t-65.5 -346.5q0 -116 31 -178.5t87 -62.5z" />
    <glyph glyph-name="Aogonek" unicode="&#x104;" horiz-adv-x="1103" 
d="M717 532l-133 541l-222 -541h355zM893 0h-45l-96 391h-449l-160 -391h-174l537 1253h209l315 -1253h-20q-90 -63 -148 -132.5t-61 -125.5q-3 -39 21.5 -61.5t60.5 -22.5q32 0 86 27l22 -84q-84 -43 -155 -43q-82 0 -123.5 44.5t-36.5 121.5q4 53 40.5 109t81 95.5
t95.5 71.5z" />
    <glyph glyph-name="aogonek" unicode="&#x105;" horiz-adv-x="901" 
d="M557 -442q-82 0 -123.5 44.5t-36.5 121.5q5 71 62.5 140t134.5 122l-8 231q-59 -112 -143 -177t-156 -65q-100 0 -158.5 87t-58.5 274q0 162 56 300.5t161.5 224t238.5 85.5q73 0 146.5 -17t122.5 -46l-62 -883h-2q-90 -63 -148 -132.5t-61 -125.5q-3 -39 21.5 -61.5
t60.5 -22.5q32 0 86 27l23 -84q-84 -43 -156 -43zM362 113q24 0 51 13.5t57.5 46.5t57 81.5t48.5 126.5t32 174l17 231q-72 35 -148 35q-102 0 -167.5 -120.5t-65.5 -346.5q0 -116 31 -178.5t87 -62.5z" />
    <glyph glyph-name="Cacute" unicode="&#x106;" horiz-adv-x="1015" 
d="M461 1354l284 297l181 -35l-322 -262h-143zM889 184l33 -123q-218 -86 -381 -86q-96 0 -180 33.5t-149.5 99t-103.5 171t-38 239.5q0 118 22 227.5t70.5 207t117.5 169.5t170 114t222 42q78 0 165 -17.5t146 -41.5l-51 -150q-189 66 -318 66q-58 0 -109.5 -19t-98 -63
t-80 -110.5t-53 -167.5t-19.5 -228q0 -107 29.5 -191t78.5 -134t107.5 -75.5t120.5 -25.5q59 0 120.5 11.5t94 22t84.5 29.5z" />
    <glyph glyph-name="cacute" unicode="&#x107;" horiz-adv-x="763" 
d="M377 1047l285 296l180 -34l-322 -262h-143zM643 229l49 -90q-182 -164 -344 -164q-126 0 -201 92.5t-75 286.5q0 138 34.5 252.5t92.5 187.5t130.5 112.5t151.5 39.5q145 0 246 -72l-61 -131q-44 27 -66.5 39t-65.5 26.5t-83 14.5q-49 0 -89 -42t-64 -107.5t-37 -137.5
t-13 -139q0 -288 160 -288q42 0 88 20.5t74 41t73 58.5z" />
    <glyph glyph-name="Ccircumflex" unicode="&#x108;" horiz-adv-x="1015" 
d="M858 1354l-168 157l-188 -157h-137l274 297h123l233 -297h-137zM889 184l33 -123q-218 -86 -381 -86q-96 0 -180 33.5t-149.5 99t-103.5 171t-38 239.5q0 118 22 227.5t70.5 207t117.5 169.5t170 114t222 42q78 0 165 -17.5t146 -41.5l-51 -150q-189 66 -318 66
q-58 0 -109.5 -19t-98 -63t-80 -110.5t-53 -167.5t-19.5 -228q0 -107 29.5 -191t78.5 -134t107.5 -75.5t120.5 -25.5q59 0 120.5 11.5t94 22t84.5 29.5z" />
    <glyph glyph-name="ccircumflex" unicode="&#x109;" horiz-adv-x="763" 
d="M678 1047l-168 157l-188 -157h-138l275 296h123l233 -296h-137zM643 229l49 -90q-182 -164 -344 -164q-126 0 -201 92.5t-75 286.5q0 138 34.5 252.5t92.5 187.5t130.5 112.5t151.5 39.5q145 0 246 -72l-61 -131q-44 27 -66.5 39t-65.5 26.5t-83 14.5q-49 0 -89 -42
t-64 -107.5t-37 -137.5t-13 -139q0 -288 160 -288q42 0 88 20.5t74 41t73 58.5z" />
    <glyph glyph-name="Cdotaccent" unicode="&#x10a;" horiz-adv-x="1015" 
d="M557 1516q1 33 47 77.5t76 44.5q31 0 76.5 -35.5t42.5 -68.5q-1 -33 -47.5 -77t-75.5 -44q-32 0 -77 35.5t-42 67.5zM889 184l33 -123q-218 -86 -381 -86q-96 0 -180 33.5t-149.5 99t-103.5 171t-38 239.5q0 118 22 227.5t70.5 207t117.5 169.5t170 114t222 42
q78 0 165 -17.5t146 -41.5l-51 -150q-189 66 -318 66q-58 0 -109.5 -19t-98 -63t-80 -110.5t-53 -167.5t-19.5 -228q0 -107 29.5 -191t78.5 -134t107.5 -75.5t120.5 -25.5q59 0 120.5 11.5t94 22t84.5 29.5z" />
    <glyph glyph-name="cdotaccent" unicode="&#x10b;" horiz-adv-x="763" 
d="M367 1208q1 33 46.5 78t75.5 45q31 0 76.5 -35.5t42.5 -68.5q-1 -33 -47.5 -77t-75.5 -44q-32 0 -76.5 35t-41.5 67zM643 229l49 -90q-182 -164 -344 -164q-126 0 -201 92.5t-75 286.5q0 138 34.5 252.5t92.5 187.5t130.5 112.5t151.5 39.5q145 0 246 -72l-61 -131
q-44 27 -66.5 39t-65.5 26.5t-83 14.5q-49 0 -89 -42t-64 -107.5t-37 -137.5t-13 -139q0 -288 160 -288q42 0 88 20.5t74 41t73 58.5z" />
    <glyph glyph-name="Ccaron" unicode="&#x10c;" horiz-adv-x="1015" 
d="M707 1362h-123l-234 297h137l168 -158l189 158h137zM889 184l33 -123q-218 -86 -381 -86q-96 0 -180 33.5t-149.5 99t-103.5 171t-38 239.5q0 118 22 227.5t70.5 207t117.5 169.5t170 114t222 42q78 0 165 -17.5t146 -41.5l-51 -150q-189 66 -318 66q-58 0 -109.5 -19
t-98 -63t-80 -110.5t-53 -167.5t-19.5 -228q0 -107 29.5 -191t78.5 -134t107.5 -75.5t120.5 -25.5q59 0 120.5 11.5t94 22t84.5 29.5z" />
    <glyph glyph-name="ccaron" unicode="&#x10d;" horiz-adv-x="763" 
d="M549 1055h-123l-233 297h137l168 -158l188 158h137zM643 229l49 -90q-182 -164 -344 -164q-126 0 -201 92.5t-75 286.5q0 138 34.5 252.5t92.5 187.5t130.5 112.5t151.5 39.5q145 0 246 -72l-61 -131q-44 27 -66.5 39t-65.5 26.5t-83 14.5q-49 0 -89 -42t-64 -107.5
t-37 -137.5t-13 -139q0 -288 160 -288q42 0 88 20.5t74 41t73 58.5z" />
    <glyph glyph-name="Dcaron" unicode="&#x10e;" horiz-adv-x="1161" 
d="M633 1362h-123l-234 297h138l168 -158l188 158h137zM205 1253h370q245 0 390 -143t145 -377q0 -172 -53 -313t-144 -231.5t-210 -139.5t-254 -49h-332zM373 1112l-68 -971h168q98 0 180.5 34.5t144 101t96 170.5t34.5 235q0 206 -107.5 318t-300.5 112h-147z" />
    <glyph glyph-name="dcaron" unicode="&#x10f;" horiz-adv-x="1089" 
d="M983 1354q4 24 40 44.5t69 20.5q31 0 52.5 -52t18.5 -107q-4 -58 -42.5 -128t-127.5 -184l-69 45q48 76 70.5 122.5t25.5 84.5q2 40 -18 93t-19 61zM623 -25l-13 271q-65 -122 -145 -196.5t-166 -74.5q-227 0 -227 375q0 125 38 238.5t98 190.5t135 122t149 45
q86 0 163 -22l35 465l168 28l-96 -1417zM369 113q32 0 72.5 33t81 94t72 165.5t40.5 229.5l10 147q-99 35 -188 35q-92 0 -150.5 -114t-58.5 -332q0 -135 33 -196.5t88 -61.5z" />
    <glyph glyph-name="Dcroat" unicode="&#x110;" horiz-adv-x="1181" 
d="M469 0h-332l41 575h-131v31l37 101h102l39 546h371q245 0 389.5 -143t144.5 -377q0 -172 -53 -313t-144 -231.5t-210 -139.5t-254 -49zM326 141h168q201 0 327.5 140.5t126.5 400.5q0 206 -107 318t-300 112h-148l-28 -405h325v-31l-37 -101h-297z" />
    <glyph glyph-name="dcroat" unicode="&#x111;" horiz-adv-x="929" 
d="M623 -25l-13 271q-65 -122 -145 -196.5t-166 -74.5q-227 0 -227 375q0 125 38 238.5t98 190.5t135 122t149 45q86 0 163 -22l17 206h-266l4 31l41 76h229l10 152l168 28l-12 -180h143l-4 -31l-41 -76h-106l-76 -1130zM369 113q32 0 72.5 33t81 94t72 165.5t40.5 229.5
l10 147q-99 35 -188 35q-92 0 -150.5 -114t-58.5 -332q0 -135 33 -196.5t88 -61.5z" />
    <glyph glyph-name="Emacron" unicode="&#x112;" horiz-adv-x="944" 
d="M831 1567l-2 -31l-43 -94h-501l2 31l43 94h501zM117 0l88 1253h674l-31 -141l-475 6l-27 -397h440l-28 -137l-422 6l-31 -453l529 6l-31 -143h-686z" />
    <glyph glyph-name="emacron" unicode="&#x113;" horiz-adv-x="757" 
d="M756 1260l-2 -31l-43 -94h-502l2 30l43 95h502zM360 -25q-134 0 -210 94t-76 273q0 140 34 256.5t91 191.5t130 115.5t152 40.5q104 0 165 -61.5t61 -147.5q0 -94 -68.5 -168t-171 -112t-219.5 -43v-39q0 -137 42.5 -201.5t108.5 -64.5q103 0 244 120l49 -90
q-69 -68 -158 -116t-174 -48zM442 829q-71 0 -121 -82.5t-67 -236.5q133 9 212 66t79 141q0 50 -28 81t-75 31z" />
    <glyph glyph-name="Ebreve" unicode="&#x114;" horiz-adv-x="944" 
d="M547 1491q80 0 130.5 49.5t72.5 132.5h102q-7 -129 -104 -223t-220 -94q-132 0 -200 90.5t-60 226.5h103q25 -182 176 -182zM117 0l88 1253h674l-31 -141l-475 6l-27 -397h440l-28 -137l-422 6l-31 -453l529 6l-31 -143h-686z" />
    <glyph glyph-name="ebreve" unicode="&#x115;" horiz-adv-x="757" 
d="M459 1184q80 0 130.5 49.5t72.5 132.5h102q-7 -129 -104 -223t-220 -94q-132 0 -200 90.5t-60 226.5h103q25 -182 176 -182zM360 -25q-134 0 -210 94t-76 273q0 140 34 256.5t91 191.5t130 115.5t152 40.5q104 0 165 -61.5t61 -147.5q0 -94 -68.5 -168t-171 -112
t-219.5 -43v-39q0 -137 42.5 -201.5t108.5 -64.5q103 0 244 120l49 -90q-69 -68 -158 -116t-174 -48zM442 829q-71 0 -121 -82.5t-67 -236.5q133 9 212 66t79 141q0 50 -28 81t-75 31z" />
    <glyph glyph-name="Edotaccent" unicode="&#x116;" horiz-adv-x="944" 
d="M451 1516q1 33 46.5 77.5t75.5 44.5q31 0 76.5 -35.5t42.5 -68.5q-1 -33 -47.5 -77t-75.5 -44q-32 0 -76.5 35.5t-41.5 67.5zM117 0l88 1253h674l-31 -141l-475 6l-27 -397h440l-28 -137l-422 6l-31 -453l529 6l-31 -143h-686z" />
    <glyph glyph-name="edotaccent" unicode="&#x117;" horiz-adv-x="757" 
d="M330 1208q1 33 47 78t76 45q31 0 76 -35.5t42 -68.5q-1 -33 -47 -77t-75 -44q-32 0 -77 35t-42 67zM360 -25q-134 0 -210 94t-76 273q0 140 34 256.5t91 191.5t130 115.5t152 40.5q104 0 165 -61.5t61 -147.5q0 -94 -68.5 -168t-171 -112t-219.5 -43v-39
q0 -137 42.5 -201.5t108.5 -64.5q103 0 244 120l49 -90q-69 -68 -158 -116t-174 -48zM442 829q-71 0 -121 -82.5t-67 -236.5q133 9 212 66t79 141q0 50 -28 81t-75 31z" />
    <glyph glyph-name="Eogonek" unicode="&#x118;" horiz-adv-x="944" 
d="M117 0l88 1253h674l-31 -141l-475 6l-27 -397h440l-28 -137l-422 6l-31 -453l529 6l-31 -143h-686zM449 -276q4 53 40.5 109t81 95.5t95.5 71.5h116q-90 -63 -148 -132.5t-61 -125.5q-3 -39 21.5 -61.5t60.5 -22.5q32 0 86 27l23 -84q-84 -43 -156 -43q-82 0 -123 44.5
t-36 121.5z" />
    <glyph glyph-name="eogonek" unicode="&#x119;" horiz-adv-x="757" 
d="M451 -360q-82 0 -123.5 44.5t-36.5 120.5q6 84 88 170h-19q-134 0 -210 94t-76 273q0 140 34 256.5t91 191.5t130 115.5t152 40.5q104 0 165 -61.5t61 -147.5q0 -94 -68.5 -168t-171 -112t-219.5 -43v-39q0 -137 42.5 -201.5t108.5 -64.5q103 0 244 120l49 -90
q-55 -51 -100 -80q-77 -60 -125 -122t-51 -113q-3 -39 21.5 -61.5t60.5 -22.5q32 0 86 27l22 -84q-84 -43 -155 -43zM442 829q-71 0 -121 -82.5t-67 -236.5q133 9 212 66t79 141q0 50 -28 81t-75 31z" />
    <glyph glyph-name="Ecaron" unicode="&#x11a;" horiz-adv-x="944" 
d="M612 1362h-123l-233 297h137l168 -158l189 158h137zM117 0l88 1253h674l-31 -141l-475 6l-27 -397h440l-28 -137l-422 6l-31 -453l529 6l-31 -143h-686z" />
    <glyph glyph-name="ecaron" unicode="&#x11b;" horiz-adv-x="757" 
d="M516 1055h-123l-233 297h137l168 -158l188 158h138zM360 -25q-134 0 -210 94t-76 273q0 140 34 256.5t91 191.5t130 115.5t152 40.5q104 0 165 -61.5t61 -147.5q0 -94 -68.5 -168t-171 -112t-219.5 -43v-39q0 -137 42.5 -201.5t108.5 -64.5q103 0 244 120l49 -90
q-69 -68 -158 -116t-174 -48zM442 829q-71 0 -121 -82.5t-67 -236.5q133 9 212 66t79 141q0 50 -28 81t-75 31z" />
    <glyph glyph-name="Gcircumflex" unicode="&#x11c;" horiz-adv-x="1120" 
d="M879 1354l-168 157l-189 -157h-137l274 297h123l234 -297h-137zM977 76q-204 -101 -424 -101q-76 0 -145.5 20.5t-131.5 64t-107.5 106.5t-72 154t-26.5 200q0 157 40 293.5t116.5 240.5t197 164t272.5 60q99 0 199.5 -21.5t155.5 -46.5l-56 -159q-201 84 -366 84
q-179 0 -277 -152t-98 -420q0 -95 20.5 -171.5t54.5 -126t80.5 -83t95 -47.5t101.5 -14q92 0 213 31l35 471h164z" />
    <glyph glyph-name="gcircumflex" unicode="&#x11d;" horiz-adv-x="778" 
d="M401 475q69 0 110.5 44.5t41.5 139.5q0 84 -46.5 132.5t-113.5 48.5q-145 0 -145 -183q0 -81 44.5 -131.5t108.5 -50.5zM719 -94q0 -78 -64.5 -150t-166 -115.5t-205.5 -43.5q-147 0 -230.5 53.5t-83.5 138.5q0 62 38 115.5t130 115.5l107 70q-61 34 -85 63.5t-26 65.5
q1 44 32.5 82.5t96.5 81.5q-79 25 -124.5 87.5t-45.5 152.5q0 141 96 232t250 91q66 0 129 -26l88 127h-61l-168 157l-188 -157h-138l275 296h123l192 -245l15 20l98 -98l-19 -41l-149 -105q74 -74 74 -180q0 -137 -97 -231t-250 -94h-6q-77 -52 -77 -93q0 -27 51.5 -56
t177.5 -81q114 -46 162.5 -98.5t48.5 -134.5zM344 -283q94 0 161.5 42.5t67.5 105.5q0 51 -49.5 90t-169.5 86q-25 10 -41 16l-69 -51q-67 -48 -95 -81.5t-28 -80.5q0 -53 58 -90t165 -37z" />
    <glyph glyph-name="Gbreve" unicode="&#x11e;" horiz-adv-x="1120" 
d="M688 1491q80 0 130.5 49.5t72.5 132.5h102q-7 -129 -103.5 -223t-219.5 -94q-132 0 -200 90.5t-60 226.5h102q25 -182 176 -182zM977 76q-204 -101 -424 -101q-76 0 -145.5 20.5t-131.5 64t-107.5 106.5t-72 154t-26.5 200q0 157 40 293.5t116.5 240.5t197 164t272.5 60
q99 0 199.5 -21.5t155.5 -46.5l-56 -159q-201 84 -366 84q-179 0 -277 -152t-98 -420q0 -95 20.5 -171.5t54.5 -126t80.5 -83t95 -47.5t101.5 -14q92 0 213 31l35 471h164z" />
    <glyph glyph-name="gbreve" unicode="&#x11f;" horiz-adv-x="778" 
d="M414 1184q80 0 130 49.5t72 132.5h103q-7 -129 -104 -223t-220 -94q-132 0 -200 90.5t-60 226.5h103q25 -182 176 -182zM401 475q69 0 110.5 44.5t41.5 139.5q0 84 -46.5 132.5t-113.5 48.5q-145 0 -145 -183q0 -81 44.5 -131.5t108.5 -50.5zM719 -94q0 -78 -64.5 -150
t-166 -115.5t-205.5 -43.5q-147 0 -230.5 53.5t-83.5 138.5q0 62 38 115.5t130 115.5l107 70q-61 34 -85 63.5t-26 65.5q1 44 32.5 82.5t96.5 81.5q-79 25 -124.5 87.5t-45.5 152.5q0 141 96 232t250 91q66 0 129 -26l138 198l98 -98l-19 -41l-149 -105q74 -74 74 -180
q0 -137 -97 -231t-250 -94h-6q-77 -52 -77 -93q0 -27 51.5 -56t177.5 -81q114 -46 162.5 -98.5t48.5 -134.5zM344 -283q94 0 161.5 42.5t67.5 105.5q0 51 -49.5 90t-169.5 86q-25 10 -41 16l-69 -51q-67 -48 -95 -81.5t-28 -80.5q0 -53 58 -90t165 -37z" />
    <glyph glyph-name="Gdotaccent" unicode="&#x120;" horiz-adv-x="1120" 
d="M563 1516q1 33 47 77.5t76 44.5q31 0 76.5 -35.5t42.5 -68.5q-1 -33 -47.5 -77t-75.5 -44q-32 0 -77 35.5t-42 67.5zM977 76q-204 -101 -424 -101q-76 0 -145.5 20.5t-131.5 64t-107.5 106.5t-72 154t-26.5 200q0 157 40 293.5t116.5 240.5t197 164t272.5 60
q99 0 199.5 -21.5t155.5 -46.5l-56 -159q-201 84 -366 84q-179 0 -277 -152t-98 -420q0 -95 20.5 -171.5t54.5 -126t80.5 -83t95 -47.5t101.5 -14q92 0 213 31l35 471h164z" />
    <glyph glyph-name="gdotaccent" unicode="&#x121;" horiz-adv-x="778" 
d="M299 1208q1 33 47 78t76 45q31 0 76.5 -35.5t42.5 -68.5q-1 -33 -47.5 -77t-75.5 -44q-32 0 -77 35t-42 67zM401 475q69 0 110.5 44.5t41.5 139.5q0 84 -46.5 132.5t-113.5 48.5q-145 0 -145 -183q0 -81 44.5 -131.5t108.5 -50.5zM719 -94q0 -78 -64.5 -150t-166 -115.5
t-205.5 -43.5q-147 0 -230.5 53.5t-83.5 138.5q0 62 38 115.5t130 115.5l107 70q-61 34 -85 63.5t-26 65.5q1 44 32.5 82.5t96.5 81.5q-79 25 -124.5 87.5t-45.5 152.5q0 141 96 232t250 91q66 0 129 -26l138 198l98 -98l-19 -41l-149 -105q74 -74 74 -180q0 -137 -97 -231
t-250 -94h-6q-77 -52 -77 -93q0 -27 51.5 -56t177.5 -81q114 -46 162.5 -98.5t48.5 -134.5zM344 -283q94 0 161.5 42.5t67.5 105.5q0 51 -49.5 90t-169.5 86q-25 10 -41 16l-69 -51q-67 -48 -95 -81.5t-28 -80.5q0 -53 58 -90t165 -37z" />
    <glyph glyph-name="Gcommaaccent" unicode="&#x122;" horiz-adv-x="1120" 
d="M977 76q-204 -101 -424 -101q-76 0 -145.5 20.5t-131.5 64t-107.5 106.5t-72 154t-26.5 200q0 157 40 293.5t116.5 240.5t197 164t272.5 60q99 0 199.5 -21.5t155.5 -46.5l-56 -159q-201 84 -366 84q-179 0 -277 -152t-98 -420q0 -95 20.5 -171.5t54.5 -126t80.5 -83
t95 -47.5t101.5 -14q92 0 213 31l35 471h164zM457 -172q3 28 34.5 55t61.5 27q32 0 69.5 -44t34.5 -81t-35 -101.5t-110 -191.5l-88 35q86 155 90 203q1 9 -28.5 42t-28.5 56z" />
    <glyph glyph-name="gcommaaccent" unicode="&#x123;" horiz-adv-x="778" 
d="M537 1126q-3 -28 -34.5 -55t-62.5 -27q-32 0 -69.5 44t-34.5 81t35 101.5t110 191.5l88 -35q-87 -156 -90 -202q-1 -9 29 -42.5t29 -56.5zM401 475q69 0 110.5 44.5t41.5 139.5q0 84 -46.5 132.5t-113.5 48.5q-145 0 -145 -183q0 -81 44.5 -131.5t108.5 -50.5zM719 -94
q0 -78 -64.5 -150t-166 -115.5t-205.5 -43.5q-147 0 -230.5 53.5t-83.5 138.5q0 62 38 115.5t130 115.5l107 70q-61 34 -85 63.5t-26 65.5q1 44 32.5 82.5t96.5 81.5q-79 25 -124.5 87.5t-45.5 152.5q0 141 96 232t250 91q66 0 129 -26l138 198l98 -98l-19 -41l-149 -105
q74 -74 74 -180q0 -137 -97 -231t-250 -94h-6q-77 -52 -77 -93q0 -27 51.5 -56t177.5 -81q114 -46 162.5 -98.5t48.5 -134.5zM344 -283q94 0 161.5 42.5t67.5 105.5q0 51 -49.5 90t-169.5 86q-25 10 -41 16l-69 -51q-67 -48 -95 -81.5t-28 -80.5q0 -53 58 -90t165 -37z" />
    <glyph glyph-name="Hcircumflex" unicode="&#x124;" horiz-adv-x="1200" 
d="M852 1354l-168 157l-188 -157h-138l275 297h123l233 -297h-137zM829 0l41 582h-534l-41 -582h-178l88 1253h178l-37 -530h535l37 530h178l-88 -1253h-179z" />
    <glyph glyph-name="hcircumflex" unicode="&#x125;" horiz-adv-x="929" 
d="M489 1425l-167 158l-189 -158h-137l274 297h123l234 -297h-138zM299 342v10l-25 -352h-168l97 1391l168 28l-52 -743q72 132 155.5 201t164.5 69q186 0 186 -241q0 -72 -14 -218t-32.5 -307t-20.5 -180h-168q2 30 18 171t28.5 274t12.5 186q0 94 -22 133t-74 39
q-23 0 -51.5 -15.5t-61 -51.5t-61 -87t-50.5 -131.5t-30 -175.5z" />
    <glyph glyph-name="Hbar" unicode="&#x126;" horiz-adv-x="1239" 
d="M899 723l12 192h-534l-12 -192h534zM848 0l41 582h-535l-41 -582h-178l64 915h-125v31l37 88h96l16 219h178l-16 -219h535l16 219h178l-16 -219h129v-30l-37 -89h-100l-64 -915h-178z" />
    <glyph glyph-name="hbar" unicode="&#x127;" horiz-adv-x="929" 
d="M299 342v10l-25 -352h-168l78 1130h-174l4 31l41 76h138l10 154l168 28l-13 -182h265l-5 -31l-40 -76h-228l-31 -454q72 132 155.5 201t164.5 69q186 0 186 -241q0 -72 -14 -218t-32.5 -307t-20.5 -180h-168q2 30 18 171t28.5 274t12.5 186q0 94 -22 133t-74 39
q-23 0 -51.5 -15.5t-61 -51.5t-61 -87t-50.5 -131.5t-30 -175.5z" />
    <glyph glyph-name="Itilde" unicode="&#x128;" horiz-adv-x="503" 
d="M569 1591l62 -71q-117 -142 -209 -142q-40 0 -122.5 34t-106.5 34q-48 0 -134 -72l-55 72q26 27 40 40.5t46.5 41.5t64.5 41.5t62 13.5q46 0 119.5 -30.5t99.5 -30.5q60 0 133 69zM383 1253l-88 -1253h-178l88 1253h178z" />
    <glyph glyph-name="itilde" unicode="&#x129;" horiz-adv-x="440" 
d="M535 1284l61 -72q-116 -141 -215 -141q-40 0 -131 34t-115 34q-53 0 -139 -72l-55 72q130 137 219 137q46 0 127.5 -31t107.5 -31q66 0 140 70zM340 946l-68 -946h-166l66 918z" />
    <glyph glyph-name="Imacron" unicode="&#x12a;" horiz-adv-x="503" 
d="M580 1567l-2 -31l-43 -94h-502l2 31l43 94h502zM383 1253l-88 -1253h-178l88 1253h178z" />
    <glyph glyph-name="imacron" unicode="&#x12b;" horiz-adv-x="440" 
d="M555 1260l-2 -31l-43 -94h-502l2 30l43 95h502zM340 946l-68 -946h-166l66 918z" />
    <glyph glyph-name="Ibreve" unicode="&#x12c;" horiz-adv-x="503" 
d="M315 1491q80 0 130.5 49.5t72.5 132.5h103q-7 -129 -104 -223t-220 -94q-132 0 -200 90.5t-60 226.5h102q25 -182 176 -182zM383 1253l-88 -1253h-178l88 1253h178z" />
    <glyph glyph-name="ibreve" unicode="&#x12d;" horiz-adv-x="440" 
d="M281 1184q80 0 130 49.5t72 132.5h103q-7 -129 -104 -223t-220 -94q-132 0 -200 90.5t-60 226.5h102q25 -182 177 -182zM340 946l-68 -946h-166l66 918z" />
    <glyph glyph-name="Iogonek" unicode="&#x12e;" horiz-adv-x="503" 
d="M160 0h-43l88 1253h178l-88 -1253h-19q-90 -62 -147.5 -131.5t-60.5 -126.5q-3 -39 21.5 -61.5t60.5 -22.5q32 0 86 27l22 -84q-84 -43 -156 -43q-82 0 -123 44.5t-36 121.5q4 53 40.5 109t81 95.5t95.5 71.5z" />
    <glyph glyph-name="iogonek" unicode="&#x12f;" horiz-adv-x="440" 
d="M174 1225q0 33 40.5 79t68.5 46t65 -35t37 -68q0 -29 -40.5 -75t-68.5 -46q-29 0 -65.5 34t-36.5 65zM154 0h-48l66 918l168 28l-68 -946h-2q-90 -63 -148 -132.5t-61 -125.5q-3 -39 21.5 -61.5t60.5 -22.5q32 0 86 27l23 -84q-84 -43 -156 -43q-82 0 -123 44.5
t-36 121.5q4 53 40.5 109t81 95.5t95.5 71.5z" />
    <glyph glyph-name="Idotaccent" unicode="&#x130;" horiz-adv-x="503" 
d="M195 1516q1 33 46.5 77.5t75.5 44.5q31 0 76.5 -35.5t42.5 -68.5q-1 -33 -47.5 -77t-75.5 -44q-32 0 -76.5 35.5t-41.5 67.5zM383 1253l-88 -1253h-178l88 1253h178z" />
    <glyph glyph-name="dotlessi" unicode="&#x131;" horiz-adv-x="440" 
d="M340 946l-68 -946h-166l66 918z" />
    <glyph glyph-name="IJ" unicode="&#x132;" horiz-adv-x="1210" 
d="M383 1253l-88 -1253h-178l88 1253h178zM1094 1253l-62 -893q-12 -179 -118.5 -282t-266.5 -103q-84 0 -155 27l38 152q92 -37 168 -37q57 0 101.5 52.5t50.5 139.5l65 944h179z" />
    <glyph glyph-name="ij" unicode="&#x133;" horiz-adv-x="882" 
d="M621 1225q0 33 40 79t68 46t65 -35t37 -68q0 -29 -40 -75t-68 -46q-29 0 -65.5 34t-36.5 65zM174 1225q0 33 40.5 79t68.5 46t65 -35t37 -68q0 -29 -40.5 -75t-68.5 -46q-29 0 -65.5 34t-36.5 65zM172 918l168 28l-68 -946h-166zM305 -471l-22 156q36 -4 61 -4
q94 0 142.5 71.5t60.5 241.5l67 926l168 28l-69 -956q-7 -108 -43.5 -196.5t-92 -146t-125.5 -89t-147 -31.5z" />
    <glyph glyph-name="Jcircumflex" unicode="&#x134;" horiz-adv-x="673" 
d="M668 1354l-168 157l-189 -157h-137l275 297h122l234 -297h-137zM571 1253l-61 -893q-12 -179 -118.5 -282t-266.5 -103q-85 0 -156 27l39 152q92 -37 168 -37q57 0 101.5 52.5t50.5 139.5l65 944h178z" />
    <glyph glyph-name="jcircumflex" unicode="&#x135;" horiz-adv-x="446" 
d="M446 1047l-167 157l-189 -157h-137l274 296h123l234 -296h-138zM-137 -471l-23 156q36 -4 62 -4q93 0 141.5 71.5t60.5 241.5l68 926l168 28l-70 -956q-7 -108 -43 -196.5t-91.5 -146t-125.5 -89t-147 -31.5z" />
    <glyph glyph-name="Kcommaaccent" unicode="&#x136;" horiz-adv-x="1095" 
d="M1022 0h-215l-459 674l553 579h205l-565 -575zM381 1253l-88 -1253h-176l88 1253h176zM406 -172q3 28 34.5 55t61.5 27q32 0 69.5 -44t34.5 -81t-35 -101.5t-110 -191.5l-88 35q86 155 90 203q1 9 -28.5 42t-28.5 56z" />
    <glyph glyph-name="kcommaaccent" unicode="&#x137;" horiz-adv-x="839" 
d="M657 -16q-25 28 -51.5 64.5t-101 156t-193.5 323.5l-39 -528h-166l101 1391l168 28l-64 -887q195 142 346 390h170q-141 -237 -346 -398q108 -170 179.5 -275t94 -134t58.5 -72zM322 -172q3 28 34.5 55t61.5 27q32 0 69.5 -44t34.5 -81t-35 -101.5t-110 -191.5l-88 35
q86 155 90 203q1 9 -28.5 42t-28.5 56z" />
    <glyph glyph-name="Lacute" unicode="&#x139;" horiz-adv-x="897" 
d="M172 1354l285 297l180 -35l-322 -262h-143zM117 0l88 1253h178l-78 -1112l529 6l-31 -147h-686z" />
    <glyph glyph-name="lacute" unicode="&#x13a;" horiz-adv-x="512" 
d="M184 1464l285 297l180 -35l-321 -262h-144zM436 174l27 -106q-139 -93 -217 -93q-61 0 -102.5 41t-41.5 117q0 14 2 39t9 101.5t16.5 193.5t27.5 361.5t40 560.5l168 28q-20 -290 -37.5 -523t-27 -349.5t-16.5 -197t-9.5 -109.5t-2.5 -43q0 -34 15.5 -52t38.5 -18
q44 0 110 49z" />
    <glyph glyph-name="Lcommaaccent" unicode="&#x13b;" horiz-adv-x="897" 
d="M117 0l88 1253h178l-78 -1112l529 6l-31 -147h-686zM360 -172q3 28 34.5 55t62.5 27q32 0 69.5 -44t34.5 -81t-35 -101.5t-110 -191.5l-88 35q86 155 90 203q1 9 -29 42t-29 56z" />
    <glyph glyph-name="lcommaaccent" unicode="&#x13c;" horiz-adv-x="512" 
d="M436 174l27 -106q-139 -93 -217 -93q-61 0 -102.5 41t-41.5 117q0 14 2 39t9 101.5t16.5 193.5t27.5 361.5t40 560.5l168 28q-20 -290 -37.5 -523t-27 -349.5t-16.5 -197t-9.5 -109.5t-2.5 -43q0 -34 15.5 -52t38.5 -18q44 0 110 49zM162 -172q3 28 34.5 55t61.5 27
q32 0 69.5 -44t34.5 -81t-35 -101.5t-110 -191.5l-88 35q86 155 90 203q1 9 -28.5 42t-28.5 56z" />
    <glyph glyph-name="Lcaron" unicode="&#x13d;" horiz-adv-x="911" 
d="M705 1354q4 24 39.5 44.5t68.5 20.5q31 0 53 -52t19 -107q-4 -58 -42.5 -128t-127.5 -184l-70 45q48 76 70.5 122.5t25.5 84.5q2 40 -17.5 93t-18.5 61zM117 0l88 1253h178l-78 -1112l529 6l-31 -147h-686z" />
    <glyph glyph-name="lcaron" unicode="&#x13e;" horiz-adv-x="593" 
d="M489 1354q4 24 40 44.5t69 20.5q31 0 53 -52t19 -107q-4 -58 -42.5 -128t-127.5 -184l-70 45q48 76 70.5 122.5t25.5 84.5q2 40 -18 93t-19 61zM436 174l27 -106q-139 -93 -217 -93q-61 0 -102.5 41t-41.5 117q0 14 2 39t9 101.5t16.5 193.5t27.5 361.5t40 560.5l168 28
q-20 -290 -37.5 -523t-27 -349.5t-16.5 -197t-9.5 -109.5t-2.5 -43q0 -34 15.5 -52t38.5 -18q44 0 110 49z" />
    <glyph glyph-name="Ldot" unicode="&#x13f;" horiz-adv-x="897" 
d="M586 637q1 33 47 78t76 45q31 0 76 -36t42 -69q-1 -33 -47 -76.5t-75 -43.5q-32 0 -77 35t-42 67zM117 0l88 1253h178l-78 -1112l529 6l-31 -147h-686z" />
    <glyph glyph-name="ldot" unicode="&#x140;" horiz-adv-x="604" 
d="M436 174l27 -106q-139 -93 -217 -93q-61 0 -102.5 41t-41.5 117q0 14 2 39t9 101.5t16.5 193.5t27.5 361.5t40 560.5l168 28q-20 -290 -37.5 -523t-27 -349.5t-16.5 -197t-9.5 -109.5t-2.5 -43q0 -34 15.5 -52t38.5 -18q44 0 110 49zM403 524q1 33 47 78t76 45
q31 0 76.5 -35.5t42.5 -68.5q-1 -33 -47.5 -77t-75.5 -44q-32 0 -77 35t-42 67z" />
    <glyph glyph-name="Lslash" unicode="&#x141;" horiz-adv-x="925" 
d="M129 0l37 522l-129 -53l10 141l129 54l41 589h178l-37 -512l295 123l-10 -141l-293 -123l-33 -459l529 6l-31 -147h-686z" />
    <glyph glyph-name="lslash" unicode="&#x142;" horiz-adv-x="542" 
d="M246 -25q-61 0 -102.5 41t-41.5 117q0 10 1 23.5t3.5 43.5t6.5 70t10.5 121t13.5 180l-108 -47l10 135l108 48q3 38 20.5 274t29.5 408l168 28q-11 -160 -29.5 -396.5t-18.5 -242.5l175 74l-11 -135l-174 -74q-7 -94 -14 -176.5t-10.5 -124t-6 -74.5t-3.5 -48t-1 -25
q0 -34 15.5 -52t38.5 -18q44 0 110 49l27 -106q-139 -93 -217 -93z" />
    <glyph glyph-name="Nacute" unicode="&#x143;" horiz-adv-x="1232" 
d="M508 1354l285 297l180 -35l-322 -262h-143zM877 0l-535 973l-68 -973h-157l86 1253h170l520 -954l65 954h158l-88 -1253h-151z" />
    <glyph glyph-name="nacute" unicode="&#x144;" horiz-adv-x="931" 
d="M373 1047l284 296l181 -34l-322 -262h-143zM553 803q-28 0 -63 -23.5t-72.5 -70t-69 -130t-45.5 -188.5l-29 -391h-168l64 918l141 28l11 -266q72 131 154.5 198.5t162.5 67.5q186 0 186 -241q0 -72 -14 -218t-32.5 -307t-20.5 -180h-168q2 30 18 171t28.5 274t12.5 186
q0 94 -22 133t-74 39z" />
    <glyph glyph-name="Ncommaaccent" unicode="&#x145;" horiz-adv-x="1232" 
d="M877 0l-535 973l-68 -973h-157l86 1253h170l520 -954l65 954h158l-88 -1253h-151zM498 -172q3 28 34.5 55t61.5 27q32 0 69.5 -44t34.5 -81t-35 -101.5t-110 -191.5l-88 35q86 155 90 203q1 9 -28.5 42t-28.5 56z" />
    <glyph glyph-name="ncommaaccent" unicode="&#x146;" horiz-adv-x="931" 
d="M553 803q-28 0 -63 -23.5t-72.5 -70t-69 -130t-45.5 -188.5l-29 -391h-168l64 918l141 28l11 -266q72 131 154.5 198.5t162.5 67.5q186 0 186 -241q0 -72 -14 -218t-32.5 -307t-20.5 -180h-168q2 30 18 171t28.5 274t12.5 186q0 94 -22 133t-74 39zM326 -172
q3 28 34.5 55t61.5 27q32 0 69.5 -44t34.5 -81t-35 -101.5t-110 -191.5l-88 35q86 155 90 203q1 9 -28.5 42t-28.5 56z" />
    <glyph glyph-name="Ncaron" unicode="&#x147;" horiz-adv-x="1232" 
d="M715 1362h-123l-234 297h138l168 -158l188 158h137zM877 0l-535 973l-68 -973h-157l86 1253h170l520 -954l65 954h158l-88 -1253h-151z" />
    <glyph glyph-name="ncaron" unicode="&#x148;" horiz-adv-x="931" 
d="M571 1055h-122l-234 297h137l168 -158l189 158h137zM553 803q-28 0 -63 -23.5t-72.5 -70t-69 -130t-45.5 -188.5l-29 -391h-168l64 918l141 28l11 -266q72 131 154.5 198.5t162.5 67.5q186 0 186 -241q0 -72 -14 -218t-32.5 -307t-20.5 -180h-168q2 30 18 171t28.5 274
t12.5 186q0 94 -22 133t-74 39z" />
    <glyph glyph-name="Eng" unicode="&#x14a;" horiz-adv-x="1232" 
d="M670 -369q-69 0 -156 33l43 150q83 -39 158 -39q67 0 108 47t47 143l2 41l-530 967l-68 -973h-157l86 1253h170l520 -954l65 954h158l-84 -1181l-2 -56q-10 -182 -109 -283.5t-251 -101.5z" />
    <glyph glyph-name="eng" unicode="&#x14b;" horiz-adv-x="931" 
d="M348 -471l-22 156q36 -4 61 -4q94 0 144.5 74.5t68.5 262.5q3 36 17 184t23 262t9 167q0 94 -22 133t-74 39q-28 0 -63 -23.5t-72.5 -70t-69 -130t-45.5 -188.5l-29 -391h-168l64 918l141 28l11 -266q72 131 154.5 198.5t162.5 67.5q186 0 186 -241q0 -69 -11 -200.5
t-26.5 -283.5t-17.5 -176q-9 -128 -47.5 -228.5t-97 -162t-129 -93.5t-148.5 -32z" />
    <glyph glyph-name="Omacron" unicode="&#x14c;" horiz-adv-x="1155" 
d="M922 1567l-2 -31l-43 -94h-502l2 31l43 94h502zM1106 729q0 -156 -35 -284.5t-93 -214t-135.5 -144.5t-159 -85t-167.5 -26q-199 0 -322.5 146.5t-123.5 402.5q0 156 35 284.5t92.5 214t135 144.5t159 85t167.5 26q199 0 323 -146.5t124 -402.5zM588 117q68 0 126.5 32.5
t106.5 97.5t75.5 176t27.5 255q0 127 -28.5 219.5t-78 143t-107 73.5t-126.5 23q-67 0 -125 -32.5t-105 -98t-73.5 -176t-26.5 -255.5q0 -102 18.5 -182.5t49 -131.5t74 -84t90.5 -46.5t102 -13.5z" />
    <glyph glyph-name="omacron" unicode="&#x14d;" horiz-adv-x="897" 
d="M797 1260l-2 -31l-43 -94h-502l2 30l43 95h502zM823 551q0 -82 -16.5 -162t-51.5 -155.5t-85.5 -132.5t-124.5 -91.5t-162 -34.5q-138 0 -223.5 102.5t-85.5 293.5q0 82 16.5 162t51.5 155t85.5 132t124.5 91.5t162 34.5q139 0 224 -102.5t85 -292.5zM436 90
q50 0 89.5 32t62 80t37 112t19.5 119.5t5 111.5q0 134 -46.5 210t-141.5 76q-50 0 -89.5 -32.5t-62 -81t-37 -113t-19.5 -119.5t-5 -108q0 -140 47.5 -213.5t140.5 -73.5z" />
    <glyph glyph-name="Obreve" unicode="&#x14e;" horiz-adv-x="1155" 
d="M623 1491q80 0 130 49.5t72 132.5h103q-7 -129 -104 -223t-220 -94q-132 0 -200 90.5t-60 226.5h102q25 -182 177 -182zM1106 729q0 -156 -35 -284.5t-93 -214t-135.5 -144.5t-159 -85t-167.5 -26q-199 0 -322.5 146.5t-123.5 402.5q0 156 35 284.5t92.5 214t135 144.5
t159 85t167.5 26q199 0 323 -146.5t124 -402.5zM588 117q68 0 126.5 32.5t106.5 97.5t75.5 176t27.5 255q0 127 -28.5 219.5t-78 143t-107 73.5t-126.5 23q-67 0 -125 -32.5t-105 -98t-73.5 -176t-26.5 -255.5q0 -102 18.5 -182.5t49 -131.5t74 -84t90.5 -46.5t102 -13.5z
" />
    <glyph glyph-name="obreve" unicode="&#x14f;" horiz-adv-x="897" 
d="M520 1184q80 0 130.5 49.5t72.5 132.5h102q-7 -129 -103.5 -223t-219.5 -94q-132 0 -200 90.5t-60 226.5h102q25 -182 176 -182zM823 551q0 -82 -16.5 -162t-51.5 -155.5t-85.5 -132.5t-124.5 -91.5t-162 -34.5q-138 0 -223.5 102.5t-85.5 293.5q0 82 16.5 162t51.5 155
t85.5 132t124.5 91.5t162 34.5q139 0 224 -102.5t85 -292.5zM436 90q50 0 89.5 32t62 80t37 112t19.5 119.5t5 111.5q0 134 -46.5 210t-141.5 76q-50 0 -89.5 -32.5t-62 -81t-37 -113t-19.5 -119.5t-5 -108q0 -140 47.5 -213.5t140.5 -73.5z" />
    <glyph glyph-name="Ohungarumlaut" unicode="&#x150;" horiz-adv-x="1155" 
d="M571 1354l285 297l180 -35l-321 -262h-144zM315 1354l285 297l180 -35l-321 -262h-144zM1106 729q0 -156 -35 -284.5t-93 -214t-135.5 -144.5t-159 -85t-167.5 -26q-199 0 -322.5 146.5t-123.5 402.5q0 156 35 284.5t92.5 214t135 144.5t159 85t167.5 26
q199 0 323 -146.5t124 -402.5zM588 117q68 0 126.5 32.5t106.5 97.5t75.5 176t27.5 255q0 127 -28.5 219.5t-78 143t-107 73.5t-126.5 23q-67 0 -125 -32.5t-105 -98t-73.5 -176t-26.5 -255.5q0 -102 18.5 -182.5t49 -131.5t74 -84t90.5 -46.5t102 -13.5z" />
    <glyph glyph-name="ohungarumlaut" unicode="&#x151;" horiz-adv-x="897" 
d="M510 1047l285 296l180 -34l-322 -262h-143zM254 1047l285 296l180 -34l-322 -262h-143zM823 551q0 -82 -16.5 -162t-51.5 -155.5t-85.5 -132.5t-124.5 -91.5t-162 -34.5q-138 0 -223.5 102.5t-85.5 293.5q0 82 16.5 162t51.5 155t85.5 132t124.5 91.5t162 34.5
q139 0 224 -102.5t85 -292.5zM436 90q50 0 89.5 32t62 80t37 112t19.5 119.5t5 111.5q0 134 -46.5 210t-141.5 76q-50 0 -89.5 -32.5t-62 -81t-37 -113t-19.5 -119.5t-5 -108q0 -140 47.5 -213.5t140.5 -73.5z" />
    <glyph glyph-name="OE" unicode="&#x152;" horiz-adv-x="1568" 
d="M586 117q93 0 168 59l61 868q-90 93 -229 93q-53 0 -100.5 -19t-90.5 -62t-74 -106.5t-49 -159.5t-18 -215q0 -233 92 -345.5t240 -112.5zM741 0l2 27q-104 -52 -227 -52q-205 0 -325.5 149.5t-120.5 410.5q0 144 32 266.5t87.5 209t130 147.5t159.5 90.5t176 29.5
q98 0 174 -37v12h674l-30 -141l-476 6l-26 -397h440l-29 -137l-421 6l-31 -453l528 6l-31 -143h-686z" />
    <glyph glyph-name="oe" unicode="&#x153;" horiz-adv-x="1316" 
d="M928 -25q-82 0 -144.5 37t-97.5 109q-119 -146 -303 -146q-138 0 -223.5 102.5t-85.5 293.5q0 82 16.5 162t51.5 155t85.5 132t124.5 91.5t162 34.5q84 0 150.5 -38.5t105.5 -112.5q57 73 129.5 112t149.5 39q104 0 164.5 -61.5t60.5 -147.5q0 -94 -68.5 -168t-171 -112
t-219.5 -43v-39q0 -137 43 -201.5t109 -64.5q102 0 243 120l50 -90q-69 -68 -158 -116t-174 -48zM436 90q50 0 89.5 32t62 80t37 112t19.5 119.5t5 111.5q0 134 -46.5 210t-141.5 76q-50 0 -89.5 -32.5t-62 -81t-37 -113t-19.5 -119.5t-5 -108q0 -140 47.5 -213.5
t140.5 -73.5zM1010 829q-69 0 -119.5 -80.5t-67.5 -230.5q0 -6 -2 -8q133 9 212 66t79 141q0 50 -27.5 81t-74.5 31z" />
    <glyph glyph-name="Racute" unicode="&#x154;" horiz-adv-x="1038" 
d="M354 1354l285 297l180 -35l-321 -262h-144zM492 1126h-117l-35 -479h160q106 0 179 62t73 178q0 239 -260 239zM446 518h-114l-37 -518h-178l88 1253h330q190 0 293.5 -86t103.5 -235q0 -125 -69 -221.5t-187 -147.5l289 -563h-205l-244 522q-46 -4 -70 -4z" />
    <glyph glyph-name="racute" unicode="&#x155;" horiz-adv-x="628" 
d="M305 1047l285 296l180 -34l-321 -262h-144zM301 338v2l-27 -340h-168l64 918l141 28l11 -270q55 139 137.5 204.5t171.5 65.5q22 0 28 -2l-32 -176q-24 6 -49 6q-35 0 -65.5 -7.5t-67.5 -35t-64 -72.5t-49.5 -127.5t-30.5 -193.5z" />
    <glyph glyph-name="Rcommaaccent" unicode="&#x156;" horiz-adv-x="1038" 
d="M492 1126h-117l-35 -479h160q106 0 179 62t73 178q0 239 -260 239zM446 518h-114l-37 -518h-178l88 1253h330q190 0 293.5 -86t103.5 -235q0 -125 -69 -221.5t-187 -147.5l289 -563h-205l-244 522q-46 -4 -70 -4zM399 -172q3 28 34.5 55t62.5 27q32 0 69.5 -44t34.5 -81
t-35 -101.5t-110 -191.5l-88 35q86 155 90 203q1 9 -29 42t-29 56z" />
    <glyph glyph-name="rcommaaccent" unicode="&#x157;" horiz-adv-x="628" 
d="M301 338v2l-27 -340h-168l64 918l141 28l11 -270q55 139 137.5 204.5t171.5 65.5q22 0 28 -2l-32 -176q-24 6 -49 6q-35 0 -65.5 -7.5t-67.5 -35t-64 -72.5t-49.5 -127.5t-30.5 -193.5zM86 -172q3 28 34.5 55t61.5 27q32 0 70 -44t35 -81t-35 -100.5t-111 -192.5l-88 35
q86 155 90 203q1 9 -28.5 42t-28.5 56z" />
    <glyph glyph-name="Rcaron" unicode="&#x158;" horiz-adv-x="1038" 
d="M582 1362h-123l-234 297h137l168 -158l189 158h137zM492 1126h-117l-35 -479h160q106 0 179 62t73 178q0 239 -260 239zM446 518h-114l-37 -518h-178l88 1253h330q190 0 293.5 -86t103.5 -235q0 -125 -69 -221.5t-187 -147.5l289 -563h-205l-244 522q-46 -4 -70 -4z" />
    <glyph glyph-name="rcaron" unicode="&#x159;" horiz-adv-x="628" 
d="M473 1055h-123l-233 297h137l168 -158l188 158h138zM301 338v2l-27 -340h-168l64 918l141 28l11 -270q55 139 137.5 204.5t171.5 65.5q22 0 28 -2l-32 -176q-24 6 -49 6q-35 0 -65.5 -7.5t-67.5 -35t-64 -72.5t-49.5 -127.5t-30.5 -193.5z" />
    <glyph glyph-name="Sacute" unicode="&#x15a;" horiz-adv-x="903" 
d="M383 1354l285 297l180 -35l-322 -262h-143zM477 539l-112 57q-124 63 -183 134.5t-59 176.5q0 161 122.5 266t305.5 105q197 0 309 -47l-41 -154q-192 66 -334 66q-81 0 -134.5 -53t-53.5 -125q0 -69 36.5 -120.5t133.5 -101.5l117 -59q123 -62 180 -135t57 -170
q0 -181 -140 -292.5t-355 -111.5q-171 0 -289 50l45 151q178 -66 338 -63q97 -1 159 54.5t62 139.5q0 78 -33.5 130t-130.5 102z" />
    <glyph glyph-name="sacute" unicode="&#x15b;" horiz-adv-x="708" 
d="M305 1047l285 296l180 -34l-321 -262h-144zM311 -25q-148 0 -276 56l43 141q154 -70 270 -70q52 0 79.5 31t27.5 76q0 71 -95 149l-116 99q-64 54 -92.5 104t-28.5 121q0 119 90.5 191.5t204.5 72.5q63 0 138 -15t106 -30l-44 -135q-141 57 -233 57q-49 0 -76.5 -28.5
t-27.5 -75.5q0 -32 20 -65t76 -81l117 -98q66 -56 93 -103t27 -110q0 -67 -28.5 -123.5t-73.5 -91t-97.5 -53.5t-103.5 -19z" />
    <glyph glyph-name="Scircumflex" unicode="&#x15c;" horiz-adv-x="903" 
d="M748 1354l-168 157l-189 -157h-137l274 297h123l234 -297h-137zM477 539l-112 57q-124 63 -183 134.5t-59 176.5q0 161 122.5 266t305.5 105q197 0 309 -47l-41 -154q-192 66 -334 66q-81 0 -134.5 -53t-53.5 -125q0 -69 36.5 -120.5t133.5 -101.5l117 -59
q123 -62 180 -135t57 -170q0 -181 -140 -292.5t-355 -111.5q-171 0 -289 50l45 151q178 -66 338 -63q97 -1 159 54.5t62 139.5q0 78 -33.5 130t-130.5 102z" />
    <glyph glyph-name="scircumflex" unicode="&#x15d;" horiz-adv-x="708" 
d="M610 1047l-168 157l-188 -157h-137l274 296h123l234 -296h-138zM311 -25q-148 0 -276 56l43 141q154 -70 270 -70q52 0 79.5 31t27.5 76q0 71 -95 149l-116 99q-64 54 -92.5 104t-28.5 121q0 119 90.5 191.5t204.5 72.5q63 0 138 -15t106 -30l-44 -135q-141 57 -233 57
q-49 0 -76.5 -28.5t-27.5 -75.5q0 -32 20 -65t76 -81l117 -98q66 -56 93 -103t27 -110q0 -67 -28.5 -123.5t-73.5 -91t-97.5 -53.5t-103.5 -19z" />
    <glyph glyph-name="Scedilla" unicode="&#x15e;" horiz-adv-x="903" 
d="M193 -471l-17 88q103 12 155.5 31.5t55.5 60.5q1 29 -34 50.5t-115 43.5l-5 11l89 161q-170 0 -285 50l45 151q178 -66 338 -63q97 -1 159 54.5t62 139.5q0 78 -33.5 130t-130.5 102l-112 57q-124 63 -183 134.5t-59 176.5q0 161 122.5 266t305.5 105q197 0 309 -47
l-41 -154q-192 66 -334 66q-81 0 -134.5 -53t-53.5 -125q0 -69 36.5 -120.5t133.5 -101.5l117 -59q123 -62 180 -135t57 -170q0 -159 -110.5 -265.5t-290.5 -131.5l-49 -93q37 -17 52.5 -25t40.5 -23.5t34 -28t16.5 -32t5.5 -42.5q-5 -74 -87.5 -134.5t-239.5 -74.5z" />
    <glyph glyph-name="scedilla" unicode="&#x15f;" horiz-adv-x="708" 
d="M119 -471l-17 88q103 12 155.5 31.5t55.5 60.5q1 29 -34 50.5t-115 43.5l-4 11l88 163q-108 9 -213 54l43 141q154 -70 270 -70q52 0 79.5 31t27.5 76q0 71 -95 149l-116 99q-64 54 -92.5 104t-28.5 121q0 119 90.5 191.5t204.5 72.5q63 0 138 -15t106 -30l-44 -135
q-141 57 -233 57q-49 0 -76.5 -28.5t-27.5 -75.5q0 -32 20 -65t76 -81l117 -98q66 -56 93 -103t27 -110t-24 -115.5t-63.5 -87.5t-86.5 -56t-96 -26l-47 -88q37 -17 52.5 -25t40.5 -23.5t34 -28t16.5 -32t5.5 -42.5q-5 -74 -87.5 -134.5t-239.5 -74.5z" />
    <glyph glyph-name="Scaron" unicode="&#x160;" horiz-adv-x="903" 
d="M616 1362h-122l-234 297h137l168 -158l189 158h137zM477 539l-112 57q-124 63 -183 134.5t-59 176.5q0 161 122.5 266t305.5 105q197 0 309 -47l-41 -154q-192 66 -334 66q-81 0 -134.5 -53t-53.5 -125q0 -69 36.5 -120.5t133.5 -101.5l117 -59q123 -62 180 -135t57 -170
q0 -181 -140 -292.5t-355 -111.5q-171 0 -289 50l45 151q178 -66 338 -63q97 -1 159 54.5t62 139.5q0 78 -33.5 130t-130.5 102z" />
    <glyph glyph-name="scaron" unicode="&#x161;" horiz-adv-x="708" 
d="M489 1055h-122l-234 297h137l168 -158l189 158h137zM311 -25q-148 0 -276 56l43 141q154 -70 270 -70q52 0 79.5 31t27.5 76q0 71 -95 149l-116 99q-64 54 -92.5 104t-28.5 121q0 119 90.5 191.5t204.5 72.5q63 0 138 -15t106 -30l-44 -135q-141 57 -233 57
q-49 0 -76.5 -28.5t-27.5 -75.5q0 -32 20 -65t76 -81l117 -98q66 -56 93 -103t27 -110q0 -67 -28.5 -123.5t-73.5 -91t-97.5 -53.5t-103.5 -19z" />
    <glyph glyph-name="Tcommaaccent" unicode="&#x162;" horiz-adv-x="1028" 
d="M993 1106l-356 6l-78 -1112h-178l78 1112l-379 -6l35 147h913zM338 -172q3 28 34.5 55t61.5 27q32 0 70 -44t35 -81t-35 -100.5t-111 -192.5l-88 35q86 155 90 203q1 9 -28.5 42t-28.5 56z" />
    <glyph glyph-name="tcommaaccent" unicode="&#x163;" horiz-adv-x="663" 
d="M618 106q-173 -131 -309 -131q-75 0 -127.5 51t-52.5 136q0 57 64 641h-146l12 98l146 21q18 171 20 188l168 29q-10 -101 -24 -217h295l-31 -119h-277q-59 -490 -59 -576q0 -52 25 -78t67 -26q75 0 193 84zM233 -172q3 28 34.5 55t62.5 27q32 0 69.5 -44t34.5 -81
t-35 -101.5t-110 -191.5l-88 35q86 155 90 203q1 9 -29 42t-29 56z" />
    <glyph glyph-name="Tcaron" unicode="&#x164;" horiz-adv-x="1028" 
d="M623 1362h-123l-234 297h137l168 -158l189 158h137zM993 1106l-356 6l-78 -1112h-178l78 1112l-379 -6l35 147h913z" />
    <glyph glyph-name="tcaron" unicode="&#x165;" horiz-adv-x="663" 
d="M524 1405q4 24 40 44.5t69 20.5q31 0 53 -52t19 -107q-4 -58 -42.5 -128t-127.5 -184l-70 45q48 76 70.5 122.5t25.5 84.5q2 40 -18 93t-19 61zM618 106q-173 -131 -309 -131q-75 0 -127.5 51t-52.5 136q0 57 64 641h-146l12 98l146 21q18 171 20 188l168 29
q-10 -101 -24 -217h295l-31 -119h-277q-59 -490 -59 -576q0 -52 25 -78t67 -26q75 0 193 84z" />
    <glyph glyph-name="Tbar" unicode="&#x166;" horiz-adv-x="1028" 
d="M877 631h-275l-43 -631h-178l43 631h-315l4 31l41 88h278l27 362l-379 -6l35 147h913l-35 -147l-356 6l-27 -362h312l-4 -31z" />
    <glyph glyph-name="tbar" unicode="&#x167;" horiz-adv-x="663" 
d="M618 106q-173 -131 -309 -131q-75 0 -127.5 51t-52.5 136q0 64 25 295h-127l4 30l41 76h94q8 92 27 240h-146l12 98l146 21q18 171 20 188l168 29q-10 -101 -24 -217h295l-31 -119h-277q-6 -51 -15.5 -133.5t-12.5 -106.5h262l-4 -31l-41 -75h-230q-18 -166 -18 -230
q0 -52 25 -78t67 -26q75 0 193 84z" />
    <glyph glyph-name="Utilde" unicode="&#x168;" horiz-adv-x="1206" 
d="M932 1591l61 -71q-117 -142 -215 -142q-40 0 -131 34t-115 34q-53 0 -139 -72l-55 72q130 137 219 137q46 0 128 -30.5t108 -30.5q66 0 139 69zM203 1253h178q-12 -176 -23.5 -343t-16.5 -235t-9 -132.5t-5 -90.5t-1 -53q0 -141 74 -209.5t204 -68.5q123 0 190.5 72.5
t79.5 236.5l56 823h172l-55 -802q-15 -233 -145 -354.5t-357 -121.5q-177 0 -290.5 96t-113.5 273q0 20 0.5 37t2.5 51t4 67t7.5 107t11 148.5t16 215t20.5 283.5z" />
    <glyph glyph-name="utilde" unicode="&#x169;" horiz-adv-x="927" 
d="M791 1284l61 -72q-116 -141 -215 -141q-40 0 -131 34t-115 34q-53 0 -139 -72l-55 72q130 137 219 137q46 0 127.5 -31t107.5 -31q66 0 140 70zM618 -25l-10 271q-72 -133 -154 -202t-163 -69q-185 0 -185 242q0 72 14 218t33 304t21 179l170 26q-2 -30 -18.5 -176.5
t-29.5 -285t-13 -191.5q0 -94 21 -133t73 -39q22 0 49.5 14.5t59 48.5t59.5 82.5t50.5 124.5t31.5 166l26 363l168 28l-63 -946z" />
    <glyph glyph-name="Umacron" unicode="&#x16a;" horiz-adv-x="1206" 
d="M930 1567l-2 -31l-43 -94h-502l2 31l43 94h502zM203 1253h178q-12 -176 -23.5 -343t-16.5 -235t-9 -132.5t-5 -90.5t-1 -53q0 -141 74 -209.5t204 -68.5q123 0 190.5 72.5t79.5 236.5l56 823h172l-55 -802q-15 -233 -145 -354.5t-357 -121.5q-177 0 -290.5 96t-113.5 273
q0 20 0.5 37t2.5 51t4 67t7.5 107t11 148.5t16 215t20.5 283.5z" />
    <glyph glyph-name="umacron" unicode="&#x16b;" horiz-adv-x="927" 
d="M801 1260l-2 -31l-43 -94h-502l2 30l43 95h502zM618 -25l-10 271q-72 -133 -154 -202t-163 -69q-185 0 -185 242q0 72 14 218t33 304t21 179l170 26q-2 -30 -18.5 -176.5t-29.5 -285t-13 -191.5q0 -94 21 -133t73 -39q22 0 49.5 14.5t59 48.5t59.5 82.5t50.5 124.5
t31.5 166l26 363l168 28l-63 -946z" />
    <glyph glyph-name="Ubreve" unicode="&#x16c;" horiz-adv-x="1206" 
d="M676 1491q80 0 130.5 49.5t72.5 132.5h102q-7 -129 -104 -223t-220 -94q-132 0 -200 90.5t-60 226.5h103q25 -182 176 -182zM203 1253h178q-12 -176 -23.5 -343t-16.5 -235t-9 -132.5t-5 -90.5t-1 -53q0 -141 74 -209.5t204 -68.5q123 0 190.5 72.5t79.5 236.5l56 823
h172l-55 -802q-15 -233 -145 -354.5t-357 -121.5q-177 0 -290.5 96t-113.5 273q0 20 0.5 37t2.5 51t4 67t7.5 107t11 148.5t16 215t20.5 283.5z" />
    <glyph glyph-name="ubreve" unicode="&#x16d;" horiz-adv-x="927" 
d="M524 1184q80 0 130.5 49.5t72.5 132.5h102q-7 -129 -103.5 -223t-219.5 -94q-132 0 -200 90.5t-60 226.5h102q25 -182 176 -182zM618 -25l-10 271q-72 -133 -154 -202t-163 -69q-185 0 -185 242q0 72 14 218t33 304t21 179l170 26q-2 -30 -18.5 -176.5t-29.5 -285
t-13 -191.5q0 -94 21 -133t73 -39q22 0 49.5 14.5t59 48.5t59.5 82.5t50.5 124.5t31.5 166l26 363l168 28l-63 -946z" />
    <glyph glyph-name="Uring" unicode="&#x16e;" horiz-adv-x="1206" 
d="M872 1542q-4 -74 -66 -128t-138 -54q-79 0 -132 49t-47 133q4 75 66.5 129.5t138.5 54.5q80 0 132 -48.5t46 -135.5zM588 1542q-3 -40 22.5 -66t63.5 -26t67.5 26t32.5 66q3 43 -23.5 69.5t-64.5 26.5t-66.5 -26.5t-31.5 -69.5zM203 1253h178q-12 -176 -23.5 -343
t-16.5 -235t-9 -132.5t-5 -90.5t-1 -53q0 -141 74 -209.5t204 -68.5q123 0 190.5 72.5t79.5 236.5l56 823h172l-55 -802q-15 -233 -145 -354.5t-357 -121.5q-177 0 -290.5 96t-113.5 273q0 20 0.5 37t2.5 51t4 67t7.5 107t11 148.5t16 215t20.5 283.5z" />
    <glyph glyph-name="uring" unicode="&#x16f;" horiz-adv-x="927" 
d="M709 1235q-4 -74 -66.5 -128t-138.5 -54q-79 0 -131.5 49t-46.5 133q4 75 66 129.5t138 54.5q80 0 132.5 -48.5t46.5 -135.5zM424 1235q-3 -40 22.5 -66t63.5 -26t67.5 26t32.5 66q3 43 -23.5 69.5t-64.5 26.5t-66.5 -26.5t-31.5 -69.5zM618 -25l-10 271
q-72 -133 -154 -202t-163 -69q-185 0 -185 242q0 72 14 218t33 304t21 179l170 26q-2 -30 -18.5 -176.5t-29.5 -285t-13 -191.5q0 -94 21 -133t73 -39q22 0 49.5 14.5t59 48.5t59.5 82.5t50.5 124.5t31.5 166l26 363l168 28l-63 -946z" />
    <glyph glyph-name="Uhungarumlaut" unicode="&#x170;" horiz-adv-x="1206" 
d="M598 1354l285 297l180 -35l-322 -262h-143zM342 1354l285 297l180 -35l-322 -262h-143zM203 1253h178q-12 -176 -23.5 -343t-16.5 -235t-9 -132.5t-5 -90.5t-1 -53q0 -141 74 -209.5t204 -68.5q123 0 190.5 72.5t79.5 236.5l56 823h172l-55 -802q-15 -233 -145 -354.5
t-357 -121.5q-177 0 -290.5 96t-113.5 273q0 20 0.5 37t2.5 51t4 67t7.5 107t11 148.5t16 215t20.5 283.5z" />
    <glyph glyph-name="uhungarumlaut" unicode="&#x171;" horiz-adv-x="927" 
d="M502 1047l284 296l181 -34l-322 -262h-143zM246 1047l284 296l181 -34l-322 -262h-143zM618 -25l-10 271q-72 -133 -154 -202t-163 -69q-185 0 -185 242q0 72 14 218t33 304t21 179l170 26q-2 -30 -18.5 -176.5t-29.5 -285t-13 -191.5q0 -94 21 -133t73 -39
q22 0 49.5 14.5t59 48.5t59.5 82.5t50.5 124.5t31.5 166l26 363l168 28l-63 -946z" />
    <glyph glyph-name="Uogonek" unicode="&#x172;" horiz-adv-x="1206" 
d="M637 -401q-82 0 -123.5 44.5t-36.5 120.5q8 108 133 213q-20 -2 -65 -2q-177 0 -290.5 96t-113.5 273q0 20 0.5 37t2.5 51t4 67t7.5 107t11 148.5t16 215t20.5 283.5h178q-12 -176 -23.5 -343t-16.5 -235t-9 -132.5t-5 -90.5t-1 -53q0 -141 74 -209.5t204 -68.5
q123 0 190.5 72.5t79.5 236.5l56 823h172l-55 -802q-10 -164 -79 -273.5t-190 -159.5q-77 -60 -125 -122t-51 -113q-3 -39 21.5 -61.5t60.5 -22.5q32 0 86 27l23 -84q-84 -43 -156 -43z" />
    <glyph glyph-name="uogonek" unicode="&#x173;" horiz-adv-x="927" 
d="M582 -442q-82 0 -123.5 44.5t-36.5 121.5q5 71 62.5 140.5t133.5 121.5l-10 260q-72 -133 -154 -202t-163 -69q-185 0 -185 242q0 72 14 218t33 304t21 179l170 26q-2 -30 -18.5 -176.5t-29.5 -285t-13 -191.5q0 -94 21 -133t73 -39q22 0 49.5 14.5t59 48.5t59.5 82.5
t50.5 124.5t31.5 166l26 363l168 28l-63 -946h-2q-90 -63 -148 -132.5t-61 -125.5q-3 -39 21.5 -61.5t60.5 -22.5q32 0 86 27l22 -84q-84 -43 -155 -43z" />
    <glyph glyph-name="Wcircumflex" unicode="&#x174;" horiz-adv-x="1708" 
d="M1102 1354l-168 157l-189 -157h-137l275 297h123l233 -297h-137zM1135 0l-238 977l-391 -977h-187l-186 1253h180l144 -1001l391 1001h160l241 -1007l295 1007h166l-387 -1253h-188z" />
    <glyph glyph-name="wcircumflex" unicode="&#x175;" horiz-adv-x="1302" 
d="M879 1047l-168 157l-189 -157h-137l274 296h123l234 -296h-137zM668 0l-37 446q-97 -278 -275 -448l-168 2l-65 922l162 22l49 -799q96 105 168 277t100 364l-10 136h158l53 -785q112 121 183 329.5t99 455.5h150q-13 -121 -44 -249t-79.5 -255t-120 -238.5
t-155.5 -179.5h-168z" />
    <glyph glyph-name="Ycircumflex" unicode="&#x176;" horiz-adv-x="1032" 
d="M770 1354l-168 157l-188 -157h-138l275 297h123l233 -297h-137zM582 0h-179l35 500l-364 753h194l285 -585l346 585h180l-463 -749z" />
    <glyph glyph-name="ycircumflex" unicode="&#x177;" horiz-adv-x="841" 
d="M651 1047l-168 157l-188 -157h-137l274 296h123l233 -296h-137zM-106 -471q-48 0 -109 12l20 154q59 -12 127 -12q225 0 408 292h-74l-135 936l166 33l117 -835q162 328 227 813h156q-7 -84 -25.5 -184t-48 -215.5t-73.5 -231t-98 -227.5t-125 -208.5t-150 -169.5
t-178 -115t-205 -42z" />
    <glyph glyph-name="Ydieresis" unicode="&#x178;" horiz-adv-x="1032" 
d="M657 1526q1 30 41.5 70t67.5 40q28 0 69.5 -31.5t38.5 -60.5q-1 -30 -41.5 -70t-66.5 -40q-29 0 -70.5 32t-38.5 60zM291 1526q1 30 41 70t67 40q28 0 70 -31.5t39 -60.5q-1 -30 -42 -70t-67 -40q-29 0 -70 32t-38 60zM582 0h-179l35 500l-364 753h194l285 -585l346 585
h180l-463 -749z" />
    <glyph glyph-name="Zacute" unicode="&#x179;" horiz-adv-x="1056" 
d="M365 1354l284 297l180 -35l-321 -262h-143zM905 0h-831l8 121l688 983h-627l37 149h803l-10 -139l-684 -969h651z" />
    <glyph glyph-name="zacute" unicode="&#x17a;" horiz-adv-x="751" 
d="M285 1047l284 296l181 -34l-322 -262h-143zM662 0h-631l8 111l465 686l-402 -11l19 136h590l-11 -115l-467 -680l451 10z" />
    <glyph glyph-name="Zdotaccent" unicode="&#x17b;" horiz-adv-x="1056" 
d="M461 1516q1 33 47 77.5t76 44.5q31 0 76 -35.5t42 -68.5q-1 -33 -47 -77t-75 -44q-32 0 -77 35.5t-42 67.5zM905 0h-831l8 121l688 983h-627l37 149h803l-10 -139l-684 -969h651z" />
    <glyph glyph-name="zdotaccent" unicode="&#x17c;" horiz-adv-x="751" 
d="M291 1208q1 33 47 78t76 45q31 0 76 -35.5t42 -68.5q-1 -33 -47 -77t-75 -44q-32 0 -77 35t-42 67zM662 0h-631l8 111l465 686l-402 -11l19 136h590l-11 -115l-467 -680l451 10z" />
    <glyph glyph-name="Zcaron" unicode="&#x17d;" horiz-adv-x="1056" 
d="M612 1362h-123l-233 297h137l168 -158l189 158h137zM905 0h-831l8 121l688 983h-627l37 149h803l-10 -139l-684 -969h651z" />
    <glyph glyph-name="zcaron" unicode="&#x17e;" horiz-adv-x="751" 
d="M487 1055h-122l-234 297h137l168 -158l189 158h137zM662 0h-631l8 111l465 686l-402 -11l19 136h590l-11 -115l-467 -680l451 10z" />
    <glyph glyph-name="Acaron" unicode="&#x1cd;" horiz-adv-x="1103" 
d="M672 1362h-123l-234 297h138l168 -158l188 158h137zM717 532l-133 541l-222 -541h355zM848 0l-96 391h-449l-160 -391h-174l537 1253h209l315 -1253h-182z" />
    <glyph glyph-name="acaron" unicode="&#x1ce;" horiz-adv-x="901" 
d="M590 1055h-123l-234 297h138l168 -158l188 158h137zM594 -25l-8 242q-59 -112 -143 -177t-156 -65q-100 0 -158.5 87t-58.5 274q0 162 56 300.5t161.5 224t238.5 85.5q73 0 146.5 -17t122.5 -46l-62 -883zM362 113q24 0 51 13.5t57.5 46.5t57 81.5t48.5 126.5t32 174
l17 231q-72 35 -148 35q-102 0 -167.5 -120.5t-65.5 -346.5q0 -116 31 -178.5t87 -62.5z" />
    <glyph glyph-name="AEacute" unicode="&#x1fc;" horiz-adv-x="1492" 
d="M766 1354l285 297l180 -35l-322 -262h-143zM731 1116l-334 -584h305l41 584h-12zM666 0l26 391h-377l-223 -391h-174l735 1253h774l-30 -141l-475 6l-27 -397h440l-28 -137l-422 6l-31 -453l528 6l-30 -143h-686z" />
    <glyph glyph-name="aeacute" unicode="&#x1fd;" horiz-adv-x="1275" 
d="M674 1047l284 296l181 -34l-322 -262h-143zM887 -25q-110 0 -183 65t-96 191q-74 -127 -163 -191.5t-169 -64.5q-89 0 -147.5 84t-58.5 256q0 178 56 321t162.5 226.5t243.5 83.5q135 0 273 -74q92 74 203 74q104 0 164.5 -61.5t60.5 -147.5q0 -94 -68.5 -168t-171 -112
t-219.5 -43v-39q0 -137 43 -201.5t109 -64.5q102 0 243 120l50 -90q-69 -68 -158 -116t-174 -48zM969 829q-71 0 -121.5 -83t-67.5 -236q133 9 212 66t79 141q0 50 -27.5 81t-74.5 31zM360 113q53 0 121 71.5t119 198.5q9 222 102 373q-106 69 -217 69q-109 0 -175 -126.5
t-66 -364.5q0 -103 32.5 -162t83.5 -59z" />
    <glyph glyph-name="Oslashacute" unicode="&#x1fe;" horiz-adv-x="1175" 
d="M469 1354l285 297l180 -35l-322 -262h-143zM254 575q0 -253 108 -368l365 899q-61 31 -143 31q-67 0 -125 -32.5t-105 -98t-73.5 -176t-26.5 -255.5zM588 117q68 0 126.5 32.5t106.5 97.5t75.5 176t27.5 255q0 233 -101 356l-364 -895q56 -22 129 -22zM516 -25
q-62 0 -117 15l-65 -160h-125l84 205q-105 64 -164 190t-59 299q0 156 35 284.5t92.5 214t135 144.5t159 85t167.5 26q71 0 129 -18l66 159h125l-84 -209q99 -66 155 -189.5t56 -291.5q0 -156 -35 -284.5t-93 -214t-135.5 -144.5t-159 -85t-167.5 -26z" />
    <glyph glyph-name="oslashacute" unicode="&#x1ff;" horiz-adv-x="897" 
d="M346 1047l285 296l180 -34l-322 -262h-143zM240 377q0 -132 45 -205l252 643q-37 16 -76 16q-62 0 -108 -47.5t-69 -122t-33.5 -146t-10.5 -138.5zM436 90q62 0 108 46.5t69 120t33.5 146t10.5 142.5q0 125 -43 198l-249 -639q28 -14 71 -14zM383 -25q-28 0 -68 7
l-49 -127h-104l63 163q-71 44 -111 134t-40 219q0 82 16.5 162t51.5 155t85.5 132t124.5 91.5t162 34.5q41 0 72 -8l51 133h104l-65 -170q70 -46 108.5 -134.5t38.5 -215.5q0 -82 -16.5 -162t-51.5 -155.5t-85.5 -132.5t-124.5 -91.5t-162 -34.5z" />
    <glyph glyph-name="Scommaaccent" unicode="&#x218;" horiz-adv-x="903" 
d="M477 539l-112 57q-124 63 -183 134.5t-59 176.5q0 161 122.5 266t305.5 105q197 0 309 -47l-41 -154q-192 66 -334 66q-81 0 -134.5 -53t-53.5 -125q0 -69 36.5 -120.5t133.5 -101.5l117 -59q123 -62 180 -135t57 -170q0 -181 -140 -292.5t-355 -111.5q-171 0 -289 50
l45 151q178 -66 338 -63q97 -1 159 54.5t62 139.5q0 78 -33.5 130t-130.5 102zM305 -172q3 28 34.5 55t61.5 27q32 0 70 -44t35 -81t-35 -100.5t-111 -192.5l-88 35q86 155 90 203q1 9 -28.5 42t-28.5 56z" />
    <glyph glyph-name="scommaaccent" unicode="&#x219;" horiz-adv-x="708" 
d="M311 -25q-148 0 -276 56l43 141q154 -70 270 -70q52 0 79.5 31t27.5 76q0 71 -95 149l-116 99q-64 54 -92.5 104t-28.5 121q0 119 90.5 191.5t204.5 72.5q63 0 138 -15t106 -30l-44 -135q-141 57 -233 57q-49 0 -76.5 -28.5t-27.5 -75.5q0 -32 20 -65t76 -81l117 -98
q66 -56 93 -103t27 -110q0 -67 -28.5 -123.5t-73.5 -91t-97.5 -53.5t-103.5 -19zM182 -172q3 28 34.5 55t62.5 27q32 0 69.5 -44t34.5 -81t-35 -101.5t-110 -191.5l-88 35q86 155 90 203q1 9 -29 42t-29 56z" />
    <glyph glyph-name="uni021A" unicode="&#x21a;" horiz-adv-x="1028" 
d="M422 0h-41l78 1112l-379 -6l35 147h913l-35 -147l-356 6l-78 -1112h-41l-59 -111q37 -17 52.5 -25t40.5 -23.5t34 -28t16.5 -32t5.5 -42.5q-5 -74 -87.5 -134.5t-239.5 -74.5l-17 88q103 12 155.5 31.5t55.5 60.5q1 29 -34 50.5t-115 43.5l-4 11z" />
    <glyph glyph-name="uni021B" unicode="&#x21b;" horiz-adv-x="663" 
d="M489 -262q-5 -74 -87.5 -134.5t-239.5 -74.5l-17 88q103 12 155.5 31.5t55.5 60.5q1 29 -34 50.5t-115 43.5l-4 11l88 161q-69 8 -115.5 58t-46.5 129q0 57 64 641h-146l12 98l146 21q18 171 20 188l168 29q-10 -101 -24 -217h295l-31 -119h-277q-59 -490 -59 -576
q0 -52 25 -78t67 -26q75 0 193 84l36 -101q-125 -95 -227 -120l-51 -97q37 -17 52.5 -25t40.5 -23.5t34 -28t16.5 -32t5.5 -42.5z" />
    <glyph glyph-name="circumflex" unicode="&#x2c6;" horiz-adv-x="854" 
d="M604 1047l-168 157l-188 -157h-137l274 296h123l233 -296h-137z" />
    <glyph glyph-name="caron" unicode="&#x2c7;" horiz-adv-x="854" 
d="M467 1055h-123l-233 297h137l168 -158l188 158h137z" />
    <glyph glyph-name="breve" unicode="&#x2d8;" horiz-adv-x="876" 
d="M424 1184q80 0 130.5 49.5t72.5 132.5h102q-7 -129 -103.5 -223t-219.5 -94q-132 0 -200.5 90.5t-60.5 226.5h103q25 -182 176 -182z" />
    <glyph glyph-name="dotaccent" unicode="&#x2d9;" horiz-adv-x="444" 
d="M100 1208q1 33 47 78t76 45q31 0 76.5 -35.5t42.5 -68.5q-1 -33 -47.5 -77t-75.5 -44q-32 0 -77 35t-42 67z" />
    <glyph glyph-name="ring" unicode="&#x2da;" horiz-adv-x="692" 
d="M537 1235q-4 -74 -66.5 -128t-138.5 -54q-79 0 -131.5 49t-46.5 133q4 75 66 129.5t138 54.5q80 0 132.5 -48.5t46.5 -135.5zM252 1235q-3 -40 22.5 -66t63.5 -26t67.5 26t32.5 66q3 43 -23.5 69.5t-64.5 26.5t-66.5 -26.5t-31.5 -69.5z" />
    <glyph glyph-name="ogonek" unicode="&#x2db;" horiz-adv-x="626" 
d="M147 -276q4 53 41 109t81.5 95.5t95.5 71.5h116q-90 -63 -148 -132.5t-61 -125.5q-3 -39 21.5 -61.5t60.5 -22.5q32 0 86 27l23 -84q-84 -43 -156 -43q-82 0 -123.5 44.5t-36.5 121.5z" />
    <glyph glyph-name="tilde" unicode="&#x2dc;" horiz-adv-x="839" 
d="M686 1284l62 -72q-116 -141 -216 -141q-40 0 -130.5 34t-114.5 34q-54 0 -140 -72l-55 72q130 137 219 137q46 0 128 -31t108 -31q65 0 139 70z" />
    <glyph glyph-name="hungarumlaut" unicode="&#x2dd;" horiz-adv-x="950" 
d="M371 1047l284 296l181 -34l-322 -262h-143zM115 1047l284 296l181 -34l-322 -262h-143z" />
    <glyph glyph-name="commaaccent" unicode="&#x326;" horiz-adv-x="501" 
d="M166 -172q3 28 34.5 55t61.5 27q32 0 70 -44t35 -81t-35 -100.5t-111 -192.5l-88 35q86 155 90 203q1 9 -28.5 42t-28.5 56z" />
    <glyph glyph-name="Wgrave" unicode="&#x1e80;" horiz-adv-x="1708" 
d="M1036 1354h-143l-285 262l185 35zM1114 0l-237 977l-392 -977h-186l-186 1253h180l143 -1001l391 1001h160l242 -1007l295 1007h166l-387 -1253h-189z" />
    <glyph glyph-name="wgrave" unicode="&#x1e81;" horiz-adv-x="1302" 
d="M834 1047h-144l-284 262l184 34zM668 0l-37 446q-97 -278 -275 -448l-168 2l-65 922l162 22l49 -799q96 105 168 277t100 364l-10 136h158l53 -785q112 121 183 329.5t99 455.5h150q-13 -121 -44 -249t-79.5 -255t-120 -238.5t-155.5 -179.5h-168z" />
    <glyph glyph-name="Wacute" unicode="&#x1e82;" horiz-adv-x="1708" 
d="M799 1354l284 297l181 -35l-322 -262h-143zM1114 0l-237 977l-392 -977h-186l-186 1253h180l143 -1001l391 1001h160l242 -1007l295 1007h166l-387 -1253h-189z" />
    <glyph glyph-name="wacute" unicode="&#x1e83;" horiz-adv-x="1302" 
d="M588 1047l284 296l181 -34l-322 -262h-143zM668 0l-37 446q-97 -278 -275 -448l-168 2l-65 922l162 22l49 -799q96 105 168 277t100 364l-10 136h158l53 -785q112 121 183 329.5t99 455.5h150q-13 -121 -44 -249t-79.5 -255t-120 -238.5t-155.5 -179.5h-168z" />
    <glyph glyph-name="Wdieresis" unicode="&#x1e84;" horiz-adv-x="1708" 
d="M987 1526q1 30 41.5 70t67.5 40q28 0 69.5 -31.5t38.5 -60.5q-1 -30 -41.5 -70t-66.5 -40q-29 0 -70.5 32t-38.5 60zM621 1526q1 30 41 70t67 40q28 0 70 -31.5t39 -60.5q-1 -30 -42 -70t-67 -40q-29 0 -70 32t-38 60zM1114 0l-237 977l-392 -977h-186l-186 1253h180
l143 -1001l391 1001h160l242 -1007l295 1007h166l-387 -1253h-189z" />
    <glyph glyph-name="wdieresis" unicode="&#x1e85;" horiz-adv-x="1302" 
d="M776 1219q1 30 41.5 70t67.5 40q28 0 69.5 -31.5t38.5 -60.5q-1 -30 -42 -70.5t-66 -40.5q-29 0 -70.5 32.5t-38.5 60.5zM410 1219q1 30 41 70t67 40q28 0 70 -31.5t39 -60.5q-1 -30 -42 -70.5t-67 -40.5q-29 0 -70 32.5t-38 60.5zM668 0l-37 446q-97 -278 -275 -448
l-168 2l-65 922l162 22l49 -799q96 105 168 277t100 364l-10 136h158l53 -785q112 121 183 329.5t99 455.5h150q-13 -121 -44 -249t-79.5 -255t-120 -238.5t-155.5 -179.5h-168z" />
    <glyph glyph-name="Ygrave" unicode="&#x1ef2;" horiz-adv-x="1032" 
d="M778 1354h-143l-285 262l185 35zM582 0h-179l35 500l-364 753h194l285 -585l346 585h180l-463 -749z" />
    <glyph glyph-name="ygrave" unicode="&#x1ef3;" horiz-adv-x="841" 
d="M659 1047h-143l-285 262l185 34zM-106 -471q-48 0 -109 12l20 154q59 -12 127 -12q225 0 408 292h-74l-135 936l166 33l117 -835q162 328 227 813h156q-7 -84 -25.5 -184t-48 -215.5t-73.5 -231t-98 -227.5t-125 -208.5t-150 -169.5t-178 -115t-205 -42z" />
    <glyph glyph-name="endash" unicode="&#x2013;" horiz-adv-x="931" 
d="M840 559v-31l-39 -92h-709v31l41 92h707z" />
    <glyph glyph-name="emdash" unicode="&#x2014;" horiz-adv-x="1341" 
d="M1249 559v-31l-39 -92h-1118v31l41 92h1116z" />
    <glyph glyph-name="quoteleft" unicode="&#x2018;" horiz-adv-x="471" 
d="M371 1032q-3 -34 -41 -66t-70 -32q-34 0 -78 45.5t-41 97.5q6 81 166 369l105 -39q-8 -17 -30 -64.5t-31 -67.5t-23 -52.5t-20 -51t-7 -30.5q-1 -10 35 -46t35 -63z" />
    <glyph glyph-name="quoteright" unicode="&#x2019;" horiz-adv-x="471" 
d="M182 1319q3 34 41 66t70 32q34 0 78 -45.5t41 -97.5q-6 -81 -166 -369l-105 39q8 17 30 64.5t31 67.5t23 52.5t20 51t7 30.5q1 10 -35 46t-35 63z" />
    <glyph glyph-name="quotesinglbase" unicode="&#x201a;" horiz-adv-x="471" 
d="M96 100q3 34 41 66.5t70 32.5q34 0 78 -46t41 -98q-5 -80 -166 -368l-105 39q8 17 30 64.5t31 67.5t23 52.5t20 51t7 30.5q1 10 -35 45.5t-35 62.5z" />
    <glyph glyph-name="quotedblleft" unicode="&#x201c;" horiz-adv-x="794" 
d="M694 1032q-3 -34 -40.5 -66t-69.5 -32q-34 0 -78 45.5t-41 97.5q6 81 166 369l104 -39q-7 -14 -22 -46.5t-22 -48.5t-19 -42.5t-18.5 -42t-13.5 -34.5t-10.5 -31t-4.5 -21q-1 -10 34.5 -46t34.5 -63zM371 1032q-3 -34 -41 -66t-70 -32q-34 0 -78 45.5t-41 97.5
q6 81 166 369l105 -39q-8 -17 -30 -64.5t-31 -67.5t-23 -52.5t-20 -51t-7 -30.5q-1 -10 35 -46t35 -63z" />
    <glyph glyph-name="quotedblright" unicode="&#x201d;" horiz-adv-x="784" 
d="M496 1319q3 34 40.5 66t69.5 32q34 0 78 -45.5t41 -97.5q-6 -81 -166 -369l-104 39q7 14 22 46.5t22 48.5t19 42.5t18.5 42t13.5 34.5t10.5 31t4.5 21q1 10 -34.5 46t-34.5 63zM182 1319q3 34 41 66t70 32q34 0 78 -45.5t41 -97.5q-6 -81 -166 -369l-105 39q8 17 30 64.5
t31 67.5t23 52.5t20 51t7 30.5q1 10 -35 46t-35 63z" />
    <glyph glyph-name="quotedblbase" unicode="&#x201e;" horiz-adv-x="788" 
d="M414 100q3 34 40.5 66.5t69.5 32.5q34 0 78 -46t41 -98q-5 -80 -166 -368l-104 39q7 14 22 46.5t22 48.5t19 42.5t18.5 42t13.5 34.5t10.5 31t4.5 21q1 10 -34.5 45.5t-34.5 62.5zM96 100q3 34 41 66.5t70 32.5q34 0 78 -46t41 -98q-5 -80 -166 -368l-105 39
q8 17 30 64.5t31 67.5t23 52.5t20 51t7 30.5q1 10 -35 45.5t-35 62.5z" />
    <glyph glyph-name="bullet" unicode="&#x2022;" horiz-adv-x="630" 
d="M111 539q4 58 80.5 134.5t127.5 76.5q52 0 127.5 -63.5t71.5 -119.5q-3 -56 -80.5 -132.5t-126.5 -76.5q-53 0 -128 63t-72 118z" />
    <glyph glyph-name="ellipsis" unicode="&#x2026;" horiz-adv-x="1509" 
d="M70 82q1 35 48.5 81t78.5 46q32 0 80 -38t45 -71q-1 -34 -49 -79.5t-80 -45.5t-79 37t-44 70zM1108 82q1 35 48.5 81t78.5 46q32 0 80 -38t45 -71q-1 -34 -49 -79.5t-80 -45.5t-79 37t-44 70zM588 82q1 35 48.5 81t78.5 46q32 0 80 -38t45 -71q-1 -34 -49 -79.5
t-80 -45.5t-79 37t-44 70z" />
    <glyph glyph-name="guilsinglleft" unicode="&#x2039;" horiz-adv-x="679" 
d="M436 66l-344 409l402 410l88 -72l-283 -338l233 -338z" />
    <glyph glyph-name="guilsinglright" unicode="&#x203a;" horiz-adv-x="679" 
d="M244 885l344 -410l-402 -409l-88 71l283 338l-234 338z" />
    <glyph glyph-name="fraction" unicode="&#x2044;" horiz-adv-x="432" 
d="M-166 8l660 1288l104 -49l-659 -1288z" />
    <glyph glyph-name="Euro" unicode="&#x20ac;" 
d="M977 59q-63 -34 -167 -59t-210 -25q-435 0 -473 449h-164l39 102l104 21h19q0 37 2 57q4 48 8 76h-153l36 102l107 21h33q58 228 203.5 351.5t349.5 123.5q88 0 184.5 -17t146.5 -40l-59 -156q-56 27 -148.5 45t-177.5 18q-123 0 -202 -74t-113 -251h510l-43 -123h-483
q0 -5 -1 -16.5t-1 -16.5q-5 -93 -5 -100h453l-43 -123h-401q23 -155 102.5 -224t216.5 -69q164 0 311 70z" />
    <glyph glyph-name="minus" unicode="&#x2212;" 
d="M895 610l-8 -133h-762l8 133h762z" />
    <glyph glyph-name="idotaccent" horiz-adv-x="471" 
d="M174 1225q0 33 40.5 79t68.5 46t65 -35t37 -68q0 -29 -40.5 -75t-68.5 -46q-29 0 -65.5 34t-36.5 65zM172 918l168 28l-68 -946h-166z" />
    <glyph glyph-name="caron.alt" horiz-adv-x="567" 
d="M223 1354q4 24 40 44.5t69 20.5q31 0 52.5 -52t18.5 -107q-4 -58 -42.5 -128t-127.5 -184l-69 45q48 76 70.5 122.5t25.5 84.5q2 40 -18 93t-19 61z" />
    <glyph glyph-name="caron.alt.sc" horiz-adv-x="567" 
d="M223 965q4 24 40 44.5t69 20.5q31 0 52.5 -52.5t18.5 -107.5q-4 -58 -42.5 -127.5t-127.5 -183.5l-69 45q48 76 70.5 122.5t25.5 84.5q2 40 -18 93t-19 61z" />
    <glyph glyph-name="caron.alt.case" horiz-adv-x="567" 
d="M223 1190q4 24 40 44.5t69 20.5q31 0 52.5 -52t18.5 -107q-4 -58 -42.5 -128t-127.5 -184l-69 45q48 76 70.5 122.5t25.5 84.5q2 40 -18 93t-19 61z" />
    <glyph glyph-name="commaaccent.case" horiz-adv-x="501" 
d="M166 -172q3 28 34.5 55t61.5 27q32 0 70 -44t35 -81t-35 -100.5t-111 -192.5l-88 35q86 155 90 203q1 9 -28.5 42t-28.5 56z" />
    <glyph glyph-name="acute.case" horiz-adv-x="686" 
d="M111 1354l284 297l180 -35l-321 -262h-143z" />
    <glyph glyph-name="grave.case" horiz-adv-x="673" 
d="M551 1354h-143l-285 262l184 35z" />
    <glyph glyph-name="hungarumlaut.case" horiz-adv-x="950" 
d="M371 1354l284 297l181 -35l-322 -262h-143zM115 1354l284 297l181 -35l-322 -262h-143z" />
    <glyph glyph-name="circumflex.case" horiz-adv-x="854" 
d="M604 1354l-168 157l-188 -157h-137l274 297h123l233 -297h-137z" />
    <glyph glyph-name="caron.case" horiz-adv-x="854" 
d="M467 1362h-123l-233 297h137l168 -158l188 158h137z" />
    <glyph glyph-name="breve.case" horiz-adv-x="876" 
d="M424 1491q80 0 130.5 49.5t72.5 132.5h102q-7 -129 -103.5 -223t-219.5 -94q-132 0 -200.5 90.5t-60.5 226.5h103q25 -182 176 -182z" />
    <glyph glyph-name="tilde.case" horiz-adv-x="839" 
d="M686 1591l62 -71q-117 -142 -216 -142q-40 0 -130.5 34t-114.5 34q-54 0 -140 -72l-55 72q130 137 219 137q46 0 128 -30.5t108 -30.5q66 0 139 69z" />
    <glyph glyph-name="macron.case" horiz-adv-x="886" 
d="M717 1567l-2 -31l-43 -94h-502l2 31l43 94h502z" />
    <glyph glyph-name="dieresis.case" horiz-adv-x="876" 
d="M512 1526q1 30 41.5 70t67.5 40q28 0 69.5 -31.5t38.5 -60.5q-1 -30 -41.5 -70t-66.5 -40q-29 0 -70.5 32t-38.5 60zM145 1526q1 30 41.5 70t67.5 40q28 0 69.5 -31.5t38.5 -60.5q-1 -30 -41.5 -70t-66.5 -40q-29 0 -70.5 32t-38.5 60z" />
    <glyph glyph-name="dotaccent.case" horiz-adv-x="444" 
d="M100 1516q1 33 47 77.5t76 44.5q31 0 76.5 -35.5t42.5 -68.5q-1 -33 -47.5 -77t-75.5 -44q-32 0 -77 35.5t-42 67.5z" />
    <glyph glyph-name="ring.case" horiz-adv-x="692" 
d="M537 1542q-4 -74 -66.5 -128t-138.5 -54q-79 0 -131.5 49t-46.5 133q4 75 66 129.5t138 54.5q80 0 132.5 -48.5t46.5 -135.5zM252 1542q-3 -40 22.5 -66t63.5 -26t67.5 26t32.5 66q3 43 -23.5 69.5t-64.5 26.5t-66.5 -26.5t-31.5 -69.5z" />
    <glyph glyph-name="cedilla.case" horiz-adv-x="591" 
d="M180 -186l101 186h96l-60 -111q38 -18 53 -25t40 -23t34.5 -28.5t17 -32t5.5 -42.5q-5 -74 -88 -134.5t-240 -74.5l-16 88q103 12 155.5 31.5t55.5 60.5q1 29 -34.5 50.5t-115.5 43.5z" />
    <glyph glyph-name="ogonek.case" horiz-adv-x="626" 
d="M147 -276q4 53 41 109t81.5 95.5t95.5 71.5h116q-90 -63 -148 -132.5t-61 -125.5q-3 -39 21.5 -61.5t60.5 -22.5q32 0 86 27l23 -84q-84 -43 -156 -43q-82 0 -123.5 44.5t-36.5 121.5z" />
    <glyph glyph-name="zero.fit" 
d="M950 786q0 -213 -38.5 -372t-109 -253.5t-160.5 -140t-200 -45.5q-172 0 -272 133t-100 365q0 209 38.5 366.5t108 252t159 140.5t199.5 46q174 0 274.5 -134t100.5 -358zM508 104q264 0 264 611q0 203 -66.5 317.5t-189.5 114.5q-268 0 -268 -604q0 -209 66 -324
t194 -115z" />
    <glyph glyph-name="one.fit" horiz-adv-x="724" 
d="M520 0h-172l76 1085l-318 -129l-32 154q141 42 420 143h114z" />
    <glyph glyph-name="two.fit" horiz-adv-x="976" 
d="M827 0h-759l14 131q334 309 469.5 477.5t136.5 300.5q0 102 -63 163t-168 61q-103 0 -271 -84l-34 141q177 88 354 88q161 0 263.5 -88.5t102.5 -239.5q0 -156 -141.5 -345.5t-456.5 -465.5l586 8z" />
    <glyph glyph-name="three.fit" horiz-adv-x="905" 
d="M311 -25q-164 0 -299 41l47 152q152 -49 303 -49q133 0 208 60.5t75 168.5t-76 173t-207 65q-36 0 -129 -6l-18 131q203 0 313.5 66t110.5 173q0 84 -56.5 134.5t-148.5 50.5q-62 0 -133 -19.5t-127 -50.5l-37 135q70 32 169.5 55t185.5 23q146 0 233.5 -76.5
t87.5 -197.5q0 -115 -76.5 -199.5t-191.5 -124.5q133 -26 203.5 -106.5t70.5 -198.5q0 -78 -35.5 -150t-99 -127.5t-161 -89t-212.5 -33.5z" />
    <glyph glyph-name="four.fit" horiz-adv-x="1087" 
d="M643 406l41 618l-467 -618h426zM958 268h-159l-19 -268h-166l19 268h-598l8 117l662 868h163l-59 -847h197z" />
    <glyph glyph-name="five.fit" horiz-adv-x="987" 
d="M303 -25q-128 0 -254 37l51 150q146 -51 308 -51q132 0 211 70.5t79 180.5q0 115 -88 181.5t-235 66.5q-109 0 -203 -22l88 665h653l-32 -141h-492l-49 -375q84 15 135 15q172 0 283 -90.5t110 -243.5q2 -200 -151.5 -321.5t-413.5 -121.5z" />
    <glyph glyph-name="six.fit" horiz-adv-x="976" 
d="M889 446q0 -108 -38 -199t-100.5 -149.5t-140 -90.5t-159.5 -32q-175 0 -278 130t-103 374q0 397 158.5 598t443.5 201q126 0 235 -33l-41 -153q-139 47 -282 47q-278 0 -328 -459q164 94 305 94q153 0 240.5 -89t87.5 -239zM487 104q107 0 169.5 71.5t62.5 217.5
q0 110 -63 179t-173 69q-93 0 -235 -70q-2 -31 -2 -100q0 -175 69 -271t172 -96z" />
    <glyph glyph-name="seven.fit" horiz-adv-x="970" 
d="M350 -27l-176 50l565 1077h-661l39 153h817l-8 -133q-574 -1147 -576 -1147z" />
    <glyph glyph-name="eight.fit" horiz-adv-x="978" 
d="M434 -25q-174 0 -276.5 79t-102.5 222q0 50 16.5 95.5t41 80t66 70.5t79 62t92.5 59q-100 62 -147 130.5t-47 170.5q0 149 119 241.5t280 90.5q150 2 243 -65.5t93 -184.5q0 -71 -38.5 -137t-92 -113t-131.5 -96q145 -82 204.5 -151t59.5 -173q0 -108 -67 -196.5
t-172 -136.5t-220 -48zM317 983q0 -71 43.5 -123t161.5 -121q109 72 159 126t50 120q0 73 -62.5 119.5t-162.5 46.5q-80 0 -134.5 -46t-54.5 -122zM494 102q90 0 163.5 52t73.5 143q0 82 -57 139.5t-219 145.5q-113 -70 -170.5 -133.5t-57.5 -139.5q0 -93 75 -150t192 -57z
" />
    <glyph glyph-name="nine.fit" horiz-adv-x="987" 
d="M504 610q95 0 233 70q4 62 4 100q0 175 -69 271t-172 96q-107 0 -169.5 -71.5t-62.5 -217.5q0 -110 63 -179t173 -69zM287 -25q-50 0 -114.5 10t-102.5 23l39 146q115 -39 206 -39q77 0 141.5 24.5t119.5 76t94 141t57 212.5q-165 -92 -301 -92q-153 0 -240.5 90
t-87.5 240q0 108 38 199t101 149.5t140.5 90.5t159.5 32q175 0 278 -130t103 -374q0 -197 -49.5 -352t-136.5 -251.5t-200 -146t-245 -49.5z" />
    <glyph glyph-name="zero.osf" horiz-adv-x="997" 
d="M938 582q0 -271 -138.5 -439t-353.5 -168q-173 0 -280 119.5t-107 323.5q0 266 138.5 436t349.5 170q175 0 283 -119t108 -323zM508 119q111 0 185.5 108.5t74.5 300.5q0 172 -76.5 261.5t-206.5 89.5q-111 0 -186.5 -109.5t-75.5 -298.5q0 -174 77.5 -263t207.5 -89z
" />
    <glyph glyph-name="one.osf" horiz-adv-x="677" 
d="M492 0h-173l62 836l-318 -129l-32 153q126 37 420 144h114z" />
    <glyph glyph-name="two.osf" horiz-adv-x="915" 
d="M809 0h-760l14 131q212 130 339.5 235.5t174 178t46.5 139.5q0 89 -63 142t-167 53q-102 0 -270 -84l-35 141q177 88 354 88q163 0 264 -81.5t101 -229.5q0 -256 -510 -574l545 8z" />
    <glyph glyph-name="three.osf" horiz-adv-x="856" 
d="M274 -279q-164 0 -299 41l48 152q152 -49 303 -49q132 0 207 60.5t75 168.5t-75.5 173t-206.5 65q-36 0 -129 -6l-19 131q203 0 313.5 66t110.5 173q0 84 -56.5 134.5t-148.5 50.5q-62 0 -133 -19.5t-127 -50.5l-37 135q70 32 169.5 55t185.5 23q146 0 233.5 -76.5
t87.5 -197.5q0 -115 -76.5 -199.5t-191.5 -124.5q133 -26 203.5 -106.5t70.5 -198.5q0 -78 -35.5 -150t-99 -127.5t-161 -89t-212.5 -33.5z" />
    <glyph glyph-name="four.osf" horiz-adv-x="942" 
d="M571 137l43 635l-469 -635h426zM887 0h-160l-18 -268h-166l18 268h-598l8 117l664 887h164l-62 -867h197z" />
    <glyph glyph-name="five.osf" horiz-adv-x="866" 
d="M217 -274q-132 0 -254 36l51 150q146 -51 308 -51q132 0 211 71t79 181q0 115 -88 181t-235 66q-109 0 -203 -22l88 666h653l-32 -142h-492l-49 -375q84 15 135 15q172 0 283 -90.5t110 -243.5q2 -200 -151.5 -321t-413.5 -121z" />
    <glyph glyph-name="six.osf" horiz-adv-x="976" 
d="M905 446q0 -108 -38 -199t-100.5 -149.5t-140 -90.5t-159.5 -32q-175 0 -278 130t-103 374q0 397 158.5 598t443.5 201q127 0 236 -33l-41 -153q-139 47 -283 47q-278 0 -328 -459q164 94 306 94q153 0 240 -89t87 -239zM504 104q107 0 169 71.5t62 217.5
q0 110 -62.5 179t-172.5 69q-94 0 -236 -70q-2 -31 -2 -100q0 -175 69.5 -271t172.5 -96z" />
    <glyph glyph-name="seven.osf" horiz-adv-x="890" 
d="M307 -276l-164 49l566 1077h-674l39 154h817l-8 -134q-574 -1146 -576 -1146z" />
    <glyph glyph-name="eight.osf" horiz-adv-x="976" 
d="M438 -25q-174 0 -276.5 79t-102.5 222q0 50 16.5 95.5t41 80t66 70.5t79 62t92.5 59q-100 62 -147 130.5t-47 170.5q0 149 119 241.5t280 90.5q150 2 243 -65.5t93 -184.5q0 -71 -38.5 -137t-92 -113t-131.5 -96q145 -82 204.5 -151t59.5 -173q0 -108 -67 -196.5
t-172 -136.5t-220 -48zM322 983q0 -71 43 -123.5t161 -120.5q109 72 159 126t50 120q0 73 -62.5 119.5t-162.5 46.5q-80 0 -134 -46t-54 -122zM498 102q90 0 163.5 52t73.5 143q0 82 -57 139.5t-219 145.5q-113 -70 -170.5 -133.5t-57.5 -139.5q0 -93 75 -150t192 -57z" />
    <glyph glyph-name="nine.osf" horiz-adv-x="970" 
d="M473 356q96 0 234 70q4 62 4 100q0 175 -69.5 271t-172.5 96q-107 0 -169 -71.5t-62 -217.5q0 -110 62.5 -179t172.5 -69zM256 -279q-50 0 -114.5 10t-102.5 23l39 146q115 -39 207 -39q159 0 267.5 107.5t143.5 346.5q-165 -92 -301 -92q-153 0 -240 90t-87 240
q0 108 38 199t100.5 149.5t140 90.5t159.5 32q175 0 278 -130t103 -374q0 -197 -49.5 -352t-136.5 -251.5t-200 -146t-245 -49.5z" />
    <glyph glyph-name="zero.tosf" horiz-adv-x="972" 
d="M926 582q0 -271 -138.5 -439t-353.5 -168q-173 0 -280 119.5t-107 323.5q0 266 138.5 436t349.5 170q175 0 283 -119t108 -323zM496 119q111 0 185.5 108.5t74.5 300.5q0 172 -76.5 261.5t-206.5 89.5q-111 0 -186.5 -109.5t-75.5 -298.5q0 -174 77.5 -263t207.5 -89z
" />
    <glyph glyph-name="one.tosf" horiz-adv-x="972" 
d="M678 0h-172l61 836l-317 -129l-33 153q126 37 420 144h115z" />
    <glyph glyph-name="two.tosf" horiz-adv-x="972" 
d="M842 0h-760l14 131q161 99 272.5 182t173 149.5t87.5 119.5t26 102q0 89 -62.5 142t-166.5 53q-102 0 -270 -84l-35 141q177 88 354 88q163 0 264 -81.5t101 -229.5q0 -256 -510 -574l544 8z" />
    <glyph glyph-name="three.tosf" horiz-adv-x="972" 
d="M330 -279q-164 0 -299 41l47 152q152 -49 303 -49q133 0 208 60.5t75 168.5t-76 173t-207 65q-36 0 -129 -6l-19 131q203 0 313.5 66t110.5 173q0 84 -56.5 134.5t-147.5 50.5q-62 0 -133 -19.5t-127 -50.5l-37 135q70 32 169 55t185 23q146 0 233.5 -76.5t87.5 -197.5
q0 -115 -76.5 -199.5t-191.5 -124.5q133 -26 204 -107t71 -198q0 -78 -35.5 -150t-99 -127.5t-161 -89t-212.5 -33.5z" />
    <glyph glyph-name="four.tosf" horiz-adv-x="972" 
d="M592 137l43 635l-469 -635h426zM907 0h-159l-19 -268h-166l19 268h-598l8 117l663 887h164l-61 -867h196z" />
    <glyph glyph-name="five.tosf" horiz-adv-x="972" 
d="M276 -274q-131 0 -253 36l51 150q146 -51 307 -51q132 0 211.5 71t79.5 181q0 115 -88 181t-236 66q-110 0 -203 -22l88 666h654l-33 -142h-492l-49 -375q84 15 136 15q172 0 283 -90.5t110 -243.5q2 -200 -152 -321t-414 -121z" />
    <glyph glyph-name="six.tosf" horiz-adv-x="972" 
d="M911 446q0 -108 -38 -199t-100.5 -149.5t-140 -90.5t-159.5 -32q-175 0 -278 130t-103 374q0 397 158.5 598t443.5 201q127 0 236 -33l-41 -153q-139 47 -283 47q-277 0 -327 -459q164 94 305 94q153 0 240 -89t87 -239zM510 104q107 0 169 71.5t62 217.5
q0 110 -62.5 179t-172.5 69q-94 0 -236 -70q-2 -31 -2 -100q0 -175 69.5 -271t172.5 -96z" />
    <glyph glyph-name="seven.tosf" horiz-adv-x="972" 
d="M367 -276l-164 49l565 1077h-674l39 154h817l-8 -134q-573 -1146 -575 -1146z" />
    <glyph glyph-name="eight.tosf" horiz-adv-x="972" 
d="M432 -25q-174 0 -276.5 79t-102.5 222q0 50 16.5 95.5t41 80t66 70.5t79 62t92.5 59q-100 62 -147 130.5t-47 170.5q0 149 119 241.5t280 90.5q150 2 243 -65.5t93 -184.5q0 -71 -38.5 -137t-92 -113t-131.5 -96q145 -82 204.5 -151t59.5 -173q0 -108 -67 -196.5
t-172 -136.5t-220 -48zM315 983q0 -71 43.5 -123t161.5 -121q109 72 159 126t50 120q0 73 -62.5 119.5t-162.5 46.5q-80 0 -134.5 -46t-54.5 -122zM492 102q90 0 163.5 52t73.5 143q0 82 -57 139.5t-219 145.5q-113 -70 -170.5 -133.5t-57.5 -139.5q0 -93 75 -150t192 -57z
" />
    <glyph glyph-name="nine.tosf" horiz-adv-x="972" 
d="M483 356q96 0 234 70q4 62 4 100q0 175 -69.5 271t-172.5 96q-107 0 -169 -71.5t-62 -217.5q0 -110 62.5 -179t172.5 -69zM266 -279q-50 0 -114.5 10t-102.5 23l39 146q115 -39 207 -39q77 0 141.5 24.5t119.5 76t94 141t57 212.5q-165 -92 -301 -92q-153 0 -240.5 90
t-87.5 240q0 108 38 199t100.5 149.5t140 90.5t159.5 32q175 0 278 -130t103 -374q0 -197 -49.5 -352t-136.5 -251.5t-200 -146t-245 -49.5z" />
    <glyph glyph-name="A.sc" horiz-adv-x="923" 
d="M584 408l-103 438l-182 -438h285zM680 0l-68 285h-362l-119 -285h-162l439 1004h206l242 -1004h-176z" />
    <glyph glyph-name="Agrave.sc" horiz-adv-x="923" 
d="M631 1108h-144l-284 262l184 35zM584 408l-103 438l-182 -438h285zM680 0l-68 285h-362l-119 -285h-162l439 1004h206l242 -1004h-176z" />
    <glyph glyph-name="Aacute.sc" horiz-adv-x="923" 
d="M416 1108l284 297l181 -35l-322 -262h-143zM584 408l-103 438l-182 -438h285zM680 0l-68 285h-362l-119 -285h-162l439 1004h206l242 -1004h-176z" />
    <glyph glyph-name="Acircumflex.sc" horiz-adv-x="923" 
d="M707 1108l-168 158l-189 -158h-137l274 297h123l234 -297h-137zM584 408l-103 438l-182 -438h285zM680 0l-68 285h-362l-119 -285h-162l439 1004h206l242 -1004h-176z" />
    <glyph glyph-name="Atilde.sc" horiz-adv-x="923" 
d="M799 1346l61 -72q-116 -141 -215 -141q-40 0 -131 33.5t-115 33.5q-53 0 -139 -72l-55 72q130 137 219 137q46 0 127.5 -30.5t107.5 -30.5q66 0 140 70zM584 408l-103 438l-182 -438h285zM680 0l-68 285h-362l-119 -285h-162l439 1004h206l242 -1004h-176z" />
    <glyph glyph-name="Adieresis.sc" horiz-adv-x="923" 
d="M596 1280q1 30 41.5 70.5t67.5 40.5q28 0 69.5 -32t38.5 -61q-1 -30 -41.5 -70t-66.5 -40q-29 0 -70.5 32t-38.5 60zM229 1280q1 30 41.5 70.5t67.5 40.5q28 0 69.5 -32t38.5 -61q-1 -30 -41.5 -70t-66.5 -40q-29 0 -70.5 32t-38.5 60zM584 408l-103 438l-182 -438h285z
M680 0l-68 285h-362l-119 -285h-162l439 1004h206l242 -1004h-176z" />
    <glyph glyph-name="Aring.sc" horiz-adv-x="923" 
d="M731 1296q-4 -74 -66.5 -128t-138.5 -54q-79 0 -131.5 49t-46.5 133q4 75 66.5 130t138.5 55q80 0 132 -49t46 -136zM446 1296q-3 -40 22.5 -66t63.5 -26t68 26t33 66q3 43 -23.5 70t-64.5 27t-67 -27t-32 -70zM584 408l-103 438l-182 -438h285zM680 0l-68 285h-362
l-119 -285h-162l439 1004h206l242 -1004h-176z" />
    <glyph glyph-name="Amacron.sc" horiz-adv-x="923" 
d="M813 1321l-2 -31l-43 -94h-502l2 31l43 94h502zM584 408l-103 438l-182 -438h285zM680 0l-68 285h-362l-119 -285h-162l439 1004h206l242 -1004h-176z" />
    <glyph glyph-name="Abreve.sc" horiz-adv-x="923" 
d="M537 1245q80 0 130 49.5t72 132.5h103q-7 -129 -104 -223t-220 -94q-132 0 -200 90.5t-60 226.5h102q25 -182 177 -182zM584 408l-103 438l-182 -438h285zM680 0l-68 285h-362l-119 -285h-162l439 1004h206l242 -1004h-176z" />
    <glyph glyph-name="Aogonek.sc" horiz-adv-x="923" 
d="M584 408l-103 438l-182 -438h285zM737 0h-57l-68 285h-362l-119 -285h-162l439 1004h206l242 -1004h-2q-90 -63 -148 -132.5t-61 -125.5q-3 -39 21.5 -61.5t60.5 -22.5q32 0 86 27l23 -84q-84 -43 -156 -43q-82 0 -123.5 44.5t-36.5 121.5q4 53 40.5 109t81 95.5
t95.5 71.5z" />
    <glyph glyph-name="Acaron.sc" horiz-adv-x="923" 
d="M590 1116h-123l-234 297h138l168 -158l188 158h137zM584 408l-103 438l-182 -438h285zM680 0l-68 285h-362l-119 -285h-162l439 1004h206l242 -1004h-176z" />
    <glyph glyph-name="B.sc" horiz-adv-x="946" 
d="M465 895h-90l-25 -330h121q80 0 133 42t53 116q0 77 -54 124.5t-138 47.5zM467 457h-125l-25 -344h175q89 0 141.5 42t52.5 117q0 85 -57.5 135t-161.5 50zM135 0l74 1004h301q148 0 232.5 -65.5t84.5 -176.5q0 -77 -43 -136.5t-118 -97.5q86 -20 142 -72.5t56 -144.5
q0 -141 -123 -226t-327 -85h-279z" />
    <glyph glyph-name="C.sc" horiz-adv-x="894" 
d="M776 164l31 -121q-163 -65 -313 -68q-193 2 -309.5 118.5t-116.5 340.5q0 141 39.5 254t110 186t166.5 111.5t210 38.5q67 0 142 -13.5t124 -31.5l-45 -139q-140 49 -276 49q-133 0 -210 -105.5t-77 -326.5q0 -166 81.5 -253t205.5 -87q119 0 237 47z" />
    <glyph glyph-name="Ccedilla.sc" horiz-adv-x="894" 
d="M659 -262q-5 -74 -87.5 -134.5t-239.5 -74.5l-17 88q103 12 155.5 31.5t55.5 60.5q1 29 -34 50.5t-115 43.5l-4 11l88 163q-179 11 -286 127t-107 330q0 141 39.5 254t110 186t166.5 111.5t210 38.5q67 0 142 -13.5t124 -31.5l-45 -139q-140 49 -276 49
q-133 0 -210 -105.5t-77 -326.5q0 -166 81.5 -253t205.5 -87q119 0 237 47l31 -121q-126 -50 -248 -63l-49 -91q37 -17 52.5 -25t40.5 -23.5t34 -28t16.5 -32t5.5 -42.5z" />
    <glyph glyph-name="Cacute.sc" horiz-adv-x="894" 
d="M406 1108l284 297l180 -35l-321 -262h-143zM776 164l31 -121q-163 -65 -313 -68q-193 2 -309.5 118.5t-116.5 340.5q0 141 39.5 254t110 186t166.5 111.5t210 38.5q67 0 142 -13.5t124 -31.5l-45 -139q-140 49 -276 49q-133 0 -210 -105.5t-77 -326.5q0 -166 81.5 -253
t205.5 -87q119 0 237 47z" />
    <glyph glyph-name="Ccircumflex.sc" horiz-adv-x="894" 
d="M764 1108l-168 158l-188 -158h-138l275 297h123l233 -297h-137zM776 164l31 -121q-163 -65 -313 -68q-193 2 -309.5 118.5t-116.5 340.5q0 141 39.5 254t110 186t166.5 111.5t210 38.5q67 0 142 -13.5t124 -31.5l-45 -139q-140 49 -276 49q-133 0 -210 -105.5t-77 -326.5
q0 -166 81.5 -253t205.5 -87q119 0 237 47z" />
    <glyph glyph-name="Cdotaccent.sc" horiz-adv-x="894" 
d="M473 1270q1 33 47 78t76 45q31 0 76.5 -36t42.5 -69q-1 -33 -47.5 -77t-75.5 -44q-32 0 -77 35.5t-42 67.5zM776 164l31 -121q-163 -65 -313 -68q-193 2 -309.5 118.5t-116.5 340.5q0 141 39.5 254t110 186t166.5 111.5t210 38.5q67 0 142 -13.5t124 -31.5l-45 -139
q-140 49 -276 49q-133 0 -210 -105.5t-77 -326.5q0 -166 81.5 -253t205.5 -87q119 0 237 47z" />
    <glyph glyph-name="Ccaron.sc" horiz-adv-x="894" 
d="M649 1116h-123l-233 297h137l168 -158l188 158h138zM776 164l31 -121q-163 -65 -313 -68q-193 2 -309.5 118.5t-116.5 340.5q0 141 39.5 254t110 186t166.5 111.5t210 38.5q67 0 142 -13.5t124 -31.5l-45 -139q-140 49 -276 49q-133 0 -210 -105.5t-77 -326.5
q0 -166 81.5 -253t205.5 -87q119 0 237 47z" />
    <glyph glyph-name="D.sc" horiz-adv-x="1054" 
d="M209 1004h323q209 0 332 -116t123 -308q0 -137 -44 -248t-121 -183t-181.5 -110.5t-226.5 -38.5h-279zM379 885l-57 -764h155q150 0 238 104t88 310q0 167 -87.5 258.5t-228.5 91.5h-108z" />
    <glyph glyph-name="Dcaron.sc" horiz-adv-x="1054" 
d="M612 1116h-123l-233 297h137l168 -158l189 158h137zM209 1004h323q209 0 332 -116t123 -308q0 -137 -44 -248t-121 -183t-181.5 -110.5t-226.5 -38.5h-279zM379 885l-57 -764h155q150 0 238 104t88 310q0 167 -87.5 258.5t-228.5 91.5h-108z" />
    <glyph glyph-name="E.sc" horiz-adv-x="894" 
d="M135 0l74 1004h600l-31 -130l-399 7l-23 -299h375l-29 -125l-354 6l-24 -336l446 6l-31 -133h-604z" />
    <glyph glyph-name="Egrave.sc" horiz-adv-x="894" 
d="M743 1108h-143l-285 262l185 35zM135 0l74 1004h600l-31 -130l-399 7l-23 -299h375l-29 -125l-354 6l-24 -336l446 6l-31 -133h-604z" />
    <glyph glyph-name="Eacute.sc" horiz-adv-x="894" 
d="M299 1108l285 297l180 -35l-322 -262h-143zM135 0l74 1004h600l-31 -130l-399 7l-23 -299h375l-29 -125l-354 6l-24 -336l446 6l-31 -133h-604z" />
    <glyph glyph-name="Ecircumflex.sc" horiz-adv-x="894" 
d="M696 1108l-168 158l-188 -158h-137l274 297h123l234 -297h-138zM135 0l74 1004h600l-31 -130l-399 7l-23 -299h375l-29 -125l-354 6l-24 -336l446 6l-31 -133h-604z" />
    <glyph glyph-name="Edieresis.sc" horiz-adv-x="894" 
d="M596 1280q1 30 41.5 70.5t67.5 40.5q28 0 69.5 -32t38.5 -61q-1 -30 -41.5 -70t-66.5 -40q-29 0 -70.5 32t-38.5 60zM229 1280q1 30 41.5 70.5t67.5 40.5q28 0 69.5 -32t38.5 -61q-1 -30 -41.5 -70t-66.5 -40q-29 0 -70.5 32t-38.5 60zM135 0l74 1004h600l-31 -130
l-399 7l-23 -299h375l-29 -125l-354 6l-24 -336l446 6l-31 -133h-604z" />
    <glyph glyph-name="Emacron.sc" horiz-adv-x="894" 
d="M799 1321l-2 -31l-43 -94h-502l2 31l43 94h502zM135 0l74 1004h600l-31 -130l-399 7l-23 -299h375l-29 -125l-354 6l-24 -336l446 6l-31 -133h-604z" />
    <glyph glyph-name="Ebreve.sc" horiz-adv-x="894" 
d="M524 1245q80 0 130.5 49.5t72.5 132.5h102q-7 -129 -103.5 -223t-219.5 -94q-132 0 -200 90.5t-60 226.5h102q25 -182 176 -182zM135 0l74 1004h600l-31 -130l-399 7l-23 -299h375l-29 -125l-354 6l-24 -336l446 6l-31 -133h-604z" />
    <glyph glyph-name="Edotaccent.sc" horiz-adv-x="894" 
d="M391 1270q1 33 47 78t76 45q31 0 76.5 -36t42.5 -69q-1 -33 -47.5 -77t-75.5 -44q-32 0 -77 35.5t-42 67.5zM135 0l74 1004h600l-31 -130l-399 7l-23 -299h375l-29 -125l-354 6l-24 -336l446 6l-31 -133h-604z" />
    <glyph glyph-name="Eogonek.sc" horiz-adv-x="894" 
d="M135 0l74 1004h600l-31 -130l-399 7l-23 -299h375l-29 -125l-354 6l-24 -336l446 6l-31 -133h-604zM406 -276q4 53 40.5 109t81 95.5t95.5 71.5h116q-90 -63 -148 -132.5t-61 -125.5q-3 -39 21.5 -61.5t60.5 -22.5q32 0 86 27l23 -84q-84 -43 -156 -43q-82 0 -123 44.5
t-36 121.5z" />
    <glyph glyph-name="Ecaron.sc" horiz-adv-x="894" 
d="M580 1116h-123l-234 297h137l168 -158l189 158h137zM135 0l74 1004h600l-31 -130l-399 7l-23 -299h375l-29 -125l-354 6l-24 -336l446 6l-31 -133h-604z" />
    <glyph glyph-name="F.sc" horiz-adv-x="858" 
d="M700 440l-354 4l-33 -444h-178l74 1004h600l-31 -130l-399 7l-25 -316h377z" />
    <glyph glyph-name="G.sc" horiz-adv-x="958" 
d="M838 49q-170 -72 -340 -72q-124 0 -220 50t-153 155t-57 252q0 275 144.5 433.5t383.5 158.5q87 0 177 -17.5t136 -39.5l-63 -142q-54 24 -142.5 43t-162.5 19q-132 0 -210 -102.5t-79 -315.5q1 -94 25.5 -165.5t66 -112.5t90.5 -61.5t103 -20.5q69 0 141 16l29 385h165z
" />
    <glyph glyph-name="Gcircumflex.sc" horiz-adv-x="958" 
d="M764 1108l-168 158l-188 -158h-138l275 297h123l233 -297h-137zM838 49q-170 -72 -340 -72q-124 0 -220 50t-153 155t-57 252q0 275 144.5 433.5t383.5 158.5q87 0 177 -17.5t136 -39.5l-63 -142q-54 24 -142.5 43t-162.5 19q-132 0 -210 -102.5t-79 -315.5
q1 -94 25.5 -165.5t66 -112.5t90.5 -61.5t103 -20.5q69 0 141 16l29 385h165z" />
    <glyph glyph-name="Gbreve.sc" horiz-adv-x="958" 
d="M592 1245q80 0 130.5 49.5t72.5 132.5h102q-7 -129 -104 -223t-220 -94q-132 0 -200 90.5t-60 226.5h103q25 -182 176 -182zM838 49q-170 -72 -340 -72q-124 0 -220 50t-153 155t-57 252q0 275 144.5 433.5t383.5 158.5q87 0 177 -17.5t136 -39.5l-63 -142
q-54 24 -142.5 43t-162.5 19q-132 0 -210 -102.5t-79 -315.5q1 -94 25.5 -165.5t66 -112.5t90.5 -61.5t103 -20.5q69 0 141 16l29 385h165z" />
    <glyph glyph-name="Gdotaccent.sc" horiz-adv-x="958" 
d="M477 1270q1 33 47 78t76 45q31 0 76.5 -36t42.5 -69q-1 -33 -47.5 -77t-75.5 -44q-32 0 -77 35.5t-42 67.5zM838 49q-170 -72 -340 -72q-124 0 -220 50t-153 155t-57 252q0 275 144.5 433.5t383.5 158.5q87 0 177 -17.5t136 -39.5l-63 -142q-54 24 -142.5 43t-162.5 19
q-132 0 -210 -102.5t-79 -315.5q1 -94 25.5 -165.5t66 -112.5t90.5 -61.5t103 -20.5q69 0 141 16l29 385h165z" />
    <glyph glyph-name="Gcommaaccent.sc" horiz-adv-x="958" 
d="M838 49q-170 -72 -340 -72q-124 0 -220 50t-153 155t-57 252q0 275 144.5 433.5t383.5 158.5q87 0 177 -17.5t136 -39.5l-63 -142q-54 24 -142.5 43t-162.5 19q-132 0 -210 -102.5t-79 -315.5q1 -94 25.5 -165.5t66 -112.5t90.5 -61.5t103 -20.5q69 0 141 16l29 385h165z
M412 -172q3 28 34.5 55t61.5 27q32 0 69.5 -44t34.5 -81t-35 -101.5t-110 -191.5l-88 35q86 155 90 203q1 9 -28.5 42t-28.5 56z" />
    <glyph glyph-name="H.sc" horiz-adv-x="1120" 
d="M731 0l33 455h-418l-33 -455h-178l74 1004h178l-31 -416h418l31 416h180l-74 -1004h-180z" />
    <glyph glyph-name="Hcircumflex.sc" horiz-adv-x="1120" 
d="M791 1108l-168 158l-189 -158h-137l274 297h123l234 -297h-137zM731 0l33 455h-418l-33 -455h-178l74 1004h178l-31 -416h418l31 416h180l-74 -1004h-180z" />
    <glyph glyph-name="I.sc" horiz-adv-x="522" 
d="M387 1004l-74 -1004h-178l74 1004h178z" />
    <glyph glyph-name="Igrave.sc" horiz-adv-x="522" 
d="M420 1108h-144l-284 262l184 35zM387 1004l-74 -1004h-178l74 1004h178z" />
    <glyph glyph-name="Iacute.sc" horiz-adv-x="522" 
d="M201 1108l284 297l181 -35l-322 -262h-143zM387 1004l-74 -1004h-178l74 1004h178z" />
    <glyph glyph-name="Icircumflex.sc" horiz-adv-x="522" 
d="M494 1108l-168 158l-189 -158h-137l274 297h123l234 -297h-137zM387 1004l-74 -1004h-178l74 1004h178z" />
    <glyph glyph-name="Idieresis.sc" horiz-adv-x="522" 
d="M383 1280q1 30 41.5 70.5t67.5 40.5q28 0 69.5 -32t38.5 -61q-1 -30 -41.5 -70t-66.5 -40q-29 0 -70.5 32t-38.5 60zM16 1280q1 30 41.5 70.5t67.5 40.5q28 0 69.5 -32t38.5 -61q-1 -30 -41.5 -70t-66.5 -40q-29 0 -70.5 32t-38.5 60zM387 1004l-74 -1004h-178l74 1004
h178z" />
    <glyph glyph-name="Itilde.sc" horiz-adv-x="522" 
d="M575 1346l62 -72q-116 -141 -215 -141q-40 0 -131 33.5t-115 33.5q-53 0 -139 -72l-55 72q130 137 219 137q46 0 127.5 -30.5t107.5 -30.5q65 0 139 70zM387 1004l-74 -1004h-178l74 1004h178z" />
    <glyph glyph-name="Imacron.sc" horiz-adv-x="522" 
d="M592 1321l-2 -31l-43 -94h-502l2 31l43 94h502zM387 1004l-74 -1004h-178l74 1004h178z" />
    <glyph glyph-name="Ibreve.sc" horiz-adv-x="522" 
d="M317 1245q80 0 130.5 49.5t72.5 132.5h103q-7 -129 -104 -223t-220 -94q-132 0 -200 90.5t-60 226.5h102q25 -182 176 -182zM387 1004l-74 -1004h-178l74 1004h178z" />
    <glyph glyph-name="Iogonek.sc" horiz-adv-x="522" 
d="M195 0h-60l74 1004h178l-74 -1004h-2q-90 -63 -148 -132.5t-61 -125.5q-3 -39 21.5 -61.5t60.5 -22.5q32 0 86 27l23 -84q-84 -43 -156 -43q-82 0 -123.5 44.5t-36.5 121.5q4 53 41 109t81.5 95.5t95.5 71.5z" />
    <glyph glyph-name="Idotaccent.sc" horiz-adv-x="522" 
d="M193 1270q1 33 46.5 78t75.5 45q31 0 76.5 -36t42.5 -69q-1 -33 -47.5 -77t-75.5 -44q-32 0 -76.5 35.5t-41.5 67.5zM387 1004l-74 -1004h-178l74 1004h178z" />
    <glyph glyph-name="J.sc" horiz-adv-x="665" 
d="M530 1004l-53 -715q-12 -152 -102 -232t-230 -80q-77 0 -145 27l43 146q79 -33 133 -33q52 0 84.5 32.5t36.5 98.5l55 756h178z" />
    <glyph glyph-name="Jcircumflex.sc" horiz-adv-x="624" 
d="M629 1108l-168 158l-189 -158h-137l275 297h122l234 -297h-137zM530 1004l-53 -715q-12 -152 -102 -232t-230 -80q-77 0 -145 27l43 146q79 -33 133 -33q52 0 84.5 32.5t36.5 98.5l55 756h178z" />
    <glyph glyph-name="K.sc" horiz-adv-x="995" 
d="M705 0l-347 537l420 467h211l-442 -455l379 -549h-221zM387 1004l-74 -1004h-178l74 1004h178z" />
    <glyph glyph-name="Kcommaaccent.sc" horiz-adv-x="995" 
d="M705 0l-347 537l420 467h211l-442 -455l379 -549h-221zM387 1004l-74 -1004h-178l74 1004h178zM371 -172q3 28 34.5 55t61.5 27q32 0 69.5 -44t34.5 -81t-35 -101.5t-110 -191.5l-88 35q86 155 90 203q1 9 -28.5 42t-28.5 56z" />
    <glyph glyph-name="L.sc" horiz-adv-x="827" 
d="M135 0l74 1004h178l-63 -871l454 6l-33 -139h-610z" />
    <glyph glyph-name="Lacute.sc" horiz-adv-x="827" 
d="M219 1108l285 297l180 -35l-322 -262h-143zM135 0l74 1004h178l-63 -871l454 6l-33 -139h-610z" />
    <glyph glyph-name="Lcommaaccent.sc" horiz-adv-x="827" 
d="M135 0l74 1004h178l-63 -871l454 6l-33 -139h-610zM330 -172q3 28 34.5 55t61.5 27q32 0 69.5 -44t34.5 -81t-35 -101.5t-110 -191.5l-88 35q86 155 90 203q1 9 -28.5 42t-28.5 56z" />
    <glyph glyph-name="Lcaron.sc" horiz-adv-x="827" 
d="M594 965q4 24 39.5 44.5t68.5 20.5q31 0 53 -52.5t19 -107.5q-4 -58 -42.5 -127.5t-127.5 -183.5l-69 45q48 76 70.5 122.5t25.5 84.5q2 40 -18 93t-19 61zM135 0l74 1004h178l-63 -871l454 6l-33 -139h-610z" />
    <glyph glyph-name="M.sc" horiz-adv-x="1386" 
d="M580 0l-232 768l-115 -768h-163l168 1004h206l232 -758l328 758h210l31 -1004h-174l-18 768l-332 -768h-141z" />
    <glyph glyph-name="N.sc" horiz-adv-x="1148" 
d="M791 0l-443 735l-55 -735h-158l74 1004h164l432 -725l51 725h158l-74 -1004h-149z" />
    <glyph glyph-name="Ntilde.sc" horiz-adv-x="1148" 
d="M897 1346l61 -72q-116 -141 -215 -141q-40 0 -130.5 33.5t-114.5 33.5q-54 0 -140 -72l-55 72q130 137 219 137q46 0 128 -30.5t108 -30.5q65 0 139 70zM791 0l-443 735l-55 -735h-158l74 1004h164l432 -725l51 725h158l-74 -1004h-149z" />
    <glyph glyph-name="Nacute.sc" horiz-adv-x="1148" 
d="M469 1108l285 297l180 -35l-322 -262h-143zM791 0l-443 735l-55 -735h-158l74 1004h164l432 -725l51 725h158l-74 -1004h-149z" />
    <glyph glyph-name="Ncommaaccent.sc" horiz-adv-x="1148" 
d="M791 0l-443 735l-55 -735h-158l74 1004h164l432 -725l51 725h158l-74 -1004h-149zM412 -172q3 28 34.5 55t61.5 27q32 0 69.5 -44t34.5 -81t-35 -101.5t-110 -191.5l-88 35q86 155 90 203q1 9 -28.5 42t-28.5 56z" />
    <glyph glyph-name="Ncaron.sc" horiz-adv-x="1148" 
d="M668 1116h-123l-234 297h138l167 -158l189 158h137zM791 0l-443 735l-55 -735h-158l74 1004h164l432 -725l51 725h158l-74 -1004h-149z" />
    <glyph glyph-name="O.sc" horiz-adv-x="1021" 
d="M954 565q0 -137 -38 -249.5t-104 -186.5t-155.5 -114t-193.5 -40q-188 1 -291.5 126t-103.5 335q0 133 38.5 244.5t104.5 186t155.5 116t190.5 41.5q189 0 293 -124t104 -335zM518 109q119 0 185.5 108t66.5 328q0 171 -71.5 260.5t-186.5 89.5q-121 0 -190.5 -109.5
t-69.5 -328.5q0 -175 72.5 -261.5t193.5 -86.5z" />
    <glyph glyph-name="Ograve.sc" horiz-adv-x="1021" 
d="M793 1108h-144l-284 262l184 35zM954 565q0 -137 -38 -249.5t-104 -186.5t-155.5 -114t-193.5 -40q-188 1 -291.5 126t-103.5 335q0 133 38.5 244.5t104.5 186t155.5 116t190.5 41.5q189 0 293 -124t104 -335zM518 109q119 0 185.5 108t66.5 328q0 171 -71.5 260.5
t-186.5 89.5q-121 0 -190.5 -109.5t-69.5 -328.5q0 -175 72.5 -261.5t193.5 -86.5z" />
    <glyph glyph-name="Oacute.sc" horiz-adv-x="1021" 
d="M389 1108l285 297l180 -35l-322 -262h-143zM954 565q0 -137 -38 -249.5t-104 -186.5t-155.5 -114t-193.5 -40q-188 1 -291.5 126t-103.5 335q0 133 38.5 244.5t104.5 186t155.5 116t190.5 41.5q189 0 293 -124t104 -335zM518 109q119 0 185.5 108t66.5 328
q0 171 -71.5 260.5t-186.5 89.5q-121 0 -190.5 -109.5t-69.5 -328.5q0 -175 72.5 -261.5t193.5 -86.5z" />
    <glyph glyph-name="Ocircumflex.sc" horiz-adv-x="1021" 
d="M745 1108l-167 158l-189 -158h-137l274 297h123l234 -297h-138zM954 565q0 -137 -38 -249.5t-104 -186.5t-155.5 -114t-193.5 -40q-188 1 -291.5 126t-103.5 335q0 133 38.5 244.5t104.5 186t155.5 116t190.5 41.5q189 0 293 -124t104 -335zM518 109q119 0 185.5 108
t66.5 328q0 171 -71.5 260.5t-186.5 89.5q-121 0 -190.5 -109.5t-69.5 -328.5q0 -175 72.5 -261.5t193.5 -86.5z" />
    <glyph glyph-name="Otilde.sc" horiz-adv-x="1021" 
d="M838 1346l61 -72q-116 -141 -215 -141q-40 0 -131 33.5t-115 33.5q-53 0 -139 -72l-55 72q130 137 219 137q46 0 127.5 -30.5t107.5 -30.5q66 0 140 70zM954 565q0 -137 -38 -249.5t-104 -186.5t-155.5 -114t-193.5 -40q-188 1 -291.5 126t-103.5 335q0 133 38.5 244.5
t104.5 186t155.5 116t190.5 41.5q189 0 293 -124t104 -335zM518 109q119 0 185.5 108t66.5 328q0 171 -71.5 260.5t-186.5 89.5q-121 0 -190.5 -109.5t-69.5 -328.5q0 -175 72.5 -261.5t193.5 -86.5z" />
    <glyph glyph-name="Odieresis.sc" horiz-adv-x="1021" 
d="M655 1280q1 30 41.5 70.5t67.5 40.5q28 0 69.5 -32t38.5 -61q-1 -30 -41.5 -70t-66.5 -40q-29 0 -70.5 32t-38.5 60zM289 1280q1 30 41 70.5t67 40.5q28 0 70 -32t39 -61q-1 -30 -42 -70t-67 -40q-29 0 -70 32t-38 60zM954 565q0 -137 -38 -249.5t-104 -186.5
t-155.5 -114t-193.5 -40q-188 1 -291.5 126t-103.5 335q0 133 38.5 244.5t104.5 186t155.5 116t190.5 41.5q189 0 293 -124t104 -335zM518 109q119 0 185.5 108t66.5 328q0 171 -71.5 260.5t-186.5 89.5q-121 0 -190.5 -109.5t-69.5 -328.5q0 -175 72.5 -261.5t193.5 -86.5z
" />
    <glyph glyph-name="Omacron.sc" horiz-adv-x="1021" 
d="M848 1321l-2 -31l-43 -94h-502l2 31l43 94h502zM954 565q0 -137 -38 -249.5t-104 -186.5t-155.5 -114t-193.5 -40q-188 1 -291.5 126t-103.5 335q0 133 38.5 244.5t104.5 186t155.5 116t190.5 41.5q189 0 293 -124t104 -335zM518 109q119 0 185.5 108t66.5 328
q0 171 -71.5 260.5t-186.5 89.5q-121 0 -190.5 -109.5t-69.5 -328.5q0 -175 72.5 -261.5t193.5 -86.5z" />
    <glyph glyph-name="Obreve.sc" horiz-adv-x="1021" 
d="M569 1245q80 0 130.5 49.5t72.5 132.5h102q-7 -129 -103.5 -223t-219.5 -94q-132 0 -200 90.5t-60 226.5h102q25 -182 176 -182zM954 565q0 -137 -38 -249.5t-104 -186.5t-155.5 -114t-193.5 -40q-188 1 -291.5 126t-103.5 335q0 133 38.5 244.5t104.5 186t155.5 116
t190.5 41.5q189 0 293 -124t104 -335zM518 109q119 0 185.5 108t66.5 328q0 171 -71.5 260.5t-186.5 89.5q-121 0 -190.5 -109.5t-69.5 -328.5q0 -175 72.5 -261.5t193.5 -86.5z" />
    <glyph glyph-name="Ohungarumlaut.sc" horiz-adv-x="1021" 
d="M547 1108l284 297l181 -35l-322 -262h-143zM291 1108l284 297l181 -35l-322 -262h-143zM954 565q0 -137 -38 -249.5t-104 -186.5t-155.5 -114t-193.5 -40q-188 1 -291.5 126t-103.5 335q0 133 38.5 244.5t104.5 186t155.5 116t190.5 41.5q189 0 293 -124t104 -335z
M518 109q119 0 185.5 108t66.5 328q0 171 -71.5 260.5t-186.5 89.5q-121 0 -190.5 -109.5t-69.5 -328.5q0 -175 72.5 -261.5t193.5 -86.5z" />
    <glyph glyph-name="P.sc" horiz-adv-x="894" 
d="M461 885h-82l-29 -387h131q85 0 142 48t57 140q0 94 -56.5 146.5t-162.5 52.5zM412 377h-70l-29 -377h-178l74 1004h274q184 0 282.5 -70.5t98.5 -208.5q0 -150 -129 -249t-323 -99z" />
    <glyph glyph-name="Q.sc" horiz-adv-x="1021" 
d="M723 -307q-61 0 -143.5 24.5t-152 49t-97.5 24.5q-56 0 -113 -43l-51 121q130 32 270 106q-176 12 -272 135.5t-96 325.5q0 133 38.5 244.5t104.5 186t155.5 116t190.5 41.5q189 0 293 -124t104 -335q0 -166 -54 -292.5t-150 -200.5q-129 -113 -332 -193q25 -4 97.5 -17
t128.5 -20.5t99 -7.5q91 0 156 39v-125q-73 -55 -176 -55zM518 109q119 0 185.5 108t66.5 328q0 171 -71.5 260.5t-186.5 89.5q-121 0 -190.5 -109.5t-69.5 -328.5q0 -175 72.5 -261.5t193.5 -86.5z" />
    <glyph glyph-name="R.sc" horiz-adv-x="976" 
d="M463 885h-84l-27 -353h119q90 0 145.5 41.5t55.5 131.5q0 80 -56.5 130t-152.5 50zM424 410h-80l-31 -410h-178l74 1004h309q160 0 248 -70.5t88 -198.5q0 -86 -56.5 -159.5t-152.5 -118.5l264 -457h-200l-222 414q-40 -4 -63 -4z" />
    <glyph glyph-name="Racute.sc" horiz-adv-x="976" 
d="M365 1108l284 297l180 -35l-321 -262h-143zM463 885h-84l-27 -353h119q90 0 145.5 41.5t55.5 131.5q0 80 -56.5 130t-152.5 50zM424 410h-80l-31 -410h-178l74 1004h309q160 0 248 -70.5t88 -198.5q0 -86 -56.5 -159.5t-152.5 -118.5l264 -457h-200l-222 414
q-40 -4 -63 -4z" />
    <glyph glyph-name="Rcommaaccent.sc" horiz-adv-x="976" 
d="M463 885h-84l-27 -353h119q90 0 145.5 41.5t55.5 131.5q0 80 -56.5 130t-152.5 50zM424 410h-80l-31 -410h-178l74 1004h309q160 0 248 -70.5t88 -198.5q0 -86 -56.5 -159.5t-152.5 -118.5l264 -457h-200l-222 414q-40 -4 -63 -4zM350 -172q3 28 34.5 55t61.5 27
q32 0 70 -44t35 -81t-35 -101.5t-110 -191.5l-89 35q88 157 91 203q1 9 -29 42t-29 56z" />
    <glyph glyph-name="Rcaron.sc" horiz-adv-x="976" 
d="M569 1116h-123l-233 297h137l168 -158l189 158h137zM463 885h-84l-27 -353h119q90 0 145.5 41.5t55.5 131.5q0 80 -56.5 130t-152.5 50zM424 410h-80l-31 -410h-178l74 1004h309q160 0 248 -70.5t88 -198.5q0 -86 -56.5 -159.5t-152.5 -118.5l264 -457h-200l-222 414
q-40 -4 -63 -4z" />
    <glyph glyph-name="S.sc" horiz-adv-x="845" 
d="M455 412l-115 53q-114 53 -162.5 116.5t-48.5 153.5q0 124 107 206.5t266 82.5q175 0 280 -39l-43 -143q-147 53 -288 53q-64 0 -110 -32.5t-46 -88.5q0 -53 32 -93t105 -73l117 -53q108 -50 157.5 -111t49.5 -145q0 -141 -117 -231.5t-305 -90.5q-163 0 -275 41l43 148
q147 -60 308 -60q69 0 121.5 38.5t52.5 97.5q0 110 -129 170z" />
    <glyph glyph-name="Sacute.sc" horiz-adv-x="845" 
d="M342 1108l285 297l180 -35l-322 -262h-143zM455 412l-115 53q-114 53 -162.5 116.5t-48.5 153.5q0 124 107 206.5t266 82.5q175 0 280 -39l-43 -143q-147 53 -288 53q-64 0 -110 -32.5t-46 -88.5q0 -53 32 -93t105 -73l117 -53q108 -50 157.5 -111t49.5 -145
q0 -141 -117 -231.5t-305 -90.5q-163 0 -275 41l43 148q147 -60 308 -60q69 0 121.5 38.5t52.5 97.5q0 110 -129 170z" />
    <glyph glyph-name="Scircumflex.sc" horiz-adv-x="845" 
d="M698 1108l-168 158l-188 -158h-137l274 297h123l234 -297h-138zM455 412l-115 53q-114 53 -162.5 116.5t-48.5 153.5q0 124 107 206.5t266 82.5q175 0 280 -39l-43 -143q-147 53 -288 53q-64 0 -110 -32.5t-46 -88.5q0 -53 32 -93t105 -73l117 -53q108 -50 157.5 -111
t49.5 -145q0 -141 -117 -231.5t-305 -90.5q-163 0 -275 41l43 148q147 -60 308 -60q69 0 121.5 38.5t52.5 97.5q0 110 -129 170z" />
    <glyph glyph-name="Scedilla.sc" horiz-adv-x="845" 
d="M186 -471l-16 88q103 12 155.5 31.5t55.5 60.5q1 29 -34.5 50.5t-115.5 43.5l-4 11l88 163q-152 3 -256 41l43 148q147 -60 308 -60q69 0 121.5 38.5t52.5 97.5q0 110 -129 170l-115 53q-114 53 -162.5 116.5t-48.5 153.5q0 124 107 206.5t266 82.5q175 0 280 -39
l-43 -143q-147 53 -288 53q-64 0 -110 -32.5t-46 -88.5q0 -53 32 -93t105 -73l117 -53q108 -50 157.5 -111t49.5 -145q0 -124 -93 -210.5t-249 -106.5l-49 -93q37 -17 52.5 -25t40.5 -23.5t34 -28t16.5 -32t5.5 -42.5q-5 -74 -88 -134.5t-240 -74.5z" />
    <glyph glyph-name="Scaron.sc" horiz-adv-x="845" 
d="M561 1116h-123l-233 297h137l168 -158l188 158h138zM455 412l-115 53q-114 53 -162.5 116.5t-48.5 153.5q0 124 107 206.5t266 82.5q175 0 280 -39l-43 -143q-147 53 -288 53q-64 0 -110 -32.5t-46 -88.5q0 -53 32 -93t105 -73l117 -53q108 -50 157.5 -111t49.5 -145
q0 -141 -117 -231.5t-305 -90.5q-163 0 -275 41l43 148q147 -60 308 -60q69 0 121.5 38.5t52.5 97.5q0 110 -129 170z" />
    <glyph glyph-name="Scommaaccent.sc" horiz-adv-x="845" 
d="M455 412l-115 53q-114 53 -162.5 116.5t-48.5 153.5q0 124 107 206.5t266 82.5q175 0 280 -39l-43 -143q-147 53 -288 53q-64 0 -110 -32.5t-46 -88.5q0 -53 32 -93t105 -73l117 -53q108 -50 157.5 -111t49.5 -145q0 -141 -117 -231.5t-305 -90.5q-163 0 -275 41l43 148
q147 -60 308 -60q69 0 121.5 38.5t52.5 97.5q0 110 -129 170zM268 -172q3 28 34.5 55t62.5 27q32 0 69.5 -44t34.5 -81t-35 -101.5t-110 -191.5l-88 35q86 155 90 203q1 9 -29 42t-29 56z" />
    <glyph glyph-name="T.sc" horiz-adv-x="862" 
d="M850 864l-299 6l-64 -870h-178l64 870l-320 -6l33 140h795z" />
    <glyph glyph-name="Tcommaaccent.sc" horiz-adv-x="862" 
d="M850 864l-299 6l-64 -870h-178l64 870l-320 -6l33 140h795zM289 -172q3 28 34.5 55t61.5 27q32 0 69.5 -44t34.5 -81t-35 -101.5t-110 -191.5l-88 35q86 155 90 203q1 9 -28.5 42t-28.5 56z" />
    <glyph glyph-name="Tcaron.sc" horiz-adv-x="862" 
d="M541 1116h-123l-234 297h138l167 -158l189 158h137zM850 864l-299 6l-64 -870h-178l64 870l-320 -6l33 140h795z" />
    <glyph glyph-name="U.sc" horiz-adv-x="1118" 
d="M199 1004h178q-45 -643 -45 -674q0 -110 62 -159.5t165 -49.5q91 0 144.5 53t60.5 162l47 668h172l-45 -633q-14 -190 -126.5 -292t-311.5 -102q-165 0 -259 79.5t-94 228.5q0 14 0.5 27.5t1 28.5t2.5 43.5t4 58t6.5 87l9 115t12.5 158t16 201.5z" />
    <glyph glyph-name="Ugrave.sc" horiz-adv-x="1118" 
d="M811 1108h-143l-285 262l184 35zM199 1004h178q-45 -643 -45 -674q0 -110 62 -159.5t165 -49.5q91 0 144.5 53t60.5 162l47 668h172l-45 -633q-14 -190 -126.5 -292t-311.5 -102q-165 0 -259 79.5t-94 228.5q0 14 0.5 27.5t1 28.5t2.5 43.5t4 58t6.5 87l9 115t12.5 158
t16 201.5z" />
    <glyph glyph-name="Uacute.sc" horiz-adv-x="1118" 
d="M428 1108l285 297l180 -35l-322 -262h-143zM199 1004h178q-45 -643 -45 -674q0 -110 62 -159.5t165 -49.5q91 0 144.5 53t60.5 162l47 668h172l-45 -633q-14 -190 -126.5 -292t-311.5 -102q-165 0 -259 79.5t-94 228.5q0 14 0.5 27.5t1 28.5t2.5 43.5t4 58t6.5 87l9 115
t12.5 158t16 201.5z" />
    <glyph glyph-name="Ucircumflex.sc" horiz-adv-x="1118" 
d="M795 1108l-168 158l-189 -158h-137l274 297h123l234 -297h-137zM199 1004h178q-45 -643 -45 -674q0 -110 62 -159.5t165 -49.5q91 0 144.5 53t60.5 162l47 668h172l-45 -633q-14 -190 -126.5 -292t-311.5 -102q-165 0 -259 79.5t-94 228.5q0 14 0.5 27.5t1 28.5t2.5 43.5
t4 58t6.5 87l9 115t12.5 158t16 201.5z" />
    <glyph glyph-name="Udieresis.sc" horiz-adv-x="1118" 
d="M694 1280q1 30 41.5 70.5t67.5 40.5q28 0 69.5 -32t38.5 -61q-1 -30 -41.5 -70t-66.5 -40q-29 0 -70.5 32t-38.5 60zM328 1280q1 30 41 70.5t67 40.5q28 0 70 -32t39 -61q-1 -30 -42 -70t-67 -40q-29 0 -70 32t-38 60zM199 1004h178q-45 -643 -45 -674q0 -110 62 -159.5
t165 -49.5q91 0 144.5 53t60.5 162l47 668h172l-45 -633q-14 -190 -126.5 -292t-311.5 -102q-165 0 -259 79.5t-94 228.5q0 14 0.5 27.5t1 28.5t2.5 43.5t4 58t6.5 87l9 115t12.5 158t16 201.5z" />
    <glyph glyph-name="Utilde.sc" horiz-adv-x="1118" 
d="M872 1346l62 -72q-116 -141 -215 -141q-40 0 -131 33.5t-115 33.5q-53 0 -139 -72l-55 72q130 137 219 137q46 0 127.5 -30.5t107.5 -30.5q65 0 139 70zM199 1004h178q-45 -643 -45 -674q0 -110 62 -159.5t165 -49.5q91 0 144.5 53t60.5 162l47 668h172l-45 -633
q-14 -190 -126.5 -292t-311.5 -102q-165 0 -259 79.5t-94 228.5q0 14 0.5 27.5t1 28.5t2.5 43.5t4 58t6.5 87l9 115t12.5 158t16 201.5z" />
    <glyph glyph-name="Umacron.sc" horiz-adv-x="1118" 
d="M887 1321l-2 -31l-43 -94h-502l2 31l43 94h502zM199 1004h178q-45 -643 -45 -674q0 -110 62 -159.5t165 -49.5q91 0 144.5 53t60.5 162l47 668h172l-45 -633q-14 -190 -126.5 -292t-311.5 -102q-165 0 -259 79.5t-94 228.5q0 14 0.5 27.5t1 28.5t2.5 43.5t4 58t6.5 87
l9 115t12.5 158t16 201.5z" />
    <glyph glyph-name="Ubreve.sc" horiz-adv-x="1118" 
d="M606 1245q80 0 130.5 49.5t72.5 132.5h102q-7 -129 -103.5 -223t-219.5 -94q-132 0 -200 90.5t-60 226.5h102q25 -182 176 -182zM199 1004h178q-45 -643 -45 -674q0 -110 62 -159.5t165 -49.5q91 0 144.5 53t60.5 162l47 668h172l-45 -633q-14 -190 -126.5 -292
t-311.5 -102q-165 0 -259 79.5t-94 228.5q0 14 0.5 27.5t1 28.5t2.5 43.5t4 58t6.5 87l9 115t12.5 158t16 201.5z" />
    <glyph glyph-name="Uring.sc" horiz-adv-x="1118" 
d="M809 1296q-4 -74 -66.5 -128t-138.5 -54q-79 0 -131.5 49t-46.5 133q4 75 66.5 130t138.5 55q80 0 132 -49t46 -136zM524 1296q-3 -40 22.5 -66t63.5 -26t68 26t33 66q3 43 -23.5 70t-64.5 27t-67 -27t-32 -70zM199 1004h178q-45 -643 -45 -674q0 -110 62 -159.5
t165 -49.5q91 0 144.5 53t60.5 162l47 668h172l-45 -633q-14 -190 -126.5 -292t-311.5 -102q-165 0 -259 79.5t-94 228.5q0 14 0.5 27.5t1 28.5t2.5 43.5t4 58t6.5 87l9 115t12.5 158t16 201.5z" />
    <glyph glyph-name="Uhungarumlaut.sc" horiz-adv-x="1118" 
d="M586 1108l284 297l181 -35l-322 -262h-143zM330 1108l284 297l181 -35l-322 -262h-143zM199 1004h178q-45 -643 -45 -674q0 -110 62 -159.5t165 -49.5q91 0 144.5 53t60.5 162l47 668h172l-45 -633q-14 -190 -126.5 -292t-311.5 -102q-165 0 -259 79.5t-94 228.5
q0 14 0.5 27.5t1 28.5t2.5 43.5t4 58t6.5 87l9 115t12.5 158t16 201.5z" />
    <glyph glyph-name="Uogonek.sc" horiz-adv-x="1118" 
d="M586 -401q-82 0 -123.5 44.5t-36.5 120.5q4 56 41.5 112.5t93.5 103.5q-30 -3 -61 -3q-165 0 -259 79.5t-94 228.5q0 14 0.5 27.5t1 28.5t2.5 43.5t4 58t6.5 87l9 115t12.5 158t16 201.5h178q-45 -643 -45 -674q0 -110 62 -159.5t165 -49.5q91 0 144.5 53t60.5 162
l47 668h172l-45 -633q-15 -233 -178 -330q-90 -63 -148 -132.5t-61 -125.5q-3 -39 21.5 -61.5t60.5 -22.5q32 0 86 27l22 -84q-84 -43 -155 -43z" />
    <glyph glyph-name="V.sc" horiz-adv-x="987" 
d="M537 0h-187l-291 1004h187l225 -803l348 803h176z" />
    <glyph glyph-name="W.sc" horiz-adv-x="1482" 
d="M950 0l-194 762l-314 -762h-182l-164 1004h185l116 -777l312 777h161l197 -779l227 779h164l-317 -1004h-191z" />
    <glyph glyph-name="Wcircumflex.sc" horiz-adv-x="1482" 
d="M975 1108l-168 158l-189 -158h-137l275 297h123l233 -297h-137zM950 0l-194 762l-314 -762h-182l-164 1004h185l116 -777l312 777h161l197 -779l227 779h164l-317 -1004h-191z" />
    <glyph glyph-name="Wgrave.sc" horiz-adv-x="1482" 
d="M920 1108h-144l-284 262l184 35zM950 0l-194 762l-314 -762h-182l-164 1004h185l116 -777l312 777h161l197 -779l227 779h164l-317 -1004h-191z" />
    <glyph glyph-name="Wacute.sc" horiz-adv-x="1482" 
d="M700 1108l285 297l180 -35l-321 -262h-144zM950 0l-194 762l-314 -762h-182l-164 1004h185l116 -777l312 777h161l197 -779l227 779h164l-317 -1004h-191z" />
    <glyph glyph-name="Wdieresis.sc" horiz-adv-x="1482" 
d="M891 1280q1 30 41 70.5t67 40.5q28 0 70 -32t39 -61q-1 -30 -42 -70t-67 -40q-29 0 -70 32t-38 60zM524 1280q1 30 41.5 70.5t67.5 40.5q28 0 69.5 -32t38.5 -61q-1 -30 -41.5 -70t-66.5 -40q-29 0 -70.5 32t-38.5 60zM950 0l-194 762l-314 -762h-182l-164 1004h185
l116 -777l312 777h161l197 -779l227 779h164l-317 -1004h-191z" />
    <glyph glyph-name="X.sc" horiz-adv-x="933" 
d="M662 0l-216 385l-260 -385h-192l373 526l-269 478h195l192 -340l230 340h194l-346 -482l295 -522h-196z" />
    <glyph glyph-name="Y.sc" horiz-adv-x="923" 
d="M514 0h-178l29 391l-297 613h192l219 -451l262 451h183l-381 -611z" />
    <glyph glyph-name="Yacute.sc" horiz-adv-x="923" 
d="M406 1108l284 297l180 -35l-321 -262h-143zM514 0h-178l29 391l-297 613h192l219 -451l262 451h183l-381 -611z" />
    <glyph glyph-name="Ycircumflex.sc" horiz-adv-x="923" 
d="M688 1108l-168 158l-188 -158h-137l274 297h123l233 -297h-137zM514 0h-178l29 391l-297 613h192l219 -451l262 451h183l-381 -611z" />
    <glyph glyph-name="Ydieresis.sc" horiz-adv-x="923" 
d="M602 1280q1 30 41.5 70.5t67.5 40.5q28 0 69.5 -32t38.5 -61q-1 -30 -41.5 -70t-66.5 -40q-29 0 -70.5 32t-38.5 60zM236 1280q1 30 41 70.5t67 40.5q28 0 70 -32t39 -61q-1 -30 -42 -70t-67 -40q-29 0 -70 32t-38 60zM514 0h-178l29 391l-297 613h192l219 -451l262 451
h183l-381 -611z" />
    <glyph glyph-name="Ygrave.sc" horiz-adv-x="923" 
d="M748 1108h-144l-285 262l185 35zM514 0h-178l29 391l-297 613h192l219 -451l262 451h183l-381 -611z" />
    <glyph glyph-name="Z.sc" horiz-adv-x="931" 
d="M782 0h-708l6 125l569 743h-516l35 136h690l-8 -130l-571 -741h536z" />
    <glyph glyph-name="Zacute.sc" horiz-adv-x="931" 
d="M367 1108l284 297l180 -35l-321 -262h-143zM782 0h-708l6 125l569 743h-516l35 136h690l-8 -130l-571 -741h536z" />
    <glyph glyph-name="Zdotaccent.sc" horiz-adv-x="931" 
d="M399 1270q1 33 47 78t76 45q31 0 76.5 -36t42.5 -69q-1 -33 -47.5 -77t-75.5 -44q-32 0 -77 35.5t-42 67.5zM782 0h-708l6 125l569 743h-516l35 136h690l-8 -130l-571 -741h536z" />
    <glyph glyph-name="Zcaron.sc" horiz-adv-x="931" 
d="M588 1116h-123l-234 297h138l168 -158l188 158h137zM782 0h-708l6 125l569 743h-516l35 136h690l-8 -130l-571 -741h536z" />
    <glyph glyph-name="AE.sc" horiz-adv-x="1306" 
d="M633 881l-275 -473h252l35 473h-12zM580 0l20 285h-313l-166 -285h-176l606 1004h702l-30 -130l-400 7l-22 -299h375l-29 -125l-354 4l-25 -334l446 6l-30 -133h-604z" />
    <glyph glyph-name="AEacute.sc" horiz-adv-x="1306" 
d="M674 1108l284 297l181 -35l-322 -262h-143zM633 881l-275 -473h252l35 473h-12zM580 0l20 285h-313l-166 -285h-176l606 1004h702l-30 -130l-400 7l-22 -299h375l-29 -125l-354 4l-25 -334l446 6l-30 -133h-604z" />
    <glyph glyph-name="Eth.sc" horiz-adv-x="1054" 
d="M414 0h-279l35 461h-102l8 117h102l31 426h323q209 0 332 -116t123 -308q0 -137 -44 -248t-121 -183t-181.5 -110.5t-226.5 -38.5zM322 121h155q150 0 238 104t88 310q0 167 -87.5 258.5t-228.5 91.5h-108l-23 -307h254l-24 -117h-240z" />
    <glyph glyph-name="Oslash.sc" horiz-adv-x="1021" 
d="M252 457q0 -162 65 -252l306 665q-52 25 -111 25q-121 0 -190.5 -109.5t-69.5 -328.5zM518 109q119 0 185.5 108t66.5 328q0 157 -61 246l-301 -660q45 -22 110 -22zM463 -25q-56 0 -119 17l-57 -127h-125l80 174q-85 57 -129.5 159.5t-44.5 237.5q0 133 38.5 244.5
t104.5 186t155.5 116t190.5 41.5q69 0 127 -18l59 129h123l-80 -177q82 -57 125 -158t43 -235q0 -137 -38 -249.5t-104 -186.5t-155.5 -114t-193.5 -40z" />
    <glyph glyph-name="Oslashacute.sc" horiz-adv-x="1021" 
d="M389 1108l285 297l180 -35l-322 -262h-143zM252 457q0 -162 65 -252l306 665q-52 25 -111 25q-121 0 -190.5 -109.5t-69.5 -328.5zM518 109q119 0 185.5 108t66.5 328q0 157 -61 246l-301 -660q45 -22 110 -22zM463 -25q-56 0 -119 17l-57 -127h-125l80 174
q-85 57 -129.5 159.5t-44.5 237.5q0 133 38.5 244.5t104.5 186t155.5 116t190.5 41.5q69 0 127 -18l59 129h123l-80 -177q82 -57 125 -158t43 -235q0 -137 -38 -249.5t-104 -186.5t-155.5 -114t-193.5 -40z" />
    <glyph glyph-name="Thorn.sc" horiz-adv-x="913" 
d="M461 711h-96l-27 -387h143q85 0 142 48t57 140q0 94 -56.5 146.5t-162.5 52.5zM412 203h-84l-15 -203h-178l74 1004h178l-12 -175h108q184 0 282.5 -70t98.5 -208q0 -150 -129 -249t-323 -99z" />
    <glyph glyph-name="Dcroat.sc" horiz-adv-x="1054" 
d="M414 0h-279l35 461h-102l8 117h102l31 426h323q209 0 332 -116t123 -308q0 -137 -44 -248t-121 -183t-181.5 -110.5t-226.5 -38.5zM322 121h155q150 0 238 104t88 310q0 167 -87.5 258.5t-228.5 91.5h-108l-23 -307h254l-24 -117h-240z" />
    <glyph glyph-name="Hbar.sc" horiz-adv-x="1120" 
d="M774 588l10 149h-417l-11 -149h418zM731 0l33 455h-418l-33 -455h-178l53 737h-141v31l35 76h115l12 160h178l-12 -160h418l12 160h180l-12 -160h143v-31l-35 -76h-116l-54 -737h-180z" />
    <glyph glyph-name="IJ.sc" horiz-adv-x="1097" 
d="M387 1004l-74 -1004h-178l74 1004h178zM963 1004l-54 -715q-12 -152 -101.5 -232t-229.5 -80q-78 0 -146 27l43 146q79 -33 133 -33q52 0 84.5 32.5t36.5 98.5l55 756h179z" />
    <glyph glyph-name="Ldot.sc" horiz-adv-x="827" 
d="M549 565q1 33 47 78t76 45q31 0 76.5 -35.5t42.5 -68.5q-1 -33 -47.5 -77t-75.5 -44q-32 0 -77 35t-42 67zM135 0l74 1004h178l-63 -871l454 6l-33 -139h-610z" />
    <glyph glyph-name="Lslash.sc" horiz-adv-x="827" 
d="M135 0l31 414l-121 -47l8 125l121 47l35 465h178l-29 -392l232 90l-8 -124l-234 -93l-24 -352l454 6l-33 -139h-610z" />
    <glyph glyph-name="Eng.sc" horiz-adv-x="1148" 
d="M623 -301q-83 0 -146 25l41 139q79 -33 141 -33q51 0 83 35.5t38 103.5l4 43l-436 723l-55 -735h-158l74 1004h164l432 -725l51 725h158l-74 -1004q-13 -136 -102.5 -218.5t-214.5 -82.5z" />
    <glyph glyph-name="OE.sc" horiz-adv-x="1406" 
d="M514 109q80 0 145 51l48 647q-67 88 -189 88q-133 0 -199.5 -115t-66.5 -323q0 -180 71.5 -264t190.5 -84zM647 0v10q-79 -32 -190 -35q-125 1 -214.5 62.5t-132 162t-42.5 228.5q0 265 136.5 430.5t358.5 165.5q85 0 158 -31v11h600l-31 -130l-399 7l-23 -299h375
l-29 -125l-354 6l-24 -336l446 6l-31 -133h-604z" />
    <glyph glyph-name="Tbar.sc" horiz-adv-x="862" 
d="M741 508h-217l-37 -508h-178l37 508h-262l2 29l39 81h229l19 252l-320 -6l33 140h795l-31 -140l-299 6l-19 -252h250l-2 -28z" />
    <glyph glyph-name="commaaccent.sc" horiz-adv-x="501" 
d="M166 -172q3 28 34.5 55t61.5 27q32 0 70 -44t35 -81t-35 -100.5t-111 -192.5l-88 35q86 155 90 203q1 9 -28.5 42t-28.5 56z" />
    <glyph glyph-name="acute.sc" horiz-adv-x="686" 
d="M111 1108l284 297l180 -35l-321 -262h-143z" />
    <glyph glyph-name="grave.sc" horiz-adv-x="673" 
d="M551 1108h-143l-285 262l184 35z" />
    <glyph glyph-name="hungarumlaut.sc" horiz-adv-x="950" 
d="M371 1108l284 297l181 -35l-322 -262h-143zM115 1108l284 297l181 -35l-322 -262h-143z" />
    <glyph glyph-name="circumflex.sc" horiz-adv-x="854" 
d="M604 1108l-168 158l-188 -158h-137l274 297h123l233 -297h-137z" />
    <glyph glyph-name="caron.sc" horiz-adv-x="854" 
d="M467 1116h-123l-233 297h137l168 -158l188 158h137z" />
    <glyph glyph-name="breve.sc" horiz-adv-x="876" 
d="M424 1245q80 0 130.5 49.5t72.5 132.5h102q-7 -129 -103.5 -223t-219.5 -94q-132 0 -200.5 90.5t-60.5 226.5h103q25 -182 176 -182z" />
    <glyph glyph-name="tilde.sc" horiz-adv-x="839" 
d="M686 1346l62 -72q-116 -141 -216 -141q-40 0 -130.5 33.5t-114.5 33.5q-54 0 -140 -72l-55 72q130 137 219 137q46 0 128 -30.5t108 -30.5q65 0 139 70z" />
    <glyph glyph-name="macron.sc" horiz-adv-x="886" 
d="M717 1321l-2 -31l-43 -94h-502l2 31l43 94h502z" />
    <glyph glyph-name="dieresis.sc" horiz-adv-x="876" 
d="M512 1280q1 30 41.5 70.5t67.5 40.5q28 0 69.5 -32t38.5 -61q-1 -30 -41.5 -70t-66.5 -40q-29 0 -70.5 32t-38.5 60zM145 1280q1 30 41.5 70.5t67.5 40.5q28 0 69.5 -32t38.5 -61q-1 -30 -41.5 -70t-66.5 -40q-29 0 -70.5 32t-38.5 60z" />
    <glyph glyph-name="dotaccent.sc" horiz-adv-x="444" 
d="M100 1270q1 33 47 78t76 45q31 0 76.5 -36t42.5 -69q-1 -33 -47.5 -77t-75.5 -44q-32 0 -77 35.5t-42 67.5z" />
    <glyph glyph-name="ring.sc" horiz-adv-x="692" 
d="M537 1296q-4 -74 -66.5 -128t-138.5 -54q-79 0 -131.5 49t-46.5 133q4 75 66 130t138 55q80 0 132.5 -49t46.5 -136zM252 1296q-3 -40 22.5 -66t63.5 -26t67.5 26t32.5 66q3 43 -23.5 70t-64.5 27t-66.5 -27t-31.5 -70z" />
    <glyph glyph-name="cedilla.sc" horiz-adv-x="591" 
d="M180 -186l101 186h96l-60 -111q38 -18 53 -25t40 -23t34.5 -28.5t17 -32t5.5 -42.5q-5 -74 -88 -134.5t-240 -74.5l-16 88q103 12 155.5 31.5t55.5 60.5q1 29 -34.5 50.5t-115.5 43.5z" />
    <glyph glyph-name="ogonek.sc" horiz-adv-x="626" 
d="M147 -276q4 53 41 109t81.5 95.5t95.5 71.5h116q-90 -63 -148 -132.5t-61 -125.5q-3 -39 21.5 -61.5t60.5 -22.5q32 0 86 27l23 -84q-84 -43 -156 -43q-82 0 -123.5 44.5t-36.5 121.5z" />
    <glyph glyph-name="Dotlessi.sc" horiz-adv-x="528" 
d="M393 1004l-74 -1004h-184l74 1004h184z" />
    <glyph glyph-name="Tcedilla.sc" horiz-adv-x="862" 
d="M350 0h-41l64 870l-320 -6l33 140h795l-31 -140l-299 6l-64 -870h-41l-59 -111q38 -18 53 -25t40 -23t34.5 -28.5t17 -32t5.5 -42.5q-5 -74 -88 -134.5t-240 -74.5l-16 88q103 12 155 31.5t55 60.5q1 29 -34 50.5t-115 43.5l-4 11z" />
    <glyph glyph-name="f_f.sc" horiz-adv-x="1654" 
d="M700 440l-354 4l-33 -444h-178l74 1004h600l-31 -130l-399 7l-25 -316h377zM1497 440l-354 4l-33 -444h-178l74 1004h600l-31 -130l-399 7l-25 -316h377z" />
    <glyph glyph-name="f_f_i.sc" horiz-adv-x="2129" 
d="M1995 1004l-74 -1004h-178l74 1004h178zM700 440l-354 4l-33 -444h-178l74 1004h600l-31 -130l-399 7l-25 -316h377zM1499 440l-354 4l-33 -444h-178l74 1004h600l-31 -130l-399 7l-25 -316h377z" />
    <glyph glyph-name="f_f_l.sc" horiz-adv-x="2437" 
d="M700 440l-354 4l-33 -444h-178l74 1004h600l-31 -130l-399 7l-25 -316h377zM1511 440l-354 4l-33 -444h-178l74 1004h600l-31 -130l-399 7l-25 -316h377zM1745 0l74 1004h178l-64 -871l455 6l-33 -139h-610z" />
    <glyph glyph-name="fi.sc" horiz-adv-x="1320" 
d="M1186 1004l-74 -1004h-178l74 1004h178zM700 440l-354 4l-33 -444h-178l74 1004h600l-31 -130l-399 7l-25 -316h377z" />
    <glyph glyph-name="fl.sc" horiz-adv-x="1638" 
d="M700 440l-354 4l-33 -444h-178l74 1004h600l-31 -130l-399 7l-25 -316h377zM946 0l74 1004h178l-63 -871l454 6l-33 -139h-610z" />
    </font>
</defs>
</svg>
