<?xml version="1.0" standalone="no"?>
<!DOCTYPE svg PUBLIC "-//W3C//DTD SVG 1.1//EN" "http://www.w3.org/Graphics/SVG/1.1/DTD/svg11.dtd" >
<svg xmlns="http://www.w3.org/2000/svg" xmlns:xlink="http://www.w3.org/1999/xlink" version="1.1">
<metadata>
Created by FontForge 20170731 at Sat Feb 27 18:00:28 2021
 By Aleksey,,,
Universidad Nacional de Colombia, Unidad de Medios de Comunicacio'n (Unimedios), 2012-2015.
</metadata>
<defs>
<font id="AncizarSans-BoldItalic" horiz-adv-x="1046" >
  <font-face 
    font-family="Ancizar Sans"
    font-weight="700"
    font-style="italic"
    font-stretch="normal"
    units-per-em="2048"
    panose-1="2 11 8 2 4 3 0 0 0 3"
    ascent="1536"
    descent="-512"
    x-height="922"
    cap-height="1253"
    bbox="-219 -528 2605 1825"
    underline-thickness="0"
    underline-position="0"
    slope="-4"
    unicode-range="U+0020-FB04"
  />
<missing-glyph horiz-adv-x="1228" 
d="M102 0v1440h1024v-1440h-1024zM614 813l349 524h-697zM205 1245v-1050l348 524zM676 719l348 -524v1050zM266 102h697l-349 525z" />
    <glyph glyph-name="f_f" unicode="ff" horiz-adv-x="1062" 
d="M436 -481q-83 0 -125 22l51 207q50 -22 117 -22q59 0 98 47.5t46 156.5l53 826h-268l-50 -762q-7 -100 -36 -181.5t-72.5 -135.5t-99.5 -90t-113.5 -52t-118.5 -16q-83 0 -125 22l51 207q41 -18 117 -18q130 0 143 200l52 826h-117l8 135l119 29l2 18q7 106 37 190
t73 135.5t100 85.5t112 47t114 13q89 0 139 -16l-47 -201q-53 16 -139 16q-53 0 -89 -34t-40 -101l-10 -151h268l4 57q7 106 37.5 190t73.5 135.5t99.5 85.5t111.5 47t114 13q90 0 140 -16l-47 -201q-53 16 -140 16q-53 0 -89 -34t-40 -101l-12 -192h190l-30 -166h-172
l-49 -762q-8 -124 -50.5 -219t-106.5 -149t-135.5 -80.5t-148.5 -26.5z" />
    <glyph glyph-name="fi" unicode="fi" horiz-adv-x="1021" 
d="M-82 -481q-83 0 -125 22l51 207q41 -18 117 -18q130 0 143 200l54 826h-119l8 135l121 31l4 57q7 114 49.5 205t109 148.5t150 87.5t176.5 30q179 0 310 -49l-82 -205q-144 53 -277 53q-169 0 -180 -182l-10 -145h315l209 30l-68 -952h-247l53 756h-272l-50 -762
q-7 -100 -36 -181.5t-72.5 -135.5t-99.5 -90t-113.5 -52t-118.5 -16z" />
    <glyph glyph-name="fl" unicode="fl" horiz-adv-x="1097" 
d="M-82 -481q-83 0 -125 22l51 207q41 -18 117 -18q130 0 143 200l54 826h-119l8 135l121 31l4 57q7 114 49.5 205t109 148.5t150 87.5t176.5 30q91 0 197 -18l127 18q-27 -368 -51.5 -660.5t-33.5 -396.5t-9 -141q0 -27 13.5 -46.5t35.5 -19.5q36 0 104 39l33 -162
q-158 -94 -262 -94q-80 0 -129 48.5t-49 142.5q0 49 9 151t31.5 362t45.5 566q-58 10 -111 10q-169 0 -180 -182l-10 -145h178l-31 -166h-157l-50 -762q-7 -100 -36 -181.5t-72.5 -135.5t-99.5 -90t-113.5 -52t-118.5 -16z" />
    <glyph glyph-name="f_f_i" unicode="ffi" horiz-adv-x="1540" 
d="M436 -481q-83 0 -125 22l51 207q40 -18 117 -18q131 0 144 200l53 826h-268l-50 -762q-7 -100 -36 -181.5t-72.5 -135.5t-99.5 -90t-113.5 -52t-118.5 -16q-83 0 -125 22l51 207q41 -18 117 -18q130 0 143 200l52 826h-117l8 135l119 29l2 18q7 106 37 190t73 135.5
t100 85.5t112 47t114 13q89 0 139 -16l-47 -201q-53 16 -139 16q-53 0 -89 -34t-40 -101l-10 -151h268l4 57q7 114 49.5 205t109.5 148.5t150.5 87.5t176.5 30q178 0 309 -49l-82 -205q-144 53 -277 53q-169 0 -180 -182l-10 -145h315l209 30l-67 -952h-248l53 756h-272
l-49 -762q-8 -124 -50.5 -219t-106.5 -149t-135.5 -80.5t-148.5 -26.5z" />
    <glyph glyph-name="f_f_l" unicode="ffl" horiz-adv-x="1613" 
d="M434 -481q-83 0 -125 22l51 207q40 -18 117 -18q131 0 144 200l53 826h-266l-50 -762q-7 -100 -36 -181.5t-72.5 -135.5t-99.5 -90t-113.5 -52t-118.5 -16q-83 0 -125 22l51 207q41 -18 117 -18q130 0 143 200l52 826h-117l8 135l119 29l2 18q7 106 37 190t73 135.5
t100 85.5t112 47t114 13q89 0 139 -16l-47 -201q-53 16 -139 16q-53 0 -89 -34t-40 -101l-10 -151h266l4 57q7 114 49.5 205t109.5 148.5t150.5 87.5t176.5 30q90 0 196 -18l127 18q-27 -368 -51.5 -660.5t-33.5 -396.5t-9 -141q0 -27 13.5 -46.5t35.5 -19.5q36 0 104 39
l33 -162q-158 -94 -262 -94q-80 0 -129 48.5t-49 142.5q0 49 9 151t31.5 362t45.5 566q-58 10 -111 10q-169 0 -180 -182l-10 -145h194l-30 -166h-174l-50 -762q-7 -100 -36 -181.5t-72.5 -135.5t-99.5 -90t-113.5 -52t-118.5 -16z" />
    <glyph glyph-name=".notdef" horiz-adv-x="1228" 
d="M102 0v1440h1024v-1440h-1024zM614 813l349 524h-697zM205 1245v-1050l348 524zM676 719l348 -524v1050zM266 102h697l-349 525z" />
    <glyph glyph-name=".null" horiz-adv-x="0" 
 />
    <glyph glyph-name="nonmarkingreturn" horiz-adv-x="682" 
 />
    <glyph glyph-name="space" unicode=" " horiz-adv-x="419" 
 />
    <glyph glyph-name="exclam" unicode="!" horiz-adv-x="645" 
d="M397 365l-198 -39q17 242 24 484.5t-2 440.5l273 64q-76 -654 -97 -950zM125 90q3 41 69 98.5t103 57.5q35 0 92.5 -53.5t54.5 -92.5q-3 -37 -66 -90t-97 -53q-36 0 -96.5 50t-59.5 83z" />
    <glyph glyph-name="quotedbl" unicode="&#x22;" horiz-adv-x="722" 
d="M449 936l2 483h235l-70 -483h-167zM139 936l-4 483h236l-64 -483h-168z" />
    <glyph glyph-name="numbersign" unicode="#" horiz-adv-x="1183" 
d="M668 498l69 223h-231l-70 -223h232zM512 0l115 365h-232l-114 -365h-154l115 365h-226l2 30l62 103h203l69 223h-250l2 31l62 102h227l125 399h154l-125 -399h231l125 399h154l-125 -399h231l-2 -31l-61 -102h-209l-70 -223h256l-2 -31l-61 -102h-234l-114 -365h-154z
" />
    <glyph glyph-name="dollar" unicode="$" 
d="M549 -297h-203l41 266q-182 3 -324 60l58 223q200 -86 364 -86q69 0 115.5 39.5t46.5 107.5q0 59 -31 103t-106 82l-143 71q-224 114 -224 316q0 147 95 252t247 135l-4 264h203l-39 -252q171 -9 311 -59l-59 -228q-75 31 -172 57.5t-168 26.5q-69 0 -113.5 -36.5
t-44.5 -96.5q0 -106 140 -176l149 -76q121 -61 174 -139.5t53 -179.5q0 -147 -103 -253.5t-269 -139.5z" />
    <glyph glyph-name="percent" unicode="%" horiz-adv-x="1343" 
d="M682 991q-9 -140 -105.5 -232.5t-232.5 -92.5q-129 0 -199 79.5t-61 217.5q11 138 106 230.5t232 92.5q127 0 198.5 -79.5t61.5 -215.5zM39 0l1079 1253h185l-1080 -1253h-184zM514 975q11 188 -133 188q-63 0 -93 -45t-36 -139q-11 -188 133 -188q61 0 92 45.5t37 138.5
zM1260 295q-11 -140 -106.5 -233t-231.5 -93q-130 0 -200 80t-60 217q9 138 104.5 231t232.5 93q127 0 198.5 -79t62.5 -216zM1090 279q14 188 -132 188q-63 0 -94 -45.5t-37 -138.5q-12 -189 134 -189q61 0 92 45.5t37 139.5z" />
    <glyph glyph-name="ampersand" unicode="&#x26;" horiz-adv-x="1265" 
d="M1133 -53q0 -203 -215 -369l-127 115q109 109 112 196q0 42 -17 81.5t-69 105.5q-184 -107 -395 -107q-174 0 -274.5 81t-100.5 214q0 115 70 203.5t202 171.5q-70 75 -103.5 137.5t-33.5 138.5q0 154 121.5 261.5t317.5 107.5q78 0 159.5 -17t122.5 -42l-72 -181
q-49 26 -124 45t-134 19t-101 -36t-42 -93q0 -37 24.5 -77t58.5 -73.5t98 -98.5t114 -124q23 -27 182 -217q49 90 49 189q0 131 -84 245l222 92q34 -40 57 -115t23 -157q0 -221 -154 -399q64 -88 88.5 -153.5t24.5 -143.5zM508 143q108 0 209 56q-42 52 -166 194
q-90 101 -137 148q-65 -50 -98 -101.5t-33 -115.5q0 -81 67.5 -131t157.5 -50z" />
    <glyph glyph-name="quotesingle" unicode="'" horiz-adv-x="407" 
d="M137 936l-2 483h236l-68 -483h-166z" />
    <glyph glyph-name="parenleft" unicode="(" horiz-adv-x="675" 
d="M610 -190l-110 -103q-198 137 -291 373.5t-74 513.5q19 272 143.5 502t344.5 385l98 -103q-184 -141 -292.5 -348t-123.5 -436q-17 -239 61 -441.5t244 -342.5z" />
    <glyph glyph-name="parenright" unicode=")" horiz-adv-x="675" 
d="M66 1378l110 103q198 -137 291 -373.5t74 -513.5q-19 -272 -143.5 -502t-344.5 -385l-98 103q184 141 292.5 348t123.5 436q17 239 -61 441.5t-244 342.5z" />
    <glyph glyph-name="asterisk" unicode="*" horiz-adv-x="827" 
d="M487 1403q26 -59 19 -156q-7 -82 -31 -143l-55 -8q-7 145 -76 262zM776 1202q-103 -120 -264 -153l-31 41q104 73 195 210zM154 1237q156 -18 252 -141l-23 -52q-107 48 -266 48zM729 842q-156 24 -250 145l21 47q122 -50 272 -47zM111 881q56 61 118 96t144 57l30 -45
q-104 -75 -188 -207zM395 682q-23 57 -16 154q6 76 31 141l53 10q10 -144 78 -262z" />
    <glyph glyph-name="plus" unicode="+" 
d="M928 463h-324l-22 -330h-176l22 330h-324l13 164h323l23 319h176l-23 -319h324z" />
    <glyph glyph-name="comma" unicode="," horiz-adv-x="489" 
d="M68 131q4 46 51.5 86.5t91.5 40.5q48 0 101.5 -55.5t49.5 -124.5q-11 -113 -196 -393l-135 51q44 81 62.5 116t37.5 81.5t21 74.5q1 12 -20.5 32t-43 44t-20.5 47z" />
    <glyph glyph-name="hyphen" unicode="-" horiz-adv-x="690" 
d="M614 584l-4 -43l-55 -125h-479l4 43l65 125h469z" />
    <glyph glyph-name="period" unicode="." horiz-adv-x="489" 
d="M47 100q3 42 64.5 99t103.5 57t104.5 -46t59.5 -87q-3 -42 -66 -98t-102 -56q-43 0 -105 45.5t-59 85.5z" />
    <glyph glyph-name="slash" unicode="/" horiz-adv-x="724" 
d="M25 -225l512 1644h163l-512 -1644h-163z" />
    <glyph glyph-name="zero" unicode="0" 
d="M997 776q1 -167 -26.5 -302.5t-76 -228.5t-116.5 -156t-147.5 -91.5t-171.5 -28.5q-200 0 -305 134.5t-105 369.5q0 179 29.5 319.5t79.5 231.5t120.5 150.5t147 84.5t164.5 25q200 0 304.5 -135.5t102.5 -372.5zM512 152q219 4 219 563q3 385 -194 385q-37 0 -67.5 -14
t-59.5 -53t-49 -101.5t-32 -165t-12 -238.5q0 -373 195 -376z" />
    <glyph glyph-name="one" unicode="1" 
d="M731 0h-264l70 1001l-301 -124l-46 221q262 83 463 155h166z" />
    <glyph glyph-name="two" unicode="2" 
d="M879 0h-807l14 193q324 283 451 434t127 264q0 83 -56.5 130.5t-146.5 47.5q-108 0 -268 -80l-48 205q197 90 400 90q181 0 287 -90.5t106 -247.5q0 -146 -130.5 -326.5t-414.5 -414.5l535 10z" />
    <glyph glyph-name="three" unicode="3" 
d="M367 -31q-86 0 -173 13t-139 32l64 219q159 -51 287 -51q113 0 180 45.5t67 132.5q0 83 -55.5 134t-167.5 51q-81 0 -143 -8l-29 192q205 0 302 54.5t97 142.5q0 71 -47.5 109t-122.5 38q-59 0 -133 -21.5t-129 -52.5l-47 199q73 37 186.5 61.5t208.5 24.5
q164 0 259.5 -77t95.5 -203q0 -103 -69 -190.5t-189 -129.5q125 -28 188.5 -108t63.5 -193q0 -179 -155 -296.5t-400 -117.5z" />
    <glyph glyph-name="four" unicode="4" 
d="M594 422l37 522l-391 -522h354zM967 227h-140l-16 -227h-246l17 227h-602l12 179l649 847h258l-59 -831h184z" />
    <glyph glyph-name="five" unicode="5" 
d="M328 -31q-138 0 -287 39l63 213q163 -55 310 -55q109 0 178.5 53.5t69.5 149.5q0 92 -73.5 144t-211.5 52q-115 0 -219 -22l88 710h721l-45 -200h-478l-36 -297q72 14 122 14q174 0 284 -89.5t110 -244.5q0 -111 -45 -200.5t-125 -147t-188.5 -88.5t-237.5 -31z" />
    <glyph glyph-name="six" unicode="6" 
d="M965 453q0 -204 -136 -344t-348 -140q-198 0 -303.5 133t-105.5 381q0 168 33 303.5t90.5 227.5t139.5 153.5t176.5 89t203.5 27.5q65 0 139 -11t119 -26l-51 -219q-144 49 -271 49q-124 0 -199.5 -80.5t-103.5 -277.5q136 84 273 84q168 0 256 -94.5t88 -255.5zM528 152
q81 0 132 60.5t51 184.5q0 94 -52.5 153.5t-140.5 59.5q-90 0 -182 -57q-2 -29 -2 -90q1 -147 53.5 -229t140.5 -82z" />
    <glyph glyph-name="seven" unicode="7" 
d="M436 -37l-264 78l526 987h-608l51 225h865l-15 -192z" />
    <glyph glyph-name="eight" unicode="8" 
d="M463 -31q-199 0 -307.5 83t-108.5 227q0 110 66.5 193.5t191.5 156.5q-83 59 -123.5 127t-40.5 168q0 111 64 194.5t164.5 124t218.5 39.5q173 2 273 -70t100 -200q0 -89 -62.5 -175t-173.5 -155q87 -51 134.5 -93t73 -98t25.5 -133q0 -164 -145.5 -276.5t-349.5 -112.5z
M385 971q0 -55 38 -97t142 -102q75 48 115.5 96.5t40.5 106.5q0 57 -50 93t-128 36q-73 0 -115.5 -38t-42.5 -95zM520 150q84 0 139.5 46t55.5 111q0 58 -52.5 108t-195.5 122q-89 -59 -128.5 -110t-39.5 -112q0 -73 62.5 -119t158.5 -46z" />
    <glyph glyph-name="nine" unicode="9" 
d="M532 639q91 0 183 57q2 29 2 90q-1 147 -53.5 229.5t-141.5 82.5q-83 0 -132.5 -60t-49.5 -182q0 -98 49.5 -157.5t142.5 -59.5zM322 -31q-145 0 -254 37l49 209q103 -39 215 -39q66 0 120 17t102.5 55.5t84.5 108.5t55 169q-125 -80 -264 -80q-168 0 -256 97t-88 258
q0 204 135.5 343.5t347.5 139.5q198 0 304 -133t106 -381q0 -167 -37.5 -303.5t-100.5 -227.5t-148 -153t-178 -89.5t-193 -27.5z" />
    <glyph glyph-name="colon" unicode=":" horiz-adv-x="489" 
d="M76 674q3 42 64.5 98.5t103.5 56.5t104.5 -46t59.5 -87q-3 -42 -66 -97.5t-102 -55.5q-43 0 -105 45.5t-59 85.5zM35 100q3 42 64.5 99t103.5 57t104.5 -46t59.5 -87q-3 -42 -66 -98t-102 -56q-43 0 -105 45.5t-59 85.5z" />
    <glyph glyph-name="semicolon" unicode=";" horiz-adv-x="489" 
d="M74 674q3 42 64.5 98.5t103.5 56.5t104.5 -46t59.5 -87q-3 -42 -66 -97.5t-102 -55.5q-43 0 -105 45.5t-59 85.5zM49 131q4 46 52 86.5t92 40.5q48 0 101.5 -55.5t49.5 -124.5q-11 -111 -197 -393l-135 51q44 81 62.5 116t37.5 81.5t21 74.5q1 12 -20.5 32t-43 44
t-20.5 47z" />
    <glyph glyph-name="equal" unicode="=" 
d="M897 764v-31l-47 -131h-684v31l47 131h684zM881 483v-30l-47 -131h-684v30l47 131h684z" />
    <glyph glyph-name="question" unicode="?" horiz-adv-x="874" 
d="M528 381l-225 -57q-72 97 -70 163q4 60 36 99.5t120 109.5q95 75 132.5 126.5t41.5 125.5q5 61 -43 108.5t-119 47.5q-53 0 -99.5 -19t-141.5 -75l-70 180q211 108 385 108q167 0 270 -90.5t93 -234.5q-3 -46 -23.5 -89.5t-58.5 -84t-69.5 -68t-80.5 -65.5
q-70 -52 -98 -82.5t-29 -61.5q-3 -39 49 -141zM219 84q3 42 65 98t101 56q34 0 89 -52.5t52 -93.5q-3 -42 -66.5 -96.5t-97.5 -54.5q-39 0 -92.5 51.5t-50.5 91.5z" />
    <glyph glyph-name="at" unicode="@" horiz-adv-x="1636" 
d="M692 -309q-65 0 -129 11t-131.5 37.5t-126 66.5t-109.5 102t-85.5 139.5t-50.5 183.5t-7 230q13 186 74 341t150.5 257t202.5 173t228 102.5t230 31.5q201 0 351.5 -70t229.5 -206t66 -320q-9 -126 -64 -241.5t-141 -203t-196 -149t-230 -86.5l-30 250
q-129 -217 -256 -217q-96 0 -147 92.5t-38 267.5q5 70 24 137t56 131t87.5 112t123.5 77t158 29q42 0 83 -8t66.5 -17t67.5 -26l-45 -633q55 34 98 73t83 95.5t64.5 133.5t30.5 171q13 199 -118 314.5t-367 115.5q-173 0 -312 -91.5t-220 -248t-97 -352.5q-9 -130 12 -236.5
t65.5 -180t110 -123t143 -72.5t167.5 -23q37 0 72 3t68 9.5t57 12.5t53.5 16.5t43 16t40.5 17t32 13.5l46 -148q-70 -30 -123.5 -49.5t-156 -40t-204.5 -20.5zM762 289q18 0 40 14t49 45.5t50 99t35 160.5l14 207q-38 10 -86 10t-82 -23.5t-53 -70.5t-29 -101t-16 -132
q-7 -101 13 -155t65 -54z" />
    <glyph glyph-name="A" unicode="A" horiz-adv-x="1132" 
d="M700 500l-110 512l-195 -512h305zM807 0l-64 299h-424l-114 -299h-256l512 1253h334l278 -1253h-266z" />
    <glyph glyph-name="B" unicode="B" horiz-adv-x="1071" 
d="M510 1085h-80l-27 -362h101q99 0 156 45.5t57 128.5q0 86 -55 137t-152 51zM496 559h-103l-28 -387h135q110 0 173.5 48.5t63.5 135.5q0 90 -62 146.5t-179 56.5zM98 0l88 1253h385q392 0 392 -288q0 -91 -47 -167t-130 -128q99 -29 158.5 -97t59.5 -178q0 -97 -45 -174
t-122 -124.5t-173 -72t-203 -24.5h-363z" />
    <glyph glyph-name="C" unicode="C" horiz-adv-x="1009" 
d="M895 231l37 -180q-189 -80 -377 -80q-224 0 -365 149.5t-141 418.5q0 116 24.5 223t76.5 202.5t127 166.5t183.5 112t237.5 41q162 0 299 -55l-63 -213q-173 57 -293 57q-148 0 -233.5 -128t-85.5 -382q0 -96 27.5 -171.5t73 -120.5t99 -68t109.5 -23q124 0 264 51z" />
    <glyph glyph-name="D" unicode="D" horiz-adv-x="1210" 
d="M186 1253h424q251 0 400.5 -143.5t150.5 -394.5q-1 -214 -91 -377.5t-245 -250.5t-350 -87h-377zM438 1051l-61 -848h112q84 0 155 28t126 83t86 144.5t31 205.5q0 192 -92.5 289.5t-249.5 97.5h-107z" />
    <glyph glyph-name="E" unicode="E" horiz-adv-x="987" 
d="M98 0l88 1253h748l-45 -200l-453 6l-20 -316h432l-45 -198l-402 8l-24 -352l514 6l-45 -207h-748z" />
    <glyph glyph-name="F" unicode="F" horiz-adv-x="952" 
d="M797 516l-398 8l-37 -524h-264l88 1253h748l-45 -200l-453 6l-22 -344h428z" />
    <glyph glyph-name="G" unicode="G" horiz-adv-x="1146" 
d="M1006 63q-89 -42 -203.5 -68t-224.5 -26q-238 0 -383.5 146.5t-145.5 425.5q0 112 25.5 219t79 202.5t129.5 167.5t185.5 114t238.5 42q105 0 214 -21t164 -51l-63 -223q-196 82 -371 82q-161 0 -246.5 -130t-85.5 -380q0 -101 27 -178t73 -121.5t101 -66t117 -21.5
q64 0 143 14l31 433h233z" />
    <glyph glyph-name="H" unicode="H" horiz-adv-x="1257" 
d="M807 0l37 537h-445l-37 -537h-264l88 1253h265l-35 -501h444l35 501h264l-88 -1253h-264z" />
    <glyph glyph-name="I" unicode="I" horiz-adv-x="548" 
d="M451 1253l-89 -1253h-264l88 1253h265z" />
    <glyph glyph-name="J" unicode="J" horiz-adv-x="718" 
d="M621 1253l-62 -893q-12 -179 -129.5 -285t-286.5 -106q-111 0 -192 35l57 217q76 -37 150 -37q55 0 93 43.5t44 130.5l61 895h265z" />
    <glyph glyph-name="K" unicode="K" horiz-adv-x="1169" 
d="M1118 0h-309l-399 674l487 579h297l-508 -577zM449 1253l-89 -1253h-262l88 1253h263z" />
    <glyph glyph-name="L" unicode="L" horiz-adv-x="942" 
d="M98 0l88 1253h265l-74 -1044l516 6l-47 -215h-748z" />
    <glyph glyph-name="M" unicode="M" horiz-adv-x="1652" 
d="M651 0l-229 903l-125 -903h-242l195 1253h332l229 -872l336 872h348l10 -1253h-262l-4 915l-354 -915h-234z" />
    <glyph glyph-name="N" unicode="N" horiz-adv-x="1265" 
d="M848 0l-451 840l-59 -840h-240l88 1253h258l433 -831l51 831h239l-86 -1253h-233z" />
    <glyph glyph-name="O" unicode="O" horiz-adv-x="1216" 
d="M1167 727q0 -182 -51.5 -329t-139.5 -239t-199.5 -141t-235.5 -49q-226 0 -359 150.5t-133 406.5q0 147 34 271.5t93 213t138.5 151t171 92.5t190.5 30q226 0 358.5 -150.5t132.5 -406.5zM606 174q61 0 111 27t91 85t64 160.5t23 241.5q0 194 -81.5 292.5t-209.5 98.5
q-61 0 -110.5 -27t-89 -85.5t-61 -160.5t-21.5 -241q0 -199 78 -295t206 -96z" />
    <glyph glyph-name="P" unicode="P" horiz-adv-x="1042" 
d="M518 1073h-82l-30 -442h104q112 0 176 59t64 156q0 108 -61.5 167.5t-170.5 59.5zM477 438h-84l-31 -438h-264l86 1253h385q220 0 334.5 -94t114.5 -264q0 -200 -148.5 -328.5t-392.5 -128.5z" />
    <glyph glyph-name="Q" unicode="Q" horiz-adv-x="1216" 
d="M850 -410q-65 0 -158 36.5t-182 73t-145 36.5q-30 0 -58.5 -9t-45.5 -17.5t-77 -41.5l-34 170l2 2l-2 2q160 56 317 131q-194 25 -306 172t-112 381q0 147 34 271.5t93 213t138.5 151t171 92.5t190.5 30q226 0 358.5 -150.5t132.5 -406.5q0 -238 -84 -407.5t-227 -260.5
q-106 -77 -319 -184q29 -7 91 -24.5t99 -27t84.5 -18t79.5 -8.5q102 0 194 62l-12 -201q-99 -68 -223 -68zM606 174q61 0 111 27t91 85t64 160.5t23 241.5q0 194 -81.5 292.5t-209.5 98.5q-61 0 -110.5 -27t-89 -85.5t-61 -160.5t-21.5 -241q0 -199 78 -295t206 -96z" />
    <glyph glyph-name="R" unicode="R" horiz-adv-x="1091" 
d="M520 1073h-84l-26 -399h112q101 0 159 52t58 148q0 94 -57.5 146.5t-161.5 52.5zM496 481h-101l-33 -481h-264l86 1253h396q206 0 317 -90.5t111 -249.5q0 -118 -61.5 -215t-170.5 -153l273 -545h-293l-215 483q-14 -2 -45 -2z" />
    <glyph glyph-name="S" unicode="S" horiz-adv-x="960" 
d="M477 498l-143 71q-223 114 -223 316q0 175 131 287t325 112q196 0 357 -59l-60 -228q-75 31 -172 57.5t-168 26.5q-69 0 -113 -36.5t-44 -96.5q0 -106 139 -176l149 -76q122 -61 175 -139.5t53 -179.5q0 -178 -145.5 -293t-364.5 -115q-195 0 -342 60l57 223
q200 -86 365 -86q69 0 115 39.5t46 107.5q0 59 -31 103t-106 82z" />
    <glyph glyph-name="T" unicode="T" horiz-adv-x="1028" 
d="M1006 1040l-330 7l-72 -1047h-264l72 1047l-363 -7l47 213h957z" />
    <glyph glyph-name="U" unicode="U" horiz-adv-x="1257" 
d="M184 1253h265q-9 -131 -18.5 -256.5t-14.5 -197t-10 -140t-7.5 -102.5t-4.5 -65t-2.5 -47.5t-0.5 -32.5q0 -122 65.5 -180t170.5 -58q204 0 221 258l57 821h254l-55 -790q-15 -237 -153 -365.5t-386 -128.5q-200 0 -320 100.5t-120 286.5q0 64 7.5 176.5t51.5 720.5z" />
    <glyph glyph-name="V" unicode="V" horiz-adv-x="1148" 
d="M678 0h-311l-310 1253h275l223 -974l375 974h262z" />
    <glyph glyph-name="W" unicode="W" horiz-adv-x="1736" 
d="M1073 0l-192 831l-324 -831h-289l-172 1253h275l108 -884l328 884h235l203 -888l238 888h243l-360 -1253h-293z" />
    <glyph glyph-name="X" unicode="X" horiz-adv-x="1085" 
d="M756 0l-246 449l-277 -449h-286l446 666l-321 587h290l218 -399l247 399h289l-418 -616l349 -637h-291z" />
    <glyph glyph-name="Y" unicode="Y" horiz-adv-x="1064" 
d="M627 0h-265l33 475l-346 778h283l233 -520l285 520h266l-457 -776z" />
    <glyph glyph-name="Z" unicode="Z" horiz-adv-x="1081" 
d="M944 0h-883l9 166l624 870h-571l41 217h856l-10 -188l-623 -854h598z" />
    <glyph glyph-name="bracketleft" unicode="[" horiz-adv-x="675" 
d="M573 -127l-8 -133h-418l119 1708h418l-8 -133h-252l-100 -1442h249z" />
    <glyph glyph-name="backslash" unicode="\" horiz-adv-x="724" 
d="M303 1419l283 -1644h-164l-283 1644h164z" />
    <glyph glyph-name="bracketright" unicode="]" horiz-adv-x="675" 
d="M410 -260h-418l8 133h252l100 1442h-250l9 133h417z" />
    <glyph glyph-name="underscore" unicode="_" horiz-adv-x="901" 
d="M881 -207v-153h-901v153h901z" />
    <glyph glyph-name="grave" unicode="`" horiz-adv-x="657" 
d="M582 1036h-211l-295 275l262 47z" />
    <glyph glyph-name="a" unicode="a" horiz-adv-x="968" 
d="M612 -31l-12 197q-68 -94 -147.5 -145.5t-157.5 -51.5q-111 0 -178.5 90t-67.5 277q0 170 65 310.5t182.5 223t262.5 82.5q207 0 332 -69l-62 -883zM412 156q22 0 45.5 12t51 43t50 78.5t40.5 125.5t26 177l12 156q-58 30 -113 30q-213 0 -213 -424q0 -101 29 -149.5
t72 -48.5z" />
    <glyph glyph-name="b" unicode="b" horiz-adv-x="978" 
d="M487 147q85 0 132 104t47 300q0 217 -101 217q-61 0 -123.5 -98t-85.5 -269l-14 -229q73 -25 145 -25zM444 -29q-89 0 -200 35l-99 -55l-63 41l96 1421l250 37l-47 -692q134 194 295 194q252 0 252 -366q0 -116 -30.5 -218t-80.5 -173t-114 -123t-130 -76.5t-129 -24.5z
" />
    <glyph glyph-name="c" unicode="c" horiz-adv-x="768" 
d="M657 258l62 -145q-181 -144 -354 -144q-65 0 -119 21.5t-98.5 66t-69.5 123.5t-25 185q0 139 37 252.5t99.5 185.5t143.5 110.5t171 38.5q72 0 147 -22.5t113 -50.5l-84 -185q-33 27 -89.5 53.5t-107.5 26.5q-70 0 -119 -107t-49 -270q0 -120 38 -177.5t98 -57.5
q87 0 206 96z" />
    <glyph glyph-name="d" unicode="d" horiz-adv-x="978" 
d="M614 -31l-10 207q-135 -205 -301 -205q-252 0 -252 367q0 144 46.5 264.5t119 194.5t156 114.5t162.5 40.5q40 0 118 -12l35 473l250 37l-98 -1450zM414 156q64 0 128 106t83 291l14 199q-70 24 -147 24q-86 0 -132.5 -103.5t-46.5 -299.5q0 -217 101 -217z" />
    <glyph glyph-name="e" unicode="e" horiz-adv-x="806" 
d="M387 -31q-154 0 -242 97.5t-88 287.5q0 120 26.5 220.5t71.5 169t104 116.5t122.5 70t128.5 22q123 0 193.5 -65.5t70.5 -163.5q0 -137 -134 -230.5t-327 -111.5q5 -225 146 -225q97 0 233 108l62 -139q-181 -156 -367 -156zM463 791q-120 0 -146 -277q104 14 165 62
t61 120q0 42 -21 68.5t-59 26.5z" />
    <glyph glyph-name="f" unicode="f" horiz-adv-x="544" 
d="M-82 -481q-83 0 -125 22l51 207q41 -18 117 -18q130 0 143 200l54 826h-119l8 135l121 31l4 57q7 106 37.5 190t73.5 135.5t99.5 85.5t111.5 47t114 13q90 0 140 -16l-48 -201q-53 16 -139 16q-53 0 -89 -34t-40 -101l-12 -192h190l-30 -166h-172l-50 -762
q-7 -100 -36 -181.5t-72.5 -135.5t-99.5 -90t-113.5 -52t-118.5 -16z" />
    <glyph glyph-name="g" unicode="g" horiz-adv-x="806" 
d="M422 489q51 0 82 39t31 109q0 77 -33 121.5t-94 44.5q-113 0 -113 -148q0 -77 33 -121.5t94 -44.5zM770 -74q0 -93 -70 -180.5t-185 -141t-239 -53.5q-165 0 -252 58.5t-87 152.5q0 74 45.5 135.5t162.5 129.5l48 26q-95 55 -95 137q0 42 33 87.5t92 84.5
q-157 60 -157 252q0 150 113 244t280 94q73 0 129 -18l151 221l133 -133l-20 -47l-158 -105q70 -70 70 -192q0 -142 -109 -240t-286 -98h-15q-39 -31 -39 -57q0 -30 46.5 -55t170.5 -56q131 -32 184.5 -91.5t53.5 -154.5zM346 -270q98 0 156.5 36t58.5 91q0 49 -43.5 75.5
t-171.5 61.5q-5 2 -25.5 7.5t-29.5 8.5l-25 -16q-57 -40 -84.5 -73t-27.5 -77q0 -48 49 -81t143 -33z" />
    <glyph glyph-name="h" unicode="h" horiz-adv-x="991" 
d="M567 750q-25 0 -53.5 -17.5t-61 -57t-59 -119.5t-37.5 -189l-26 -367h-250l98 1413l254 37l-51 -721q143 223 309 223q215 0 215 -254q0 -97 -35 -394t-36 -304h-250q2 22 19.5 165.5t30.5 269.5t13 177q0 73 -19.5 105.5t-60.5 32.5z" />
    <glyph glyph-name="i" unicode="i" horiz-adv-x="475" 
d="M141 1214q0 42 53.5 101t96.5 59q40 0 93.5 -43.5t53.5 -85.5q0 -41 -53.5 -99.5t-95.5 -58.5q-41 0 -94.5 43t-53.5 84zM145 915l250 37l-67 -952h-248z" />
    <glyph glyph-name="j" unicode="j" horiz-adv-x="462" 
d="M137 1214q0 42 53.5 101t96.5 59q40 0 93.5 -43.5t53.5 -85.5q0 -41 -53.5 -99.5t-95.5 -58.5q-41 0 -94.5 43t-53.5 84zM-168 -471l-27 223q34 -6 86 -6q162 0 181 244l67 925l250 37l-67 -944q-17 -227 -145 -353.5t-345 -125.5z" />
    <glyph glyph-name="k" unicode="k" horiz-adv-x="907" 
d="M672 -20q-73 91 -307 538l-37 -518h-248l102 1419l250 29l-67 -930q84 70 165.5 176t147.5 228h252q-46 -96 -134.5 -211t-185.5 -205q142 -230 201.5 -317t106.5 -142z" />
    <glyph glyph-name="l" unicode="l" horiz-adv-x="544" 
d="M487 225l33 -162q-158 -94 -262 -94q-80 0 -129 48.5t-49 142.5q0 52 10 166.5t36 416t52 670.5l250 37q-27 -368 -51.5 -660.5t-33.5 -396.5t-9 -141q0 -27 13.5 -46.5t35.5 -19.5q36 0 104 39z" />
    <glyph glyph-name="m" unicode="m" horiz-adv-x="1501" 
d="M354 328v2l-24 -330h-250l63 915l224 37l12 -227q72 112 153 169.5t160 57.5q98 0 150 -53.5t59 -167.5q70 109 149 165t158 56q209 0 209 -254q0 -97 -35 -394t-36 -304h-250q2 22 19.5 165.5t30.5 269.5t13 177q0 75 -17 106.5t-57 31.5q-23 0 -49 -15t-56 -47.5
t-56.5 -98.5t-40.5 -155q-7 -70 -18.5 -170t-19 -168t-9.5 -96l-250 2q2 17 13 118t19.5 184t16.5 176.5t8 133.5q0 74 -17 105t-57 31q-20 0 -43 -10.5t-51 -40t-51.5 -74.5t-43 -122.5t-26.5 -174.5z" />
    <glyph glyph-name="n" unicode="n" horiz-adv-x="989" 
d="M567 750q-19 0 -41 -10t-49.5 -37.5t-50.5 -69.5t-43 -113.5t-29 -161.5l-24 -358h-250l63 915l224 37l10 -227q72 112 153 169.5t160 57.5q215 0 215 -254q0 -97 -35 -394t-36 -304h-250q2 22 19.5 165.5t30.5 269.5t13 177q0 73 -19.5 105.5t-60.5 32.5z" />
    <glyph glyph-name="o" unicode="o" horiz-adv-x="925" 
d="M872 541q0 -83 -18 -164t-56.5 -155t-92.5 -130t-133.5 -89.5t-172.5 -33.5q-152 0 -249 103.5t-97 308.5q0 83 18 164t57 154.5t93.5 129.5t133 89.5t171.5 33.5q159 0 252.5 -102t93.5 -309zM459 131q48 0 81 40.5t48.5 109t21.5 131.5t6 133q0 123 -35.5 184.5
t-113.5 61.5q-39 0 -68.5 -29.5t-46 -72.5t-26.5 -102t-13.5 -108.5t-3.5 -101.5q0 -129 35.5 -187.5t114.5 -58.5z" />
    <glyph glyph-name="p" unicode="p" horiz-adv-x="983" 
d="M492 147q85 0 131.5 103.5t46.5 300.5q0 217 -101 217q-62 0 -124.5 -100t-84.5 -275l-16 -221q73 -25 148 -25zM301 -444l-250 -37l92 1396l226 37l10 -204q135 204 301 204q252 0 252 -366q0 -116 -30.5 -218t-80.5 -173t-113.5 -123t-129.5 -76.5t-129 -24.5
q-33 0 -117 13z" />
    <glyph glyph-name="q" unicode="q" horiz-adv-x="974" 
d="M555 -481l45 649q-136 -197 -297 -197q-252 0 -252 367q0 144 46.5 264.5t119 194.5t156 114.5t162.5 40.5q94 0 202 -34l99 55l63 -41l-94 -1376zM414 156q66 0 130 108.5t83 298.5l12 189q-70 24 -147 24q-86 0 -132.5 -103.5t-46.5 -299.5q0 -217 101 -217z" />
    <glyph glyph-name="r" unicode="r" horiz-adv-x="673" 
d="M330 0h-250l65 915l222 37l10 -266q50 133 132.5 199.5t162.5 66.5q37 0 49 -4l-49 -258q-27 10 -72 10q-49 0 -86 -14.5t-69.5 -50.5t-54 -104t-32.5 -169z" />
    <glyph glyph-name="s" unicode="s" horiz-adv-x="743" 
d="M313 -31q-85 0 -165 19.5t-132 46.5l64 196q142 -81 268 -81q36 0 61 22t25 55q0 27 -20 51.5t-70 59.5l-113 80q-73 52 -106 108t-33 140q0 125 97.5 205.5t246.5 80.5q81 0 157.5 -16.5t115.5 -36.5l-60 -184q-130 67 -239 67q-41 0 -62.5 -21.5t-21.5 -55.5
q0 -24 24 -50t76 -63l102 -72q78 -54 111 -105t33 -132q0 -130 -102 -222t-257 -92z" />
    <glyph glyph-name="t" unicode="t" horiz-adv-x="677" 
d="M649 96q-169 -127 -330 -127q-93 0 -157 60t-64 172q0 16 0.5 33t3 43.5t5 50.5t8 71.5t10 88.5t14 120t17.5 148h-136l15 145l139 21q8 75 21 192l249 37q-6 -51 -26 -229h272l-31 -166h-260q-47 -415 -47 -467q0 -50 24.5 -76.5t65.5 -26.5q70 0 160 64z" />
    <glyph glyph-name="u" unicode="u" horiz-adv-x="989" 
d="M621 -31l-13 228q-72 -112 -153 -170t-160 -58q-215 0 -215 254q0 97 34.5 390t35.5 300l253 39q-2 -19 -20 -171t-31.5 -284t-13.5 -186q0 -139 82 -139q26 0 54.5 16.5t60 54t57 113.5t37.5 179l28 380l252 37l-65 -952z" />
    <glyph glyph-name="v" unicode="v" horiz-adv-x="854" 
d="M463 0h-311l-66 909l250 41l37 -755q90 147 150.5 337.5t86.5 389.5h232q-29 -265 -130.5 -519.5t-248.5 -402.5z" />
    <glyph glyph-name="w" unicode="w" horiz-adv-x="1349" 
d="M692 0l-37 338q-95 -221 -223 -340l-264 2l-66 913l248 37l37 -743q77 99 136.5 247.5t86.5 317.5l-16 150h242l55 -725q84 130 143 321t72 404h231q-23 -261 -128 -517.5t-246 -404.5h-271z" />
    <glyph glyph-name="x" unicode="x" horiz-adv-x="800" 
d="M496 -16q-37 87 -150 321q-76 -115 -162 -305h-229q42 111 126 239.5t183 241.5q-124 257 -198 422l251 37q23 -60 138 -303q65 94 153 285h228q-105 -237 -299 -455q190 -399 211 -447z" />
    <glyph glyph-name="y" unicode="y" horiz-adv-x="870" 
d="M-68 -481q-88 0 -149 20l29 215q52 -14 129 -14q215 0 374 240h-116l-119 933l246 37l94 -778q127 293 203 750h235q-6 -69 -20 -152.5t-39 -184.5t-57.5 -203.5t-78.5 -208t-99 -200.5t-122 -178.5t-145 -144.5t-170 -96t-195 -35z" />
    <glyph glyph-name="z" unicode="z" horiz-adv-x="798" 
d="M711 0h-693l9 127l430 612l-373 -14l25 197h671l-8 -129l-432 -609l397 15z" />
    <glyph glyph-name="braceleft" unicode="{" horiz-adv-x="675" 
d="M129 664q73 3 116 39t48 92q3 48 -5 184t-1 235q9 124 111.5 195.5t267.5 71.5l-9 -140q-49 0 -91.5 -14t-73 -46.5t-33.5 -78.5q-5 -74 -0.5 -221t0.5 -203q-4 -69 -49.5 -119.5t-106.5 -66.5q58 -16 96.5 -66.5t34.5 -119.5q-4 -57 -30 -202.5t-31 -219.5
q-4 -68 48.5 -104t129.5 -36l-8 -139q-165 0 -258 71t-84 195q7 101 33.5 237t29.5 181q3 55 -35 91.5t-108 39.5z" />
    <glyph glyph-name="bar" unicode="|" horiz-adv-x="638" 
d="M170 -451l131 1870h168l-131 -1870h-168z" />
    <glyph glyph-name="braceright" unicode="}" horiz-adv-x="675" 
d="M373 596q-58 16 -96.5 66.5t-34.5 119.5q4 57 30 202.5t31 219.5q4 68 -48.5 103.5t-129.5 35.5l8 140q165 0 258 -71t84 -195q-7 -101 -33.5 -237t-29.5 -181q-3 -55 35 -91.5t108 -39.5l-8 -144q-73 -3 -116 -39t-48 -92q-3 -48 5 -184.5t1 -235.5q-9 -124 -111.5 -195
t-267.5 -71l8 139q77 0 136 36t63 104q5 74 0.5 221t-0.5 203q4 69 49.5 119.5t106.5 66.5z" />
    <glyph glyph-name="exclamdown" unicode="&#xa1;" horiz-adv-x="645" 
d="M485 831q-3 -41 -69 -98t-103 -57q-35 0 -92.5 53t-54.5 92q3 37 66.5 90.5t97.5 53.5q36 0 96 -50.5t59 -83.5zM213 557l199 39q-42 -609 -23 -926l-272 -63q74 633 96 950z" />
    <glyph glyph-name="cent" unicode="&#xa2;" 
d="M856 276q-103 -81 -215 -120l8 -289h-203l43 266q-63 2 -115.5 24.5t-94.5 67.5t-65.5 122.5t-23.5 180.5q0 245 104.5 396.5t266.5 183.5l-8 264h203l-45 -262q122 -18 190 -68l-84 -184q-33 27 -89 53.5t-107 26.5q-70 0 -119 -107t-49 -270q0 -120 37.5 -177.5
t97.5 -57.5q88 0 207 96z" />
    <glyph glyph-name="sterling" unicode="&#xa3;" 
d="M971 215l-51 -215h-848h-2l-41 176q63 13 102 27t70.5 37t46 57.5t18.5 85.5q3 60 -10 152h-193l3 26l45 109l86 28h36q-11 101 -6 164q12 187 145 304.5t333 117.5q176 0 286 -55l-82 -199q-9 3 -42.5 15t-42 15t-34.5 10.5t-40 9.5t-36.5 4.5t-45.5 2.5q-78 0 -128 -43
t-57 -137q-6 -96 4 -209h363l-57 -163h-291q4 -92 2 -127q-9 -115 -101 -213z" />
    <glyph glyph-name="section" unicode="&#xa7;" horiz-adv-x="989" 
d="M301 643q-3 -55 34 -92t128 -74q102 12 161 51.5t64 96.5q3 55 -34 92t-128 74q-102 -12 -161 -51.5t-64 -96.5zM373 -193q-177 0 -297 60l78 194q9 -3 40.5 -15t46.5 -17.5t44.5 -15.5t49 -14.5t43.5 -8.5t44 -4q135 0 145 100q3 45 -23 77.5t-93 57.5l-121 45
q-157 60 -224 129.5t-59 194.5q7 99 75 176.5t183 124.5q-149 91 -137 244q9 139 135.5 232t312.5 93q182 0 289 -55l-78 -195q-9 3 -39.5 15t-45 17t-43 14.5t-47 14t-42 8t-43.5 3.5q-135 0 -145 -100q-3 -45 23.5 -77.5t93.5 -57.5l120 -46q157 -60 224 -129t59 -194
q-7 -99 -75 -176.5t-183 -124.5q149 -91 137 -244q-9 -139 -135.5 -232.5t-312.5 -93.5z" />
    <glyph glyph-name="dieresis" unicode="&#xa8;" horiz-adv-x="1001" 
d="M551 1200q2 38 55 92t90 54q38 0 91.5 -44t50.5 -83q-1 -38 -56.5 -91t-89.5 -53q-39 0 -91.5 43.5t-49.5 81.5zM164 1200q2 38 55 92t90 54q38 0 91.5 -44t50.5 -83q-1 -38 -56.5 -91t-89.5 -53q-39 0 -91.5 43.5t-49.5 81.5z" />
    <glyph glyph-name="copyright" unicode="&#xa9;" horiz-adv-x="1269" 
d="M86 518q9 125 61.5 229.5t133 173.5t182.5 107.5t211 38.5q167 0 288 -73t177.5 -197t44.5 -279q-9 -125 -61.5 -230t-133 -174t-182 -107t-211.5 -38q-168 0 -289 73t-177 197t-44 279zM195 520q-7 -105 21.5 -191t84.5 -143t135 -87.5t172 -30.5q199 0 328 129.5
t141 322.5q15 207 -100.5 329t-306.5 122q-204 0 -332.5 -125.5t-142.5 -325.5zM831 356l17 -104q-104 -53 -246 -53q-136 0 -215.5 82.5t-69.5 228.5q11 156 112 254t263 98q56 0 108 -10t74 -23l-38 -118q-92 30 -168 30q-79 0 -127 -48.5t-58 -160.5q-6 -98 44.5 -152
t142.5 -54q77 0 161 30z" />
    <glyph glyph-name="ordfeminine" unicode="&#xaa;" horiz-adv-x="595" 
d="M373 700l-6 91q-81 -91 -172 -91q-68 0 -110 46t-42 139q0 62 18.5 116t55.5 98t99 69.5t142 25.5q99 0 193 -35l-35 -438zM266 801q31 0 63.5 43t45.5 135l12 129q-9 0 -27.5 1t-27.5 1q-34 0 -59 -23t-36.5 -59.5t-16.5 -69t-5 -63.5q0 -50 14.5 -72t36.5 -22z" />
    <glyph glyph-name="guillemotleft" unicode="&#xab;" horiz-adv-x="1089" 
d="M811 37l-340 438l401 438l140 -82l-258 -356l209 -356zM401 37l-340 438l402 438l139 -82l-258 -356l209 -356z" />
    <glyph glyph-name="registered" unicode="&#xae;" horiz-adv-x="1269" 
d="M106 1063q9 125 61.5 229.5t133 173.5t182.5 107.5t211 38.5q167 0 288 -73t177.5 -197t44.5 -279q-9 -125 -61.5 -230t-133 -174t-182 -107t-211.5 -38q-168 0 -289 73t-177 197t-44 279zM215 1065q-7 -105 21.5 -191.5t85 -143t135.5 -87.5t172 -31q199 0 328 130
t141 323q15 207 -101 329t-307 122q-204 0 -332.5 -125.5t-142.5 -325.5zM651 1102q40 0 69 22t32 64q3 47 -27.5 76.5t-97.5 29.5h-29l-14 -190q8 0 29.5 -1t37.5 -1zM616 1001h-38l-17 -235h-166l43 631h248q120 0 182 -47.5t56 -137.5q-6 -104 -117 -165l131 -281h-176
l-92 240q-45 -5 -54 -5z" />
    <glyph glyph-name="macron" unicode="&#xaf;" horiz-adv-x="878" 
d="M731 1278l-2 -31l-57 -145h-527l2 31l58 145h526z" />
    <glyph glyph-name="twosuperior" unicode="&#xb2;" horiz-adv-x="575" 
d="M504 799h-461l8 106q155 102 237 184.5t85 131.5q4 48 -22 72t-72 24q-90 0 -175 -45l-28 119q119 51 254 51q111 0 167.5 -51.5t51.5 -137.5q-6 -79 -80 -156t-229 -179l299 12z" />
    <glyph glyph-name="threesuperior" unicode="&#xb3;" horiz-adv-x="567" 
d="M223 782q-106 0 -188 21l39 112q96 -22 162 -22q123 0 129 86q3 41 -28.5 64.5t-88.5 23.5q-30 0 -70 -4l-10 108q104 0 152 20t53 62q1 38 -25 57t-72 19q-75 0 -153 -33l-27 103q42 16 110 29.5t124 13.5q92 0 151.5 -39t53.5 -109q-3 -57 -48.5 -99t-113.5 -60
q172 -24 166 -148q-4 -50 -35.5 -90.5t-78.5 -64.5t-99.5 -37t-102.5 -13z" />
    <glyph glyph-name="acute" unicode="&#xb4;" horiz-adv-x="661" 
d="M59 1036l285 322l258 -47l-332 -275h-211z" />
    <glyph glyph-name="paragraph" unicode="&#xb6;" horiz-adv-x="1146" 
d="M668 1059l-50 -688h-139q-211 0 -326 113t-100 319q14 206 148 328t346 122h506l-82 -1183q-12 -162 -131.5 -255.5t-288.5 -93.5q-110 0 -195 31l45 199q88 -29 151 -32.5t100.5 17.5t56 58t22.5 94l70 971h-133z" />
    <glyph glyph-name="cedilla" unicode="&#xb8;" horiz-adv-x="606" 
d="M170 -195l106 195h113l-53 -106q84 -34 123 -67.5t35 -88.5q-5 -79 -96 -143.5t-263 -75.5l-22 108q100 10 151.5 27.5t54.5 54.5q3 48 -145 86z" />
    <glyph glyph-name="onesuperior" unicode="&#xb9;" horiz-adv-x="460" 
d="M342 799h-166l35 479l-131 -49l-29 129q183 51 236 67h100z" />
    <glyph glyph-name="ordmasculine" unicode="&#xba;" horiz-adv-x="595" 
d="M543 985q0 -121 -75 -203t-210 -82q-93 0 -150 52t-57 157q0 120 75.5 202.5t209.5 82.5q98 0 152.5 -51t54.5 -158zM295 788q84 0 84 197q0 57 -21.5 89t-58.5 32q-84 0 -84 -197q0 -60 21 -90.5t59 -30.5z" />
    <glyph glyph-name="guillemotright" unicode="&#xbb;" horiz-adv-x="1089" 
d="M688 913l340 -438l-401 -438l-140 80l258 358l-208 354zM279 913l339 -438l-401 -438l-139 80l258 358l-209 354z" />
    <glyph glyph-name="questiondown" unicode="&#xbf;" horiz-adv-x="792" 
d="M594 834q-3 -42 -65 -98t-101 -56q-34 0 -89 52t-52 93q3 42 66.5 97t97.5 55q39 0 92.5 -51.5t50.5 -91.5zM285 537l225 57q72 -97 70 -164q-4 -60 -36 -99.5t-120 -109.5q-95 -75 -132.5 -126.5t-41.5 -125.5q-5 -61 43 -108t119 -47q53 0 99.5 19t141.5 75l70 -180
q-212 -109 -385 -109q-166 0 -269.5 91t-93.5 235q3 46 23.5 89.5t58.5 84t69.5 68t80.5 65.5q71 53 98.5 82.5t28.5 60.5q3 40 -49 142z" />
    <glyph glyph-name="Agrave" unicode="&#xc0;" horiz-adv-x="1132" 
d="M811 1343h-211l-295 275l262 47zM700 500l-110 512l-195 -512h305zM807 0l-64 299h-424l-114 -299h-256l512 1253h334l278 -1253h-266z" />
    <glyph glyph-name="Aacute" unicode="&#xc1;" horiz-adv-x="1132" 
d="M442 1343l285 322l258 -47l-332 -275h-211zM700 500l-110 512l-195 -512h305zM807 0l-64 299h-424l-114 -299h-256l512 1253h334l278 -1253h-266z" />
    <glyph glyph-name="Acircumflex" unicode="&#xc2;" horiz-adv-x="1132" 
d="M795 1343l-154 146l-174 -146h-188l264 322h217l225 -322h-190zM700 500l-110 512l-195 -512h305zM807 0l-64 299h-424l-114 -299h-256l512 1253h334l278 -1253h-266z" />
    <glyph glyph-name="Atilde" unicode="&#xc3;" horiz-adv-x="1132" 
d="M897 1632l84 -94q-35 -60 -111.5 -121t-136.5 -61q-40 0 -136 33.5t-120 33.5q-34 0 -79 -31t-60 -49l-74 105q10 12 34 36t59 55t75 53t70 22q46 0 134 -33t114 -33q63 0 147 84zM700 500l-110 512l-195 -512h305zM807 0l-64 299h-424l-114 -299h-256l512 1253h334
l278 -1253h-266z" />
    <glyph glyph-name="Adieresis" unicode="&#xc4;" horiz-adv-x="1132" 
d="M686 1507q2 38 55 92t90 54q38 0 91.5 -44t50.5 -83q-1 -38 -56.5 -91t-89.5 -53q-39 0 -91.5 43.5t-49.5 81.5zM299 1507q2 38 55 92t90 54q38 0 91.5 -44t50.5 -83q-1 -38 -56.5 -91t-89.5 -53q-39 0 -91.5 43.5t-49.5 81.5zM700 500l-110 512l-195 -512h305zM807 0
l-64 299h-424l-114 -299h-256l512 1253h334l278 -1253h-266z" />
    <glyph glyph-name="Aring" unicode="&#xc5;" horiz-adv-x="1132" 
d="M854 1544q-6 -81 -72.5 -139.5t-150.5 -58.5q-88 0 -143.5 53.5t-49.5 144.5q6 82 73 141.5t151 59.5q88 0 143 -53t49 -148zM557 1544q-3 -38 21 -63t61 -25t65 25t31 63q3 40 -21.5 66t-62.5 26q-37 0 -64 -25.5t-30 -66.5zM700 500l-110 512l-195 -512h305zM807 0
l-64 299h-424l-114 -299h-256l512 1253h334l278 -1253h-266z" />
    <glyph glyph-name="AE" unicode="&#xc6;" horiz-adv-x="1562" 
d="M727 1051l-281 -539h265l37 539h-21zM674 0l22 311h-356l-162 -311h-250l680 1253h901l-45 -200l-452 6l-21 -316h432l-45 -198l-401 8l-25 -352l514 6l-45 -207h-747z" />
    <glyph glyph-name="Ccedilla" unicode="&#xc7;" horiz-adv-x="1009" 
d="M748 -262q-5 -79 -96 -143.5t-263 -75.5l-22 108q100 10 151.5 27.5t54.5 54.5q3 48 -145 86l-4 10l92 168q-209 12 -338 160.5t-129 405.5q0 116 24.5 223t76.5 202.5t127 166.5t183.5 112t237.5 41q162 0 299 -55l-63 -213q-173 57 -293 57q-148 0 -233.5 -128
t-85.5 -382q0 -96 27.5 -171.5t73 -120.5t99 -68t109.5 -23q124 0 264 51l37 -180q-158 -67 -301 -78l-41 -79q84 -34 123 -67.5t35 -88.5z" />
    <glyph glyph-name="Egrave" unicode="&#xc8;" horiz-adv-x="987" 
d="M803 1343h-211l-295 275l262 47zM98 0l88 1253h748l-45 -200l-453 6l-20 -316h432l-45 -198l-402 8l-24 -352l514 6l-45 -207h-748z" />
    <glyph glyph-name="Eacute" unicode="&#xc9;" horiz-adv-x="987" 
d="M352 1343l285 322l258 -47l-332 -275h-211zM98 0l88 1253h748l-45 -200l-453 6l-20 -316h432l-45 -198l-402 8l-24 -352l514 6l-45 -207h-748z" />
    <glyph glyph-name="Ecircumflex" unicode="&#xca;" horiz-adv-x="987" 
d="M739 1343l-153 146l-174 -146h-189l264 322h218l225 -322h-191zM98 0l88 1253h748l-45 -200l-453 6l-20 -316h432l-45 -198l-402 8l-24 -352l514 6l-45 -207h-748z" />
    <glyph glyph-name="Edieresis" unicode="&#xcb;" horiz-adv-x="987" 
d="M627 1507q2 38 55 92t90 54q38 0 91 -44t50 -83q-1 -38 -56 -91t-89 -53q-39 0 -91.5 43.5t-49.5 81.5zM240 1507q2 38 55 92t90 54q38 0 91 -44t50 -83q-1 -38 -56 -91t-89 -53q-39 0 -91.5 43.5t-49.5 81.5zM98 0l88 1253h748l-45 -200l-453 6l-20 -316h432l-45 -198
l-402 8l-24 -352l514 6l-45 -207h-748z" />
    <glyph glyph-name="Igrave" unicode="&#xcc;" horiz-adv-x="548" 
d="M481 1343h-211l-295 275l263 47zM451 1253l-89 -1253h-264l88 1253h265z" />
    <glyph glyph-name="Iacute" unicode="&#xcd;" horiz-adv-x="548" 
d="M174 1343l285 322l258 -47l-332 -275h-211zM451 1253l-89 -1253h-264l88 1253h265z" />
    <glyph glyph-name="Icircumflex" unicode="&#xce;" horiz-adv-x="548" 
d="M506 1343l-154 146l-174 -146h-188l264 322h217l225 -322h-190zM451 1253l-89 -1253h-264l88 1253h265z" />
    <glyph glyph-name="Idieresis" unicode="&#xcf;" horiz-adv-x="548" 
d="M377 1507q2 38 55 92t90 54q38 0 91.5 -44t50.5 -83q-1 -38 -56.5 -91t-89.5 -53q-39 0 -91.5 43.5t-49.5 81.5zM2 1507q2 38 55 92t90 54q38 0 91.5 -44t50.5 -83q-1 -38 -56.5 -91t-89.5 -53q-39 0 -91.5 43.5t-49.5 81.5zM451 1253l-89 -1253h-264l88 1253h265z" />
    <glyph glyph-name="Eth" unicode="&#xd0;" horiz-adv-x="1210" 
d="M475 0h-377l39 545h-123v39l43 147h93l36 522h424q251 0 400.5 -143.5t150.5 -394.5q-1 -214 -91 -377.5t-245 -250.5t-350 -87zM377 203h112q84 0 155 28t126 83t86 144.5t31 205.5q0 192 -92.5 289.5t-249.5 97.5h-107l-22 -320h280v-39l-43 -147h-252z" />
    <glyph glyph-name="Ntilde" unicode="&#xd1;" horiz-adv-x="1265" 
d="M977 1632l84 -94q-35 -60 -111.5 -121t-136.5 -61q-40 0 -136 33.5t-120 33.5q-34 0 -79 -31t-60 -49l-74 105q10 12 34 36t59 55t75 53t70 22q46 0 133.5 -33t113.5 -33q64 0 148 84zM848 0l-451 840l-59 -840h-240l88 1253h258l433 -831l51 831h239l-86 -1253h-233z
" />
    <glyph glyph-name="Ograve" unicode="&#xd2;" horiz-adv-x="1216" 
d="M905 1343h-211l-295 275l263 47zM1167 727q0 -182 -51.5 -329t-139.5 -239t-199.5 -141t-235.5 -49q-226 0 -359 150.5t-133 406.5q0 147 34 271.5t93 213t138.5 151t171 92.5t190.5 30q226 0 358.5 -150.5t132.5 -406.5zM606 174q61 0 111 27t91 85t64 160.5t23 241.5
q0 194 -81.5 292.5t-209.5 98.5q-61 0 -110.5 -27t-89 -85.5t-61 -160.5t-21.5 -241q0 -199 78 -295t206 -96z" />
    <glyph glyph-name="Oacute" unicode="&#xd3;" horiz-adv-x="1216" 
d="M434 1343l285 322l258 -47l-332 -275h-211zM1167 727q0 -182 -51.5 -329t-139.5 -239t-199.5 -141t-235.5 -49q-226 0 -359 150.5t-133 406.5q0 147 34 271.5t93 213t138.5 151t171 92.5t190.5 30q226 0 358.5 -150.5t132.5 -406.5zM606 174q61 0 111 27t91 85t64 160.5
t23 241.5q0 194 -81.5 292.5t-209.5 98.5q-61 0 -110.5 -27t-89 -85.5t-61 -160.5t-21.5 -241q0 -199 78 -295t206 -96z" />
    <glyph glyph-name="Ocircumflex" unicode="&#xd4;" horiz-adv-x="1216" 
d="M834 1343l-154 146l-174 -146h-189l265 322h217l225 -322h-190zM1167 727q0 -182 -51.5 -329t-139.5 -239t-199.5 -141t-235.5 -49q-226 0 -359 150.5t-133 406.5q0 147 34 271.5t93 213t138.5 151t171 92.5t190.5 30q226 0 358.5 -150.5t132.5 -406.5zM606 174
q61 0 111 27t91 85t64 160.5t23 241.5q0 194 -81.5 292.5t-209.5 98.5q-61 0 -110.5 -27t-89 -85.5t-61 -160.5t-21.5 -241q0 -199 78 -295t206 -96z" />
    <glyph glyph-name="Otilde" unicode="&#xd5;" horiz-adv-x="1216" 
d="M930 1632l84 -94q-35 -60 -111.5 -121t-136.5 -61q-40 0 -136 33.5t-120 33.5q-34 0 -79 -31t-60 -49l-74 105q10 12 34 36t59 55t75 53t70 22q46 0 133.5 -33t113.5 -33q64 0 148 84zM1167 727q0 -182 -51.5 -329t-139.5 -239t-199.5 -141t-235.5 -49q-226 0 -359 150.5
t-133 406.5q0 147 34 271.5t93 213t138.5 151t171 92.5t190.5 30q226 0 358.5 -150.5t132.5 -406.5zM606 174q61 0 111 27t91 85t64 160.5t23 241.5q0 194 -81.5 292.5t-209.5 98.5q-61 0 -110.5 -27t-89 -85.5t-61 -160.5t-21.5 -241q0 -199 78 -295t206 -96z" />
    <glyph glyph-name="Odieresis" unicode="&#xd6;" horiz-adv-x="1216" 
d="M713 1507q2 38 55 92t90 54q38 0 91 -44t50 -83q-1 -38 -56 -91t-89 -53q-39 0 -91.5 43.5t-49.5 81.5zM326 1507q2 38 55 92t90 54q38 0 91 -44t50 -83q-1 -38 -56 -91t-89 -53q-39 0 -91.5 43.5t-49.5 81.5zM1167 727q0 -182 -51.5 -329t-139.5 -239t-199.5 -141
t-235.5 -49q-226 0 -359 150.5t-133 406.5q0 147 34 271.5t93 213t138.5 151t171 92.5t190.5 30q226 0 358.5 -150.5t132.5 -406.5zM606 174q61 0 111 27t91 85t64 160.5t23 241.5q0 194 -81.5 292.5t-209.5 98.5q-61 0 -110.5 -27t-89 -85.5t-61 -160.5t-21.5 -241
q0 -199 78 -295t206 -96z" />
    <glyph glyph-name="multiply" unicode="&#xd7;" 
d="M739 188l-223 242l-258 -242l-106 117l256 240l-224 239l125 115l221 -237l256 237l109 -115l-256 -239l223 -240z" />
    <glyph glyph-name="Oslash" unicode="&#xd8;" horiz-adv-x="1216" 
d="M322 565q0 -173 61 -272l322 768q-46 18 -101 18q-61 0 -110.5 -27t-89 -85.5t-61 -160.5t-21.5 -241zM606 174q61 0 111 27t91 85t64 160.5t23 241.5q0 165 -61 264l-320 -764q41 -14 92 -14zM541 -31q-49 0 -113 11l-63 -150h-175l89 209q-110 68 -170 193.5t-60 293.5
q0 147 34 271.5t93 213t138.5 151t171 92.5t190.5 30q62 0 117 -12l61 147h174l-86 -207q108 -68 166.5 -192.5t58.5 -292.5q0 -182 -51.5 -329t-139.5 -239t-199.5 -141t-235.5 -49z" />
    <glyph glyph-name="Ugrave" unicode="&#xd9;" horiz-adv-x="1257" 
d="M889 1343h-211l-295 275l262 47zM184 1253h265q-9 -131 -18.5 -256.5t-14.5 -197t-10 -140t-7.5 -102.5t-4.5 -65t-2.5 -47.5t-0.5 -32.5q0 -122 65.5 -180t170.5 -58q204 0 221 258l57 821h254l-55 -790q-15 -237 -153 -365.5t-386 -128.5q-200 0 -320 100.5t-120 286.5
q0 64 7.5 176.5t51.5 720.5z" />
    <glyph glyph-name="Uacute" unicode="&#xda;" horiz-adv-x="1257" 
d="M418 1343l284 322l259 -47l-332 -275h-211zM184 1253h265q-9 -131 -18.5 -256.5t-14.5 -197t-10 -140t-7.5 -102.5t-4.5 -65t-2.5 -47.5t-0.5 -32.5q0 -122 65.5 -180t170.5 -58q204 0 221 258l57 821h254l-55 -790q-15 -237 -153 -365.5t-386 -128.5q-200 0 -320 100.5
t-120 286.5q0 64 7.5 176.5t51.5 720.5z" />
    <glyph glyph-name="Ucircumflex" unicode="&#xdb;" horiz-adv-x="1257" 
d="M852 1343l-154 146l-174 -146h-188l264 322h217l225 -322h-190zM184 1253h265q-9 -131 -18.5 -256.5t-14.5 -197t-10 -140t-7.5 -102.5t-4.5 -65t-2.5 -47.5t-0.5 -32.5q0 -122 65.5 -180t170.5 -58q204 0 221 258l57 821h254l-55 -790q-15 -237 -153 -365.5t-386 -128.5
q-200 0 -320 100.5t-120 286.5q0 64 7.5 176.5t51.5 720.5z" />
    <glyph glyph-name="Udieresis" unicode="&#xdc;" horiz-adv-x="1257" 
d="M752 1507q2 38 55 92t90 54q38 0 91 -44t50 -83q-1 -38 -56 -91t-89 -53q-39 0 -91.5 43.5t-49.5 81.5zM365 1507q2 38 55 92t90 54q38 0 91 -44t50 -83q-1 -38 -56 -91t-89 -53q-39 0 -91.5 43.5t-49.5 81.5zM184 1253h265q-9 -131 -18.5 -256.5t-14.5 -197t-10 -140
t-7.5 -102.5t-4.5 -65t-2.5 -47.5t-0.5 -32.5q0 -122 65.5 -180t170.5 -58q204 0 221 258l57 821h254l-55 -790q-15 -237 -153 -365.5t-386 -128.5q-200 0 -320 100.5t-120 286.5q0 64 7.5 176.5t51.5 720.5z" />
    <glyph glyph-name="Yacute" unicode="&#xdd;" horiz-adv-x="1064" 
d="M412 1343l284 322l258 -47l-331 -275h-211zM627 0h-265l33 475l-346 778h283l233 -520l285 520h266l-457 -776z" />
    <glyph glyph-name="Thorn" unicode="&#xde;" horiz-adv-x="1036" 
d="M518 862h-96l-31 -442h119q112 0 176 59t64 156q0 108 -61.5 167.5t-170.5 59.5zM477 227h-98l-17 -227h-264l86 1253h265l-15 -211h135q220 0 334.5 -94t114.5 -264q0 -200 -148.5 -328.5t-392.5 -128.5z" />
    <glyph glyph-name="germandbls" unicode="&#xdf;" horiz-adv-x="1013" 
d="M618 -31q-105 0 -206 33l45 203q90 -49 186 -49q44 0 70 21.5t28 58.5q2 42 -26 82.5t-105 101.5q-85 69 -115 121.5t-30 124.5q0 50 24.5 99t59.5 88.5t69.5 77.5t59 80.5t24.5 82.5q0 75 -47 118t-116 41q-64 2 -102 -51.5t-44 -165.5l-51 -1042q-5 -100 -35 -182
t-75 -135t-102 -90t-113 -52.5t-111 -15.5q-83 0 -125 22l49 195q56 -25 109 -25q68 0 105.5 50.5t43.5 172.5l51 1047q5 114 45.5 205t104.5 147.5t143 86.5t166 30q142 0 238 -80t96 -203q0 -53 -25.5 -103.5t-61.5 -88.5t-72 -73t-61.5 -72t-25.5 -72q0 -49 21.5 -84
t99.5 -99q101 -84 141.5 -146t40.5 -140q0 -95 -54.5 -169.5t-138.5 -112.5t-178 -38z" />
    <glyph glyph-name="agrave" unicode="&#xe0;" horiz-adv-x="978" 
d="M883 1036h-211l-295 275l262 47zM612 -31l-12 197q-68 -94 -147.5 -145.5t-157.5 -51.5q-111 0 -178.5 90t-67.5 277q0 170 65 310.5t182.5 223t262.5 82.5q207 0 332 -69l-62 -883zM412 156q22 0 45.5 12t51 43t50 78.5t40.5 125.5t26 177l12 156q-58 30 -113 30
q-213 0 -213 -424q0 -101 29 -149.5t72 -48.5z" />
    <glyph glyph-name="aacute" unicode="&#xe1;" horiz-adv-x="978" 
d="M420 1036l285 322l258 -47l-332 -275h-211zM612 -31l-12 197q-68 -94 -147.5 -145.5t-157.5 -51.5q-111 0 -178.5 90t-67.5 277q0 170 65 310.5t182.5 223t262.5 82.5q207 0 332 -69l-62 -883zM412 156q22 0 45.5 12t51 43t50 78.5t40.5 125.5t26 177l12 156
q-58 30 -113 30q-213 0 -213 -424q0 -101 29 -149.5t72 -48.5z" />
    <glyph glyph-name="acircumflex" unicode="&#xe2;" horiz-adv-x="978" 
d="M756 1036l-154 146l-174 -146h-188l264 322h217l225 -322h-190zM612 -31l-12 197q-68 -94 -147.5 -145.5t-157.5 -51.5q-111 0 -178.5 90t-67.5 277q0 170 65 310.5t182.5 223t262.5 82.5q207 0 332 -69l-62 -883zM412 156q22 0 45.5 12t51 43t50 78.5t40.5 125.5t26 177
l12 156q-58 30 -113 30q-213 0 -213 -424q0 -101 29 -149.5t72 -48.5z" />
    <glyph glyph-name="atilde" unicode="&#xe3;" horiz-adv-x="978" 
d="M877 1325l84 -94q-35 -60 -111.5 -121t-136.5 -61q-40 0 -136 33.5t-120 33.5q-34 0 -79.5 -31t-60.5 -49l-73 105q32 40 107 103t130 63q46 0 134 -33t114 -33q64 0 148 84zM612 -31l-12 197q-68 -94 -147.5 -145.5t-157.5 -51.5q-111 0 -178.5 90t-67.5 277
q0 170 65 310.5t182.5 223t262.5 82.5q207 0 332 -69l-62 -883zM412 156q22 0 45.5 12t51 43t50 78.5t40.5 125.5t26 177l12 156q-58 30 -113 30q-213 0 -213 -424q0 -101 29 -149.5t72 -48.5z" />
    <glyph glyph-name="adieresis" unicode="&#xe4;" horiz-adv-x="978" 
d="M643 1200q2 38 55 92t90 54q38 0 91.5 -44t50.5 -83q-1 -38 -56.5 -91t-89.5 -53q-39 0 -91.5 43.5t-49.5 81.5zM256 1200q2 38 55 92t90 54q38 0 91.5 -44t50.5 -83q-1 -38 -56.5 -91t-89.5 -53q-39 0 -91.5 43.5t-49.5 81.5zM612 -31l-12 197q-68 -94 -147.5 -145.5
t-157.5 -51.5q-111 0 -178.5 90t-67.5 277q0 170 65 310.5t182.5 223t262.5 82.5q207 0 332 -69l-62 -883zM412 156q22 0 45.5 12t51 43t50 78.5t40.5 125.5t26 177l12 156q-58 30 -113 30q-213 0 -213 -424q0 -101 29 -149.5t72 -48.5z" />
    <glyph glyph-name="aring" unicode="&#xe5;" horiz-adv-x="978" 
d="M793 1225q-6 -81 -73 -140t-151 -59q-88 0 -143 54t-49 145q6 82 72.5 141t150.5 59q89 0 144 -52.5t49 -147.5zM496 1225q-3 -38 21 -63t61 -25t65 25t31 63q3 40 -21.5 66t-62.5 26q-37 0 -64 -25.5t-30 -66.5zM612 -31l-12 197q-68 -94 -147.5 -145.5t-157.5 -51.5
q-111 0 -178.5 90t-67.5 277q0 170 65 310.5t182.5 223t262.5 82.5q207 0 332 -69l-62 -883zM412 156q22 0 45.5 12t51 43t50 78.5t40.5 125.5t26 177l12 156q-58 30 -113 30q-213 0 -213 -424q0 -101 29 -149.5t72 -48.5z" />
    <glyph glyph-name="ae" unicode="&#xe6;" horiz-adv-x="1343" 
d="M924 -31q-116 0 -195.5 55.5t-112.5 165.5q-66 -98 -148 -158.5t-167 -60.5q-252 0 -252 367q0 117 30.5 218.5t80.5 172.5t115 122.5t134 76t136 24.5q162 0 299 -57q96 57 203 57q123 0 193.5 -65.5t70.5 -163.5q0 -137 -134 -230.5t-327 -111.5q5 -225 145 -225
q98 0 234 108l61 -139q-181 -156 -366 -156zM999 791q-119 0 -145 -277q104 14 164.5 61.5t60.5 120.5q0 42 -21 68.5t-59 26.5zM416 156q48 0 97.5 60.5t82.5 184.5q9 197 92 338q-88 37 -176 37q-89 0 -145 -102.5t-56 -300.5q0 -217 105 -217z" />
    <glyph glyph-name="ccedilla" unicode="&#xe7;" horiz-adv-x="778" 
d="M567 -262q-5 -79 -95.5 -143.5t-262.5 -75.5l-23 108q101 10 152.5 27.5t54.5 54.5q3 48 -145 86l-4 10l90 166q-126 10 -203.5 105.5t-77.5 288.5q0 139 37 252.5t99.5 185.5t143.5 110.5t171 38.5q72 0 147 -22.5t113 -50.5l-84 -185q-33 27 -89.5 53.5t-107.5 26.5
q-70 0 -119 -107t-49 -270q0 -120 38 -177.5t98 -57.5q87 0 206 96l62 -145q-138 -108 -266 -133l-43 -86q83 -34 122 -67.5t35 -88.5z" />
    <glyph glyph-name="egrave" unicode="&#xe8;" horiz-adv-x="811" 
d="M702 1036h-210l-295 275l262 47zM387 -31q-154 0 -242 97.5t-88 287.5q0 120 26.5 220.5t71.5 169t104 116.5t122.5 70t128.5 22q123 0 193.5 -65.5t70.5 -163.5q0 -137 -134 -230.5t-327 -111.5q5 -225 146 -225q97 0 233 108l62 -139q-181 -156 -367 -156zM463 791
q-120 0 -146 -277q104 14 165 62t61 120q0 42 -21 68.5t-59 26.5z" />
    <glyph glyph-name="eacute" unicode="&#xe9;" horiz-adv-x="811" 
d="M322 1036l284 322l258 -47l-332 -275h-210zM387 -31q-154 0 -242 97.5t-88 287.5q0 120 26.5 220.5t71.5 169t104 116.5t122.5 70t128.5 22q123 0 193.5 -65.5t70.5 -163.5q0 -137 -134 -230.5t-327 -111.5q5 -225 146 -225q97 0 233 108l62 -139q-181 -156 -367 -156z
M463 791q-120 0 -146 -277q104 14 165 62t61 120q0 42 -21 68.5t-59 26.5z" />
    <glyph glyph-name="ecircumflex" unicode="&#xea;" horiz-adv-x="811" 
d="M651 1036l-153 146l-174 -146h-189l264 322h217l226 -322h-191zM387 -31q-154 0 -242 97.5t-88 287.5q0 120 26.5 220.5t71.5 169t104 116.5t122.5 70t128.5 22q123 0 193.5 -65.5t70.5 -163.5q0 -137 -134 -230.5t-327 -111.5q5 -225 146 -225q97 0 233 108l62 -139
q-181 -156 -367 -156zM463 791q-120 0 -146 -277q104 14 165 62t61 120q0 42 -21 68.5t-59 26.5z" />
    <glyph glyph-name="edieresis" unicode="&#xeb;" horiz-adv-x="811" 
d="M557 1200q2 38 55 92t90 54q38 0 91.5 -44t50.5 -83q-1 -38 -56.5 -91t-89.5 -53q-39 0 -91.5 43.5t-49.5 81.5zM170 1200q2 38 55 92t90 54q38 0 91.5 -44t50.5 -83q-1 -38 -56.5 -91t-89.5 -53q-39 0 -91.5 43.5t-49.5 81.5zM387 -31q-154 0 -242 97.5t-88 287.5
q0 120 26.5 220.5t71.5 169t104 116.5t122.5 70t128.5 22q123 0 193.5 -65.5t70.5 -163.5q0 -137 -134 -230.5t-327 -111.5q5 -225 146 -225q97 0 233 108l62 -139q-181 -156 -367 -156zM463 791q-120 0 -146 -277q104 14 165 62t61 120q0 42 -21 68.5t-59 26.5z" />
    <glyph glyph-name="igrave" unicode="&#xec;" horiz-adv-x="475" 
d="M428 1036h-211l-295 275l262 47zM397 952l-67 -952h-248l65 915z" />
    <glyph glyph-name="iacute" unicode="&#xed;" horiz-adv-x="475" 
d="M150 1036l284 322l258 -47l-332 -275h-210zM397 952l-67 -952h-248l65 915z" />
    <glyph glyph-name="icircumflex" unicode="&#xee;" horiz-adv-x="475" 
d="M455 1036l-154 146l-174 -146h-188l264 322h217l225 -322h-190zM397 952l-67 -952h-248l65 915z" />
    <glyph glyph-name="idieresis" unicode="&#xef;" horiz-adv-x="475" 
d="M342 1200q2 38 55 92t90 54q38 0 91.5 -44t50.5 -83q-1 -38 -56.5 -91t-89.5 -53q-39 0 -91.5 43.5t-49.5 81.5zM-29 1200q1 38 55 92t91 54q38 0 91 -44t50 -83q-1 -38 -56 -91t-89 -53q-39 0 -92 43.5t-50 81.5zM397 952l-67 -952h-248l65 915z" />
    <glyph glyph-name="eth" unicode="&#xf0;" horiz-adv-x="923" 
d="M340 -31q-125 0 -207 96.5t-82 276.5q-1 110 27.5 208.5t76 170.5t108.5 125t127.5 79.5t131.5 26.5q18 0 64 -4q-39 111 -115 199l-205 -119l-90 100l193 111q-72 55 -174 104l104 109q138 -48 240 -115l196 113l88 -100l-172 -99q228 -212 228 -571q0 -129 -33 -244.5
t-88 -199t-125 -145t-145.5 -92t-147.5 -30.5zM424 158q70 2 136.5 134t66.5 343q0 45 -4 127q-56 16 -123 16q-86 0 -138.5 -99t-52.5 -306q0 -117 29.5 -165t85.5 -50z" />
    <glyph glyph-name="ntilde" unicode="&#xf1;" horiz-adv-x="987" 
d="M848 1325l84 -94q-35 -60 -111.5 -121t-136.5 -61q-40 0 -136 33.5t-120 33.5q-34 0 -79 -31t-60 -49l-74 105q10 12 34 36t59 55t75 53t70 22q46 0 133.5 -33t113.5 -33q64 0 148 84zM567 750q-19 0 -41 -10t-49.5 -37.5t-50.5 -69.5t-43 -113.5t-29 -161.5l-24 -358
h-250l63 915l224 37l10 -227q72 112 153 169.5t160 57.5q215 0 215 -254q0 -97 -35 -394t-36 -304h-250q2 22 19.5 165.5t30.5 269.5t13 177q0 73 -19.5 105.5t-60.5 32.5z" />
    <glyph glyph-name="ograve" unicode="&#xf2;" horiz-adv-x="925" 
d="M741 1036h-211l-294 275l262 47zM872 541q0 -83 -18 -164t-56.5 -155t-92.5 -130t-133.5 -89.5t-172.5 -33.5q-152 0 -249 103.5t-97 308.5q0 83 18 164t57 154.5t93.5 129.5t133 89.5t171.5 33.5q159 0 252.5 -102t93.5 -309zM459 131q48 0 81 40.5t48.5 109t21.5 131.5
t6 133q0 123 -35.5 184.5t-113.5 61.5q-39 0 -68.5 -29.5t-46 -72.5t-26.5 -102t-13.5 -108.5t-3.5 -101.5q0 -129 35.5 -187.5t114.5 -58.5z" />
    <glyph glyph-name="oacute" unicode="&#xf3;" horiz-adv-x="925" 
d="M340 1036l285 322l258 -47l-332 -275h-211zM872 541q0 -83 -18 -164t-56.5 -155t-92.5 -130t-133.5 -89.5t-172.5 -33.5q-152 0 -249 103.5t-97 308.5q0 83 18 164t57 154.5t93.5 129.5t133 89.5t171.5 33.5q159 0 252.5 -102t93.5 -309zM459 131q48 0 81 40.5t48.5 109
t21.5 131.5t6 133q0 123 -35.5 184.5t-113.5 61.5q-39 0 -68.5 -29.5t-46 -72.5t-26.5 -102t-13.5 -108.5t-3.5 -101.5q0 -129 35.5 -187.5t114.5 -58.5z" />
    <glyph glyph-name="ocircumflex" unicode="&#xf4;" horiz-adv-x="925" 
d="M692 1036l-153 146l-174 -146h-189l264 322h217l226 -322h-191zM872 541q0 -83 -18 -164t-56.5 -155t-92.5 -130t-133.5 -89.5t-172.5 -33.5q-152 0 -249 103.5t-97 308.5q0 83 18 164t57 154.5t93.5 129.5t133 89.5t171.5 33.5q159 0 252.5 -102t93.5 -309zM459 131
q48 0 81 40.5t48.5 109t21.5 131.5t6 133q0 123 -35.5 184.5t-113.5 61.5q-39 0 -68.5 -29.5t-46 -72.5t-26.5 -102t-13.5 -108.5t-3.5 -101.5q0 -129 35.5 -187.5t114.5 -58.5z" />
    <glyph glyph-name="otilde" unicode="&#xf5;" horiz-adv-x="925" 
d="M788 1325l84 -94q-35 -60 -111 -121t-136 -61q-40 0 -136 33.5t-120 33.5q-34 0 -79.5 -31t-60.5 -49l-73 105q32 40 107 103t130 63q46 0 134 -33t114 -33q63 0 147 84zM872 541q0 -83 -18 -164t-56.5 -155t-92.5 -130t-133.5 -89.5t-172.5 -33.5q-152 0 -249 103.5
t-97 308.5q0 83 18 164t57 154.5t93.5 129.5t133 89.5t171.5 33.5q159 0 252.5 -102t93.5 -309zM459 131q48 0 81 40.5t48.5 109t21.5 131.5t6 133q0 123 -35.5 184.5t-113.5 61.5q-39 0 -68.5 -29.5t-46 -72.5t-26.5 -102t-13.5 -108.5t-3.5 -101.5q0 -129 35.5 -187.5
t114.5 -58.5z" />
    <glyph glyph-name="odieresis" unicode="&#xf6;" horiz-adv-x="925" 
d="M569 1200q1 38 55 92t91 54q38 0 91 -44t50 -83q-1 -38 -56 -91t-89 -53q-39 0 -92 43.5t-50 81.5zM182 1200q2 38 55.5 92t90.5 54q38 0 91 -44t50 -83q-1 -38 -56 -91t-89 -53q-39 0 -92 43.5t-50 81.5zM872 541q0 -83 -18 -164t-56.5 -155t-92.5 -130t-133.5 -89.5
t-172.5 -33.5q-152 0 -249 103.5t-97 308.5q0 83 18 164t57 154.5t93.5 129.5t133 89.5t171.5 33.5q159 0 252.5 -102t93.5 -309zM459 131q48 0 81 40.5t48.5 109t21.5 131.5t6 133q0 123 -35.5 184.5t-113.5 61.5q-39 0 -68.5 -29.5t-46 -72.5t-26.5 -102t-13.5 -108.5
t-3.5 -101.5q0 -129 35.5 -187.5t114.5 -58.5z" />
    <glyph glyph-name="divide" unicode="&#xf7;" 
d="M397 870q3 52 54 102t98 50q48 0 101 -40.5t50 -88.5q-4 -52 -56 -101t-99 -49q-50 0 -100.5 39t-47.5 88zM965 627l-13 -164h-872l12 164h873zM350 199q3 52 54 101.5t98 49.5q48 0 101 -40.5t50 -88.5q-3 -51 -55.5 -100t-99.5 -49q-50 0 -100.5 39t-47.5 88z" />
    <glyph glyph-name="oslash" unicode="&#xf8;" horiz-adv-x="925" 
d="M293 377q0 -59 10 -111l242 504q-30 21 -78 21t-84 -42.5t-54.5 -109.5t-27 -133t-8.5 -129zM459 131q48 0 84 41.5t54.5 107.5t27 132.5t8.5 132.5q0 54 -10 102l-240 -500q32 -16 76 -16zM399 -31q-46 0 -96 13l-61 -127h-136l87 178q-140 110 -140 348q0 83 18 164
t57 154.5t93.5 129.5t133 89.5t171.5 33.5q54 0 101 -12l63 131h135l-88 -182q135 -106 135 -348q0 -83 -18 -164t-56.5 -155t-92.5 -130t-133.5 -89.5t-172.5 -33.5z" />
    <glyph glyph-name="ugrave" unicode="&#xf9;" horiz-adv-x="989" 
d="M793 1036h-211l-295 275l262 47zM621 -31l-13 228q-72 -112 -153 -170t-160 -58q-215 0 -215 254q0 97 34.5 390t35.5 300l253 39q-2 -19 -20 -171t-31.5 -284t-13.5 -186q0 -139 82 -139q26 0 54.5 16.5t60 54t57 113.5t37.5 179l28 380l252 37l-65 -952z" />
    <glyph glyph-name="uacute" unicode="&#xfa;" horiz-adv-x="989" 
d="M371 1036l284 322l258 -47l-331 -275h-211zM621 -31l-13 228q-72 -112 -153 -170t-160 -58q-215 0 -215 254q0 97 34.5 390t35.5 300l253 39q-2 -19 -20 -171t-31.5 -284t-13.5 -186q0 -139 82 -139q26 0 54.5 16.5t60 54t57 113.5t37.5 179l28 380l252 37l-65 -952z" />
    <glyph glyph-name="ucircumflex" unicode="&#xfb;" horiz-adv-x="989" 
d="M702 1036l-153 146l-174 -146h-189l265 322h217l225 -322h-191zM621 -31l-13 228q-72 -112 -153 -170t-160 -58q-215 0 -215 254q0 97 34.5 390t35.5 300l253 39q-2 -19 -20 -171t-31.5 -284t-13.5 -186q0 -139 82 -139q26 0 54.5 16.5t60 54t57 113.5t37.5 179l28 380
l252 37l-65 -952z" />
    <glyph glyph-name="udieresis" unicode="&#xfc;" horiz-adv-x="989" 
d="M604 1200q2 38 55.5 92t90.5 54q38 0 91 -44t50 -83q-1 -38 -56.5 -91t-89.5 -53q-39 0 -91.5 43.5t-49.5 81.5zM217 1200q2 38 55 92t90 54q38 0 91.5 -44t50.5 -83q-1 -38 -56.5 -91t-89.5 -53q-39 0 -91.5 43.5t-49.5 81.5zM621 -31l-13 228q-72 -112 -153 -170
t-160 -58q-215 0 -215 254q0 97 34.5 390t35.5 300l253 39q-2 -19 -20 -171t-31.5 -284t-13.5 -186q0 -139 82 -139q26 0 54.5 16.5t60 54t57 113.5t37.5 179l28 380l252 37l-65 -952z" />
    <glyph glyph-name="yacute" unicode="&#xfd;" horiz-adv-x="870" 
d="M295 1036l285 322l258 -47l-332 -275h-211zM-68 -481q-88 0 -149 20l29 215q52 -14 129 -14q215 0 374 240h-116l-119 933l246 37l94 -778q127 293 203 750h235q-6 -69 -20 -152.5t-39 -184.5t-57.5 -203.5t-78.5 -208t-99 -200.5t-122 -178.5t-145 -144.5t-170 -96
t-195 -35z" />
    <glyph glyph-name="thorn" unicode="&#xfe;" horiz-adv-x="980" 
d="M489 147q85 0 132 104t47 300q0 217 -101 217q-68 0 -134.5 -117t-80.5 -319l-10 -160q73 -25 147 -25zM301 -444l-250 -37l125 1894l250 37l-45 -696q131 198 297 198q252 0 252 -366q0 -116 -30.5 -218t-80.5 -173t-114 -123t-130 -76.5t-129 -24.5q-32 0 -116 13z" />
    <glyph glyph-name="ydieresis" unicode="&#xff;" horiz-adv-x="870" 
d="M545 1200q2 38 55 92t90 54q38 0 91 -44t50 -83q-1 -38 -56 -91t-89 -53q-39 0 -91.5 43.5t-49.5 81.5zM158 1200q2 38 55 92t90 54q38 0 91 -44t50 -83q-1 -38 -56 -91t-89 -53q-39 0 -91.5 43.5t-49.5 81.5zM-68 -481q-88 0 -149 20l29 215q52 -14 129 -14
q215 0 374 240h-116l-119 933l246 37l94 -778q127 293 203 750h235q-6 -69 -20 -152.5t-39 -184.5t-57.5 -203.5t-78.5 -208t-99 -200.5t-122 -178.5t-145 -144.5t-170 -96t-195 -35z" />
    <glyph glyph-name="Amacron" unicode="&#x100;" horiz-adv-x="1132" 
d="M928 1585l-2 -31l-58 -145h-526l2 31l57 145h527zM700 500l-110 512l-195 -512h305zM807 0l-64 299h-424l-114 -299h-256l512 1253h334l278 -1253h-266z" />
    <glyph glyph-name="amacron" unicode="&#x101;" horiz-adv-x="978" 
d="M887 1278l-2 -31l-58 -145h-526l2 31l57 145h527zM612 -31l-12 197q-68 -94 -147.5 -145.5t-157.5 -51.5q-111 0 -178.5 90t-67.5 277q0 170 65 310.5t182.5 223t262.5 82.5q207 0 332 -69l-62 -883zM412 156q22 0 45.5 12t51 43t50 78.5t40.5 125.5t26 177l12 156
q-58 30 -113 30q-213 0 -213 -424q0 -101 29 -149.5t72 -48.5z" />
    <glyph glyph-name="Abreve" unicode="&#x102;" horiz-adv-x="1132" 
d="M637 1516q149 0 190 172h148q-10 -148 -118 -246.5t-243 -98.5q-146 0 -223.5 95t-66.5 250h147q15 -172 166 -172zM700 500l-110 512l-195 -512h305zM807 0l-64 299h-424l-114 -299h-256l512 1253h334l278 -1253h-266z" />
    <glyph glyph-name="abreve" unicode="&#x103;" horiz-adv-x="978" 
d="M573 1208q150 0 191 172h147q-10 -148 -117.5 -246t-242.5 -98q-146 0 -224 95t-67 249h148q15 -172 165 -172zM612 -31l-12 197q-68 -94 -147.5 -145.5t-157.5 -51.5q-111 0 -178.5 90t-67.5 277q0 170 65 310.5t182.5 223t262.5 82.5q207 0 332 -69l-62 -883zM412 156
q22 0 45.5 12t51 43t50 78.5t40.5 125.5t26 177l12 156q-58 30 -113 30q-213 0 -213 -424q0 -101 29 -149.5t72 -48.5z" />
    <glyph glyph-name="Aogonek" unicode="&#x104;" horiz-adv-x="1132" 
d="M700 500l-110 512l-195 -512h305zM922 0h-115l-64 299h-424l-114 -299h-256l512 1253h334l278 -1253h-10q-110 -74 -162 -139t-55 -113q-1 -34 21.5 -55t56.5 -21q46 0 94 25l29 -113q-92 -47 -177 -47q-93 0 -144.5 49t-45.5 135q6 72 73 148t169 131z" />
    <glyph glyph-name="aogonek" unicode="&#x105;" horiz-adv-x="978" 
d="M637 -463q-93 0 -145 49t-46 135q6 64 59.5 131.5t137.5 120.5l-31 -4l-12 197q-68 -94 -147.5 -145.5t-157.5 -51.5q-111 0 -178.5 90t-67.5 277q0 170 65 310.5t182.5 223t262.5 82.5q207 0 332 -69l-62 -883q-110 -74 -162 -139t-55 -113q-1 -34 21.5 -55t56.5 -21
q46 0 94 25l29 -113q-92 -47 -176 -47zM412 156q22 0 45.5 12t51 43t50 78.5t40.5 125.5t26 177l12 156q-58 30 -113 30q-213 0 -213 -424q0 -101 29 -149.5t72 -48.5z" />
    <glyph glyph-name="Cacute" unicode="&#x106;" horiz-adv-x="1009" 
d="M457 1343l284 322l258 -47l-331 -275h-211zM895 231l37 -180q-189 -80 -377 -80q-224 0 -365 149.5t-141 418.5q0 116 24.5 223t76.5 202.5t127 166.5t183.5 112t237.5 41q162 0 299 -55l-63 -213q-173 57 -293 57q-148 0 -233.5 -128t-85.5 -382q0 -96 27.5 -171.5
t73 -120.5t99 -68t109.5 -23q124 0 264 51z" />
    <glyph glyph-name="cacute" unicode="&#x107;" horiz-adv-x="778" 
d="M344 1036l285 322l258 -47l-332 -275h-211zM657 258l62 -145q-181 -144 -354 -144q-65 0 -119 21.5t-98.5 66t-69.5 123.5t-25 185q0 139 37 252.5t99.5 185.5t143.5 110.5t171 38.5q72 0 147 -22.5t113 -50.5l-84 -185q-33 27 -89.5 53.5t-107.5 26.5q-70 0 -119 -107
t-49 -270q0 -120 38 -177.5t98 -57.5q87 0 206 96z" />
    <glyph glyph-name="Ccircumflex" unicode="&#x108;" horiz-adv-x="1009" 
d="M831 1343l-153 146l-174 -146h-189l265 322h217l225 -322h-191zM895 231l37 -180q-189 -80 -377 -80q-224 0 -365 149.5t-141 418.5q0 116 24.5 223t76.5 202.5t127 166.5t183.5 112t237.5 41q162 0 299 -55l-63 -213q-173 57 -293 57q-148 0 -233.5 -128t-85.5 -382
q0 -96 27.5 -171.5t73 -120.5t99 -68t109.5 -23q124 0 264 51z" />
    <glyph glyph-name="ccircumflex" unicode="&#x109;" horiz-adv-x="778" 
d="M674 1036l-154 146l-174 -146h-188l264 322h217l225 -322h-190zM657 258l62 -145q-181 -144 -354 -144q-65 0 -119 21.5t-98.5 66t-69.5 123.5t-25 185q0 139 37 252.5t99.5 185.5t143.5 110.5t171 38.5q72 0 147 -22.5t113 -50.5l-84 -185q-33 27 -89.5 53.5
t-107.5 26.5q-70 0 -119 -107t-49 -270q0 -120 38 -177.5t98 -57.5q87 0 206 96z" />
    <glyph glyph-name="Cdotaccent" unicode="&#x10a;" horiz-adv-x="1009" 
d="M518 1522q3 43 62 102t100 59t101 -48.5t57 -90.5t-63 -101t-99 -59q-42 0 -101.5 48.5t-56.5 89.5zM895 231l37 -180q-189 -80 -377 -80q-224 0 -365 149.5t-141 418.5q0 116 24.5 223t76.5 202.5t127 166.5t183.5 112t237.5 41q162 0 299 -55l-63 -213q-173 57 -293 57
q-148 0 -233.5 -128t-85.5 -382q0 -96 27.5 -171.5t73 -120.5t99 -68t109.5 -23q124 0 264 51z" />
    <glyph glyph-name="cdotaccent" unicode="&#x10b;" horiz-adv-x="778" 
d="M365 1214q3 43 61.5 102.5t99.5 59.5t101 -48.5t57 -90.5t-63 -101t-99 -59q-42 0 -101 48t-56 89zM657 258l62 -145q-181 -144 -354 -144q-65 0 -119 21.5t-98.5 66t-69.5 123.5t-25 185q0 139 37 252.5t99.5 185.5t143.5 110.5t171 38.5q72 0 147 -22.5t113 -50.5
l-84 -185q-33 27 -89.5 53.5t-107.5 26.5q-70 0 -119 -107t-49 -270q0 -120 38 -177.5t98 -57.5q87 0 206 96z" />
    <glyph glyph-name="Ccaron" unicode="&#x10c;" horiz-adv-x="1009" 
d="M758 1354h-217l-226 321h191l153 -145l175 145h188zM895 231l37 -180q-189 -80 -377 -80q-224 0 -365 149.5t-141 418.5q0 116 24.5 223t76.5 202.5t127 166.5t183.5 112t237.5 41q162 0 299 -55l-63 -213q-173 57 -293 57q-148 0 -233.5 -128t-85.5 -382
q0 -96 27.5 -171.5t73 -120.5t99 -68t109.5 -23q124 0 264 51z" />
    <glyph glyph-name="ccaron" unicode="&#x10d;" horiz-adv-x="778" 
d="M604 1047h-217l-225 321h190l154 -145l174 145h188zM657 258l62 -145q-181 -144 -354 -144q-65 0 -119 21.5t-98.5 66t-69.5 123.5t-25 185q0 139 37 252.5t99.5 185.5t143.5 110.5t171 38.5q72 0 147 -22.5t113 -50.5l-84 -185q-33 27 -89.5 53.5t-107.5 26.5
q-70 0 -119 -107t-49 -270q0 -120 38 -177.5t98 -57.5q87 0 206 96z" />
    <glyph glyph-name="Dcaron" unicode="&#x10e;" horiz-adv-x="1210" 
d="M717 1354h-217l-226 321h191l153 -145l175 145h188zM186 1253h424q251 0 400.5 -143.5t150.5 -394.5q-1 -214 -91 -377.5t-245 -250.5t-350 -87h-377zM438 1051l-61 -848h112q84 0 155 28t126 83t86 144.5t31 205.5q0 192 -92.5 289.5t-249.5 97.5h-107z" />
    <glyph glyph-name="dcaron" unicode="&#x10f;" horiz-adv-x="1224" 
d="M1044 1335q3 32 52.5 59t91.5 27q33 0 55 -32.5t29.5 -74.5t5.5 -85q-8 -114 -199 -359l-100 56q88 143 94 239q2 41 -14 97t-15 73zM614 -31l-10 207q-135 -205 -301 -205q-252 0 -252 367q0 144 46.5 264.5t119 194.5t156 114.5t162.5 40.5q40 0 118 -12l35 473l250 37
l-98 -1450zM414 156q64 0 128 106t83 291l14 199q-70 24 -147 24q-86 0 -132.5 -103.5t-46.5 -299.5q0 -217 101 -217z" />
    <glyph glyph-name="Dcroat" unicode="&#x110;" horiz-adv-x="1210" 
d="M475 0h-377l39 545h-123v39l43 147h93l36 522h424q251 0 400.5 -143.5t150.5 -394.5q-1 -214 -91 -377.5t-245 -250.5t-350 -87zM377 203h112q84 0 155 28t126 83t86 144.5t31 205.5q0 192 -92.5 289.5t-249.5 97.5h-107l-22 -320h280v-39l-43 -147h-252z" />
    <glyph glyph-name="dcroat" unicode="&#x111;" horiz-adv-x="978" 
d="M614 -31l-10 207q-135 -205 -301 -205q-252 0 -252 367q0 144 46.5 264.5t119 194.5t156 114.5t162.5 40.5q40 0 118 -12l13 174h-232l2 31l53 104h187l12 164l250 37l-14 -201h178l-2 -30l-53 -105h-132l-75 -1114zM414 156q64 0 128 106t83 291l14 199q-70 24 -147 24
q-86 0 -132.5 -103.5t-46.5 -299.5q0 -217 101 -217z" />
    <glyph glyph-name="Emacron" unicode="&#x112;" horiz-adv-x="987" 
d="M868 1585l-2 -31l-57 -145h-526l2 31l57 145h526zM98 0l88 1253h748l-45 -200l-453 6l-20 -316h432l-45 -198l-402 8l-24 -352l514 6l-45 -207h-748z" />
    <glyph glyph-name="emacron" unicode="&#x113;" horiz-adv-x="811" 
d="M799 1278l-2 -31l-58 -145h-526l2 31l57 145h527zM387 -31q-154 0 -242 97.5t-88 287.5q0 120 26.5 220.5t71.5 169t104 116.5t122.5 70t128.5 22q123 0 193.5 -65.5t70.5 -163.5q0 -137 -134 -230.5t-327 -111.5q5 -225 146 -225q97 0 233 108l62 -139
q-181 -156 -367 -156zM463 791q-120 0 -146 -277q104 14 165 62t61 120q0 42 -21 68.5t-59 26.5z" />
    <glyph glyph-name="Ebreve" unicode="&#x114;" horiz-adv-x="987" 
d="M575 1516q150 0 191 172h147q-10 -148 -117.5 -246.5t-242.5 -98.5q-146 0 -224 95t-67 250h148q15 -172 165 -172zM98 0l88 1253h748l-45 -200l-453 6l-20 -316h432l-45 -198l-402 8l-24 -352l514 6l-45 -207h-748z" />
    <glyph glyph-name="ebreve" unicode="&#x115;" horiz-adv-x="811" 
d="M500 1208q149 0 190 172h148q-10 -148 -118 -246t-243 -98q-146 0 -224 95t-67 249h148q15 -172 166 -172zM387 -31q-154 0 -242 97.5t-88 287.5q0 120 26.5 220.5t71.5 169t104 116.5t122.5 70t128.5 22q123 0 193.5 -65.5t70.5 -163.5q0 -137 -134 -230.5t-327 -111.5
q5 -225 146 -225q97 0 233 108l62 -139q-181 -156 -367 -156zM463 791q-120 0 -146 -277q104 14 165 62t61 120q0 42 -21 68.5t-59 26.5z" />
    <glyph glyph-name="Edotaccent" unicode="&#x116;" horiz-adv-x="987" 
d="M432 1522q3 43 62 102t100 59t101 -48.5t57 -90.5t-63 -101t-99 -59q-42 0 -101.5 48.5t-56.5 89.5zM98 0l88 1253h748l-45 -200l-453 6l-20 -316h432l-45 -198l-402 8l-24 -352l514 6l-45 -207h-748z" />
    <glyph glyph-name="edotaccent" unicode="&#x117;" horiz-adv-x="811" 
d="M317 1214q3 43 62 102.5t100 59.5t101 -48.5t57 -90.5t-63 -101t-99 -59q-42 0 -101.5 48t-56.5 89zM387 -31q-154 0 -242 97.5t-88 287.5q0 120 26.5 220.5t71.5 169t104 116.5t122.5 70t128.5 22q123 0 193.5 -65.5t70.5 -163.5q0 -137 -134 -230.5t-327 -111.5
q5 -225 146 -225q97 0 233 108l62 -139q-181 -156 -367 -156zM463 791q-120 0 -146 -277q104 14 165 62t61 120q0 42 -21 68.5t-59 26.5z" />
    <glyph glyph-name="Eogonek" unicode="&#x118;" horiz-adv-x="987" 
d="M98 0l88 1253h748l-45 -200l-453 6l-20 -316h432l-45 -198l-402 8l-24 -352l514 6l-45 -207h-748zM455 -279q6 72 72.5 148t168.5 131h142q-110 -74 -162 -139t-55 -113q-1 -34 21.5 -55t55.5 -21q47 0 95 25l28 -113q-92 -47 -176 -47q-93 0 -144.5 49t-45.5 135z" />
    <glyph glyph-name="eogonek" unicode="&#x119;" horiz-adv-x="811" 
d="M477 -401q-93 0 -144.5 49t-45.5 135q9 95 110 186h-10q-154 0 -242 97.5t-88 287.5q0 120 26.5 220.5t71.5 169t104 116.5t122.5 70t128.5 22q123 0 193.5 -65.5t70.5 -163.5q0 -137 -134 -230.5t-327 -111.5q5 -225 146 -225q97 0 233 108l62 -139q-63 -51 -84 -64
q-110 -74 -162 -138.5t-55 -112.5q-1 -34 21.5 -55t55.5 -21q49 0 95 24l28 -112q-92 -47 -176 -47zM463 791q-120 0 -146 -277q104 14 165 62t61 120q0 42 -21 68.5t-59 26.5z" />
    <glyph glyph-name="Ecaron" unicode="&#x11a;" horiz-adv-x="987" 
d="M676 1354h-217l-226 321h191l154 -145l174 145h188zM98 0l88 1253h748l-45 -200l-453 6l-20 -316h432l-45 -198l-402 8l-24 -352l514 6l-45 -207h-748z" />
    <glyph glyph-name="ecaron" unicode="&#x11b;" horiz-adv-x="811" 
d="M598 1047h-217l-225 321h190l154 -145l174 145h188zM387 -31q-154 0 -242 97.5t-88 287.5q0 120 26.5 220.5t71.5 169t104 116.5t122.5 70t128.5 22q123 0 193.5 -65.5t70.5 -163.5q0 -137 -134 -230.5t-327 -111.5q5 -225 146 -225q97 0 233 108l62 -139
q-181 -156 -367 -156zM463 791q-120 0 -146 -277q104 14 165 62t61 120q0 42 -21 68.5t-59 26.5z" />
    <glyph glyph-name="Gcircumflex" unicode="&#x11c;" horiz-adv-x="1146" 
d="M877 1343l-154 146l-174 -146h-189l265 322h217l225 -322h-190zM1006 63q-89 -42 -203.5 -68t-224.5 -26q-238 0 -383.5 146.5t-145.5 425.5q0 112 25.5 219t79 202.5t129.5 167.5t185.5 114t238.5 42q105 0 214 -21t164 -51l-63 -223q-196 82 -371 82
q-161 0 -246.5 -130t-85.5 -380q0 -101 27 -178t73 -121.5t101 -66t117 -21.5q64 0 143 14l31 433h233z" />
    <glyph glyph-name="gcircumflex" unicode="&#x11d;" horiz-adv-x="806" 
d="M422 489q51 0 82 39t31 109q0 77 -33 121.5t-94 44.5q-113 0 -113 -148q0 -77 33 -121.5t94 -44.5zM770 -74q0 -93 -70 -180.5t-185 -141t-239 -53.5q-165 0 -252 58.5t-87 152.5q0 74 45.5 135.5t162.5 129.5l48 26q-95 55 -95 137q0 42 33 87.5t92 84.5
q-157 60 -157 252q0 150 113 244t280 94q73 0 129 -18l71 102h-57l-153 146l-175 -146h-188l264 322h217l158 -225l14 22l133 -133l-20 -47l-158 -105q70 -70 70 -192q0 -142 -109 -240t-286 -98h-15q-39 -31 -39 -57q0 -30 46.5 -55t170.5 -56q131 -32 184.5 -91.5
t53.5 -154.5zM346 -270q98 0 156.5 36t58.5 91q0 49 -43.5 75.5t-171.5 61.5q-5 2 -25.5 7.5t-29.5 8.5l-25 -16q-57 -40 -84.5 -73t-27.5 -77q0 -48 49 -81t143 -33z" />
    <glyph glyph-name="Gbreve" unicode="&#x11e;" horiz-adv-x="1146" 
d="M694 1516q150 0 191 172h147q-10 -148 -117.5 -246.5t-242.5 -98.5q-146 0 -224 95t-67 250h147q15 -172 166 -172zM1006 63q-89 -42 -203.5 -68t-224.5 -26q-238 0 -383.5 146.5t-145.5 425.5q0 112 25.5 219t79 202.5t129.5 167.5t185.5 114t238.5 42q105 0 214 -21
t164 -51l-63 -223q-196 82 -371 82q-161 0 -246.5 -130t-85.5 -380q0 -101 27 -178t73 -121.5t101 -66t117 -21.5q64 0 143 14l31 433h233z" />
    <glyph glyph-name="gbreve" unicode="&#x11f;" horiz-adv-x="806" 
d="M440 1208q150 0 191 172h147q-10 -148 -117.5 -246t-242.5 -98q-146 0 -224 95t-67 249h147q15 -172 166 -172zM422 489q51 0 82 39t31 109q0 77 -33 121.5t-94 44.5q-113 0 -113 -148q0 -77 33 -121.5t94 -44.5zM770 -74q0 -93 -70 -180.5t-185 -141t-239 -53.5
q-165 0 -252 58.5t-87 152.5q0 74 45.5 135.5t162.5 129.5l48 26q-95 55 -95 137q0 42 33 87.5t92 84.5q-157 60 -157 252q0 150 113 244t280 94q73 0 129 -18l151 221l133 -133l-20 -47l-158 -105q70 -70 70 -192q0 -142 -109 -240t-286 -98h-15q-39 -31 -39 -57
q0 -30 46.5 -55t170.5 -56q131 -32 184.5 -91.5t53.5 -154.5zM346 -270q98 0 156.5 36t58.5 91q0 49 -43.5 75.5t-171.5 61.5q-5 2 -25.5 7.5t-29.5 8.5l-25 -16q-57 -40 -84.5 -73t-27.5 -77q0 -48 49 -81t143 -33z" />
    <glyph glyph-name="Gdotaccent" unicode="&#x120;" horiz-adv-x="1146" 
d="M551 1522q3 43 62 102t100 59t100.5 -48.5t56.5 -90.5t-62.5 -101t-98.5 -59q-42 0 -101.5 48.5t-56.5 89.5zM1006 63q-89 -42 -203.5 -68t-224.5 -26q-238 0 -383.5 146.5t-145.5 425.5q0 112 25.5 219t79 202.5t129.5 167.5t185.5 114t238.5 42q105 0 214 -21t164 -51
l-63 -223q-196 82 -371 82q-161 0 -246.5 -130t-85.5 -380q0 -101 27 -178t73 -121.5t101 -66t117 -21.5q64 0 143 14l31 433h233z" />
    <glyph glyph-name="gdotaccent" unicode="&#x121;" horiz-adv-x="806" 
d="M289 1214q3 43 62 102.5t100 59.5t100.5 -48.5t56.5 -90.5t-63 -101t-99 -59q-42 0 -101 48t-56 89zM422 489q51 0 82 39t31 109q0 77 -33 121.5t-94 44.5q-113 0 -113 -148q0 -77 33 -121.5t94 -44.5zM770 -74q0 -93 -70 -180.5t-185 -141t-239 -53.5q-165 0 -252 58.5
t-87 152.5q0 74 45.5 135.5t162.5 129.5l48 26q-95 55 -95 137q0 42 33 87.5t92 84.5q-157 60 -157 252q0 150 113 244t280 94q73 0 129 -18l151 221l133 -133l-20 -47l-158 -105q70 -70 70 -192q0 -142 -109 -240t-286 -98h-15q-39 -31 -39 -57q0 -30 46.5 -55t170.5 -56
q131 -32 184.5 -91.5t53.5 -154.5zM346 -270q98 0 156.5 36t58.5 91q0 49 -43.5 75.5t-171.5 61.5q-5 2 -25.5 7.5t-29.5 8.5l-25 -16q-57 -40 -84.5 -73t-27.5 -77q0 -48 49 -81t143 -33z" />
    <glyph glyph-name="Gcommaaccent" unicode="&#x122;" horiz-adv-x="1146" 
d="M1006 63q-89 -42 -203.5 -68t-224.5 -26q-238 0 -383.5 146.5t-145.5 425.5q0 112 25.5 219t79 202.5t129.5 167.5t185.5 114t238.5 42q105 0 214 -21t164 -51l-63 -223q-196 82 -371 82q-161 0 -246.5 -130t-85.5 -380q0 -101 27 -178t73 -121.5t101 -66t117 -21.5
q64 0 143 14l31 433h233zM473 -190q1 34 44 70t81 36q39 0 82.5 -49.5t40.5 -85.5q-7 -85 -162 -309l-117 47q12 23 40.5 74.5t41 77.5t13.5 38q0 10 -32.5 45t-31.5 56z" />
    <glyph glyph-name="gcommaaccent" unicode="&#x123;" horiz-adv-x="806" 
d="M549 1126q-1 -34 -44 -70t-81 -36q-39 0 -82.5 49.5t-40.5 85.5q7 85 162 309l117 -47q-12 -23 -40.5 -74.5t-41 -77.5t-13.5 -38q0 -10 32.5 -45t31.5 -56zM422 489q51 0 82 39t31 109q0 77 -33 121.5t-94 44.5q-113 0 -113 -148q0 -77 33 -121.5t94 -44.5zM770 -74
q0 -93 -70 -180.5t-185 -141t-239 -53.5q-165 0 -252 58.5t-87 152.5q0 74 45.5 135.5t162.5 129.5l48 26q-95 55 -95 137q0 42 33 87.5t92 84.5q-157 60 -157 252q0 150 113 244t280 94q73 0 129 -18l151 221l133 -133l-20 -47l-158 -105q70 -70 70 -192q0 -142 -109 -240
t-286 -98h-15q-39 -31 -39 -57q0 -30 46.5 -55t170.5 -56q131 -32 184.5 -91.5t53.5 -154.5zM346 -270q98 0 156.5 36t58.5 91q0 49 -43.5 75.5t-171.5 61.5q-5 2 -25.5 7.5t-29.5 8.5l-25 -16q-57 -40 -84.5 -73t-27.5 -77q0 -48 49 -81t143 -33z" />
    <glyph glyph-name="Hcircumflex" unicode="&#x124;" horiz-adv-x="1257" 
d="M852 1343l-154 146l-174 -146h-188l264 322h217l225 -322h-190zM807 0l37 537h-445l-37 -537h-264l88 1253h265l-35 -501h444l35 501h264l-88 -1253h-264z" />
    <glyph glyph-name="hcircumflex" unicode="&#x125;" horiz-adv-x="987" 
d="M500 1450l-154 145l-174 -145h-188l264 322h217l225 -322h-190zM567 750q-25 0 -53.5 -17.5t-61 -57t-59 -119.5t-37.5 -189l-26 -367h-250l98 1413l254 37l-51 -721q143 223 309 223q215 0 215 -254q0 -97 -35 -394t-36 -304h-250q2 22 19.5 165.5t30.5 269.5t13 177
q0 73 -19.5 105.5t-60.5 32.5z" />
    <glyph glyph-name="Hbar" unicode="&#x126;" horiz-adv-x="1257" 
d="M864 752l10 159h-444l-10 -159h444zM811 0l37 537h-445l-36 -537h-265l64 911h-129l2 39l45 127h94l12 176h265l-13 -176h445l12 176h264l-12 -176h127l-2 -39l-45 -127h-92l-64 -911h-264z" />
    <glyph glyph-name="hbar" unicode="&#x127;" horiz-adv-x="1005" 
d="M567 750q-25 0 -53.5 -17.5t-61 -57t-59 -119.5t-37.5 -189l-26 -367h-250l78 1114h-146l2 31l54 104h98l12 164l254 37l-14 -201h274l-2 -30l-53 -105h-229l-27 -385q143 223 309 223q215 0 215 -254q0 -97 -35 -394t-36 -304h-250q2 22 19.5 165.5t30.5 269.5t13 177
q0 73 -19.5 105.5t-60.5 32.5z" />
    <glyph glyph-name="Itilde" unicode="&#x128;" horiz-adv-x="548" 
d="M612 1632l84 -94q-36 -61 -109 -121.5t-132 -60.5q-40 0 -132 33.5t-116 33.5q-34 0 -75 -30t-58 -50l-74 105q10 13 32.5 36.5t56.5 54.5t73 53t69 22q46 0 130 -33t110 -33q36 0 69 22.5t72 61.5zM451 1253l-89 -1253h-264l88 1253h265z" />
    <glyph glyph-name="itilde" unicode="&#x129;" horiz-adv-x="475" 
d="M561 1325l84 -94q-35 -60 -111.5 -121t-136.5 -61q-40 0 -136 33.5t-120 33.5q-34 0 -79 -31t-60 -49l-74 105q10 12 34 36t59 55t75 53t70 22q46 0 134 -33t114 -33q63 0 147 84zM397 952l-67 -952h-248l65 915z" />
    <glyph glyph-name="Imacron" unicode="&#x12a;" horiz-adv-x="548" 
d="M631 1585l-2 -31l-58 -145h-526l2 31l57 145h527zM451 1253l-89 -1253h-264l88 1253h265z" />
    <glyph glyph-name="imacron" unicode="&#x12b;" horiz-adv-x="475" 
d="M588 1278l-2 -31l-58 -145h-526l2 31l57 145h527zM397 954l-67 -952h-248l65 916z" />
    <glyph glyph-name="Ibreve" unicode="&#x12c;" horiz-adv-x="548" 
d="M334 1516q149 0 190 172h148q-10 -148 -118 -246.5t-243 -98.5q-146 0 -224 95t-67 250h148q15 -172 166 -172zM451 1253l-89 -1253h-264l88 1253h265z" />
    <glyph glyph-name="ibreve" unicode="&#x12d;" horiz-adv-x="475" 
d="M291 1208q149 0 190 172h148q-10 -148 -118 -246t-243 -98q-146 0 -224 95t-67 249h148q15 -172 166 -172zM397 952l-67 -952h-248l65 915z" />
    <glyph glyph-name="Iogonek" unicode="&#x12e;" horiz-adv-x="548" 
d="M211 0h-113l88 1253h265l-89 -1253h-10q-110 -74 -162 -139t-55 -113q-1 -34 21.5 -55t56.5 -21q46 0 94 25l29 -113q-92 -47 -176 -47q-93 0 -145 49t-46 135q6 72 73 148t169 131z" />
    <glyph glyph-name="iogonek" unicode="&#x12f;" horiz-adv-x="475" 
d="M141 1214q0 42 53.5 101t96.5 59q40 0 93.5 -43.5t53.5 -85.5q0 -41 -53.5 -99.5t-95.5 -58.5q-41 0 -94.5 43t-53.5 84zM186 0h-106l65 915l250 37l-67 -952q-110 -74 -162 -139t-55 -113q-1 -34 21.5 -55t55.5 -21q47 0 95 25l28 -113q-92 -47 -176 -47
q-93 0 -144.5 49t-45.5 135q6 72 72.5 148t168.5 131z" />
    <glyph glyph-name="Idotaccent" unicode="&#x130;" horiz-adv-x="548" 
d="M174 1522q3 43 62 102t100 59t101 -48.5t57 -90.5t-63 -101t-99 -59q-42 0 -101.5 48.5t-56.5 89.5zM451 1253l-89 -1253h-264l88 1253h265z" />
    <glyph glyph-name="dotlessi" unicode="&#x131;" horiz-adv-x="497" 
d="M418 952l-68 -952h-248l66 915z" />
    <glyph glyph-name="IJ" unicode="&#x132;" horiz-adv-x="1275" 
d="M451 1253l-89 -1253h-264l88 1253h265zM1178 1253l-62 -893q-12 -179 -129.5 -285t-286.5 -106q-111 0 -192 35l57 217q76 -37 150 -37q55 0 93 43.5t44 130.5l61 895h265z" />
    <glyph glyph-name="ij" unicode="&#x133;" horiz-adv-x="933" 
d="M600 1214q0 42 53.5 101t96.5 59q40 0 93.5 -43.5t53.5 -85.5q0 -41 -53.5 -99.5t-95.5 -58.5q-41 0 -94.5 43t-53.5 84zM141 1214q0 42 53.5 101t96.5 59q40 0 93.5 -43.5t53.5 -85.5q0 -41 -53.5 -99.5t-95.5 -58.5q-41 0 -94.5 43t-53.5 84zM145 915l250 37l-67 -952
h-248zM295 -471l-27 223q34 -6 86 -6q162 0 181 244l67 925l250 37l-68 -944q-17 -227 -144.5 -353.5t-344.5 -125.5z" />
    <glyph glyph-name="Jcircumflex" unicode="&#x134;" horiz-adv-x="718" 
d="M651 1343l-153 146l-174 -146h-189l264 322h217l226 -322h-191zM621 1253l-62 -893q-12 -179 -129.5 -285t-286.5 -106q-111 0 -192 35l57 217q76 -37 150 -37q55 0 93 43.5t44 130.5l61 895h265z" />
    <glyph glyph-name="jcircumflex" unicode="&#x135;" horiz-adv-x="462" 
d="M436 1036l-153 146l-174 -146h-189l264 322h217l226 -322h-191zM-168 -471l-27 223q34 -6 86 -6q162 0 181 244l67 925l250 37l-67 -944q-17 -227 -145 -353.5t-345 -125.5z" />
    <glyph glyph-name="Kcommaaccent" unicode="&#x136;" horiz-adv-x="1169" 
d="M1118 0h-309l-399 674l487 579h297l-508 -577zM449 1253l-89 -1253h-262l88 1253h263zM426 -190q1 34 44 70t81 36q39 0 82.5 -49.5t40.5 -85.5q-7 -85 -162 -309l-117 47q10 20 25.5 48t26 47t20.5 39.5t15.5 34t6.5 21.5q0 10 -32 45t-31 56z" />
    <glyph glyph-name="kcommaaccent" unicode="&#x137;" horiz-adv-x="929" 
d="M672 -20q-73 91 -307 538l-37 -518h-248l102 1419l250 29l-67 -930q84 70 165.5 176t147.5 228h252q-46 -96 -134.5 -211t-185.5 -205q142 -230 201.5 -317t106.5 -142zM336 -190q1 34 44 70t81 36q39 0 82.5 -49.5t40.5 -85.5q-7 -85 -162 -309l-117 47q10 20 25.5 48
t26 47t20.5 39.5t15.5 34t6.5 21.5q0 10 -32 45t-31 56z" />
    <glyph glyph-name="Lacute" unicode="&#x139;" horiz-adv-x="942" 
d="M166 1343l285 322l258 -47l-332 -275h-211zM98 0l88 1253h265l-74 -1044l516 6l-47 -215h-748z" />
    <glyph glyph-name="lacute" unicode="&#x13a;" horiz-adv-x="544" 
d="M176 1503l285 322l258 -47l-332 -275h-211zM487 225l33 -162q-158 -94 -262 -94q-80 0 -129 48.5t-49 142.5q0 52 10 166.5t36 416t52 670.5l250 37q-27 -368 -51.5 -660.5t-33.5 -396.5t-9 -141q0 -27 13.5 -46.5t35.5 -19.5q36 0 104 39z" />
    <glyph glyph-name="Lcommaaccent" unicode="&#x13b;" horiz-adv-x="942" 
d="M98 0l88 1253h265l-74 -1044l516 6l-47 -215h-748zM365 -190q2 34 44 70t80 36q39 0 82.5 -49.5t40.5 -85.5q-7 -87 -161 -309l-117 47q10 20 25.5 48t26 47t20.5 39.5t15.5 34t6.5 21.5q0 10 -32 45t-31 56z" />
    <glyph glyph-name="lcommaaccent" unicode="&#x13c;" horiz-adv-x="544" 
d="M487 225l33 -162q-158 -94 -262 -94q-80 0 -129 48.5t-49 142.5q0 52 10 166.5t36 416t52 670.5l250 37q-27 -368 -51.5 -660.5t-33.5 -396.5t-9 -141q0 -27 13.5 -46.5t35.5 -19.5q36 0 104 39zM143 -190q1 34 44 70t81 36q39 0 82.5 -49.5t40.5 -85.5q-7 -85 -162 -309
l-116 47q10 20 25.5 48t26 47t20.5 39.5t15.5 34t6.5 21.5q0 10 -32.5 45t-31.5 56z" />
    <glyph glyph-name="Lcaron" unicode="&#x13d;" horiz-adv-x="942" 
d="M692 1335q3 32 52.5 59t91.5 27q33 0 55 -32.5t29.5 -74.5t5.5 -85q-8 -114 -199 -359l-100 56q88 143 94 239q2 41 -14 97t-15 73zM98 0l88 1253h265l-74 -1044l516 6l-47 -215h-748z" />
    <glyph glyph-name="lcaron" unicode="&#x13e;" horiz-adv-x="704" 
d="M487 225l33 -162q-158 -94 -262 -94q-80 0 -129 48.5t-49 142.5q0 52 10 166.5t36 416t52 670.5l250 37q-27 -368 -51.5 -660.5t-33.5 -396.5t-9 -141q0 -27 13.5 -46.5t35.5 -19.5q36 0 104 39zM528 1335q3 32 52.5 59t91.5 27q33 0 55 -32.5t29.5 -74.5t5.5 -85
q-8 -114 -199 -359l-100 56q88 143 94 239q2 41 -14 97t-15 73z" />
    <glyph glyph-name="Ldot" unicode="&#x13f;" horiz-adv-x="942" 
d="M598 686q3 43 62 102.5t100 59.5t101 -48.5t57 -90.5t-63 -101t-99 -59q-42 0 -101.5 48t-56.5 89zM98 0l88 1253h265l-74 -1044l516 6l-47 -215h-748z" />
    <glyph glyph-name="ldot" unicode="&#x140;" horiz-adv-x="700" 
d="M487 225l33 -162q-158 -94 -262 -94q-80 0 -129 48.5t-49 142.5q0 52 10 166.5t36 416t52 670.5l250 37q-27 -368 -51.5 -660.5t-33.5 -396.5t-9 -141q0 -27 13.5 -46.5t35.5 -19.5q36 0 104 39zM428 549q3 43 62 102.5t100 59.5t101 -49t57 -91t-63 -100.5t-99 -58.5
q-42 0 -101.5 48t-56.5 89z" />
    <glyph glyph-name="Lslash" unicode="&#x141;" horiz-adv-x="942" 
d="M111 0l34 492l-118 -52l12 189l119 51l41 573h264l-33 -456l256 108l-12 -188l-256 -109l-29 -399l516 6l-47 -215h-747z" />
    <glyph glyph-name="lslash" unicode="&#x142;" horiz-adv-x="573" 
d="M258 -31q-80 0 -129 48.5t-49 142.5q0 35 29 385l-101 -43l12 188l105 43q40 487 53 680l250 37q-11 -150 -28 -369.5t-19 -240.5l160 67l-13 -188l-163 -68q-31 -381 -31 -399q0 -27 13.5 -46.5t35.5 -19.5q36 0 104 39l33 -162q-158 -94 -262 -94z" />
    <glyph glyph-name="Nacute" unicode="&#x143;" horiz-adv-x="1265" 
d="M512 1343l285 322l258 -47l-332 -275h-211zM848 0l-451 840l-59 -840h-240l88 1253h258l433 -831l51 831h239l-86 -1253h-233z" />
    <glyph glyph-name="nacute" unicode="&#x144;" horiz-adv-x="987" 
d="M377 1036l285 322l258 -47l-332 -275h-211zM567 750q-19 0 -41 -10t-49.5 -37.5t-50.5 -69.5t-43 -113.5t-29 -161.5l-24 -358h-250l63 915l224 37l10 -227q72 112 153 169.5t160 57.5q215 0 215 -254q0 -97 -35 -394t-36 -304h-250q2 22 19.5 165.5t30.5 269.5t13 177
q0 73 -19.5 105.5t-60.5 32.5z" />
    <glyph glyph-name="Ncommaaccent" unicode="&#x145;" horiz-adv-x="1265" 
d="M848 0l-451 840l-59 -840h-240l88 1253h258l433 -831l51 831h239l-86 -1253h-233zM481 -190q1 34 44 70t81 36q39 0 82.5 -49.5t40.5 -85.5q-7 -85 -162 -309l-116 47q10 20 25.5 48t26 47t20.5 39.5t15.5 34t6.5 21.5q0 10 -32.5 45t-31.5 56z" />
    <glyph glyph-name="ncommaaccent" unicode="&#x146;" horiz-adv-x="987" 
d="M567 750q-19 0 -41 -10t-49.5 -37.5t-50.5 -69.5t-43 -113.5t-29 -161.5l-24 -358h-250l63 915l224 37l10 -227q72 112 153 169.5t160 57.5q215 0 215 -254q0 -97 -35 -394t-36 -304h-250q2 22 19.5 165.5t30.5 269.5t13 177q0 73 -19.5 105.5t-60.5 32.5zM317 -190
q1 34 44 70t81 36q39 0 82.5 -49.5t40.5 -85.5q-7 -85 -162 -309l-116 47q10 20 25.5 48t26 47t20.5 39.5t15.5 34t6.5 21.5q0 10 -32.5 45t-31.5 56z" />
    <glyph glyph-name="Ncaron" unicode="&#x147;" horiz-adv-x="1265" 
d="M793 1354h-218l-225 321h191l153 -145l174 145h189zM848 0l-451 840l-59 -840h-240l88 1253h258l433 -831l51 831h239l-86 -1253h-233z" />
    <glyph glyph-name="ncaron" unicode="&#x148;" horiz-adv-x="987" 
d="M653 1047h-217l-225 321h190l154 -145l174 145h189zM567 750q-19 0 -41 -10t-49.5 -37.5t-50.5 -69.5t-43 -113.5t-29 -161.5l-24 -358h-250l63 915l224 37l10 -227q72 112 153 169.5t160 57.5q215 0 215 -254q0 -97 -35 -394t-36 -304h-250q2 22 19.5 165.5t30.5 269.5
t13 177q0 73 -19.5 105.5t-60.5 32.5z" />
    <glyph glyph-name="Eng" unicode="&#x14a;" horiz-adv-x="1265" 
d="M698 -369q-109 0 -188 37l51 207q71 -41 160 -41q52 0 89.5 37.5t43.5 112.5v16h-6l-451 840l-59 -840h-240l88 1253h258l433 -831l51 831h239l-82 -1187l-2 -43q-10 -182 -117 -287t-268 -105z" />
    <glyph glyph-name="eng" unicode="&#x14b;" horiz-adv-x="989" 
d="M344 -471l-27 223q34 -6 86 -6q77 0 125 56.5t62 187.5q57 527 57 622q0 73 -19.5 105.5t-60.5 32.5q-19 0 -41 -10t-49.5 -37.5t-50.5 -69.5t-43 -113.5t-29 -161.5l-24 -358h-250l63 915l224 37l10 -227q72 112 153 169.5t160 57.5q215 0 215 -254q0 -117 -67 -698
q-27 -226 -153.5 -349t-340.5 -122z" />
    <glyph glyph-name="Omacron" unicode="&#x14c;" horiz-adv-x="1216" 
d="M958 1585l-2 -31l-57 -145h-526l2 31l57 145h526zM1167 727q0 -182 -51.5 -329t-139.5 -239t-199.5 -141t-235.5 -49q-226 0 -359 150.5t-133 406.5q0 147 34 271.5t93 213t138.5 151t171 92.5t190.5 30q226 0 358.5 -150.5t132.5 -406.5zM606 174q61 0 111 27t91 85
t64 160.5t23 241.5q0 194 -81.5 292.5t-209.5 98.5q-61 0 -110.5 -27t-89 -85.5t-61 -160.5t-21.5 -241q0 -199 78 -295t206 -96z" />
    <glyph glyph-name="omacron" unicode="&#x14d;" horiz-adv-x="925" 
d="M827 1278l-2 -31l-57 -145h-526l2 31l57 145h526zM872 541q0 -83 -18 -164t-56.5 -155t-92.5 -130t-133.5 -89.5t-172.5 -33.5q-152 0 -249 103.5t-97 308.5q0 83 18 164t57 154.5t93.5 129.5t133 89.5t171.5 33.5q159 0 252.5 -102t93.5 -309zM459 131q48 0 81 40.5
t48.5 109t21.5 131.5t6 133q0 123 -35.5 184.5t-113.5 61.5q-39 0 -68.5 -29.5t-46 -72.5t-26.5 -102t-13.5 -108.5t-3.5 -101.5q0 -129 35.5 -187.5t114.5 -58.5z" />
    <glyph glyph-name="Obreve" unicode="&#x14e;" horiz-adv-x="1216" 
d="M647 1516q150 0 191 172h147q-10 -148 -117.5 -246.5t-242.5 -98.5q-146 0 -224 95t-67 250h147q15 -172 166 -172zM1167 727q0 -182 -51.5 -329t-139.5 -239t-199.5 -141t-235.5 -49q-226 0 -359 150.5t-133 406.5q0 147 34 271.5t93 213t138.5 151t171 92.5t190.5 30
q226 0 358.5 -150.5t132.5 -406.5zM606 174q61 0 111 27t91 85t64 160.5t23 241.5q0 194 -81.5 292.5t-209.5 98.5q-61 0 -110.5 -27t-89 -85.5t-61 -160.5t-21.5 -241q0 -199 78 -295t206 -96z" />
    <glyph glyph-name="obreve" unicode="&#x14f;" horiz-adv-x="925" 
d="M535 1208q149 0 190 172h147q-10 -148 -117.5 -246t-242.5 -98q-146 0 -224 95t-67 249h148q15 -172 166 -172zM872 541q0 -83 -18 -164t-56.5 -155t-92.5 -130t-133.5 -89.5t-172.5 -33.5q-152 0 -249 103.5t-97 308.5q0 83 18 164t57 154.5t93.5 129.5t133 89.5
t171.5 33.5q159 0 252.5 -102t93.5 -309zM459 131q48 0 81 40.5t48.5 109t21.5 131.5t6 133q0 123 -35.5 184.5t-113.5 61.5q-39 0 -68.5 -29.5t-46 -72.5t-26.5 -102t-13.5 -108.5t-3.5 -101.5q0 -129 35.5 -187.5t114.5 -58.5z" />
    <glyph glyph-name="Ohungarumlaut" unicode="&#x150;" horiz-adv-x="1216" 
d="M598 1343l264 322l258 -47l-311 -275h-211zM281 1343l264 322l258 -47l-311 -275h-211zM1167 727q0 -182 -51.5 -329t-139.5 -239t-199.5 -141t-235.5 -49q-226 0 -359 150.5t-133 406.5q0 147 34 271.5t93 213t138.5 151t171 92.5t190.5 30q226 0 358.5 -150.5
t132.5 -406.5zM606 174q61 0 111 27t91 85t64 160.5t23 241.5q0 194 -81.5 292.5t-209.5 98.5q-61 0 -110.5 -27t-89 -85.5t-61 -160.5t-21.5 -241q0 -199 78 -295t206 -96z" />
    <glyph glyph-name="ohungarumlaut" unicode="&#x151;" horiz-adv-x="925" 
d="M518 1036l264 322l258 -47l-311 -275h-211zM201 1036l264 322l258 -47l-311 -275h-211zM872 541q0 -83 -18 -164t-56.5 -155t-92.5 -130t-133.5 -89.5t-172.5 -33.5q-152 0 -249 103.5t-97 308.5q0 83 18 164t57 154.5t93.5 129.5t133 89.5t171.5 33.5q159 0 252.5 -102
t93.5 -309zM459 131q48 0 81 40.5t48.5 109t21.5 131.5t6 133q0 123 -35.5 184.5t-113.5 61.5q-39 0 -68.5 -29.5t-46 -72.5t-26.5 -102t-13.5 -108.5t-3.5 -101.5q0 -129 35.5 -187.5t114.5 -58.5z" />
    <glyph glyph-name="OE" unicode="&#x152;" horiz-adv-x="1634" 
d="M608 174q92 0 154 59l53 748q-79 98 -221 98q-125 0 -198.5 -128t-73.5 -386q0 -201 77.5 -296t208.5 -95zM745 0v8q-97 -39 -217 -39q-101 0 -188 37.5t-152 107.5t-102 175.5t-37 234.5q0 157 42.5 295t121 241.5t197 163.5t262.5 60q86 0 162 -31h747l-45 -200l-453 6
l-20 -316h432l-45 -198l-401 8l-25 -352l514 6l-45 -207h-748z" />
    <glyph glyph-name="oe" unicode="&#x153;" horiz-adv-x="1359" 
d="M940 -31q-166 0 -250 109q-119 -109 -291 -109q-152 0 -249 103.5t-97 308.5q0 83 18 164t57 154.5t93.5 129.5t133 89.5t171.5 33.5q172 0 260 -112q121 112 277 112q123 0 193.5 -65.5t70.5 -163.5q0 -137 -134 -230.5t-327 -111.5q5 -225 146 -225q97 0 233 108
l62 -139q-181 -156 -367 -156zM459 131q48 0 81 40.5t48.5 109t21.5 131.5t6 133q0 123 -35.5 184.5t-113.5 61.5q-39 0 -68.5 -29.5t-46 -72.5t-26.5 -102t-13.5 -108.5t-3.5 -101.5q0 -129 35.5 -187.5t114.5 -58.5zM1016 791q-34 0 -61 -23t-43 -63.5t-25.5 -84
t-14.5 -94.5v-12q104 14 164 61.5t60 120.5q0 42 -21 68.5t-59 26.5z" />
    <glyph glyph-name="Racute" unicode="&#x154;" horiz-adv-x="1091" 
d="M354 1343l285 322l258 -47l-332 -275h-211zM520 1073h-84l-26 -399h112q101 0 159 52t58 148q0 94 -57.5 146.5t-161.5 52.5zM496 481h-101l-33 -481h-264l86 1253h396q206 0 317 -90.5t111 -249.5q0 -118 -61.5 -215t-170.5 -153l273 -545h-293l-215 483q-14 -2 -45 -2z
" />
    <glyph glyph-name="racute" unicode="&#x155;" horiz-adv-x="673" 
d="M260 1036l285 322l258 -47l-332 -275h-211zM330 0h-250l65 915l222 37l10 -266q50 133 132.5 199.5t162.5 66.5q37 0 49 -4l-49 -258q-27 10 -72 10q-49 0 -86 -14.5t-69.5 -50.5t-54 -104t-32.5 -169z" />
    <glyph glyph-name="Rcommaaccent" unicode="&#x156;" horiz-adv-x="1091" 
d="M520 1073h-84l-26 -399h112q101 0 159 52t58 148q0 94 -57.5 146.5t-161.5 52.5zM496 481h-101l-33 -481h-264l86 1253h396q206 0 317 -90.5t111 -249.5q0 -118 -61.5 -215t-170.5 -153l273 -545h-293l-215 483q-14 -2 -45 -2zM397 -190q1 34 44 70t81 36
q39 0 82.5 -49.5t40.5 -85.5q-7 -85 -162 -309l-116 47q10 20 25.5 48t26 47t20.5 39.5t15.5 34t6.5 21.5q0 10 -32.5 45t-31.5 56z" />
    <glyph glyph-name="rcommaaccent" unicode="&#x157;" horiz-adv-x="673" 
d="M330 0h-250l65 915l222 37l10 -266q50 133 132.5 199.5t162.5 66.5q37 0 49 -4l-49 -258q-27 10 -72 10q-49 0 -86 -14.5t-69.5 -50.5t-54 -104t-32.5 -169zM72 -190q1 34 44 70t81 36q39 0 82 -49.5t40 -85.5q-7 -87 -161 -309l-117 47q10 20 25.5 48t26 47t20.5 39.5
t15.5 34t6.5 21.5q0 10 -32 45t-31 56z" />
    <glyph glyph-name="Rcaron" unicode="&#x158;" horiz-adv-x="1091" 
d="M670 1354h-217l-226 321h191l153 -145l174 145h189zM520 1073h-84l-26 -399h112q101 0 159 52t58 148q0 94 -57.5 146.5t-161.5 52.5zM496 481h-101l-33 -481h-264l86 1253h396q206 0 317 -90.5t111 -249.5q0 -118 -61.5 -215t-170.5 -153l273 -545h-293l-215 483
q-14 -2 -45 -2z" />
    <glyph glyph-name="rcaron" unicode="&#x159;" horiz-adv-x="673" 
d="M545 1047h-217l-226 321h191l153 -145l175 145h188zM330 0h-250l65 915l222 37l10 -266q50 133 132.5 199.5t162.5 66.5q37 0 49 -4l-49 -258q-27 10 -72 10q-49 0 -86 -14.5t-69.5 -50.5t-54 -104t-32.5 -169z" />
    <glyph glyph-name="Sacute" unicode="&#x15a;" horiz-adv-x="960" 
d="M373 1343l284 322l258 -47l-331 -275h-211zM477 498l-143 71q-223 114 -223 316q0 175 131 287t325 112q196 0 357 -59l-60 -228q-75 31 -172 57.5t-168 26.5q-69 0 -113 -36.5t-44 -96.5q0 -106 139 -176l149 -76q122 -61 175 -139.5t53 -179.5q0 -178 -145.5 -293
t-364.5 -115q-195 0 -342 60l57 223q200 -86 365 -86q69 0 115 39.5t46 107.5q0 59 -31 103t-106 82z" />
    <glyph glyph-name="sacute" unicode="&#x15b;" horiz-adv-x="743" 
d="M252 1036l285 322l258 -47l-332 -275h-211zM313 -31q-85 0 -165 19.5t-132 46.5l64 196q142 -81 268 -81q36 0 61 22t25 55q0 27 -20 51.5t-70 59.5l-113 80q-73 52 -106 108t-33 140q0 125 97.5 205.5t246.5 80.5q81 0 157.5 -16.5t115.5 -36.5l-60 -184
q-130 67 -239 67q-41 0 -62.5 -21.5t-21.5 -55.5q0 -24 24 -50t76 -63l102 -72q78 -54 111 -105t33 -132q0 -130 -102 -222t-257 -92z" />
    <glyph glyph-name="Scircumflex" unicode="&#x15c;" horiz-adv-x="960" 
d="M737 1343l-153 146l-174 -146h-189l264 322h217l226 -322h-191zM477 498l-143 71q-223 114 -223 316q0 175 131 287t325 112q196 0 357 -59l-60 -228q-75 31 -172 57.5t-168 26.5q-69 0 -113 -36.5t-44 -96.5q0 -106 139 -176l149 -76q122 -61 175 -139.5t53 -179.5
q0 -178 -145.5 -293t-364.5 -115q-195 0 -342 60l57 223q200 -86 365 -86q69 0 115 39.5t46 107.5q0 59 -31 103t-106 82z" />
    <glyph glyph-name="scircumflex" unicode="&#x15d;" horiz-adv-x="743" 
d="M604 1036l-153 146l-175 -146h-188l264 322h217l226 -322h-191zM313 -31q-85 0 -165 19.5t-132 46.5l64 196q142 -81 268 -81q36 0 61 22t25 55q0 27 -20 51.5t-70 59.5l-113 80q-73 52 -106 108t-33 140q0 125 97.5 205.5t246.5 80.5q81 0 157.5 -16.5t115.5 -36.5
l-60 -184q-130 67 -239 67q-41 0 -62.5 -21.5t-21.5 -55.5q0 -24 24 -50t76 -63l102 -72q78 -54 111 -105t33 -132q0 -130 -102 -222t-257 -92z" />
    <glyph glyph-name="Scedilla" unicode="&#x15e;" horiz-adv-x="960" 
d="M221 -481l-22 108q101 10 152.5 27.5t54.5 54.5q3 48 -146 86l-4 10l90 164q-180 6 -315 60l57 223q200 -86 365 -86q69 0 115 39.5t46 107.5q0 59 -31 103t-106 82l-143 71q-223 114 -223 316q0 175 131 287t325 112q196 0 357 -59l-60 -228q-75 31 -172 57.5t-168 26.5
q-69 0 -113 -36.5t-44 -96.5q0 -106 139 -176l149 -76q122 -61 175 -139.5t53 -179.5q0 -159 -117 -268.5t-303 -133.5l-41 -81q84 -34 123 -67.5t35 -88.5q-5 -79 -96 -143.5t-263 -75.5z" />
    <glyph glyph-name="scedilla" unicode="&#x15f;" horiz-adv-x="743" 
d="M109 -481l-23 108q101 10 152.5 27.5t54.5 54.5q3 48 -146 86l-4 10l93 168q-126 14 -220 62l64 196q142 -81 268 -81q36 0 61 22t25 55q0 27 -20 51.5t-70 59.5l-113 80q-73 52 -106 108t-33 140q0 125 97.5 205.5t246.5 80.5q81 0 157.5 -16.5t115.5 -36.5l-60 -184
q-130 67 -239 67q-41 0 -62.5 -21.5t-21.5 -55.5q0 -24 24 -50t76 -63l102 -72q78 -54 111 -105t33 -132q0 -122 -91 -212t-233 -100l-39 -77q84 -34 123 -67.5t35 -88.5q-5 -79 -95.5 -143.5t-262.5 -75.5z" />
    <glyph glyph-name="Scaron" unicode="&#x160;" horiz-adv-x="960" 
d="M662 1354h-218l-225 321h191l153 -145l174 145h189zM477 498l-143 71q-223 114 -223 316q0 175 131 287t325 112q196 0 357 -59l-60 -228q-75 31 -172 57.5t-168 26.5q-69 0 -113 -36.5t-44 -96.5q0 -106 139 -176l149 -76q122 -61 175 -139.5t53 -179.5
q0 -178 -145.5 -293t-364.5 -115q-195 0 -342 60l57 223q200 -86 365 -86q69 0 115 39.5t46 107.5q0 59 -31 103t-106 82z" />
    <glyph glyph-name="scaron" unicode="&#x161;" horiz-adv-x="743" 
d="M543 1047h-217l-226 321h191l153 -145l174 145h189zM313 -31q-85 0 -165 19.5t-132 46.5l64 196q142 -81 268 -81q36 0 61 22t25 55q0 27 -20 51.5t-70 59.5l-113 80q-73 52 -106 108t-33 140q0 125 97.5 205.5t246.5 80.5q81 0 157.5 -16.5t115.5 -36.5l-60 -184
q-130 67 -239 67q-41 0 -62.5 -21.5t-21.5 -55.5q0 -24 24 -50t76 -63l102 -72q78 -54 111 -105t33 -132q0 -130 -102 -222t-257 -92z" />
    <glyph glyph-name="Tcommaaccent" unicode="&#x162;" horiz-adv-x="1028" 
d="M1006 1040l-330 7l-72 -1047h-264l72 1047l-363 -7l47 213h957zM322 -190q2 34 44 70t80 36q39 0 82.5 -49.5t40.5 -85.5q-7 -87 -161 -309l-117 47q10 20 25.5 48t26 47t20.5 39.5t15.5 34t6.5 21.5q0 10 -32 45t-31 56z" />
    <glyph glyph-name="tcommaaccent" unicode="&#x163;" horiz-adv-x="677" 
d="M649 96q-169 -127 -330 -127q-93 0 -157 60t-64 172q0 16 0.5 33t3 43.5t5 50.5t8 71.5t10 88.5t14 120t17.5 148h-136l15 145l139 21q8 75 21 192l249 37q-6 -51 -26 -229h272l-31 -166h-260q-47 -415 -47 -467q0 -50 24.5 -76.5t65.5 -26.5q70 0 160 64zM190 -190
q1 34 44 70t81 36q39 0 82.5 -49.5t40.5 -85.5q-7 -85 -162 -309l-116 47q10 20 25.5 48t26 47t20.5 39.5t15.5 34t6.5 21.5q0 10 -32.5 45t-31.5 56z" />
    <glyph glyph-name="Tcaron" unicode="&#x164;" horiz-adv-x="1028" 
d="M664 1354h-218l-225 321h191l153 -145l174 145h189zM1006 1040l-330 7l-72 -1047h-264l72 1047l-363 -7l47 213h957z" />
    <glyph glyph-name="tcaron" unicode="&#x165;" horiz-adv-x="677" 
d="M569 1479q3 32 52.5 59t91.5 27q33 0 55 -33t29.5 -75t5.5 -85q-8 -113 -199 -358l-100 55q87 143 94 240q2 41 -14 97t-15 73zM649 96q-169 -127 -330 -127q-93 0 -157 60t-64 172q0 16 0.5 33t3 43.5t5 50.5t8 71.5t10 88.5t14 120t17.5 148h-136l15 145l139 21
q8 75 21 192l249 37q-6 -51 -26 -229h272l-31 -166h-260q-47 -415 -47 -467q0 -50 24.5 -76.5t65.5 -26.5q70 0 160 64z" />
    <glyph glyph-name="Tbar" unicode="&#x166;" horiz-adv-x="1028" 
d="M881 575h-236l-41 -575h-264l41 575h-281l2 39l50 136h239l21 297l-363 -7l47 213h957l-47 -213l-330 7l-21 -297h277l-2 -39z" />
    <glyph glyph-name="tbar" unicode="&#x167;" horiz-adv-x="677" 
d="M649 96q-169 -127 -330 -127q-93 0 -157 60t-64 172q0 55 19 227h-115l2 31l51 110h78q3 23 11 85.5t12 101.5h-136l15 145l139 21q8 75 21 192l249 37q-6 -51 -26 -229h272l-31 -166h-260q-5 -40 -11.5 -105.5t-8.5 -81.5h235l-2 -30l-51 -111h-196q-13 -124 -13 -139
q0 -50 24.5 -76.5t65.5 -26.5q70 0 160 64z" />
    <glyph glyph-name="Utilde" unicode="&#x168;" horiz-adv-x="1257" 
d="M963 1632l84 -94q-35 -60 -111.5 -121t-136.5 -61q-40 0 -136 33.5t-120 33.5q-34 0 -79.5 -31t-60.5 -49l-73 105q32 40 107 103t130 63q46 0 134 -33t114 -33q64 0 148 84zM184 1253h265q-9 -131 -18.5 -256.5t-14.5 -197t-10 -140t-7.5 -102.5t-4.5 -65t-2.5 -47.5
t-0.5 -32.5q0 -122 65.5 -180t170.5 -58q204 0 221 258l57 821h254l-55 -790q-15 -237 -153 -365.5t-386 -128.5q-200 0 -320 100.5t-120 286.5q0 64 7.5 176.5t51.5 720.5z" />
    <glyph glyph-name="utilde" unicode="&#x169;" horiz-adv-x="989" 
d="M831 1325l84 -94q-35 -60 -111 -121t-136 -61q-40 0 -136 33.5t-120 33.5q-34 0 -79.5 -31t-60.5 -49l-73 105q32 40 107 103t130 63q46 0 134 -33t114 -33q63 0 147 84zM621 -31l-13 228q-72 -112 -153 -170t-160 -58q-215 0 -215 254q0 97 34.5 390t35.5 300l253 39
q-2 -19 -20 -171t-31.5 -284t-13.5 -186q0 -139 82 -139q26 0 54.5 16.5t60 54t57 113.5t37.5 179l28 380l252 37l-65 -952z" />
    <glyph glyph-name="Umacron" unicode="&#x16a;" horiz-adv-x="1257" 
d="M969 1585l-2 -31l-58 -145h-526l2 31l57 145h527zM184 1253h265q-9 -131 -18.5 -256.5t-14.5 -197t-10 -140t-7.5 -102.5t-4.5 -65t-2.5 -47.5t-0.5 -32.5q0 -122 65.5 -180t170.5 -58q204 0 221 258l57 821h254l-55 -790q-15 -237 -153 -365.5t-386 -128.5
q-200 0 -320 100.5t-120 286.5q0 64 7.5 176.5t51.5 720.5z" />
    <glyph glyph-name="umacron" unicode="&#x16b;" horiz-adv-x="989" 
d="M848 1278l-2 -31l-58 -145h-526l2 31l58 145h526zM621 -31l-13 228q-72 -112 -153 -170t-160 -58q-215 0 -215 254q0 97 34.5 390t35.5 300l253 39q-2 -19 -20 -171t-31.5 -284t-13.5 -186q0 -139 82 -139q26 0 54.5 16.5t60 54t57 113.5t37.5 179l28 380l252 37
l-65 -952z" />
    <glyph glyph-name="Ubreve" unicode="&#x16c;" horiz-adv-x="1257" 
d="M692 1516q150 0 191 172h147q-10 -148 -117.5 -246.5t-242.5 -98.5q-146 0 -224 95t-67 250h147q15 -172 166 -172zM184 1253h265q-9 -131 -18.5 -256.5t-14.5 -197t-10 -140t-7.5 -102.5t-4.5 -65t-2.5 -47.5t-0.5 -32.5q0 -122 65.5 -180t170.5 -58q204 0 221 258
l57 821h254l-55 -790q-15 -237 -153 -365.5t-386 -128.5q-200 0 -320 100.5t-120 286.5q0 64 7.5 176.5t51.5 720.5z" />
    <glyph glyph-name="ubreve" unicode="&#x16d;" horiz-adv-x="989" 
d="M565 1208q150 0 191 172h147q-10 -148 -117.5 -246t-242.5 -98q-146 0 -224 95t-67 249h147q15 -172 166 -172zM621 -31l-13 228q-72 -112 -153 -170t-160 -58q-215 0 -215 254q0 97 34.5 390t35.5 300l253 39q-2 -19 -20 -171t-31.5 -284t-13.5 -186q0 -139 82 -139
q26 0 54.5 16.5t60 54t57 113.5t37.5 179l28 380l252 37l-65 -952z" />
    <glyph glyph-name="Uring" unicode="&#x16e;" horiz-adv-x="1257" 
d="M907 1532q-6 -81 -72.5 -140t-150.5 -59q-88 0 -143 54t-49 145q6 83 72.5 142t150.5 59q88 0 143 -53t49 -148zM610 1532q-3 -38 21 -63t61 -25t65 25t31 63q3 40 -21 66t-62 26q-37 0 -64.5 -25.5t-30.5 -66.5zM184 1253h265q-9 -131 -18.5 -256.5t-14.5 -197t-10 -140
t-7.5 -102.5t-4.5 -65t-2.5 -47.5t-0.5 -32.5q0 -122 65.5 -180t170.5 -58q204 0 221 258l57 821h254l-55 -790q-15 -237 -153 -365.5t-386 -128.5q-200 0 -320 100.5t-120 286.5q0 64 7.5 176.5t51.5 720.5z" />
    <glyph glyph-name="uring" unicode="&#x16f;" horiz-adv-x="989" 
d="M768 1225q-6 -81 -72.5 -140t-150.5 -59q-88 0 -143.5 54t-49.5 145q6 82 72.5 141t150.5 59q89 0 144 -52.5t49 -147.5zM471 1225q-3 -38 21 -63t61 -25t65 25t31 63q3 40 -21.5 66t-62.5 26q-37 0 -64 -25.5t-30 -66.5zM621 -31l-13 228q-72 -112 -153 -170t-160 -58
q-215 0 -215 254q0 97 34.5 390t35.5 300l253 39q-2 -19 -20 -171t-31.5 -284t-13.5 -186q0 -139 82 -139q26 0 54.5 16.5t60 54t57 113.5t37.5 179l28 380l252 37l-65 -952z" />
    <glyph glyph-name="Uhungarumlaut" unicode="&#x170;" horiz-adv-x="1257" 
d="M651 1343l264 322l259 -47l-312 -275h-211zM334 1343l264 322l258 -47l-311 -275h-211zM184 1253h265q-9 -131 -18.5 -256.5t-14.5 -197t-10 -140t-7.5 -102.5t-4.5 -65t-2.5 -47.5t-0.5 -32.5q0 -122 65.5 -180t170.5 -58q204 0 221 258l57 821h254l-55 -790
q-15 -237 -153 -365.5t-386 -128.5q-200 0 -320 100.5t-120 286.5q0 64 7.5 176.5t51.5 720.5z" />
    <glyph glyph-name="uhungarumlaut" unicode="&#x171;" horiz-adv-x="989" 
d="M532 1036l265 322l258 -47l-312 -275h-211zM215 1036l264 322l258 -47l-311 -275h-211zM621 -31l-13 228q-72 -112 -153 -170t-160 -58q-215 0 -215 254q0 97 34.5 390t35.5 300l253 39q-2 -19 -20 -171t-31.5 -284t-13.5 -186q0 -139 82 -139q26 0 54.5 16.5t60 54
t57 113.5t37.5 179l28 380l252 37l-65 -952z" />
    <glyph glyph-name="Uogonek" unicode="&#x172;" horiz-adv-x="1257" 
d="M674 -422q-93 0 -145 49t-46 135q9 105 138 209q-18 -2 -56 -2q-200 0 -320 100.5t-120 286.5q0 64 7.5 176.5t51.5 720.5h265q-9 -131 -18.5 -256.5t-14.5 -197t-10 -140t-7.5 -102.5t-4.5 -65t-2.5 -47.5t-0.5 -32.5q0 -122 65.5 -180t170.5 -58q204 0 221 258l57 821
h254l-55 -790q-21 -323 -260 -438q-187 -130 -195 -236q-1 -34 21.5 -55t56.5 -21q46 0 94 25l29 -113q-92 -47 -176 -47z" />
    <glyph glyph-name="uogonek" unicode="&#x173;" horiz-adv-x="989" 
d="M647 -463q-93 0 -144.5 49t-45.5 135q6 64 59 131.5t137 120.5l-32 -4l-13 228q-72 -112 -153 -170t-160 -58q-215 0 -215 254q0 97 34.5 390t35.5 300l253 39q-2 -19 -20 -171t-31.5 -284t-13.5 -186q0 -139 82 -139q26 0 54.5 16.5t60 54t57 113.5t37.5 179l28 380
l252 37l-65 -952h-6q-109 -74 -160.5 -139t-54.5 -113q-1 -34 21.5 -55t55.5 -21q47 0 95 25l28 -113q-92 -47 -176 -47z" />
    <glyph glyph-name="Wcircumflex" unicode="&#x174;" horiz-adv-x="1736" 
d="M1083 1343l-153 146l-174 -146h-189l264 322h218l225 -322h-191zM1073 0l-192 831l-324 -831h-289l-172 1253h275l108 -884l328 884h235l203 -888l238 888h243l-360 -1253h-293z" />
    <glyph glyph-name="wcircumflex" unicode="&#x175;" horiz-adv-x="1349" 
d="M901 1036l-153 146l-175 -146h-188l264 322h217l226 -322h-191zM692 0l-37 338q-95 -221 -223 -340l-264 2l-66 913l248 37l37 -743q77 99 136.5 247.5t86.5 317.5l-16 150h242l55 -725q84 130 143 321t72 404h231q-23 -261 -128 -517.5t-246 -404.5h-271z" />
    <glyph glyph-name="Ycircumflex" unicode="&#x176;" horiz-adv-x="1064" 
d="M764 1343l-154 146l-174 -146h-188l264 322h217l225 -322h-190zM627 0h-265l33 475l-346 778h283l233 -520l285 520h266l-457 -776z" />
    <glyph glyph-name="ycircumflex" unicode="&#x177;" horiz-adv-x="870" 
d="M651 1036l-153 146l-174 -146h-189l264 322h217l226 -322h-191zM-68 -481q-88 0 -149 20l29 215q52 -14 129 -14q215 0 374 240h-116l-119 933l246 37l94 -778q127 293 203 750h235q-6 -69 -20 -152.5t-39 -184.5t-57.5 -203.5t-78.5 -208t-99 -200.5t-122 -178.5
t-145 -144.5t-170 -96t-195 -35z" />
    <glyph glyph-name="Ydieresis" unicode="&#x178;" horiz-adv-x="1064" 
d="M651 1507q1 38 55 92t91 54q38 0 91 -44t50 -83q-1 -38 -56 -91t-89 -53q-39 0 -92 43.5t-50 81.5zM264 1507q2 38 55.5 92t90.5 54q38 0 91 -44t50 -83q-1 -38 -56 -91t-89 -53q-39 0 -92 43.5t-50 81.5zM627 0h-265l33 475l-346 778h283l233 -520l285 520h266
l-457 -776z" />
    <glyph glyph-name="Zacute" unicode="&#x179;" horiz-adv-x="1081" 
d="M387 1343l285 322l258 -47l-332 -275h-211zM944 0h-883l9 166l624 870h-571l41 217h856l-10 -188l-623 -854h598z" />
    <glyph glyph-name="zacute" unicode="&#x17a;" horiz-adv-x="798" 
d="M270 1036l285 322l258 -47l-332 -275h-211zM711 0h-693l9 127l430 612l-373 -14l25 197h671l-8 -129l-432 -609l397 15z" />
    <glyph glyph-name="Zdotaccent" unicode="&#x17b;" horiz-adv-x="1081" 
d="M436 1522q3 43 62 102t100 59t101 -48.5t57 -90.5t-63 -101t-99 -59q-42 0 -101.5 48.5t-56.5 89.5zM944 0h-883l9 166l624 870h-571l41 217h856l-10 -188l-623 -854h598z" />
    <glyph glyph-name="zdotaccent" unicode="&#x17c;" horiz-adv-x="798" 
d="M301 1214q3 43 62 102.5t100 59.5t101 -48.5t57 -90.5t-63 -101t-99 -59q-42 0 -101.5 48t-56.5 89zM711 0h-693l9 127l430 612l-373 -14l25 197h671l-8 -129l-432 -609l397 15z" />
    <glyph glyph-name="Zcaron" unicode="&#x17d;" horiz-adv-x="1081" 
d="M692 1354h-217l-225 321h190l154 -145l174 145h188zM944 0h-883l9 166l624 870h-571l41 217h856l-10 -188l-623 -854h598z" />
    <glyph glyph-name="zcaron" unicode="&#x17e;" horiz-adv-x="798" 
d="M569 1047h-217l-225 321h190l154 -145l174 145h189zM711 0h-693l9 127l430 612l-373 -14l25 197h671l-8 -129l-432 -609l397 15z" />
    <glyph glyph-name="Acaron" unicode="&#x1cd;" horiz-adv-x="1132" 
d="M743 1354h-217l-225 321h191l153 -145l174 145h189zM700 500l-110 512l-195 -512h305zM807 0l-64 299h-424l-114 -299h-256l512 1253h334l278 -1253h-266z" />
    <glyph glyph-name="acaron" unicode="&#x1ce;" horiz-adv-x="978" 
d="M686 1047h-217l-225 321h190l154 -145l174 145h188zM612 -31l-12 197q-68 -94 -147.5 -145.5t-157.5 -51.5q-111 0 -178.5 90t-67.5 277q0 170 65 310.5t182.5 223t262.5 82.5q207 0 332 -69l-62 -883zM412 156q22 0 45.5 12t51 43t50 78.5t40.5 125.5t26 177l12 156
q-58 30 -113 30q-213 0 -213 -424q0 -101 29 -149.5t72 -48.5z" />
    <glyph glyph-name="AEacute" unicode="&#x1fc;" horiz-adv-x="1562" 
d="M760 1343l284 322l259 -47l-332 -275h-211zM727 1051l-281 -539h265l37 539h-21zM674 0l22 311h-356l-162 -311h-250l680 1253h901l-45 -200l-452 6l-21 -316h432l-45 -198l-401 8l-25 -352l514 6l-45 -207h-747z" />
    <glyph glyph-name="aeacute" unicode="&#x1fd;" horiz-adv-x="1343" 
d="M639 1036l285 322l258 -47l-332 -275h-211zM924 -31q-116 0 -195.5 55.5t-112.5 165.5q-66 -98 -148 -158.5t-167 -60.5q-252 0 -252 367q0 117 30.5 218.5t80.5 172.5t115 122.5t134 76t136 24.5q162 0 299 -57q96 57 203 57q123 0 193.5 -65.5t70.5 -163.5
q0 -137 -134 -230.5t-327 -111.5q5 -225 145 -225q98 0 234 108l61 -139q-181 -156 -366 -156zM999 791q-119 0 -145 -277q104 14 164.5 61.5t60.5 120.5q0 42 -21 68.5t-59 26.5zM416 156q48 0 97.5 60.5t82.5 184.5q9 197 92 338q-88 37 -176 37q-89 0 -145 -102.5
t-56 -300.5q0 -217 105 -217z" />
    <glyph glyph-name="Oslashacute" unicode="&#x1fe;" horiz-adv-x="1216" 
d="M401 1343l285 322l258 -47l-332 -275h-211zM322 565q0 -173 61 -272l322 768q-46 18 -101 18q-61 0 -110.5 -27t-89 -85.5t-61 -160.5t-21.5 -241zM606 174q61 0 111 27t91 85t64 160.5t23 241.5q0 165 -61 264l-320 -764q41 -14 92 -14zM541 -31q-49 0 -113 11l-63 -150
h-175l89 209q-110 68 -170 193.5t-60 293.5q0 147 34 271.5t93 213t138.5 151t171 92.5t190.5 30q62 0 117 -12l61 147h174l-86 -207q108 -68 166.5 -192.5t58.5 -292.5q0 -182 -51.5 -329t-139.5 -239t-199.5 -141t-235.5 -49z" />
    <glyph glyph-name="oslashacute" unicode="&#x1ff;" horiz-adv-x="925" 
d="M317 1036l285 322l258 -47l-332 -275h-211zM293 377q0 -59 10 -111l242 504q-30 21 -78 21t-84 -42.5t-54.5 -109.5t-27 -133t-8.5 -129zM459 131q48 0 84 41.5t54.5 107.5t27 132.5t8.5 132.5q0 54 -10 102l-240 -500q32 -16 76 -16zM399 -31q-46 0 -96 13l-61 -127
h-136l87 178q-140 110 -140 348q0 83 18 164t57 154.5t93.5 129.5t133 89.5t171.5 33.5q54 0 101 -12l63 131h135l-88 -182q135 -106 135 -348q0 -83 -18 -164t-56.5 -155t-92.5 -130t-133.5 -89.5t-172.5 -33.5z" />
    <glyph glyph-name="Scommaaccent" unicode="&#x218;" horiz-adv-x="960" 
d="M477 498l-143 71q-223 114 -223 316q0 175 131 287t325 112q196 0 357 -59l-60 -228q-75 31 -172 57.5t-168 26.5q-69 0 -113 -36.5t-44 -96.5q0 -106 139 -176l149 -76q122 -61 175 -139.5t53 -179.5q0 -178 -145.5 -293t-364.5 -115q-195 0 -342 60l57 223
q200 -86 365 -86q69 0 115 39.5t46 107.5q0 59 -31 103t-106 82zM317 -190q1 34 44 70t81 36q39 0 82.5 -49.5t40.5 -85.5q-7 -85 -162 -309l-116 47q10 20 25.5 48t26 47t20.5 39.5t15.5 34t6.5 21.5q0 10 -32.5 45t-31.5 56z" />
    <glyph glyph-name="scommaaccent" unicode="&#x219;" horiz-adv-x="743" 
d="M313 -31q-85 0 -165 19.5t-132 46.5l64 196q142 -81 268 -81q36 0 61 22t25 55q0 27 -20 51.5t-70 59.5l-113 80q-73 52 -106 108t-33 140q0 125 97.5 205.5t246.5 80.5q81 0 157.5 -16.5t115.5 -36.5l-60 -184q-130 67 -239 67q-41 0 -62.5 -21.5t-21.5 -55.5
q0 -24 24 -50t76 -63l102 -72q78 -54 111 -105t33 -132q0 -130 -102 -222t-257 -92zM193 -190q2 34 44 70t80 36q39 0 82.5 -49.5t40.5 -85.5q-7 -87 -161 -309l-117 47q10 20 25.5 48t26 47t20.5 39.5t15.5 34t6.5 21.5q0 10 -32 45t-31 56z" />
    <glyph glyph-name="uni021A" unicode="&#x21a;" horiz-adv-x="1028" 
d="M418 0h-78l72 1047l-363 -7l47 213h957l-47 -213l-330 7l-72 -1047h-74l-53 -106q84 -34 123 -67.5t35 -88.5q-5 -79 -96 -143.5t-263 -75.5l-22 108q101 10 152.5 27.5t54.5 54.5q3 48 -146 86l-4 10z" />
    <glyph glyph-name="uni021B" unicode="&#x21b;" horiz-adv-x="677" 
d="M514 -262q-5 -79 -95.5 -143.5t-262.5 -75.5l-23 108q101 10 152.5 27.5t54.5 54.5q3 48 -145 86l-5 10l93 166q-80 13 -132.5 72t-52.5 158q0 16 0.5 33t3 43.5t5 50.5t8 71.5t10 88.5t14 120t17.5 148h-136l15 145l139 21q8 75 21 192l249 37q-6 -51 -26 -229h272
l-31 -166h-260q-47 -415 -47 -467q0 -50 24.5 -76.5t65.5 -26.5q70 0 160 64l47 -154q-130 -98 -252 -121l-41 -81q84 -34 123 -67.5t35 -88.5z" />
    <glyph glyph-name="circumflex" unicode="&#x2c6;" horiz-adv-x="917" 
d="M621 1036l-154 146l-174 -146h-189l265 322h217l225 -322h-190z" />
    <glyph glyph-name="caron" unicode="&#x2c7;" horiz-adv-x="909" 
d="M543 1047h-217l-226 321h191l153 -145l174 145h189z" />
    <glyph glyph-name="breve" unicode="&#x2d8;" horiz-adv-x="935" 
d="M457 1208q149 0 190 172h148q-10 -148 -118 -246t-243 -98q-146 0 -224 95t-67 249h148q15 -172 166 -172z" />
    <glyph glyph-name="dotaccent" unicode="&#x2d9;" horiz-adv-x="614" 
d="M147 1214q3 43 62 102.5t100 59.5t101 -48.5t57 -90.5t-63 -101t-99 -59q-42 0 -101.5 48t-56.5 89z" />
    <glyph glyph-name="ring" unicode="&#x2da;" horiz-adv-x="741" 
d="M578 1225q-6 -81 -73 -140t-151 -59q-88 0 -143 54t-49 145q6 82 72.5 141t150.5 59q89 0 144 -52.5t49 -147.5zM281 1225q-3 -38 20.5 -63t60.5 -25t65.5 25t31.5 63q3 40 -21.5 66t-62.5 26q-37 0 -64 -25.5t-30 -66.5z" />
    <glyph glyph-name="ogonek" unicode="&#x2db;" horiz-adv-x="659" 
d="M139 -279q6 72 73 148t169 131h141q-110 -74 -162 -139t-55 -113q-1 -34 21.5 -55t56.5 -21q46 0 94 25l29 -113q-92 -47 -176 -47q-93 0 -145 49t-46 135z" />
    <glyph glyph-name="tilde" unicode="&#x2dc;" horiz-adv-x="942" 
d="M745 1325l84 -94q-35 -60 -111 -121t-136 -61q-40 0 -136 33.5t-120 33.5q-34 0 -79.5 -31t-60.5 -49l-73 105q32 40 107 103t130 63q46 0 134 -33t114 -33q63 0 147 84z" />
    <glyph glyph-name="hungarumlaut" unicode="&#x2dd;" horiz-adv-x="995" 
d="M395 1036l264 322l259 -47l-312 -275h-211zM78 1036l264 322l258 -47l-311 -275h-211z" />
    <glyph glyph-name="commaaccent" unicode="&#x326;" horiz-adv-x="516" 
d="M150 -190q2 34 44 70t80 36q39 0 82.5 -49.5t40.5 -85.5q-7 -87 -161 -309l-117 47q10 20 25.5 48t26 47t20.5 39.5t15.5 34t6.5 21.5q0 10 -32 45t-31 56z" />
    <glyph glyph-name="Wgrave" unicode="&#x1e80;" horiz-adv-x="1736" 
d="M1077 1343h-211l-295 275l263 47zM1073 0l-192 831l-324 -831h-289l-172 1253h275l108 -884l328 884h235l203 -888l238 888h243l-360 -1253h-293z" />
    <glyph glyph-name="wgrave" unicode="&#x1e81;" horiz-adv-x="1349" 
d="M897 1036h-211l-295 275l262 47zM692 0l-37 338q-95 -221 -223 -340l-264 2l-66 913l248 37l37 -743q77 99 136.5 247.5t86.5 317.5l-16 150h242l55 -725q84 130 143 321t72 404h231q-23 -261 -128 -517.5t-246 -404.5h-271z" />
    <glyph glyph-name="Wacute" unicode="&#x1e82;" horiz-adv-x="1736" 
d="M770 1343l285 322l258 -47l-332 -275h-211zM1073 0l-192 831l-324 -831h-289l-172 1253h275l108 -884l328 884h235l203 -888l238 888h243l-360 -1253h-293z" />
    <glyph glyph-name="wacute" unicode="&#x1e83;" horiz-adv-x="1349" 
d="M557 1036l285 322l258 -47l-332 -275h-211zM692 0l-37 338q-95 -221 -223 -340l-264 2l-66 913l248 37l37 -743q77 99 136.5 247.5t86.5 317.5l-16 150h242l55 -725q84 130 143 321t72 404h231q-23 -261 -128 -517.5t-246 -404.5h-271z" />
    <glyph glyph-name="Wdieresis" unicode="&#x1e84;" horiz-adv-x="1736" 
d="M983 1507q2 38 55 92t90 54q38 0 91.5 -44t50.5 -83q-1 -38 -56.5 -91t-89.5 -53q-39 0 -91.5 43.5t-49.5 81.5zM596 1507q2 38 55 92t90 54q38 0 91.5 -44t50.5 -83q-1 -38 -56.5 -91t-89.5 -53q-39 0 -91.5 43.5t-49.5 81.5zM1073 0l-192 831l-324 -831h-289l-172 1253
h275l108 -884l328 884h235l203 -888l238 888h243l-360 -1253h-293z" />
    <glyph glyph-name="wdieresis" unicode="&#x1e85;" horiz-adv-x="1349" 
d="M801 1200q2 38 55 92t90 54q38 0 91 -44t50 -83q-1 -38 -56 -91t-89 -53q-39 0 -91.5 43.5t-49.5 81.5zM414 1200q2 38 55 92t90 54q38 0 91 -44t50 -83q-1 -38 -56 -91t-89 -53q-39 0 -91.5 43.5t-49.5 81.5zM692 0l-37 338q-95 -221 -223 -340l-264 2l-66 913l248 37
l37 -743q77 99 136.5 247.5t86.5 317.5l-16 150h242l55 -725q84 130 143 321t72 404h231q-23 -261 -128 -517.5t-246 -404.5h-271z" />
    <glyph glyph-name="Ygrave" unicode="&#x1ef2;" horiz-adv-x="1064" 
d="M801 1343h-211l-295 275l262 47zM627 0h-265l33 475l-346 778h283l233 -520l285 520h266l-457 -776z" />
    <glyph glyph-name="ygrave" unicode="&#x1ef3;" horiz-adv-x="870" 
d="M717 1036h-211l-295 275l262 47zM-68 -481q-88 0 -149 20l29 215q52 -14 129 -14q215 0 374 240h-116l-119 933l246 37l94 -778q127 293 203 750h235q-6 -69 -20 -152.5t-39 -184.5t-57.5 -203.5t-78.5 -208t-99 -200.5t-122 -178.5t-145 -144.5t-170 -96t-195 -35z" />
    <glyph glyph-name="endash" unicode="&#x2013;" horiz-adv-x="935" 
d="M860 584l-4 -43l-55 -125h-725l4 43l65 125h715z" />
    <glyph glyph-name="emdash" unicode="&#x2014;" horiz-adv-x="1368" 
d="M1292 584l-4 -43l-55 -125h-1157l4 43l65 125h1147z" />
    <glyph glyph-name="quoteleft" unicode="&#x2018;" horiz-adv-x="489" 
d="M410 1008q-9 -46 -59.5 -86.5t-94.5 -40.5q-48 0 -97.5 55t-41.5 125q22 115 225 393l131 -51q-48 -78 -70 -115.5t-43.5 -83.5t-25.5 -74q-2 -12 18 -31.5t40 -43.5t18 -47z" />
    <glyph glyph-name="quoteright" unicode="&#x2019;" horiz-adv-x="489" 
d="M158 1292q4 46 51.5 86.5t91.5 40.5q49 0 102.5 -55.5t49.5 -124.5q-11 -111 -197 -393l-135 51q44 81 62.5 116t37.5 81.5t21 74.5q1 12 -20.5 32t-43 44t-20.5 47z" />
    <glyph glyph-name="quotesinglbase" unicode="&#x201a;" horiz-adv-x="489" 
d="M68 133q4 46 51.5 86.5t91.5 40.5q48 0 101.5 -55.5t49.5 -124.5q-11 -113 -196 -393l-135 51q44 81 62.5 116t37.5 81.5t21 74.5q1 12 -20.5 32t-43 44t-20.5 47z" />
    <glyph glyph-name="quotedblleft" unicode="&#x201c;" horiz-adv-x="831" 
d="M778 1008q-4 -46 -51.5 -86.5t-91.5 -40.5q-49 0 -102.5 55.5t-49.5 124.5q11 111 197 393l135 -51q-43 -79 -62 -115.5t-38 -83t-21 -74.5q-1 -12 20.5 -31.5t43 -43.5t20.5 -47zM410 1008q-4 -46 -52 -86.5t-92 -40.5q-48 0 -101.5 55.5t-49.5 124.5q11 113 196 393
l135 -51q-41 -75 -61.5 -114.5t-38.5 -85t-20 -73.5q-1 -12 20.5 -31.5t43 -43.5t20.5 -47z" />
    <glyph glyph-name="quotedblright" unicode="&#x201d;" horiz-adv-x="858" 
d="M526 1292q4 46 52 86.5t92 40.5q48 0 101.5 -55.5t49.5 -124.5q-11 -113 -196 -393l-136 51q44 81 62.5 116t37.5 81.5t21 74.5q1 12 -20.5 32t-43 44t-20.5 47zM158 1292q4 46 51.5 86.5t91.5 40.5q49 0 102.5 -55.5t49.5 -124.5q-11 -111 -197 -393l-135 51
q44 81 62.5 116t37.5 81.5t21 74.5q1 12 -20.5 32t-43 44t-20.5 47z" />
    <glyph glyph-name="quotedblbase" unicode="&#x201e;" horiz-adv-x="862" 
d="M440 133q4 46 52 86.5t92 40.5q48 0 101.5 -55.5t49.5 -124.5q-11 -113 -196 -393l-136 51q44 81 62.5 116t37.5 81.5t21 74.5q1 12 -20.5 32t-43 44t-20.5 47zM68 133q4 46 51.5 86.5t91.5 40.5q48 0 101.5 -55.5t49.5 -124.5q-11 -113 -196 -393l-135 51
q44 81 62.5 116t37.5 81.5t21 74.5q1 12 -20.5 32t-43 44t-20.5 47z" />
    <glyph glyph-name="bullet" unicode="&#x2022;" horiz-adv-x="819" 
d="M150 528q4 47 51.5 111.5t108.5 111t102 46.5t103.5 -36t110 -92t44.5 -104q-6 -72 -103.5 -169t-158.5 -97q-43 0 -105 35.5t-109 91t-44 102.5z" />
    <glyph glyph-name="ellipsis" unicode="&#x2026;" horiz-adv-x="1488" 
d="M47 80q3 43 65 101.5t103 58.5q42 0 104.5 -48t59.5 -90t-66 -99.5t-102 -57.5q-43 0 -105 47.5t-59 87.5zM1047 80q3 43 64.5 101.5t102.5 58.5q42 0 104.5 -48t59.5 -90t-66 -99.5t-102 -57.5q-43 0 -104.5 47.5t-58.5 87.5zM547 80q3 43 65 101.5t103 58.5
q42 0 104.5 -48t59.5 -90t-66 -99.5t-102 -57.5q-43 0 -105 47.5t-59 87.5z" />
    <glyph glyph-name="guilsinglleft" unicode="&#x2039;" horiz-adv-x="679" 
d="M401 37l-340 438l402 438l139 -82l-258 -356l209 -356z" />
    <glyph glyph-name="guilsinglright" unicode="&#x203a;" horiz-adv-x="679" 
d="M279 913l339 -438l-401 -438l-139 80l258 358l-209 354z" />
    <glyph glyph-name="fraction" unicode="&#x2044;" horiz-adv-x="522" 
d="M-166 6l727 1311l127 -72l-727 -1311z" />
    <glyph glyph-name="Euro" unicode="&#x20ac;" 
d="M993 53q-61 -35 -170.5 -59.5t-224.5 -24.5q-425 0 -475 430h-164l49 136l105 28h6q0 7 1 20.5t1 20.5q4 46 6 66h-143l47 135l96 29h31q127 450 577 450q197 0 336 -53l-70 -219q-145 59 -321 59q-105 0 -165.5 -53t-88.5 -184h457l-58 -164h-422q0 -4 -1 -11.5
t-1 -11.5q-1 -14 -2 -41.5t-2 -42.5h402l-58 -164h-325q50 -209 264 -209q79 0 162 18t135 42z" />
    <glyph glyph-name="minus" unicode="&#x2212;" 
d="M909 631l-12 -174h-762l12 174h762z" />
    <glyph glyph-name="idotaccent" horiz-adv-x="475" 
d="M141 1214q0 42 53.5 101t96.5 59q40 0 93.5 -43.5t53.5 -85.5q0 -41 -53.5 -99.5t-95.5 -58.5q-41 0 -94.5 43t-53.5 84zM145 915l250 37l-67 -952h-248z" />
    <glyph glyph-name="caron.alt" horiz-adv-x="567" 
d="M201 1335q3 32 52 59t91 27q33 0 55 -32.5t29.5 -74.5t5.5 -85q-8 -116 -198 -359l-101 56q88 143 94 239q2 41 -13.5 97t-14.5 73z" />
    <glyph glyph-name="caron.alt.sc" horiz-adv-x="567" 
d="M201 1069q3 32 52 59t91 27q33 0 55 -32.5t29.5 -74.5t5.5 -85q-8 -116 -198 -359l-101 55q87 143 94 240q2 41 -13.5 97t-14.5 73z" />
    <glyph glyph-name="caron.alt.case" horiz-adv-x="567" 
d="M201 1171q3 32 52 59t91 27q33 0 55 -32.5t29.5 -74.5t5.5 -85q-8 -114 -198 -358l-101 55q88 143 94 239q2 41 -13.5 97t-14.5 73z" />
    <glyph glyph-name="commaaccent.case" horiz-adv-x="516" 
d="M150 -190q2 34 44 70t80 36q39 0 82.5 -49.5t40.5 -85.5q-7 -87 -161 -309l-117 47q10 20 25.5 48t26 47t20.5 39.5t15.5 34t6.5 21.5q0 10 -32 45t-31 56z" />
    <glyph glyph-name="acute.case" horiz-adv-x="661" 
d="M59 1343l285 322l258 -47l-332 -275h-211z" />
    <glyph glyph-name="grave.case" horiz-adv-x="657" 
d="M582 1343h-211l-295 275l262 47z" />
    <glyph glyph-name="hungarumlaut.case" horiz-adv-x="995" 
d="M395 1343l264 322l259 -47l-312 -275h-211zM78 1343l264 322l258 -47l-311 -275h-211z" />
    <glyph glyph-name="circumflex.case" horiz-adv-x="917" 
d="M621 1343l-154 146l-174 -146h-189l265 322h217l225 -322h-190z" />
    <glyph glyph-name="caron.case" horiz-adv-x="909" 
d="M543 1354h-217l-226 321h191l153 -145l174 145h189z" />
    <glyph glyph-name="breve.case" horiz-adv-x="935" 
d="M457 1516q149 0 190 172h148q-10 -148 -118 -246.5t-243 -98.5q-146 0 -224 95t-67 250h148q15 -172 166 -172z" />
    <glyph glyph-name="tilde.case" horiz-adv-x="942" 
d="M745 1632l84 -94q-35 -60 -111 -121t-136 -61q-40 0 -136 33.5t-120 33.5q-34 0 -79.5 -31t-60.5 -49l-73 105q32 40 107 103t130 63q46 0 134 -33t114 -33q63 0 147 84z" />
    <glyph glyph-name="macron.case" horiz-adv-x="878" 
d="M731 1585l-2 -31l-57 -145h-527l2 31l58 145h526z" />
    <glyph glyph-name="dieresis.case" horiz-adv-x="1001" 
d="M551 1507q2 38 55 92t90 54q38 0 91.5 -44t50.5 -83q-1 -38 -56.5 -91t-89.5 -53q-39 0 -91.5 43.5t-49.5 81.5zM164 1507q2 38 55 92t90 54q38 0 91.5 -44t50.5 -83q-1 -38 -56.5 -91t-89.5 -53q-39 0 -91.5 43.5t-49.5 81.5z" />
    <glyph glyph-name="dotaccent.case" horiz-adv-x="614" 
d="M147 1522q3 43 62 102t100 59t101 -48.5t57 -90.5t-63 -101t-99 -59q-42 0 -101.5 48.5t-56.5 89.5z" />
    <glyph glyph-name="ring.case" horiz-adv-x="741" 
d="M578 1532q-6 -81 -73 -140t-151 -59q-88 0 -143 54t-49 145q6 83 72.5 142t150.5 59q89 0 144 -53t49 -148zM281 1532q-3 -38 20.5 -63t60.5 -25t65.5 25t31.5 63q3 40 -21.5 66t-62.5 26q-37 0 -64 -25.5t-30 -66.5z" />
    <glyph glyph-name="cedilla.case" horiz-adv-x="606" 
d="M170 -195l106 195h113l-53 -106q84 -34 123 -67.5t35 -88.5q-5 -79 -96 -143.5t-263 -75.5l-22 108q100 10 151.5 27.5t54.5 54.5q3 48 -145 86z" />
    <glyph glyph-name="ogonek.case" horiz-adv-x="659" 
d="M139 -279q6 72 73 148t169 131h141q-110 -74 -162 -139t-55 -113q-1 -34 21.5 -55t56.5 -21q46 0 94 25l29 -113q-92 -47 -176 -47q-93 0 -145 49t-46 135z" />
    <glyph glyph-name="zero.fit" 
d="M997 776q1 -167 -26.5 -302.5t-76 -228.5t-116.5 -156t-147.5 -91.5t-171.5 -28.5q-200 0 -305 134.5t-105 369.5q0 179 29.5 319.5t79.5 231.5t120.5 150.5t147 84.5t164.5 25q200 0 304.5 -135.5t102.5 -372.5zM512 152q219 4 219 563q3 385 -194 385q-37 0 -67.5 -14
t-59.5 -53t-49 -101.5t-32 -165t-12 -238.5q0 -373 195 -376z" />
    <glyph glyph-name="one.fit" horiz-adv-x="763" 
d="M578 0h-265l70 1001l-301 -124l-45 221q262 83 463 155h166z" />
    <glyph glyph-name="two.fit" horiz-adv-x="991" 
d="M858 0h-807l15 193q323 282 450 433.5t127 264.5q0 83 -56.5 130.5t-146.5 47.5q-108 0 -268 -80l-47 205q197 90 399 90q181 0 287.5 -90.5t106.5 -247.5q0 -146 -130.5 -326.5t-414.5 -414.5l534 10z" />
    <glyph glyph-name="three.fit" horiz-adv-x="927" 
d="M305 -31q-86 0 -172.5 13t-138.5 32l63 219q159 -51 287 -51q113 0 180.5 45.5t67.5 132.5q0 83 -55.5 134t-167.5 51q-82 0 -144 -8l-28 192q205 0 302 54.5t97 142.5q0 71 -47.5 109t-122.5 38q-59 0 -133 -21.5t-129 -52.5l-47 199q73 37 186.5 61.5t208.5 24.5
q164 0 259 -77t95 -203q0 -103 -69 -190.5t-189 -129.5q125 -28 188.5 -108t63.5 -193q0 -179 -155 -296.5t-400 -117.5z" />
    <glyph glyph-name="four.fit" horiz-adv-x="1110" 
d="M627 422l37 522l-392 -522h355zM999 227h-139l-16 -227h-246l16 227h-602l13 179l649 847h258l-60 -831h185z" />
    <glyph glyph-name="five.fit" horiz-adv-x="999" 
d="M311 -31q-137 0 -286 39l63 213q163 -55 309 -55q109 0 178.5 53.5t69.5 149.5q0 92 -73.5 144t-211.5 52q-114 0 -219 -22l88 710h721l-45 -200h-477l-37 -297q72 14 123 14q174 0 283.5 -89.5t109.5 -244.5q0 -111 -45 -200.5t-125 -147t-188.5 -88.5t-237.5 -31z" />
    <glyph glyph-name="six.fit" horiz-adv-x="999" 
d="M942 453q0 -204 -135.5 -344t-347.5 -140q-198 0 -304 133t-106 381q0 168 33 303.5t90.5 227.5t139.5 153.5t176.5 89t203.5 27.5q65 0 139 -11t119 -26l-51 -219q-144 49 -270 49q-124 0 -199.5 -80.5t-103.5 -277.5q136 84 272 84q168 0 256 -94.5t88 -255.5zM506 152
q81 0 131.5 60.5t50.5 184.5q0 94 -52 153.5t-140 59.5q-91 0 -183 -57q-2 -29 -2 -90q1 -146 53.5 -228.5t141.5 -82.5z" />
    <glyph glyph-name="seven.fit" horiz-adv-x="983" 
d="M401 -37l-264 78l527 987h-609l51 225h865l-15 -192z" />
    <glyph glyph-name="eight.fit" horiz-adv-x="1007" 
d="M449 -31q-199 0 -307.5 83t-108.5 227q0 110 66.5 193.5t191.5 156.5q-83 59 -123.5 127t-40.5 168q0 111 64 194.5t164 124t218 39.5q173 2 273 -70t100 -200q0 -89 -62 -175t-173 -155q87 -51 134.5 -93t73 -98t25.5 -133q0 -164 -145.5 -276.5t-349.5 -112.5zM371 971
q0 -55 38 -97t142 -102q75 48 115.5 96.5t40.5 106.5q0 57 -50.5 93t-128.5 36q-73 0 -115 -38t-42 -95zM506 150q84 0 139 46t55 111q0 59 -52 108.5t-195 121.5q-89 -59 -128.5 -110t-39.5 -112q0 -73 62.5 -119t158.5 -46z" />
    <glyph glyph-name="nine.fit" horiz-adv-x="1009" 
d="M514 639q90 0 182 57q2 29 2 90q-1 147 -53.5 229.5t-140.5 82.5q-83 0 -132.5 -60t-49.5 -182q0 -98 49.5 -157.5t142.5 -59.5zM303 -31q-145 0 -254 37l49 209q103 -39 215 -39q66 0 120 17t103 55.5t85 108.5t55 169q-125 -80 -264 -80q-168 0 -256 97t-88 258
q0 204 135.5 343.5t347.5 139.5q198 0 304 -133t106 -381q0 -167 -37.5 -303.5t-100.5 -227.5t-148.5 -153t-178.5 -89.5t-193 -27.5z" />
    <glyph glyph-name="zero.osf" horiz-adv-x="1052" 
d="M1004 604q0 -152 -44 -275.5t-119 -200.5t-170.5 -118t-201.5 -41q-187 0 -303.5 123t-116.5 340q0 152 44.5 275.5t118.5 200.5t166 118t191 41q197 0 316 -122t119 -341zM528 190q97 0 162.5 89.5t65.5 257.5q0 154 -66 230.5t-172 76.5q-94 0 -159.5 -87.5
t-65.5 -254.5q0 -155 65 -233.5t170 -78.5z" />
    <glyph glyph-name="one.osf" horiz-adv-x="731" 
d="M575 0h-264l56 788l-301 -124l-46 221q262 83 463 155h166z" />
    <glyph glyph-name="two.osf" horiz-adv-x="952" 
d="M850 0h-807l14 193q295 177 415 291t120 202q0 82 -56 125t-147 43q-108 0 -268 -80l-47 205q197 90 399 90q182 0 287.5 -86t105.5 -242q0 -248 -456 -534l489 8z" />
    <glyph glyph-name="three.osf" horiz-adv-x="892" 
d="M270 -248q-86 0 -172.5 13t-138.5 32l64 219q159 -51 286 -51q113 0 180.5 45.5t67.5 132.5q0 83 -55.5 134t-167.5 51q-74 0 -144 -9l-28 193q205 0 302 54.5t97 142.5q0 71 -47.5 109t-122.5 38q-59 0 -133 -21.5t-129 -52.5l-47 199q73 37 186.5 61.5t208.5 24.5
q164 0 259 -77.5t95 -203.5q0 -103 -69 -190t-189 -129q125 -28 188.5 -108t63.5 -193q0 -179 -155 -296.5t-400 -117.5z" />
    <glyph glyph-name="four.osf" horiz-adv-x="1009" 
d="M584 195l39 530l-387 -530h348zM950 0h-133l-16 -227h-246l16 227h-594l13 178l643 862h258l-60 -845h177z" />
    <glyph glyph-name="five.osf" horiz-adv-x="921" 
d="M250 -244q-138 0 -287 39l64 213q163 -55 309 -55q109 0 178.5 53.5t69.5 149.5q0 92 -73.5 144t-211.5 52q-115 0 -219 -22l88 710h721l-45 -200h-477l-37 -297q72 14 123 14q174 0 283.5 -89.5t109.5 -244.5q0 -111 -45 -200.5t-125 -147t-188.5 -88.5t-237.5 -31z" />
    <glyph glyph-name="six.osf" horiz-adv-x="1021" 
d="M963 453q0 -204 -136 -344t-348 -140q-198 0 -303.5 133t-105.5 381q0 168 33 303.5t90.5 227.5t139.5 153.5t176.5 89t203.5 27.5q65 0 139 -11t119 -26l-51 -219q-144 49 -271 49q-124 0 -199.5 -80.5t-103.5 -277.5q136 84 272 84q168 0 256.5 -95t88.5 -255zM526 152
q81 0 132 60.5t51 184.5q0 94 -52.5 153.5t-140.5 59.5q-90 0 -182 -57q-2 -29 -2 -90q1 -147 53.5 -229t140.5 -82z" />
    <glyph glyph-name="seven.osf" horiz-adv-x="927" 
d="M371 -250l-246 78l526 987h-626l51 225h864l-14 -192z" />
    <glyph glyph-name="eight.osf" horiz-adv-x="1001" 
d="M453 -31q-199 0 -307.5 83t-108.5 227q0 110 66.5 193.5t191.5 156.5q-83 59 -123.5 127t-40.5 168q0 111 64 194.5t164.5 124t218.5 39.5q173 2 272.5 -70t99.5 -200q0 -89 -62 -175t-173 -155q87 -51 134.5 -93t73 -98t25.5 -133q0 -164 -145.5 -276.5t-349.5 -112.5z
M375 971q0 -55 38 -97t142 -102q75 48 115.5 96.5t40.5 106.5q0 57 -50.5 93t-128.5 36q-73 0 -115 -38t-42 -95zM510 150q84 0 139.5 46t55.5 111q0 58 -52.5 108t-195.5 122q-89 -59 -128.5 -110t-39.5 -112q0 -73 62.5 -119t158.5 -46z" />
    <glyph glyph-name="nine.osf" horiz-adv-x="1021" 
d="M506 424q90 0 182 57q2 29 2 90q-1 147 -53.5 229.5t-140.5 82.5q-83 0 -133 -60t-50 -182q0 -98 50 -157.5t143 -59.5zM295 -246q-145 0 -254 37l49 209q103 -39 215 -39q66 0 120 17t103 55.5t85 108.5t55 169q-125 -80 -265 -80q-168 0 -256 97t-88 258
q0 204 136 343.5t348 139.5q198 0 303.5 -133t105.5 -381q0 -167 -37.5 -303.5t-100.5 -227.5t-148 -153t-178 -89.5t-193 -27.5z" />
    <glyph glyph-name="zero.tosf" horiz-adv-x="1024" 
d="M989 604q0 -153 -44 -276t-118.5 -200t-170 -118t-201.5 -41q-187 0 -303.5 123t-116.5 340q0 152 44.5 275.5t118.5 200.5t166 118t191 41q197 0 315.5 -122t118.5 -341zM514 190q97 0 162 89.5t65 257.5q0 154 -65.5 230.5t-171.5 76.5q-94 0 -159.5 -87.5
t-65.5 -254.5q0 -155 65 -233.5t170 -78.5z" />
    <glyph glyph-name="one.tosf" horiz-adv-x="1024" 
d="M776 0h-264l55 788l-301 -124l-45 221q262 83 463 155h166z" />
    <glyph glyph-name="two.tosf" horiz-adv-x="1024" 
d="M897 0h-807l14 193q295 177 415 291t120 202q0 82 -56 125t-147 43q-108 0 -268 -80l-47 205q197 90 399 90q182 0 287.5 -86t105.5 -242q0 -248 -456 -534l489 8z" />
    <glyph glyph-name="three.tosf" horiz-adv-x="1024" 
d="M344 -248q-86 0 -172.5 13t-138.5 32l63 219q159 -51 287 -51q113 0 180.5 45.5t67.5 132.5q0 83 -55.5 134t-167.5 51q-74 0 -144 -9l-28 193q205 0 302 54.5t97 142.5q0 71 -47.5 109t-122.5 38q-59 0 -133 -21.5t-129 -52.5l-47 199q73 37 186.5 61.5t208.5 24.5
q164 0 259 -77.5t95 -203.5q0 -103 -69 -190t-189 -129q125 -28 188.5 -108t63.5 -193q0 -179 -155 -296.5t-400 -117.5z" />
    <glyph glyph-name="four.tosf" horiz-adv-x="1024" 
d="M586 195l39 530l-387 -530h348zM952 0h-133l-16 -227h-246l16 227h-593l12 178l643 862h258l-59 -845h176z" />
    <glyph glyph-name="five.tosf" horiz-adv-x="1024" 
d="M303 -244q-138 0 -287 39l64 213q163 -55 309 -55q109 0 178.5 53.5t69.5 149.5q0 92 -73.5 144t-211.5 52q-114 0 -219 -22l88 710h721l-45 -200h-477l-37 -297q72 14 123 14q174 0 283.5 -89.5t109.5 -244.5q0 -111 -45 -200.5t-125 -147t-188.5 -88.5t-237.5 -31z" />
    <glyph glyph-name="six.tosf" horiz-adv-x="1024" 
d="M965 453q0 -204 -136 -344t-348 -140q-198 0 -303.5 133t-105.5 381q0 168 33 303.5t90.5 227.5t139.5 153.5t176.5 89t203.5 27.5q65 0 139 -11t119 -26l-51 -219q-144 49 -271 49q-124 0 -199.5 -80.5t-103.5 -277.5q136 84 273 84q168 0 256 -94.5t88 -255.5zM528 152
q81 0 132 60.5t51 184.5q0 94 -52.5 153.5t-140.5 59.5q-90 0 -182 -57q-2 -29 -2 -90q1 -147 53.5 -229t140.5 -82z" />
    <glyph glyph-name="seven.tosf" horiz-adv-x="1024" 
d="M430 -250l-246 78l527 987h-627l51 225h864l-14 -192z" />
    <glyph glyph-name="eight.tosf" horiz-adv-x="1024" 
d="M463 -31q-199 0 -307.5 83t-108.5 227q0 110 66.5 193.5t191.5 156.5q-83 59 -123.5 127t-40.5 168q0 111 64 194.5t164.5 124t218.5 39.5q173 2 273 -70t100 -200q0 -89 -62.5 -175t-173.5 -155q87 -51 134.5 -93t73 -98t25.5 -133q0 -164 -145.5 -276.5t-349.5 -112.5z
M385 971q0 -55 38 -97t142 -102q75 48 115.5 96.5t40.5 106.5q0 57 -50 93t-128 36q-73 0 -115.5 -38t-42.5 -95zM520 150q84 0 139.5 46t55.5 111q0 58 -52.5 108t-195.5 122q-89 -59 -128.5 -110t-39.5 -112q0 -73 62.5 -119t158.5 -46z" />
    <glyph glyph-name="nine.tosf" horiz-adv-x="1024" 
d="M508 424q90 0 182 57q2 29 2 90q-1 147 -53.5 229.5t-140.5 82.5q-83 0 -133 -60t-50 -182q0 -98 50 -157.5t143 -59.5zM297 -246q-145 0 -254 37l49 209q103 -39 215 -39q66 0 120 17t103 55.5t85 108.5t55 169q-125 -80 -264 -80q-168 0 -256.5 97t-88.5 258
q0 204 136 343.5t348 139.5q198 0 303.5 -133t105.5 -381q0 -167 -37.5 -303.5t-100.5 -227.5t-148 -153t-178 -89.5t-193 -27.5z" />
    <glyph glyph-name="A.sc" horiz-adv-x="993" 
d="M596 424l-84 412l-156 -412h240zM682 0l-47 233h-352l-88 -233h-244l430 1040h338l225 -1040h-262z" />
    <glyph glyph-name="Agrave.sc" horiz-adv-x="993" 
d="M731 1139h-211l-295 274l262 47zM596 424l-84 412l-156 -412h240zM682 0l-47 233h-352l-88 -233h-244l430 1040h338l225 -1040h-262z" />
    <glyph glyph-name="Aacute.sc" horiz-adv-x="993" 
d="M401 1139l285 321l258 -47l-332 -274h-211zM596 424l-84 412l-156 -412h240zM682 0l-47 233h-352l-88 -233h-244l430 1040h338l225 -1040h-262z" />
    <glyph glyph-name="Acircumflex.sc" horiz-adv-x="993" 
d="M723 1139l-154 145l-174 -145h-188l264 321h217l225 -321h-190zM596 424l-84 412l-156 -412h240zM682 0l-47 233h-352l-88 -233h-244l430 1040h338l225 -1040h-262z" />
    <glyph glyph-name="Atilde.sc" horiz-adv-x="993" 
d="M838 1427l84 -94q-35 -60 -111.5 -121t-136.5 -61q-40 0 -136 34t-120 34q-34 0 -79 -31t-60 -49l-74 104q32 40 107 103t130 63q46 0 134 -33t114 -33q64 0 148 84zM596 424l-84 412l-156 -412h240zM682 0l-47 233h-352l-88 -233h-244l430 1040h338l225 -1040h-262z" />
    <glyph glyph-name="Adieresis.sc" horiz-adv-x="993" 
d="M614 1303q1 38 55 91.5t91 53.5q38 0 91 -44t50 -83q-1 -38 -56 -90.5t-89 -52.5q-39 0 -92 43.5t-50 81.5zM227 1303q1 38 55 91.5t91 53.5q38 0 91 -44t50 -83q-1 -38 -56 -90.5t-89 -52.5q-39 0 -92 43.5t-50 81.5zM596 424l-84 412l-156 -412h240zM682 0l-47 233
h-352l-88 -233h-244l430 1040h338l225 -1040h-262z" />
    <glyph glyph-name="Aring.sc" horiz-adv-x="993" 
d="M776 1327q-6 -81 -72.5 -140t-150.5 -59q-88 0 -143.5 54t-49.5 145q6 82 73 141.5t151 59.5q88 0 143 -53t49 -148zM479 1327q-3 -38 21 -63t61 -25t65 25t31 63q3 40 -21.5 66t-62.5 26q-37 0 -64 -25.5t-30 -66.5zM596 424l-84 412l-156 -412h240zM682 0l-47 233h-352
l-88 -233h-244l430 1040h338l225 -1040h-262z" />
    <glyph glyph-name="Amacron.sc" horiz-adv-x="993" 
d="M864 1380l-2 -30l-57 -146h-526l2 31l57 145h526zM596 424l-84 412l-156 -412h240zM682 0l-47 233h-352l-88 -233h-244l430 1040h338l225 -1040h-262z" />
    <glyph glyph-name="Abreve.sc" horiz-adv-x="993" 
d="M573 1311q150 0 191 172h147q-10 -148 -117.5 -246t-242.5 -98q-146 0 -224 95t-67 249h148q15 -172 165 -172zM596 424l-84 412l-156 -412h240zM682 0l-47 233h-352l-88 -233h-244l430 1040h338l225 -1040h-262z" />
    <glyph glyph-name="Aogonek.sc" horiz-adv-x="993" 
d="M596 424l-84 412l-156 -412h240zM799 0h-117l-47 233h-352l-88 -233h-244l430 1040h338l225 -1040h-4q-110 -74 -162 -139t-55 -113q-1 -34 21.5 -55t56.5 -21q46 0 94 25l29 -113q-92 -47 -176 -47q-93 0 -145 49t-46 135q6 72 73 148t169 131z" />
    <glyph glyph-name="Acaron.sc" horiz-adv-x="993" 
d="M672 1149h-217l-226 321h191l153 -145l175 145h188zM596 424l-84 412l-156 -412h240zM682 0l-47 233h-352l-88 -233h-244l430 1040h338l225 -1040h-262z" />
    <glyph glyph-name="B.sc" horiz-adv-x="972" 
d="M483 883h-67l-23 -275h90q74 0 117 35t43 96q0 60 -45.5 102t-114.5 42zM475 455h-94l-23 -295h113q88 0 134 35t46 102q0 70 -47.5 114t-128.5 44zM92 0l78 1040h352q182 0 273.5 -65.5t91.5 -183.5q0 -72 -43 -135.5t-119 -106.5q83 -24 136.5 -79t53.5 -140
q0 -154 -129 -242t-344 -88h-350z" />
    <glyph glyph-name="C.sc" horiz-adv-x="933" 
d="M815 221l35 -182q-65 -29 -153.5 -48.5t-159.5 -19.5q-236 0 -362 121.5t-126 368.5q0 149 44.5 266.5t122 191t178.5 112t218 38.5q81 0 166.5 -13t130.5 -32l-57 -205q-152 49 -266 49q-124 0 -193 -92t-69 -284q0 -158 73.5 -236t194.5 -78q105 0 223 43z" />
    <glyph glyph-name="Ccedilla.sc" horiz-adv-x="933" 
d="M713 -262q-5 -79 -96 -143.5t-263 -75.5l-22 108q101 10 152.5 27.5t54.5 54.5q3 48 -146 86l-4 10l92 168q-210 14 -321 135t-111 353q0 149 44.5 266.5t122 191t178.5 112t218 38.5q81 0 166.5 -13t130.5 -32l-57 -205q-152 49 -266 49q-124 0 -193 -92t-69 -284
q0 -158 73.5 -236t194.5 -78q105 0 223 43l35 -182q-111 -51 -254 -64l-41 -81q84 -34 123 -67.5t35 -88.5z" />
    <glyph glyph-name="Cacute.sc" horiz-adv-x="933" 
d="M422 1139l285 321l258 -47l-332 -274h-211zM815 221l35 -182q-65 -29 -153.5 -48.5t-159.5 -19.5q-236 0 -362 121.5t-126 368.5q0 149 44.5 266.5t122 191t178.5 112t218 38.5q81 0 166.5 -13t130.5 -32l-57 -205q-152 49 -266 49q-124 0 -193 -92t-69 -284
q0 -158 73.5 -236t194.5 -78q105 0 223 43z" />
    <glyph glyph-name="Ccircumflex.sc" horiz-adv-x="933" 
d="M764 1139l-154 145l-174 -145h-188l264 321h217l225 -321h-190zM815 221l35 -182q-65 -29 -153.5 -48.5t-159.5 -19.5q-236 0 -362 121.5t-126 368.5q0 149 44.5 266.5t122 191t178.5 112t218 38.5q81 0 166.5 -13t130.5 -32l-57 -205q-152 49 -266 49q-124 0 -193 -92
t-69 -284q0 -158 73.5 -236t194.5 -78q105 0 223 43z" />
    <glyph glyph-name="Cdotaccent.sc" horiz-adv-x="933" 
d="M444 1317q3 43 62 102.5t100 59.5t101 -49t57 -91t-63 -100.5t-99 -58.5q-42 0 -101.5 48t-56.5 89zM815 221l35 -182q-65 -29 -153.5 -48.5t-159.5 -19.5q-236 0 -362 121.5t-126 368.5q0 149 44.5 266.5t122 191t178.5 112t218 38.5q81 0 166.5 -13t130.5 -32l-57 -205
q-152 49 -266 49q-124 0 -193 -92t-69 -284q0 -158 73.5 -236t194.5 -78q105 0 223 43z" />
    <glyph glyph-name="Ccaron.sc" horiz-adv-x="933" 
d="M707 1149h-218l-225 321h191l153 -145l174 145h189zM815 221l35 -182q-65 -29 -153.5 -48.5t-159.5 -19.5q-236 0 -362 121.5t-126 368.5q0 149 44.5 266.5t122 191t178.5 112t218 38.5q81 0 166.5 -13t130.5 -32l-57 -205q-152 49 -266 49q-124 0 -193 -92t-69 -284
q0 -158 73.5 -236t194.5 -78q105 0 223 43z" />
    <glyph glyph-name="D.sc" horiz-adv-x="1089" 
d="M170 1040h369q230 0 364.5 -113t134.5 -333q0 -139 -47 -253t-128 -187.5t-188 -113.5t-229 -40h-354zM424 862l-51 -684h104q287 0 287 371q0 148 -73.5 230.5t-184.5 82.5h-82z" />
    <glyph glyph-name="Dcaron.sc" horiz-adv-x="1089" 
d="M684 1149h-217l-225 321h190l154 -145l174 145h188zM170 1040h369q230 0 364.5 -113t134.5 -333q0 -139 -47 -253t-128 -187.5t-188 -113.5t-229 -40h-354zM424 862l-51 -684h104q287 0 287 371q0 148 -73.5 230.5t-184.5 82.5h-82z" />
    <glyph glyph-name="E.sc" horiz-adv-x="901" 
d="M92 0l78 1040h682l-45 -184l-385 6l-16 -237h370l-47 -183l-338 9l-18 -267l444 6l-47 -190h-678z" />
    <glyph glyph-name="Egrave.sc" horiz-adv-x="901" 
d="M780 1139h-211l-295 274l263 47zM92 0l78 1040h682l-45 -184l-385 6l-16 -237h370l-47 -183l-338 9l-18 -267l444 6l-47 -190h-678z" />
    <glyph glyph-name="Eacute.sc" horiz-adv-x="901" 
d="M309 1139l285 321l258 -47l-332 -274h-211zM92 0l78 1040h682l-45 -184l-385 6l-16 -237h370l-47 -183l-338 9l-18 -267l444 6l-47 -190h-678z" />
    <glyph glyph-name="Ecircumflex.sc" horiz-adv-x="901" 
d="M688 1139l-153 145l-175 -145h-188l264 321h217l226 -321h-191zM92 0l78 1040h682l-45 -184l-385 6l-16 -237h370l-47 -183l-338 9l-18 -267l444 6l-47 -190h-678z" />
    <glyph glyph-name="Edieresis.sc" horiz-adv-x="901" 
d="M584 1303q2 38 55 91.5t90 53.5q38 0 91 -44t50 -83q-1 -38 -56 -90.5t-89 -52.5q-39 0 -91.5 43.5t-49.5 81.5zM197 1303q1 38 54.5 91.5t90.5 53.5q38 0 91 -44t50 -83q-1 -38 -56 -90.5t-89 -52.5q-39 0 -91.5 43.5t-49.5 81.5zM92 0l78 1040h682l-45 -184l-385 6
l-16 -237h370l-47 -183l-338 9l-18 -267l444 6l-47 -190h-678z" />
    <glyph glyph-name="Emacron.sc" horiz-adv-x="901" 
d="M813 1380l-2 -30l-57 -146h-527l2 31l58 145h526zM92 0l78 1040h682l-45 -184l-385 6l-16 -237h370l-47 -183l-338 9l-18 -267l444 6l-47 -190h-678z" />
    <glyph glyph-name="Ebreve.sc" horiz-adv-x="901" 
d="M520 1311q150 0 191 172h147q-10 -148 -117.5 -246t-242.5 -98q-146 0 -224 95t-67 249h147q15 -172 166 -172zM92 0l78 1040h682l-45 -184l-385 6l-16 -237h370l-47 -183l-338 9l-18 -267l444 6l-47 -190h-678z" />
    <glyph glyph-name="Edotaccent.sc" horiz-adv-x="901" 
d="M373 1317q3 43 62 102.5t100 59.5t100.5 -49t56.5 -91t-63 -100.5t-99 -58.5q-42 0 -101 48t-56 89zM92 0l78 1040h682l-45 -184l-385 6l-16 -237h370l-47 -183l-338 9l-18 -267l444 6l-47 -190h-678z" />
    <glyph glyph-name="Eogonek.sc" horiz-adv-x="901" 
d="M92 0l78 1040h682l-45 -184l-385 6l-16 -237h370l-47 -183l-338 9l-18 -267l444 6l-47 -190h-678zM387 -279q6 72 73 148t169 131h141q-110 -74 -162 -139t-55 -113q-1 -34 21.5 -55t56.5 -21q46 0 94 25l29 -113q-92 -47 -176 -47q-93 0 -145 49t-46 135z" />
    <glyph glyph-name="Ecaron.sc" horiz-adv-x="901" 
d="M637 1149h-217l-225 321h190l154 -145l174 145h188zM94 0l78 1040h682l-45 -184l-385 6l-16 -237h370l-47 -183l-338 9l-18 -267l444 6l-47 -190h-678z" />
    <glyph glyph-name="F.sc" horiz-adv-x="870" 
d="M729 416l-340 8l-31 -424h-266l78 1040h682l-45 -184l-385 6l-19 -268h373z" />
    <glyph glyph-name="G.sc" horiz-adv-x="1013" 
d="M901 45q-60 -28 -160.5 -51t-210.5 -23q-227 0 -354 124t-127 364q0 154 46 273.5t127.5 192t186 109.5t226.5 37q93 0 193 -18.5t149 -42.5l-86 -205q-50 22 -135 41.5t-150 19.5q-135 0 -208.5 -89.5t-73.5 -276.5q0 -92 22 -158.5t60.5 -102.5t83.5 -52.5t100 -16.5
q36 0 76 6l26 361h246z" />
    <glyph glyph-name="Gcircumflex.sc" horiz-adv-x="1013" 
d="M784 1139l-153 145l-174 -145h-189l264 321h218l225 -321h-191zM901 45q-60 -28 -160.5 -51t-210.5 -23q-227 0 -354 124t-127 364q0 154 46 273.5t127.5 192t186 109.5t226.5 37q93 0 193 -18.5t149 -42.5l-86 -205q-50 22 -135 41.5t-150 19.5q-135 0 -208.5 -89.5
t-73.5 -276.5q0 -92 22 -158.5t60.5 -102.5t83.5 -52.5t100 -16.5q36 0 76 6l26 361h246z" />
    <glyph glyph-name="Gbreve.sc" horiz-adv-x="1013" 
d="M629 1311q149 0 190 172h148q-10 -148 -118 -246t-243 -98q-146 0 -224 95t-67 249h148q15 -172 166 -172zM901 45q-60 -28 -160.5 -51t-210.5 -23q-227 0 -354 124t-127 364q0 154 46 273.5t127.5 192t186 109.5t226.5 37q93 0 193 -18.5t149 -42.5l-86 -205
q-50 22 -135 41.5t-150 19.5q-135 0 -208.5 -89.5t-73.5 -276.5q0 -92 22 -158.5t60.5 -102.5t83.5 -52.5t100 -16.5q36 0 76 6l26 361h246z" />
    <glyph glyph-name="Gdotaccent.sc" horiz-adv-x="1013" 
d="M467 1317q3 43 62 102.5t100 59.5t100.5 -49t56.5 -91t-62.5 -100.5t-98.5 -58.5q-42 0 -101.5 48t-56.5 89zM901 45q-60 -28 -160.5 -51t-210.5 -23q-227 0 -354 124t-127 364q0 154 46 273.5t127.5 192t186 109.5t226.5 37q93 0 193 -18.5t149 -42.5l-86 -205
q-50 22 -135 41.5t-150 19.5q-135 0 -208.5 -89.5t-73.5 -276.5q0 -92 22 -158.5t60.5 -102.5t83.5 -52.5t100 -16.5q36 0 76 6l26 361h246z" />
    <glyph glyph-name="Gcommaaccent.sc" horiz-adv-x="1013" 
d="M901 45q-60 -28 -160.5 -51t-210.5 -23q-227 0 -354 124t-127 364q0 154 46 273.5t127.5 192t186 109.5t226.5 37q93 0 193 -18.5t149 -42.5l-86 -205q-50 22 -135 41.5t-150 19.5q-135 0 -208.5 -89.5t-73.5 -276.5q0 -92 22 -158.5t60.5 -102.5t83.5 -52.5t100 -16.5
q36 0 76 6l26 361h246zM395 -190q1 34 44 70t81 36q39 0 82.5 -49.5t40.5 -85.5q-7 -85 -162 -309l-116 47q10 20 25.5 48t26 47t20.5 39.5t15.5 34t6.5 21.5q0 10 -32.5 45t-31.5 56z" />
    <glyph glyph-name="H.sc" horiz-adv-x="1142" 
d="M705 0l32 432h-346l-33 -432h-266l78 1040h266l-30 -397h346l30 397h269l-78 -1040h-268z" />
    <glyph glyph-name="Hcircumflex.sc" horiz-adv-x="1142" 
d="M784 1139l-153 145l-174 -145h-189l264 321h218l225 -321h-191zM705 0l32 432h-346l-33 -432h-266l78 1040h266l-30 -397h346l30 397h269l-78 -1040h-268z" />
    <glyph glyph-name="I.sc" horiz-adv-x="528" 
d="M436 1040l-78 -1040h-266l78 1040h266z" />
    <glyph glyph-name="Igrave.sc" horiz-adv-x="528" 
d="M467 1139h-211l-295 274l262 47zM436 1040l-78 -1040h-266l78 1040h266z" />
    <glyph glyph-name="Iacute.sc" horiz-adv-x="528" 
d="M160 1139l284 321l258 -47l-331 -274h-211zM436 1040l-78 -1040h-266l78 1040h266z" />
    <glyph glyph-name="Icircumflex.sc" horiz-adv-x="528" 
d="M479 1139l-153 145l-174 -145h-189l264 321h217l226 -321h-191zM436 1040l-78 -1040h-266l78 1040h266z" />
    <glyph glyph-name="Idieresis.sc" horiz-adv-x="528" 
d="M373 1303q1 38 54.5 91.5t90.5 53.5q38 0 91 -44t50 -83q-1 -38 -56 -90.5t-89 -52.5q-39 0 -91.5 43.5t-49.5 81.5zM-14 1303q2 38 55 91.5t90 53.5q38 0 91 -44t50 -83q-1 -38 -56 -90.5t-89 -52.5q-39 0 -91.5 43.5t-49.5 81.5zM436 1040l-78 -1040h-266l78 1040h266z
" />
    <glyph glyph-name="Itilde.sc" horiz-adv-x="528" 
d="M600 1427l84 -94q-35 -60 -111.5 -121t-136.5 -61q-40 0 -136 34t-120 34q-34 0 -79 -31t-60 -49l-74 104q10 12 34 36t59 55t75 53t70 22q46 0 134 -33t114 -33q63 0 147 84zM436 1040l-78 -1040h-266l78 1040h266z" />
    <glyph glyph-name="Imacron.sc" horiz-adv-x="528" 
d="M629 1380l-2 -30l-58 -146h-526l2 31l57 145h527zM436 1040l-78 -1040h-266l78 1040h266z" />
    <glyph glyph-name="Ibreve.sc" horiz-adv-x="528" 
d="M336 1311q149 0 190 172h148q-10 -148 -118 -246t-243 -98q-146 0 -223.5 94.5t-66.5 249.5h147q15 -172 166 -172zM436 1040l-78 -1040h-266l78 1040h266z" />
    <glyph glyph-name="Iogonek.sc" horiz-adv-x="528" 
d="M215 0h-123l78 1040h266l-78 -1040h-2q-110 -74 -162 -139t-55 -113q-1 -34 21.5 -55t56.5 -21q46 0 94 25l29 -113q-92 -47 -176 -47q-93 0 -145 49t-46 135q6 72 73 148t169 131z" />
    <glyph glyph-name="Idotaccent.sc" horiz-adv-x="528" 
d="M166 1317q3 43 62 102.5t100 59.5t100.5 -49t56.5 -91t-62.5 -100.5t-98.5 -58.5q-42 0 -101.5 48t-56.5 89zM436 1040l-78 -1040h-266l78 1040h266z" />
    <glyph glyph-name="J.sc" horiz-adv-x="698" 
d="M606 1040l-55 -741q-10 -151 -114 -239.5t-265 -88.5q-110 0 -186 37l53 213q68 -31 137 -31q44 0 73.5 28t33.5 89l55 733h268z" />
    <glyph glyph-name="Jcircumflex.sc" horiz-adv-x="688" 
d="M641 1139l-154 145l-174 -145h-188l264 321h217l225 -321h-190zM606 1040l-55 -741q-10 -151 -114 -239.5t-265 -88.5q-110 0 -186 37l53 213q68 -31 137 -31q44 0 73.5 28t33.5 89l55 733h268z" />
    <glyph glyph-name="K.sc" horiz-adv-x="1058" 
d="M694 0q-293 551 -293 553l383 487h293l-405 -473l334 -567h-312zM434 1040l-78 -1040h-264l78 1040h264z" />
    <glyph glyph-name="Kcommaaccent.sc" horiz-adv-x="1058" 
d="M694 0q-293 551 -293 553l383 487h293l-405 -473l334 -567h-312zM434 1040l-78 -1040h-264l78 1040h264zM377 -190q1 34 44 70t81 36q39 0 82.5 -49.5t40.5 -85.5q-7 -85 -162 -309l-117 47q10 20 25.5 48t26 47t20.5 39.5t15.5 34t6.5 21.5q0 10 -32 45t-31 56z" />
    <glyph glyph-name="L.sc" horiz-adv-x="856" 
d="M92 0l78 1040h266l-63 -839l446 6l-41 -207h-686z" />
    <glyph glyph-name="Lacute.sc" horiz-adv-x="856" 
d="M170 1139l285 321l258 -47l-332 -274h-211zM92 0l78 1040h266l-63 -839l446 6l-41 -207h-686z" />
    <glyph glyph-name="Lcommaaccent.sc" horiz-adv-x="856" 
d="M92 0l78 1040h266l-63 -839l446 6l-41 -207h-686zM293 -190q1 34 44 70t81 36q39 0 82.5 -49.5t40.5 -85.5q-7 -85 -162 -309l-117 47q10 20 25.5 48t26 47t20.5 39.5t15.5 34t6.5 21.5q0 10 -32 45t-31 56z" />
    <glyph glyph-name="Lcaron.sc" horiz-adv-x="856" 
d="M596 987q3 32 52 59t91 27q33 0 55 -32.5t29.5 -74.5t5.5 -85q-8 -116 -198 -359l-101 56q89 145 95 239q2 41 -14 97t-15 73zM92 0l78 1040h266l-63 -839l446 6l-41 -207h-686z" />
    <glyph glyph-name="M.sc" horiz-adv-x="1466" 
d="M571 0l-178 698l-100 -698h-248l172 1040h330l180 -673l262 673h338l19 -1040h-259l-8 700l-270 -700h-238z" />
    <glyph glyph-name="N.sc" horiz-adv-x="1171" 
d="M770 0l-385 637l-47 -637h-246l78 1040h246l377 -643l41 643h245l-75 -1040h-234z" />
    <glyph glyph-name="Ntilde.sc" horiz-adv-x="1171" 
d="M938 1427l84 -94q-35 -60 -111.5 -121t-136.5 -61q-40 0 -136 34t-120 34q-34 0 -79 -31t-60 -49l-74 104q10 12 34 36t59 55t75 53t70 22q46 0 134 -33t114 -33q63 0 147 84zM770 0l-385 637l-47 -637h-246l78 1040h246l377 -643l41 643h245l-75 -1040h-234z" />
    <glyph glyph-name="Nacute.sc" horiz-adv-x="1171" 
d="M440 1139l285 321l258 -47l-332 -274h-211zM770 0l-385 637l-47 -637h-246l78 1040h246l377 -643l41 643h245l-75 -1040h-234z" />
    <glyph glyph-name="Ncommaaccent.sc" horiz-adv-x="1171" 
d="M770 0l-385 637l-47 -637h-246l78 1040h246l377 -643l41 643h245l-75 -1040h-234zM422 -190q1 34 44 70t81 36q39 0 82.5 -49.5t40.5 -85.5q-7 -85 -162 -309l-117 47q10 20 25.5 48t26 47t20.5 39.5t15.5 34t6.5 21.5q0 10 -32 45t-31 56z" />
    <glyph glyph-name="Ncaron.sc" horiz-adv-x="1171" 
d="M754 1149h-217l-226 321h191l153 -145l174 145h189zM770 0l-385 637l-47 -637h-246l78 1040h246l377 -643l41 643h245l-75 -1040h-234z" />
    <glyph glyph-name="O.sc" horiz-adv-x="1073" 
d="M1024 594q0 -97 -20 -186.5t-63 -169.5t-105 -139t-151 -93.5t-196 -34.5q-216 0 -328 128.5t-112 346.5q0 172 60.5 311.5t184.5 225.5t292 86q215 0 326.5 -128.5t111.5 -346.5zM551 164q93 0 146 99t53 292q0 165 -61 243.5t-163 78.5q-202 0 -202 -392
q0 -321 227 -321z" />
    <glyph glyph-name="Ograve.sc" horiz-adv-x="1073" 
d="M829 1139h-211l-294 274l262 47zM1024 594q0 -97 -20 -186.5t-63 -169.5t-105 -139t-151 -93.5t-196 -34.5q-216 0 -328 128.5t-112 346.5q0 172 60.5 311.5t184.5 225.5t292 86q215 0 326.5 -128.5t111.5 -346.5zM551 164q93 0 146 99t53 292q0 165 -61 243.5t-163 78.5
q-202 0 -202 -392q0 -321 227 -321z" />
    <glyph glyph-name="Oacute.sc" horiz-adv-x="1073" 
d="M420 1139l285 321l258 -47l-332 -274h-211zM1024 594q0 -97 -20 -186.5t-63 -169.5t-105 -139t-151 -93.5t-196 -34.5q-216 0 -328 128.5t-112 346.5q0 172 60.5 311.5t184.5 225.5t292 86q215 0 326.5 -128.5t111.5 -346.5zM551 164q93 0 146 99t53 292q0 165 -61 243.5
t-163 78.5q-202 0 -202 -392q0 -321 227 -321z" />
    <glyph glyph-name="Ocircumflex.sc" horiz-adv-x="1073" 
d="M764 1139l-154 145l-174 -145h-188l264 321h217l225 -321h-190zM1024 594q0 -97 -20 -186.5t-63 -169.5t-105 -139t-151 -93.5t-196 -34.5q-216 0 -328 128.5t-112 346.5q0 172 60.5 311.5t184.5 225.5t292 86q215 0 326.5 -128.5t111.5 -346.5zM551 164q93 0 146 99
t53 292q0 165 -61 243.5t-163 78.5q-202 0 -202 -392q0 -321 227 -321z" />
    <glyph glyph-name="Otilde.sc" horiz-adv-x="1073" 
d="M856 1427l84 -94q-35 -60 -111.5 -121t-136.5 -61q-40 0 -136 34t-120 34q-34 0 -79 -31t-60 -49l-74 104q10 12 34 36t59 55t75 53t70 22q46 0 134 -33t114 -33q63 0 147 84zM1024 594q0 -97 -20 -186.5t-63 -169.5t-105 -139t-151 -93.5t-196 -34.5q-216 0 -328 128.5
t-112 346.5q0 172 60.5 311.5t184.5 225.5t292 86q215 0 326.5 -128.5t111.5 -346.5zM551 164q93 0 146 99t53 292q0 165 -61 243.5t-163 78.5q-202 0 -202 -392q0 -321 227 -321z" />
    <glyph glyph-name="Odieresis.sc" horiz-adv-x="1073" 
d="M653 1303q1 38 55 91.5t91 53.5q38 0 91 -44t50 -83q-1 -38 -56 -90.5t-89 -52.5q-39 0 -92 43.5t-50 81.5zM266 1303q1 38 55 91.5t91 53.5q38 0 91 -44t50 -83q-1 -38 -56 -90.5t-89 -52.5q-39 0 -92 43.5t-50 81.5zM1024 594q0 -97 -20 -186.5t-63 -169.5t-105 -139
t-151 -93.5t-196 -34.5q-216 0 -328 128.5t-112 346.5q0 172 60.5 311.5t184.5 225.5t292 86q215 0 326.5 -128.5t111.5 -346.5zM551 164q93 0 146 99t53 292q0 165 -61 243.5t-163 78.5q-202 0 -202 -392q0 -321 227 -321z" />
    <glyph glyph-name="Omacron.sc" horiz-adv-x="1073" 
d="M883 1380l-2 -30l-58 -146h-526l2 31l57 145h527zM1024 594q0 -97 -20 -186.5t-63 -169.5t-105 -139t-151 -93.5t-196 -34.5q-216 0 -328 128.5t-112 346.5q0 172 60.5 311.5t184.5 225.5t292 86q215 0 326.5 -128.5t111.5 -346.5zM551 164q93 0 146 99t53 292
q0 165 -61 243.5t-163 78.5q-202 0 -202 -392q0 -321 227 -321z" />
    <glyph glyph-name="Obreve.sc" horiz-adv-x="1073" 
d="M588 1311q149 0 190 172h148q-10 -148 -118 -246t-243 -98q-146 0 -224 95t-67 249h148q15 -172 166 -172zM1024 594q0 -97 -20 -186.5t-63 -169.5t-105 -139t-151 -93.5t-196 -34.5q-216 0 -328 128.5t-112 346.5q0 172 60.5 311.5t184.5 225.5t292 86
q215 0 326.5 -128.5t111.5 -346.5zM551 164q93 0 146 99t53 292q0 165 -61 243.5t-163 78.5q-202 0 -202 -392q0 -321 227 -321z" />
    <glyph glyph-name="Ohungarumlaut.sc" horiz-adv-x="1073" 
d="M592 1139l264 321l258 -47l-311 -274h-211zM274 1139l265 321l258 -47l-312 -274h-211zM1024 594q0 -97 -20 -186.5t-63 -169.5t-105 -139t-151 -93.5t-196 -34.5q-216 0 -328 128.5t-112 346.5q0 172 60.5 311.5t184.5 225.5t292 86q215 0 326.5 -128.5t111.5 -346.5z
M551 164q93 0 146 99t53 292q0 165 -61 243.5t-163 78.5q-202 0 -202 -392q0 -321 227 -321z" />
    <glyph glyph-name="P.sc" horiz-adv-x="956" 
d="M485 862h-63l-25 -330h101q72 0 119 38t47 118t-47.5 127t-131.5 47zM463 356h-78l-27 -356h-266l78 1040h350q201 0 306.5 -79t105.5 -230q0 -162 -132 -268.5t-337 -106.5z" />
    <glyph glyph-name="Q.sc" horiz-adv-x="1073" 
d="M739 -342q-69 0 -153.5 26t-155 52t-104.5 26q-64 0 -119 -47l-64 160q139 41 256 102q-173 27 -261.5 151.5t-88.5 317.5q0 172 60.5 311.5t184.5 225.5t292 86q215 0 326.5 -128.5t111.5 -346.5q0 -162 -57 -301.5t-168 -224.5h2q-166 -120 -338 -187q226 -33 307 -33
q99 0 186 46v-175q-91 -61 -217 -61zM551 164q93 0 146 99t53 292q0 165 -61 243.5t-163 78.5q-202 0 -202 -392q0 -321 227 -321z" />
    <glyph glyph-name="R.sc" horiz-adv-x="1017" 
d="M487 862h-65l-21 -293h86q170 0 170 140q0 70 -47 111.5t-123 41.5zM438 393h-51l-29 -393h-266l78 1040h381q189 0 285 -79.5t96 -210.5q0 -89 -52 -166.5t-147 -126.5l236 -457h-289l-180 395q-20 -2 -62 -2z" />
    <glyph glyph-name="Racute.sc" horiz-adv-x="1017" 
d="M360 1139l285 321l258 -47l-332 -274h-211zM487 862h-65l-21 -293h86q170 0 170 140q0 70 -47 111.5t-123 41.5zM438 393h-51l-29 -393h-266l78 1040h381q189 0 285 -79.5t96 -210.5q0 -89 -52 -166.5t-147 -126.5l236 -457h-289l-180 395q-20 -2 -62 -2z" />
    <glyph glyph-name="Rcommaaccent.sc" horiz-adv-x="1017" 
d="M487 862h-65l-21 -293h86q170 0 170 140q0 70 -47 111.5t-123 41.5zM438 393h-51l-29 -393h-266l78 1040h381q189 0 285 -79.5t96 -210.5q0 -89 -52 -166.5t-147 -126.5l236 -457h-289l-180 395q-20 -2 -62 -2zM354 -190q1 34 44 70t81 36q39 0 82.5 -49.5t40.5 -85.5
q-7 -85 -162 -309l-116 47q10 20 25.5 48t26 47t20.5 39.5t15.5 34t6.5 21.5q0 10 -32.5 45t-31.5 56z" />
    <glyph glyph-name="Rcaron.sc" horiz-adv-x="1017" 
d="M666 1149h-217l-226 321h191l153 -145l174 145h189zM487 862h-65l-21 -293h86q170 0 170 140q0 70 -47 111.5t-123 41.5zM438 393h-51l-29 -393h-266l78 1040h381q189 0 285 -79.5t96 -210.5q0 -89 -52 -166.5t-147 -126.5l236 -457h-289l-180 395q-20 -2 -62 -2z" />
    <glyph glyph-name="S.sc" horiz-adv-x="870" 
d="M428 401l-127 60q-103 48 -154 116t-51 166q0 146 118 236t298 90q182 0 322 -45l-60 -211q-192 66 -305 66q-53 0 -86 -29t-31 -68q-1 -38 29 -72t80 -57l141 -65q102 -47 150.5 -110.5t48.5 -160.5q0 -149 -126.5 -247.5t-330.5 -98.5q-171 0 -313 45l51 217
q76 -31 163 -50.5t152 -18.5q61 -1 98 28.5t37 77.5q0 82 -104 131z" />
    <glyph glyph-name="Sacute.sc" horiz-adv-x="870" 
d="M315 1139l285 321l258 -47l-332 -274h-211zM428 401l-127 60q-103 48 -154 116t-51 166q0 146 118 236t298 90q182 0 322 -45l-60 -211q-192 66 -305 66q-53 0 -86 -29t-31 -68q-1 -38 29 -72t80 -57l141 -65q102 -47 150.5 -110.5t48.5 -160.5q0 -149 -126.5 -247.5
t-330.5 -98.5q-171 0 -313 45l51 217q76 -31 163 -50.5t152 -18.5q61 -1 98 28.5t37 77.5q0 82 -104 131z" />
    <glyph glyph-name="Scircumflex.sc" horiz-adv-x="870" 
d="M678 1139l-154 145l-174 -145h-188l264 321h217l225 -321h-190zM428 401l-127 60q-103 48 -154 116t-51 166q0 146 118 236t298 90q182 0 322 -45l-60 -211q-192 66 -305 66q-53 0 -86 -29t-31 -68q-1 -38 29 -72t80 -57l141 -65q102 -47 150.5 -110.5t48.5 -160.5
q0 -149 -126.5 -247.5t-330.5 -98.5q-171 0 -313 45l51 217q76 -31 163 -50.5t152 -18.5q61 -1 98 28.5t37 77.5q0 82 -104 131z" />
    <glyph glyph-name="Scedilla.sc" horiz-adv-x="870" 
d="M207 -481l-23 108q101 10 152.5 27.5t54.5 54.5q3 48 -145 86l-4 10l90 166q-172 3 -301 45l51 217q76 -31 163 -50.5t152 -18.5q61 -1 98 28.5t37 77.5q0 82 -104 131l-127 60q-103 48 -154 116t-51 166q0 146 118 236t298 90q182 0 322 -45l-60 -211q-192 66 -305 66
q-53 0 -86 -29t-31 -68q-1 -38 29 -72t80 -57l141 -65q102 -47 150.5 -110.5t48.5 -160.5q0 -127 -95 -219.5t-255 -117.5l-43 -86q83 -34 122 -67.5t35 -88.5q-5 -79 -95.5 -143.5t-262.5 -75.5z" />
    <glyph glyph-name="Scaron.sc" horiz-adv-x="870" 
d="M641 1149h-217l-225 321h190l154 -145l174 145h188zM428 401l-127 60q-103 48 -154 116t-51 166q0 146 118 236t298 90q182 0 322 -45l-60 -211q-192 66 -305 66q-53 0 -86 -29t-31 -68q-1 -38 29 -72t80 -57l141 -65q102 -47 150.5 -110.5t48.5 -160.5
q0 -149 -126.5 -247.5t-330.5 -98.5q-171 0 -313 45l51 217q76 -31 163 -50.5t152 -18.5q61 -1 98 28.5t37 77.5q0 82 -104 131z" />
    <glyph glyph-name="Scommaaccent.sc" horiz-adv-x="870" 
d="M428 401l-127 60q-103 48 -154 116t-51 166q0 146 118 236t298 90q182 0 322 -45l-60 -211q-192 66 -305 66q-53 0 -86 -29t-31 -68q-1 -38 29 -72t80 -57l141 -65q102 -47 150.5 -110.5t48.5 -160.5q0 -149 -126.5 -247.5t-330.5 -98.5q-171 0 -313 45l51 217
q76 -31 163 -50.5t152 -18.5q61 -1 98 28.5t37 77.5q0 82 -104 131zM256 -190q1 34 44 70t81 36q39 0 82.5 -49.5t40.5 -85.5q-7 -85 -162 -309l-117 47q10 20 25.5 48t26 47t20.5 39.5t15.5 34t6.5 21.5q0 10 -32 45t-31 56z" />
    <glyph glyph-name="T.sc" horiz-adv-x="917" 
d="M907 834l-289 4l-61 -838h-266l61 838l-321 -4l45 206h876z" />
    <glyph glyph-name="Tcommaaccent.sc" horiz-adv-x="917" 
d="M907 834l-289 4l-61 -838h-266l61 838l-321 -4l45 206h876zM287 -190q1 34 44 70t81 36q39 0 82.5 -49.5t40.5 -85.5q-7 -85 -162 -309l-117 47q10 20 25.5 48t26 47t20.5 39.5t15.5 34t6.5 21.5q0 10 -32 45t-31 56z" />
    <glyph glyph-name="Tcaron.sc" horiz-adv-x="917" 
d="M625 1149h-217l-226 321h191l153 -145l174 145h189zM907 834l-289 4l-61 -838h-266l61 838l-321 -4l45 206h876z" />
    <glyph glyph-name="U.sc" horiz-adv-x="1126" 
d="M164 1040h266q-47 -659 -47 -678q0 -86 48.5 -132t133.5 -46q69 0 111.5 40.5t48.5 123.5l51 692h258l-49 -655q-14 -196 -139.5 -305t-339.5 -109q-180 0 -287.5 85t-107.5 239q0 20 1 40t2.5 45t5.5 81.5t9 120t15 191.5t20 267z" />
    <glyph glyph-name="Ugrave.sc" horiz-adv-x="1126" 
d="M862 1139h-211l-295 274l262 47zM164 1040h266q-47 -659 -47 -678q0 -86 48.5 -132t133.5 -46q69 0 111.5 40.5t48.5 123.5l51 692h258l-49 -655q-14 -196 -139.5 -305t-339.5 -109q-180 0 -287.5 85t-107.5 239q0 20 1 40t2.5 45t5.5 81.5t9 120t15 191.5t20 267z" />
    <glyph glyph-name="Uacute.sc" horiz-adv-x="1126" 
d="M412 1139l284 321l258 -47l-331 -274h-211zM164 1040h266q-47 -659 -47 -678q0 -86 48.5 -132t133.5 -46q69 0 111.5 40.5t48.5 123.5l51 692h258l-49 -655q-14 -196 -139.5 -305t-339.5 -109q-180 0 -287.5 85t-107.5 239q0 20 1 40t2.5 45t5.5 81.5t9 120t15 191.5
t20 267z" />
    <glyph glyph-name="Ucircumflex.sc" horiz-adv-x="1126" 
d="M776 1139l-153 145l-174 -145h-189l264 321h217l226 -321h-191zM164 1040h266q-47 -659 -47 -678q0 -86 48.5 -132t133.5 -46q69 0 111.5 40.5t48.5 123.5l51 692h258l-49 -655q-14 -196 -139.5 -305t-339.5 -109q-180 0 -287.5 85t-107.5 239q0 20 1 40t2.5 45t5.5 81.5
t9 120t15 191.5t20 267z" />
    <glyph glyph-name="Udieresis.sc" horiz-adv-x="1126" 
d="M682 1303q2 38 55 91.5t90 53.5q38 0 91.5 -44t50.5 -83q-1 -37 -56 -90t-90 -53q-39 0 -91.5 43.5t-49.5 81.5zM295 1303q1 38 54.5 91.5t90.5 53.5q38 0 91.5 -44t50.5 -83q-1 -37 -56 -90t-90 -53q-39 0 -91.5 43.5t-49.5 81.5zM164 1040h266q-47 -659 -47 -678
q0 -86 48.5 -132t133.5 -46q69 0 111.5 40.5t48.5 123.5l51 692h258l-49 -655q-14 -196 -139.5 -305t-339.5 -109q-180 0 -287.5 85t-107.5 239q0 20 1 40t2.5 45t5.5 81.5t9 120t15 191.5t20 267z" />
    <glyph glyph-name="Utilde.sc" horiz-adv-x="1126" 
d="M899 1427l84 -94q-35 -60 -111.5 -121t-136.5 -61q-40 0 -136 34t-120 34q-34 0 -79 -31t-60 -49l-74 104q10 12 34 36t59 55t75 53t70 22q46 0 134 -33t114 -33q63 0 147 84zM164 1040h266q-47 -659 -47 -678q0 -86 48.5 -132t133.5 -46q69 0 111.5 40.5t48.5 123.5
l51 692h258l-49 -655q-14 -196 -139.5 -305t-339.5 -109q-180 0 -287.5 85t-107.5 239q0 20 1 40t2.5 45t5.5 81.5t9 120t15 191.5t20 267z" />
    <glyph glyph-name="Umacron.sc" horiz-adv-x="1126" 
d="M915 1380l-2 -30l-57 -146h-526l2 31l57 145h526zM164 1040h266q-47 -659 -47 -678q0 -86 48.5 -132t133.5 -46q69 0 111.5 40.5t48.5 123.5l51 692h258l-49 -655q-14 -196 -139.5 -305t-339.5 -109q-180 0 -287.5 85t-107.5 239q0 20 1 40t2.5 45t5.5 81.5t9 120
t15 191.5t20 267z" />
    <glyph glyph-name="Ubreve.sc" horiz-adv-x="1126" 
d="M639 1311q149 0 190 172h148q-10 -148 -118 -246t-243 -98q-146 0 -223.5 94.5t-66.5 249.5h147q15 -172 166 -172zM164 1040h266q-47 -659 -47 -678q0 -86 48.5 -132t133.5 -46q69 0 111.5 40.5t48.5 123.5l51 692h258l-49 -655q-14 -196 -139.5 -305t-339.5 -109
q-180 0 -287.5 85t-107.5 239q0 20 1 40t2.5 45t5.5 81.5t9 120t15 191.5t20 267z" />
    <glyph glyph-name="Uring.sc" horiz-adv-x="1126" 
d="M836 1327q-6 -81 -73 -140t-151 -59q-88 0 -143 54t-49 145q6 83 72.5 142t150.5 59q89 0 144 -53t49 -148zM539 1327q-3 -38 21 -63t61 -25t65 25t31 63q3 40 -21.5 66t-62.5 26q-37 0 -64 -25.5t-30 -66.5zM164 1040h266q-47 -659 -47 -678q0 -86 48.5 -132t133.5 -46
q69 0 111.5 40.5t48.5 123.5l51 692h258l-49 -655q-14 -196 -139.5 -305t-339.5 -109q-180 0 -287.5 85t-107.5 239q0 20 1 40t2.5 45t5.5 81.5t9 120t15 191.5t20 267z" />
    <glyph glyph-name="Uhungarumlaut.sc" horiz-adv-x="1126" 
d="M604 1139l264 321l258 -47l-311 -274h-211zM287 1139l264 321l258 -47l-311 -274h-211zM164 1040h266q-47 -659 -47 -678q0 -86 48.5 -132t133.5 -46q69 0 111.5 40.5t48.5 123.5l51 692h258l-49 -655q-14 -196 -139.5 -305t-339.5 -109q-180 0 -287.5 85t-107.5 239
q0 20 1 40t2.5 45t5.5 81.5t9 120t15 191.5t20 267z" />
    <glyph glyph-name="Uogonek.sc" horiz-adv-x="1126" 
d="M602 -422q-93 0 -144.5 49t-45.5 135q4 52 41 107.5t98 103.5q-16 -2 -45 -2q-180 0 -287.5 85t-107.5 239q0 20 1 40t2.5 45t5.5 81.5t9 120t15 191.5t20 267h266q-47 -659 -47 -678q0 -86 48.5 -132t133.5 -46q69 0 111.5 40.5t48.5 123.5l51 692h258l-49 -655
q-15 -235 -194 -344h4q-110 -74 -162 -139t-55 -113q-1 -34 21.5 -55t55.5 -21q47 0 95 25l28 -113q-92 -47 -176 -47z" />
    <glyph glyph-name="V.sc" horiz-adv-x="1042" 
d="M625 0h-316l-266 1040h276l181 -766l309 766h266z" />
    <glyph glyph-name="W.sc" horiz-adv-x="1583" 
d="M952 0l-153 702l-267 -702h-301l-157 1040h274l94 -731l265 731h276l156 -729l200 729h244l-311 -1040h-320z" />
    <glyph glyph-name="Wcircumflex.sc" horiz-adv-x="1583" 
d="M1014 1139l-154 145l-174 -145h-188l264 321h217l225 -321h-190zM952 0l-153 702l-267 -702h-301l-157 1040h274l94 -731l265 731h276l156 -729l200 729h244l-311 -1040h-320z" />
    <glyph glyph-name="Wgrave.sc" horiz-adv-x="1583" 
d="M1036 1139h-211l-295 274l263 47zM952 0l-153 702l-267 -702h-301l-157 1040h274l94 -731l265 731h276l156 -729l200 729h244l-311 -1040h-320z" />
    <glyph glyph-name="Wacute.sc" horiz-adv-x="1583" 
d="M709 1139l284 321l258 -47l-331 -274h-211zM952 0l-153 702l-267 -702h-301l-157 1040h274l94 -731l265 731h276l156 -729l200 729h244l-311 -1040h-320z" />
    <glyph glyph-name="Wdieresis.sc" horiz-adv-x="1583" 
d="M922 1303q2 38 55 91.5t90 53.5q38 0 91 -44t50 -83q-1 -38 -56 -90.5t-89 -52.5q-39 0 -91.5 43.5t-49.5 81.5zM535 1303q1 38 54.5 91.5t90.5 53.5q38 0 91 -44t50 -83q-1 -38 -56 -90.5t-89 -52.5q-39 0 -91.5 43.5t-49.5 81.5zM952 0l-153 702l-267 -702h-301
l-157 1040h274l94 -731l265 731h276l156 -729l200 729h244l-311 -1040h-320z" />
    <glyph glyph-name="X.sc" horiz-adv-x="991" 
d="M651 0l-182 326l-213 -326h-287l377 545l-276 495h286l162 -288l191 288h288l-358 -505l299 -535h-287z" />
    <glyph glyph-name="Y.sc" horiz-adv-x="985" 
d="M610 373h-2l-26 -373h-267l29 375l-303 665h278l193 -413l242 413h268z" />
    <glyph glyph-name="Yacute.sc" horiz-adv-x="985" 
d="M373 1139l284 321l258 -47l-331 -274h-211zM610 373h-2l-26 -373h-267l29 375l-303 665h278l193 -413l242 413h268z" />
    <glyph glyph-name="Ycircumflex.sc" horiz-adv-x="985" 
d="M711 1139l-154 145l-174 -145h-188l264 321h217l225 -321h-190zM610 373h-2l-26 -373h-267l29 375l-303 665h278l193 -413l242 413h268z" />
    <glyph glyph-name="Ydieresis.sc" horiz-adv-x="985" 
d="M604 1303q1 38 55 91.5t91 53.5q38 0 91 -44t50 -83q-1 -37 -56 -90t-90 -53q-39 0 -91.5 43.5t-49.5 81.5zM217 1303q1 38 54.5 91.5t90.5 53.5q38 0 91.5 -44t50.5 -83q-1 -37 -56 -90t-90 -53q-39 0 -91.5 43.5t-49.5 81.5zM610 373h-2l-26 -373h-267l29 375l-303 665
h278l193 -413l242 413h268z" />
    <glyph glyph-name="Ygrave.sc" horiz-adv-x="985" 
d="M803 1139h-211l-295 274l262 47zM610 373h-2l-26 -373h-267l29 375l-303 665h278l193 -413l242 413h268z" />
    <glyph glyph-name="Z.sc" horiz-adv-x="962" 
d="M840 0h-793l10 180l527 658h-478l37 202h768l-12 -184l-539 -659h519z" />
    <glyph glyph-name="Zacute.sc" horiz-adv-x="962" 
d="M332 1139l284 321l258 -47l-331 -274h-211zM840 0h-793l10 180l527 658h-478l37 202h768l-12 -184l-539 -659h519z" />
    <glyph glyph-name="Zdotaccent.sc" horiz-adv-x="962" 
d="M385 1317q3 43 62 102.5t100 59.5t101 -49t57 -91t-63 -100.5t-99 -58.5q-42 0 -101.5 48t-56.5 89zM840 0h-793l10 180l527 658h-478l37 202h768l-12 -184l-539 -659h519z" />
    <glyph glyph-name="Zcaron.sc" horiz-adv-x="962" 
d="M651 1149h-217l-225 321h190l154 -145l174 145h188zM840 0h-793l10 180l527 658h-478l37 202h768l-12 -184l-539 -659h519z" />
    <glyph glyph-name="AE.sc" horiz-adv-x="1404" 
d="M647 852l-225 -428h205l32 428h-12zM596 0l18 233h-290l-123 -233h-262l575 1040h842l-45 -184l-385 6l-17 -237h371l-47 -183l-338 9l-18 -267l444 6l-47 -190h-678z" />
    <glyph glyph-name="AEacute.sc" horiz-adv-x="1404" 
d="M688 1139l285 321l258 -47l-332 -274h-211zM647 852l-225 -428h205l32 428h-12zM596 0l18 233h-290l-123 -233h-262l575 1040h842l-45 -184l-385 6l-17 -237h371l-47 -183l-338 9l-18 -267l444 6l-47 -190h-678z" />
    <glyph glyph-name="Eth.sc" horiz-adv-x="1089" 
d="M465 0h-354l32 442h-104l12 172h105l32 426h369q230 0 365 -113t135 -333q0 -139 -47 -253t-128 -187.5t-188 -113.5t-229 -40zM391 178h105q286 0 286 371q0 148 -73.5 230.5t-184.5 82.5h-82l-18 -248h217l-27 -172h-202z" />
    <glyph glyph-name="Oslash.sc" horiz-adv-x="1073" 
d="M324 485q0 -100 22 -174l272 545q-43 21 -92 21q-202 0 -202 -392zM551 164q93 0 146 99t53 292q0 97 -23 168l-270 -541q40 -18 94 -18zM489 -29q-73 0 -131 15l-63 -127h-174l96 190q-168 125 -168 397q0 172 60.5 311.5t184.5 225.5t292 86q76 0 131 -14l61 123h174
l-94 -189q166 -123 166 -395q0 -97 -20 -186.5t-63 -169.5t-105 -139t-151 -93.5t-196 -34.5z" />
    <glyph glyph-name="Oslashacute.sc" horiz-adv-x="1073" 
d="M379 1139l285 321l258 -47l-332 -274h-211zM324 485q0 -100 22 -174l272 545q-43 21 -92 21q-202 0 -202 -392zM551 164q93 0 146 99t53 292q0 97 -23 168l-270 -541q40 -18 94 -18zM489 -29q-73 0 -131 15l-63 -127h-174l96 190q-168 125 -168 397q0 172 60.5 311.5
t184.5 225.5t292 86q76 0 131 -14l61 123h174l-94 -189q166 -123 166 -395q0 -97 -20 -186.5t-63 -169.5t-105 -139t-151 -93.5t-196 -34.5z" />
    <glyph glyph-name="Thorn.sc" horiz-adv-x="970" 
d="M485 696h-75l-25 -329h113q72 0 119 37.5t47 117.5t-47.5 126.5t-131.5 47.5zM463 190h-90l-15 -190h-266l78 1040h266l-12 -163h98q201 0 306.5 -79.5t105.5 -230.5q0 -162 -133 -269.5t-338 -107.5z" />
    <glyph glyph-name="Dcroat.sc" horiz-adv-x="1089" 
d="M465 0h-354l32 442h-104l12 172h105l32 426h369q230 0 365 -113t135 -333q0 -139 -47 -253t-128 -187.5t-188 -113.5t-229 -40zM391 178h105q286 0 286 371q0 148 -73.5 230.5t-184.5 82.5h-82l-18 -248h217l-27 -172h-202z" />
    <glyph glyph-name="Hbar.sc" horiz-adv-x="1142" 
d="M752 643l10 117h-346l-10 -117h346zM705 0l32 432h-346l-33 -432h-266l58 760h-132l2 28l43 123h97l10 129h266l-10 -129h346l10 129h269l-11 -129h138l-2 -28l-43 -123h-103l-57 -760h-268z" />
    <glyph glyph-name="IJ.sc" horiz-adv-x="1157" 
d="M436 1040l-78 -1040h-266l78 1040h266zM1065 1040l-55 -741q-10 -151 -114 -239.5t-265 -88.5q-111 0 -187 37l54 213q68 -31 137 -31q43 0 72.5 28t33.5 89l56 733h268z" />
    <glyph glyph-name="Ldot.sc" horiz-adv-x="856" 
d="M530 592q3 43 62 102.5t100 59.5t101 -49t57 -91t-63 -100.5t-99 -58.5q-42 0 -101.5 48t-56.5 89zM92 0l78 1040h266l-63 -839l446 6l-41 -207h-686z" />
    <glyph glyph-name="Lslash.sc" horiz-adv-x="856" 
d="M106 0l29 389l-110 -47l10 186l115 47l34 465h267l-27 -348l227 94l-10 -184l-231 -96l-23 -305l447 6l-41 -207h-687z" />
    <glyph glyph-name="Eng.sc" horiz-adv-x="1171" 
d="M655 -334q-117 0 -184 33l53 203q59 -35 135 -35q43 0 74.5 30.5t34.5 88.5v16l-383 635l-47 -637h-246l78 1040h246l377 -643l41 643h245l-65 -901l-10 -145q-10 -148 -111 -238t-238 -90z" />
    <glyph glyph-name="OE.sc" horiz-adv-x="1468" 
d="M553 164q62 0 123 43l43 586q-61 86 -168 86q-112 0 -169.5 -94.5t-57.5 -301.5q0 -175 61.5 -247t167.5 -72zM1337 0h-671q-92 -29 -185 -29q-196 0 -314 124t-118 341q0 298 150.5 465.5t392.5 167.5q86 0 168 -29h659l-45 -184l-385 6l-16 -237h370l-47 -183l-338 9
l-18 -267l444 6z" />
    <glyph glyph-name="Tbar.sc" horiz-adv-x="917" 
d="M786 473h-194l-35 -473h-266l35 473h-248l4 41l51 119h205l14 205l-321 -4l45 206h876l-45 -206l-289 4l-14 -205h238l-4 -41z" />
    <glyph glyph-name="commaaccent.sc" horiz-adv-x="516" 
d="M150 -190q2 34 44 70t80 36q39 0 82.5 -49.5t40.5 -85.5q-7 -87 -161 -309l-117 47q10 20 25.5 48t26 47t20.5 39.5t15.5 34t6.5 21.5q0 10 -32 45t-31 56z" />
    <glyph glyph-name="acute.sc" horiz-adv-x="661" 
d="M59 1139l285 321l258 -47l-332 -274h-211z" />
    <glyph glyph-name="grave.sc" horiz-adv-x="657" 
d="M582 1139h-211l-295 274l262 47z" />
    <glyph glyph-name="hungarumlaut.sc" horiz-adv-x="995" 
d="M395 1139l264 321l259 -47l-312 -274h-211zM78 1139l264 321l258 -47l-311 -274h-211z" />
    <glyph glyph-name="circumflex.sc" horiz-adv-x="917" 
d="M621 1139l-154 145l-174 -145h-189l265 321h217l225 -321h-190z" />
    <glyph glyph-name="caron.sc" horiz-adv-x="909" 
d="M543 1149h-217l-226 321h191l153 -145l174 145h189z" />
    <glyph glyph-name="breve.sc" horiz-adv-x="935" 
d="M457 1311q149 0 190 172h148q-10 -148 -118 -246t-243 -98q-146 0 -224 95t-67 249h148q15 -172 166 -172z" />
    <glyph glyph-name="tilde.sc" horiz-adv-x="942" 
d="M745 1427l84 -94q-35 -60 -111 -121t-136 -61q-40 0 -136 34t-120 34q-34 0 -79.5 -31t-60.5 -49l-73 104q32 40 107 103t130 63q46 0 134 -33t114 -33q63 0 147 84z" />
    <glyph glyph-name="macron.sc" horiz-adv-x="878" 
d="M731 1380l-2 -30l-57 -146h-527l2 31l58 145h526z" />
    <glyph glyph-name="dieresis.sc" horiz-adv-x="1001" 
d="M551 1303q1 38 54.5 91.5t90.5 53.5q38 0 91.5 -44t50.5 -83q-1 -37 -56 -90t-90 -53q-39 0 -91.5 43.5t-49.5 81.5zM164 1303q2 38 55 91.5t90 53.5q38 0 91.5 -44t50.5 -83q-1 -37 -56 -90t-90 -53q-39 0 -91.5 43.5t-49.5 81.5z" />
    <glyph glyph-name="dotaccent.sc" horiz-adv-x="614" 
d="M147 1317q3 43 62 102.5t100 59.5t101 -49t57 -91t-63 -100.5t-99 -58.5q-42 0 -101.5 48t-56.5 89z" />
    <glyph glyph-name="ring.sc" horiz-adv-x="741" 
d="M578 1327q-6 -81 -73 -140t-151 -59q-88 0 -143 54t-49 145q6 83 72.5 142t150.5 59q89 0 144 -53t49 -148zM281 1327q-3 -38 20.5 -63t60.5 -25t65.5 25t31.5 63q3 40 -21.5 66t-62.5 26q-37 0 -64 -25.5t-30 -66.5z" />
    <glyph glyph-name="cedilla.sc" horiz-adv-x="606" 
d="M170 -195l106 195h113l-53 -106q84 -34 123 -67.5t35 -88.5q-5 -79 -96 -143.5t-263 -75.5l-22 108q100 10 151.5 27.5t54.5 54.5q3 48 -145 86z" />
    <glyph glyph-name="ogonek.sc" horiz-adv-x="659" 
d="M139 -279q6 72 73 148t169 131h141q-110 -74 -162 -139t-55 -113q-1 -34 21.5 -55t56.5 -21q46 0 94 25l29 -113q-92 -47 -176 -47q-93 0 -145 49t-46 135z" />
    <glyph glyph-name="Dotlessi.sc" horiz-adv-x="528" 
d="M465 1040l-78 -1040h-266l78 1040h266z" />
    <glyph glyph-name="Tcedilla.sc" horiz-adv-x="917" 
d="M375 0h-84l61 838l-321 -4l45 206h876l-45 -206l-289 4l-61 -838h-70l-53 -106q84 -34 123 -67.5t35 -88.5q-5 -79 -96 -143.5t-263 -75.5l-22 108q101 10 152.5 27.5t54.5 54.5q3 48 -146 86l-4 10z" />
    <glyph glyph-name="f_f.sc" horiz-adv-x="1814" 
d="M729 416l-340 8l-31 -424h-266l78 1040h682l-45 -184l-385 6l-19 -268h373zM1630 416l-340 8l-30 -424h-267l78 1040h682l-45 -184l-385 6l-18 -268h372z" />
    <glyph glyph-name="f_f_i.sc" horiz-adv-x="2390" 
d="M2241 1040l-78 -1040h-267l78 1040h267zM729 416l-340 8l-31 -424h-266l78 1040h682l-45 -184l-385 6l-19 -268h373zM1630 416l-340 8l-30 -424h-267l78 1040h682l-45 -184l-385 6l-18 -268h372z" />
    <glyph glyph-name="f_f_l.sc" horiz-adv-x="2676" 
d="M729 416l-340 8l-31 -424h-266l78 1040h682l-45 -184l-385 6l-19 -268h373zM1616 416l-340 8l-31 -424h-266l78 1040h682l-45 -184l-385 6l-19 -268h373zM1878 0l78 1040h266l-63 -839l446 6l-41 -207h-686z" />
    <glyph glyph-name="fi.sc" horiz-adv-x="1476" 
d="M1327 1040l-78 -1040h-266l78 1040h266zM729 416l-340 8l-31 -424h-266l78 1040h682l-45 -184l-385 6l-19 -268h373z" />
    <glyph glyph-name="fl.sc" horiz-adv-x="1802" 
d="M729 416l-340 8l-31 -424h-266l78 1040h682l-45 -184l-385 6l-19 -268h373zM1004 0l77 1040h267l-64 -839l447 6l-41 -207h-686z" />
    </font>
</defs>
</svg>
