<?xml version="1.0" standalone="no"?>
<!DOCTYPE svg PUBLIC "-//W3C//DTD SVG 1.1//EN" "http://www.w3.org/Graphics/SVG/1.1/DTD/svg11.dtd" >
<svg xmlns="http://www.w3.org/2000/svg" xmlns:xlink="http://www.w3.org/1999/xlink" version="1.1">
<metadata>
Created by FontForge 20170731 at Sat Feb 27 18:00:31 2021
 By Aleksey,,,
Universidad Nacional de Colombia, Unidad de Medios de Comunicacio'n (Unimedios), 2012-2015.
</metadata>
<defs>
<font id="AncizarSans-Regular" horiz-adv-x="903" >
  <font-face 
    font-family="Ancizar Sans"
    font-weight="400"
    font-stretch="normal"
    units-per-em="2048"
    panose-1="2 11 6 2 4 3 0 0 0 3"
    ascent="1536"
    descent="-512"
    x-height="922"
    cap-height="1253"
    bbox="-123 -508 2421 1757"
    underline-thickness="0"
    underline-position="0"
    unicode-range="U+0020-FB04"
  />
<missing-glyph horiz-adv-x="1228" 
d="M102 0v1440h1024v-1440h-1024zM614 813l349 524h-697zM205 1245v-1050l348 524zM676 719l348 -524v1050zM266 102h697l-349 525z" />
    <glyph glyph-name="f_f" unicode="ff" horiz-adv-x="1210" 
d="M373 1024v-102h395v84q0 127 39 219q-115 41 -234 41q-87 0 -143.5 -58.5t-56.5 -183.5zM768 0v797h-395v-797h-176v797h-136v104l125 21h11v14q0 221 121.5 342t324.5 121q125 0 258 -45q102 86 266 86q47 0 105 -13l-27 -139q-68 15 -141 15q-70 0 -115 -52t-45 -155
v-174h244l-14 -125h-230v-797h-176z" />
    <glyph glyph-name="fi" unicode="fi" horiz-adv-x="1081" 
d="M758 0v797h-396v-797h-176v797h-125v104l125 21v55q0 118 36 209t99.5 145.5t142.5 81.5t171 27q154 0 297 -54l-49 -159q-63 27 -154 49t-162 22q-87 0 -146 -58t-59 -175v-143h396l176 24v-946h-176z" />
    <glyph glyph-name="fl" unicode="fl" horiz-adv-x="1157" 
d="M938 -25q-80 0 -129 45.5t-49 131.5v1116q-102 30 -193 30q-87 0 -146 -58t-59 -175v-143h244l-14 -125h-230v-797h-176v797h-125v104l125 21v55q0 118 36 209t99.5 145.5t142.5 81.5t171 27q121 0 233 -33l66 10v-1233q0 -31 19 -48t51 -17q46 0 81 14l19 -125
q-26 -12 -76 -22.5t-90 -10.5z" />
    <glyph glyph-name="f_f_i" unicode="ffi" horiz-adv-x="1662" 
d="M373 1024v-102h395v55q0 144 53 244q-123 45 -248 45q-87 0 -143.5 -58.5t-56.5 -183.5zM768 0v797h-395v-797h-176v797h-136v104l125 21h11v14q0 221 121.5 342t324.5 121q135 0 279 -51q120 92 295 92q153 0 296 -54l-49 -159q-63 28 -153.5 49.5t-161.5 21.5
q-87 0 -146 -58t-59 -175v-143h395l177 24v-946h-177v797h-395v-797h-176z" />
    <glyph glyph-name="f_f_l" unicode="ffl" horiz-adv-x="1736" 
d="M373 1024v-102h395v55q0 144 53 244q-123 45 -248 45q-87 0 -143.5 -58.5t-56.5 -183.5zM1520 -25q-80 0 -129.5 45.5t-49.5 131.5v1116q-102 30 -192 30q-87 0 -146 -58t-59 -175v-143h244l-14 -125h-230v-797h-176v797h-395v-797h-176v797h-136v104l125 21h11v14
q0 221 121.5 342t324.5 121q135 0 279 -51q120 92 295 92q121 0 233 -33l66 10v-1233q0 -31 18.5 -48t50.5 -17q47 0 82 14l19 -125q-26 -12 -76 -22.5t-90 -10.5z" />
    <glyph glyph-name=".notdef" horiz-adv-x="1228" 
d="M102 0v1440h1024v-1440h-1024zM614 813l349 524h-697zM205 1245v-1050l348 524zM676 719l348 -524v1050zM266 102h697l-349 525z" />
    <glyph glyph-name=".null" horiz-adv-x="0" 
 />
    <glyph glyph-name="nonmarkingreturn" horiz-adv-x="682" 
 />
    <glyph glyph-name="space" unicode=" " horiz-adv-x="440" 
 />
    <glyph glyph-name="exclam" unicode="!" horiz-adv-x="626" 
d="M375 354l-137 -39q2 233 -9.5 501.5t-33.5 430.5l208 64q-28 -555 -28 -957zM184 88q0 36 48.5 83.5t80.5 47.5q30 0 79.5 -44t49.5 -77q0 -36 -47.5 -82.5t-77.5 -46.5q-32 0 -82.5 43t-50.5 76z" />
    <glyph glyph-name="quotedbl" unicode="&#x22;" horiz-adv-x="667" 
d="M422 977l-31 442h164l-31 -442h-102zM143 977l-30 442h163l-30 -442h-103z" />
    <glyph glyph-name="numbersign" unicode="#" horiz-adv-x="1081" 
d="M633 485l59 246h-233l-60 -246h234zM514 0l92 379h-233l-92 -379h-123l92 379h-213v31l33 75h206l60 246h-238v31l33 74h229l103 417h123l-103 -417h234l102 417h123l-102 -417h207v-31l-33 -74h-199l-59 -246h229v-30l-33 -76h-223l-92 -379h-123z" />
    <glyph glyph-name="dollar" unicode="$" horiz-adv-x="1075" 
d="M612 -287h-161l22 262h-31q-70 0 -161 16t-144 38l39 170q192 -78 334 -78q103 0 167 48.5t64 135.5q0 44 -10 76t-37.5 64t-78 61t-130.5 61q-171 69 -246 155t-75 210q0 128 84.5 220t232.5 118l-22 256h162l-23 -248q184 0 305 -47l-45 -162q-176 66 -319 66
q-94 0 -145.5 -45t-51.5 -125q0 -83 53.5 -133.5t196.5 -110.5q191 -80 261.5 -161.5t70.5 -199.5q0 -145 -88 -242.5t-248 -129.5z" />
    <glyph glyph-name="percent" unicode="%" horiz-adv-x="1251" 
d="M616 995q0 -133 -83.5 -223t-210.5 -90q-119 0 -190 79.5t-71 205.5q0 131 84 222t211 91q116 0 188 -80t72 -205zM102 0l912 1253h137l-909 -1253h-140zM489 979q0 101 -43 152t-122 51q-74 0 -106 -50t-32 -149q0 -203 166 -203q137 0 137 199zM1190 289
q0 -133 -84 -223.5t-211 -90.5q-118 0 -189 79.5t-71 205.5q0 131 84 222t211 91q116 0 188 -79.5t72 -204.5zM1063 272q0 101 -43 152t-123 51q-74 0 -105.5 -50t-31.5 -149q0 -202 166 -202q137 0 137 198z" />
    <glyph glyph-name="ampersand" unicode="&#x26;" horiz-adv-x="1298" 
d="M1280 0l-195 -29q-64 50 -194 166q-100 -76 -215.5 -120t-222.5 -44q-118 1 -203.5 45t-126.5 113.5t-41 155.5q0 59 16.5 106t56 91.5t82.5 79t119 87.5q-77 73 -121.5 146.5t-44.5 160.5q0 136 107 228t270 92q89 0 169 -19.5t126 -44.5l-59 -145q-150 70 -285 70
q-76 0 -119 -42t-43 -114q0 -29 11.5 -59.5t26.5 -55t48 -60.5t57.5 -60t75 -72.5t82.5 -79.5q42 -40 128.5 -123.5t129.5 -124.5q72 101 72 223q0 126 -82 240l166 59q33 -43 55.5 -110.5t22.5 -147.5q0 -190 -137 -356q176 -162 268 -231v-25zM512 113q65 0 142 29t145 81
q-54 53 -112 111t-107.5 109t-65.5 67q-11 11 -36 33t-34 30q-84 -52 -133 -110t-49 -133q0 -70 39 -121t94 -73.5t117 -22.5z" />
    <glyph glyph-name="quotesingle" unicode="'" horiz-adv-x="389" 
d="M143 977l-30 442h163l-30 -442h-103z" />
    <glyph glyph-name="parenleft" unicode="(" horiz-adv-x="655" 
d="M625 -182l-88 -82q-396 288 -396 844q0 266 95 476t301 367l88 -82q-344 -277 -344 -761q0 -485 344 -762z" />
    <glyph glyph-name="parenright" unicode=")" horiz-adv-x="655" 
d="M31 1339l88 82q395 -287 395 -843q0 -267 -94.5 -477t-300.5 -367l-88 82q344 277 344 762q0 484 -344 761z" />
    <glyph glyph-name="asterisk" unicode="*" horiz-adv-x="862" 
d="M430 1409q31 -71 31 -164q0 -79 -23 -147l-41 -8q-8 59 -31.5 137t-52.5 137zM743 1212q-33 -52 -109 -100t-157 -65l-28 38q47 36 104 94.5t92 110.5zM104 1235q61 -3 140.5 -45.5t134.5 -102.5l-17 -38q-52 23 -131 39.5t-147 21.5zM731 846q-61 3 -140.5 45
t-135.5 104l16 37q52 -21 132.5 -38.5t146.5 -22.5zM92 866q33 52 109.5 100.5t156.5 65.5l25 -35q-46 -36 -101.5 -96t-91.5 -115zM403 674q-30 58 -30 160q0 88 22 153l43 6q8 -58 31.5 -136.5t52.5 -135.5z" />
    <glyph glyph-name="plus" unicode="+" horiz-adv-x="1075" 
d="M948 481h-344v-350h-135v350h-344v125h344v338h135v-338h344v-125z" />
    <glyph glyph-name="comma" unicode="," horiz-adv-x="481" 
d="M133 111q0 34 35.5 66t67.5 32q34 0 81.5 -45.5t47.5 -97.5q0 -80 -140 -369l-108 39q92 227 92 266q0 10 -38 46t-38 63z" />
    <glyph glyph-name="hyphen" unicode="-" horiz-adv-x="655" 
d="M563 563v-31l-39 -96h-432v31l41 96h430z" />
    <glyph glyph-name="period" unicode="." horiz-adv-x="481" 
d="M115 82q0 35 43.5 81t74.5 46q32 0 83 -38t51 -71q0 -35 -45 -80t-76 -45q-32 0 -81.5 37t-49.5 70z" />
    <glyph glyph-name="slash" unicode="/" horiz-adv-x="673" 
d="M72 -225l397 1644h133l-397 -1644h-133z" />
    <glyph glyph-name="zero" unicode="0" horiz-adv-x="1075" 
d="M1001 651q0 -319 -133.5 -497.5t-361.5 -178.5q-207 0 -319.5 163.5t-112.5 463.5q0 319 133.5 497.5t361.5 178.5q207 0 319.5 -163.5t112.5 -463.5zM813 627q0 138 -22.5 238.5t-64 158.5t-94 84.5t-118.5 26.5q-61 0 -106 -25t-80 -82.5t-52.5 -157.5t-17.5 -243
q0 -269 80.5 -389.5t218.5 -120.5q61 0 106.5 25.5t80 83t52 158t17.5 243.5z" />
    <glyph glyph-name="one" unicode="1" horiz-adv-x="1075" 
d="M725 0h-182v1094l-273 -119l-45 149q88 25 373 129h127v-1253z" />
    <glyph glyph-name="two" unicode="2" horiz-adv-x="1075" 
d="M913 0h-770v152q302 277 434 449.5t132 307.5q0 98 -65.5 161t-166.5 63q-112 0 -282 -72l-50 133q211 84 381 84q174 0 278.5 -93t104.5 -249q0 -87 -40.5 -179t-124 -194t-178 -196t-236.5 -220l614 15z" />
    <glyph glyph-name="three" unicode="3" horiz-adv-x="1075" 
d="M410 -25q-158 0 -283 33l41 152q144 -41 291 -41q117 0 182.5 54.5t65.5 158.5q0 113 -80.5 176t-208.5 63q-42 0 -96 -4l-29 138q185 0 282 60t97 167q0 98 -64 150.5t-155 52.5q-118 0 -263 -68l-47 131q73 33 172.5 56.5t186.5 23.5q153 0 251.5 -76t98.5 -209
q0 -114 -71.5 -202t-180.5 -127q138 -26 214.5 -102.5t76.5 -190.5q0 -118 -68.5 -210t-177.5 -139t-235 -47z" />
    <glyph glyph-name="four" unicode="4" horiz-adv-x="1075" 
d="M635 410v596l-447 -596h447zM983 268h-174v-268h-174v268h-629v117l674 893h129v-868h227z" />
    <glyph glyph-name="five" unicode="5" horiz-adv-x="1075" 
d="M371 -25q-93 0 -242 35l45 154q72 -23 156 -36t143 -13q128 0 200 63t72 170q0 68 -30 120t-79 81t-104.5 43t-115.5 14q-105 0 -211 -20l35 667h675l-32 -151h-500l-23 -359q71 11 132 11q196 0 316 -96.5t120 -247.5q0 -194 -147 -314.5t-410 -120.5z" />
    <glyph glyph-name="six" unicode="6" horiz-adv-x="1075" 
d="M965 410q0 -118 -55.5 -217.5t-156 -158.5t-223.5 -59q-192 0 -305.5 147.5t-113.5 418.5q0 365 153 551t416 186q129 0 242 -33l-39 -166q-168 49 -265 49q-72 0 -124.5 -20.5t-95 -70t-67.5 -137.5t-34 -218q150 92 303 92q179 0 272 -101.5t93 -262.5zM571 113
q100 0 156.5 65.5t56.5 186.5q0 53 -14 99t-43 84.5t-79.5 60.5t-117.5 22q-115 0 -239 -66v-53q0 -179 70.5 -289t209.5 -110z" />
    <glyph glyph-name="seven" unicode="7" horiz-adv-x="1075" 
d="M446 -27l-180 62q72 174 237.5 521t268.5 540l-653 -6l28 161h799v-133q-84 -161 -257.5 -558.5t-242.5 -586.5z" />
    <glyph glyph-name="eight" unicode="8" horiz-adv-x="1075" 
d="M500 -25q-177 0 -283 84t-106 222q0 58 20.5 109t60.5 94.5t83.5 77.5t105.5 73q-112 66 -165.5 139t-53.5 176q0 136 113.5 231t297.5 95q91 0 167 -30.5t124.5 -92.5t48.5 -145q0 -174 -243 -326q163 -82 228 -157t65 -181q0 -71 -33 -137.5t-92 -118t-147 -82.5
t-191 -31zM332 975q0 -63 50.5 -119t174.5 -121q94 59 142.5 115.5t48.5 122.5q0 69 -62 120.5t-170 51.5q-91 0 -137.5 -47t-46.5 -123zM565 111q101 0 164.5 52t63.5 138q0 35 -11 63t-41.5 61t-91 70.5t-155.5 82.5q-42 -29 -60 -41.5t-49 -37t-43.5 -40.5t-29 -39.5
t-22 -48.5t-5.5 -54q0 -96 78.5 -151t201.5 -55z" />
    <glyph glyph-name="nine" unicode="9" horiz-adv-x="1075" 
d="M549 625q121 0 229 51q2 20 2 67q0 177 -74 286.5t-214 109.5q-197 0 -197 -248q0 -53 14 -99t43 -84.5t79.5 -60.5t117.5 -22zM354 -25q-107 0 -217 31l29 154q105 -41 252 -41q139 0 231.5 108.5t120.5 329.5q-140 -76 -291 -76q-165 0 -264.5 104.5t-99.5 260.5
q0 189 119.5 310.5t304.5 121.5q199 0 310.5 -145.5t111.5 -417.5q0 -173 -48.5 -315t-132 -234t-193 -141.5t-233.5 -49.5z" />
    <glyph glyph-name="colon" unicode=":" horiz-adv-x="481" 
d="M115 655q0 35 43.5 81t74.5 46q32 0 83 -37.5t51 -70.5q0 -35 -45 -80t-76 -45q-32 0 -81.5 36.5t-49.5 69.5zM115 82q0 35 43.5 81t74.5 46q32 0 83 -38t51 -71q0 -35 -45 -80t-76 -45q-32 0 -81.5 37t-49.5 70z" />
    <glyph glyph-name="semicolon" unicode=";" horiz-adv-x="481" 
d="M115 655q0 35 43.5 81t74.5 46q32 0 83 -37.5t51 -70.5q0 -35 -45 -80t-76 -45q-32 0 -81.5 36.5t-49.5 69.5zM131 111q0 34 35 66t67 32q34 0 81.5 -45.5t47.5 -97.5q0 -82 -139 -369l-108 39q92 227 92 266q0 10 -38 46t-38 63z" />
    <glyph glyph-name="equal" unicode="=" horiz-adv-x="1075" 
d="M895 727v-31l-37 -90h-678v31l37 90h678zM895 481v-30l-37 -91h-678v31l37 90h678z" />
    <glyph glyph-name="question" unicode="?" horiz-adv-x="819" 
d="M498 360l-146 -47q-27 31 -43 52.5t-30.5 55t-14.5 66.5q0 59 29.5 98t114.5 111q88 73 120.5 124.5t32.5 127.5q0 84 -62 140.5t-153 56.5q-44 0 -91.5 -21t-131.5 -73l-60 131q177 96 345 96q148 0 246 -85t98 -220q0 -46 -15.5 -88t-47.5 -81.5t-63.5 -68.5t-80.5 -69
q-68 -55 -94.5 -84.5t-26.5 -59.5q0 -23 23 -72t51 -90zM266 86q0 33 47 78t78 45q27 0 74 -42t47 -75t-48 -77t-75 -44q-32 0 -77.5 41t-45.5 74z" />
    <glyph glyph-name="at" unicode="@" horiz-adv-x="1693" 
d="M788 -309q-95 0 -187.5 22t-187 78t-165 140.5t-115.5 221.5t-45 308q0 162 45 305.5t124 250.5t183.5 185t226 118t248.5 40q311 0 501 -155t190 -429q0 -123 -47 -236t-126.5 -197.5t-183.5 -145t-219 -86.5l-37 251q-66 -118 -134.5 -181.5t-125.5 -63.5
q-96 0 -145 92.5t-49 267.5q0 70 14 137t45 130.5t76.5 111t114 76.5t151.5 29q98 0 193 -50v-671q65 34 118.5 79.5t100 108t72.5 146t26 180.5q0 218 -151.5 345.5t-409.5 127.5q-285 0 -459 -202t-174 -546q0 -130 30.5 -237.5t83.5 -182.5t126.5 -126.5t159 -76
t180.5 -24.5q39 0 76 3t71 10t59 12.5t55.5 16t44.5 16t42 17t33 13.5l43 -119q-73 -32 -122 -50t-149.5 -39t-200.5 -21zM791 246q18 0 41.5 13t52 48.5t51.5 87.5t39 140t16 196v100q-49 17 -112 17q-46 0 -80 -18.5t-54.5 -48.5t-33 -76t-17 -93.5t-4.5 -109.5
q0 -142 26.5 -199t74.5 -57z" />
    <glyph glyph-name="A" unicode="A" horiz-adv-x="1153" 
d="M754 528l-189 541l-182 -541h371zM936 0l-135 389h-465l-131 -389h-185l453 1253h211l449 -1253h-197z" />
    <glyph glyph-name="B" unicode="B" horiz-adv-x="1112" 
d="M522 698q116 0 178 53t62 146q0 106 -68 166.5t-198 60.5h-123v-422q98 -4 149 -4zM573 133q127 0 198 51t71 156q0 113 -81.5 175.5t-230.5 62.5q-25 0 -157 -5v-436q126 -4 200 -4zM184 0v1253h371q179 0 284 -81.5t105 -215.5q0 -190 -186 -292q52 -11 97.5 -32.5
t86 -56.5t64.5 -88.5t24 -119.5q0 -168 -136.5 -267.5t-375.5 -99.5h-334z" />
    <glyph glyph-name="C" unicode="C" horiz-adv-x="1118" 
d="M1034 201l27 -142q-59 -34 -162 -59t-209 -25q-131 0 -240.5 41t-189 118.5t-124 198t-44.5 271.5q0 196 73.5 348t215 239t330.5 87q89 0 187 -17t149 -40l-50 -156q-58 27 -153 45t-185 18q-55 0 -106 -14t-100.5 -49t-86 -88t-59 -138t-22.5 -192q0 -138 36.5 -240.5
t100 -161t140 -86.5t165.5 -28q164 0 307 70z" />
    <glyph glyph-name="D" unicode="D" horiz-adv-x="1312" 
d="M184 1253h432q277 0 441 -154.5t164 -426.5q0 -209 -90.5 -364.5t-247.5 -235.5t-359 -80q-167 0 -340 28v1233zM373 1116v-964q107 -17 223 -17q68 0 129 16.5t117 54.5t96 95t64 143.5t24 194.5q0 230 -130 353.5t-341 123.5h-182z" />
    <glyph glyph-name="E" unicode="E" horiz-adv-x="1021" 
d="M184 0v1253h723l-20 -149l-514 8v-395h475l-21 -142l-454 7v-435l567 9l-20 -156h-736z" />
    <glyph glyph-name="F" unicode="F" horiz-adv-x="989" 
d="M823 555l-450 6v-561h-189v1253h723l-20 -149l-514 6v-410h471z" />
    <glyph glyph-name="G" unicode="G" horiz-adv-x="1212" 
d="M1090 66q-73 -38 -178.5 -64.5t-196.5 -26.5q-135 0 -246.5 37t-196.5 111.5t-132.5 197t-47.5 283.5q0 194 78 347t224 240t335 87q97 0 202 -20t163 -50l-56 -155q-166 75 -358 75q-55 0 -108 -14t-106 -49t-92.5 -88t-64 -138t-24.5 -192q0 -114 25.5 -204.5t68 -149
t102 -97.5t123.5 -55t137 -16q91 0 181 22l-2 476h170v-557z" />
    <glyph glyph-name="H" unicode="H" horiz-adv-x="1327" 
d="M954 0v573h-581v-573h-189v1253h189v-528h581v528h189v-1253h-189z" />
    <glyph glyph-name="I" unicode="I" horiz-adv-x="557" 
d="M373 1253v-1253h-189v1253h189z" />
    <glyph glyph-name="J" unicode="J" horiz-adv-x="720" 
d="M557 1253v-893q0 -189 -103 -287t-270 -98q-81 0 -164 27l31 150q100 -31 164 -31q71 0 112.5 49t41.5 139v944h188z" />
    <glyph glyph-name="K" unicode="K" horiz-adv-x="1173" 
d="M1163 0h-245l-545 645l526 608h219l-543 -591zM373 1253v-1253h-189v1253h189z" />
    <glyph glyph-name="L" unicode="L" horiz-adv-x="913" 
d="M184 0v1253h189v-1106l518 9l-21 -156h-686z" />
    <glyph glyph-name="M" unicode="M" horiz-adv-x="1646" 
d="M741 0l-366 1020l-94 -1020h-177l142 1253h217l366 -999l355 999h221l137 -1253h-186l-96 1024l-363 -1024h-156z" />
    <glyph glyph-name="N" unicode="N" horiz-adv-x="1347" 
d="M991 0l-643 973v-973h-164v1253h187l628 -960v960h164v-1253h-172z" />
    <glyph glyph-name="O" unicode="O" horiz-adv-x="1359" 
d="M1268 651q0 -157 -47.5 -285t-131.5 -213.5t-200.5 -131.5t-253.5 -46q-157 0 -279 72.5t-193 216t-71 338.5q0 157 47 285t131 213.5t200 131.5t253 46q241 0 393 -168t152 -459zM1077 594q0 144 -32.5 250.5t-91.5 169t-134.5 92t-169.5 29.5q-157 0 -261.5 -121
t-104.5 -355q0 -145 31.5 -251t90.5 -168.5t134 -91.5t170 -29q75 0 140 28t117 83.5t81.5 149t29.5 214.5z" />
    <glyph glyph-name="P" unicode="P" horiz-adv-x="1038" 
d="M524 616q133 0 206 61t73 187q0 124 -79 190t-232 66h-119v-497q10 0 64.5 -3.5t86.5 -3.5zM475 481q-18 0 -52 1t-50 1v-483h-189v1253h375q208 0 323 -92.5t115 -257.5q0 -102 -42 -183.5t-114 -133t-165.5 -78.5t-200.5 -27z" />
    <glyph glyph-name="Q" unicode="Q" horiz-adv-x="1359" 
d="M1268 651q0 -157 -47.5 -285t-131.5 -213.5t-200.5 -131.5t-253.5 -46q-157 0 -279 72.5t-193 216t-71 338.5q0 157 47 285t131 213.5t200 131.5t253 46q241 0 393 -168t152 -459zM1077 594q0 144 -32.5 250.5t-91.5 169t-134.5 92t-169.5 29.5q-157 0 -261.5 -121
t-104.5 -355q0 -145 31.5 -251t90.5 -168.5t134 -91.5t170 -29q75 0 140 28t117 83.5t81.5 149t29.5 214.5zM281 -166q114 74 223 74q98 0 294 -51.5t273 -51.5q111 0 180 54v-162q-74 -57 -198 -57q-72 0 -278.5 66.5t-270.5 66.5q-55 0 -92.5 -17.5t-83.5 -56.5z" />
    <glyph glyph-name="R" unicode="R" horiz-adv-x="1101" 
d="M537 651q101 0 169 54t68 163q0 120 -70.5 186t-195.5 66q-45 0 -135 -4v-459q80 -6 164 -6zM489 518q-11 0 -52 1t-64 1v-520h-189v1253h365q198 0 307 -88t109 -243q0 -117 -61.5 -205.5t-162.5 -138.5l324 -578h-215l-272 524q-47 -6 -89 -6z" />
    <glyph glyph-name="S" unicode="S" horiz-adv-x="980" 
d="M440 567q-171 69 -246 155t-75 210q0 151 115.5 248.5t310.5 97.5q188 0 313 -47l-45 -162q-176 66 -319 66q-94 0 -145.5 -45t-51.5 -125q0 -83 53.5 -133.5t196.5 -110.5q191 -80 261.5 -161.5t70.5 -199.5q0 -176 -128.5 -280.5t-353.5 -104.5q-70 0 -161 16t-144 38
l39 170q192 -78 334 -78q103 0 167 48.5t64 135.5q0 44 -10 76t-37.5 64t-78 61t-130.5 61z" />
    <glyph glyph-name="T" unicode="T" horiz-adv-x="1024" 
d="M987 1102l-379 6v-1108h-188v1108l-404 -6l21 151h971z" />
    <glyph glyph-name="U" unicode="U" horiz-adv-x="1306" 
d="M172 408v845h188v-778q0 -340 320 -340q129 0 202.5 71t73.5 212v835h179v-790q0 -235 -130.5 -361.5t-371.5 -126.5q-213 0 -337 110t-124 323z" />
    <glyph glyph-name="V" unicode="V" horiz-adv-x="1142" 
d="M666 0h-209l-449 1253h201l364 -1050l371 1050h186z" />
    <glyph glyph-name="W" unicode="W" horiz-adv-x="1777" 
d="M1208 0l-319 985l-320 -985h-211l-301 1253h189l239 -1026l324 1026h176l334 -1026l223 1026h174l-297 -1253h-211z" />
    <glyph glyph-name="X" unicode="X" horiz-adv-x="1130" 
d="M893 0l-344 516l-324 -516h-205l435 657l-400 596h217l308 -460l292 460h207l-405 -600l436 -653h-217z" />
    <glyph glyph-name="Y" unicode="Y" horiz-adv-x="1083" 
d="M643 496v-496h-188v496l-451 757h213l344 -585l324 585h186z" />
    <glyph glyph-name="Z" unicode="Z" horiz-adv-x="1071" 
d="M969 0h-895v125l698 985l-676 -12l29 155h854v-147l-688 -967l706 13z" />
    <glyph glyph-name="bracketleft" unicode="[" horiz-adv-x="655" 
d="M573 -135v-109h-372v1643h372v-109h-239v-1425h239z" />
    <glyph glyph-name="backslash" unicode="\" horiz-adv-x="673" 
d="M205 1419l397 -1644h-133l-397 1644h133z" />
    <glyph glyph-name="bracketright" unicode="]" horiz-adv-x="655" 
d="M455 -244h-373v109h240v1425h-240v109h373v-1643z" />
    <glyph glyph-name="underscore" unicode="_" horiz-adv-x="901" 
d="M901 -207v-112h-901v112h901z" />
    <glyph glyph-name="grave" unicode="`" horiz-adv-x="704" 
d="M575 1047h-143l-303 262l182 34z" />
    <glyph glyph-name="a" unicode="a" 
d="M649 -25l-41 107q-166 -107 -264 -107q-116 0 -191 67.5t-75 178.5q0 136 127.5 217.5t394.5 85.5v84q0 96 -46.5 146.5t-131.5 50.5q-103 0 -279 -62l-39 121q111 42 194 62t179 20q138 0 215.5 -75t77.5 -222v-645zM391 109q79 0 209 67v217q-62 8 -145 8
q-99 0 -158 -38t-59 -107q0 -70 46 -108.5t107 -38.5z" />
    <glyph glyph-name="b" unicode="b" horiz-adv-x="1040" 
d="M549 111q106 0 172.5 88.5t66.5 265.5q0 94 -23.5 163.5t-62.5 106.5t-81.5 54.5t-88.5 17.5q-97 0 -208 -59v-598q112 -39 225 -39zM526 -25q-118 0 -237 45l-64 -69l-78 24v1414l177 28v-569q179 98 276 98q55 0 106.5 -16t99.5 -52t83.5 -89t56.5 -131.5t21 -174.5
q0 -126 -39.5 -226.5t-104.5 -160t-141 -90.5t-156 -31z" />
    <glyph glyph-name="c" unicode="c" horiz-adv-x="843" 
d="M774 158l25 -117q-55 -27 -138.5 -46.5t-158.5 -19.5q-193 0 -306.5 123t-113.5 340q0 230 127 369t321 139q177 0 250 -41l-30 -137q-127 45 -226 47q-121 -2 -191.5 -87.5t-70.5 -258.5q0 -176 79 -265t206 -89q109 0 227 43z" />
    <glyph glyph-name="d" unicode="d" horiz-adv-x="1040" 
d="M770 -25l-41 107q-74 -44 -154 -75.5t-135 -31.5t-106.5 16t-99 52t-83 89t-56.5 131.5t-21 174.5q0 126 39.5 226.5t104 160t140.5 90.5t156 31q95 0 203 -33v476l176 28v-1413zM508 113q94 0 209 61v598q-112 39 -225 39q-107 0 -173.5 -88.5t-66.5 -265.5
q0 -94 23.5 -163.5t62.5 -107.5t81.5 -55.5t88.5 -17.5z" />
    <glyph glyph-name="e" unicode="e" horiz-adv-x="919" 
d="M473 827q-96 0 -148.5 -53.5t-66.5 -183.5h416q0 237 -201 237zM846 49q-169 -74 -334 -74q-191 0 -310.5 116.5t-119.5 346.5q0 239 117.5 373.5t306.5 134.5q162 0 249 -96t87 -254q0 -73 -4 -119h-586v-14q0 -95 25 -165t68.5 -108.5t94.5 -56.5t111 -18q142 0 264 51
z" />
    <glyph glyph-name="f" unicode="f" horiz-adv-x="628" 
d="M592 797h-230v-797h-176v797h-125v104l125 21v84q0 112 30 197t85 136t126.5 76t158.5 25q46 0 104 -13l-26 -139q-67 15 -142 15q-70 0 -115 -52t-45 -155v-174h244z" />
    <glyph glyph-name="g" unicode="g" horiz-adv-x="942" 
d="M612 631q0 105 -57.5 152.5t-146.5 47.5q-83 0 -121.5 -40t-38.5 -142q0 -98 58.5 -149t144.5 -51q77 0 119 42t42 140zM872 -63q0 -98 -67.5 -181.5t-180.5 -132.5t-243 -49q-154 0 -245 58t-91 159q0 110 141 203q31 21 107 65q-56 18 -84.5 52t-28.5 77q0 73 107 162
q-95 27 -151 97.5t-56 173.5q0 150 105.5 237.5t277.5 87.5q109 0 188 -51q26 5 94.5 18.5t119 23.5t50.5 9v-153h-38l-140 16q43 -64 43 -152q0 -150 -104.5 -236.5t-269.5 -86.5h-13q-53 -49 -53 -86q0 -31 31.5 -48.5t107.5 -29.5l185 -31q102 -17 155 -61t53 -141z
M444 -295q114 0 189.5 54t75.5 128q0 51 -39 80.5t-131 44.5l-127 23q-72 -39 -101 -60q-100 -71 -100 -147q0 -57 59.5 -90t173.5 -33z" />
    <glyph glyph-name="h" unicode="h" horiz-adv-x="1028" 
d="M539 803q-70 0 -215 -60v-743h-177v1389l177 28v-563q69 39 147.5 65.5t140.5 26.5q54 0 104 -16.5t90.5 -48t64.5 -84.5t24 -119v-678h-176v608q0 92 -48 143.5t-132 51.5z" />
    <glyph glyph-name="i" unicode="i" horiz-adv-x="471" 
d="M119 1225q0 33 42 78t72 45q31 0 79 -36t48 -69t-42.5 -77t-71.5 -44q-32 0 -79.5 35.5t-47.5 67.5zM147 918l177 28v-946h-177v918z" />
    <glyph glyph-name="j" unicode="j" horiz-adv-x="471" 
d="M115 1225q0 33 42 78t72 45q31 0 79 -36t48 -69t-42.5 -77t-71.5 -44q-32 0 -79.5 35.5t-47.5 67.5zM147 -33v951l177 28v-956q0 -124 -44.5 -226t-131 -163.5t-199.5 -61.5l-33 131q62 12 100.5 28.5t70.5 48.5t46 85.5t14 134.5z" />
    <glyph glyph-name="k" unicode="k" horiz-adv-x="919" 
d="M147 0v1389l177 28v-1417h-177zM918 0h-213l-379 502l-2 2l370 418h199l-381 -410z" />
    <glyph glyph-name="l" unicode="l" horiz-adv-x="542" 
d="M473 133l19 -125q-26 -12 -76 -22.5t-90 -10.5q-80 0 -129.5 45.5t-49.5 131.5v1237l175 28v-1233q0 -31 18.5 -48t50.5 -17q47 0 82 14z" />
    <glyph glyph-name="m" unicode="m" horiz-adv-x="1558" 
d="M535 805q-83 0 -211 -64v-741h-177v918l127 28l39 -98q174 98 291 98q165 0 232 -115q78 45 167 80t154 35q128 0 199 -72.5t71 -199.5v-674h-176v608q0 97 -42.5 147t-121.5 50q-74 0 -219 -66q6 -30 6 -65v-674h-176v608q0 97 -42 147t-121 50z" />
    <glyph glyph-name="n" unicode="n" horiz-adv-x="1028" 
d="M541 803q-85 0 -217 -62v-741h-177v918l127 28l39 -98q179 98 299 98q130 0 206.5 -73t76.5 -199v-674h-176v608q0 95 -48.5 145t-129.5 50z" />
    <glyph glyph-name="o" unicode="o" horiz-adv-x="1021" 
d="M948 479q0 -235 -128 -369.5t-341 -136.5q-183 2 -294 126t-111 343q0 236 129 370t346 134q186 0 292.5 -123t106.5 -344zM770 436q0 377 -281 377q-237 0 -237 -328q0 -376 280 -376q117 0 177.5 82t60.5 245z" />
    <glyph glyph-name="p" unicode="p" horiz-adv-x="1040" 
d="M549 111q106 0 172.5 88.5t66.5 265.5q0 93 -23.5 162.5t-62.5 106.5t-81.5 54t-88.5 17q-101 0 -208 -57v-598q112 -39 225 -39zM324 -422l-177 -29v1369l127 28l41 -104q183 104 285 104q55 0 106.5 -16t99.5 -52t83.5 -89t56.5 -131.5t21 -174.5q0 -126 -39.5 -226.5
t-104.5 -160t-141 -90.5t-156 -31q-94 0 -202 33v-430z" />
    <glyph glyph-name="q" unicode="q" horiz-adv-x="1040" 
d="M717 -451v525q-181 -99 -277 -99q-55 0 -106.5 16t-99 52t-83 89t-56.5 131.5t-21 174.5q0 126 39.5 226.5t104 160t140.5 90.5t156 31q119 0 238 -45l63 70l78 -25v-1368zM508 115q98 0 209 59v598q-112 39 -225 39q-107 0 -173.5 -88.5t-66.5 -265.5q0 -94 23.5 -163.5
t62.5 -106.5t81.5 -54.5t88.5 -17.5z" />
    <glyph glyph-name="r" unicode="r" horiz-adv-x="671" 
d="M545 778q-115 -3 -221 -65v-713h-177v918l127 28l45 -121q156 121 295 121q21 0 27 -2l-20 -170q-18 4 -76 4z" />
    <glyph glyph-name="s" unicode="s" horiz-adv-x="808" 
d="M369 -25q-154 0 -295 52l30 141q174 -62 316 -62q63 0 105 33t42 94q0 92 -139 148l-135 53q-91 37 -144 92t-53 150q0 80 52.5 143.5t127 95t150.5 31.5q92 0 171.5 -13t121.5 -30l-35 -139q-175 53 -274 53q-71 0 -111.5 -29t-40.5 -81t31.5 -84t109.5 -62l117 -45
q104 -40 161.5 -98t57.5 -152q0 -89 -55.5 -157t-137.5 -101t-173 -33z" />
    <glyph glyph-name="t" unicode="t" horiz-adv-x="700" 
d="M672 31q-46 -22 -118.5 -39t-129.5 -17q-107 0 -180 62.5t-72 177.5l6 582h-151v104l153 21l2 155l176 29l-2 -184h303l-20 -125h-285l-6 -525q-1 -76 35.5 -112.5t101.5 -36.5q82 0 170 27z" />
    <glyph glyph-name="u" unicode="u" horiz-adv-x="1028" 
d="M760 -25l-43 99q-73 -40 -155.5 -69.5t-145.5 -29.5q-129 0 -206 73.5t-77 199.5v670l176 28v-633q0 -95 49.5 -145.5t130.5 -50.5q82 0 216 63v738l176 28v-942z" />
    <glyph glyph-name="v" unicode="v" horiz-adv-x="911" 
d="M559 0h-219l-324 909l183 29l262 -784l256 768h178z" />
    <glyph glyph-name="w" unicode="w" horiz-adv-x="1431" 
d="M938 0l-227 678l-230 -678h-194l-238 909l178 29l181 -756l229 727l156 29l247 -758l174 742h168l-254 -922h-190z" />
    <glyph glyph-name="x" unicode="x" horiz-adv-x="925" 
d="M692 0l-243 344l-232 -344h-192l342 461l-316 448l187 29l241 -340l215 324h193l-324 -445l338 -477h-209z" />
    <glyph glyph-name="y" unicode="y" horiz-adv-x="911" 
d="M66 -471q-36 0 -56 4l-16 152q295 -31 430 315h-70l-323 907l180 31l266 -784q229 699 250 768h176q-234 -702 -330 -957q-83 -217 -213.5 -326.5t-293.5 -109.5z" />
    <glyph glyph-name="z" unicode="z" horiz-adv-x="849" 
d="M774 0h-700v121l473 665l-467 -4l14 140h664v-121l-482 -668l512 4z" />
    <glyph glyph-name="braceleft" unicode="{" horiz-adv-x="655" 
d="M115 625q153 31 153 139q0 47 -14 169t-14 222q0 127 81 196.5t242 69.5v-112q-77 0 -133.5 -36t-56.5 -104q0 -75 15 -213t15 -194q0 -69 -41 -120t-100 -67q59 -16 100 -66.5t41 -119.5q0 -57 -15 -195t-15 -212q0 -68 56.5 -104t133.5 -36v-112q-161 0 -242 69.5
t-81 196.5q0 100 14 222t14 169q0 108 -153 139v99z" />
    <glyph glyph-name="bar" unicode="|" horiz-adv-x="559" 
d="M215 -451v1870h129v-1870h-129z" />
    <glyph glyph-name="braceright" unicode="}" horiz-adv-x="655" 
d="M393 578q-59 16 -100 66.5t-41 119.5q0 56 15.5 194t15.5 213q0 68 -56.5 104t-134.5 36v112q161 0 242.5 -69.5t81.5 -196.5q0 -100 -14.5 -222t-14.5 -169q0 -108 154 -139v-99q-154 -31 -154 -139q0 -47 14.5 -169t14.5 -222q0 -127 -81.5 -196.5t-242.5 -69.5v112
q78 0 134.5 36t56.5 104q0 74 -15.5 212.5t-15.5 194.5q0 69 41 120t100 67z" />
    <glyph glyph-name="exclamdown" unicode="&#xa1;" horiz-adv-x="626" 
d="M442 825q0 -36 -48.5 -83.5t-80.5 -47.5q-30 0 -79.5 44t-49.5 77q0 36 47.5 82.5t77.5 46.5q32 0 82.5 -43t50.5 -76zM252 559l137 39q-2 -233 9.5 -501.5t33.5 -430.5l-209 -63q29 575 29 956z" />
    <glyph glyph-name="cent" unicode="&#xa2;" horiz-adv-x="1075" 
d="M895 205q-101 -51 -250 -64l27 -264h-154l19 266q-166 19 -262.5 140t-96.5 319q0 203 100 336.5t261 163.5l-23 260h154l-23 -252q156 -3 230 -41l-31 -137q-127 45 -225 47q-121 -2 -192 -87.5t-71 -258.5q0 -176 79 -265t206 -89q109 0 227 43z" />
    <glyph glyph-name="sterling" unicode="&#xa3;" horiz-adv-x="1075" 
d="M993 154l-30 -154h-826h-2l-53 135q141 38 191.5 88t50.5 160q0 52 -25 170h-190v27l43 84l92 12h30q-20 132 -20 196q0 181 115 293.5t303 112.5q168 0 264 -51l-51 -154q-156 62 -244 62q-104 0 -156.5 -52.5t-52.5 -175.5q0 -81 23 -231h381l-33 -123h-328
q14 -96 14 -145q0 -155 -116 -271z" />
    <glyph glyph-name="section" unicode="&#xa7;" horiz-adv-x="995" 
d="M258 651q0 -68 50 -116t175 -99q117 22 185.5 72t68.5 117q0 68 -50 116t-175 99q-117 -22 -185.5 -72t-68.5 -117zM434 -164q-162 0 -278 49l47 140q2 -1 33.5 -12t46 -16t47 -15t54.5 -15t50 -9.5t49 -4.5q174 0 174 131q0 57 -38 97.5t-123 74.5l-97 39
q-177 72 -247 138.5t-70 180.5q0 99 73.5 174.5t198.5 116.5q-94 43 -142 102.5t-48 143.5q0 124 107.5 206.5t289.5 82.5q159 0 260 -43l-47 -140q-4 1 -32 11.5t-42 15t-43.5 13.5t-50 13.5t-47 8.5t-47.5 4q-174 0 -174 -131q0 -57 38.5 -97.5t123.5 -74.5l96 -39
q177 -72 247 -138.5t70 -180.5q0 -99 -73.5 -174.5t-198.5 -116.5q94 -43 142 -102.5t48 -143.5q0 -124 -107.5 -206.5t-289.5 -82.5z" />
    <glyph glyph-name="dieresis" unicode="&#xa8;" horiz-adv-x="870" 
d="M510 1219q0 30 37.5 70t64.5 40q28 0 71.5 -31.5t43.5 -60.5q0 -30 -38.5 -70.5t-63.5 -40.5q-28 0 -71.5 32.5t-43.5 60.5zM143 1219q0 30 38 70t65 40q28 0 71 -31.5t43 -60.5q0 -30 -38.5 -70.5t-63.5 -40.5q-28 0 -71.5 32.5t-43.5 60.5z" />
    <glyph glyph-name="copyright" unicode="&#xa9;" horiz-adv-x="1196" 
d="M74 500q0 159 73.5 280t191.5 182.5t259 61.5q240 0 382 -148.5t142 -375.5q0 -159 -73.5 -280.5t-191.5 -183t-259 -61.5q-240 0 -382 149t-142 376zM168 500q0 -200 122 -319.5t308 -119.5q196 0 313 124.5t117 314.5q0 201 -121 319.5t-309 118.5
q-197 0 -313.5 -123.5t-116.5 -314.5zM788 319l19 -81q-106 -45 -227 -45q-129 0 -206 81t-77 224q0 149 87.5 241t240.5 92q98 0 166 -28l-23 -90q-102 30 -180 30q-172 0 -172 -231q0 -113 57 -169t145 -56q76 0 170 32z" />
    <glyph glyph-name="ordfeminine" unicode="&#xaa;" horiz-adv-x="497" 
d="M354 702l-20 50q-92 -50 -152 -50q-57 0 -99 32.5t-42 92.5q0 67 73 109.5t210 48.5v41q0 47 -23 63.5t-63 16.5q-35 0 -156 -31l-27 76q118 41 215 41q170 0 170 -152v-321zM221 784q33 0 103 27v100q-5 0 -27.5 1t-40.5 1q-106 0 -106 -61q0 -34 20 -51t51 -17z" />
    <glyph glyph-name="guillemotleft" unicode="&#xab;" horiz-adv-x="1079" 
d="M864 66l-372 409l372 410l92 -72l-258 -338l258 -338zM475 66l-373 409l373 410l92 -72l-258 -338l258 -338z" />
    <glyph glyph-name="registered" unicode="&#xae;" horiz-adv-x="1196" 
d="M74 1057q0 159 73.5 280t191.5 182.5t259 61.5q240 0 382 -148.5t142 -375.5q0 -159 -73.5 -280.5t-191.5 -183t-259 -61.5q-240 0 -382 149t-142 376zM168 1057q0 -200 122 -319.5t308 -119.5q196 0 313 124.5t117 314.5q0 201 -121 319.5t-309 118.5
q-197 0 -313.5 -123.5t-116.5 -314.5zM588 1094q117 0 117 98q0 111 -132 111h-61v-207q25 -2 76 -2zM565 1018q-33 0 -53 2v-254h-115v614h207q102 0 159.5 -42.5t57.5 -127.5q0 -105 -110 -159l159 -285h-127l-127 256q-36 -4 -51 -4z" />
    <glyph glyph-name="macron" unicode="&#xaf;" horiz-adv-x="866" 
d="M702 1260v-31l-36 -94h-502v30l37 95h501z" />
    <glyph glyph-name="twosuperior" unicode="&#xb2;" horiz-adv-x="559" 
d="M485 799h-430v82q143 116 225 205.5t82 148.5q0 53 -33 80.5t-85 27.5q-78 0 -160 -40l-31 88q100 49 230 49q94 0 152.5 -50.5t58.5 -129.5q0 -78 -72 -162.5t-232 -208.5l316 10z" />
    <glyph glyph-name="threesuperior" unicode="&#xb3;" horiz-adv-x="555" 
d="M221 784q-82 0 -172 23l25 86q91 -23 166 -23q133 0 133 103q0 54 -40.5 82t-107.5 28q-25 0 -57 -4l-18 82q206 0 206 99q0 43 -32 67.5t-80 24.5q-69 0 -150 -35l-28 82q112 41 208 41q81 0 141 -38t60 -110q0 -56 -38.5 -96.5t-100.5 -60.5q77 -12 118.5 -49.5
t41.5 -98.5q0 -50 -26 -90t-67.5 -64t-88.5 -36.5t-93 -12.5z" />
    <glyph glyph-name="acute" unicode="&#xb4;" horiz-adv-x="704" 
d="M129 1047l264 296l182 -34l-303 -262h-143z" />
    <glyph glyph-name="paragraph" unicode="&#xb6;" horiz-adv-x="1122" 
d="M616 1128v-702h-139q-204 0 -320 111t-116 297q0 187 117 303t325 116h455v-1196q0 -158 -105 -247t-274 -89q-83 0 -156 25l25 143q122 -40 198 -31t110 51.5t34 117.5v1101h-154z" />
    <glyph glyph-name="cedilla" unicode="&#xb8;" horiz-adv-x="602" 
d="M176 -186l88 186h96l-51 -111q30 -14 39.5 -18t32.5 -16t31 -18.5t22.5 -18.5t20 -23t10 -25.5t4.5 -31.5q0 -74 -78.5 -134.5t-234.5 -74.5l-23 88q103 12 154 31.5t51 60.5q0 28 -37 50t-119 44z" />
    <glyph glyph-name="onesuperior" unicode="&#xb9;" horiz-adv-x="432" 
d="M324 799h-119v522l-142 -57l-28 96q75 19 211 65h78v-626z" />
    <glyph glyph-name="ordmasculine" unicode="&#xba;" horiz-adv-x="571" 
d="M537 956q0 -116 -76.5 -185t-192.5 -69q-105 0 -165 61t-60 175q0 117 75.5 185.5t192.5 68.5q108 0 167 -60.5t59 -175.5zM414 936q0 97 -35 136.5t-100 39.5q-58 0 -86.5 -34t-28.5 -117q0 -98 35.5 -137.5t101.5 -39.5q58 0 85.5 33.5t27.5 118.5z" />
    <glyph glyph-name="guillemotright" unicode="&#xbb;" horiz-adv-x="1079" 
d="M604 885l373 -410l-373 -409l-92 71l258 338l-258 338zM215 885l373 -410l-373 -409l-92 71l258 338l-258 338z" />
    <glyph glyph-name="questiondown" unicode="&#xbf;" horiz-adv-x="757" 
d="M506 831q0 -33 -46.5 -77.5t-78.5 -44.5q-27 0 -74 41.5t-47 74.5t48 77t75 44q32 0 77.5 -41t45.5 -74zM274 557l146 47q27 -31 43 -52.5t30.5 -55t14.5 -66.5q0 -59 -29 -98.5t-114 -110.5q-88 -73 -121 -125t-33 -127q0 -84 62 -140t153 -56q44 0 91.5 21t131.5 73
l60 -131q-177 -96 -344 -96q-148 0 -246.5 85t-98.5 220q0 46 15.5 88t47.5 81.5t63.5 68.5t80.5 69q69 56 95 84.5t26 58.5q0 23 -23 72t-51 90z" />
    <glyph glyph-name="Agrave" unicode="&#xc0;" horiz-adv-x="1153" 
d="M743 1354h-143l-303 262l182 35zM754 528l-189 541l-182 -541h371zM936 0l-135 389h-465l-131 -389h-185l453 1253h211l449 -1253h-197z" />
    <glyph glyph-name="Aacute" unicode="&#xc1;" horiz-adv-x="1153" 
d="M449 1354l264 297l182 -35l-303 -262h-143zM754 528l-189 541l-182 -541h371zM936 0l-135 389h-465l-131 -389h-185l453 1253h211l449 -1253h-197z" />
    <glyph glyph-name="Acircumflex" unicode="&#xc2;" horiz-adv-x="1153" 
d="M743 1354l-178 157l-178 -157h-137l254 297h123l254 -297h-138zM754 528l-189 541l-182 -541h371zM936 0l-135 389h-465l-131 -389h-185l453 1253h211l449 -1253h-197z" />
    <glyph glyph-name="Atilde" unicode="&#xc3;" horiz-adv-x="1153" 
d="M825 1599l68 -71q-107 -142 -205 -142q-40 0 -134 34t-118 34q-34 0 -74 -26.5t-59 -45.5l-61 72q124 137 211 137q46 0 129.5 -30.5t109.5 -30.5q64 0 133 69zM754 528l-189 541l-182 -541h371zM936 0l-135 389h-465l-131 -389h-185l453 1253h211l449 -1253h-197z" />
    <glyph glyph-name="Adieresis" unicode="&#xc4;" horiz-adv-x="1153" 
d="M651 1526q0 30 38 70t65 40q28 0 71 -31.5t43 -60.5q0 -30 -38 -70t-64 -40q-28 0 -71.5 32t-43.5 60zM285 1526q0 30 37.5 70t64.5 40q28 0 71.5 -31.5t43.5 -60.5q0 -30 -38.5 -70t-64.5 -40q-28 0 -71 32t-43 60zM754 528l-189 541l-182 -541h371zM936 0l-135 389
h-465l-131 -389h-185l453 1253h211l449 -1253h-197z" />
    <glyph glyph-name="Aring" unicode="&#xc5;" horiz-adv-x="1153" 
d="M766 1522q0 -74 -58.5 -128.5t-134.5 -54.5q-79 0 -134.5 49.5t-55.5 133.5q0 75 58 129.5t134 54.5q80 0 135.5 -48.5t55.5 -135.5zM481 1522q0 -40 27 -66t65 -26t66.5 26t28.5 66q0 43 -28.5 69.5t-66.5 26.5t-65 -26.5t-27 -69.5zM754 528l-189 541l-182 -541h371z
M936 0l-135 389h-465l-131 -389h-185l453 1253h211l449 -1253h-197z" />
    <glyph glyph-name="AE" unicode="&#xc6;" horiz-adv-x="1628" 
d="M776 1079l-295 -551h314v551h-19zM795 0v389h-387l-209 -389h-189l688 1253h820l-21 -149l-514 8v-395h475l-20 -142l-455 7v-435l567 9l-20 -156h-735z" />
    <glyph glyph-name="Ccedilla" unicode="&#xc7;" horiz-adv-x="1118" 
d="M838 -262q0 -74 -79 -134.5t-235 -74.5l-22 88q103 12 154 31.5t51 60.5q0 28 -37 50t-119 44l-6 11l78 163q-242 21 -386.5 183.5t-144.5 443.5q0 196 73.5 348t215 239t330.5 87q89 0 187 -17t149 -40l-50 -156q-58 27 -153 45t-185 18q-55 0 -106 -14t-100.5 -49
t-86 -88t-59 -138t-22.5 -192q0 -138 36.5 -240.5t100 -161t140 -86.5t165.5 -28q164 0 307 70l27 -142q-54 -31 -148.5 -55.5t-193.5 -28.5l-41 -86q30 -14 39.5 -18t32.5 -16t31 -18.5t22.5 -18.5t20 -23t10 -25.5t4.5 -31.5z" />
    <glyph glyph-name="Egrave" unicode="&#xc8;" horiz-adv-x="1021" 
d="M772 1354h-143l-303 262l182 35zM184 0v1253h723l-20 -149l-514 8v-395h475l-21 -142l-454 7v-435l567 9l-20 -156h-736z" />
    <glyph glyph-name="Eacute" unicode="&#xc9;" horiz-adv-x="1021" 
d="M373 1354l264 297l182 -35l-303 -262h-143zM184 0v1253h723l-20 -149l-514 8v-395h475l-21 -142l-454 7v-435l567 9l-20 -156h-736z" />
    <glyph glyph-name="Ecircumflex" unicode="&#xca;" horiz-adv-x="1021" 
d="M739 1354l-178 157l-178 -157h-137l254 297h123l254 -297h-138zM184 0v1253h723l-20 -149l-514 8v-395h475l-21 -142l-454 7v-435l567 9l-20 -156h-736z" />
    <glyph glyph-name="Edieresis" unicode="&#xcb;" horiz-adv-x="1021" 
d="M637 1526q0 30 37.5 70t64.5 40q28 0 71.5 -31.5t43.5 -60.5q0 -30 -38 -70t-64 -40q-28 0 -71.5 32t-43.5 60zM270 1526q0 30 38 70t65 40q28 0 71 -31.5t43 -60.5q0 -30 -38 -70t-64 -40q-28 0 -71.5 32t-43.5 60zM184 0v1253h723l-20 -149l-514 8v-395h475l-21 -142
l-454 7v-435l567 9l-20 -156h-736z" />
    <glyph glyph-name="Igrave" unicode="&#xcc;" horiz-adv-x="557" 
d="M426 1354h-143l-303 262l182 35zM373 1253v-1253h-189v1253h189z" />
    <glyph glyph-name="Iacute" unicode="&#xcd;" horiz-adv-x="557" 
d="M162 1354l264 297l182 -35l-303 -262h-143zM373 1253v-1253h-189v1253h189z" />
    <glyph glyph-name="Icircumflex" unicode="&#xce;" horiz-adv-x="557" 
d="M457 1354l-178 157l-179 -157h-137l254 297h123l254 -297h-137zM373 1253v-1253h-189v1253h189z" />
    <glyph glyph-name="Idieresis" unicode="&#xcf;" horiz-adv-x="557" 
d="M330 1526q0 30 37.5 70t64.5 40q28 0 71.5 -31.5t43.5 -60.5q0 -30 -38.5 -70t-64.5 -40q-28 0 -71 32t-43 60zM12 1526q0 30 38 70t65 40q28 0 71 -31.5t43 -60.5q0 -30 -38 -70t-64 -40q-28 0 -71.5 32t-43.5 60zM373 1253v-1253h-189v1253h189z" />
    <glyph glyph-name="Eth" unicode="&#xd0;" horiz-adv-x="1323" 
d="M535 -8q-167 0 -340 28v558h-134v135h134v540h432q277 0 440.5 -154.5t163.5 -426.5q0 -157 -52 -285.5t-144.5 -214.5t-220.5 -133t-279 -47zM606 135q68 0 129 16.5t117 54.5t96 95t64 143.5t24 194.5q0 230 -130 353.5t-341 123.5h-182v-403h350l-20 -135h-330v-426
q107 -17 223 -17z" />
    <glyph glyph-name="Ntilde" unicode="&#xd1;" horiz-adv-x="1347" 
d="M944 1599l68 -71q-107 -142 -205 -142q-40 0 -134 34t-118 34q-34 0 -74 -26.5t-59 -45.5l-62 72q124 137 211 137q46 0 130 -30.5t110 -30.5q64 0 133 69zM991 0l-643 973v-973h-164v1253h187l628 -960v960h164v-1253h-172z" />
    <glyph glyph-name="Ograve" unicode="&#xd2;" horiz-adv-x="1359" 
d="M887 1354h-144l-303 262l183 35zM1268 651q0 -157 -47.5 -285t-131.5 -213.5t-200.5 -131.5t-253.5 -46q-157 0 -279 72.5t-193 216t-71 338.5q0 157 47 285t131 213.5t200 131.5t253 46q241 0 393 -168t152 -459zM1077 594q0 144 -32.5 250.5t-91.5 169t-134.5 92
t-169.5 29.5q-157 0 -261.5 -121t-104.5 -355q0 -145 31.5 -251t90.5 -168.5t134 -91.5t170 -29q75 0 140 28t117 83.5t81.5 149t29.5 214.5z" />
    <glyph glyph-name="Oacute" unicode="&#xd3;" horiz-adv-x="1359" 
d="M469 1354l264 297l182 -35l-303 -262h-143zM1268 651q0 -157 -47.5 -285t-131.5 -213.5t-200.5 -131.5t-253.5 -46q-157 0 -279 72.5t-193 216t-71 338.5q0 157 47 285t131 213.5t200 131.5t253 46q241 0 393 -168t152 -459zM1077 594q0 144 -32.5 250.5t-91.5 169
t-134.5 92t-169.5 29.5q-157 0 -261.5 -121t-104.5 -355q0 -145 31.5 -251t90.5 -168.5t134 -91.5t170 -29q75 0 140 28t117 83.5t81.5 149t29.5 214.5z" />
    <glyph glyph-name="Ocircumflex" unicode="&#xd4;" horiz-adv-x="1359" 
d="M846 1354l-178 157l-179 -157h-137l254 297h123l254 -297h-137zM1268 651q0 -157 -47.5 -285t-131.5 -213.5t-200.5 -131.5t-253.5 -46q-157 0 -279 72.5t-193 216t-71 338.5q0 157 47 285t131 213.5t200 131.5t253 46q241 0 393 -168t152 -459zM1077 594
q0 144 -32.5 250.5t-91.5 169t-134.5 92t-169.5 29.5q-157 0 -261.5 -121t-104.5 -355q0 -145 31.5 -251t90.5 -168.5t134 -91.5t170 -29q75 0 140 28t117 83.5t81.5 149t29.5 214.5z" />
    <glyph glyph-name="Otilde" unicode="&#xd5;" horiz-adv-x="1359" 
d="M932 1599l67 -71q-107 -142 -204 -142q-40 0 -134 34t-118 34q-34 0 -74 -26.5t-59 -45.5l-62 72q124 137 211 137q46 0 130 -30.5t110 -30.5q64 0 133 69zM1268 651q0 -157 -47.5 -285t-131.5 -213.5t-200.5 -131.5t-253.5 -46q-157 0 -279 72.5t-193 216t-71 338.5
q0 157 47 285t131 213.5t200 131.5t253 46q241 0 393 -168t152 -459zM1077 594q0 144 -32.5 250.5t-91.5 169t-134.5 92t-169.5 29.5q-157 0 -261.5 -121t-104.5 -355q0 -145 31.5 -251t90.5 -168.5t134 -91.5t170 -29q75 0 140 28t117 83.5t81.5 149t29.5 214.5z" />
    <glyph glyph-name="Odieresis" unicode="&#xd6;" horiz-adv-x="1359" 
d="M750 1526q0 30 37.5 70t64.5 40q28 0 71.5 -31.5t43.5 -60.5q0 -30 -38.5 -70t-64.5 -40q-28 0 -71 32t-43 60zM383 1526q0 30 37.5 70t64.5 40q28 0 71.5 -31.5t43.5 -60.5q0 -30 -38 -70t-64 -40q-28 0 -71.5 32t-43.5 60zM1268 651q0 -157 -47.5 -285t-131.5 -213.5
t-200.5 -131.5t-253.5 -46q-157 0 -279 72.5t-193 216t-71 338.5q0 157 47 285t131 213.5t200 131.5t253 46q241 0 393 -168t152 -459zM1077 594q0 144 -32.5 250.5t-91.5 169t-134.5 92t-169.5 29.5q-157 0 -261.5 -121t-104.5 -355q0 -145 31.5 -251t90.5 -168.5
t134 -91.5t170 -29q75 0 140 28t117 83.5t81.5 149t29.5 214.5z" />
    <glyph glyph-name="multiply" unicode="&#xd7;" horiz-adv-x="1075" 
d="M793 203l-254 256l-256 -256l-86 88l254 254l-254 254l88 86l254 -252l252 252l88 -86l-254 -254l254 -254z" />
    <glyph glyph-name="Oslash" unicode="&#xd8;" horiz-adv-x="1359" 
d="M283 659q0 -296 133 -432l403 879q-82 29 -170 29q-157 0 -261.5 -121t-104.5 -355zM709 119q75 0 140 28t117 83.5t81.5 149t29.5 214.5q0 311 -153 448l-408 -884q82 -39 193 -39zM635 -25q-98 0 -189 31l-79 -176h-134l105 229q-117 77 -181.5 215.5t-64.5 327.5
q0 157 47 285t131 213.5t200 131.5t253 46q82 0 166 -23l76 164h133l-99 -213q126 -74 197.5 -217t71.5 -338q0 -157 -47.5 -285t-131.5 -213.5t-200.5 -131.5t-253.5 -46z" />
    <glyph glyph-name="Ugrave" unicode="&#xd9;" horiz-adv-x="1306" 
d="M858 1354h-143l-303 262l182 35zM172 408v845h188v-778q0 -340 320 -340q129 0 202.5 71t73.5 212v835h179v-790q0 -235 -130.5 -361.5t-371.5 -126.5q-213 0 -337 110t-124 323z" />
    <glyph glyph-name="Uacute" unicode="&#xda;" horiz-adv-x="1306" 
d="M461 1354l264 297l182 -35l-303 -262h-143zM172 408v845h188v-778q0 -340 320 -340q129 0 202.5 71t73.5 212v835h179v-790q0 -235 -130.5 -361.5t-371.5 -126.5q-213 0 -337 110t-124 323z" />
    <glyph glyph-name="Ucircumflex" unicode="&#xdb;" horiz-adv-x="1306" 
d="M831 1354l-178 157l-178 -157h-137l254 297h123l254 -297h-138zM172 408v845h188v-778q0 -340 320 -340q129 0 202.5 71t73.5 212v835h179v-790q0 -235 -130.5 -361.5t-371.5 -126.5q-213 0 -337 110t-124 323z" />
    <glyph glyph-name="Udieresis" unicode="&#xdc;" horiz-adv-x="1306" 
d="M731 1526q0 30 38 70t65 40q28 0 71 -31.5t43 -60.5q0 -30 -38 -70t-64 -40q-28 0 -71.5 32t-43.5 60zM365 1526q0 30 37.5 70t64.5 40q28 0 71.5 -31.5t43.5 -60.5q0 -30 -38.5 -70t-64.5 -40q-28 0 -71 32t-43 60zM172 408v845h188v-778q0 -340 320 -340
q129 0 202.5 71t73.5 212v835h179v-790q0 -235 -130.5 -361.5t-371.5 -126.5q-213 0 -337 110t-124 323z" />
    <glyph glyph-name="Yacute" unicode="&#xdd;" horiz-adv-x="1083" 
d="M387 1354l264 297l183 -35l-304 -262h-143zM643 496v-496h-188v496l-451 757h213l344 -585l324 585h186z" />
    <glyph glyph-name="Thorn" unicode="&#xde;" horiz-adv-x="1038" 
d="M524 395q133 0 206 61t73 187q0 124 -79 190t-232 66h-119v-498q147 -6 151 -6zM475 260q-18 0 -52 1t-50 1v-262h-189v1253h189v-221h186q208 0 323 -92.5t115 -257.5q0 -102 -42 -183.5t-114 -133t-165.5 -78.5t-200.5 -27z" />
    <glyph glyph-name="germandbls" unicode="&#xdf;" horiz-adv-x="1077" 
d="M723 412l-88 55q-77 50 -112.5 105t-35.5 126q0 56 24 106.5t58.5 87.5t69 72.5t58.5 77t24 84.5q0 84 -60.5 134.5t-148.5 50.5q-86 0 -137 -66.5t-51 -195.5v-1049h-177v983q0 213 119.5 335t294.5 122q144 0 234 -79t90 -190q0 -57 -25 -111.5t-60.5 -95.5t-71 -78.5
t-60.5 -75.5t-25 -71q0 -44 26.5 -72t104.5 -79l84 -56q160 -106 160 -262q0 -131 -99.5 -213t-267.5 -82q-85 0 -215 33l27 144q121 -41 179 -48q30 -4 60 -4q68 0 114 29.5t46 85.5q0 59 -30.5 103t-108.5 94z" />
    <glyph glyph-name="agrave" unicode="&#xe0;" 
d="M698 1047h-143l-303 262l182 34zM649 -25l-41 107q-166 -107 -264 -107q-116 0 -191 67.5t-75 178.5q0 136 127.5 217.5t394.5 85.5v84q0 96 -46.5 146.5t-131.5 50.5q-103 0 -279 -62l-39 121q111 42 194 62t179 20q138 0 215.5 -75t77.5 -222v-645zM391 109
q79 0 209 67v217q-62 8 -145 8q-99 0 -158 -38t-59 -107q0 -70 46 -108.5t107 -38.5z" />
    <glyph glyph-name="aacute" unicode="&#xe1;" 
d="M315 1047l265 296l182 -34l-303 -262h-144zM649 -25l-41 107q-166 -107 -264 -107q-116 0 -191 67.5t-75 178.5q0 136 127.5 217.5t394.5 85.5v84q0 96 -46.5 146.5t-131.5 50.5q-103 0 -279 -62l-39 121q111 42 194 62t179 20q138 0 215.5 -75t77.5 -222v-645zM391 109
q79 0 209 67v217q-62 8 -145 8q-99 0 -158 -38t-59 -107q0 -70 46 -108.5t107 -38.5z" />
    <glyph glyph-name="acircumflex" unicode="&#xe2;" 
d="M639 1047l-178 157l-178 -157h-138l254 296h123l254 -296h-137zM649 -25l-41 107q-166 -107 -264 -107q-116 0 -191 67.5t-75 178.5q0 136 127.5 217.5t394.5 85.5v84q0 96 -46.5 146.5t-131.5 50.5q-103 0 -279 -62l-39 121q111 42 194 62t179 20q138 0 215.5 -75
t77.5 -222v-645zM391 109q79 0 209 67v217q-62 8 -145 8q-99 0 -158 -38t-59 -107q0 -70 46 -108.5t107 -38.5z" />
    <glyph glyph-name="atilde" unicode="&#xe3;" 
d="M692 1292l68 -71q-107 -142 -205 -142q-40 0 -134 34t-118 34q-34 0 -74 -26.5t-59 -45.5l-61 72q124 137 210 137q46 0 130 -30.5t110 -30.5q64 0 133 69zM649 -25l-41 107q-166 -107 -264 -107q-116 0 -191 67.5t-75 178.5q0 136 127.5 217.5t394.5 85.5v84
q0 96 -46.5 146.5t-131.5 50.5q-103 0 -279 -62l-39 121q111 42 194 62t179 20q138 0 215.5 -75t77.5 -222v-645zM391 109q79 0 209 67v217q-62 8 -145 8q-99 0 -158 -38t-59 -107q0 -70 46 -108.5t107 -38.5z" />
    <glyph glyph-name="adieresis" unicode="&#xe4;" 
d="M508 1219q0 30 37.5 70t64.5 40q28 0 71.5 -31.5t43.5 -60.5q0 -30 -38.5 -70.5t-63.5 -40.5q-28 0 -71.5 32.5t-43.5 60.5zM141 1219q0 30 38 70t65 40q28 0 71 -31.5t43 -60.5q0 -30 -38.5 -70.5t-63.5 -40.5q-28 0 -71.5 32.5t-43.5 60.5zM649 -25l-41 107
q-166 -107 -264 -107q-116 0 -191 67.5t-75 178.5q0 136 127.5 217.5t394.5 85.5v84q0 96 -46.5 146.5t-131.5 50.5q-103 0 -279 -62l-39 121q111 42 194 62t179 20q138 0 215.5 -75t77.5 -222v-645zM391 109q79 0 209 67v217q-62 8 -145 8q-99 0 -158 -38t-59 -107
q0 -70 46 -108.5t107 -38.5z" />
    <glyph glyph-name="aring" unicode="&#xe5;" 
d="M631 1214q0 -74 -58.5 -128t-134.5 -54q-79 0 -134.5 49t-55.5 133q0 76 58 130.5t134 54.5q80 0 135.5 -49t55.5 -136zM346 1214q0 -40 27 -66t65 -26t66 26t28 66q0 43 -28 70t-66 27t-65 -27t-27 -70zM649 -25l-41 107q-166 -107 -264 -107q-116 0 -191 67.5
t-75 178.5q0 136 127.5 217.5t394.5 85.5v84q0 96 -46.5 146.5t-131.5 50.5q-103 0 -279 -62l-39 121q111 42 194 62t179 20q138 0 215.5 -75t77.5 -222v-645zM391 109q79 0 209 67v217q-62 8 -145 8q-99 0 -158 -38t-59 -107q0 -70 46 -108.5t107 -38.5z" />
    <glyph glyph-name="ae" unicode="&#xe6;" horiz-adv-x="1427" 
d="M977 827q-91 0 -141.5 -54.5t-65.5 -182.5h414q0 120 -50.5 178.5t-156.5 58.5zM1354 49q-186 -74 -355 -74q-206 0 -313 138q-83 -56 -178.5 -97t-163.5 -41q-116 0 -191 67.5t-75 178.5q0 136 127 216.5t393 86.5v97q0 99 -51 142.5t-131 43.5q-87 0 -275 -62l-37 119
q111 42 194 62t179 20q188 0 246 -125q116 125 293 125q164 0 249 -97t85 -263q0 -86 -4 -109h-584v-26q0 -336 293 -336q129 0 268 51zM391 109q100 0 246 86q-35 84 -41 198q-62 8 -141 8q-99 0 -158 -38t-59 -107q0 -70 46 -108.5t107 -38.5z" />
    <glyph glyph-name="ccedilla" unicode="&#xe7;" horiz-adv-x="843" 
d="M662 -262q0 -74 -79 -134.5t-235 -74.5l-22 88q103 12 153.5 31.5t50.5 60.5q0 29 -36.5 50.5t-118.5 43.5l-6 11l77 163q-169 19 -266.5 140.5t-97.5 320.5q0 230 127 369t321 139q177 0 250 -41l-30 -137q-127 45 -226 47q-121 -2 -191.5 -87.5t-70.5 -258.5
q0 -176 79 -265t206 -89q109 0 227 43l25 -117q-112 -55 -256 -64l-41 -88q30 -14 39.5 -18t32.5 -16t31 -18.5t22.5 -18.5t20 -23t10 -25.5t4.5 -31.5z" />
    <glyph glyph-name="egrave" unicode="&#xe8;" horiz-adv-x="919" 
d="M752 1047h-144l-303 262l182 34zM473 827q-96 0 -148.5 -53.5t-66.5 -183.5h416q0 237 -201 237zM846 49q-169 -74 -334 -74q-191 0 -310.5 116.5t-119.5 346.5q0 239 117.5 373.5t306.5 134.5q162 0 249 -96t87 -254q0 -73 -4 -119h-586v-14q0 -95 25 -165t68.5 -108.5
t94.5 -56.5t111 -18q142 0 264 51z" />
    <glyph glyph-name="eacute" unicode="&#xe9;" horiz-adv-x="919" 
d="M348 1047l264 296l183 -34l-303 -262h-144zM473 827q-96 0 -148.5 -53.5t-66.5 -183.5h416q0 237 -201 237zM846 49q-169 -74 -334 -74q-191 0 -310.5 116.5t-119.5 346.5q0 239 117.5 373.5t306.5 134.5q162 0 249 -96t87 -254q0 -73 -4 -119h-586v-14q0 -95 25 -165
t68.5 -108.5t94.5 -56.5t111 -18q142 0 264 51z" />
    <glyph glyph-name="ecircumflex" unicode="&#xea;" horiz-adv-x="919" 
d="M684 1047l-178 157l-178 -157h-138l254 296h123l254 -296h-137zM473 827q-96 0 -148.5 -53.5t-66.5 -183.5h416q0 237 -201 237zM846 49q-169 -74 -334 -74q-191 0 -310.5 116.5t-119.5 346.5q0 239 117.5 373.5t306.5 134.5q162 0 249 -96t87 -254q0 -73 -4 -119h-586
v-14q0 -95 25 -165t68.5 -108.5t94.5 -56.5t111 -18q142 0 264 51z" />
    <glyph glyph-name="edieresis" unicode="&#xeb;" horiz-adv-x="919" 
d="M582 1219q0 30 37.5 70t64.5 40q28 0 71.5 -31.5t43.5 -60.5q0 -30 -38.5 -70.5t-64.5 -40.5q-28 0 -71 32.5t-43 60.5zM215 1219q0 30 37.5 70t64.5 40q28 0 71.5 -31.5t43.5 -60.5q0 -30 -38.5 -70.5t-63.5 -40.5q-28 0 -71.5 32.5t-43.5 60.5zM473 827
q-96 0 -148.5 -53.5t-66.5 -183.5h416q0 237 -201 237zM846 49q-169 -74 -334 -74q-191 0 -310.5 116.5t-119.5 346.5q0 239 117.5 373.5t306.5 134.5q162 0 249 -96t87 -254q0 -73 -4 -119h-586v-14q0 -95 25 -165t68.5 -108.5t94.5 -56.5t111 -18q142 0 264 51z" />
    <glyph glyph-name="igrave" unicode="&#xec;" horiz-adv-x="471" 
d="M440 1047h-143l-303 262l182 34zM324 946v-946h-177v918z" />
    <glyph glyph-name="iacute" unicode="&#xed;" horiz-adv-x="471" 
d="M119 1047l264 296l182 -34l-303 -262h-143zM324 946v-946h-177v918z" />
    <glyph glyph-name="icircumflex" unicode="&#xee;" horiz-adv-x="471" 
d="M414 1047l-178 157l-179 -157h-137l254 296h123l254 -296h-137zM324 946v-946h-177v918z" />
    <glyph glyph-name="idieresis" unicode="&#xef;" horiz-adv-x="471" 
d="M281 1219q0 30 37.5 70t64.5 40q28 0 71.5 -31.5t43.5 -60.5q0 -30 -38.5 -70.5t-64.5 -40.5q-28 0 -71 32.5t-43 60.5zM-25 1219q0 30 38 70t65 40q28 0 71.5 -31.5t43.5 -60.5q0 -30 -38.5 -70.5t-64.5 -40.5q-28 0 -71.5 32.5t-43.5 60.5zM324 946v-946h-177v918z" />
    <glyph glyph-name="eth" unicode="&#xf0;" horiz-adv-x="1015" 
d="M473 -25q-170 0 -280.5 116t-110.5 331q0 106 27.5 194.5t73 148t105 101.5t122.5 61t127 19q82 0 147 -26q-66 135 -192 243l-234 -131l-72 78l217 123q-99 68 -223 131l78 78q154 -57 277 -135l239 135l72 -78l-219 -125q319 -260 319 -711q0 -158 -54 -282
t-162.5 -197.5t-256.5 -73.5zM524 113q60 0 102 16.5t76 57t50.5 115.5t17.5 185q0 142 -29 271q-91 49 -231 49q-125 0 -188.5 -82.5t-63.5 -257.5q0 -94 22 -164.5t60.5 -110.5t84.5 -59.5t99 -19.5z" />
    <glyph glyph-name="ntilde" unicode="&#xf1;" horiz-adv-x="1028" 
d="M786 1292l68 -71q-107 -142 -205 -142q-40 0 -134 34t-118 34q-34 0 -74 -26.5t-59 -45.5l-61 72q124 137 211 137q46 0 129.5 -30.5t109.5 -30.5q64 0 133 69zM541 803q-85 0 -217 -62v-741h-177v918l127 28l39 -98q179 98 299 98q130 0 206.5 -73t76.5 -199v-674h-176
v608q0 95 -48.5 145t-129.5 50z" />
    <glyph glyph-name="ograve" unicode="&#xf2;" horiz-adv-x="1021" 
d="M784 1047h-143l-303 262l182 34zM948 479q0 -235 -128 -369.5t-341 -136.5q-183 2 -294 126t-111 343q0 236 129 370t346 134q186 0 292.5 -123t106.5 -344zM770 436q0 377 -281 377q-237 0 -237 -328q0 -376 280 -376q117 0 177.5 82t60.5 245z" />
    <glyph glyph-name="oacute" unicode="&#xf3;" horiz-adv-x="1021" 
d="M360 1047l265 296l182 -34l-303 -262h-144zM948 479q0 -235 -128 -369.5t-341 -136.5q-183 2 -294 126t-111 343q0 236 129 370t346 134q186 0 292.5 -123t106.5 -344zM770 436q0 377 -281 377q-237 0 -237 -328q0 -376 280 -376q117 0 177.5 82t60.5 245z" />
    <glyph glyph-name="ocircumflex" unicode="&#xf4;" horiz-adv-x="1021" 
d="M696 1047l-178 157l-178 -157h-137l254 296h123l254 -296h-138zM948 479q0 -235 -128 -369.5t-341 -136.5q-183 2 -294 126t-111 343q0 236 129 370t346 134q186 0 292.5 -123t106.5 -344zM770 436q0 377 -281 377q-237 0 -237 -328q0 -376 280 -376q117 0 177.5 82
t60.5 245z" />
    <glyph glyph-name="otilde" unicode="&#xf5;" horiz-adv-x="1021" 
d="M776 1292l68 -71q-107 -142 -205 -142q-40 0 -134 34t-118 34q-34 0 -74 -26.5t-59 -45.5l-61 72q124 137 210 137q46 0 130 -30.5t110 -30.5q64 0 133 69zM948 479q0 -235 -128 -369.5t-341 -136.5q-183 2 -294 126t-111 343q0 236 129 370t346 134q186 0 292.5 -123
t106.5 -344zM770 436q0 377 -281 377q-237 0 -237 -328q0 -376 280 -376q117 0 177.5 82t60.5 245z" />
    <glyph glyph-name="odieresis" unicode="&#xf6;" horiz-adv-x="1021" 
d="M594 1219q0 30 37.5 70t64.5 40q28 0 71.5 -31.5t43.5 -60.5q0 -30 -38.5 -70.5t-63.5 -40.5q-28 0 -71.5 32.5t-43.5 60.5zM227 1219q0 30 38 70t65 40q28 0 71 -31.5t43 -60.5q0 -30 -38.5 -70.5t-63.5 -40.5q-28 0 -71.5 32.5t-43.5 60.5zM948 479q0 -235 -128 -369.5
t-341 -136.5q-183 2 -294 126t-111 343q0 236 129 370t346 134q186 0 292.5 -123t106.5 -344zM770 436q0 377 -281 377q-237 0 -237 -328q0 -376 280 -376q117 0 177.5 82t60.5 245z" />
    <glyph glyph-name="divide" unicode="&#xf7;" horiz-adv-x="1075" 
d="M414 858q0 38 42 82.5t76 44.5q39 0 86.5 -36t47.5 -72q0 -38 -43.5 -81.5t-77.5 -43.5q-37 0 -84 35t-47 71zM973 604v-125h-873v125h873zM414 207q0 38 42 82.5t76 44.5q35 0 84.5 -36.5t49.5 -72.5q0 -38 -43.5 -81.5t-77.5 -43.5q-35 0 -83 35.5t-48 71.5z" />
    <glyph glyph-name="oslash" unicode="&#xf8;" horiz-adv-x="1021" 
d="M252 485q0 -199 80 -295l284 598q-61 25 -127 25q-237 0 -237 -328zM532 109q117 0 177.5 82t60.5 245q0 187 -72 285l-280 -592q50 -20 114 -20zM479 -27q-63 0 -125 19l-65 -137h-115l86 180q-89 56 -137.5 160t-48.5 247q0 236 129 370t346 134q71 0 133 -18l68 143
h114l-90 -188q174 -119 174 -404q0 -235 -128 -369.5t-341 -136.5z" />
    <glyph glyph-name="ugrave" unicode="&#xf9;" horiz-adv-x="1028" 
d="M752 1047h-144l-303 262l182 34zM760 -25l-43 99q-73 -40 -155.5 -69.5t-145.5 -29.5q-129 0 -206 73.5t-77 199.5v670l176 28v-633q0 -95 49.5 -145.5t130.5 -50.5q82 0 216 63v738l176 28v-942z" />
    <glyph glyph-name="uacute" unicode="&#xfa;" horiz-adv-x="1028" 
d="M369 1047l264 296l182 -34l-303 -262h-143zM760 -25l-43 99q-73 -40 -155.5 -69.5t-145.5 -29.5q-129 0 -206 73.5t-77 199.5v670l176 28v-633q0 -95 49.5 -145.5t130.5 -50.5q82 0 216 63v738l176 28v-942z" />
    <glyph glyph-name="ucircumflex" unicode="&#xfb;" horiz-adv-x="1028" 
d="M705 1047l-179 157l-178 -157h-137l254 296h123l254 -296h-137zM760 -25l-43 99q-73 -40 -155.5 -69.5t-145.5 -29.5q-129 0 -206 73.5t-77 199.5v670l176 28v-633q0 -95 49.5 -145.5t130.5 -50.5q82 0 216 63v738l176 28v-942z" />
    <glyph glyph-name="udieresis" unicode="&#xfc;" horiz-adv-x="1028" 
d="M594 1219q0 30 37.5 70t64.5 40q28 0 71.5 -31.5t43.5 -60.5q0 -30 -38.5 -70.5t-63.5 -40.5q-28 0 -71.5 32.5t-43.5 60.5zM227 1219q0 30 38 70t65 40q28 0 71 -31.5t43 -60.5q0 -30 -38.5 -70.5t-63.5 -40.5q-28 0 -71.5 32.5t-43.5 60.5zM760 -25l-43 99
q-73 -40 -155.5 -69.5t-145.5 -29.5q-129 0 -206 73.5t-77 199.5v670l176 28v-633q0 -95 49.5 -145.5t130.5 -50.5q82 0 216 63v738l176 28v-942z" />
    <glyph glyph-name="yacute" unicode="&#xfd;" horiz-adv-x="911" 
d="M340 1047l264 296l182 -34l-303 -262h-143zM66 -471q-36 0 -56 4l-16 152q295 -31 430 315h-70l-323 907l180 31l266 -784q229 699 250 768h176q-234 -702 -330 -957q-83 -217 -213.5 -326.5t-293.5 -109.5z" />
    <glyph glyph-name="thorn" unicode="&#xfe;" horiz-adv-x="1048" 
d="M549 111q106 0 172.5 88.5t66.5 265.5q0 93 -23.5 162.5t-62.5 106.5t-81.5 54t-88.5 17q-101 0 -208 -57v-598q112 -39 225 -39zM324 -422l-177 -29v1840l177 28v-569q179 98 276 98q55 0 106.5 -16t99.5 -52t83.5 -89t56.5 -131.5t21 -174.5q0 -126 -39.5 -226.5
t-104.5 -160t-141 -90.5t-156 -31q-94 0 -202 33v-430z" />
    <glyph glyph-name="ydieresis" unicode="&#xff;" horiz-adv-x="911" 
d="M561 1219q0 30 38 70t65 40q28 0 71 -31.5t43 -60.5q0 -30 -38.5 -70.5t-63.5 -40.5q-28 0 -71.5 32.5t-43.5 60.5zM195 1219q0 30 37.5 70t64.5 40q28 0 71.5 -31.5t43.5 -60.5q0 -30 -38.5 -70.5t-64.5 -40.5q-28 0 -71 32.5t-43 60.5zM66 -471q-36 0 -56 4l-16 152
q295 -31 430 315h-70l-323 907l180 31l266 -784q229 699 250 768h176q-234 -702 -330 -957q-83 -217 -213.5 -326.5t-293.5 -109.5z" />
    <glyph glyph-name="Amacron" unicode="&#x100;" horiz-adv-x="1153" 
d="M850 1567v-31l-37 -94h-502v31l37 94h502zM754 528l-189 541l-182 -541h371zM936 0l-135 389h-465l-131 -389h-185l453 1253h211l449 -1253h-197z" />
    <glyph glyph-name="amacron" unicode="&#x101;" 
d="M713 1260v-31l-37 -94h-502v30l37 95h502zM649 -25l-41 107q-166 -107 -264 -107q-116 0 -191 67.5t-75 178.5q0 136 127.5 217.5t394.5 85.5v84q0 96 -46.5 146.5t-131.5 50.5q-103 0 -279 -62l-39 121q111 42 194 62t179 20q138 0 215.5 -75t77.5 -222v-645zM391 109
q79 0 209 67v217q-62 8 -145 8q-99 0 -158 -38t-59 -107q0 -70 46 -108.5t107 -38.5z" />
    <glyph glyph-name="Abreve" unicode="&#x102;" horiz-adv-x="1153" 
d="M578 1489q80 0 127 49.5t63 132.5h102q0 -129 -90 -223t-213 -94q-132 0 -206 90.5t-74 226.5h102q16 -83 62.5 -132.5t126.5 -49.5zM754 528l-189 541l-182 -541h371zM936 0l-135 389h-465l-131 -389h-185l453 1253h211l449 -1253h-197z" />
    <glyph glyph-name="abreve" unicode="&#x103;" 
d="M436 1182q80 0 127.5 50t63.5 132h102q0 -129 -90 -223t-213 -94q-133 0 -207 90.5t-74 226.5h103q36 -182 188 -182zM649 -25l-41 107q-166 -107 -264 -107q-116 0 -191 67.5t-75 178.5q0 136 127.5 217.5t394.5 85.5v84q0 96 -46.5 146.5t-131.5 50.5q-103 0 -279 -62
l-39 121q111 42 194 62t179 20q138 0 215.5 -75t77.5 -222v-645zM391 109q79 0 209 67v217q-62 8 -145 8q-99 0 -158 -38t-59 -107q0 -70 46 -108.5t107 -38.5z" />
    <glyph glyph-name="Aogonek" unicode="&#x104;" horiz-adv-x="1153" 
d="M754 528l-189 541l-182 -541h371zM995 0h-59l-135 389h-465l-131 -389h-185l453 1253h211l449 -1253h-21q-85 -62 -137.5 -131.5t-52.5 -126.5q0 -39 26 -61.5t62 -22.5q35 0 84 27l28 -84q-80 -43 -151 -43q-82 0 -127 45t-45 121q0 77 59 150.5t137 125.5z" />
    <glyph glyph-name="aogonek" unicode="&#x105;" 
d="M627 -442q-82 0 -127 45t-45 121q0 74 55 145.5t131 124.5l-33 88q-166 -107 -264 -107q-116 0 -191 67.5t-75 178.5q0 136 127.5 217.5t394.5 85.5v84q0 96 -46.5 146.5t-131.5 50.5q-103 0 -279 -62l-39 121q111 42 194 62t179 20q138 0 215.5 -75t77.5 -222v-645
l-16 -4h14q-85 -62 -137.5 -131.5t-52.5 -126.5q0 -39 26 -61.5t62 -22.5q35 0 84 27l28 -84q-80 -43 -151 -43zM391 109q79 0 209 67v217q-62 8 -145 8q-99 0 -158 -38t-59 -107q0 -70 46 -108.5t107 -38.5z" />
    <glyph glyph-name="Cacute" unicode="&#x106;" horiz-adv-x="1118" 
d="M502 1354l264 297l182 -35l-303 -262h-143zM1034 201l27 -142q-59 -34 -162 -59t-209 -25q-131 0 -240.5 41t-189 118.5t-124 198t-44.5 271.5q0 196 73.5 348t215 239t330.5 87q89 0 187 -17t149 -40l-50 -156q-58 27 -153 45t-185 18q-55 0 -106 -14t-100.5 -49
t-86 -88t-59 -138t-22.5 -192q0 -138 36.5 -240.5t100 -161t140 -86.5t165.5 -28q164 0 307 70z" />
    <glyph glyph-name="cacute" unicode="&#x107;" horiz-adv-x="843" 
d="M387 1047l264 296l183 -34l-304 -262h-143zM774 158l25 -117q-55 -27 -138.5 -46.5t-158.5 -19.5q-193 0 -306.5 123t-113.5 340q0 230 127 369t321 139q177 0 250 -41l-30 -137q-127 45 -226 47q-121 -2 -191.5 -87.5t-70.5 -258.5q0 -176 79 -265t206 -89q109 0 227 43
z" />
    <glyph glyph-name="Ccircumflex" unicode="&#x108;" horiz-adv-x="1118" 
d="M868 1354l-178 157l-178 -157h-137l254 297h123l254 -297h-138zM1034 201l27 -142q-59 -34 -162 -59t-209 -25q-131 0 -240.5 41t-189 118.5t-124 198t-44.5 271.5q0 196 73.5 348t215 239t330.5 87q89 0 187 -17t149 -40l-50 -156q-58 27 -153 45t-185 18
q-55 0 -106 -14t-100.5 -49t-86 -88t-59 -138t-22.5 -192q0 -138 36.5 -240.5t100 -161t140 -86.5t165.5 -28q164 0 307 70z" />
    <glyph glyph-name="ccircumflex" unicode="&#x109;" horiz-adv-x="843" 
d="M662 1047l-179 157l-178 -157h-137l254 296h123l254 -296h-137zM774 158l25 -117q-55 -27 -138.5 -46.5t-158.5 -19.5q-193 0 -306.5 123t-113.5 340q0 230 127 369t321 139q177 0 250 -41l-30 -137q-127 45 -226 47q-121 -2 -191.5 -87.5t-70.5 -258.5q0 -176 79 -265
t206 -89q109 0 227 43z" />
    <glyph glyph-name="Cdotaccent" unicode="&#x10a;" horiz-adv-x="1118" 
d="M549 1516q0 33 42.5 77.5t72.5 44.5q31 0 79 -35.5t48 -68.5t-43 -77t-72 -44q-32 0 -79.5 35.5t-47.5 67.5zM1034 201l27 -142q-59 -34 -162 -59t-209 -25q-131 0 -240.5 41t-189 118.5t-124 198t-44.5 271.5q0 196 73.5 348t215 239t330.5 87q89 0 187 -17t149 -40
l-50 -156q-58 27 -153 45t-185 18q-55 0 -106 -14t-100.5 -49t-86 -88t-59 -138t-22.5 -192q0 -138 36.5 -240.5t100 -161t140 -86.5t165.5 -28q164 0 307 70z" />
    <glyph glyph-name="cdotaccent" unicode="&#x10b;" horiz-adv-x="843" 
d="M369 1208q0 33 42 78t72 45q31 0 79 -35.5t48 -68.5t-42.5 -77t-71.5 -44q-32 0 -79.5 35t-47.5 67zM774 158l25 -117q-55 -27 -138.5 -46.5t-158.5 -19.5q-193 0 -306.5 123t-113.5 340q0 230 127 369t321 139q177 0 250 -41l-30 -137q-127 45 -226 47
q-121 -2 -191.5 -87.5t-70.5 -258.5q0 -176 79 -265t206 -89q109 0 227 43z" />
    <glyph glyph-name="Ccaron" unicode="&#x10c;" horiz-adv-x="1118" 
d="M731 1362h-123l-254 297h138l178 -158l178 158h137zM1034 201l27 -142q-59 -34 -162 -59t-209 -25q-131 0 -240.5 41t-189 118.5t-124 198t-44.5 271.5q0 196 73.5 348t215 239t330.5 87q89 0 187 -17t149 -40l-50 -156q-58 27 -153 45t-185 18q-55 0 -106 -14
t-100.5 -49t-86 -88t-59 -138t-22.5 -192q0 -138 36.5 -240.5t100 -161t140 -86.5t165.5 -28q164 0 307 70z" />
    <glyph glyph-name="ccaron" unicode="&#x10d;" horiz-adv-x="843" 
d="M578 1055h-123l-254 297h137l178 -158l178 158h137zM774 158l25 -117q-55 -27 -138.5 -46.5t-158.5 -19.5q-193 0 -306.5 123t-113.5 340q0 230 127 369t321 139q177 0 250 -41l-30 -137q-127 45 -226 47q-121 -2 -191.5 -87.5t-70.5 -258.5q0 -176 79 -265t206 -89
q109 0 227 43z" />
    <glyph glyph-name="Dcaron" unicode="&#x10e;" horiz-adv-x="1312" 
d="M682 1362h-123l-254 297h137l179 -158l178 158h137zM184 1253h432q277 0 441 -154.5t164 -426.5q0 -209 -90.5 -364.5t-247.5 -235.5t-359 -80q-167 0 -340 28v1233zM373 1116v-964q107 -17 223 -17q68 0 129 16.5t117 54.5t96 95t64 143.5t24 194.5q0 230 -130 353.5
t-341 123.5h-182z" />
    <glyph glyph-name="dcaron" unicode="&#x10f;" horiz-adv-x="1239" 
d="M1049 1354q3 24 37 44.5t67 20.5q31 0 56.5 -52t25.5 -107q0 -58 -33.5 -128t-114.5 -184l-71 45q42 78 61 123.5t19 83.5q0 40 -23.5 93t-23.5 61zM770 -25l-41 107q-74 -44 -154 -75.5t-135 -31.5t-106.5 16t-99 52t-83 89t-56.5 131.5t-21 174.5q0 126 39.5 226.5
t104 160t140.5 90.5t156 31q95 0 203 -33v476l176 28v-1413zM508 113q94 0 209 61v598q-112 39 -225 39q-107 0 -173.5 -88.5t-66.5 -265.5q0 -94 23.5 -163.5t62.5 -107.5t81.5 -55.5t88.5 -17.5z" />
    <glyph glyph-name="Dcroat" unicode="&#x110;" horiz-adv-x="1323" 
d="M535 -8q-167 0 -340 28v558h-134v135h134v540h432q277 0 440.5 -154.5t163.5 -426.5q0 -157 -52 -285.5t-144.5 -214.5t-220.5 -133t-279 -47zM606 135q68 0 129 16.5t117 54.5t96 95t64 143.5t24 194.5q0 230 -130 353.5t-341 123.5h-182v-403h350l-20 -135h-330v-426
q107 -17 223 -17z" />
    <glyph glyph-name="dcroat" unicode="&#x111;" horiz-adv-x="1048" 
d="M770 -25l-41 107q-74 -44 -154 -75.5t-135 -31.5t-106.5 16t-99 52t-83 89t-56.5 131.5t-21 174.5q0 126 39.5 226.5t104 160t140.5 90.5t156 31q95 0 203 -33v217h-279v31l37 76h242v152l176 28v-180h151v-31l-36 -76h-115v-1126zM508 113q94 0 209 61v598
q-112 39 -225 39q-107 0 -173.5 -88.5t-66.5 -265.5q0 -94 23.5 -163.5t62.5 -107.5t81.5 -55.5t88.5 -17.5z" />
    <glyph glyph-name="Emacron" unicode="&#x112;" horiz-adv-x="1021" 
d="M831 1567v-31l-36 -94h-502v31l37 94h501zM184 0v1253h723l-20 -149l-514 8v-395h475l-21 -142l-454 7v-435l567 9l-20 -156h-736z" />
    <glyph glyph-name="emacron" unicode="&#x113;" horiz-adv-x="919" 
d="M776 1260v-31l-37 -94h-501v30l36 95h502zM473 827q-96 0 -148.5 -53.5t-66.5 -183.5h416q0 237 -201 237zM846 49q-169 -74 -334 -74q-191 0 -310.5 116.5t-119.5 346.5q0 239 117.5 373.5t306.5 134.5q162 0 249 -96t87 -254q0 -73 -4 -119h-586v-14q0 -95 25 -165
t68.5 -108.5t94.5 -56.5t111 -18q142 0 264 51z" />
    <glyph glyph-name="Ebreve" unicode="&#x114;" horiz-adv-x="1021" 
d="M551 1489q80 0 127 49.5t63 132.5h103q0 -129 -90 -223t-213 -94q-133 0 -207 90.5t-74 226.5h102q16 -83 62.5 -132.5t126.5 -49.5zM184 0v1253h723l-20 -149l-514 8v-395h475l-21 -142l-454 7v-435l567 9l-20 -156h-736z" />
    <glyph glyph-name="ebreve" unicode="&#x115;" horiz-adv-x="919" 
d="M485 1182q80 0 127.5 50t63.5 132h102q0 -129 -90 -223t-213 -94q-132 0 -206 90.5t-74 226.5h102q36 -182 188 -182zM473 827q-96 0 -148.5 -53.5t-66.5 -183.5h416q0 237 -201 237zM846 49q-169 -74 -334 -74q-191 0 -310.5 116.5t-119.5 346.5q0 239 117.5 373.5
t306.5 134.5q162 0 249 -96t87 -254q0 -73 -4 -119h-586v-14q0 -95 25 -165t68.5 -108.5t94.5 -56.5t111 -18q142 0 264 51z" />
    <glyph glyph-name="Edotaccent" unicode="&#x116;" horiz-adv-x="1021" 
d="M440 1516q0 33 42.5 77.5t72.5 44.5q31 0 79 -35.5t48 -68.5t-43 -77t-72 -44q-32 0 -79.5 35.5t-47.5 67.5zM184 0v1253h723l-20 -149l-514 8v-395h475l-21 -142l-454 7v-435l567 9l-20 -156h-736z" />
    <glyph glyph-name="edotaccent" unicode="&#x117;" horiz-adv-x="919" 
d="M371 1208q0 33 42 78t72 45q31 0 79 -35.5t48 -68.5t-42.5 -77t-71.5 -44q-32 0 -79.5 35t-47.5 67zM473 827q-96 0 -148.5 -53.5t-66.5 -183.5h416q0 237 -201 237zM846 49q-169 -74 -334 -74q-191 0 -310.5 116.5t-119.5 346.5q0 239 117.5 373.5t306.5 134.5
q162 0 249 -96t87 -254q0 -73 -4 -119h-586v-14q0 -95 25 -165t68.5 -108.5t94.5 -56.5t111 -18q142 0 264 51z" />
    <glyph glyph-name="Eogonek" unicode="&#x118;" horiz-adv-x="1021" 
d="M184 0v1253h723l-20 -149l-514 8v-395h475l-21 -142l-454 7v-435l567 9l-20 -156h-736zM586 -276q0 77 59 150.5t137 125.5h117q-85 -62 -137.5 -131.5t-52.5 -126.5q0 -39 26 -61.5t62 -22.5q35 0 84 27l28 -84q-80 -43 -151 -43q-82 0 -127 45t-45 121z" />
    <glyph glyph-name="eogonek" unicode="&#x119;" horiz-adv-x="919" 
d="M473 827q-96 0 -148.5 -53.5t-66.5 -183.5h416q0 237 -201 237zM805 -375q-80 -43 -152 -43q-82 0 -127 45t-45 121q0 63 41 125t103 111q-83 -9 -113 -9q-191 0 -310.5 116.5t-119.5 346.5q0 239 117.5 373.5t306.5 134.5q162 0 249 -96t87 -254q0 -73 -4 -119h-586v-14
q0 -95 25 -165t68.5 -108.5t94.5 -56.5t111 -18q142 0 264 51l31 -117q-10 -4 -31 -12t-31 -12h11q-85 -62 -138 -131.5t-53 -126.5q0 -39 26 -61.5t62 -22.5q37 0 84 26z" />
    <glyph glyph-name="Ecaron" unicode="&#x11a;" horiz-adv-x="1021" 
d="M623 1362h-123l-254 297h137l178 -158l178 158h138zM184 0v1253h723l-20 -149l-514 8v-395h475l-21 -142l-454 7v-435l567 9l-20 -156h-736z" />
    <glyph glyph-name="ecaron" unicode="&#x11b;" horiz-adv-x="919" 
d="M539 1055h-123l-254 297h137l178 -158l178 158h138zM473 827q-96 0 -148.5 -53.5t-66.5 -183.5h416q0 237 -201 237zM846 49q-169 -74 -334 -74q-191 0 -310.5 116.5t-119.5 346.5q0 239 117.5 373.5t306.5 134.5q162 0 249 -96t87 -254q0 -73 -4 -119h-586v-14
q0 -95 25 -165t68.5 -108.5t94.5 -56.5t111 -18q142 0 264 51z" />
    <glyph glyph-name="Gcircumflex" unicode="&#x11c;" horiz-adv-x="1212" 
d="M850 1354l-178 157l-178 -157h-138l254 297h123l254 -297h-137zM1090 66q-73 -38 -178.5 -64.5t-196.5 -26.5q-135 0 -246.5 37t-196.5 111.5t-132.5 197t-47.5 283.5q0 194 78 347t224 240t335 87q97 0 202 -20t163 -50l-56 -155q-166 75 -358 75q-55 0 -108 -14
t-106 -49t-92.5 -88t-64 -138t-24.5 -192q0 -114 25.5 -204.5t68 -149t102 -97.5t123.5 -55t137 -16q91 0 181 22l-2 476h170v-557z" />
    <glyph glyph-name="gcircumflex" unicode="&#x11d;" horiz-adv-x="942" 
d="M623 1047l-179 157l-178 -157h-137l254 296h123l254 -296h-137zM612 631q0 105 -57.5 152.5t-146.5 47.5q-83 0 -121.5 -40t-38.5 -142q0 -98 58.5 -149t144.5 -51q77 0 119 42t42 140zM872 -63q0 -98 -67.5 -181.5t-180.5 -132.5t-243 -49q-154 0 -245 58t-91 159
q0 110 141 203q31 21 107 65q-56 18 -84.5 52t-28.5 77q0 73 107 162q-95 27 -151 97.5t-56 173.5q0 150 105.5 237.5t277.5 87.5q109 0 188 -51q26 5 94.5 18.5t119 23.5t50.5 9v-153h-38l-140 16q43 -64 43 -152q0 -150 -104.5 -236.5t-269.5 -86.5h-13q-53 -49 -53 -86
q0 -31 31.5 -48.5t107.5 -29.5l185 -31q102 -17 155 -61t53 -141zM444 -295q114 0 189.5 54t75.5 128q0 51 -39 80.5t-131 44.5l-127 23q-72 -39 -101 -60q-100 -71 -100 -147q0 -57 59.5 -90t173.5 -33z" />
    <glyph glyph-name="Gbreve" unicode="&#x11e;" horiz-adv-x="1212" 
d="M670 1489q80 0 127 49.5t63 132.5h103q0 -129 -90.5 -223t-213.5 -94q-132 0 -206 90.5t-74 226.5h102q16 -83 62.5 -132.5t126.5 -49.5zM1090 66q-73 -38 -178.5 -64.5t-196.5 -26.5q-135 0 -246.5 37t-196.5 111.5t-132.5 197t-47.5 283.5q0 194 78 347t224 240t335 87
q97 0 202 -20t163 -50l-56 -155q-166 75 -358 75q-55 0 -108 -14t-106 -49t-92.5 -88t-64 -138t-24.5 -192q0 -114 25.5 -204.5t68 -149t102 -97.5t123.5 -55t137 -16q91 0 181 22l-2 476h170v-557z" />
    <glyph glyph-name="gbreve" unicode="&#x11f;" horiz-adv-x="942" 
d="M422 1182q80 0 127 49.5t63 132.5h103q0 -129 -90 -223t-213 -94q-133 0 -207 90.5t-74 226.5h102q16 -83 62.5 -132.5t126.5 -49.5zM612 631q0 105 -57.5 152.5t-146.5 47.5q-83 0 -121.5 -40t-38.5 -142q0 -98 58.5 -149t144.5 -51q77 0 119 42t42 140zM872 -63
q0 -98 -67.5 -181.5t-180.5 -132.5t-243 -49q-154 0 -245 58t-91 159q0 110 141 203q31 21 107 65q-56 18 -84.5 52t-28.5 77q0 73 107 162q-95 27 -151 97.5t-56 173.5q0 150 105.5 237.5t277.5 87.5q109 0 188 -51q26 5 94.5 18.5t119 23.5t50.5 9v-153h-38l-140 16
q43 -64 43 -152q0 -150 -104.5 -236.5t-269.5 -86.5h-13q-53 -49 -53 -86q0 -31 31.5 -48.5t107.5 -29.5l185 -31q102 -17 155 -61t53 -141zM444 -295q114 0 189.5 54t75.5 128q0 51 -39 80.5t-131 44.5l-127 23q-72 -39 -101 -60q-100 -71 -100 -147q0 -57 59.5 -90
t173.5 -33z" />
    <glyph glyph-name="Gdotaccent" unicode="&#x120;" horiz-adv-x="1212" 
d="M551 1516q0 33 42.5 77.5t72.5 44.5q31 0 79 -35.5t48 -68.5t-43 -77t-72 -44q-32 0 -79.5 35.5t-47.5 67.5zM1090 66q-73 -38 -178.5 -64.5t-196.5 -26.5q-135 0 -246.5 37t-196.5 111.5t-132.5 197t-47.5 283.5q0 194 78 347t224 240t335 87q97 0 202 -20t163 -50
l-56 -155q-166 75 -358 75q-55 0 -108 -14t-106 -49t-92.5 -88t-64 -138t-24.5 -192q0 -114 25.5 -204.5t68 -149t102 -97.5t123.5 -55t137 -16q91 0 181 22l-2 476h170v-557z" />
    <glyph glyph-name="gdotaccent" unicode="&#x121;" horiz-adv-x="942" 
d="M307 1208q0 33 42.5 78t72.5 45q31 0 79 -35.5t48 -68.5t-43 -77t-72 -44q-32 0 -79.5 35t-47.5 67zM612 631q0 105 -57.5 152.5t-146.5 47.5q-83 0 -121.5 -40t-38.5 -142q0 -98 58.5 -149t144.5 -51q77 0 119 42t42 140zM872 -63q0 -98 -67.5 -181.5t-180.5 -132.5
t-243 -49q-154 0 -245 58t-91 159q0 110 141 203q31 21 107 65q-56 18 -84.5 52t-28.5 77q0 73 107 162q-95 27 -151 97.5t-56 173.5q0 150 105.5 237.5t277.5 87.5q109 0 188 -51q26 5 94.5 18.5t119 23.5t50.5 9v-153h-38l-140 16q43 -64 43 -152q0 -150 -104.5 -236.5
t-269.5 -86.5h-13q-53 -49 -53 -86q0 -31 31.5 -48.5t107.5 -29.5l185 -31q102 -17 155 -61t53 -141zM444 -295q114 0 189.5 54t75.5 128q0 51 -39 80.5t-131 44.5l-127 23q-72 -39 -101 -60q-100 -71 -100 -147q0 -57 59.5 -90t173.5 -33z" />
    <glyph glyph-name="Gcommaaccent" unicode="&#x122;" horiz-adv-x="1212" 
d="M1090 66q-73 -38 -178.5 -64.5t-196.5 -26.5q-135 0 -246.5 37t-196.5 111.5t-132.5 197t-47.5 283.5q0 194 78 347t224 240t335 87q97 0 202 -20t163 -50l-56 -155q-166 75 -358 75q-55 0 -108 -14t-106 -49t-92.5 -88t-64 -138t-24.5 -192q0 -114 25.5 -204.5t68 -149
t102 -97.5t123.5 -55t137 -16q91 0 181 22l-2 476h170v-557zM586 -172q0 28 29.5 55t60.5 27t71.5 -44t40.5 -81q0 -38 -28 -103t-96 -190l-91 35q76 158 76 203q0 9 -31.5 42t-31.5 56z" />
    <glyph glyph-name="gcommaaccent" unicode="&#x123;" horiz-adv-x="942" 
d="M543 1122q0 -28 -29.5 -55t-60.5 -27q-32 0 -72.5 44t-40.5 81t28 102t97 191l90 -35q-76 -158 -76 -202q0 -9 32 -42.5t32 -56.5zM612 631q0 105 -57.5 152.5t-146.5 47.5q-83 0 -121.5 -40t-38.5 -142q0 -98 58.5 -149t144.5 -51q77 0 119 42t42 140zM872 -63
q0 -98 -67.5 -181.5t-180.5 -132.5t-243 -49q-154 0 -245 58t-91 159q0 110 141 203q31 21 107 65q-56 18 -84.5 52t-28.5 77q0 73 107 162q-95 27 -151 97.5t-56 173.5q0 150 105.5 237.5t277.5 87.5q109 0 188 -51q26 5 94.5 18.5t119 23.5t50.5 9v-153h-38l-140 16
q43 -64 43 -152q0 -150 -104.5 -236.5t-269.5 -86.5h-13q-53 -49 -53 -86q0 -31 31.5 -48.5t107.5 -29.5l185 -31q102 -17 155 -61t53 -141zM444 -295q114 0 189.5 54t75.5 128q0 51 -39 80.5t-131 44.5l-127 23q-72 -39 -101 -60q-100 -71 -100 -147q0 -57 59.5 -90
t173.5 -33z" />
    <glyph glyph-name="Hcircumflex" unicode="&#x124;" horiz-adv-x="1327" 
d="M842 1354l-178 157l-179 -157h-137l254 297h123l254 -297h-137zM954 0v573h-581v-573h-189v1253h189v-528h581v528h189v-1253h-189z" />
    <glyph glyph-name="hcircumflex" unicode="&#x125;" horiz-adv-x="1028" 
d="M424 1436l-178 157l-178 -157h-138l254 297h123l254 -297h-137zM539 803q-70 0 -215 -60v-743h-177v1389l177 28v-563q69 39 147.5 65.5t140.5 26.5q54 0 104 -16.5t90.5 -48t64.5 -84.5t24 -119v-678h-176v608q0 92 -48 143.5t-132 51.5z" />
    <glyph glyph-name="Hbar" unicode="&#x126;" horiz-adv-x="1327" 
d="M954 725v184h-581v-184h581zM954 0v573h-581v-573h-189v909h-135v31l37 94h98v219h189v-219h581v219h189v-219h135v-30l-37 -95h-98v-909h-189z" />
    <glyph glyph-name="hbar" unicode="&#x127;" horiz-adv-x="1028" 
d="M539 803q-70 0 -215 -60v-743h-177v1130h-135v31l35 76h100v152l177 28v-180h294v-31l-34 -76h-260v-276q69 39 147.5 65.5t140.5 26.5q54 0 104 -16.5t90.5 -48t64.5 -84.5t24 -119v-678h-176v608q0 92 -48 143.5t-132 51.5z" />
    <glyph glyph-name="Itilde" unicode="&#x128;" horiz-adv-x="557" 
d="M514 1608l53 -80q-104 -115 -176 -115q-37 0 -120.5 33t-104.5 33q-60 0 -119 -49l-57 79q118 111 192 111q38 0 113.5 -30.5t99.5 -30.5q56 0 119 49zM373 1253v-1253h-189v1253h189z" />
    <glyph glyph-name="itilde" unicode="&#x129;" horiz-adv-x="471" 
d="M463 1296l59 -75q-20 -25 -33.5 -40t-37.5 -35.5t-50.5 -31t-56.5 -10.5q-40 0 -117.5 32.5t-101.5 32.5q-33 0 -64 -18.5t-45 -32.5l-67 74q1 1 12 13t15.5 16.5t17 16.5t20 18t21 16.5t24 16t24 11.5t27 8.5t27.5 2.5q46 0 115.5 -31t95.5 -31q24 0 45.5 7t33.5 15
t36 25zM324 946v-946h-177v918z" />
    <glyph glyph-name="Imacron" unicode="&#x12a;" horiz-adv-x="557" 
d="M528 1567v-31l-36 -94h-461v31l37 94h460zM373 1253v-1253h-189v1253h189z" />
    <glyph glyph-name="imacron" unicode="&#x12b;" horiz-adv-x="471" 
d="M463 1253v-30l-37 -103h-418v31l37 102h418zM324 946v-946h-177v918z" />
    <glyph glyph-name="Ibreve" unicode="&#x12c;" horiz-adv-x="557" 
d="M279 1503q73 0 114.5 50.5t52.5 132.5h97q0 -129 -81.5 -223.5t-191.5 -94.5q-120 0 -187 91t-67 227h97q11 -82 53 -132.5t113 -50.5zM373 1253v-1253h-189v1253h189z" />
    <glyph glyph-name="ibreve" unicode="&#x12d;" horiz-adv-x="471" 
d="M236 1192q78 0 123.5 57t62.5 144h96q0 -132 -84.5 -233t-204.5 -101q-88 0 -152.5 48.5t-94 122.5t-29.5 163h96q17 -87 63 -144t124 -57zM324 946v-946h-177v918z" />
    <glyph glyph-name="Iogonek" unicode="&#x12e;" horiz-adv-x="557" 
d="M238 0h-54v1253h189v-1253h-19q-85 -62 -137.5 -131.5t-52.5 -126.5q0 -39 26 -61.5t62 -22.5q35 0 84 27l29 -84q-80 -43 -152 -43q-82 0 -127 45t-45 121q0 77 59.5 150.5t137.5 125.5z" />
    <glyph glyph-name="iogonek" unicode="&#x12f;" horiz-adv-x="471" 
d="M119 1225q0 33 42 78t72 45q31 0 79 -36t48 -69t-42.5 -77t-71.5 -44q-32 0 -79.5 35.5t-47.5 67.5zM219 0h-72v918l177 28v-946h12q-85 -62 -138 -131.5t-53 -126.5q0 -39 26 -61.5t62 -22.5q35 0 84 27l29 -84q-80 -43 -151 -43q-82 0 -127 45t-45 121q0 77 59 150.5
t137 125.5z" />
    <glyph glyph-name="Idotaccent" unicode="&#x130;" horiz-adv-x="557" 
d="M162 1516q0 33 42 77.5t72 44.5q31 0 79 -35.5t48 -68.5t-42.5 -77t-71.5 -44q-32 0 -79.5 35.5t-47.5 67.5zM373 1253v-1253h-189v1253h189z" />
    <glyph glyph-name="dotlessi" unicode="&#x131;" horiz-adv-x="471" 
d="M324 946v-946h-177v918z" />
    <glyph glyph-name="IJ" unicode="&#x132;" horiz-adv-x="1257" 
d="M373 1253v-1253h-189v1253h189zM1094 1253v-893q0 -189 -103 -287t-270 -98q-81 0 -164 27l31 150q100 -31 164 -31q71 0 112 49t41 139v944h189z" />
    <glyph glyph-name="ij" unicode="&#x133;" horiz-adv-x="942" 
d="M586 1225q0 33 42 78t72 45q31 0 79 -36t48 -69t-42.5 -77t-71.5 -44q-32 0 -79.5 35.5t-47.5 67.5zM119 1225q0 33 42 78t72 45q31 0 79 -36t48 -69t-42.5 -77t-71.5 -44q-32 0 -79.5 35.5t-47.5 67.5zM618 -33v951l177 28v-956q0 -124 -44.5 -226t-131 -163.5
t-199.5 -61.5l-33 131q62 12 100.5 28.5t70.5 48.5t46 85.5t14 134.5zM147 918l177 28v-946h-177v918z" />
    <glyph glyph-name="Jcircumflex" unicode="&#x134;" horiz-adv-x="720" 
d="M641 1354l-178 157l-178 -157h-138l254 297h123l254 -297h-137zM557 1253v-893q0 -189 -103 -287t-270 -98q-81 0 -164 27l31 150q100 -31 164 -31q71 0 112.5 49t41.5 139v944h188z" />
    <glyph glyph-name="jcircumflex" unicode="&#x135;" horiz-adv-x="471" 
d="M424 1047l-178 157l-178 -157h-138l254 296h123l254 -296h-137zM147 -33v951l177 28v-956q0 -124 -44.5 -226t-131 -163.5t-199.5 -61.5l-33 131q62 12 100.5 28.5t70.5 48.5t46 85.5t14 134.5z" />
    <glyph glyph-name="Kcommaaccent" unicode="&#x136;" horiz-adv-x="1173" 
d="M1163 0h-245l-545 645l526 608h219l-543 -591zM373 1253v-1253h-189v1253h189zM492 -172q0 28 29.5 55t60.5 27t71.5 -44t40.5 -81t-28 -102t-97 -191l-90 35q76 158 76 203q0 9 -31.5 42t-31.5 56z" />
    <glyph glyph-name="kcommaaccent" unicode="&#x137;" horiz-adv-x="919" 
d="M147 0v1389l177 28v-1417h-177zM918 0h-213l-379 502l-2 2l370 418h199l-381 -410zM377 -172q0 28 29.5 55t60.5 27q32 0 72.5 -44t40.5 -81t-28 -102t-97 -191l-90 35q75 156 75 203q0 9 -31.5 42t-31.5 56z" />
    <glyph glyph-name="Lacute" unicode="&#x139;" horiz-adv-x="913" 
d="M168 1354l264 297l182 -35l-303 -262h-143zM184 0v1253h189v-1106l518 9l-21 -156h-686z" />
    <glyph glyph-name="lacute" unicode="&#x13a;" horiz-adv-x="542" 
d="M131 1460l264 297l183 -35l-304 -262h-143zM473 133l19 -125q-26 -12 -76 -22.5t-90 -10.5q-80 0 -129.5 45.5t-49.5 131.5v1237l175 28v-1233q0 -31 18.5 -48t50.5 -17q47 0 82 14z" />
    <glyph glyph-name="Lcommaaccent" unicode="&#x13b;" horiz-adv-x="913" 
d="M184 0v1253h189v-1106l518 9l-21 -156h-686zM420 -172q0 28 29.5 55t60.5 27q32 0 72.5 -44t40.5 -81t-28 -102t-97 -191l-90 35q75 156 75 203q0 9 -31.5 42t-31.5 56z" />
    <glyph glyph-name="lcommaaccent" unicode="&#x13c;" horiz-adv-x="542" 
d="M473 133l19 -125q-26 -12 -76 -22.5t-90 -10.5q-80 0 -129.5 45.5t-49.5 131.5v1237l175 28v-1233q0 -31 18.5 -48t50.5 -17q47 0 82 14zM217 -172q0 28 29.5 55t60.5 27q32 0 72.5 -44t40.5 -81t-28 -102t-97 -191l-90 35q76 158 76 203q0 9 -32 42t-32 56z" />
    <glyph glyph-name="Lcaron" unicode="&#x13d;" horiz-adv-x="921" 
d="M610 1190q3 24 37.5 44.5t67.5 20.5q31 0 56.5 -52t25.5 -107q0 -58 -33.5 -128t-114.5 -184l-71 45q42 76 60.5 122.5t18.5 84.5q0 40 -23.5 93t-23.5 61zM184 0v1253h189v-1106l518 9l-21 -156h-686z" />
    <glyph glyph-name="lcaron" unicode="&#x13e;" horiz-adv-x="655" 
d="M465 1354q3 24 37 44.5t67 20.5q31 0 56.5 -52t25.5 -107q0 -58 -33.5 -128t-113.5 -184l-72 45q42 78 61 123.5t19 83.5q0 40 -23.5 93t-23.5 61zM473 133l19 -125q-26 -12 -76 -22.5t-90 -10.5q-80 0 -129.5 45.5t-49.5 131.5v1237l175 28v-1233q0 -31 18.5 -48
t50.5 -17q47 0 82 14z" />
    <glyph glyph-name="Ldot" unicode="&#x13f;" horiz-adv-x="921" 
d="M627 698q0 33 42 78t72 45q31 0 79 -35.5t48 -68.5t-42.5 -77t-71.5 -44q-32 0 -79.5 35t-47.5 67zM184 0v1253h189v-1106l518 9l-21 -156h-686z" />
    <glyph glyph-name="ldot" unicode="&#x140;" horiz-adv-x="671" 
d="M473 133l19 -125q-26 -12 -76 -22.5t-90 -10.5q-80 0 -129.5 45.5t-49.5 131.5v1237l175 28v-1233q0 -31 18.5 -48t50.5 -17q47 0 82 14zM426 524q0 33 42.5 78t72.5 45q31 0 79 -35.5t48 -68.5t-43 -77t-72 -44q-32 0 -79.5 35t-47.5 67z" />
    <glyph glyph-name="Lslash" unicode="&#x141;" horiz-adv-x="921" 
d="M184 0v532l-157 -65v141l157 66v579h189v-499l268 112v-141l-268 -113v-465l518 9l-21 -156h-686z" />
    <glyph glyph-name="lslash" unicode="&#x142;" horiz-adv-x="542" 
d="M326 -25q-80 0 -129.5 45.5t-49.5 131.5v432l-122 -52v132l122 51v674l175 28v-626l165 69v-131l-165 -70v-475q0 -31 18.5 -48t50.5 -17q47 0 82 14l19 -125q-26 -12 -76 -22.5t-90 -10.5z" />
    <glyph glyph-name="Nacute" unicode="&#x143;" horiz-adv-x="1347" 
d="M526 1354l265 297l182 -35l-303 -262h-144zM991 0l-643 973v-973h-164v1253h187l628 -960v960h164v-1253h-172z" />
    <glyph glyph-name="nacute" unicode="&#x144;" horiz-adv-x="1028" 
d="M362 1047l265 296l182 -34l-303 -262h-144zM541 803q-85 0 -217 -62v-741h-177v918l127 28l39 -98q179 98 299 98q130 0 206.5 -73t76.5 -199v-674h-176v608q0 95 -48.5 145t-129.5 50z" />
    <glyph glyph-name="Ncommaaccent" unicode="&#x145;" horiz-adv-x="1347" 
d="M991 0l-643 973v-973h-164v1253h187l628 -960v960h164v-1253h-172zM578 -172q0 28 29.5 55t60.5 27t71.5 -44t40.5 -81t-28 -102t-97 -191l-90 35q76 158 76 203q0 9 -31.5 42t-31.5 56z" />
    <glyph glyph-name="ncommaaccent" unicode="&#x146;" horiz-adv-x="1028" 
d="M541 803q-85 0 -217 -62v-741h-177v918l127 28l39 -98q179 98 299 98q130 0 206.5 -73t76.5 -199v-674h-176v608q0 95 -48.5 145t-129.5 50zM424 -172q0 28 29.5 55t60.5 27q32 0 72.5 -44t40.5 -81t-28 -102t-97 -191l-90 35q75 156 75 203q0 9 -31.5 42t-31.5 56z" />
    <glyph glyph-name="Ncaron" unicode="&#x147;" horiz-adv-x="1347" 
d="M754 1362h-123l-254 297h137l178 -158l178 158h138zM991 0l-643 973v-973h-164v1253h187l628 -960v960h164v-1253h-172z" />
    <glyph glyph-name="ncaron" unicode="&#x148;" horiz-adv-x="1028" 
d="M582 1055h-123l-254 297h137l178 -158l178 158h138zM541 803q-85 0 -217 -62v-741h-177v918l127 28l39 -98q179 98 299 98q130 0 206.5 -73t76.5 -199v-674h-176v608q0 95 -48.5 145t-129.5 50z" />
    <glyph glyph-name="Eng" unicode="&#x14a;" horiz-adv-x="1347" 
d="M811 -367q-81 0 -164 31l35 148q98 -41 168 -41q145 0 145 172v57h-4l-643 973v-973h-164v1253h187l628 -960v960h164v-1259q0 -177 -96 -269t-256 -92z" />
    <glyph glyph-name="eng" unicode="&#x14b;" horiz-adv-x="1028" 
d="M520 -461l-33 131q61 12 100.5 29.5t71 51.5t46 88.5t14.5 135.5v633q0 95 -48.5 145t-129.5 50q-85 0 -217 -62v-741h-177v918l127 28l39 -98q179 98 299 98q130 0 206.5 -73t76.5 -199v-684q0 -124 -44.5 -226t-131 -163.5t-199.5 -61.5z" />
    <glyph glyph-name="Omacron" unicode="&#x14c;" horiz-adv-x="1359" 
d="M940 1567v-31l-37 -94h-502v31l37 94h502zM1268 651q0 -157 -47.5 -285t-131.5 -213.5t-200.5 -131.5t-253.5 -46q-157 0 -279 72.5t-193 216t-71 338.5q0 157 47 285t131 213.5t200 131.5t253 46q241 0 393 -168t152 -459zM1077 594q0 144 -32.5 250.5t-91.5 169
t-134.5 92t-169.5 29.5q-157 0 -261.5 -121t-104.5 -355q0 -145 31.5 -251t90.5 -168.5t134 -91.5t170 -29q75 0 140 28t117 83.5t81.5 149t29.5 214.5z" />
    <glyph glyph-name="omacron" unicode="&#x14d;" horiz-adv-x="1021" 
d="M788 1260v-31l-36 -94h-502v30l37 95h501zM948 479q0 -235 -128 -369.5t-341 -136.5q-183 2 -294 126t-111 343q0 236 129 370t346 134q186 0 292.5 -123t106.5 -344zM770 436q0 377 -281 377q-237 0 -237 -328q0 -376 280 -376q117 0 177.5 82t60.5 245z" />
    <glyph glyph-name="Obreve" unicode="&#x14e;" horiz-adv-x="1359" 
d="M668 1489q80 0 127 49.5t63 132.5h103q0 -129 -90.5 -223t-213.5 -94q-132 0 -206 90.5t-74 226.5h102q16 -83 62.5 -132.5t126.5 -49.5zM1268 651q0 -157 -47.5 -285t-131.5 -213.5t-200.5 -131.5t-253.5 -46q-157 0 -279 72.5t-193 216t-71 338.5q0 157 47 285
t131 213.5t200 131.5t253 46q241 0 393 -168t152 -459zM1077 594q0 144 -32.5 250.5t-91.5 169t-134.5 92t-169.5 29.5q-157 0 -261.5 -121t-104.5 -355q0 -145 31.5 -251t90.5 -168.5t134 -91.5t170 -29q75 0 140 28t117 83.5t81.5 149t29.5 214.5z" />
    <glyph glyph-name="obreve" unicode="&#x14f;" horiz-adv-x="1021" 
d="M498 1182q80 0 127 49.5t63 132.5h103q0 -129 -90.5 -223t-213.5 -94q-132 0 -206 90.5t-74 226.5h102q16 -83 62.5 -132.5t126.5 -49.5zM948 479q0 -235 -128 -369.5t-341 -136.5q-183 2 -294 126t-111 343q0 236 129 370t346 134q186 0 292.5 -123t106.5 -344zM770 436
q0 377 -281 377q-237 0 -237 -328q0 -376 280 -376q117 0 177.5 82t60.5 245z" />
    <glyph glyph-name="Ohungarumlaut" unicode="&#x150;" horiz-adv-x="1359" 
d="M639 1354l264 297l182 -35l-303 -262h-143zM383 1354l264 297l182 -35l-303 -262h-143zM1268 651q0 -157 -47.5 -285t-131.5 -213.5t-200.5 -131.5t-253.5 -46q-157 0 -279 72.5t-193 216t-71 338.5q0 157 47 285t131 213.5t200 131.5t253 46q241 0 393 -168t152 -459z
M1077 594q0 144 -32.5 250.5t-91.5 169t-134.5 92t-169.5 29.5q-157 0 -261.5 -121t-104.5 -355q0 -145 31.5 -251t90.5 -168.5t134 -91.5t170 -29q75 0 140 28t117 83.5t81.5 149t29.5 214.5z" />
    <glyph glyph-name="ohungarumlaut" unicode="&#x151;" horiz-adv-x="1021" 
d="M436 1047l264 296l183 -34l-303 -262h-144zM180 1047l264 296l183 -34l-303 -262h-144zM948 479q0 -235 -128 -369.5t-341 -136.5q-183 2 -294 126t-111 343q0 236 129 370t346 134q186 0 292.5 -123t106.5 -344zM770 436q0 377 -281 377q-237 0 -237 -328
q0 -376 280 -376q117 0 177.5 82t60.5 245z" />
    <glyph glyph-name="OE" unicode="&#x152;" horiz-adv-x="1720" 
d="M707 119q99 0 176 43v911q-97 62 -236 62q-75 0 -139.5 -28t-115.5 -83.5t-80 -149t-29 -215.5q0 -117 21 -208.5t58.5 -153.5t91 -102t116 -58t137.5 -18zM883 0v27q-110 -52 -250 -52q-239 0 -390 167.5t-151 459.5q0 156 48 284.5t131 213.5t196 131.5t244 46.5
q83 0 172 -27v2h723l-21 -149l-514 8v-395h475l-20 -142l-455 7v-435l567 9l-20 -156h-735z" />
    <glyph glyph-name="oe" unicode="&#x153;" horiz-adv-x="1615" 
d="M1169 827q-96 0 -148.5 -53.5t-66.5 -183.5h416q0 237 -201 237zM770 436q0 377 -281 377q-237 0 -237 -328q0 -376 280 -376q117 0 177.5 82t60.5 245zM1208 -25q-241 0 -356 172q-61 -83 -157 -127.5t-216 -46.5q-183 2 -294 126t-111 343q0 236 129 370t346 134
q218 0 323 -164q57 79 142 121.5t188 42.5q162 0 249 -96t87 -254q0 -73 -4 -119h-586v-14q0 -95 25 -165t68.5 -108.5t94.5 -56.5t111 -18q142 0 264 51l31 -117q-169 -74 -334 -74z" />
    <glyph glyph-name="Racute" unicode="&#x154;" horiz-adv-x="1101" 
d="M381 1354l264 297l182 -35l-303 -262h-143zM537 651q101 0 169 54t68 163q0 120 -70.5 186t-195.5 66q-45 0 -135 -4v-459q80 -6 164 -6zM489 518q-11 0 -52 1t-64 1v-520h-189v1253h365q198 0 307 -88t109 -243q0 -117 -61.5 -205.5t-162.5 -138.5l324 -578h-215
l-272 524q-47 -6 -89 -6z" />
    <glyph glyph-name="racute" unicode="&#x155;" horiz-adv-x="671" 
d="M236 1047l264 296l182 -34l-303 -262h-143zM545 778q-115 -3 -221 -65v-713h-177v918l127 28l45 -121q156 121 295 121q21 0 27 -2l-20 -170q-18 4 -76 4z" />
    <glyph glyph-name="Rcommaaccent" unicode="&#x156;" horiz-adv-x="1101" 
d="M537 651q101 0 169 54t68 163q0 120 -70.5 186t-195.5 66q-45 0 -135 -4v-459q80 -6 164 -6zM489 518q-11 0 -52 1t-64 1v-520h-189v1253h365q198 0 307 -88t109 -243q0 -117 -61.5 -205.5t-162.5 -138.5l324 -578h-215l-272 524q-47 -6 -89 -6zM471 -172q0 28 29.5 55
t60.5 27q32 0 72.5 -44t40.5 -81t-28 -102t-97 -191l-90 35q76 158 76 203q0 9 -32 42t-32 56z" />
    <glyph glyph-name="rcommaaccent" unicode="&#x157;" horiz-adv-x="671" 
d="M545 778q-115 -3 -221 -65v-713h-177v918l127 28l45 -121q156 121 295 121q21 0 27 -2l-20 -170q-18 4 -76 4zM139 -172q0 28 29.5 55t60.5 27q32 0 72.5 -44t40.5 -81t-28 -102t-97 -191l-90 35q76 158 76 203q0 9 -32 42t-32 56z" />
    <glyph glyph-name="Rcaron" unicode="&#x158;" horiz-adv-x="1101" 
d="M610 1362h-123l-254 297h138l178 -158l178 158h137zM537 651q101 0 169 54t68 163q0 120 -70.5 186t-195.5 66q-45 0 -135 -4v-459q80 -6 164 -6zM489 518q-11 0 -52 1t-64 1v-520h-189v1253h365q198 0 307 -88t109 -243q0 -117 -61.5 -205.5t-162.5 -138.5l324 -578
h-215l-272 524q-47 -6 -89 -6z" />
    <glyph glyph-name="rcaron" unicode="&#x159;" horiz-adv-x="671" 
d="M455 1055h-123l-254 297h137l178 -158l178 158h138zM545 778q-115 -3 -221 -65v-713h-177v918l127 28l45 -121q156 121 295 121q21 0 27 -2l-20 -170q-18 4 -76 4z" />
    <glyph glyph-name="Sacute" unicode="&#x15a;" horiz-adv-x="980" 
d="M338 1354l264 297l182 -35l-303 -262h-143zM440 567q-171 69 -246 155t-75 210q0 151 115.5 248.5t310.5 97.5q188 0 313 -47l-45 -162q-176 66 -319 66q-94 0 -145.5 -45t-51.5 -125q0 -83 53.5 -133.5t196.5 -110.5q191 -80 261.5 -161.5t70.5 -199.5
q0 -176 -128.5 -280.5t-353.5 -104.5q-70 0 -161 16t-144 38l39 170q192 -78 334 -78q103 0 167 48.5t64 135.5q0 44 -10 76t-37.5 64t-78 61t-130.5 61z" />
    <glyph glyph-name="sacute" unicode="&#x15b;" horiz-adv-x="808" 
d="M287 1047l264 296l182 -34l-303 -262h-143zM369 -25q-154 0 -295 52l30 141q174 -62 316 -62q63 0 105 33t42 94q0 92 -139 148l-135 53q-91 37 -144 92t-53 150q0 80 52.5 143.5t127 95t150.5 31.5q92 0 171.5 -13t121.5 -30l-35 -139q-175 53 -274 53q-71 0 -111.5 -29
t-40.5 -81t31.5 -84t109.5 -62l117 -45q104 -40 161.5 -98t57.5 -152q0 -89 -55.5 -157t-137.5 -101t-173 -33z" />
    <glyph glyph-name="Scircumflex" unicode="&#x15c;" horiz-adv-x="980" 
d="M705 1354l-179 157l-178 -157h-137l254 297h123l254 -297h-137zM440 567q-171 69 -246 155t-75 210q0 151 115.5 248.5t310.5 97.5q188 0 313 -47l-45 -162q-176 66 -319 66q-94 0 -145.5 -45t-51.5 -125q0 -83 53.5 -133.5t196.5 -110.5q191 -80 261.5 -161.5
t70.5 -199.5q0 -176 -128.5 -280.5t-353.5 -104.5q-70 0 -161 16t-144 38l39 170q192 -78 334 -78q103 0 167 48.5t64 135.5q0 44 -10 76t-37.5 64t-78 61t-130.5 61z" />
    <glyph glyph-name="scircumflex" unicode="&#x15d;" horiz-adv-x="808" 
d="M594 1047l-178 157l-178 -157h-138l254 296h123l254 -296h-137zM369 -25q-154 0 -295 52l30 141q174 -62 316 -62q63 0 105 33t42 94q0 92 -139 148l-135 53q-91 37 -144 92t-53 150q0 80 52.5 143.5t127 95t150.5 31.5q92 0 171.5 -13t121.5 -30l-35 -139
q-175 53 -274 53q-71 0 -111.5 -29t-40.5 -81t31.5 -84t109.5 -62l117 -45q104 -40 161.5 -98t57.5 -152q0 -89 -55.5 -157t-137.5 -101t-173 -33z" />
    <glyph glyph-name="Scedilla" unicode="&#x15e;" horiz-adv-x="980" 
d="M299 -471l-23 88q103 12 154 31.5t51 60.5q0 29 -36.5 50.5t-118.5 43.5l-7 11l76 161q-70 0 -160 16t-143 38l39 170q192 -78 334 -78q103 0 167 48.5t64 135.5q0 44 -10 76t-37.5 64t-78 61t-130.5 61q-171 69 -246 155t-75 210q0 151 115.5 248.5t310.5 97.5
q188 0 313 -47l-45 -162q-176 66 -319 66q-94 0 -145.5 -45t-51.5 -125q0 -83 53.5 -133.5t196.5 -110.5q191 -80 261.5 -161.5t70.5 -199.5q0 -156 -100.5 -256t-282.5 -122l-43 -93q33 -15 45.5 -21t36.5 -19t33.5 -22t22 -23.5t17 -30t4.5 -35.5q0 -74 -78.5 -134.5
t-234.5 -74.5z" />
    <glyph glyph-name="scedilla" unicode="&#x15f;" horiz-adv-x="808" 
d="M240 -471l-23 88q103 12 154 31.5t51 60.5q0 28 -37 50t-119 44l-6 11l76 161q-138 5 -262 52l30 141q174 -62 316 -62q63 0 105 33t42 94q0 92 -139 148l-135 53q-91 37 -144 92t-53 150q0 80 52.5 143.5t127 95t150.5 31.5q92 0 171.5 -13t121.5 -30l-35 -139
q-175 53 -274 53q-71 0 -111.5 -29t-40.5 -81t31.5 -84t109.5 -62l117 -45q104 -40 161.5 -98t57.5 -152q0 -116 -87 -191.5t-212 -94.5l-43 -91q30 -14 39.5 -18t32.5 -16t31 -18.5t22.5 -18.5t20 -23t10 -25.5t4.5 -31.5q0 -74 -78.5 -134.5t-234.5 -74.5z" />
    <glyph glyph-name="Scaron" unicode="&#x160;" horiz-adv-x="980" 
d="M588 1362h-123l-254 297h137l178 -158l179 158h137zM440 567q-171 69 -246 155t-75 210q0 151 115.5 248.5t310.5 97.5q188 0 313 -47l-45 -162q-176 66 -319 66q-94 0 -145.5 -45t-51.5 -125q0 -83 53.5 -133.5t196.5 -110.5q191 -80 261.5 -161.5t70.5 -199.5
q0 -176 -128.5 -280.5t-353.5 -104.5q-70 0 -161 16t-144 38l39 170q192 -78 334 -78q103 0 167 48.5t64 135.5q0 44 -10 76t-37.5 64t-78 61t-130.5 61z" />
    <glyph glyph-name="scaron" unicode="&#x161;" horiz-adv-x="808" 
d="M485 1055h-123l-253 297h137l178 -158l178 158h137zM369 -25q-154 0 -295 52l30 141q174 -62 316 -62q63 0 105 33t42 94q0 92 -139 148l-135 53q-91 37 -144 92t-53 150q0 80 52.5 143.5t127 95t150.5 31.5q92 0 171.5 -13t121.5 -30l-35 -139q-175 53 -274 53
q-71 0 -111.5 -29t-40.5 -81t31.5 -84t109.5 -62l117 -45q104 -40 161.5 -98t57.5 -152q0 -89 -55.5 -157t-137.5 -101t-173 -33z" />
    <glyph glyph-name="Tcommaaccent" unicode="&#x162;" horiz-adv-x="1024" 
d="M987 1102l-379 6v-1108h-188v1108l-404 -6l21 151h971zM399 -172q0 28 29.5 55t60.5 27q32 0 72.5 -44t40.5 -81t-28 -102t-97 -191l-90 35q76 158 76 203q0 9 -32 42t-32 56z" />
    <glyph glyph-name="tcommaaccent" unicode="&#x163;" horiz-adv-x="700" 
d="M672 31q-46 -22 -118.5 -39t-129.5 -17q-107 0 -180 62.5t-72 177.5l6 582h-151v104l153 21l2 155l176 29l-2 -184h303l-20 -125h-285l-6 -525q-1 -76 35.5 -112.5t101.5 -36.5q82 0 170 27zM319 -172q0 28 30 55t61 27t71.5 -44t40.5 -81t-28 -102t-97 -191l-90 35
q76 158 76 203q0 9 -32 42t-32 56z" />
    <glyph glyph-name="Tcaron" unicode="&#x164;" horiz-adv-x="1024" 
d="M573 1362h-122l-254 297h137l178 -158l178 158h137zM987 1102l-379 6v-1108h-188v1108l-404 -6l21 151h971z" />
    <glyph glyph-name="tcaron" unicode="&#x165;" horiz-adv-x="700" 
d="M504 1397q3 24 37 44.5t67 20.5q31 0 56.5 -52t25.5 -107q0 -58 -33.5 -128t-113.5 -184l-72 45q42 78 61 123.5t19 83.5q0 40 -23.5 93t-23.5 61zM672 31q-46 -22 -118.5 -39t-129.5 -17q-107 0 -180 62.5t-72 177.5l6 582h-151v104l153 21l2 155l176 29l-2 -184h303
l-20 -125h-285l-6 -525q-1 -76 35.5 -112.5t101.5 -36.5q82 0 170 27z" />
    <glyph glyph-name="Tbar" unicode="&#x166;" horiz-adv-x="1024" 
d="M879 594h-271v-594h-188v594h-316v31l37 102h279v381l-404 -6l21 151h971l-21 -151l-379 6v-381h307v-31z" />
    <glyph glyph-name="tbar" unicode="&#x167;" horiz-adv-x="700" 
d="M672 31q-46 -22 -118.5 -39t-129.5 -17q-107 0 -180 62.5t-72 177.5l2 242h-141v30l35 76h108l2 234h-151v104l153 21l2 155l176 29l-2 -184h303l-20 -125h-285l-2 -234h256v-31l-35 -75h-223l-2 -185q-1 -76 35.5 -112.5t101.5 -36.5q82 0 170 27z" />
    <glyph glyph-name="Utilde" unicode="&#x168;" horiz-adv-x="1306" 
d="M911 1599l68 -71q-107 -142 -205 -142q-40 0 -134 34t-118 34q-34 0 -74 -26.5t-59 -45.5l-61 72q124 137 211 137q46 0 129.5 -30.5t109.5 -30.5q64 0 133 69zM172 408v845h188v-778q0 -340 320 -340q129 0 202.5 71t73.5 212v835h179v-790q0 -235 -130.5 -361.5
t-371.5 -126.5q-213 0 -337 110t-124 323z" />
    <glyph glyph-name="utilde" unicode="&#x169;" horiz-adv-x="1028" 
d="M764 1292l67 -71q-107 -142 -204 -142q-40 0 -134 34t-118 34q-34 0 -74 -26.5t-59 -45.5l-62 72q124 137 211 137q46 0 130 -30.5t110 -30.5q64 0 133 69zM760 -25l-43 99q-73 -40 -155.5 -69.5t-145.5 -29.5q-129 0 -206 73.5t-77 199.5v670l176 28v-633
q0 -95 49.5 -145.5t130.5 -50.5q82 0 216 63v738l176 28v-942z" />
    <glyph glyph-name="Umacron" unicode="&#x16a;" horiz-adv-x="1306" 
d="M915 1567v-31l-36 -94h-502v31l37 94h501zM172 408v845h188v-778q0 -340 320 -340q129 0 202.5 71t73.5 212v835h179v-790q0 -235 -130.5 -361.5t-371.5 -126.5q-213 0 -337 110t-124 323z" />
    <glyph glyph-name="umacron" unicode="&#x16b;" horiz-adv-x="1028" 
d="M776 1260v-31l-37 -94h-501v30l36 95h502zM760 -25l-43 99q-73 -40 -155.5 -69.5t-145.5 -29.5q-129 0 -206 73.5t-77 199.5v670l176 28v-633q0 -95 49.5 -145.5t130.5 -50.5q82 0 216 63v738l176 28v-942z" />
    <glyph glyph-name="Ubreve" unicode="&#x16c;" horiz-adv-x="1306" 
d="M647 1489q80 0 127.5 50t63.5 132h102q0 -129 -90 -223t-213 -94q-133 0 -207 90.5t-74 226.5h103q36 -182 188 -182zM172 408v845h188v-778q0 -340 320 -340q129 0 202.5 71t73.5 212v835h179v-790q0 -235 -130.5 -361.5t-371.5 -126.5q-213 0 -337 110t-124 323z" />
    <glyph glyph-name="ubreve" unicode="&#x16d;" horiz-adv-x="1028" 
d="M496 1182q80 0 127 49.5t63 132.5h102q0 -129 -90 -223t-213 -94q-132 0 -206 90.5t-74 226.5h102q16 -83 62.5 -132.5t126.5 -49.5zM760 -25l-43 99q-73 -40 -155.5 -69.5t-145.5 -29.5q-129 0 -206 73.5t-77 199.5v670l176 28v-633q0 -95 49.5 -145.5t130.5 -50.5
q82 0 216 63v738l176 28v-942z" />
    <glyph glyph-name="Uring" unicode="&#x16e;" horiz-adv-x="1306" 
d="M844 1522q0 -74 -58.5 -128.5t-134.5 -54.5q-79 0 -134.5 49.5t-55.5 133.5q0 75 58 129.5t134 54.5q80 0 135.5 -48.5t55.5 -135.5zM559 1522q0 -40 27 -66t65 -26t66 26t28 66q0 43 -28 69.5t-66 26.5t-65 -26.5t-27 -69.5zM172 408v845h188v-778q0 -340 320 -340
q129 0 202.5 71t73.5 212v835h179v-790q0 -235 -130.5 -361.5t-371.5 -126.5q-213 0 -337 110t-124 323z" />
    <glyph glyph-name="uring" unicode="&#x16f;" horiz-adv-x="1028" 
d="M696 1214q0 -74 -58 -128t-134 -54q-79 0 -135 49t-56 133q0 75 58.5 130t134.5 55q80 0 135 -49t55 -136zM412 1214q0 -40 27 -66t65 -26t66 26t28 66q0 43 -28 70t-66 27t-65 -27t-27 -70zM760 -25l-43 99q-73 -40 -155.5 -69.5t-145.5 -29.5q-129 0 -206 73.5
t-77 199.5v670l176 28v-633q0 -95 49.5 -145.5t130.5 -50.5q82 0 216 63v738l176 28v-942z" />
    <glyph glyph-name="Uhungarumlaut" unicode="&#x170;" horiz-adv-x="1306" 
d="M575 1354l265 297l182 -35l-303 -262h-144zM319 1354l265 297l182 -35l-303 -262h-144zM172 408v845h188v-778q0 -340 320 -340q129 0 202.5 71t73.5 212v835h179v-790q0 -235 -130.5 -361.5t-371.5 -126.5q-213 0 -337 110t-124 323z" />
    <glyph glyph-name="uhungarumlaut" unicode="&#x171;" horiz-adv-x="1028" 
d="M438 1047l264 296l183 -34l-303 -262h-144zM182 1047l264 296l183 -34l-303 -262h-144zM760 -25l-43 99q-73 -40 -155.5 -69.5t-145.5 -29.5q-129 0 -206 73.5t-77 199.5v670l176 28v-633q0 -95 49.5 -145.5t130.5 -50.5q82 0 216 63v738l176 28v-942z" />
    <glyph glyph-name="Uogonek" unicode="&#x172;" horiz-adv-x="1306" 
d="M762 -401q-82 0 -127 44.5t-45 120.5q0 105 119 216q-63 -5 -76 -5q-213 0 -337 110t-124 323v845h188v-778q0 -340 320 -340q129 0 202.5 71t73.5 212v835h179v-790q0 -166 -67.5 -280t-195.5 -167q-72 -58 -115.5 -120t-43.5 -113q0 -39 26 -61.5t62 -22.5q35 0 84 27
l28 -84q-80 -43 -151 -43z" />
    <glyph glyph-name="uogonek" unicode="&#x173;" horiz-adv-x="1028" 
d="M741 -442q-82 0 -127 45t-45 121q0 72 55 143.5t130 124.5l-37 82q-73 -40 -155.5 -69.5t-145.5 -29.5q-129 0 -206 73.5t-77 199.5v670l176 28v-633q0 -95 49.5 -145.5t130.5 -50.5q82 0 216 63v738l176 28v-942l-17 -4h19q-85 -62 -138 -131.5t-53 -126.5
q0 -39 26 -61.5t62 -22.5q35 0 84 27l29 -84q-80 -43 -152 -43z" />
    <glyph glyph-name="Wcircumflex" unicode="&#x174;" horiz-adv-x="1777" 
d="M1075 1354l-178 157l-178 -157h-137l254 297h122l254 -297h-137zM1208 0l-319 985l-320 -985h-211l-301 1253h189l239 -1026l324 1026h176l334 -1026l223 1026h174l-297 -1253h-211z" />
    <glyph glyph-name="wcircumflex" unicode="&#x175;" horiz-adv-x="1431" 
d="M860 1047l-178 157l-178 -157h-137l254 296h122l254 -296h-137zM938 0l-227 678l-230 -678h-194l-238 909l178 29l181 -756l229 727l156 29l247 -758l174 742h168l-254 -922h-190z" />
    <glyph glyph-name="Ycircumflex" unicode="&#x176;" horiz-adv-x="1083" 
d="M727 1354l-178 157l-178 -157h-138l254 297h123l254 -297h-137zM643 496v-496h-188v496l-451 757h213l344 -585l324 585h186z" />
    <glyph glyph-name="ycircumflex" unicode="&#x177;" horiz-adv-x="911" 
d="M653 1047l-178 157l-178 -157h-137l254 296h123l254 -296h-138zM66 -471q-36 0 -56 4l-16 152q295 -31 430 315h-70l-323 907l180 31l266 -784q229 699 250 768h176q-234 -702 -330 -957q-83 -217 -213.5 -326.5t-293.5 -109.5z" />
    <glyph glyph-name="Ydieresis" unicode="&#x178;" horiz-adv-x="1083" 
d="M625 1526q0 30 37.5 70t64.5 40q28 0 71.5 -31.5t43.5 -60.5q0 -30 -38.5 -70t-64.5 -40q-28 0 -71 32t-43 60zM258 1526q0 30 37.5 70t64.5 40q28 0 71.5 -31.5t43.5 -60.5q0 -30 -38 -70t-64 -40q-28 0 -71.5 32t-43.5 60zM643 496v-496h-188v496l-451 757h213
l344 -585l324 585h186z" />
    <glyph glyph-name="Zacute" unicode="&#x179;" horiz-adv-x="1071" 
d="M375 1354l264 297l182 -35l-303 -262h-143zM969 0h-895v125l698 985l-676 -12l29 155h854v-147l-688 -967l706 13z" />
    <glyph glyph-name="zacute" unicode="&#x17a;" horiz-adv-x="849" 
d="M293 1047l264 296l182 -34l-303 -262h-143zM774 0h-700v121l473 665l-467 -4l14 140h664v-121l-482 -668l512 4z" />
    <glyph glyph-name="Zdotaccent" unicode="&#x17b;" horiz-adv-x="1071" 
d="M430 1516q0 33 42.5 77.5t72.5 44.5q31 0 79 -35.5t48 -68.5t-43 -77t-72 -44q-32 0 -79.5 35.5t-47.5 67.5zM969 0h-895v125l698 985l-676 -12l29 155h854v-147l-688 -967l706 13z" />
    <glyph glyph-name="zdotaccent" unicode="&#x17c;" horiz-adv-x="849" 
d="M295 1208q0 33 42.5 78t72.5 45q31 0 79 -35.5t48 -68.5t-43 -77t-72 -44q-32 0 -79.5 35t-47.5 67zM774 0h-700v121l473 665l-467 -4l14 140h664v-121l-482 -668l512 4z" />
    <glyph glyph-name="Zcaron" unicode="&#x17d;" horiz-adv-x="1071" 
d="M596 1362h-123l-254 297h137l179 -158l178 158h137zM969 0h-895v125l698 985l-676 -12l29 155h854v-147l-688 -967l706 13z" />
    <glyph glyph-name="zcaron" unicode="&#x17e;" horiz-adv-x="849" 
d="M492 1055h-123l-254 297h137l178 -158l178 158h137zM774 0h-700v121l473 665l-467 -4l14 140h664v-121l-482 -668l512 4z" />
    <glyph glyph-name="Acaron" unicode="&#x1cd;" horiz-adv-x="1153" 
d="M637 1362h-123l-254 297h137l178 -158l179 158h137zM754 528l-189 541l-182 -541h371zM936 0l-135 389h-465l-131 -389h-185l453 1253h211l449 -1253h-197z" />
    <glyph glyph-name="acaron" unicode="&#x1ce;" 
d="M514 1055h-123l-254 297h137l179 -158l178 158h137zM649 -25l-41 107q-166 -107 -264 -107q-116 0 -191 67.5t-75 178.5q0 136 127.5 217.5t394.5 85.5v84q0 96 -46.5 146.5t-131.5 50.5q-103 0 -279 -62l-39 121q111 42 194 62t179 20q138 0 215.5 -75t77.5 -222v-645z
M391 109q79 0 209 67v217q-62 8 -145 8q-99 0 -158 -38t-59 -107q0 -70 46 -108.5t107 -38.5z" />
    <glyph glyph-name="AEacute" unicode="&#x1fc;" horiz-adv-x="1628" 
d="M860 1354l264 297l183 -35l-303 -262h-144zM776 1079l-295 -551h314v551h-19zM795 0v389h-387l-209 -389h-189l688 1253h820l-21 -149l-514 8v-395h475l-20 -142l-455 7v-435l567 9l-20 -156h-735z" />
    <glyph glyph-name="aeacute" unicode="&#x1fd;" horiz-adv-x="1427" 
d="M614 1047l265 296l182 -34l-303 -262h-144zM977 827q-91 0 -141.5 -54.5t-65.5 -182.5h414q0 120 -50.5 178.5t-156.5 58.5zM1354 49q-186 -74 -355 -74q-206 0 -313 138q-83 -56 -178.5 -97t-163.5 -41q-116 0 -191 67.5t-75 178.5q0 136 127 216.5t393 86.5v97
q0 99 -51 142.5t-131 43.5q-87 0 -275 -62l-37 119q111 42 194 62t179 20q188 0 246 -125q116 125 293 125q164 0 249 -97t85 -263q0 -86 -4 -109h-584v-26q0 -336 293 -336q129 0 268 51zM391 109q100 0 246 86q-35 84 -41 198q-62 8 -141 8q-99 0 -158 -38t-59 -107
q0 -70 46 -108.5t107 -38.5z" />
    <glyph glyph-name="Oslashacute" unicode="&#x1fe;" horiz-adv-x="1359" 
d="M487 1354l265 297l182 -35l-303 -262h-144zM283 659q0 -296 133 -432l403 879q-82 29 -170 29q-157 0 -261.5 -121t-104.5 -355zM709 119q75 0 140 28t117 83.5t81.5 149t29.5 214.5q0 311 -153 448l-408 -884q82 -39 193 -39zM635 -25q-98 0 -189 31l-79 -176h-134
l105 229q-117 77 -181.5 215.5t-64.5 327.5q0 157 47 285t131 213.5t200 131.5t253 46q82 0 166 -23l76 164h133l-99 -213q126 -74 197.5 -217t71.5 -338q0 -157 -47.5 -285t-131.5 -213.5t-200.5 -131.5t-253.5 -46z" />
    <glyph glyph-name="oslashacute" unicode="&#x1ff;" horiz-adv-x="1038" 
d="M381 1047l264 296l182 -34l-303 -262h-143zM252 485q0 -199 80 -295l284 598q-61 25 -127 25q-237 0 -237 -328zM532 109q117 0 177.5 82t60.5 245q0 187 -72 285l-280 -592q50 -20 114 -20zM479 -27q-63 0 -125 19l-65 -137h-115l86 180q-89 56 -137.5 160t-48.5 247
q0 236 129 370t346 134q71 0 133 -18l68 143h114l-90 -188q174 -119 174 -404q0 -235 -128 -369.5t-341 -136.5z" />
    <glyph glyph-name="Scommaaccent" unicode="&#x218;" horiz-adv-x="980" 
d="M440 567q-171 69 -246 155t-75 210q0 151 115.5 248.5t310.5 97.5q188 0 313 -47l-45 -162q-176 66 -319 66q-94 0 -145.5 -45t-51.5 -125q0 -83 53.5 -133.5t196.5 -110.5q191 -80 261.5 -161.5t70.5 -199.5q0 -176 -128.5 -280.5t-353.5 -104.5q-70 0 -161 16t-144 38
l39 170q192 -78 334 -78q103 0 167 48.5t64 135.5q0 44 -10 76t-37.5 64t-78 61t-130.5 61zM389 -172q0 28 29.5 55t60.5 27q32 0 72.5 -44t40.5 -81t-28 -102t-97 -191l-90 35q76 158 76 203q0 9 -32 42t-32 56z" />
    <glyph glyph-name="scommaaccent" unicode="&#x219;" horiz-adv-x="808" 
d="M369 -25q-154 0 -295 52l30 141q174 -62 316 -62q63 0 105 33t42 94q0 92 -139 148l-135 53q-91 37 -144 92t-53 150q0 80 52.5 143.5t127 95t150.5 31.5q92 0 171.5 -13t121.5 -30l-35 -139q-175 53 -274 53q-71 0 -111.5 -29t-40.5 -81t31.5 -84t109.5 -62l117 -45
q104 -40 161.5 -98t57.5 -152q0 -89 -55.5 -157t-137.5 -101t-173 -33zM307 -172q0 28 29.5 55t60.5 27q32 0 72.5 -44t40.5 -81t-28 -102t-97 -191l-90 35q76 158 76 203q0 9 -32 42t-32 56z" />
    <glyph glyph-name="uni021A" unicode="&#x21a;" horiz-adv-x="1024" 
d="M467 0h-47v1108l-404 -6l21 151h971l-21 -151l-379 6v-1108h-45l-51 -111q30 -14 39.5 -18t32.5 -16t31 -18.5t22.5 -18.5t20 -23t10 -25.5t4.5 -31.5q0 -74 -79 -134.5t-235 -74.5l-22 88q103 12 154 31.5t51 60.5q0 28 -37 50t-119 44l-6 11z" />
    <glyph glyph-name="uni021B" unicode="&#x21b;" horiz-adv-x="700" 
d="M553 -262q0 -74 -78.5 -134.5t-234.5 -74.5l-23 88q103 12 154 31.5t51 60.5q0 28 -37 50t-119 44l-6 11l82 172q-77 22 -124 80t-46 149l6 582h-151v104l153 21l2 155l176 29l-2 -184h303l-20 -125h-285l-6 -525q-1 -76 35.5 -112.5t101.5 -36.5q82 0 170 27l17 -119
q-45 -22 -116.5 -39t-123.5 -17l-39 -86q30 -14 39.5 -18t32.5 -16t31 -18.5t22.5 -18.5t20 -23t10 -25.5t4.5 -31.5z" />
    <glyph glyph-name="circumflex" unicode="&#x2c6;" horiz-adv-x="907" 
d="M631 1047l-178 157l-179 -157h-137l254 296h123l254 -296h-137z" />
    <glyph glyph-name="caron" unicode="&#x2c7;" horiz-adv-x="907" 
d="M514 1055h-123l-254 297h137l179 -158l178 158h137z" />
    <glyph glyph-name="breve" unicode="&#x2d8;" horiz-adv-x="890" 
d="M444 1182q80 0 127.5 50t63.5 132h102q0 -129 -90 -223t-213 -94q-132 0 -206 90.5t-74 226.5h102q36 -182 188 -182z" />
    <glyph glyph-name="dotaccent" unicode="&#x2d9;" horiz-adv-x="440" 
d="M100 1208q0 33 42.5 78t72.5 45q31 0 79 -35.5t48 -68.5t-43 -77t-72 -44q-32 0 -79.5 35t-47.5 67z" />
    <glyph glyph-name="ring" unicode="&#x2da;" horiz-adv-x="694" 
d="M539 1214q0 -74 -58.5 -128t-134.5 -54q-79 0 -134.5 49t-55.5 133q0 76 58 130.5t134 54.5q80 0 135.5 -49t55.5 -136zM254 1214q0 -40 27 -66t65 -26t66 26t28 66q0 43 -28 70t-66 27t-65 -27t-27 -70z" />
    <glyph glyph-name="ogonek" unicode="&#x2db;" horiz-adv-x="655" 
d="M166 -276q0 77 59 150.5t137 125.5h117q-85 -62 -137.5 -131.5t-52.5 -126.5q0 -39 26 -61.5t62 -22.5q35 0 84 27l28 -84q-80 -43 -151 -43q-82 0 -127 45t-45 121z" />
    <glyph glyph-name="tilde" unicode="&#x2dc;" horiz-adv-x="929" 
d="M723 1292l68 -71q-107 -142 -205 -142q-40 0 -134 34t-118 34q-34 0 -74 -26.5t-59 -45.5l-62 72q124 137 211 137q46 0 130 -30.5t110 -30.5q64 0 133 69z" />
    <glyph glyph-name="hungarumlaut" unicode="&#x2dd;" horiz-adv-x="905" 
d="M358 1047l265 296l182 -34l-303 -262h-144zM102 1047l265 296l182 -34l-303 -262h-144z" />
    <glyph glyph-name="commaaccent" unicode="&#x326;" horiz-adv-x="516" 
d="M162 -172q0 28 29.5 55t60.5 27q32 0 72.5 -44t40.5 -81t-28 -102t-97 -191l-90 35q75 156 75 203q0 9 -31.5 42t-31.5 56z" />
    <glyph glyph-name="Wgrave" unicode="&#x1e80;" horiz-adv-x="1777" 
d="M1026 1354h-143l-303 262l182 35zM1208 0l-319 985l-320 -985h-211l-301 1253h189l239 -1026l324 1026h176l334 -1026l223 1026h174l-297 -1253h-211z" />
    <glyph glyph-name="wgrave" unicode="&#x1e81;" horiz-adv-x="1431" 
d="M907 1047h-143l-303 262l182 34zM938 0l-227 678l-230 -678h-194l-238 909l178 29l181 -756l229 727l156 29l247 -758l174 742h168l-254 -922h-190z" />
    <glyph glyph-name="Wacute" unicode="&#x1e82;" horiz-adv-x="1777" 
d="M752 1354l264 297l182 -35l-303 -262h-143zM1208 0l-319 985l-320 -985h-211l-301 1253h189l239 -1026l324 1026h176l334 -1026l223 1026h174l-297 -1253h-211z" />
    <glyph glyph-name="wacute" unicode="&#x1e83;" horiz-adv-x="1431" 
d="M586 1047l264 296l182 -34l-303 -262h-143zM938 0l-227 678l-230 -678h-194l-238 909l178 29l181 -756l229 727l156 29l247 -758l174 742h168l-254 -922h-190z" />
    <glyph glyph-name="Wdieresis" unicode="&#x1e84;" horiz-adv-x="1777" 
d="M973 1526q0 30 37.5 70t64.5 40q28 0 71.5 -31.5t43.5 -60.5q0 -30 -38.5 -70t-64.5 -40q-28 0 -71 32t-43 60zM606 1526q0 30 38 70t65 40q28 0 71 -31.5t43 -60.5q0 -30 -38 -70t-64 -40q-28 0 -71.5 32t-43.5 60zM1208 0l-319 985l-320 -985h-211l-301 1253h189
l239 -1026l324 1026h176l334 -1026l223 1026h174l-297 -1253h-211z" />
    <glyph glyph-name="wdieresis" unicode="&#x1e85;" horiz-adv-x="1431" 
d="M791 1219q0 30 37.5 70t64.5 40q28 0 71.5 -31.5t43.5 -60.5q0 -30 -38.5 -70.5t-64.5 -40.5q-28 0 -71 32.5t-43 60.5zM424 1219q0 30 37.5 70t64.5 40q28 0 71.5 -31.5t43.5 -60.5q0 -30 -38.5 -70.5t-63.5 -40.5q-28 0 -71.5 32.5t-43.5 60.5zM938 0l-227 678
l-230 -678h-194l-238 909l178 29l181 -756l229 727l156 29l247 -758l174 742h168l-254 -922h-190z" />
    <glyph glyph-name="Ygrave" unicode="&#x1ef2;" horiz-adv-x="1083" 
d="M745 1354h-143l-303 262l182 35zM643 496v-496h-188v496l-451 757h213l344 -585l324 585h186z" />
    <glyph glyph-name="ygrave" unicode="&#x1ef3;" horiz-adv-x="911" 
d="M702 1047h-143l-303 262l182 34zM66 -471q-36 0 -56 4l-16 152q295 -31 430 315h-70l-323 907l180 31l266 -784q229 699 250 768h176q-234 -702 -330 -957q-83 -217 -213.5 -326.5t-293.5 -109.5z" />
    <glyph glyph-name="endash" unicode="&#x2013;" horiz-adv-x="931" 
d="M840 559v-31l-39 -92h-709v31l41 92h707z" />
    <glyph glyph-name="emdash" unicode="&#x2014;" horiz-adv-x="1341" 
d="M1249 559v-31l-39 -92h-1118v31l41 92h1116z" />
    <glyph glyph-name="quoteleft" unicode="&#x2018;" horiz-adv-x="481" 
d="M348 1032q0 -34 -35 -66t-67 -32q-34 0 -81.5 45.5t-47.5 97.5q0 82 139 369l109 -39q-81 -201 -90 -246q-3 -12 -3 -20q0 -10 19 -27t38 -39t19 -43z" />
    <glyph glyph-name="quoteright" unicode="&#x2019;" horiz-adv-x="481" 
d="M133 1319q0 34 35.5 66t67.5 32q34 0 81.5 -45.5t47.5 -97.5q0 -80 -140 -369l-108 39q92 227 92 266q0 10 -38 46t-38 63z" />
    <glyph glyph-name="quotesinglbase" unicode="&#x201a;" horiz-adv-x="481" 
d="M133 100q0 34 35.5 66.5t67.5 32.5q34 0 81.5 -46t47.5 -98q0 -79 -140 -368l-108 39q92 227 92 266q0 10 -19 27t-38 38.5t-19 42.5z" />
    <glyph glyph-name="quotedblleft" unicode="&#x201c;" horiz-adv-x="804" 
d="M672 1032q0 -34 -35.5 -66t-67.5 -32q-34 0 -81.5 45.5t-47.5 97.5q0 80 140 369l108 -39q-92 -227 -92 -266q0 -10 19 -27t38 -39t19 -43zM348 1032q0 -34 -35 -66t-67 -32q-34 0 -81.5 45.5t-47.5 97.5q0 82 139 369l109 -39q-81 -201 -90 -246q-3 -12 -3 -20
q0 -10 19 -27t38 -39t19 -43z" />
    <glyph glyph-name="quotedblright" unicode="&#x201d;" horiz-adv-x="794" 
d="M446 1319q0 34 35.5 66t67.5 32q34 0 81.5 -45.5t47.5 -97.5q0 -82 -139 -369l-109 39q92 227 92 266q0 10 -38 46t-38 63zM133 1319q0 34 35.5 66t67.5 32q34 0 81.5 -45.5t47.5 -97.5q0 -80 -140 -369l-108 39q92 227 92 266q0 10 -38 46t-38 63z" />
    <glyph glyph-name="quotedblbase" unicode="&#x201e;" horiz-adv-x="798" 
d="M451 100q0 34 35 66.5t67 32.5q34 0 81.5 -46t47.5 -98q0 -81 -139 -368l-109 39q92 227 92 266q0 10 -19 27t-37.5 38.5t-18.5 42.5zM133 100q0 34 35.5 66.5t67.5 32.5q34 0 81.5 -46t47.5 -98q0 -79 -140 -368l-108 39q92 227 92 266q0 10 -19 27t-38 38.5t-19 42.5z
" />
    <glyph glyph-name="bullet" unicode="&#x2022;" horiz-adv-x="630" 
d="M113 539q0 58 70.5 134.5t121.5 76.5q52 0 132.5 -63.5t80.5 -119.5t-72 -132.5t-120 -76.5q-54 0 -133.5 63t-79.5 118z" />
    <glyph glyph-name="ellipsis" unicode="&#x2026;" horiz-adv-x="1519" 
d="M115 82q0 35 43.5 81t74.5 46q32 0 83 -38t51 -71q0 -35 -45 -80t-76 -45q-32 0 -81.5 37t-49.5 70zM1153 82q0 35 44 81t75 46q32 0 82.5 -38t50.5 -71q0 -35 -45 -80t-76 -45q-32 0 -81.5 37t-49.5 70zM633 82q0 35 44 81t75 46q32 0 82.5 -38t50.5 -71q0 -35 -45 -80
t-76 -45q-32 0 -81.5 37t-49.5 70z" />
    <glyph glyph-name="guilsinglleft" unicode="&#x2039;" horiz-adv-x="679" 
d="M465 66l-373 409l373 410l92 -72l-258 -338l258 -338z" />
    <glyph glyph-name="guilsinglright" unicode="&#x203a;" horiz-adv-x="679" 
d="M215 885l373 -410l-373 -409l-92 71l258 338l-258 338z" />
    <glyph glyph-name="fraction" unicode="&#x2044;" horiz-adv-x="432" 
d="M-123 8l569 1288l109 -49l-569 -1288z" />
    <glyph glyph-name="Euro" unicode="&#x20ac;" horiz-adv-x="1075" 
d="M1061 59q-59 -34 -162 -59t-209 -25q-436 0 -504 449h-163l30 102l105 21h18q-2 18 -2 57q0 51 2 76h-153l30 102l105 21h32q42 228 179.5 351.5t341.5 123.5q89 0 187 -17t149 -40l-50 -156q-58 27 -151 45t-178 18q-123 0 -197 -74t-96 -251h510l-35 -123h-483v-33
q0 -38 4 -100h452l-35 -123h-401q33 -155 118 -224t222 -69q164 0 307 70z" />
    <glyph glyph-name="minus" unicode="&#x2212;" horiz-adv-x="1075" 
d="M918 610v-133h-762v133h762z" />
    <glyph glyph-name="idotaccent" horiz-adv-x="471" 
d="M119 1225q0 33 42 78t72 45q31 0 79 -36t48 -69t-42.5 -77t-71.5 -44q-32 0 -79.5 35.5t-47.5 67.5zM147 918l177 28v-946h-177v918z" />
    <glyph glyph-name="caron.alt" horiz-adv-x="514" 
d="M180 1354q3 24 37.5 44.5t67.5 20.5q31 0 56.5 -52t25.5 -107q0 -58 -33.5 -128t-114.5 -184l-72 45q42 78 61 123.5t19 83.5q0 40 -23.5 93t-23.5 61z" />
    <glyph glyph-name="caron.alt.sc" horiz-adv-x="432" 
d="M139 1067q3 24 37.5 45t67.5 21q31 0 56.5 -52.5t25.5 -107.5q0 -57 -33.5 -126.5t-114.5 -184.5l-72 45q43 78 61.5 123t18.5 83q0 40 -23.5 93t-23.5 61z" />
    <glyph glyph-name="caron.alt.case" horiz-adv-x="432" 
d="M139 1190q3 24 37.5 44.5t67.5 20.5q31 0 56.5 -52t25.5 -107q0 -58 -33.5 -128t-114.5 -184l-72 45q42 78 61 123.5t19 83.5q0 40 -23.5 93t-23.5 61z" />
    <glyph glyph-name="commaaccent.case" horiz-adv-x="516" 
d="M162 -172q0 28 29.5 55t60.5 27q32 0 72.5 -44t40.5 -81t-28 -102t-97 -191l-90 35q75 156 75 203q0 9 -31.5 42t-31.5 56z" />
    <glyph glyph-name="acute.case" horiz-adv-x="704" 
d="M129 1354l264 297l182 -35l-303 -262h-143z" />
    <glyph glyph-name="grave.case" horiz-adv-x="704" 
d="M575 1354h-143l-303 262l182 35z" />
    <glyph glyph-name="hungarumlaut.case" horiz-adv-x="905" 
d="M358 1354l265 297l182 -35l-303 -262h-144zM102 1354l265 297l182 -35l-303 -262h-144z" />
    <glyph glyph-name="circumflex.case" horiz-adv-x="907" 
d="M631 1354l-178 157l-179 -157h-137l254 297h123l254 -297h-137z" />
    <glyph glyph-name="caron.case" horiz-adv-x="907" 
d="M514 1362h-123l-254 297h137l179 -158l178 158h137z" />
    <glyph glyph-name="breve.case" horiz-adv-x="890" 
d="M444 1489q80 0 127.5 50t63.5 132h102q0 -129 -90 -223t-213 -94q-132 0 -206 90.5t-74 226.5h102q36 -182 188 -182z" />
    <glyph glyph-name="tilde.case" horiz-adv-x="929" 
d="M723 1599l68 -71q-107 -142 -205 -142q-40 0 -134 34t-118 34q-34 0 -74 -26.5t-59 -45.5l-62 72q124 137 211 137q46 0 130 -30.5t110 -30.5q64 0 133 69z" />
    <glyph glyph-name="macron.case" horiz-adv-x="866" 
d="M702 1567v-31l-36 -94h-502v31l37 94h501z" />
    <glyph glyph-name="dieresis.case" horiz-adv-x="870" 
d="M510 1526q0 30 37.5 70t64.5 40q28 0 71.5 -31.5t43.5 -60.5q0 -30 -38 -70t-64 -40q-28 0 -71.5 32t-43.5 60zM143 1526q0 30 38 70t65 40q28 0 71 -31.5t43 -60.5q0 -30 -38 -70t-64 -40q-28 0 -71.5 32t-43.5 60z" />
    <glyph glyph-name="dotaccent.case" horiz-adv-x="440" 
d="M100 1516q0 33 42.5 77.5t72.5 44.5q31 0 79 -35.5t48 -68.5t-43 -77t-72 -44q-32 0 -79.5 35.5t-47.5 67.5z" />
    <glyph glyph-name="ring.case" horiz-adv-x="694" 
d="M539 1522q0 -74 -58.5 -128.5t-134.5 -54.5q-79 0 -134.5 49.5t-55.5 133.5q0 75 58 129.5t134 54.5q80 0 135.5 -48.5t55.5 -135.5zM254 1522q0 -40 27 -66t65 -26t66 26t28 66q0 43 -28 69.5t-66 26.5t-65 -26.5t-27 -69.5z" />
    <glyph glyph-name="cedilla.case" horiz-adv-x="602" 
d="M176 -186l88 186h96l-51 -111q30 -14 39.5 -18t32.5 -16t31 -18.5t22.5 -18.5t20 -23t10 -25.5t4.5 -31.5q0 -74 -78.5 -134.5t-234.5 -74.5l-23 88q103 12 154 31.5t51 60.5q0 28 -37 50t-119 44z" />
    <glyph glyph-name="ogonek.case" horiz-adv-x="655" 
d="M166 -276q0 77 59 150.5t137 125.5h117q-85 -62 -137.5 -131.5t-52.5 -126.5q0 -39 26 -61.5t62 -22.5q35 0 84 27l28 -84q-80 -43 -151 -43q-82 0 -127 45t-45 121z" />
    <glyph glyph-name="zero.fit" horiz-adv-x="1112" 
d="M1020 651q0 -319 -134 -497.5t-362 -178.5q-207 0 -319.5 163.5t-112.5 463.5q0 319 134 497.5t362 178.5q207 0 319.5 -163.5t112.5 -463.5zM831 627q0 138 -22.5 238.5t-64 158.5t-94 84.5t-118.5 26.5q-61 0 -106 -25t-80 -82.5t-52.5 -157.5t-17.5 -243
q0 -269 80.5 -389.5t218.5 -120.5q61 0 106.5 25.5t80 83t52 158t17.5 243.5z" />
    <glyph glyph-name="one.fit" horiz-adv-x="745" 
d="M561 0h-182v1094l-273 -119l-45 149q88 25 373 129h127v-1253z" />
    <glyph glyph-name="two.fit" horiz-adv-x="980" 
d="M868 0h-770v152q302 277 434 449.5t132 307.5q0 98 -65.5 161t-166.5 63q-112 0 -282 -72l-50 133q211 84 381 84q174 0 278.5 -93t104.5 -249q0 -87 -40.5 -179t-124 -194t-178 -196t-236.5 -220l614 15z" />
    <glyph glyph-name="three.fit" horiz-adv-x="937" 
d="M375 -25q-158 0 -283 33l41 152q144 -41 291 -41q117 0 182.5 54.5t65.5 158.5q0 113 -80.5 176t-208.5 63q-42 0 -96 -4l-29 138q185 0 282 60t97 167q0 98 -64 150.5t-155 52.5q-117 0 -262 -68l-47 131q74 33 172.5 56.5t185.5 23.5q153 0 251.5 -76t98.5 -209
q0 -114 -71.5 -202t-180.5 -127q138 -26 214.5 -102.5t76.5 -190.5q0 -118 -68.5 -210t-177.5 -139t-235 -47z" />
    <glyph glyph-name="four.fit" horiz-adv-x="1107" 
d="M668 410v596l-447 -596h447zM1016 268h-174v-268h-174v268h-629v117l674 893h129v-868h227z" />
    <glyph glyph-name="five.fit" horiz-adv-x="1017" 
d="M344 -25q-93 0 -242 35l45 154q72 -23 156 -36t143 -13q128 0 200.5 63t72.5 170q0 68 -30 120t-79.5 81t-105 43t-115.5 14q-105 0 -211 -20l35 667h676l-33 -151h-500l-22 -359q71 11 131 11q196 0 316 -96.5t120 -247.5q0 -194 -147 -314.5t-410 -120.5z" />
    <glyph glyph-name="six.fit" horiz-adv-x="1038" 
d="M946 410q0 -181 -124 -308t-310 -127q-192 0 -306 147.5t-114 418.5q0 365 153.5 551t416.5 186q128 0 241 -33l-39 -166q-3 1 -22 6.5t-27.5 8t-29 8t-33.5 8t-34.5 7t-38.5 6.5t-38 3.5t-41 1.5q-72 0 -124.5 -20.5t-95 -70t-67.5 -137.5t-34 -218q150 92 303 92
q179 0 271.5 -101.5t92.5 -262.5zM553 113q100 0 156.5 65.5t56.5 186.5q0 53 -14 99t-43 84.5t-79.5 60.5t-117.5 22q-116 0 -240 -66v-53q0 -179 71 -289t210 -110z" />
    <glyph glyph-name="seven.fit" horiz-adv-x="970" 
d="M399 -27l-180 62q72 174 237.5 521t268.5 540l-653 -6l28 161h799v-133q-84 -161 -257.5 -558.5t-242.5 -586.5z" />
    <glyph glyph-name="eight.fit" horiz-adv-x="1015" 
d="M471 -25q-177 0 -283 84t-106 222q0 58 20.5 109t60.5 94.5t83.5 77.5t105.5 73q-112 66 -165.5 139t-53.5 176q0 136 114 231t298 95q91 0 167 -30.5t124.5 -92.5t48.5 -145q0 -173 -244 -326q163 -82 228 -157t65 -181q0 -71 -33 -137.5t-92 -118t-147 -82.5t-191 -31z
M303 975q0 -63 50.5 -119t174.5 -121q94 59 142.5 115.5t48.5 122.5q0 69 -62 120.5t-170 51.5q-91 0 -137.5 -47t-46.5 -123zM537 111q101 0 164 52t63 138q0 35 -11 63t-41.5 61t-91 70.5t-155.5 82.5q-42 -29 -60 -41.5t-49 -37t-43.5 -40.5t-29 -39.5t-22 -48.5
t-5.5 -54q0 -96 79 -151t202 -55z" />
    <glyph glyph-name="nine.fit" horiz-adv-x="1024" 
d="M520 625q122 0 230 51q2 20 2 67q0 177 -74.5 286.5t-214.5 109.5q-197 0 -197 -248q0 -53 14 -99t43 -84.5t79.5 -60.5t117.5 -22zM326 -25q-107 0 -217 31l28 154q105 -41 252 -41q139 0 231.5 108.5t120.5 329.5q-140 -76 -290 -76q-165 0 -265 104.5t-100 260.5
q0 189 119.5 310.5t304.5 121.5q199 0 310.5 -145.5t111.5 -417.5q0 -173 -48.5 -315t-131.5 -234t-192.5 -141.5t-233.5 -49.5z" />
    <glyph glyph-name="zero.osf" horiz-adv-x="1054" 
d="M993 522q0 -123 -39.5 -227t-107 -173t-157 -108t-189.5 -39q-193 0 -316 135t-123 371q0 122 40 225t107.5 172t157 107.5t189.5 38.5q192 0 315 -136t123 -366zM829 479q0 182 -89.5 290t-233.5 108q-127 0 -204 -97t-77 -264q0 -181 89 -287t231 -106q130 0 207 94.5
t77 261.5z" />
    <glyph glyph-name="one.osf" horiz-adv-x="659" 
d="M496 0h-174v840q-105 -56 -246 -129l-56 135q199 87 349 158h127v-1004z" />
    <glyph glyph-name="two.osf" horiz-adv-x="911" 
d="M811 0h-709v141q277 213 382.5 327.5t105.5 219.5q0 86 -60.5 139.5t-142.5 53.5q-121 0 -258 -52l-43 132q68 28 162.5 46.5t181.5 18.5q148 0 248 -79t100 -224q0 -140 -115.5 -276.5t-377.5 -311.5l553 15z" />
    <glyph glyph-name="three.osf" horiz-adv-x="874" 
d="M82 -279l-41 154q139 4 243 19.5t166 38t100 55t51 64.5t13 73q0 96 -84.5 153.5t-212.5 57.5q-52 0 -98 -4l-24 139q63 2 122 11.5t125.5 31.5t107 67.5t40.5 108.5q0 89 -62.5 139t-154.5 50q-139 0 -260 -48l-39 140q169 53 340 53q42 0 88 -9t94.5 -30.5t86.5 -52.5
t62.5 -81t24.5 -110q0 -108 -70.5 -186t-185.5 -119q141 -27 214 -99t73 -171q0 -183 -185 -303.5t-534 -141.5z" />
    <glyph glyph-name="four.osf" horiz-adv-x="1028" 
d="M635 141v611l-418 -611h418zM807 -250l-172 -29v279h-604v119l618 887h158v-865h213l-35 -141h-178v-250z" />
    <glyph glyph-name="five.osf" horiz-adv-x="901" 
d="M834 195q0 -189 -188 -318t-531 -156l-45 160q271 5 425 69t154 189q0 119 -79.5 175.5t-217.5 56.5q-121 0 -215 -25l35 658h655l-32 -154h-473l-23 -338q86 8 125 8q191 0 300.5 -90.5t109.5 -234.5z" />
    <glyph glyph-name="six.osf" horiz-adv-x="989" 
d="M481 -25q-184 0 -295.5 122t-111.5 325q0 251 159 471.5t474 386.5l84 -127q-374 -185 -486 -448q128 69 250 69q176 0 274.5 -103t98.5 -261q0 -184 -124.5 -309.5t-322.5 -125.5zM532 115q104 0 160 64.5t56 174.5q0 54 -14 101.5t-44 88t-83 64t-124 23.5
q-112 0 -219 -60q-10 -65 -10 -125q0 -71 15.5 -129t47 -104.5t86.5 -72t129 -25.5z" />
    <glyph glyph-name="seven.osf" horiz-adv-x="901" 
d="M365 -279l-181 62q81 194 239 536t255 523h-641l29 162h798v-134q-82 -157 -254 -552.5t-245 -596.5z" />
    <glyph glyph-name="eight.osf" horiz-adv-x="999" 
d="M463 -25q-173 0 -281 85t-108 231q0 58 21 109.5t61.5 94.5t83.5 75.5t104 70.5q-111 63 -165 134.5t-54 180.5q0 136 115 229t301 93q140 0 238 -73t98 -197q0 -94 -64 -174t-186 -156q170 -80 234.5 -153.5t64.5 -188.5q0 -147 -129 -254t-334 -107zM299 979
q0 -72 47 -129.5t164 -116.5q98 58 149.5 116t51.5 126q0 69 -62 119.5t-170 50.5q-180 0 -180 -166zM528 113q103 0 165.5 49.5t62.5 126.5q0 61 -21.5 103t-85 87.5t-186.5 102.5q-51 -34 -73 -49.5t-55.5 -43.5t-47 -49t-24.5 -52t-11 -66q0 -97 77 -153t199 -56z" />
    <glyph glyph-name="nine.osf" horiz-adv-x="989" 
d="M264 -279l-90 134q394 175 514 440q-118 -70 -254 -70q-173 0 -273 103.5t-100 261.5q0 184 126 309t309 125q104 0 185.5 -37t131.5 -101t76 -146t26 -177q0 -134 -49.5 -260t-138.5 -232t-205.5 -193.5t-257.5 -156.5zM506 365q112 0 225 67q8 44 8 100q0 96 -27.5 173
t-93.5 128.5t-163 51.5q-104 0 -160.5 -66.5t-56.5 -183.5q0 -50 14.5 -96t45 -86t84 -64t124.5 -24z" />
    <glyph glyph-name="zero.tosf" horiz-adv-x="1003" 
d="M967 522q0 -123 -40 -227t-107.5 -173t-157 -108t-189.5 -39q-193 0 -315.5 135t-122.5 371q0 122 39.5 225t107 172t157 107.5t189.5 38.5q192 0 315.5 -136t123.5 -366zM803 479q0 182 -90 290t-234 108q-127 0 -203.5 -97t-76.5 -264q0 -182 88.5 -287.5t230.5 -105.5
q130 0 207.5 94.5t77.5 261.5z" />
    <glyph glyph-name="one.tosf" horiz-adv-x="1003" 
d="M659 0h-174v840q-127 -68 -245 -129l-56 135q184 81 348 158h127v-1004z" />
    <glyph glyph-name="two.tosf" horiz-adv-x="1003" 
d="M850 0h-709v141q277 213 382.5 327.5t105.5 219.5q0 86 -60.5 139.5t-142.5 53.5q-121 0 -258 -52l-43 132q68 28 162.5 46.5t181.5 18.5q148 0 248 -79t100 -224q0 -140 -115.5 -276.5t-377.5 -311.5l553 15z" />
    <glyph glyph-name="three.tosf" horiz-adv-x="1003" 
d="M133 -279l-41 154q139 4 243 19.5t166.5 38t100 55t51 64.5t13.5 73q0 96 -84.5 153.5t-212.5 57.5q-53 0 -99 -4l-24 139q63 2 122 11.5t125.5 31.5t107 67.5t40.5 108.5q0 89 -62.5 139t-154.5 50q-139 0 -260 -48l-39 140q169 53 340 53q42 0 88 -9t94.5 -30.5
t86.5 -52.5t62.5 -81t24.5 -110q0 -108 -70.5 -186t-185.5 -119q141 -27 214 -99t73 -171q0 -183 -185 -303.5t-534 -141.5z" />
    <glyph glyph-name="four.tosf" horiz-adv-x="1003" 
d="M631 141v611l-418 -611h418zM803 -250l-172 -29v279h-604v119l618 887h158v-865h213l-35 -141h-178v-250z" />
    <glyph glyph-name="five.tosf" horiz-adv-x="1003" 
d="M874 195q0 -189 -187.5 -318t-530.5 -156l-45 160q271 5 425 69t154 189q0 119 -79.5 175.5t-217.5 56.5q-121 0 -215 -25l35 658h655l-32 -154h-474l-22 -338q86 8 125 8q191 0 300 -90.5t109 -234.5z" />
    <glyph glyph-name="six.tosf" horiz-adv-x="1003" 
d="M481 -25q-184 0 -295.5 122t-111.5 325q0 251 159 471.5t474 386.5l84 -127q-374 -185 -486 -448q128 69 250 69q176 0 274.5 -103t98.5 -261q0 -184 -124.5 -309.5t-322.5 -125.5zM532 115q104 0 160 64.5t56 174.5q0 54 -14 101.5t-44 88t-83 64t-124 23.5
q-112 0 -219 -60q-10 -65 -10 -125q0 -71 15.5 -129t47 -104.5t86.5 -72t129 -25.5z" />
    <glyph glyph-name="seven.tosf" horiz-adv-x="1003" 
d="M393 -279l-180 62q81 194 239 536t255 523h-641l28 162h799v-134q-82 -158 -254.5 -553.5t-245.5 -595.5z" />
    <glyph glyph-name="eight.tosf" horiz-adv-x="1003" 
d="M465 -25q-173 0 -281 85t-108 231q0 58 21 109.5t61.5 94.5t83.5 75.5t104 70.5q-111 63 -165 134.5t-54 180.5q0 136 115 229t301 93q140 0 238 -73t98 -197q0 -94 -64 -174t-186 -156q170 -80 234.5 -153.5t64.5 -188.5q0 -147 -129 -254t-334 -107zM301 979
q0 -72 47 -129.5t164 -116.5q98 58 149.5 116t51.5 126q0 69 -62 119.5t-170 50.5q-180 0 -180 -166zM530 113q103 0 165.5 49.5t62.5 126.5q0 61 -21.5 103t-85 87.5t-186.5 102.5q-51 -34 -73 -49.5t-55.5 -43.5t-47 -49t-24.5 -52t-11 -66q0 -97 77 -153t199 -56z" />
    <glyph glyph-name="nine.tosf" horiz-adv-x="1003" 
d="M279 -279l-91 134q394 175 514 440q-118 -70 -253 -70q-173 0 -273 103.5t-100 261.5q0 184 125.5 309t308.5 125q104 0 185.5 -37t132 -101t76.5 -146t26 -177q0 -134 -49.5 -260t-138.5 -232t-205.5 -193.5t-257.5 -156.5zM520 365q112 0 225 67q9 49 9 100
q0 71 -16.5 132.5t-49.5 112t-89.5 79.5t-129.5 29q-104 0 -160.5 -66.5t-56.5 -183.5q0 -50 14.5 -96t45 -86t84 -64t124.5 -24z" />
    <glyph glyph-name="A.sc" horiz-adv-x="1005" 
d="M653 406l-153 436l-160 -436h313zM795 0l-97 274h-405l-100 -274h-168l391 1004h200l365 -1004h-186z" />
    <glyph glyph-name="Agrave.sc" horiz-adv-x="1005" 
d="M676 1108h-144l-303 262l183 35zM653 406l-153 436l-160 -436h313zM795 0l-97 274h-405l-100 -274h-168l391 1004h200l365 -1004h-186z" />
    <glyph glyph-name="Aacute.sc" horiz-adv-x="1005" 
d="M403 1108l265 297l182 -35l-303 -262h-144zM653 406l-153 436l-160 -436h313zM795 0l-97 274h-405l-100 -274h-168l391 1004h200l365 -1004h-186z" />
    <glyph glyph-name="Acircumflex.sc" horiz-adv-x="1005" 
d="M702 1108l-178 158l-178 -158h-137l254 297h123l254 -297h-138zM653 406l-153 436l-160 -436h313zM795 0l-97 274h-405l-100 -274h-168l391 1004h200l365 -1004h-186z" />
    <glyph glyph-name="Atilde.sc" horiz-adv-x="1005" 
d="M788 1354l68 -72q-106 -141 -205 -141q-40 0 -134 33.5t-118 33.5q-34 0 -74 -26t-59 -45l-61 71q125 138 211 138q46 0 129.5 -31t109.5 -31q63 0 133 70zM653 406l-153 436l-160 -436h313zM795 0l-97 274h-405l-100 -274h-168l391 1004h200l365 -1004h-186z" />
    <glyph glyph-name="Adieresis.sc" horiz-adv-x="1005" 
d="M596 1280q0 30 37.5 70.5t64.5 40.5q28 0 71.5 -32t43.5 -61q0 -30 -38 -70t-64 -40q-28 0 -71.5 32t-43.5 60zM229 1280q0 30 38 70.5t65 40.5q28 0 71 -32t43 -61q0 -30 -38 -70t-64 -40q-28 0 -71.5 32t-43.5 60zM653 406l-153 436l-160 -436h313zM795 0l-97 274h-405
l-100 -274h-168l391 1004h200l365 -1004h-186z" />
    <glyph glyph-name="Aring.sc" horiz-adv-x="1005" 
d="M713 1276q0 -74 -58.5 -128t-134.5 -54q-79 0 -134.5 49t-55.5 133q0 75 58 129.5t134 54.5q80 0 135.5 -48.5t55.5 -135.5zM428 1276q0 -40 27 -66t65 -26t66 26t28 66q0 43 -28 69.5t-66 26.5t-65 -26.5t-27 -69.5zM653 406l-153 436l-160 -436h313zM795 0l-97 274
h-405l-100 -274h-168l391 1004h200l365 -1004h-186z" />
    <glyph glyph-name="Amacron.sc" horiz-adv-x="1005" 
d="M797 1321v-31l-37 -94h-502v31l37 94h502zM653 406l-153 436l-160 -436h313zM795 0l-97 274h-405l-100 -274h-168l391 1004h200l365 -1004h-186z" />
    <glyph glyph-name="Abreve.sc" horiz-adv-x="1005" 
d="M522 1243q80 0 127.5 50t63.5 132h102q0 -129 -90 -223t-213 -94q-133 0 -207 90.5t-74 226.5h103q36 -182 188 -182zM653 406l-153 436l-160 -436h313zM795 0l-97 274h-405l-100 -274h-168l391 1004h200l365 -1004h-186z" />
    <glyph glyph-name="Aogonek.sc" horiz-adv-x="1005" 
d="M653 406l-153 436l-160 -436h313zM860 0h-65l-97 274h-405l-100 -274h-168l391 1004h200l365 -1004h-4q-85 -62 -138 -131.5t-53 -126.5q0 -39 26 -61.5t62 -22.5q35 0 84 27l29 -84q-80 -43 -151 -43q-82 0 -127 45t-45 121q0 77 59 150.5t137 125.5z" />
    <glyph glyph-name="Acaron.sc" horiz-adv-x="1005" 
d="M592 1116h-123l-254 297h137l178 -158l179 158h137zM653 406l-153 436l-160 -436h313zM795 0l-97 274h-405l-100 -274h-168l391 1004h200l365 -1004h-186z" />
    <glyph glyph-name="B.sc" horiz-adv-x="980" 
d="M451 563q208 0 208 150q0 178 -231 178q-53 0 -84 -2v-324q19 0 55.5 -1t51.5 -1zM530 119q86 0 139.5 37.5t53.5 117.5q0 86 -67.5 136.5t-186.5 50.5q-17 0 -60 -1t-65 -1v-336q110 -4 186 -4zM164 0v1004h325q164 0 252 -62t88 -176q0 -65 -38.5 -129.5t-124.5 -106.5
q111 -19 174 -79.5t63 -153.5q0 -136 -118.5 -216.5t-327.5 -80.5h-293z" />
    <glyph glyph-name="C.sc" horiz-adv-x="976" 
d="M870 172l33 -121q-56 -31 -146.5 -51t-174.5 -20q-224 0 -362 133t-138 379q0 240 145 386t387 146q90 0 167 -12.5t114 -30.5l-43 -141q-146 51 -277 51q-62 0 -115 -19.5t-97.5 -61.5t-69.5 -116.5t-25 -175.5q0 -109 32 -189.5t86.5 -124.5t116.5 -64.5t132 -20.5
q66 0 132.5 16t102.5 37z" />
    <glyph glyph-name="Ccedilla.sc" horiz-adv-x="976" 
d="M731 -262q0 -74 -78.5 -134.5t-234.5 -74.5l-23 88q103 12 154 31.5t51 60.5q0 28 -37 50t-119 44l-6 11l80 168q-199 19 -317.5 150.5t-118.5 359.5q0 240 145 386t387 146q90 0 167 -12.5t114 -30.5l-43 -141q-146 51 -277 51q-62 0 -115 -19.5t-97.5 -61.5
t-69.5 -116.5t-25 -175.5q0 -109 32 -189.5t86.5 -124.5t116.5 -64.5t132 -20.5q66 0 132.5 16t102.5 37l33 -121q-51 -28 -130.5 -47t-158.5 -24l-43 -91q30 -14 39.5 -18t32.5 -16t31 -18.5t22.5 -18.5t20 -23t10 -25.5t4.5 -31.5z" />
    <glyph glyph-name="Cacute.sc" horiz-adv-x="976" 
d="M420 1108l264 297l182 -35l-303 -262h-143zM870 172l33 -121q-56 -31 -146.5 -51t-174.5 -20q-224 0 -362 133t-138 379q0 240 145 386t387 146q90 0 167 -12.5t114 -30.5l-43 -141q-146 51 -277 51q-62 0 -115 -19.5t-97.5 -61.5t-69.5 -116.5t-25 -175.5
q0 -109 32 -189.5t86.5 -124.5t116.5 -64.5t132 -20.5q66 0 132.5 16t102.5 37z" />
    <glyph glyph-name="Ccircumflex.sc" horiz-adv-x="976" 
d="M784 1108l-178 158l-178 -158h-137l254 297h123l254 -297h-138zM870 172l33 -121q-56 -31 -146.5 -51t-174.5 -20q-224 0 -362 133t-138 379q0 240 145 386t387 146q90 0 167 -12.5t114 -30.5l-43 -141q-146 51 -277 51q-62 0 -115 -19.5t-97.5 -61.5t-69.5 -116.5
t-25 -175.5q0 -109 32 -189.5t86.5 -124.5t116.5 -64.5t132 -20.5q66 0 132.5 16t102.5 37z" />
    <glyph glyph-name="Cdotaccent.sc" horiz-adv-x="976" 
d="M469 1270q0 33 42.5 78t72.5 45q31 0 79 -36t48 -69t-43 -77t-72 -44q-32 0 -79.5 35.5t-47.5 67.5zM870 172l33 -121q-56 -31 -146.5 -51t-174.5 -20q-224 0 -362 133t-138 379q0 240 145 386t387 146q90 0 167 -12.5t114 -30.5l-43 -141q-146 51 -277 51
q-62 0 -115 -19.5t-97.5 -61.5t-69.5 -116.5t-25 -175.5q0 -109 32 -189.5t86.5 -124.5t116.5 -64.5t132 -20.5q66 0 132.5 16t102.5 37z" />
    <glyph glyph-name="Ccaron.sc" horiz-adv-x="976" 
d="M684 1116h-123l-254 297h137l179 -158l178 158h137zM870 172l33 -121q-56 -31 -146.5 -51t-174.5 -20q-224 0 -362 133t-138 379q0 240 145 386t387 146q90 0 167 -12.5t114 -30.5l-43 -141q-146 51 -277 51q-62 0 -115 -19.5t-97.5 -61.5t-69.5 -116.5t-25 -175.5
q0 -109 32 -189.5t86.5 -124.5t116.5 -64.5t132 -20.5q66 0 132.5 16t102.5 37z" />
    <glyph glyph-name="D.sc" horiz-adv-x="1101" 
d="M164 1004h348q234 0 371 -124.5t137 -347.5q0 -124 -45 -226t-124 -170t-187 -105t-234 -37q-74 0 -266 16v994zM344 881v-746q90 -8 152 -8q70 0 129 20.5t107.5 63.5t76 119t27.5 178q0 97 -29.5 170t-83 116.5t-120.5 65t-148 21.5h-111z" />
    <glyph glyph-name="Dcaron.sc" horiz-adv-x="1101" 
d="M596 1116h-123l-254 297h137l179 -158l178 158h137zM164 1004h348q234 0 371 -124.5t137 -347.5q0 -124 -45 -226t-124 -170t-187 -105t-234 -37q-74 0 -266 16v994zM344 881v-746q90 -8 152 -8q70 0 129 20.5t107.5 63.5t76 119t27.5 178q0 97 -29.5 170t-83 116.5
t-120.5 65t-148 21.5h-111z" />
    <glyph glyph-name="E.sc" 
d="M164 0v1004h629l-17 -134q-72 1 -216 3.5t-216 3.5v-299h399l-18 -121l-381 6v-332l477 6l-16 -137h-641z" />
    <glyph glyph-name="Egrave.sc" 
d="M698 1108h-143l-303 262l182 35zM164 0v1004h629l-17 -134q-72 1 -216 3.5t-216 3.5v-299h399l-18 -121l-381 6v-332l477 6l-16 -137h-641z" />
    <glyph glyph-name="Eacute.sc" 
d="M324 1108l264 297l182 -35l-303 -262h-143zM164 0v1004h629l-17 -134q-72 1 -216 3.5t-216 3.5v-299h399l-18 -121l-381 6v-332l477 6l-16 -137h-641z" />
    <glyph glyph-name="Ecircumflex.sc" 
d="M664 1108l-179 158l-178 -158h-137l254 297h123l254 -297h-137zM164 0v1004h629l-17 -134q-72 1 -216 3.5t-216 3.5v-299h399l-18 -121l-381 6v-332l477 6l-16 -137h-641z" />
    <glyph glyph-name="Edieresis.sc" 
d="M569 1280q0 30 38 70.5t65 40.5q28 0 71 -32t43 -61q0 -30 -38 -70t-64 -40q-28 0 -71.5 32t-43.5 60zM203 1280q0 30 37.5 70.5t64.5 40.5q28 0 71.5 -32t43.5 -61q0 -30 -38.5 -70t-64.5 -40q-28 0 -71 32t-43 60zM164 0v1004h629l-17 -134q-72 1 -216 3.5t-216 3.5
v-299h399l-18 -121l-381 6v-332l477 6l-16 -137h-641z" />
    <glyph glyph-name="Emacron.sc" 
d="M770 1321v-31l-37 -94h-502v31l37 94h502zM164 0v1004h629l-17 -134q-72 1 -216 3.5t-216 3.5v-299h399l-18 -121l-381 6v-332l477 6l-16 -137h-641z" />
    <glyph glyph-name="Ebreve.sc" 
d="M496 1243q80 0 127 49.5t63 132.5h102q0 -129 -90 -223t-213 -94q-132 0 -206 90.5t-74 226.5h102q16 -83 62.5 -132.5t126.5 -49.5zM164 0v1004h629l-17 -134q-72 1 -216 3.5t-216 3.5v-299h399l-18 -121l-381 6v-332l477 6l-16 -137h-641z" />
    <glyph glyph-name="Edotaccent.sc" 
d="M373 1270q0 33 42 78t72 45q31 0 79 -36t48 -69t-42.5 -77t-71.5 -44q-32 0 -79.5 35.5t-47.5 67.5zM164 0v1004h629l-17 -134q-72 1 -216 3.5t-216 3.5v-299h399l-18 -121l-381 6v-332l477 6l-16 -137h-641z" />
    <glyph glyph-name="Eogonek.sc" 
d="M164 0v1004h629l-17 -134q-72 1 -216 3.5t-216 3.5v-299h399l-18 -121l-381 6v-332l477 6l-16 -137h-641zM487 -276q0 77 59.5 150.5t137.5 125.5h117q-85 -62 -138 -131.5t-53 -126.5q0 -39 26 -61.5t62 -22.5q35 0 84 27l29 -84q-80 -43 -152 -43q-82 0 -127 45
t-45 121z" />
    <glyph glyph-name="Ecaron.sc" 
d="M563 1116h-123l-254 297h138l178 -158l178 158h137zM164 0v1004h629l-17 -134q-72 1 -216 3.5t-216 3.5v-299h399l-18 -121l-381 6v-332l477 6l-16 -137h-641z" />
    <glyph glyph-name="F.sc" horiz-adv-x="864" 
d="M723 438l-379 4v-442h-180v1004h629l-17 -134l-432 7v-316h397z" />
    <glyph glyph-name="G.sc" horiz-adv-x="1019" 
d="M915 53q-67 -30 -166.5 -51.5t-195.5 -21.5q-215 0 -343 133.5t-128 367.5q0 245 143.5 394t386.5 149q190 0 303 -55l-45 -135q-55 24 -134.5 40.5t-153.5 16.5q-68 0 -123 -20.5t-99 -63t-68 -116t-24 -173.5q0 -107 26.5 -187.5t72.5 -127.5t102.5 -69.5t122.5 -22.5
q71 0 168 22l-15 365h173z" />
    <glyph glyph-name="Gcircumflex.sc" horiz-adv-x="1019" 
d="M758 1108l-178 158l-179 -158h-137l254 297h123l254 -297h-137zM915 53q-67 -30 -166.5 -51.5t-195.5 -21.5q-215 0 -343 133.5t-128 367.5q0 245 143.5 394t386.5 149q190 0 303 -55l-45 -135q-55 24 -134.5 40.5t-153.5 16.5q-68 0 -123 -20.5t-99 -63t-68 -116
t-24 -173.5q0 -107 26.5 -187.5t72.5 -127.5t102.5 -69.5t122.5 -22.5q71 0 168 22l-15 365h173z" />
    <glyph glyph-name="Gbreve.sc" horiz-adv-x="1019" 
d="M580 1243q80 0 127 49.5t63 132.5h102q0 -129 -90 -223t-213 -94q-132 0 -206 90.5t-74 226.5h102q16 -83 62.5 -132.5t126.5 -49.5zM915 53q-67 -30 -166.5 -51.5t-195.5 -21.5q-215 0 -343 133.5t-128 367.5q0 245 143.5 394t386.5 149q190 0 303 -55l-45 -135
q-55 24 -134.5 40.5t-153.5 16.5q-68 0 -123 -20.5t-99 -63t-68 -116t-24 -173.5q0 -107 26.5 -187.5t72.5 -127.5t102.5 -69.5t122.5 -22.5q71 0 168 22l-15 365h173z" />
    <glyph glyph-name="Gdotaccent.sc" horiz-adv-x="1019" 
d="M479 1270q0 33 42.5 78t72.5 45q31 0 79 -36t48 -69t-43 -77t-72 -44q-32 0 -79.5 35.5t-47.5 67.5zM915 53q-67 -30 -166.5 -51.5t-195.5 -21.5q-215 0 -343 133.5t-128 367.5q0 245 143.5 394t386.5 149q190 0 303 -55l-45 -135q-55 24 -134.5 40.5t-153.5 16.5
q-68 0 -123 -20.5t-99 -63t-68 -116t-24 -173.5q0 -107 26.5 -187.5t72.5 -127.5t102.5 -69.5t122.5 -22.5q71 0 168 22l-15 365h173z" />
    <glyph glyph-name="Gcommaaccent.sc" horiz-adv-x="1019" 
d="M915 53q-67 -30 -166.5 -51.5t-195.5 -21.5q-215 0 -343 133.5t-128 367.5q0 245 143.5 394t386.5 149q190 0 303 -55l-45 -135q-55 24 -134.5 40.5t-153.5 16.5q-68 0 -123 -20.5t-99 -63t-68 -116t-24 -173.5q0 -107 26.5 -187.5t72.5 -127.5t102.5 -69.5t122.5 -22.5
q71 0 168 22l-15 365h173zM492 -172q0 28 29.5 55t60.5 27t71.5 -44t40.5 -81t-28 -102t-97 -191l-90 35q76 158 76 203q0 9 -31.5 42t-31.5 56z" />
    <glyph glyph-name="H.sc" horiz-adv-x="1163" 
d="M815 0v455h-467v-455h-184v1004h184v-418h467v418h184v-1004h-184z" />
    <glyph glyph-name="Hcircumflex.sc" horiz-adv-x="1163" 
d="M772 1108l-178 158l-178 -158h-137l253 297h123l254 -297h-137zM815 0v455h-467v-455h-184v1004h184v-418h467v418h184v-1004h-184z" />
    <glyph glyph-name="I.sc" horiz-adv-x="507" 
d="M344 1004v-1004h-180v1004h180z" />
    <glyph glyph-name="Igrave.sc" horiz-adv-x="507" 
d="M379 1108h-143l-304 262l183 35zM344 1004v-1004h-180v1004h180z" />
    <glyph glyph-name="Iacute.sc" horiz-adv-x="507" 
d="M147 1108l265 297l182 -35l-303 -262h-144zM344 1004v-1004h-180v1004h180z" />
    <glyph glyph-name="Icircumflex.sc" horiz-adv-x="507" 
d="M432 1108l-178 158l-178 -158h-137l254 297h122l254 -297h-137zM344 1004v-1004h-180v1004h180z" />
    <glyph glyph-name="Idieresis.sc" horiz-adv-x="507" 
d="M332 1280q0 30 37.5 70.5t64.5 40.5q28 0 71.5 -32t43.5 -61q0 -30 -38.5 -70t-64.5 -40q-28 0 -71 32t-43 60zM-35 1280q0 30 38 70.5t65 40.5q28 0 71 -32t43 -61q0 -30 -38 -70t-64 -40q-28 0 -71.5 32t-43.5 60zM344 1004v-1004h-180v1004h180z" />
    <glyph glyph-name="Itilde.sc" horiz-adv-x="507" 
d="M512 1354l68 -72q-106 -141 -205 -141q-40 0 -134 33.5t-118 33.5q-34 0 -74 -26t-59 -45l-62 71q125 138 211 138q46 0 130 -31t110 -31q63 0 133 70zM344 1004v-1004h-180v1004h180z" />
    <glyph glyph-name="Imacron.sc" horiz-adv-x="507" 
d="M530 1321v-31l-36 -94h-502v31l37 94h501zM344 1004v-1004h-180v1004h180z" />
    <glyph glyph-name="Ibreve.sc" horiz-adv-x="507" 
d="M254 1243q80 0 127 49.5t63 132.5h103q0 -129 -90 -223t-213 -94q-133 0 -207 90.5t-74 226.5h103q36 -182 188 -182zM344 1004v-1004h-180v1004h180z" />
    <glyph glyph-name="Iogonek.sc" horiz-adv-x="507" 
d="M223 0h-59v1004h180v-1004h-4q-85 -62 -137.5 -131.5t-52.5 -126.5q0 -39 26 -61.5t62 -22.5q35 0 84 27l28 -84q-80 -43 -151 -43q-82 0 -127 45t-45 121q0 77 59 150.5t137 125.5z" />
    <glyph glyph-name="Idotaccent.sc" horiz-adv-x="507" 
d="M135 1270q0 33 42.5 78t72.5 45q31 0 79 -36t48 -69t-43 -77t-72 -44q-32 0 -79.5 35.5t-47.5 67.5zM344 1004v-1004h-180v1004h180z" />
    <glyph glyph-name="J.sc" horiz-adv-x="645" 
d="M498 1004v-713q0 -147 -87.5 -229t-220.5 -82q-104 0 -165 28l30 137q89 -34 142 -34q56 0 88 35t32 104v754h181z" />
    <glyph glyph-name="Jcircumflex.sc" horiz-adv-x="645" 
d="M586 1108l-178 158l-179 -158h-137l254 297h123l254 -297h-137zM498 1004v-713q0 -147 -87.5 -229t-220.5 -82q-104 0 -165 28l30 137q89 -34 142 -34q56 0 88 35t32 104v754h181z" />
    <glyph glyph-name="K.sc" horiz-adv-x="1036" 
d="M1012 0h-232l-436 520l414 484h213l-432 -467zM344 1004v-1004h-180v1004h180z" />
    <glyph glyph-name="Kcommaaccent.sc" horiz-adv-x="1036" 
d="M1012 0h-232l-436 520l414 484h213l-432 -467zM344 1004v-1004h-180v1004h180zM428 -172q0 28 29.5 55t60.5 27q32 0 72.5 -44t40.5 -81t-28 -102t-97 -191l-90 35q76 158 76 203q0 9 -32 42t-32 56z" />
    <glyph glyph-name="L.sc" horiz-adv-x="819" 
d="M164 0v1004h180v-873l438 6l-18 -137h-600z" />
    <glyph glyph-name="Lacute.sc" horiz-adv-x="819" 
d="M158 1108l264 297l182 -35l-303 -262h-143zM164 0v1004h180v-873l438 6l-18 -137h-600z" />
    <glyph glyph-name="Lcommaaccent.sc" horiz-adv-x="819" 
d="M164 0v1004h180v-873l438 6l-18 -137h-600zM352 -172q0 28 29.5 55t60.5 27q32 0 72.5 -44t40.5 -81t-28 -102t-97 -191l-90 35q76 158 76 203q0 9 -32 42t-32 56z" />
    <glyph glyph-name="Lcaron.sc" horiz-adv-x="819" 
d="M582 1067q3 24 37 45t67 21q31 0 56.5 -52.5t25.5 -107.5q0 -58 -33 -127.5t-114 -183.5l-72 45q43 78 61.5 123t18.5 83q0 40 -23.5 93t-23.5 61zM164 0v1004h180v-873l438 6l-18 -137h-600z" />
    <glyph glyph-name="M.sc" horiz-adv-x="1435" 
d="M629 0l-293 778l-76 -778h-168l113 1004h219l297 -777l299 777h215l108 -1004h-180l-78 784l-299 -784h-157z" />
    <glyph glyph-name="N.sc" horiz-adv-x="1179" 
d="M844 0l-514 754v-754h-166v1004h186l502 -748v748h164v-1004h-172z" />
    <glyph glyph-name="Ntilde.sc" horiz-adv-x="1179" 
d="M874 1354l68 -72q-106 -141 -205 -141q-40 0 -134 33.5t-118 33.5q-34 0 -74 -26t-59 -45l-61 71q125 138 211 138q46 0 129.5 -31t109.5 -31q63 0 133 70zM844 0l-514 754v-754h-166v1004h186l502 -748v748h164v-1004h-172z" />
    <glyph glyph-name="Nacute.sc" horiz-adv-x="1179" 
d="M440 1108l265 297l182 -35l-303 -262h-144zM844 0l-514 754v-754h-166v1004h186l502 -748v748h164v-1004h-172z" />
    <glyph glyph-name="Ncommaaccent.sc" horiz-adv-x="1179" 
d="M844 0l-514 754v-754h-166v1004h186l502 -748v748h164v-1004h-172zM492 -172q0 28 29.5 55t60.5 27t71.5 -44t40.5 -81t-28 -102t-97 -191l-90 35q76 158 76 203q0 9 -31.5 42t-31.5 56z" />
    <glyph glyph-name="Ncaron.sc" horiz-adv-x="1179" 
d="M690 1116h-123l-254 297h138l178 -158l178 158h137zM844 0l-514 754v-754h-166v1004h186l502 -748v748h164v-1004h-172z" />
    <glyph glyph-name="O.sc" horiz-adv-x="1165" 
d="M1083 520q0 -251 -150 -395.5t-392 -144.5q-207 0 -333 133t-126 368q0 252 150.5 397.5t392.5 145.5q206 0 332 -134.5t126 -369.5zM897 475q0 214 -91.5 315t-252.5 101q-127 0 -206 -90t-79 -273q0 -215 91 -316t251 -101q129 0 208 89.5t79 274.5z" />
    <glyph glyph-name="Ograve.sc" horiz-adv-x="1165" 
d="M831 1108h-143l-303 262l182 35zM1083 520q0 -251 -150 -395.5t-392 -144.5q-207 0 -333 133t-126 368q0 252 150.5 397.5t392.5 145.5q206 0 332 -134.5t126 -369.5zM897 475q0 214 -91.5 315t-252.5 101q-127 0 -206 -90t-79 -273q0 -215 91 -316t251 -101
q129 0 208 89.5t79 274.5z" />
    <glyph glyph-name="Oacute.sc" horiz-adv-x="1165" 
d="M395 1108l264 297l183 -35l-303 -262h-144zM1083 520q0 -251 -150 -395.5t-392 -144.5q-207 0 -333 133t-126 368q0 252 150.5 397.5t392.5 145.5q206 0 332 -134.5t126 -369.5zM897 475q0 214 -91.5 315t-252.5 101q-127 0 -206 -90t-79 -273q0 -215 91 -316t251 -101
q129 0 208 89.5t79 274.5z" />
    <glyph glyph-name="Ocircumflex.sc" horiz-adv-x="1165" 
d="M782 1108l-178 158l-178 -158h-137l254 297h123l254 -297h-138zM1083 520q0 -251 -150 -395.5t-392 -144.5q-207 0 -333 133t-126 368q0 252 150.5 397.5t392.5 145.5q206 0 332 -134.5t126 -369.5zM897 475q0 214 -91.5 315t-252.5 101q-127 0 -206 -90t-79 -273
q0 -215 91 -316t251 -101q129 0 208 89.5t79 274.5z" />
    <glyph glyph-name="Otilde.sc" horiz-adv-x="1165" 
d="M862 1354l68 -72q-106 -141 -205 -141q-40 0 -134 33.5t-118 33.5q-34 0 -74 -26t-59 -45l-61 71q125 138 210 138q46 0 130 -31t110 -31q63 0 133 70zM1083 520q0 -251 -150 -395.5t-392 -144.5q-207 0 -333 133t-126 368q0 252 150.5 397.5t392.5 145.5
q206 0 332 -134.5t126 -369.5zM897 475q0 214 -91.5 315t-252.5 101q-127 0 -206 -90t-79 -273q0 -215 91 -316t251 -101q129 0 208 89.5t79 274.5z" />
    <glyph glyph-name="Odieresis.sc" horiz-adv-x="1165" 
d="M670 1280q0 30 37.5 70.5t64.5 40.5q28 0 71.5 -32t43.5 -61q0 -30 -38.5 -70t-64.5 -40q-28 0 -71 32t-43 60zM303 1280q0 30 38 70.5t65 40.5q28 0 71 -32t43 -61q0 -30 -38 -70t-64 -40q-28 0 -71.5 32t-43.5 60zM1083 520q0 -251 -150 -395.5t-392 -144.5
q-207 0 -333 133t-126 368q0 252 150.5 397.5t392.5 145.5q206 0 332 -134.5t126 -369.5zM897 475q0 214 -91.5 315t-252.5 101q-127 0 -206 -90t-79 -273q0 -215 91 -316t251 -101q129 0 208 89.5t79 274.5z" />
    <glyph glyph-name="Omacron.sc" horiz-adv-x="1165" 
d="M864 1321v-31l-37 -94h-501v31l36 94h502zM1083 520q0 -251 -150 -395.5t-392 -144.5q-207 0 -333 133t-126 368q0 252 150.5 397.5t392.5 145.5q206 0 332 -134.5t126 -369.5zM897 475q0 214 -91.5 315t-252.5 101q-127 0 -206 -90t-79 -273q0 -215 91 -316t251 -101
q129 0 208 89.5t79 274.5z" />
    <glyph glyph-name="Obreve.sc" horiz-adv-x="1165" 
d="M602 1243q80 0 127.5 50t63.5 132h102q0 -129 -90 -223t-213 -94q-133 0 -207 90.5t-74 226.5h103q36 -182 188 -182zM1083 520q0 -251 -150 -395.5t-392 -144.5q-207 0 -333 133t-126 368q0 252 150.5 397.5t392.5 145.5q206 0 332 -134.5t126 -369.5zM897 475
q0 214 -91.5 315t-252.5 101q-127 0 -206 -90t-79 -273q0 -215 91 -316t251 -101q129 0 208 89.5t79 274.5z" />
    <glyph glyph-name="Ohungarumlaut.sc" horiz-adv-x="1165" 
d="M584 1108l264 297l182 -35l-303 -262h-143zM328 1108l264 297l182 -35l-303 -262h-143zM1083 520q0 -251 -150 -395.5t-392 -144.5q-207 0 -333 133t-126 368q0 252 150.5 397.5t392.5 145.5q206 0 332 -134.5t126 -369.5zM897 475q0 214 -91.5 315t-252.5 101
q-127 0 -206 -90t-79 -273q0 -215 91 -316t251 -101q129 0 208 89.5t79 274.5z" />
    <glyph glyph-name="P.sc" horiz-adv-x="929" 
d="M459 508q115 0 171 44t56 140q0 95 -64 146t-192 51h-86v-377q74 -4 115 -4zM420 385q-51 0 -76 2v-387h-180v1004h321q186 0 286.5 -70.5t100.5 -210.5q0 -107 -65.5 -185.5t-166 -115.5t-220.5 -37z" />
    <glyph glyph-name="Q.sc" horiz-adv-x="1165" 
d="M1083 520q0 -251 -150 -395.5t-392 -144.5q-207 0 -333 133t-126 368q0 252 150.5 397.5t392.5 145.5q206 0 332 -134.5t126 -369.5zM897 475q0 214 -91.5 315t-252.5 101q-127 0 -206 -90t-79 -273q0 -215 91 -316t251 -101q129 0 208 89.5t79 274.5zM1092 -131v-131
q-79 -47 -170 -47q-62 0 -151 28.5t-172 57t-132 28.5q-73 0 -170 -69l-49 110q61 31 128 49.5t113 18.5q77 0 164 -22t164 -44t131 -22q83 0 144 43z" />
    <glyph glyph-name="R.sc" horiz-adv-x="995" 
d="M477 535q82 0 136.5 39.5t54.5 123.5q0 189 -219 189q-72 0 -105 -2v-344q61 -6 133 -6zM436 414q-10 0 -41.5 1t-50.5 1v-416h-180v1004h338q166 0 258 -67.5t92 -201.5q0 -92 -50 -160.5t-134 -109.5l266 -465h-199l-219 420q-40 -6 -80 -6z" />
    <glyph glyph-name="Racute.sc" horiz-adv-x="995" 
d="M322 1108l264 297l182 -35l-303 -262h-143zM477 535q82 0 136.5 39.5t54.5 123.5q0 189 -219 189q-72 0 -105 -2v-344q61 -6 133 -6zM436 414q-10 0 -41.5 1t-50.5 1v-416h-180v1004h338q166 0 258 -67.5t92 -201.5q0 -92 -50 -160.5t-134 -109.5l266 -465h-199l-219 420
q-40 -6 -80 -6z" />
    <glyph glyph-name="Rcommaaccent.sc" horiz-adv-x="995" 
d="M477 535q82 0 136.5 39.5t54.5 123.5q0 189 -219 189q-72 0 -105 -2v-344q61 -6 133 -6zM436 414q-10 0 -41.5 1t-50.5 1v-416h-180v1004h338q166 0 258 -67.5t92 -201.5q0 -92 -50 -160.5t-134 -109.5l266 -465h-199l-219 420q-40 -6 -80 -6zM408 -172q0 28 29.5 55
t60.5 27t71.5 -44t40.5 -81t-28 -102t-97 -191l-90 35q76 158 76 203q0 9 -31.5 42t-31.5 56z" />
    <glyph glyph-name="Rcaron.sc" horiz-adv-x="995" 
d="M549 1116h-123l-254 297h137l178 -158l179 158h137zM477 535q82 0 136.5 39.5t54.5 123.5q0 189 -219 189q-72 0 -105 -2v-344q61 -6 133 -6zM436 414q-10 0 -41.5 1t-50.5 1v-416h-180v1004h338q166 0 258 -67.5t92 -201.5q0 -92 -50 -160.5t-134 -109.5l266 -465h-199
l-219 420q-40 -6 -80 -6z" />
    <glyph glyph-name="S.sc" 
d="M408 442q-162 63 -227.5 127t-65.5 176q0 119 104.5 199t265.5 80q184 0 306 -39l-33 -145q-156 57 -309 57q-78 0 -123 -32t-45 -91q0 -60 48 -100t173 -88q179 -68 244 -136t65 -171q0 -135 -116 -219.5t-308 -84.5q-153 0 -295 43l35 152q164 -64 313 -64q93 0 146 33
t53 94q0 66 -48 111.5t-183 97.5z" />
    <glyph glyph-name="Sacute.sc" 
d="M326 1108l264 297l182 -35l-303 -262h-143zM408 442q-162 63 -227.5 127t-65.5 176q0 119 104.5 199t265.5 80q184 0 306 -39l-33 -145q-156 57 -309 57q-78 0 -123 -32t-45 -91q0 -60 48 -100t173 -88q179 -68 244 -136t65 -171q0 -135 -116 -219.5t-308 -84.5
q-153 0 -295 43l35 152q164 -64 313 -64q93 0 146 33t53 94q0 66 -48 111.5t-183 97.5z" />
    <glyph glyph-name="Scircumflex.sc" 
d="M670 1108l-178 158l-179 -158h-137l254 297h123l254 -297h-137zM408 442q-162 63 -227.5 127t-65.5 176q0 119 104.5 199t265.5 80q184 0 306 -39l-33 -145q-156 57 -309 57q-78 0 -123 -32t-45 -91q0 -60 48 -100t173 -88q179 -68 244 -136t65 -171q0 -135 -116 -219.5
t-308 -84.5q-153 0 -295 43l35 152q164 -64 313 -64q93 0 146 33t53 94q0 66 -48 111.5t-183 97.5z" />
    <glyph glyph-name="Scedilla.sc" 
d="M281 -471l-23 88q103 12 154 31.5t51 60.5q0 28 -37 50t-119 44l-6 11l76 161q-157 3 -285 43l35 152q164 -64 313 -64q93 0 146 33t53 94q0 66 -48 111.5t-183 97.5q-162 63 -227.5 127t-65.5 176q0 119 104.5 199t265.5 80q184 0 306 -39l-33 -145q-156 57 -309 57
q-78 0 -123 -32t-45 -91q0 -60 48 -100t173 -88q179 -68 244 -136t65 -171q0 -117 -90.5 -197.5t-243.5 -99.5l-43 -93q30 -14 39.5 -18t32.5 -16t31 -18.5t22.5 -18.5t20 -23t10 -25.5t4.5 -31.5q0 -74 -78.5 -134.5t-234.5 -74.5z" />
    <glyph glyph-name="Scaron.sc" 
d="M559 1116h-123l-254 297h137l179 -158l178 158h137zM408 442q-162 63 -227.5 127t-65.5 176q0 119 104.5 199t265.5 80q184 0 306 -39l-33 -145q-156 57 -309 57q-78 0 -123 -32t-45 -91q0 -60 48 -100t173 -88q179 -68 244 -136t65 -171q0 -135 -116 -219.5t-308 -84.5
q-153 0 -295 43l35 152q164 -64 313 -64q93 0 146 33t53 94q0 66 -48 111.5t-183 97.5z" />
    <glyph glyph-name="Scommaaccent.sc" 
d="M408 442q-162 63 -227.5 127t-65.5 176q0 119 104.5 199t265.5 80q184 0 306 -39l-33 -145q-156 57 -309 57q-78 0 -123 -32t-45 -91q0 -60 48 -100t173 -88q179 -68 244 -136t65 -171q0 -135 -116 -219.5t-308 -84.5q-153 0 -295 43l35 152q164 -64 313 -64q93 0 146 33
t53 94q0 66 -48 111.5t-183 97.5zM365 -172q0 28 29.5 55t60.5 27t71.5 -44t40.5 -81t-28 -102t-97 -191l-90 35q76 158 76 203q0 9 -31.5 42t-31.5 56z" />
    <glyph glyph-name="T.sc" horiz-adv-x="909" 
d="M866 870l-317 4v-874h-180v874l-344 -4l20 134h840z" />
    <glyph glyph-name="Tcommaaccent.sc" horiz-adv-x="909" 
d="M866 870l-317 4v-874h-180v874l-344 -4l20 134h840zM350 -172q0 28 29.5 55t60.5 27q32 0 72.5 -44t40.5 -81t-28 -102t-97 -191l-90 35q76 158 76 203q0 9 -32 42t-32 56z" />
    <glyph glyph-name="Tcaron.sc" horiz-adv-x="909" 
d="M524 1116h-123l-254 297h138l178 -158l178 158h137zM866 870l-317 4v-874h-180v874l-344 -4l20 134h840z" />
    <glyph glyph-name="U.sc" horiz-adv-x="1163" 
d="M154 356v648h178v-613q0 -137 73 -201.5t195 -64.5q112 0 175 57t63 170v652h172v-623q0 -189 -118 -295t-329 -106q-187 0 -298 96.5t-111 279.5z" />
    <glyph glyph-name="Ugrave.sc" horiz-adv-x="1163" 
d="M836 1108h-144l-303 262l182 35zM154 356v648h178v-613q0 -137 73 -201.5t195 -64.5q112 0 175 57t63 170v652h172v-623q0 -189 -118 -295t-329 -106q-187 0 -298 96.5t-111 279.5z" />
    <glyph glyph-name="Uacute.sc" horiz-adv-x="1163" 
d="M391 1108l264 297l183 -35l-303 -262h-144zM154 356v648h178v-613q0 -137 73 -201.5t195 -64.5q112 0 175 57t63 170v652h172v-623q0 -189 -118 -295t-329 -106q-187 0 -298 96.5t-111 279.5z" />
    <glyph glyph-name="Ucircumflex.sc" horiz-adv-x="1163" 
d="M778 1108l-178 158l-178 -158h-137l254 297h123l253 -297h-137zM154 356v648h178v-613q0 -137 73 -201.5t195 -64.5q112 0 175 57t63 170v652h172v-623q0 -189 -118 -295t-329 -106q-187 0 -298 96.5t-111 279.5z" />
    <glyph glyph-name="Udieresis.sc" horiz-adv-x="1163" 
d="M670 1280q0 30 37.5 70.5t64.5 40.5q28 0 71.5 -32t43.5 -61q0 -30 -38.5 -70t-64.5 -40q-28 0 -71 32t-43 60zM303 1280q0 30 38 70.5t65 40.5q28 0 71 -32t43 -61q0 -30 -38 -70t-64 -40q-28 0 -71.5 32t-43.5 60zM154 356v648h178v-613q0 -137 73 -201.5t195 -64.5
q112 0 175 57t63 170v652h172v-623q0 -189 -118 -295t-329 -106q-187 0 -298 96.5t-111 279.5z" />
    <glyph glyph-name="Utilde.sc" horiz-adv-x="1163" 
d="M848 1354l67 -72q-106 -141 -204 -141q-40 0 -134 33.5t-118 33.5q-34 0 -74 -26t-59 -45l-62 71q125 138 211 138q46 0 130 -31t110 -31q63 0 133 70zM154 356v648h178v-613q0 -137 73 -201.5t195 -64.5q112 0 175 57t63 170v652h172v-623q0 -189 -118 -295t-329 -106
q-187 0 -298 96.5t-111 279.5z" />
    <glyph glyph-name="Umacron.sc" horiz-adv-x="1163" 
d="M864 1321v-31l-37 -94h-501v31l36 94h502zM154 356v648h178v-613q0 -137 73 -201.5t195 -64.5q112 0 175 57t63 170v652h172v-623q0 -189 -118 -295t-329 -106q-187 0 -298 96.5t-111 279.5z" />
    <glyph glyph-name="Ubreve.sc" horiz-adv-x="1163" 
d="M596 1243q80 0 127 49.5t63 132.5h103q0 -129 -90 -223t-213 -94q-133 0 -207 90.5t-74 226.5h103q36 -182 188 -182zM154 356v648h178v-613q0 -137 73 -201.5t195 -64.5q112 0 175 57t63 170v652h172v-623q0 -189 -118 -295t-329 -106q-187 0 -298 96.5t-111 279.5z" />
    <glyph glyph-name="Uring.sc" horiz-adv-x="1163" 
d="M795 1276q0 -74 -58.5 -128t-134.5 -54q-79 0 -134.5 49t-55.5 133q0 75 58 129.5t134 54.5q80 0 135.5 -48.5t55.5 -135.5zM510 1276q0 -40 27 -66t65 -26t66 26t28 66q0 43 -28 69.5t-66 26.5t-65 -26.5t-27 -69.5zM154 356v648h178v-613q0 -137 73 -201.5t195 -64.5
q112 0 175 57t63 170v652h172v-623q0 -189 -118 -295t-329 -106q-187 0 -298 96.5t-111 279.5z" />
    <glyph glyph-name="Uhungarumlaut.sc" horiz-adv-x="1163" 
d="M563 1108l264 297l183 -35l-303 -262h-144zM307 1108l264 297l183 -35l-303 -262h-144zM154 356v648h178v-613q0 -137 73 -201.5t195 -64.5q112 0 175 57t63 170v652h172v-623q0 -189 -118 -295t-329 -106q-187 0 -298 96.5t-111 279.5z" />
    <glyph glyph-name="Uogonek.sc" horiz-adv-x="1163" 
d="M721 -381q-82 0 -127 45t-45 121q0 95 102 201q-41 -6 -88 -6q-187 0 -298 96.5t-111 279.5v648h178v-613q0 -137 73 -201.5t195 -64.5q112 0 175 57t63 170v652h172v-623q0 -213 -148 -320q-85 -62 -137.5 -131.5t-52.5 -126.5q0 -39 26 -61.5t62 -22.5q35 0 84 27
l28 -84q-80 -43 -151 -43z" />
    <glyph glyph-name="V.sc" horiz-adv-x="1030" 
d="M604 0h-194l-385 1004h194l303 -816l301 816h183z" />
    <glyph glyph-name="W.sc" horiz-adv-x="1552" 
d="M1051 0l-275 774l-264 -774h-199l-264 1004h187l198 -795l262 795h181l276 -795l184 795h166l-254 -1004h-198z" />
    <glyph glyph-name="Wcircumflex.sc" horiz-adv-x="1552" 
d="M975 1108l-178 158l-179 -158h-137l254 297h123l254 -297h-137zM1051 0l-275 774l-264 -774h-199l-264 1004h187l198 -795l262 795h181l276 -795l184 795h166l-254 -1004h-198z" />
    <glyph glyph-name="Wgrave.sc" horiz-adv-x="1552" 
d="M989 1108h-143l-303 262l182 35zM1051 0l-275 774l-264 -774h-199l-264 1004h187l198 -795l262 795h181l276 -795l184 795h166l-254 -1004h-198z" />
    <glyph glyph-name="Wacute.sc" horiz-adv-x="1552" 
d="M686 1108l264 297l183 -35l-304 -262h-143zM1051 0l-275 774l-264 -774h-199l-264 1004h187l198 -795l262 795h181l276 -795l184 795h166l-254 -1004h-198z" />
    <glyph glyph-name="Wdieresis.sc" horiz-adv-x="1552" 
d="M864 1280q0 30 38 70.5t65 40.5q28 0 71 -32t43 -61q0 -30 -38 -70t-64 -40q-28 0 -71.5 32t-43.5 60zM498 1280q0 30 37.5 70.5t64.5 40.5q28 0 71.5 -32t43.5 -61q0 -30 -38.5 -70t-64.5 -40q-28 0 -71 32t-43 60zM1051 0l-275 774l-264 -774h-199l-264 1004h187
l198 -795l262 795h181l276 -795l184 795h166l-254 -1004h-198z" />
    <glyph glyph-name="X.sc" horiz-adv-x="995" 
d="M750 0l-267 389l-250 -389h-196l358 518l-334 486h211l244 -359l227 359h199l-338 -488l354 -516h-208z" />
    <glyph glyph-name="Y.sc" horiz-adv-x="956" 
d="M575 383v-383h-180v383l-370 621h206l273 -465l258 465h170z" />
    <glyph glyph-name="Yacute.sc" horiz-adv-x="956" 
d="M365 1108l264 297l182 -35l-303 -262h-143zM575 383v-383h-180v383l-370 621h206l273 -465l258 465h170z" />
    <glyph glyph-name="Ycircumflex.sc" horiz-adv-x="956" 
d="M690 1108l-178 158l-178 -158h-137l254 297h122l254 -297h-137zM575 383v-383h-180v383l-370 621h206l273 -465l258 465h170z" />
    <glyph glyph-name="Ydieresis.sc" horiz-adv-x="956" 
d="M582 1280q0 30 37.5 70.5t64.5 40.5q28 0 71.5 -32t43.5 -61q0 -30 -38.5 -70t-64.5 -40q-28 0 -71 32t-43 60zM215 1280q0 30 37.5 70.5t64.5 40.5q28 0 71.5 -32t43.5 -61q0 -30 -38 -70t-64 -40q-28 0 -71.5 32t-43.5 60zM575 383v-383h-180v383l-370 621h206
l273 -465l258 465h170z" />
    <glyph glyph-name="Ygrave.sc" horiz-adv-x="956" 
d="M692 1108h-143l-303 262l182 35zM575 383v-383h-180v383l-370 621h206l273 -465l258 465h170z" />
    <glyph glyph-name="Z.sc" horiz-adv-x="935" 
d="M850 0h-776v113l559 753h-545l27 138h733v-115l-559 -754h588z" />
    <glyph glyph-name="Zacute.sc" horiz-adv-x="935" 
d="M334 1108l264 297l182 -35l-303 -262h-143zM850 0h-776v113l559 753h-545l27 138h733v-115l-559 -754h588z" />
    <glyph glyph-name="Zdotaccent.sc" horiz-adv-x="935" 
d="M369 1270q0 33 42 78t72 45q31 0 79 -36t48 -69t-42.5 -77t-71.5 -44q-32 0 -79.5 35.5t-47.5 67.5zM850 0h-776v113l559 753h-545l27 138h733v-115l-559 -754h588z" />
    <glyph glyph-name="Zcaron.sc" horiz-adv-x="935" 
d="M559 1116h-123l-254 297h137l179 -158l178 158h137zM850 0h-776v113l559 753h-545l27 138h733v-115l-559 -754h588z" />
    <glyph glyph-name="AE.sc" horiz-adv-x="1417" 
d="M670 852l-240 -426h248v426h-8zM678 0v295h-324l-166 -295h-180l582 1004h717l-17 -134q-72 1 -216.5 3.5t-215.5 3.5v-299h399l-18 -121l-381 6v-332l477 6l-16 -137h-641z" />
    <glyph glyph-name="AEacute.sc" horiz-adv-x="1417" 
d="M688 1108l264 297l183 -35l-304 -262h-143zM670 852l-240 -426h248v426h-8zM678 0v295h-324l-166 -295h-180l582 1004h717l-17 -134q-72 1 -216.5 3.5t-215.5 3.5v-299h399l-18 -121l-381 6v-332l477 6l-16 -137h-641z" />
    <glyph glyph-name="Eth.sc" horiz-adv-x="1107" 
d="M436 -6q-74 0 -266 16v455h-104v113h104v426h348q234 0 371 -124.5t137 -347.5q0 -124 -45 -226t-124 -170t-187 -105t-234 -37zM502 127q70 0 129 20.5t107.5 63.5t76 119t27.5 178q0 97 -29.5 170t-83 116.5t-120.5 65t-148 21.5h-111v-303h285l-17 -113h-268v-330
q90 -8 152 -8z" />
    <glyph glyph-name="Oslash.sc" horiz-adv-x="1165" 
d="M268 528q0 -216 99 -323l323 663q-67 23 -137 23q-127 0 -206 -90t-79 -273zM610 111q129 0 208 89.5t79 274.5q0 229 -111 334l-327 -670q63 -28 151 -28zM541 -20q-83 0 -150 20l-65 -135h-125l88 180q-99 61 -153 172.5t-54 263.5q0 252 150.5 397.5t392.5 145.5
q66 0 135 -16l61 127h125l-84 -170q105 -60 163 -174t58 -271q0 -251 -150 -395.5t-392 -144.5z" />
    <glyph glyph-name="Oslashacute.sc" horiz-adv-x="1165" 
d="M416 1108l264 297l182 -35l-303 -262h-143zM268 528q0 -216 99 -323l323 663q-67 23 -137 23q-127 0 -206 -90t-79 -273zM610 111q129 0 208 89.5t79 274.5q0 229 -111 334l-327 -670q63 -28 151 -28zM541 -20q-83 0 -150 20l-65 -135h-125l88 180q-99 61 -153 172.5
t-54 263.5q0 252 150.5 397.5t392.5 145.5q66 0 135 -16l61 127h125l-84 -170q105 -60 163 -174t58 -271q0 -251 -150 -395.5t-392 -144.5z" />
    <glyph glyph-name="Thorn.sc" horiz-adv-x="929" 
d="M459 328q115 0 171 44t56 140q0 95 -64 146t-192 51h-86v-377q74 -4 115 -4zM420 205q-51 0 -76 2v-207h-180v1004h180v-181h141q187 0 287 -70t100 -210q0 -107 -65.5 -185.5t-166 -115.5t-220.5 -37z" />
    <glyph glyph-name="Dcroat.sc" horiz-adv-x="1107" 
d="M436 -6q-74 0 -266 16v455h-104v113h104v426h348q234 0 371 -124.5t137 -347.5q0 -124 -45 -226t-124 -170t-187 -105t-234 -37zM502 127q70 0 129 20.5t107.5 63.5t76 119t27.5 178q0 97 -29.5 170t-83 116.5t-120.5 65t-148 21.5h-111v-303h285l-17 -113h-268v-330
q90 -8 152 -8z" />
    <glyph glyph-name="Hbar.sc" horiz-adv-x="1163" 
d="M815 586v155h-467v-155h467zM815 0v455h-467v-455h-184v741h-88v29l33 74h55v160h184v-160h467v160h184v-160h88v-29l-32 -74h-56v-741h-184z" />
    <glyph glyph-name="IJ.sc" horiz-adv-x="1148" 
d="M344 1004v-1004h-180v1004h180zM1001 1004v-713q0 -147 -87 -229t-220 -82q-105 0 -166 28l31 137q89 -34 141 -34q56 0 88.5 35.5t32.5 103.5v754h180z" />
    <glyph glyph-name="Ldot.sc" horiz-adv-x="819" 
d="M524 565q0 33 42.5 78t72.5 45q31 0 79 -35.5t48 -68.5t-43 -77t-72 -44q-32 0 -79.5 35t-47.5 67zM164 0v1004h180v-873l438 6l-18 -137h-600z" />
    <glyph glyph-name="Lslash.sc" horiz-adv-x="819" 
d="M164 0v418l-131 -51v125l131 51v461h180v-390l221 88v-124l-221 -89v-358l438 6l-18 -137h-600z" />
    <glyph glyph-name="Eng.sc" horiz-adv-x="1179" 
d="M711 -307q-77 0 -148 22l31 150q91 -35 151 -35q56 0 82.5 31.5t26.5 101.5v31l-526 754v-748h-164v1004h180l510 -740v740h162v-1000q0 -145 -85 -228t-220 -83z" />
    <glyph glyph-name="OE.sc" horiz-adv-x="1499" 
d="M610 111q89 0 150 36v684q-79 60 -207 60t-206.5 -88.5t-78.5 -274.5q0 -417 342 -417zM760 0v18q-100 -38 -219 -38q-210 0 -334.5 132.5t-124.5 368.5q0 125 41 228.5t112 171.5t165 105.5t200 37.5q80 0 160 -25v5h629l-17 -134l-432 7v-299h399l-18 -121l-381 4v-330
l477 6l-18 -137h-639z" />
    <glyph glyph-name="Tbar.sc" horiz-adv-x="909" 
d="M764 508h-215v-508h-180v508h-263v29l33 81h230v256l-344 -4l20 134h840l-19 -134l-317 4v-256h248v-28z" />
    <glyph glyph-name="commaaccent.sc" horiz-adv-x="516" 
d="M162 -172q0 28 29.5 55t60.5 27q32 0 72.5 -44t40.5 -81t-28 -102t-97 -191l-90 35q75 156 75 203q0 9 -31.5 42t-31.5 56z" />
    <glyph glyph-name="acute.sc" horiz-adv-x="704" 
d="M129 1108l264 297l182 -35l-303 -262h-143z" />
    <glyph glyph-name="grave.sc" horiz-adv-x="704" 
d="M575 1108h-143l-303 262l182 35z" />
    <glyph glyph-name="hungarumlaut.sc" horiz-adv-x="905" 
d="M358 1108l265 297l182 -35l-303 -262h-144zM102 1108l265 297l182 -35l-303 -262h-144z" />
    <glyph glyph-name="circumflex.sc" horiz-adv-x="907" 
d="M631 1108l-178 158l-179 -158h-137l254 297h123l254 -297h-137z" />
    <glyph glyph-name="caron.sc" horiz-adv-x="907" 
d="M514 1116h-123l-254 297h137l179 -158l178 158h137z" />
    <glyph glyph-name="breve.sc" horiz-adv-x="890" 
d="M444 1243q80 0 127.5 50t63.5 132h102q0 -129 -90 -223t-213 -94q-132 0 -206 90.5t-74 226.5h102q36 -182 188 -182z" />
    <glyph glyph-name="tilde.sc" horiz-adv-x="929" 
d="M723 1354l68 -72q-106 -141 -205 -141q-40 0 -134 33.5t-118 33.5q-34 0 -74 -26t-59 -45l-62 71q125 138 211 138q46 0 130 -31t110 -31q63 0 133 70z" />
    <glyph glyph-name="macron.sc" horiz-adv-x="866" 
d="M702 1321v-31l-36 -94h-502v31l37 94h501z" />
    <glyph glyph-name="dieresis.sc" horiz-adv-x="870" 
d="M510 1280q0 30 37.5 70.5t64.5 40.5q28 0 71.5 -32t43.5 -61q0 -30 -38 -70t-64 -40q-28 0 -71.5 32t-43.5 60zM143 1280q0 30 38 70.5t65 40.5q28 0 71 -32t43 -61q0 -30 -38 -70t-64 -40q-28 0 -71.5 32t-43.5 60z" />
    <glyph glyph-name="dotaccent.sc" horiz-adv-x="440" 
d="M100 1270q0 33 42.5 78t72.5 45q31 0 79 -36t48 -69t-43 -77t-72 -44q-32 0 -79.5 35.5t-47.5 67.5z" />
    <glyph glyph-name="ring.sc" horiz-adv-x="694" 
d="M539 1276q0 -74 -58.5 -128t-134.5 -54q-79 0 -134.5 49t-55.5 133q0 75 58 129.5t134 54.5q80 0 135.5 -48.5t55.5 -135.5zM254 1276q0 -40 27 -66t65 -26t66 26t28 66q0 43 -28 69.5t-66 26.5t-65 -26.5t-27 -69.5z" />
    <glyph glyph-name="cedilla.sc" horiz-adv-x="602" 
d="M176 -186l88 186h96l-51 -111q30 -14 39.5 -18t32.5 -16t31 -18.5t22.5 -18.5t20 -23t10 -25.5t4.5 -31.5q0 -74 -78.5 -134.5t-234.5 -74.5l-23 88q103 12 154 31.5t51 60.5q0 28 -37 50t-119 44z" />
    <glyph glyph-name="ogonek.sc" horiz-adv-x="655" 
d="M166 -276q0 77 59 150.5t137 125.5h117q-85 -62 -137.5 -131.5t-52.5 -126.5q0 -39 26 -61.5t62 -22.5q35 0 84 27l28 -84q-80 -43 -151 -43q-82 0 -127 45t-45 121z" />
    <glyph glyph-name="Dotlessi.sc" horiz-adv-x="507" 
d="M344 1004v-1004h-180v1004h180z" />
    <glyph glyph-name="Tcedilla.sc" horiz-adv-x="909" 
d="M412 0h-43v874l-344 -4l20 134h840l-19 -134l-317 4v-874h-41l-51 -111q33 -15 45.5 -21t36.5 -19t33.5 -22t22 -23.5t17 -30t4.5 -35.5q0 -74 -78.5 -134.5t-234.5 -74.5l-22 88q103 12 153.5 31.5t50.5 60.5q0 29 -36.5 50.5t-118.5 43.5l-6 11z" />
    <glyph glyph-name="f_f.sc" horiz-adv-x="1634" 
d="M723 438l-379 4v-442h-180v1004h629l-17 -134l-432 7v-316h397zM1528 438l-379 4v-442h-180v1004h628l-16 -134l-432 7v-316h397z" />
    <glyph glyph-name="f_f_i.sc" horiz-adv-x="2127" 
d="M1964 1004v-1004h-180v1004h180zM723 438l-379 4v-442h-180v1004h629l-17 -134l-432 7v-316h397zM1530 438l-379 4v-442h-180v1004h628l-16 -134l-432 7v-316h397z" />
    <glyph glyph-name="f_f_l.sc" horiz-adv-x="2457" 
d="M723 438l-379 4v-442h-180v1004h629l-17 -134l-432 7v-316h397zM1542 438l-379 4v-442h-180v1004h629l-17 -134l-432 7v-316h398zM1802 0v1004h180v-873l439 6l-19 -137h-600z" />
    <glyph glyph-name="fi.sc" horiz-adv-x="1327" 
d="M1163 1004v-1004h-180v1004h180zM723 438l-379 4v-442h-180v1004h629l-17 -134l-432 7v-316h397z" />
    <glyph glyph-name="fl.sc" horiz-adv-x="1634" 
d="M723 438l-379 4v-442h-180v1004h629l-17 -134l-432 7v-316h397zM979 0v1004h180v-873l438 6l-18 -137h-600z" />
    </font>
</defs>
</svg>
