<?xml version="1.0" standalone="no"?>
<!DOCTYPE svg PUBLIC "-//W3C//DTD SVG 1.1//EN" "http://www.w3.org/Graphics/SVG/1.1/DTD/svg11.dtd" >
<svg xmlns="http://www.w3.org/2000/svg" xmlns:xlink="http://www.w3.org/1999/xlink" version="1.1">
<metadata>
Created by FontForge 20170731 at Sat Feb 27 18:00:26 2021
 By Aleksey,,,
Universidad Nacional de Colombia, Unidad de Medios de Comunicacio'n (Unimedios), 2012-2015.
</metadata>
<defs>
<font id="AncizarSans-Bold" horiz-adv-x="1103" >
  <font-face 
    font-family="Ancizar Sans"
    font-weight="700"
    font-stretch="normal"
    units-per-em="2048"
    panose-1="2 11 8 2 4 3 0 0 0 3"
    ascent="1536"
    descent="-512"
    x-height="922"
    cap-height="1253"
    bbox="-123 -528 2691 1772"
    underline-thickness="0"
    underline-position="0"
    unicode-range="U+0020-FB04"
  />
<missing-glyph horiz-adv-x="1228" 
d="M102 0v1440h1024v-1440h-1024zM614 813l349 524h-697zM205 1245v-1050l348 524zM676 719l348 -524v1050zM266 102h697l-349 525z" />
    <glyph glyph-name="f_f" unicode="ff" horiz-adv-x="1210" 
d="M412 1028v-106h313v84q0 107 31 186q-100 27 -176 27q-74 0 -121 -46.5t-47 -144.5zM725 0v745h-313v-745h-258v745h-125v156l104 21h21v10q0 108 31 194.5t80 140t113.5 89t127 49.5t125.5 14q135 0 266 -43q110 74 268 74q78 0 140 -16l-45 -195q-63 14 -130 14
t-107 -46t-40 -140v-145h227l-18 -177h-209v-745h-258z" />
    <glyph glyph-name="fi" unicode="fi" 
d="M725 0v745h-313v-745h-258v745h-125v156l125 21v41q0 109 31 195.5t80.5 140t116 89t132 49.5t133.5 13q92 1 183.5 -16t158.5 -43l-65 -224q-64 27 -161 48.5t-165 21.5q-81 0 -133.5 -43.5t-52.5 -140.5v-131h342l229 32v-954h-258z" />
    <glyph glyph-name="fl" unicode="fl" horiz-adv-x="1167" 
d="M952 -31q-105 0 -166 55.5t-61 170.5v1028q-60 14 -127 14q-81 0 -133.5 -43.5t-52.5 -140.5v-131h202l-18 -177h-184v-745h-258v745h-125v156l125 21v41q0 109 31 195.5t80.5 140t116 89t132 49.5t133.5 13q141 3 275 -39l61 8v-1169q0 -70 72 -70q34 0 73 13l21 -189
q-35 -13 -93.5 -24t-103.5 -11z" />
    <glyph glyph-name="f_f_i" unicode="ffi" horiz-adv-x="1675" 
d="M412 1028v-106h313v41q0 130 43 227q-114 29 -188 29t-121 -46.5t-47 -144.5zM725 0v745h-313v-745h-258v745h-125v156l104 21h21v10q0 108 31 194.5t80 140t113.5 89t127 49.5t125.5 14q152 0 289 -51q128 82 299 82q92 1 183.5 -16t158.5 -43l-66 -224
q-64 27 -161 48.5t-165 21.5q-81 0 -133.5 -43.5t-52.5 -140.5v-131h342l229 32v-954h-258v745h-313v-745h-258z" />
    <glyph glyph-name="f_f_l" unicode="ffl" horiz-adv-x="1738" 
d="M412 1028v-106h313v41q0 130 43 227q-114 29 -188 29t-121 -46.5t-47 -144.5zM1524 -31q-105 0 -166.5 55.5t-61.5 170.5v1028q-60 14 -127 14q-81 0 -133.5 -43.5t-52.5 -140.5v-131h203l-19 -177h-184v-745h-258v745h-313v-745h-258v745h-125v156l104 21h21v10
q0 108 31 194.5t80 140t113.5 89t127 49.5t125.5 14q152 0 289 -51q128 82 299 82q140 3 274 -39l61 8v-1169q0 -70 72 -70q35 0 74 13l20 -189q-35 -13 -93 -24t-103 -11z" />
    <glyph glyph-name=".notdef" horiz-adv-x="1228" 
d="M102 0v1440h1024v-1440h-1024zM614 813l349 524h-697zM205 1245v-1050l348 524zM676 719l348 -524v1050zM266 102h697l-349 525z" />
    <glyph glyph-name=".null" horiz-adv-x="0" 
 />
    <glyph glyph-name="nonmarkingreturn" horiz-adv-x="682" 
 />
    <glyph glyph-name="space" unicode=" " horiz-adv-x="444" 
 />
    <glyph glyph-name="exclam" unicode="!" horiz-adv-x="645" 
d="M418 365l-197 -39q0 607 -43 925l268 64q-28 -634 -28 -950zM164 90q0 41 61.5 98.5t98.5 57.5q35 0 96 -53.5t61 -92.5q0 -37 -59.5 -90t-93.5 -53q-37 0 -100.5 50t-63.5 83z" />
    <glyph glyph-name="quotedbl" unicode="&#x22;" horiz-adv-x="722" 
d="M432 936l-31 483h236l-37 -483h-168zM123 936l-37 483h236l-31 -483h-168z" />
    <glyph glyph-name="numbersign" unicode="#" horiz-adv-x="1183" 
d="M676 498l55 223h-231l-56 -223h232zM555 0l88 365h-231l-88 -365h-154l88 365h-223v30l53 103h203l55 223h-250v31l54 102h229l96 399h154l-97 -399h232l96 399h154l-96 -399h229v-31l-53 -102h-209l-56 -223h256v-31l-53 -102h-235l-88 -365h-154z" />
    <glyph glyph-name="dollar" unicode="$" 
d="M645 -297h-203l23 266q-93 1 -189 18t-155 42l45 241q212 -90 366 -90q78 0 125.5 39t47.5 105q0 67 -43.5 109.5t-172.5 90.5q-188 70 -268 159.5t-80 221.5q0 140 87.5 238.5t244.5 128.5l-22 264h202l-22 -252q184 -3 315 -53l-57 -227q-183 73 -342 73
q-71 0 -110.5 -35.5t-39.5 -95.5q0 -64 44 -105t173 -89q197 -72 277 -154.5t80 -214.5q0 -157 -93.5 -261.5t-256.5 -137.5z" />
    <glyph glyph-name="percent" unicode="%" horiz-adv-x="1343" 
d="M657 991q0 -140 -89.5 -232.5t-225.5 -92.5q-129 0 -205 79.5t-76 217.5t89.5 230.5t226.5 92.5q127 0 203.5 -79t76.5 -216zM82 0l993 1253h185l-994 -1253h-184zM489 975q0 188 -145 188q-63 0 -90 -45t-27 -139q0 -188 146 -188q61 0 88.5 45t27.5 139zM1282 295
q0 -140 -89.5 -233t-225.5 -93q-129 0 -205 79.5t-76 217.5t89 231t226 93q127 0 204 -79t77 -216zM1114 279q0 188 -145 188q-63 0 -90 -45t-27 -139q0 -189 145 -189q61 0 89 45.5t28 139.5z" />
    <glyph glyph-name="ampersand" unicode="&#x26;" horiz-adv-x="1306" 
d="M1325 10l-252 -61q-99 74 -182 151q-197 -131 -420 -131q-194 0 -308 92.5t-114 247.5q0 109 64.5 192t193.5 163q-76 72 -114.5 138.5t-38.5 149.5q0 143 115.5 237t305.5 93q85 0 173 -16.5t147 -42.5l-76 -201q-147 66 -284 63q-136 -3 -136 -114q0 -30 11.5 -57.5
t55.5 -74t73 -74t119 -107.5q8 -7 12 -11q85 -72 252 -239q45 82 45 184q0 125 -70 217l231 80q30 -41 53 -112t23 -159q0 -189 -135 -356q190 -182 256 -215v-37zM545 164q101 0 211 69q-235 240 -254 259q-12 12 -37.5 33.5t-38.5 33.5q-119 -81 -119 -192
q0 -88 65.5 -145.5t172.5 -57.5z" />
    <glyph glyph-name="quotesingle" unicode="'" horiz-adv-x="407" 
d="M121 936l-35 483h236l-35 -483h-166z" />
    <glyph glyph-name="parenleft" unicode="(" horiz-adv-x="675" 
d="M666 -190l-105 -103q-208 137 -317 373.5t-109 513.5q0 273 108.5 502.5t317.5 384.5l105 -103q-173 -141 -267 -348t-94 -436q0 -240 92 -442t269 -342z" />
    <glyph glyph-name="parenright" unicode=")" horiz-adv-x="675" 
d="M10 1378l105 103q208 -137 317 -373.5t109 -513.5q0 -273 -108.5 -502.5t-317.5 -384.5l-105 103q173 141 267 348t94 436q0 240 -92 442t-269 342z" />
    <glyph glyph-name="asterisk" unicode="*" horiz-adv-x="827" 
d="M432 1403q29 -60 29 -156q0 -75 -21 -143l-55 -8q-17 147 -94 262zM735 1202q-97 -120 -254 -153l-35 41q100 72 181 210zM109 1237q158 -18 262 -141l-19 -52q-110 48 -270 48zM713 842q-160 24 -260 145l16 47q125 -50 276 -47zM92 881q52 62 111 97t139 56l35 -45
q-99 -73 -174 -207zM389 682q-27 59 -27 154q0 70 21 141l53 10q20 -146 96 -262z" />
    <glyph glyph-name="plus" unicode="+" 
d="M963 463h-324v-330h-176v330h-324v164h324v319h176v-319h324v-164z" />
    <glyph glyph-name="comma" unicode="," horiz-adv-x="491" 
d="M102 131q0 46 45 86.5t89 40.5q49 0 106 -55.5t57 -124.5q0 -109 -168 -393l-139 51q79 167 93 215q10 34 10 57q0 10 -14.5 25t-32 28.5t-32 32.5t-14.5 37z" />
    <glyph glyph-name="hyphen" unicode="-" horiz-adv-x="690" 
d="M608 584v-43l-47 -125h-479v43l57 125h469z" />
    <glyph glyph-name="period" unicode="." horiz-adv-x="491" 
d="M80 100q0 42 58 99t100 57t108 -46t66 -87q0 -42 -59.5 -98t-98.5 -56q-43 0 -108.5 45.5t-65.5 85.5z" />
    <glyph glyph-name="slash" unicode="/" horiz-adv-x="724" 
d="M82 -225l397 1644h164l-397 -1644h-164z" />
    <glyph glyph-name="zero" unicode="0" 
d="M1057 651q0 -325 -144 -503.5t-399 -178.5q-467 0 -467 633q0 325 144 503.5t399 178.5q467 0 467 -633zM780 627q0 137 -16.5 230.5t-50.5 146t-78.5 74.5t-106.5 22q-69 0 -112 -39.5t-67.5 -145.5t-24.5 -288t30 -288t82 -145.5t135 -39.5q69 0 113 39t70 146t26 288z
" />
    <glyph glyph-name="one" unicode="1" 
d="M770 0h-258v1034l-266 -114l-60 192q134 41 422 141h162v-1253z" />
    <glyph glyph-name="two" unicode="2" 
d="M948 0h-831v178q102 93 176 165t147.5 151.5t119 143.5t74 127t28.5 114q0 94 -58.5 147t-148.5 53q-129 0 -285 -69l-61 184q227 90 417 90q191 0 306.5 -95t115.5 -255q0 -88 -37 -177t-112 -182.5t-165.5 -181t-221.5 -198.5l575 22z" />
    <glyph glyph-name="three" unicode="3" 
d="M444 -31q-168 0 -325 45l51 203q168 -51 297 -51q117 0 175 43t58 135q0 88 -66.5 144.5t-180.5 56.5q-30 0 -129 -6l-29 176q177 0 273 54t96 146q0 75 -52.5 122.5t-136.5 47.5q-139 0 -272 -65l-58 178q76 34 191 60t213 26q100 0 184.5 -30.5t140.5 -99t56 -163.5
q0 -105 -68 -188t-174 -129q135 -26 207 -102.5t72 -194.5t-71.5 -212t-190.5 -145t-261 -51z" />
    <glyph glyph-name="four" unicode="4" 
d="M645 418v520l-381 -520h381zM1030 225h-141v-225h-244v225h-620v181l657 872h207v-860h207z" />
    <glyph glyph-name="five" unicode="5" 
d="M389 -31q-129 0 -289 41l54 203q69 -24 161.5 -40.5t155.5 -16.5q117 0 180.5 51t63.5 139q0 108 -86 168.5t-238 60.5q-86 0 -211 -16l41 694h731l-34 -209h-494l-18 -274q50 6 110 6q130 0 235 -44t166.5 -128.5t61.5 -195.5q0 -192 -158 -315.5t-432 -123.5z" />
    <glyph glyph-name="six" unicode="6" 
d="M1024 422q0 -192 -136.5 -322.5t-350.5 -130.5t-336.5 151t-122.5 421q0 184 45 327t127.5 233.5t194.5 136.5t249 46q64 0 146.5 -12t130.5 -25l-47 -219q-49 20 -130.5 36.5t-148.5 16.5q-64 0 -109.5 -15t-83.5 -53.5t-61.5 -108t-34.5 -173.5q132 64 267 64
q192 0 296.5 -100t104.5 -273zM586 150q85 0 128.5 54.5t43.5 160.5q0 105 -51.5 175t-161.5 70q-91 0 -199 -45v-45q0 -184 62.5 -277t177.5 -93z" />
    <glyph glyph-name="seven" unicode="7" 
d="M522 -27l-266 78q73 174 216.5 471t260.5 518l-637 -8l41 221h867v-176q-84 -163 -249.5 -542.5t-232.5 -561.5z" />
    <glyph glyph-name="eight" unicode="8" 
d="M514 -31q-195 0 -312.5 85.5t-117.5 226.5q0 109 66 187.5t194 154.5q-103 63 -156 138.5t-53 174.5q0 152 126.5 250t336.5 98q155 0 263 -75.5t108 -200.5q0 -93 -57.5 -167t-172.5 -145q162 -84 220.5 -160t58.5 -184q0 -71 -36 -140t-100 -123t-160.5 -87t-207.5 -33
zM371 975q0 -58 48.5 -104.5t176.5 -106.5q147 104 147 207q0 58 -58.5 100.5t-145.5 42.5q-168 0 -168 -139zM571 145q97 0 152 43t55 119q0 62 -55.5 110.5t-218.5 121.5q-2 1 -7.5 3t-7.5 3q-59 -39 -89.5 -65.5t-52 -66t-21.5 -89.5q0 -76 69.5 -127.5t175.5 -51.5z" />
    <glyph glyph-name="nine" unicode="9" 
d="M563 645q100 0 191 41v57q0 168 -65.5 265.5t-174.5 97.5q-84 0 -124 -53t-40 -162q0 -105 51.5 -175.5t161.5 -70.5zM369 -31q-129 0 -265 39l35 201q128 -47 281 -47q119 0 202 86t115 270q-116 -57 -243 -57q-201 0 -305.5 107.5t-104.5 277.5q0 191 127 315.5
t344 124.5q231 0 348 -149t117 -422q0 -176 -52.5 -319.5t-142.5 -235.5t-207 -141.5t-249 -49.5z" />
    <glyph glyph-name="colon" unicode=":" horiz-adv-x="491" 
d="M80 674q0 42 58 98.5t100 56.5t108 -46t66 -87q0 -42 -59.5 -97.5t-98.5 -55.5q-43 0 -108.5 45.5t-65.5 85.5zM80 100q0 42 58 99t100 57t108 -46t66 -87q0 -42 -59.5 -98t-98.5 -56q-43 0 -108.5 45.5t-65.5 85.5z" />
    <glyph glyph-name="semicolon" unicode=";" horiz-adv-x="491" 
d="M80 674q0 42 58 98.5t100 56.5t108 -46t66 -87q0 -42 -59.5 -97.5t-98.5 -55.5q-43 0 -108.5 45.5t-65.5 85.5zM98 131q0 46 44.5 86.5t88.5 40.5q49 0 106.5 -55.5t57.5 -124.5q0 -109 -168 -393l-139 51q40 85 54.5 116.5t31 79.5t16.5 76q0 12 -23 32t-46 44t-23 47z
" />
    <glyph glyph-name="equal" unicode="=" 
d="M918 764v-31l-48 -131h-684v31l47 131h685zM918 483v-30l-48 -131h-684v30l47 131h685z" />
    <glyph glyph-name="question" unicode="?" horiz-adv-x="874" 
d="M545 381l-221 -57q-80 96 -80 163q0 60 28.5 100t110.5 109q90 75 124 126t34 126q0 61 -51.5 108.5t-122.5 47.5q-53 0 -98.5 -19t-135.5 -75l-82 180q87 47 188 77.5t189 30.5q166 0 275.5 -90.5t109.5 -234.5q0 -46 -17.5 -89.5t-52 -83.5t-65 -68.5t-76.5 -65.5
q-66 -53 -91.5 -83t-25.5 -61q0 -40 60 -141zM256 84q0 42 58.5 98t97.5 56q34 0 92.5 -52.5t58.5 -93.5q0 -42 -59.5 -96.5t-93.5 -54.5q-40 0 -97 51.5t-57 91.5z" />
    <glyph glyph-name="at" unicode="@" horiz-adv-x="1779" 
d="M821 -309q-66 0 -133 11t-139.5 37.5t-137.5 66.5t-124 102.5t-102 140t-68 184t-25 230.5q0 171 51 319.5t137.5 254.5t199 182.5t237 113.5t250.5 37q210 0 372 -68t255.5 -202.5t93.5 -317.5q0 -126 -50 -240.5t-135.5 -200t-198.5 -145.5t-239 -85l-37 229
q-127 -215 -254 -215q-99 0 -162 89.5t-63 270.5q0 70 15.5 137t50 131t84.5 112t125.5 77t166.5 29q98 0 234 -51v-623q248 151 248 455q0 205 -144 317.5t-385 112.5q-294 0 -459.5 -185t-165.5 -505q0 -128 33 -232t88 -172.5t129.5 -114.5t153.5 -66t164 -20
q31 0 60 1.5t57 6t49.5 7.5t48 10.5t40 11t38.5 13t32 12t31 12.5t25 10l57 -170q-256 -110 -504 -110zM852 291q21 0 45 15t51 49.5t47.5 106.5t26.5 171v184q-42 10 -92 10q-51 0 -85.5 -23.5t-52 -69t-24 -98t-6.5 -124.5q0 -117 25 -169t65 -52z" />
    <glyph glyph-name="A" unicode="A" horiz-adv-x="1189" 
d="M745 514l-161 504l-162 -504h323zM909 0l-104 326h-443l-104 -326h-256l432 1253h338l416 -1253h-279z" />
    <glyph glyph-name="B" unicode="B" horiz-adv-x="1124" 
d="M485 719q248 0 248 166q0 94 -69.5 144t-204.5 50q-25 0 -41 -2v-356q23 -2 67 -2zM578 180q103 0 165 41t62 131q0 98 -74.5 152.5t-214.5 54.5q-65 0 -98 -2v-373q102 -4 160 -4zM147 0v1253h412q207 0 320.5 -77.5t113.5 -219.5q0 -181 -188 -286q115 -26 192.5 -101
t77.5 -198q0 -170 -147.5 -270.5t-405.5 -100.5h-375z" />
    <glyph glyph-name="C" unicode="C" horiz-adv-x="1130" 
d="M1042 250l31 -197q-59 -35 -167.5 -59.5t-223.5 -24.5q-130 0 -240 41t-192.5 118.5t-129 199.5t-46.5 276q0 146 45 271t128 215.5t207 142t275 51.5q195 0 338 -53l-53 -219q-148 59 -326 59q-55 0 -102.5 -12.5t-91.5 -43t-75.5 -77.5t-50 -121.5t-18.5 -169.5
q0 -100 24.5 -180.5t64 -131t92.5 -84.5t107 -47.5t112 -13.5q79 0 160.5 18t131.5 42z" />
    <glyph glyph-name="D" unicode="D" horiz-adv-x="1318" 
d="M147 1253h484q137 0 249 -38t193.5 -110.5t126.5 -185.5t45 -257q0 -212 -94.5 -366.5t-256.5 -232t-372 -77.5q-175 0 -375 28v1239zM418 1061v-860q80 -13 164 -13t152.5 24t122 74t83 135t29.5 200q0 91 -22.5 165.5t-61 125t-91.5 84.5t-113.5 49.5t-127.5 15.5h-135
z" />
    <glyph glyph-name="E" unicode="E" horiz-adv-x="1013" 
d="M147 0v1253h768l-24 -204l-473 6v-318h440l-20 -192l-420 6v-346l530 6l-24 -211h-777z" />
    <glyph glyph-name="F" unicode="F" horiz-adv-x="987" 
d="M834 522l-416 6v-528h-271v1253h768l-24 -204l-473 6v-338h438z" />
    <glyph glyph-name="G" unicode="G" horiz-adv-x="1222" 
d="M1110 55q-220 -86 -408 -86q-136 0 -248.5 38t-198.5 113t-133.5 197t-47.5 281t52 289t143 216.5t215 133.5t268 47q101 0 206.5 -20.5t159.5 -46.5l-61 -216q-69 31 -161.5 52.5t-176.5 21.5q-169 0 -269 -103t-100 -325q0 -109 24.5 -193t63 -134t91.5 -82.5t105 -44
t109 -11.5q60 0 131 11l-2 430h238v-568z" />
    <glyph glyph-name="H" unicode="H" horiz-adv-x="1335" 
d="M918 0v537h-500v-537h-271v1253h271v-501h500v501h270v-1253h-270z" />
    <glyph glyph-name="I" unicode="I" horiz-adv-x="565" 
d="M418 1253v-1253h-271v1253h271z" />
    <glyph glyph-name="J" unicode="J" horiz-adv-x="761" 
d="M614 1253v-882q0 -197 -112 -299.5t-293 -102.5q-116 0 -197 33l39 209q93 -33 158 -33q62 0 98.5 39t36.5 121v915h270z" />
    <glyph glyph-name="K" unicode="K" horiz-adv-x="1222" 
d="M1223 0h-334l-471 649l463 604h305l-490 -579zM418 1253v-1253h-271v1253h271z" />
    <glyph glyph-name="L" unicode="L" horiz-adv-x="948" 
d="M147 0v1253h271v-1048l506 6l-27 -211h-750z" />
    <glyph glyph-name="M" unicode="M" horiz-adv-x="1724" 
d="M735 0l-311 905l-80 -905h-252l146 1253h311l319 -897l322 897h303l139 -1253h-266l-78 907l-321 -907h-232z" />
    <glyph glyph-name="N" unicode="N" horiz-adv-x="1343" 
d="M950 0l-563 840v-840h-240v1253h269l540 -823v823h240v-1253h-246z" />
    <glyph glyph-name="O" unicode="O" horiz-adv-x="1382" 
d="M1309 651q0 -209 -85 -364.5t-235 -236.5t-346 -81q-257 0 -413 169t-156 464q0 209 85 364.5t235 236.5t345 81q257 0 413.5 -169.5t156.5 -463.5zM1032 594q0 255 -100 373t-275 118q-138 0 -222.5 -104t-84.5 -322q0 -256 99.5 -373.5t275.5 -117.5q138 0 222.5 103
t84.5 323z" />
    <glyph glyph-name="P" unicode="P" horiz-adv-x="1071" 
d="M518 637q246 0 246 213q0 108 -70.5 165.5t-210.5 57.5h-65v-432q66 -4 100 -4zM494 451q-51 0 -76 2v-453h-271v1253h435q217 0 337.5 -96.5t120.5 -269.5q0 -138 -75.5 -238.5t-197.5 -149t-273 -48.5z" />
    <glyph glyph-name="Q" unicode="Q" horiz-adv-x="1382" 
d="M1309 651q0 -209 -85 -364.5t-235 -236.5t-346 -81q-257 0 -413 169t-156 464q0 209 85 364.5t235 236.5t345 81q257 0 413.5 -169.5t156.5 -463.5zM1032 594q0 255 -100 373t-275 118q-138 0 -222.5 -104t-84.5 -322q0 -256 99.5 -373.5t275.5 -117.5q138 0 222.5 103
t84.5 323zM256 -156q135 78 248 78q99 0 294 -48t304 -48q53 0 106.5 18t89.5 50v-218q-38 -32 -102 -52.5t-123 -20.5q-79 0 -193.5 35.5t-218 70.5t-155.5 35q-92 0 -191 -80z" />
    <glyph glyph-name="R" unicode="R" horiz-adv-x="1138" 
d="M549 670q85 0 143 46t58 134q0 103 -65 163t-196 60q-48 0 -71 -2v-395q59 -6 131 -6zM498 494q-49 0 -80 2v-496h-271v1253h437q207 0 323.5 -90.5t116.5 -253.5q0 -111 -58 -197t-157 -141l311 -571h-297l-245 498q-54 -4 -80 -4z" />
    <glyph glyph-name="S" unicode="S" horiz-adv-x="999" 
d="M444 524q-188 70 -268 159.5t-80 221.5q0 169 124.5 274t340.5 105q203 0 340 -53l-57 -227q-183 73 -342 73q-71 0 -110.5 -35.5t-39.5 -95.5q0 -64 44 -105t173 -89q197 -72 277 -154.5t80 -214.5q0 -190 -135.5 -302t-360.5 -112q-93 0 -192.5 17.5t-161.5 42.5
l45 241q212 -90 366 -90q78 0 125 39t47 105q0 67 -43 109.5t-172 90.5z" />
    <glyph glyph-name="T" unicode="T" horiz-adv-x="1044" 
d="M1016 1044l-354 7v-1051h-271v1051l-391 -7l31 209h1013z" />
    <glyph glyph-name="U" unicode="U" horiz-adv-x="1302" 
d="M135 420v833h271v-768q0 -286 274 -286q102 0 164.5 57t62.5 166v831h260v-790q0 -234 -142.5 -365t-393.5 -129q-242 2 -369 117.5t-127 333.5z" />
    <glyph glyph-name="V" unicode="V" horiz-adv-x="1183" 
d="M748 0h-332l-430 1253h288l328 -981l318 981h274z" />
    <glyph glyph-name="W" unicode="W" horiz-adv-x="1816" 
d="M1178 0l-273 846l-278 -846h-305l-281 1253h272l199 -921l289 921h246l290 -919l187 919h250l-287 -1253h-309z" />
    <glyph glyph-name="X" unicode="X" horiz-adv-x="1179" 
d="M862 0l-297 449l-260 -449h-299l420 659l-393 594h311l266 -401l240 401h301l-401 -612l424 -641h-312z" />
    <glyph glyph-name="Y" unicode="Y" horiz-adv-x="1118" 
d="M696 465v-465h-270v465l-442 788h299l295 -532l286 532h264z" />
    <glyph glyph-name="Z" unicode="Z" horiz-adv-x="1073" 
d="M991 0h-925v176l616 873l-610 -13l39 217h880v-186l-610 -866l649 12z" />
    <glyph glyph-name="bracketleft" unicode="[" horiz-adv-x="675" 
d="M625 -127v-133h-418v1708h418v-133h-252v-1442h252z" />
    <glyph glyph-name="backslash" unicode="\" horiz-adv-x="724" 
d="M246 1419l397 -1644h-164l-397 1644h164z" />
    <glyph glyph-name="bracketright" unicode="]" horiz-adv-x="675" 
d="M469 -260h-418v133h252v1442h-252v133h418v-1708z" />
    <glyph glyph-name="underscore" unicode="_" horiz-adv-x="901" 
d="M901 -207v-153h-901v153h901z" />
    <glyph glyph-name="grave" unicode="`" horiz-adv-x="720" 
d="M623 1036h-211l-314 275l260 47z" />
    <glyph glyph-name="a" unicode="a" horiz-adv-x="933" 
d="M649 -31l-51 99q-154 -99 -260 -99q-122 0 -201.5 72.5t-79.5 191.5q0 299 516 318v39q0 84 -38 122t-115 38q-111 0 -283 -62l-49 178q237 86 410 86q159 0 243 -77.5t84 -233.5v-635zM420 150q65 0 153 45v188q-47 8 -114 8q-172 0 -172 -119q0 -55 37 -88.5t96 -33.5z
" />
    <glyph glyph-name="b" unicode="b" horiz-adv-x="1073" 
d="M551 160q96 0 150.5 74t54.5 231q0 82 -20.5 142t-55 92t-72 46.5t-78.5 14.5q-78 0 -157 -37v-535q89 -28 178 -28zM561 -31q-128 0 -276 39l-72 -57l-98 24v1407l258 37v-555q159 90 268 88q75 -1 141 -28.5t119.5 -82t85 -147t31.5 -211.5q0 -102 -27.5 -188.5
t-73.5 -145t-106 -100.5t-123 -61t-127 -19z" />
    <glyph glyph-name="c" unicode="c" horiz-adv-x="860" 
d="M788 211l29 -176q-150 -66 -307 -66q-95 0 -176.5 29t-143.5 85t-97.5 145t-35.5 202q0 124 39 224.5t106 164.5t155 98.5t188 34.5q170 0 266 -47l-45 -196q-39 19 -105.5 34t-113.5 15q-228 0 -228 -287q0 -152 75 -226.5t184 -74.5q110 0 210 41z" />
    <glyph glyph-name="d" unicode="d" horiz-adv-x="1075" 
d="M776 -31l-55 99q-170 -101 -287 -99q-75 1 -141 28.5t-119.5 82t-85 147t-31.5 211.5q0 102 27.5 188.5t73.5 145t106 100.5t123 61t127 19q100 0 188 -16v446l259 37v-1413zM545 162q78 0 157 37v534q-92 29 -180 29q-94 0 -148.5 -74t-54.5 -231q0 -82 20.5 -142
t55 -92t72 -46.5t78.5 -14.5z" />
    <glyph glyph-name="e" unicode="e" horiz-adv-x="935" 
d="M471 788q-72 0 -110 -44.5t-48 -155.5h320q0 200 -162 200zM874 51q-171 -82 -372 -82q-92 0 -170.5 26.5t-141 81t-98 146.5t-35.5 213q0 241 123.5 378.5t331.5 137.5q99 0 170.5 -31t111 -86.5t57 -121t17.5 -146.5q0 -73 -8 -131h-553q4 -76 27.5 -130.5t60 -84
t77 -42.5t87.5 -13q142 0 275 53z" />
    <glyph glyph-name="f" unicode="f" horiz-adv-x="638" 
d="M621 745h-209v-745h-258v745h-125v156l125 21v84q0 114 35.5 201t97.5 139t139.5 78t167.5 26q77 0 139 -16l-45 -195q-63 14 -129 14q-67 0 -107 -46t-40 -140v-145h227z" />
    <glyph glyph-name="g" unicode="g" horiz-adv-x="952" 
d="M571 627q0 92 -45 134t-116 42q-63 0 -90 -34.5t-27 -123.5q0 -90 46 -133t116 -43q58 0 87 36.5t29 121.5zM911 -49q0 -107 -69.5 -199.5t-193 -147.5t-271.5 -55q-177 0 -271 65.5t-94 166.5q0 44 23 84.5t47.5 63t60.5 48.5q4 3 33.5 22.5t48.5 31.5q-100 46 -100 141
q0 82 111 174q-89 35 -139 104t-50 166q0 154 111.5 245t306.5 91q128 0 219 -57q250 61 254 57v-207h-39l-100 17q18 -50 18 -109q0 -152 -113.5 -244t-295.5 -92h-27q-29 -29 -29 -61q0 -50 113 -61l201 -19q123 -11 184 -61t61 -164zM449 -268q99 0 163 44.5t64 106.5
q0 76 -137 92l-168 21q-6 -5 -20.5 -15.5t-20.5 -15.5q-80 -67 -80 -123q0 -49 50.5 -79.5t148.5 -30.5z" />
    <glyph glyph-name="h" unicode="h" horiz-adv-x="1058" 
d="M532 758q-75 0 -159 -45v-713h-258v1382l258 37v-545q164 78 278 78q132 0 212.5 -71.5t80.5 -206.5v-674h-258v590q0 91 -43 129.5t-111 38.5z" />
    <glyph glyph-name="i" unicode="i" horiz-adv-x="487" 
d="M86 1223q0 43 55.5 102t96.5 59t104.5 -48.5t63.5 -90.5t-56.5 -101t-95.5 -59q-42 0 -105 48.5t-63 89.5zM115 918l258 36v-954h-258v918z" />
    <glyph glyph-name="j" unicode="j" horiz-adv-x="487" 
d="M90 1223q0 43 55.5 102t96.5 59t104.5 -48.5t63.5 -90.5t-56.5 -101t-95.5 -59q-42 0 -105 48.5t-63 89.5zM115 -41v959l258 34v-962q0 -94 -26 -176t-76 -145.5t-131 -100.5t-183 -37l-43 197q102 13 151.5 64t49.5 167z" />
    <glyph glyph-name="k" unicode="k" horiz-adv-x="995" 
d="M115 0v1389l258 30v-1419h-258zM995 0h-295l-325 500l-2 2l329 420h275l-336 -408z" />
    <glyph glyph-name="l" unicode="l" horiz-adv-x="544" 
d="M506 193l20 -189q-35 -13 -93 -24t-103 -11q-105 0 -166.5 55.5t-61.5 170.5v1189l258 35v-1169q0 -70 72 -70q35 0 74 13z" />
    <glyph glyph-name="m" unicode="m" horiz-adv-x="1597" 
d="M532 758q-75 0 -159 -45v-713h-258v915l184 37l49 -92q172 92 303 92q163 0 234 -102q175 102 321 102q131 0 207 -71t76 -207v-674h-258v590q0 168 -144 168q-75 0 -155 -43q2 -12 2 -41v-674h-258v590q0 168 -144 168z" />
    <glyph glyph-name="n" unicode="n" horiz-adv-x="1052" 
d="M532 758q-75 0 -159 -45v-713h-258v915l184 37l49 -92q172 92 303 92q132 0 212.5 -71.5t80.5 -206.5v-674h-258v590q0 91 -43 129.5t-111 38.5z" />
    <glyph glyph-name="o" unicode="o" horiz-adv-x="1050" 
d="M993 479q0 -236 -136.5 -373t-362.5 -137q-199 0 -318 121t-119 352q0 236 137 373t363 137q206 0 321 -120t115 -353zM731 436q0 96 -17 163t-49 103.5t-71 52t-90 15.5q-91 0 -138 -64.5t-47 -220.5q0 -96 17 -163t49 -103t71.5 -51.5t90.5 -15.5q91 0 137.5 64
t46.5 220z" />
    <glyph glyph-name="p" unicode="p" horiz-adv-x="1075" 
d="M553 160q94 0 148.5 74t54.5 231q0 82 -20.5 142t-55 92t-72 46.5t-78.5 14.5q-78 0 -157 -37v-535q89 -28 180 -28zM373 -432l-258 -37v1384l182 37l51 -102q175 104 293 102q75 -1 141 -28.5t119.5 -82t85 -147t31.5 -211.5q0 -102 -27.5 -188.5t-73.5 -145
t-106 -100.5t-123 -61t-127 -19q-95 0 -188 17v-418z" />
    <glyph glyph-name="q" unicode="q" horiz-adv-x="1073" 
d="M700 -461v520q-152 -91 -266 -88q-75 1 -141 28.5t-119.5 82t-85 147t-31.5 211.5q0 102 27.5 188.5t73.5 145t106 100.5t123 61t127 19q129 0 277 -39l69 56l98 -25v-1370zM545 164q76 0 155 37v534q-92 29 -176 29q-96 0 -150.5 -74t-54.5 -231q0 -82 20.5 -142t55 -92
t72 -46.5t78.5 -14.5z" />
    <glyph glyph-name="r" unicode="r" horiz-adv-x="688" 
d="M563 725q-100 0 -190 -41v-684h-258v915l184 37l59 -110q144 110 260 110q34 0 64 -6l-31 -227q-24 6 -88 6z" />
    <glyph glyph-name="s" unicode="s" horiz-adv-x="833" 
d="M389 -31q-181 0 -336 58l47 198q186 -69 324 -69q54 0 82.5 22.5t28.5 59.5q0 81 -111 120l-143 50q-102 36 -153.5 95t-51.5 156q0 127 109.5 210t260.5 83q183 0 314 -43l-43 -196q-168 59 -287 59q-59 0 -88 -22t-29 -58q0 -37 24.5 -62.5t90.5 -47.5l137 -45
q215 -70 215 -261q0 -77 -37.5 -138t-97 -96.5t-125.5 -54t-131 -18.5z" />
    <glyph glyph-name="t" unicode="t" horiz-adv-x="727" 
d="M696 31q-49 -23 -123.5 -42.5t-146.5 -19.5q-76 0 -138.5 26.5t-104 89t-40.5 153.5l7 507h-138v156l140 21l2 163l258 37l-2 -200h286l-20 -177h-268l-7 -411q-3 -158 129 -158q66 0 148 25z" />
    <glyph glyph-name="u" unicode="u" horiz-adv-x="1052" 
d="M762 -31l-57 90q-176 -90 -304 -90q-132 0 -212 72t-80 207v667l258 37v-620q0 -168 153 -168q76 0 160 45v706l258 37v-946z" />
    <glyph glyph-name="v" unicode="v" horiz-adv-x="958" 
d="M639 0h-334l-299 905l268 37l213 -729l211 709h254z" />
    <glyph glyph-name="w" unicode="w" horiz-adv-x="1474" 
d="M924 0l-189 580l-205 -580h-272l-233 905l260 37l149 -682l193 645l229 37l213 -682l135 662h246l-254 -922h-272z" />
    <glyph glyph-name="x" unicode="x" horiz-adv-x="962" 
d="M657 0l-198 283l-185 -283h-274l334 457l-316 448l275 37l203 -285l180 265h274l-329 -443l342 -479h-306z" />
    <glyph glyph-name="y" unicode="y" horiz-adv-x="958" 
d="M135 -481q-62 0 -108 12l-15 205q150 -18 253 41t163 223h-115l-307 905l268 37l224 -723q94 311 198 703h256q-259 -854 -311 -990q-73 -206 -204.5 -309.5t-301.5 -103.5z" />
    <glyph glyph-name="z" unicode="z" horiz-adv-x="870" 
d="M807 0h-748v170l428 561l-430 -2l19 193h717v-181l-433 -557l465 2z" />
    <glyph glyph-name="braceleft" unicode="{" horiz-adv-x="675" 
d="M125 664q72 3 113 39.5t41 91.5q0 47 -17.5 183t-17.5 236q0 124 97.5 195.5t262.5 71.5v-140q-77 0 -132.5 -35.5t-55.5 -103.5q0 -74 15 -220.5t15 -203.5q0 -69 -42 -119.5t-101 -66.5q59 -16 101 -66.5t42 -119.5q0 -56 -15 -202t-15 -220q0 -68 55.5 -104t132.5 -36
v-139q-165 0 -262.5 71t-97.5 195q0 100 17.5 235.5t17.5 182.5q0 55 -41 91.5t-113 39.5v144z" />
    <glyph glyph-name="bar" unicode="|" horiz-adv-x="638" 
d="M236 -451v1870h167v-1870h-167z" />
    <glyph glyph-name="braceright" unicode="}" horiz-adv-x="675" 
d="M373 596q-59 16 -101.5 66.5t-42.5 119.5q0 56 15.5 202t15.5 220q0 68 -55.5 103.5t-132.5 35.5v140q165 0 262.5 -71t97.5 -195q0 -100 -17.5 -235.5t-17.5 -182.5q0 -55 41 -91.5t113 -39.5v-144q-72 -3 -113 -39.5t-41 -91.5q0 -47 17.5 -183.5t17.5 -236.5
q0 -124 -97.5 -195t-262.5 -71v139q77 0 132.5 36t55.5 104q0 75 -15.5 221.5t-15.5 202.5q0 69 42.5 119.5t101.5 66.5z" />
    <glyph glyph-name="exclamdown" unicode="&#xa1;" horiz-adv-x="645" 
d="M481 831q0 -41 -61 -98t-98 -57q-35 0 -96.5 53t-61.5 92q0 37 59.5 90.5t93.5 53.5q36 0 100 -50.5t64 -83.5zM227 557l197 39q0 -608 43 -926l-268 -63q28 634 28 950z" />
    <glyph glyph-name="cent" unicode="&#xa2;" 
d="M932 199q-115 -51 -234 -62l27 -270h-203l27 270q-168 23 -272.5 140.5t-104.5 316.5q0 210 105 343.5t272 168.5l-27 266h203l-25 -256q145 -6 226 -47l-45 -197q-39 19 -106 34.5t-113 15.5q-228 0 -228 -287q0 -152 74.5 -226.5t183.5 -74.5q111 0 211 41z" />
    <glyph glyph-name="sterling" unicode="&#xa3;" 
d="M1022 215l-37 -215h-848h-2l-53 176q62 13 100.5 27t68 37t42 57.5t12.5 85.5q0 38 -20 152h-193v26l37 109l84 28h37q-19 104 -19 164q0 188 125 305t324 117q178 0 291 -55l-68 -199q-10 3 -38 13t-37 13t-31.5 10t-34.5 9.5t-31 6t-36.5 4.5t-37.5 1q-78 0 -125 -43
t-47 -137q0 -76 19 -209h362l-45 -163h-293q13 -76 13 -127q0 -113 -84 -213z" />
    <glyph glyph-name="section" unicode="&#xa7;" horiz-adv-x="989" 
d="M301 643q0 -54 39.5 -91t132.5 -75q102 12 158.5 51.5t56.5 96.5q0 54 -39.5 91t-132.5 75q-102 -12 -158.5 -51.5t-56.5 -96.5zM430 -193q-178 0 -301 60l66 194q5 -2 48.5 -18t60.5 -21.5t52 -16.5t61.5 -15t49.5 -4q136 0 139 100q0 44 -29.5 77t-97.5 58l-123 45
q-80 30 -132.5 57.5t-93.5 65.5t-60 87t-19 114q0 99 62.5 176.5t173.5 124.5q-154 92 -154 244q0 139 120 232t306 93q180 0 293 -55l-66 -195q-4 2 -47.5 18t-59 21t-49.5 15t-59.5 14t-48.5 4q-136 0 -139 -100q0 -44 29.5 -77t97.5 -58l123 -46q162 -60 233.5 -129
t71.5 -194q0 -99 -62.5 -176.5t-173.5 -124.5q154 -92 154 -244q0 -139 -120 -232.5t-306 -93.5z" />
    <glyph glyph-name="dieresis" unicode="&#xa8;" horiz-adv-x="1001" 
d="M551 1200q0 39 49.5 92.5t85.5 53.5q38 0 95 -44t57 -83q0 -38 -51 -91t-85 -53q-39 0 -95 43.5t-56 81.5zM164 1200q0 39 49.5 92.5t85.5 53.5q38 0 95 -44t57 -83q0 -38 -51 -91t-85 -53q-39 0 -95 43.5t-56 81.5z" />
    <glyph glyph-name="copyright" unicode="&#xa9;" horiz-adv-x="1269" 
d="M86 518q0 125 45 229.5t120.5 173.5t175 107.5t208.5 38.5q167 0 293 -73t191 -197t65 -279q0 -125 -45 -230t-120.5 -174t-174.5 -107t-209 -38q-168 0 -294 73t-190.5 197t-64.5 279zM195 520q0 -209 126 -330.5t318 -121.5q199 0 318.5 129.5t119.5 322.5
q0 207 -123.5 329t-314.5 122q-204 0 -324 -125.5t-120 -325.5zM844 356l22 -104q-100 -53 -241 -53q-136 0 -222 82.5t-86 228.5q0 156 94.5 254t256.5 98q56 0 109.5 -10t74.5 -23l-31 -118q-92 30 -170 30q-79 0 -123 -48.5t-45 -160.5q0 -98 54.5 -152t146.5 -54
q76 0 160 30z" />
    <glyph glyph-name="ordfeminine" unicode="&#xaa;" horiz-adv-x="522" 
d="M375 700l-35 50q-93 -50 -150 -50q-58 0 -105.5 33.5t-47.5 93.5q0 145 285 166v27q0 37 -17 50t-47 13q-36 0 -164 -30l-33 100q125 41 232 41q192 0 192 -160v-319zM242 801q30 0 80 20v80h-46q-94 0 -94 -49q0 -51 60 -51z" />
    <glyph glyph-name="guillemotleft" unicode="&#xab;" horiz-adv-x="1089" 
d="M842 37l-371 438l371 438l145 -82l-233 -356l233 -356zM432 37l-371 438l371 438l146 -82l-234 -356l234 -356z" />
    <glyph glyph-name="registered" unicode="&#xae;" horiz-adv-x="1269" 
d="M86 1063q0 125 45 229.5t120.5 173.5t175 107.5t208.5 38.5q167 0 293 -73t191 -197t65 -279q0 -125 -45 -230t-120.5 -174t-174.5 -107t-209 -38q-168 0 -294 73t-190.5 197t-64.5 279zM195 1065q0 -209 126 -331t318 -122q132 0 233 61.5t153 163.5t52 228
q0 207 -123.5 329t-314.5 122q-204 0 -324 -125.5t-120 -325.5zM629 1102q40 0 67 22t27 64q0 47 -33 76.5t-100 29.5h-29v-190q8 0 30 -1t38 -1zM600 1001h-39v-235h-166v631h248q120 0 185 -47.5t65 -137.5q0 -103 -105 -165l150 -281h-176l-109 240q-40 -5 -53 -5z" />
    <glyph glyph-name="macron" unicode="&#xaf;" horiz-adv-x="901" 
d="M737 1278v-31l-47 -145h-526v31l47 145h526z" />
    <glyph glyph-name="twosuperior" unicode="&#xb2;" horiz-adv-x="575" 
d="M508 799h-461v106q149 101 225 183.5t76 132.5q0 49 -28 72.5t-74 23.5q-88 0 -170 -45l-37 119q117 51 250 51q111 0 171 -51.5t60 -137.5q0 -78 -68.5 -155.5t-215.5 -179.5l299 12z" />
    <glyph glyph-name="threesuperior" unicode="&#xb3;" horiz-adv-x="567" 
d="M225 782q-106 0 -188 21l31 112q96 -22 161 -22q125 0 125 86q0 41 -33 64.5t-90 23.5q-29 0 -69 -4l-19 108q104 0 150.5 20t48.5 62q-3 76 -100 76q-77 0 -152 -33l-35 103q42 17 109 30t123 13q91 0 153 -39t62 -109q0 -57 -42 -99t-108 -62q174 -22 174 -146
q0 -50 -28.5 -90.5t-74 -64.5t-97 -37t-101.5 -13z" />
    <glyph glyph-name="acute" unicode="&#xb4;" horiz-adv-x="720" 
d="M98 1036l264 322l261 -47l-314 -275h-211z" />
    <glyph glyph-name="paragraph" unicode="&#xb6;" horiz-adv-x="1146" 
d="M627 1059v-688h-140q-210 0 -333 113t-123 319t125.5 328t337.5 122h505v-1183q0 -162 -113 -255.5t-282 -93.5q-106 0 -196 31l30 199q90 -29 153.5 -32.5t100 17.5t52.5 58t16 94v971h-133z" />
    <glyph glyph-name="cedilla" unicode="&#xb8;" horiz-adv-x="618" 
d="M166 -195l94 195h113l-47 -106q87 -34 128.5 -67.5t41.5 -88.5q0 -36 -19.5 -71t-59 -66.5t-108 -53.5t-157.5 -28l-29 108q99 10 150 27.5t51 54.5q0 48 -152 86z" />
    <glyph glyph-name="onesuperior" unicode="&#xb9;" horiz-adv-x="460" 
d="M365 799h-166v479l-127 -49l-37 129q196 57 229 67h101v-626z" />
    <glyph glyph-name="ordmasculine" unicode="&#xba;" horiz-adv-x="595" 
d="M559 956q0 -116 -80.5 -186t-202.5 -70q-111 0 -175 59.5t-64 178.5q0 117 80 186.5t202 69.5q240 0 240 -238zM391 936q0 87 -27.5 121.5t-76.5 34.5q-40 0 -61 -29.5t-21 -101.5q0 -89 27.5 -123.5t76.5 -34.5q40 0 61 29.5t21 103.5z" />
    <glyph glyph-name="guillemotright" unicode="&#xbb;" horiz-adv-x="1089" 
d="M657 913l371 -438l-371 -438l-145 80l233 358l-233 354zM248 913l370 -438l-370 -438l-146 80l234 358l-234 354z" />
    <glyph glyph-name="questiondown" unicode="&#xbf;" horiz-adv-x="792" 
d="M557 834q0 -42 -58.5 -98t-97.5 -56q-34 0 -92.5 52t-58.5 93q0 42 59.5 97t93.5 55q40 0 97 -51.5t57 -91.5zM268 537l221 57q80 -96 80 -164q0 -60 -28.5 -100t-110.5 -109q-90 -75 -124 -126t-34 -126q0 -61 51.5 -108t122.5 -47q53 0 98.5 19t135.5 75l82 -180
q-88 -48 -189 -78.5t-188 -30.5q-166 0 -275.5 90.5t-109.5 235.5q0 46 17.5 89.5t52 83.5t65 68.5t76.5 65.5q66 53 91.5 82.5t25.5 60.5q0 41 -60 142z" />
    <glyph glyph-name="Agrave" unicode="&#xc0;" horiz-adv-x="1189" 
d="M801 1343h-211l-314 275l261 47zM745 514l-161 504l-162 -504h323zM909 0l-104 326h-443l-104 -326h-256l432 1253h338l416 -1253h-279z" />
    <glyph glyph-name="Aacute" unicode="&#xc1;" horiz-adv-x="1189" 
d="M422 1343l264 322l260 -47l-313 -275h-211zM745 514l-161 504l-162 -504h323zM909 0l-104 326h-443l-104 -326h-256l432 1253h338l416 -1253h-279z" />
    <glyph glyph-name="Acircumflex" unicode="&#xc2;" horiz-adv-x="1189" 
d="M745 1343l-163 146l-164 -146h-189l244 322h217l246 -322h-191zM745 514l-161 504l-162 -504h323zM909 0l-104 326h-443l-104 -326h-256l432 1253h338l416 -1253h-279z" />
    <glyph glyph-name="Atilde" unicode="&#xc3;" horiz-adv-x="1189" 
d="M866 1634l90 -94q-30 -60 -101.5 -121t-131.5 -61q-40 0 -139 33.5t-123 33.5q-34 0 -75.5 -30t-57.5 -49l-82 104q18 22 48.5 54.5t85 72t93.5 39.5q46 0 136 -33t116 -33q61 0 141 84zM745 514l-161 504l-162 -504h323zM909 0l-104 326h-443l-104 -326h-256l432 1253
h338l416 -1253h-279z" />
    <glyph glyph-name="Adieresis" unicode="&#xc4;" horiz-adv-x="1189" 
d="M641 1507q0 39 49.5 92.5t85.5 53.5q38 0 95 -44t57 -83q0 -38 -50.5 -91t-84.5 -53q-39 0 -95.5 43.5t-56.5 81.5zM254 1507q0 39 49.5 92.5t85.5 53.5q38 0 95 -44t57 -83q0 -38 -50.5 -91t-84.5 -53q-39 0 -95.5 43.5t-56.5 81.5zM745 514l-161 504l-162 -504h323z
M909 0l-104 326h-443l-104 -326h-256l432 1253h338l416 -1253h-279z" />
    <glyph glyph-name="Aring" unicode="&#xc5;" horiz-adv-x="1189" 
d="M809 1532q0 -81 -62.5 -140t-146.5 -59q-88 0 -147.5 54t-59.5 145q0 83 62.5 142t146.5 59q89 0 148 -53t59 -148zM512 1532q0 -38 25.5 -63t62.5 -25t63.5 25t26.5 63q0 40 -26 66t-64 26q-37 0 -62.5 -25.5t-25.5 -66.5zM745 514l-161 504l-162 -504h323zM909 0
l-104 326h-443l-104 -326h-256l432 1253h338l416 -1253h-279z" />
    <glyph glyph-name="AE" unicode="&#xc6;" horiz-adv-x="1630" 
d="M745 1024l-253 -510h276v510h-23zM768 0v326h-369l-161 -326h-269l664 1253h903l-25 -204l-473 6v-318h441l-21 -192l-420 6v-346l531 6l-25 -211h-776z" />
    <glyph glyph-name="Ccedilla" unicode="&#xc7;" horiz-adv-x="1130" 
d="M870 -262q0 -36 -19.5 -71t-59 -66.5t-108 -53.5t-157.5 -28l-28 108q99 10 149.5 27.5t50.5 54.5q0 48 -151 86l-6 10l80 166q-119 9 -218 54t-173 123t-115 194.5t-41 261.5q0 146 45 271t128 215.5t207 142t275 51.5q195 0 338 -53l-53 -219q-148 59 -326 59
q-55 0 -102.5 -12.5t-91.5 -43t-75.5 -77.5t-50 -121.5t-18.5 -169.5q0 -100 24.5 -180.5t64 -131t92.5 -84.5t107 -47.5t112 -13.5q79 0 160.5 18t131.5 42l31 -197q-52 -31 -144.5 -54.5t-193.5 -27.5l-35 -77q87 -34 128.5 -67.5t41.5 -88.5z" />
    <glyph glyph-name="Egrave" unicode="&#xc8;" horiz-adv-x="1013" 
d="M801 1343h-211l-314 275l261 47zM147 0v1253h768l-24 -204l-473 6v-318h440l-20 -192l-420 6v-346l530 6l-24 -211h-777z" />
    <glyph glyph-name="Eacute" unicode="&#xc9;" horiz-adv-x="1013" 
d="M319 1343l265 322l260 -47l-314 -275h-211zM147 0v1253h768l-24 -204l-473 6v-318h440l-20 -192l-420 6v-346l530 6l-24 -211h-777z" />
    <glyph glyph-name="Ecircumflex" unicode="&#xca;" horiz-adv-x="1013" 
d="M711 1343l-164 146l-164 -146h-188l243 322h217l246 -322h-190zM147 0v1253h768l-24 -204l-473 6v-318h440l-20 -192l-420 6v-346l530 6l-24 -211h-777z" />
    <glyph glyph-name="Edieresis" unicode="&#xcb;" horiz-adv-x="1013" 
d="M598 1507q0 39 49.5 92.5t85.5 53.5q38 0 95 -44t57 -83q0 -38 -50.5 -91t-84.5 -53q-39 0 -95.5 43.5t-56.5 81.5zM211 1507q0 39 49.5 92.5t85.5 53.5q38 0 95 -44t57 -83q0 -38 -51 -91t-85 -53q-39 0 -95 43.5t-56 81.5zM147 0v1253h768l-24 -204l-473 6v-318h440
l-20 -192l-420 6v-346l530 6l-24 -211h-777z" />
    <glyph glyph-name="Igrave" unicode="&#xcc;" horiz-adv-x="565" 
d="M463 1343h-211l-313 275l260 47zM418 1253v-1253h-271v1253h271z" />
    <glyph glyph-name="Iacute" unicode="&#xcd;" horiz-adv-x="565" 
d="M115 1343l264 322l260 -47l-313 -275h-211zM418 1253v-1253h-271v1253h271z" />
    <glyph glyph-name="Icircumflex" unicode="&#xce;" horiz-adv-x="565" 
d="M444 1343l-163 146l-164 -146h-189l244 322h217l246 -322h-191zM418 1253v-1253h-271v1253h271z" />
    <glyph glyph-name="Idieresis" unicode="&#xcf;" horiz-adv-x="565" 
d="M322 1518q0 38 49 91.5t86 53.5q38 0 94.5 -44t56.5 -83q0 -38 -50.5 -90.5t-84.5 -52.5q-39 0 -95 43.5t-56 81.5zM-43 1518q0 38 49 91.5t86 53.5q38 0 95 -44t57 -83q0 -38 -50.5 -90.5t-84.5 -52.5q-39 0 -95.5 43.5t-56.5 81.5zM418 1253v-1253h-271v1253h271z" />
    <glyph glyph-name="Eth" unicode="&#xd0;" horiz-adv-x="1329" 
d="M532 -14q-174 0 -374 28v531h-125v182h125v526h483q137 0 249 -38t193.5 -110.5t126.5 -185.5t45 -257q0 -212 -94.5 -366.5t-256.5 -232t-372 -77.5zM592 188q84 0 152.5 24t122 74t83 135t29.5 200q0 91 -22.5 165.5t-61 125t-91.5 84.5t-113.5 49.5t-127.5 15.5h-135
v-334h309l-20 -182h-289v-344q80 -13 164 -13z" />
    <glyph glyph-name="Ntilde" unicode="&#xd1;" horiz-adv-x="1343" 
d="M950 1634l90 -94q-30 -60 -101.5 -121t-131.5 -61q-40 0 -139 33.5t-123 33.5q-34 0 -75.5 -30t-57.5 -49l-82 104q18 22 48.5 54.5t85 72t93.5 39.5q46 0 136 -33t116 -33q61 0 141 84zM950 0l-563 840v-840h-240v1253h269l540 -823v823h240v-1253h-246z" />
    <glyph glyph-name="Ograve" unicode="&#xd2;" horiz-adv-x="1382" 
d="M926 1343h-211l-314 275l261 47zM1309 651q0 -209 -85 -364.5t-235 -236.5t-346 -81q-257 0 -413 169t-156 464q0 209 85 364.5t235 236.5t345 81q257 0 413.5 -169.5t156.5 -463.5zM1032 594q0 255 -100 373t-275 118q-138 0 -222.5 -104t-84.5 -322q0 -256 99.5 -373.5
t275.5 -117.5q138 0 222.5 103t84.5 323z" />
    <glyph glyph-name="Oacute" unicode="&#xd3;" horiz-adv-x="1382" 
d="M455 1343l264 322l260 -47l-313 -275h-211zM1309 651q0 -209 -85 -364.5t-235 -236.5t-346 -81q-257 0 -413 169t-156 464q0 209 85 364.5t235 236.5t345 81q257 0 413.5 -169.5t156.5 -463.5zM1032 594q0 255 -100 373t-275 118q-138 0 -222.5 -104t-84.5 -322
q0 -256 99.5 -373.5t275.5 -117.5q138 0 222.5 103t84.5 323z" />
    <glyph glyph-name="Ocircumflex" unicode="&#xd4;" horiz-adv-x="1382" 
d="M850 1343l-164 146l-164 -146h-188l244 322h217l245 -322h-190zM1309 651q0 -209 -85 -364.5t-235 -236.5t-346 -81q-257 0 -413 169t-156 464q0 209 85 364.5t235 236.5t345 81q257 0 413.5 -169.5t156.5 -463.5zM1032 594q0 255 -100 373t-275 118q-138 0 -222.5 -104
t-84.5 -322q0 -256 99.5 -373.5t275.5 -117.5q138 0 222.5 103t84.5 323z" />
    <glyph glyph-name="Otilde" unicode="&#xd5;" horiz-adv-x="1382" 
d="M944 1634l90 -94q-30 -60 -101.5 -121t-131.5 -61q-40 0 -139 33.5t-123 33.5q-34 0 -75.5 -30t-57.5 -49l-82 104q18 22 48.5 54.5t85 72t93.5 39.5q46 0 136 -33t116 -33q61 0 141 84zM1309 651q0 -209 -85 -364.5t-235 -236.5t-346 -81q-257 0 -413 169t-156 464
q0 209 85 364.5t235 236.5t345 81q257 0 413.5 -169.5t156.5 -463.5zM1032 594q0 255 -100 373t-275 118q-138 0 -222.5 -104t-84.5 -322q0 -256 99.5 -373.5t275.5 -117.5q138 0 222.5 103t84.5 323z" />
    <glyph glyph-name="Odieresis" unicode="&#xd6;" horiz-adv-x="1382" 
d="M745 1507q0 38 49.5 92t86.5 54q38 0 94.5 -44t56.5 -83q0 -38 -50.5 -91t-84.5 -53q-39 0 -95.5 43.5t-56.5 81.5zM358 1507q0 38 49.5 92t86.5 54q38 0 94.5 -44t56.5 -83q0 -38 -50.5 -91t-84.5 -53q-39 0 -95.5 43.5t-56.5 81.5zM1309 651q0 -209 -85 -364.5
t-235 -236.5t-346 -81q-257 0 -413 169t-156 464q0 209 85 364.5t235 236.5t345 81q257 0 413.5 -169.5t156.5 -463.5zM1032 594q0 255 -100 373t-275 118q-138 0 -222.5 -104t-84.5 -322q0 -256 99.5 -373.5t275.5 -117.5q138 0 222.5 103t84.5 323z" />
    <glyph glyph-name="multiply" unicode="&#xd7;" 
d="M793 188l-240 242l-242 -242l-114 117l239 240l-239 239l116 115l240 -237l238 237l116 -115l-239 -239l239 -240z" />
    <glyph glyph-name="Oslash" unicode="&#xd8;" horiz-adv-x="1382" 
d="M350 659q0 -233 88 -358l359 762q-59 22 -140 22q-138 0 -222.5 -104t-84.5 -322zM725 168q138 0 222.5 103t84.5 323q0 242 -98 371l-361 -770q68 -27 152 -27zM643 -31q-89 0 -166 21l-76 -160h-184l107 227q-119 78 -184.5 217.5t-65.5 327.5q0 209 85 364.5
t235 236.5t345 81q81 0 154 -18l72 153h184l-102 -217q125 -76 193.5 -217.5t68.5 -333.5q0 -209 -85 -364.5t-235 -236.5t-346 -81z" />
    <glyph glyph-name="Ugrave" unicode="&#xd9;" horiz-adv-x="1302" 
d="M885 1343h-211l-314 275l261 47zM135 420v833h271v-768q0 -286 274 -286q102 0 164.5 57t62.5 166v831h260v-790q0 -234 -142.5 -365t-393.5 -129q-242 2 -369 117.5t-127 333.5z" />
    <glyph glyph-name="Uacute" unicode="&#xda;" horiz-adv-x="1302" 
d="M420 1343l264 322l260 -47l-313 -275h-211zM135 420v833h271v-768q0 -286 274 -286q102 0 164.5 57t62.5 166v831h260v-790q0 -234 -142.5 -365t-393.5 -129q-242 2 -369 117.5t-127 333.5z" />
    <glyph glyph-name="Ucircumflex" unicode="&#xdb;" horiz-adv-x="1302" 
d="M821 1343l-164 146l-163 -146h-189l244 322h217l246 -322h-191zM135 420v833h271v-768q0 -286 274 -286q102 0 164.5 57t62.5 166v831h260v-790q0 -234 -142.5 -365t-393.5 -129q-242 2 -369 117.5t-127 333.5z" />
    <glyph glyph-name="Udieresis" unicode="&#xdc;" horiz-adv-x="1302" 
d="M711 1507q0 39 49.5 92.5t85.5 53.5q38 0 94.5 -44t56.5 -83q0 -38 -50.5 -91t-84.5 -53q-39 0 -95 43.5t-56 81.5zM324 1507q0 39 49.5 92.5t85.5 53.5q38 0 94.5 -44t56.5 -83q0 -38 -50.5 -91t-84.5 -53q-39 0 -95 43.5t-56 81.5zM135 420v833h271v-768
q0 -286 274 -286q102 0 164.5 57t62.5 166v831h260v-790q0 -234 -142.5 -365t-393.5 -129q-242 2 -369 117.5t-127 333.5z" />
    <glyph glyph-name="Yacute" unicode="&#xdd;" horiz-adv-x="1118" 
d="M377 1343l264 322l260 -47l-313 -275h-211zM696 465v-465h-270v465l-442 788h299l295 -532l286 532h264z" />
    <glyph glyph-name="Thorn" unicode="&#xde;" horiz-adv-x="1071" 
d="M518 432q246 0 246 213q0 108 -70.5 165.5t-210.5 57.5h-65v-432q66 -4 100 -4zM494 246q-51 0 -76 2v-248h-271v1253h271v-204h164q217 0 337.5 -97t120.5 -270q0 -138 -75.5 -238.5t-197.5 -149t-273 -48.5z" />
    <glyph glyph-name="germandbls" unicode="&#xdf;" horiz-adv-x="1085" 
d="M725 365l-98 63q-144 91 -144 244q0 57 20.5 109.5t50.5 92t59.5 76.5t50 77.5t20.5 78.5q0 66 -54.5 107.5t-121.5 41.5q-68 0 -101.5 -47t-33.5 -149v-1059h-258v1008q0 205 124.5 323.5t315.5 118.5q162 0 265.5 -87t103.5 -200q0 -59 -22 -115t-53 -97t-62.5 -77.5
t-53.5 -71t-22 -61.5q0 -33 21 -64t75 -69l92 -63q90 -62 125 -122.5t35 -148.5q0 -132 -108 -217.5t-275 -85.5q-118 0 -223 37l26 189q46 -19 107.5 -33t107.5 -14q64 0 98.5 22t34.5 59q0 38 -22.5 68t-79.5 66z" />
    <glyph glyph-name="agrave" unicode="&#xe0;" horiz-adv-x="933" 
d="M737 1036h-211l-313 275l260 47zM649 -31l-51 99q-154 -99 -260 -99q-122 0 -201.5 72.5t-79.5 191.5q0 299 516 318v39q0 84 -38 122t-115 38q-111 0 -283 -62l-49 178q237 86 410 86q159 0 243 -77.5t84 -233.5v-635zM420 150q65 0 153 45v188q-47 8 -114 8
q-172 0 -172 -119q0 -55 37 -88.5t96 -33.5z" />
    <glyph glyph-name="aacute" unicode="&#xe1;" horiz-adv-x="933" 
d="M291 1036l264 322l260 -47l-313 -275h-211zM649 -31l-51 99q-154 -99 -260 -99q-122 0 -201.5 72.5t-79.5 191.5q0 299 516 318v39q0 84 -38 122t-115 38q-111 0 -283 -62l-49 178q237 86 410 86q159 0 243 -77.5t84 -233.5v-635zM420 150q65 0 153 45v188q-47 8 -114 8
q-172 0 -172 -119q0 -55 37 -88.5t96 -33.5z" />
    <glyph glyph-name="acircumflex" unicode="&#xe2;" horiz-adv-x="933" 
d="M645 1036l-164 146l-164 -146h-188l244 322h217l246 -322h-191zM649 -31l-51 99q-154 -99 -260 -99q-122 0 -201.5 72.5t-79.5 191.5q0 299 516 318v39q0 84 -38 122t-115 38q-111 0 -283 -62l-49 178q237 86 410 86q159 0 243 -77.5t84 -233.5v-635zM420 150
q65 0 153 45v188q-47 8 -114 8q-172 0 -172 -119q0 -55 37 -88.5t96 -33.5z" />
    <glyph glyph-name="atilde" unicode="&#xe3;" horiz-adv-x="933" 
d="M723 1327l90 -94q-30 -60 -101.5 -121t-131.5 -61q-40 0 -139.5 33.5t-123.5 33.5q-34 0 -75 -30t-58 -50l-82 105q17 22 48 54.5t86 72t94 39.5q46 0 136 -33t116 -33q61 0 141 84zM649 -31l-51 99q-154 -99 -260 -99q-122 0 -201.5 72.5t-79.5 191.5q0 299 516 318v39
q0 84 -38 122t-115 38q-111 0 -283 -62l-49 178q237 86 410 86q159 0 243 -77.5t84 -233.5v-635zM420 150q65 0 153 45v188q-47 8 -114 8q-172 0 -172 -119q0 -55 37 -88.5t96 -33.5z" />
    <glyph glyph-name="adieresis" unicode="&#xe4;" horiz-adv-x="933" 
d="M514 1200q0 39 49.5 92.5t85.5 53.5q38 0 95 -44t57 -83q0 -38 -50.5 -91t-84.5 -53q-39 0 -95.5 43.5t-56.5 81.5zM127 1200q0 39 49.5 92.5t85.5 53.5q38 0 95 -44t57 -83q0 -38 -50.5 -91t-84.5 -53q-39 0 -95.5 43.5t-56.5 81.5zM649 -31l-51 99q-154 -99 -260 -99
q-122 0 -201.5 72.5t-79.5 191.5q0 299 516 318v39q0 84 -38 122t-115 38q-111 0 -283 -62l-49 178q237 86 410 86q159 0 243 -77.5t84 -233.5v-635zM420 150q65 0 153 45v188q-47 8 -114 8q-172 0 -172 -119q0 -55 37 -88.5t96 -33.5z" />
    <glyph glyph-name="aring" unicode="&#xe5;" horiz-adv-x="933" 
d="M684 1225q0 -81 -62.5 -140t-146.5 -59q-88 0 -147.5 54t-59.5 145q0 82 62.5 141t146.5 59q89 0 148 -53t59 -147zM387 1225q0 -38 25.5 -63t62.5 -25t63.5 25t26.5 63q0 40 -26 66t-64 26q-37 0 -62.5 -25.5t-25.5 -66.5zM649 -31l-51 99q-154 -99 -260 -99
q-122 0 -201.5 72.5t-79.5 191.5q0 299 516 318v39q0 84 -38 122t-115 38q-111 0 -283 -62l-49 178q237 86 410 86q159 0 243 -77.5t84 -233.5v-635zM420 150q65 0 153 45v188q-47 8 -114 8q-172 0 -172 -119q0 -55 37 -88.5t96 -33.5z" />
    <glyph glyph-name="ae" unicode="&#xe6;" horiz-adv-x="1452" 
d="M987 788q-72 0 -110 -44.5t-48 -155.5h320q0 200 -162 200zM1391 51q-171 -82 -373 -82q-210 0 -326 131q-195 -131 -348 -131q-126 0 -206.5 72t-80.5 192q0 299 518 318v39q0 85 -38 122.5t-117 37.5q-111 0 -283 -62l-49 178q237 86 410 86q175 0 254 -94
q114 94 276 94q99 0 170.5 -31t111 -86.5t57 -121t17.5 -146.5q0 -73 -8 -131h-553q15 -270 252 -270q142 0 275 53zM420 150q36 0 95 17.5t108 43.5q-32 87 -37 172q-70 8 -127 8q-172 0 -172 -119q0 -55 37 -88.5t96 -33.5z" />
    <glyph glyph-name="ccedilla" unicode="&#xe7;" horiz-adv-x="860" 
d="M688 -262q0 -36 -19.5 -71t-59 -66.5t-108 -53.5t-157.5 -28l-29 108q99 10 150 27.5t51 54.5q0 48 -151 86l-7 10l82 168q-171 21 -277 138t-106 319q0 124 39 224.5t106 164.5t155 98.5t188 34.5q170 0 266 -47l-45 -196q-39 19 -105.5 34t-113.5 15q-228 0 -228 -287
q0 -152 75 -226.5t184 -74.5q110 0 210 41l29 -176q-123 -55 -264 -64l-35 -77q87 -34 128.5 -67.5t41.5 -88.5z" />
    <glyph glyph-name="egrave" unicode="&#xe8;" horiz-adv-x="935" 
d="M758 1036h-211l-314 275l261 47zM471 788q-72 0 -110 -44.5t-48 -155.5h320q0 200 -162 200zM874 51q-171 -82 -372 -82q-92 0 -170.5 26.5t-141 81t-98 146.5t-35.5 213q0 241 123.5 378.5t331.5 137.5q99 0 170.5 -31t111 -86.5t57 -121t17.5 -146.5q0 -73 -8 -131
h-553q4 -76 27.5 -130.5t60 -84t77 -42.5t87.5 -13q142 0 275 53z" />
    <glyph glyph-name="eacute" unicode="&#xe9;" horiz-adv-x="935" 
d="M311 1036l264 322l261 -47l-314 -275h-211zM471 788q-72 0 -110 -44.5t-48 -155.5h320q0 200 -162 200zM874 51q-171 -82 -372 -82q-92 0 -170.5 26.5t-141 81t-98 146.5t-35.5 213q0 241 123.5 378.5t331.5 137.5q99 0 170.5 -31t111 -86.5t57 -121t17.5 -146.5
q0 -73 -8 -131h-553q4 -76 27.5 -130.5t60 -84t77 -42.5t87.5 -13q142 0 275 53z" />
    <glyph glyph-name="ecircumflex" unicode="&#xea;" horiz-adv-x="935" 
d="M678 1036l-164 146l-164 -146h-188l244 322h217l245 -322h-190zM471 788q-72 0 -110 -44.5t-48 -155.5h320q0 200 -162 200zM874 51q-171 -82 -372 -82q-92 0 -170.5 26.5t-141 81t-98 146.5t-35.5 213q0 241 123.5 378.5t331.5 137.5q99 0 170.5 -31t111 -86.5t57 -121
t17.5 -146.5q0 -73 -8 -131h-553q4 -76 27.5 -130.5t60 -84t77 -42.5t87.5 -13q142 0 275 53z" />
    <glyph glyph-name="edieresis" unicode="&#xeb;" horiz-adv-x="935" 
d="M549 1200q0 39 49.5 92.5t85.5 53.5q38 0 95 -44t57 -83q0 -38 -51 -91t-85 -53q-39 0 -95 43.5t-56 81.5zM162 1200q0 39 49.5 92.5t85.5 53.5q38 0 95 -44t57 -83q0 -38 -51 -91t-85 -53q-39 0 -95 43.5t-56 81.5zM471 788q-72 0 -110 -44.5t-48 -155.5h320
q0 200 -162 200zM874 51q-171 -82 -372 -82q-92 0 -170.5 26.5t-141 81t-98 146.5t-35.5 213q0 241 123.5 378.5t331.5 137.5q99 0 170.5 -31t111 -86.5t57 -121t17.5 -146.5q0 -73 -8 -131h-553q4 -76 27.5 -130.5t60 -84t77 -42.5t87.5 -13q142 0 275 53z" />
    <glyph glyph-name="igrave" unicode="&#xec;" horiz-adv-x="487" 
d="M473 1036h-211l-313 275l260 47zM375 954v-954h-258v918z" />
    <glyph glyph-name="iacute" unicode="&#xed;" horiz-adv-x="487" 
d="M78 1036l264 322l260 -47l-313 -275h-211zM371 954v-954h-258v918z" />
    <glyph glyph-name="icircumflex" unicode="&#xee;" horiz-adv-x="487" 
d="M410 1036l-164 146l-164 -146h-188l243 322h217l246 -322h-190zM371 954v-954h-258v918z" />
    <glyph glyph-name="idieresis" unicode="&#xef;" horiz-adv-x="487" 
d="M270 1217q0 38 49.5 91.5t86.5 53.5q38 0 94.5 -44t56.5 -83q0 -38 -50.5 -90.5t-84.5 -52.5q-39 0 -95.5 43.5t-56.5 81.5zM-76 1217q0 38 49 91.5t86 53.5q38 0 95 -44t57 -83q0 -38 -50.5 -90.5t-84.5 -52.5q-39 0 -95.5 43.5t-56.5 81.5zM369 954v-954h-258v918z" />
    <glyph glyph-name="eth" unicode="&#xf0;" horiz-adv-x="1048" 
d="M485 -31q-87 0 -162.5 27.5t-135.5 81t-95 142t-35 202.5q0 109 30 200t79.5 151t113.5 101.5t130.5 59.5t132.5 18q61 0 110 -12q-54 110 -159 199l-213 -129l-105 98l199 119q-61 40 -205 116l100 109q151 -47 279 -119l209 125l102 -98l-186 -113q115 -91 189.5 -208
t104 -232t29.5 -242q0 -284 -140 -440t-372 -156zM535 160q51 0 84 13.5t60 50t39.5 106.5t12.5 178q0 128 -14 223q-87 31 -172 31q-116 0 -169.5 -67t-53.5 -232q0 -82 19.5 -144t52 -95t68 -48.5t73.5 -15.5z" />
    <glyph glyph-name="ntilde" unicode="&#xf1;" horiz-adv-x="1052" 
d="M803 1327l90 -94q-30 -60 -102 -121t-132 -61q-40 0 -139 33.5t-123 33.5q-34 0 -75 -30t-58 -50l-82 105q17 22 48 54.5t86 72t94 39.5q46 0 136 -33t116 -33q61 0 141 84zM532 758q-75 0 -159 -45v-713h-258v915l184 37l49 -92q172 92 303 92q132 0 212.5 -71.5
t80.5 -206.5v-674h-258v590q0 91 -43 129.5t-111 38.5z" />
    <glyph glyph-name="ograve" unicode="&#xf2;" horiz-adv-x="1050" 
d="M811 1036h-211l-313 275l260 47zM993 479q0 -236 -136.5 -373t-362.5 -137q-199 0 -318 121t-119 352q0 236 137 373t363 137q206 0 321 -120t115 -353zM731 436q0 96 -17 163t-49 103.5t-71 52t-90 15.5q-91 0 -138 -64.5t-47 -220.5q0 -96 17 -163t49 -103t71.5 -51.5
t90.5 -15.5q91 0 137.5 64t46.5 220z" />
    <glyph glyph-name="oacute" unicode="&#xf3;" horiz-adv-x="1050" 
d="M324 1036l264 322l260 -47l-313 -275h-211zM993 479q0 -236 -136.5 -373t-362.5 -137q-199 0 -318 121t-119 352q0 236 137 373t363 137q206 0 321 -120t115 -353zM731 436q0 96 -17 163t-49 103.5t-71 52t-90 15.5q-91 0 -138 -64.5t-47 -220.5q0 -96 17 -163t49 -103
t71.5 -51.5t90.5 -15.5q91 0 137.5 64t46.5 220z" />
    <glyph glyph-name="ocircumflex" unicode="&#xf4;" horiz-adv-x="1050" 
d="M698 1036l-163 146l-164 -146h-189l244 322h217l246 -322h-191zM993 479q0 -236 -136.5 -373t-362.5 -137q-199 0 -318 121t-119 352q0 236 137 373t363 137q206 0 321 -120t115 -353zM731 436q0 96 -17 163t-49 103.5t-71 52t-90 15.5q-91 0 -138 -64.5t-47 -220.5
q0 -96 17 -163t49 -103t71.5 -51.5t90.5 -15.5q91 0 137.5 64t46.5 220z" />
    <glyph glyph-name="otilde" unicode="&#xf5;" horiz-adv-x="1050" 
d="M807 1327l90 -94q-30 -60 -101.5 -121t-131.5 -61q-40 0 -139.5 33.5t-123.5 33.5q-34 0 -75 -30t-58 -50l-82 105q17 22 48 54.5t86 72t94 39.5q46 0 136 -33t116 -33q61 0 141 84zM993 479q0 -236 -136.5 -373t-362.5 -137q-199 0 -318 121t-119 352q0 236 137 373
t363 137q206 0 321 -120t115 -353zM731 436q0 96 -17 163t-49 103.5t-71 52t-90 15.5q-91 0 -138 -64.5t-47 -220.5q0 -96 17 -163t49 -103t71.5 -51.5t90.5 -15.5q91 0 137.5 64t46.5 220z" />
    <glyph glyph-name="odieresis" unicode="&#xf6;" horiz-adv-x="1050" 
d="M584 1200q0 39 49.5 92.5t85.5 53.5q38 0 94.5 -44t56.5 -83q0 -38 -50.5 -91t-84.5 -53q-39 0 -95 43.5t-56 81.5zM197 1200q0 39 49.5 92.5t85.5 53.5q38 0 94.5 -44t56.5 -83q0 -38 -50.5 -91t-84.5 -53q-39 0 -95 43.5t-56 81.5zM993 479q0 -236 -136.5 -373
t-362.5 -137q-199 0 -318 121t-119 352q0 236 137 373t363 137q206 0 321 -120t115 -353zM731 436q0 96 -17 163t-49 103.5t-71 52t-90 15.5q-91 0 -138 -64.5t-47 -220.5q0 -96 17 -163t49 -103t71.5 -51.5t90.5 -15.5q91 0 137.5 64t46.5 220z" />
    <glyph glyph-name="divide" unicode="&#xf7;" 
d="M406 870q0 52 47.5 102t93.5 50q49 0 104.5 -40.5t55.5 -88.5q0 -51 -49.5 -100.5t-96.5 -49.5q-50 0 -102.5 39t-52.5 88zM989 627v-164h-872v164h872zM406 199q0 52 47.5 101.5t93.5 49.5q49 0 104.5 -40.5t55.5 -88.5q0 -51 -49.5 -100t-96.5 -49q-50 0 -102.5 39
t-52.5 88z" />
    <glyph glyph-name="oslash" unicode="&#xf8;" horiz-adv-x="1050" 
d="M319 485q0 -141 39 -221l242 488q-44 18 -96 18q-91 0 -138 -64.5t-47 -220.5zM547 152q91 0 137.5 64t46.5 220q0 140 -35 215l-241 -483q39 -16 92 -16zM494 -31q-70 0 -129 15l-66 -129h-145l90 180q-187 118 -187 407q0 236 137 373t363 137q69 0 135 -16l68 135h145
l-92 -184q180 -116 180 -408q0 -236 -136.5 -373t-362.5 -137z" />
    <glyph glyph-name="ugrave" unicode="&#xf9;" horiz-adv-x="1052" 
d="M805 1036h-211l-313 275l260 47zM762 -31l-57 90q-176 -90 -304 -90q-132 0 -212 72t-80 207v667l258 37v-620q0 -168 153 -168q76 0 160 45v706l258 37v-946z" />
    <glyph glyph-name="uacute" unicode="&#xfa;" horiz-adv-x="1052" 
d="M338 1036l264 322l260 -47l-313 -275h-211zM762 -31l-57 90q-176 -90 -304 -90q-132 0 -212 72t-80 207v667l258 37v-620q0 -168 153 -168q76 0 160 45v706l258 37v-946z" />
    <glyph glyph-name="ucircumflex" unicode="&#xfb;" horiz-adv-x="1052" 
d="M723 1036l-164 146l-164 -146h-188l244 322h217l245 -322h-190zM762 -31l-57 90q-176 -90 -304 -90q-132 0 -212 72t-80 207v667l258 37v-620q0 -168 153 -168q76 0 160 45v706l258 37v-946z" />
    <glyph glyph-name="udieresis" unicode="&#xfc;" horiz-adv-x="1052" 
d="M594 1200q0 39 49.5 92.5t85.5 53.5q38 0 95 -44t57 -83q0 -38 -51 -91t-85 -53q-39 0 -95 43.5t-56 81.5zM207 1200q0 39 49.5 92.5t85.5 53.5q38 0 95 -44t57 -83q0 -38 -51 -91t-85 -53q-39 0 -95 43.5t-56 81.5zM762 -31l-57 90q-176 -90 -304 -90q-132 0 -212 72
t-80 207v667l258 37v-620q0 -168 153 -168q76 0 160 45v706l258 37v-946z" />
    <glyph glyph-name="yacute" unicode="&#xfd;" horiz-adv-x="958" 
d="M295 1036l264 322l260 -47l-313 -275h-211zM135 -481q-62 0 -108 12l-15 205q150 -18 253 41t163 223h-115l-307 905l268 37l224 -723q94 311 198 703h256q-259 -854 -311 -990q-73 -206 -204.5 -309.5t-301.5 -103.5z" />
    <glyph glyph-name="thorn" unicode="&#xfe;" horiz-adv-x="1073" 
d="M553 160q94 0 148.5 74t54.5 231q0 82 -20.5 142t-55 92t-72 46.5t-78.5 14.5q-78 0 -157 -37v-535q89 -28 180 -28zM373 -432l-258 -37v1853l258 37v-557q159 90 268 88q75 -1 141 -28.5t119.5 -82t85 -147t31.5 -211.5q0 -102 -27.5 -188.5t-73.5 -145t-106 -100.5
t-123 -61t-127 -19q-95 0 -188 17v-418z" />
    <glyph glyph-name="ydieresis" unicode="&#xff;" horiz-adv-x="958" 
d="M547 1200q0 39 49.5 92.5t85.5 53.5q38 0 95 -44t57 -83q0 -38 -51 -91t-85 -53q-39 0 -95 43.5t-56 81.5zM160 1200q0 39 49.5 92.5t85.5 53.5q38 0 94.5 -44t56.5 -83q0 -38 -50.5 -91t-84.5 -53q-39 0 -95 43.5t-56 81.5zM135 -481q-62 0 -108 12l-15 205
q150 -18 253 41t163 223h-115l-307 905l268 37l224 -723q94 311 198 703h256q-259 -854 -311 -990q-73 -206 -204.5 -309.5t-301.5 -103.5z" />
    <glyph glyph-name="Amacron" unicode="&#x100;" horiz-adv-x="1189" 
d="M893 1585v-31l-47 -145h-527v31l48 145h526zM745 514l-161 504l-162 -504h323zM909 0l-104 326h-443l-104 -326h-256l432 1253h338l416 -1253h-279z" />
    <glyph glyph-name="amacron" unicode="&#x101;" horiz-adv-x="933" 
d="M756 1278v-31l-47 -145h-527v31l47 145h527zM649 -31l-51 99q-154 -99 -260 -99q-122 0 -201.5 72.5t-79.5 191.5q0 299 516 318v39q0 84 -38 122t-115 38q-111 0 -283 -62l-49 178q237 86 410 86q159 0 243 -77.5t84 -233.5v-635zM420 150q65 0 153 45v188q-47 8 -114 8
q-172 0 -172 -119q0 -55 37 -88.5t96 -33.5z" />
    <glyph glyph-name="Abreve" unicode="&#x102;" horiz-adv-x="1189" 
d="M600 1516q151 0 178 172h148q0 -148 -100.5 -246.5t-235.5 -98.5q-146 0 -231 95.5t-85 249.5h148q27 -172 178 -172zM745 514l-161 504l-162 -504h323zM909 0l-104 326h-443l-104 -326h-256l432 1253h338l416 -1253h-279z" />
    <glyph glyph-name="abreve" unicode="&#x103;" horiz-adv-x="933" 
d="M500 1208q151 0 178 172h147q0 -148 -100.5 -246t-235.5 -98q-146 0 -230.5 95t-84.5 249h148q27 -172 178 -172zM649 -31l-51 99q-154 -99 -260 -99q-122 0 -201.5 72.5t-79.5 191.5q0 299 516 318v39q0 84 -38 122t-115 38q-111 0 -283 -62l-49 178q237 86 410 86
q159 0 243 -77.5t84 -233.5v-635zM420 150q65 0 153 45v188q-47 8 -114 8q-172 0 -172 -119q0 -55 37 -88.5t96 -33.5z" />
    <glyph glyph-name="Aogonek" unicode="&#x104;" horiz-adv-x="1189" 
d="M745 514l-161 504l-162 -504h323zM1038 0h-129l-104 326h-443l-104 -326h-256l432 1253h338l416 -1253h-8q-104 -74 -151.5 -139t-47.5 -113q0 -34 24 -55t58 -21q47 0 92 25l37 -113q-87 -47 -172 -47q-93 0 -148 49t-55 135q0 72 61.5 148t159.5 131z" />
    <glyph glyph-name="aogonek" unicode="&#x105;" horiz-adv-x="933" 
d="M653 -463q-93 0 -147.5 49t-54.5 135q0 66 53 137t139 124l-45 86q-154 -99 -260 -99q-122 0 -201.5 72.5t-79.5 191.5q0 299 516 318v39q0 84 -38 122t-115 38q-111 0 -283 -62l-49 178q237 86 410 86q159 0 243 -77.5t84 -233.5v-635l-28 -6h16q-104 -74 -151.5 -139
t-47.5 -113q0 -34 24 -55t58 -21q47 0 92 25l37 -113q-87 -47 -172 -47zM420 150q65 0 153 45v188q-47 8 -114 8q-172 0 -172 -119q0 -55 37 -88.5t96 -33.5z" />
    <glyph glyph-name="Cacute" unicode="&#x106;" horiz-adv-x="1130" 
d="M463 1343l264 322l260 -47l-313 -275h-211zM1042 250l31 -197q-59 -35 -167.5 -59.5t-223.5 -24.5q-130 0 -240 41t-192.5 118.5t-129 199.5t-46.5 276q0 146 45 271t128 215.5t207 142t275 51.5q195 0 338 -53l-53 -219q-148 59 -326 59q-55 0 -102.5 -12.5t-91.5 -43
t-75.5 -77.5t-50 -121.5t-18.5 -169.5q0 -100 24.5 -180.5t64 -131t92.5 -84.5t107 -47.5t112 -13.5q79 0 160.5 18t131.5 42z" />
    <glyph glyph-name="cacute" unicode="&#x107;" horiz-adv-x="860" 
d="M315 1036l265 322l260 -47l-314 -275h-211zM788 211l29 -176q-150 -66 -307 -66q-95 0 -176.5 29t-143.5 85t-97.5 145t-35.5 202q0 124 39 224.5t106 164.5t155 98.5t188 34.5q170 0 266 -47l-45 -196q-39 19 -105.5 34t-113.5 15q-228 0 -228 -287q0 -152 75 -226.5
t184 -74.5q110 0 210 41z" />
    <glyph glyph-name="Ccircumflex" unicode="&#x108;" horiz-adv-x="1130" 
d="M842 1343l-164 146l-164 -146h-188l243 322h217l246 -322h-190zM1042 250l31 -197q-59 -35 -167.5 -59.5t-223.5 -24.5q-130 0 -240 41t-192.5 118.5t-129 199.5t-46.5 276q0 146 45 271t128 215.5t207 142t275 51.5q195 0 338 -53l-53 -219q-148 59 -326 59
q-55 0 -102.5 -12.5t-91.5 -43t-75.5 -77.5t-50 -121.5t-18.5 -169.5q0 -100 24.5 -180.5t64 -131t92.5 -84.5t107 -47.5t112 -13.5q79 0 160.5 18t131.5 42z" />
    <glyph glyph-name="ccircumflex" unicode="&#x109;" horiz-adv-x="860" 
d="M670 1036l-164 146l-164 -146h-188l243 322h217l246 -322h-190zM788 211l29 -176q-150 -66 -307 -66q-95 0 -176.5 29t-143.5 85t-97.5 145t-35.5 202q0 124 39 224.5t106 164.5t155 98.5t188 34.5q170 0 266 -47l-45 -196q-39 19 -105.5 34t-113.5 15q-228 0 -228 -287
q0 -152 75 -226.5t184 -74.5q110 0 210 41z" />
    <glyph glyph-name="Cdotaccent" unicode="&#x10a;" horiz-adv-x="1130" 
d="M508 1522q0 43 55 102t96 59t104.5 -48.5t63.5 -90.5t-56 -101t-95 -59q-42 0 -105 48.5t-63 89.5zM1042 250l31 -197q-59 -35 -167.5 -59.5t-223.5 -24.5q-130 0 -240 41t-192.5 118.5t-129 199.5t-46.5 276q0 146 45 271t128 215.5t207 142t275 51.5q195 0 338 -53
l-53 -219q-148 59 -326 59q-55 0 -102.5 -12.5t-91.5 -43t-75.5 -77.5t-50 -121.5t-18.5 -169.5q0 -100 24.5 -180.5t64 -131t92.5 -84.5t107 -47.5t112 -13.5q79 0 160.5 18t131.5 42z" />
    <glyph glyph-name="cdotaccent" unicode="&#x10b;" horiz-adv-x="860" 
d="M385 1214q0 43 55.5 102.5t96.5 59.5t104.5 -48.5t63.5 -90.5t-56.5 -101t-95.5 -59q-42 0 -105 48t-63 89zM788 211l29 -176q-150 -66 -307 -66q-95 0 -176.5 29t-143.5 85t-97.5 145t-35.5 202q0 124 39 224.5t106 164.5t155 98.5t188 34.5q170 0 266 -47l-45 -196
q-39 19 -105.5 34t-113.5 15q-228 0 -228 -287q0 -152 75 -226.5t184 -74.5q110 0 210 41z" />
    <glyph glyph-name="Ccaron" unicode="&#x10c;" horiz-adv-x="1130" 
d="M786 1354h-217l-245 321h190l164 -145l164 145h188zM1042 250l31 -197q-59 -35 -167.5 -59.5t-223.5 -24.5q-130 0 -240 41t-192.5 118.5t-129 199.5t-46.5 276q0 146 45 271t128 215.5t207 142t275 51.5q195 0 338 -53l-53 -219q-148 59 -326 59q-55 0 -102.5 -12.5
t-91.5 -43t-75.5 -77.5t-50 -121.5t-18.5 -169.5q0 -100 24.5 -180.5t64 -131t92.5 -84.5t107 -47.5t112 -13.5q79 0 160.5 18t131.5 42z" />
    <glyph glyph-name="ccaron" unicode="&#x10d;" horiz-adv-x="860" 
d="M633 1047h-217l-246 321h190l164 -145l164 145h189zM788 211l29 -176q-150 -66 -307 -66q-95 0 -176.5 29t-143.5 85t-97.5 145t-35.5 202q0 124 39 224.5t106 164.5t155 98.5t188 34.5q170 0 266 -47l-45 -196q-39 19 -105.5 34t-113.5 15q-228 0 -228 -287
q0 -152 75 -226.5t184 -74.5q110 0 210 41z" />
    <glyph glyph-name="Dcaron" unicode="&#x10e;" horiz-adv-x="1318" 
d="M723 1354h-217l-246 321h191l163 -145l164 145h189zM147 1253h484q137 0 249 -38t193.5 -110.5t126.5 -185.5t45 -257q0 -212 -94.5 -366.5t-256.5 -232t-372 -77.5q-175 0 -375 28v1239zM418 1061v-860q80 -13 164 -13t152.5 24t122 74t83 135t29.5 200
q0 91 -22.5 165.5t-61 125t-91.5 84.5t-113.5 49.5t-127.5 15.5h-135z" />
    <glyph glyph-name="dcaron" unicode="&#x10f;" horiz-adv-x="1355" 
d="M1114 1335q0 32 47.5 59t89.5 27q44 0 73.5 -63t29.5 -129q0 -116 -174 -359l-103 56q76 143 76 239q0 41 -19.5 96.5t-19.5 73.5zM776 -31l-55 99q-170 -101 -287 -99q-75 1 -141 28.5t-119.5 82t-85 147t-31.5 211.5q0 102 27.5 188.5t73.5 145t106 100.5t123 61
t127 19q100 0 188 -16v446l259 37v-1413zM545 162q78 0 157 37v534q-92 29 -180 29q-94 0 -148.5 -74t-54.5 -231q0 -82 20.5 -142t55 -92t72 -46.5t78.5 -14.5z" />
    <glyph glyph-name="Dcroat" unicode="&#x110;" horiz-adv-x="1329" 
d="M532 -14q-174 0 -374 28v531h-125v182h125v526h483q137 0 249 -38t193.5 -110.5t126.5 -185.5t45 -257q0 -212 -94.5 -366.5t-256.5 -232t-372 -77.5zM592 188q84 0 152.5 24t122 74t83 135t29.5 200q0 91 -22.5 165.5t-61 125t-91.5 84.5t-113.5 49.5t-127.5 15.5h-135
v-334h309l-20 -182h-289v-344q80 -13 164 -13z" />
    <glyph glyph-name="dcroat" unicode="&#x111;" horiz-adv-x="1079" 
d="M776 -31l-55 99q-170 -101 -287 -99q-75 1 -141 28.5t-119.5 82t-85 147t-31.5 211.5q0 102 27.5 188.5t73.5 145t106 100.5t123 61t127 19q100 0 188 -16v172h-272v31l47 110h225v133l259 37v-170h159v-30l-47 -111h-112v-1102zM545 162q78 0 157 37v534q-92 29 -180 29
q-94 0 -148.5 -74t-54.5 -231q0 -82 20.5 -142t55 -92t72 -46.5t78.5 -14.5z" />
    <glyph glyph-name="Emacron" unicode="&#x112;" horiz-adv-x="1013" 
d="M834 1585v-31l-48 -145h-526v31l47 145h527zM147 0v1253h768l-24 -204l-473 6v-318h440l-20 -192l-420 6v-346l530 6l-24 -211h-777z" />
    <glyph glyph-name="emacron" unicode="&#x113;" horiz-adv-x="935" 
d="M786 1278v-31l-47 -145h-526v31l47 145h526zM471 788q-72 0 -110 -44.5t-48 -155.5h320q0 200 -162 200zM874 51q-171 -82 -372 -82q-92 0 -170.5 26.5t-141 81t-98 146.5t-35.5 213q0 241 123.5 378.5t331.5 137.5q99 0 170.5 -31t111 -86.5t57 -121t17.5 -146.5
q0 -73 -8 -131h-553q4 -76 27.5 -130.5t60 -84t77 -42.5t87.5 -13q142 0 275 53z" />
    <glyph glyph-name="Ebreve" unicode="&#x114;" horiz-adv-x="1013" 
d="M547 1516q151 0 178 172h147q0 -148 -100 -246.5t-235 -98.5q-146 0 -231 95.5t-85 249.5h148q27 -172 178 -172zM147 0v1253h768l-24 -204l-473 6v-318h440l-20 -192l-420 6v-346l530 6l-24 -211h-777z" />
    <glyph glyph-name="ebreve" unicode="&#x115;" horiz-adv-x="935" 
d="M520 1208q151 0 178 172h148q0 -148 -100.5 -246t-235.5 -98q-146 0 -230.5 95t-84.5 249h147q27 -172 178 -172zM471 788q-72 0 -110 -44.5t-48 -155.5h320q0 200 -162 200zM874 51q-171 -82 -372 -82q-92 0 -170.5 26.5t-141 81t-98 146.5t-35.5 213q0 241 123.5 378.5
t331.5 137.5q99 0 170.5 -31t111 -86.5t57 -121t17.5 -146.5q0 -73 -8 -131h-553q4 -76 27.5 -130.5t60 -84t77 -42.5t87.5 -13q142 0 275 53z" />
    <glyph glyph-name="Edotaccent" unicode="&#x116;" horiz-adv-x="1013" 
d="M395 1522q0 43 55.5 102t96.5 59t104.5 -48.5t63.5 -90.5t-56.5 -101t-95.5 -59q-42 0 -105 48.5t-63 89.5zM147 0v1253h768l-24 -204l-473 6v-318h440l-20 -192l-420 6v-346l530 6l-24 -211h-777z" />
    <glyph glyph-name="edotaccent" unicode="&#x117;" horiz-adv-x="935" 
d="M334 1214q0 43 55 102.5t96 59.5t104.5 -48.5t63.5 -90.5t-56 -101t-95 -59q-42 0 -105 48t-63 89zM471 788q-72 0 -110 -44.5t-48 -155.5h320q0 200 -162 200zM874 51q-171 -82 -372 -82q-92 0 -170.5 26.5t-141 81t-98 146.5t-35.5 213q0 241 123.5 378.5t331.5 137.5
q99 0 170.5 -31t111 -86.5t57 -121t17.5 -146.5q0 -73 -8 -131h-553q4 -76 27.5 -130.5t60 -84t77 -42.5t87.5 -13q142 0 275 53z" />
    <glyph glyph-name="Eogonek" unicode="&#x118;" horiz-adv-x="1013" 
d="M147 0v1253h768l-24 -204l-473 6v-318h440l-20 -192l-420 6v-346l530 6l-24 -211h-777zM555 -279q0 72 61.5 148t159.5 131h142q-104 -74 -151.5 -139t-47.5 -113q0 -34 24 -55t58 -21q47 0 92 25l37 -113q-87 -47 -172 -47q-93 0 -148 49t-55 135z" />
    <glyph glyph-name="eogonek" unicode="&#x119;" horiz-adv-x="935" 
d="M471 788q-72 0 -110 -44.5t-48 -155.5h320q0 200 -162 200zM827 -395q-87 -47 -172 -47q-93 0 -147.5 49t-54.5 135q0 58 40.5 119t110.5 114q-50 -6 -102 -6q-92 0 -170.5 26.5t-141 81t-98 146.5t-35.5 213q0 241 123.5 378.5t331.5 137.5q99 0 170.5 -31t111 -86.5
t57 -121t17.5 -146.5q0 -73 -8 -131h-553q4 -76 27.5 -130.5t60 -84t77 -42.5t87.5 -13q142 0 275 53l40 -168q-62 -27 -73 -31h14q-105 -74 -152 -138.5t-47 -112.5q0 -34 24 -55t58 -21q50 0 93 24z" />
    <glyph glyph-name="Ecaron" unicode="&#x11a;" horiz-adv-x="1013" 
d="M664 1354h-218l-245 321h190l164 -145l164 145h188zM147 0v1253h768l-24 -204l-473 6v-318h440l-20 -192l-420 6v-346l530 6l-24 -211h-777z" />
    <glyph glyph-name="ecaron" unicode="&#x11b;" horiz-adv-x="935" 
d="M588 1047h-217l-246 321h190l164 -145l164 145h188zM471 788q-72 0 -110 -44.5t-48 -155.5h320q0 200 -162 200zM874 51q-171 -82 -372 -82q-92 0 -170.5 26.5t-141 81t-98 146.5t-35.5 213q0 241 123.5 378.5t331.5 137.5q99 0 170.5 -31t111 -86.5t57 -121t17.5 -146.5
q0 -73 -8 -131h-553q4 -76 27.5 -130.5t60 -84t77 -42.5t87.5 -13q142 0 275 53z" />
    <glyph glyph-name="Gcircumflex" unicode="&#x11c;" horiz-adv-x="1222" 
d="M844 1343l-164 146l-164 -146h-188l243 322h217l246 -322h-190zM1110 55q-220 -86 -408 -86q-136 0 -248.5 38t-198.5 113t-133.5 197t-47.5 281t52 289t143 216.5t215 133.5t268 47q101 0 206.5 -20.5t159.5 -46.5l-61 -216q-69 31 -161.5 52.5t-176.5 21.5
q-169 0 -269 -103t-100 -325q0 -109 24.5 -193t63 -134t91.5 -82.5t105 -44t109 -11.5q60 0 131 11l-2 430h238v-568z" />
    <glyph glyph-name="gcircumflex" unicode="&#x11d;" horiz-adv-x="952" 
d="M623 1036l-164 146l-164 -146h-189l244 322h217l246 -322h-190zM571 627q0 92 -45 134t-116 42q-63 0 -90 -34.5t-27 -123.5q0 -90 46 -133t116 -43q58 0 87 36.5t29 121.5zM911 -49q0 -107 -69.5 -199.5t-193 -147.5t-271.5 -55q-177 0 -271 65.5t-94 166.5
q0 44 23 84.5t47.5 63t60.5 48.5q4 3 33.5 22.5t48.5 31.5q-100 46 -100 141q0 82 111 174q-89 35 -139 104t-50 166q0 154 111.5 245t306.5 91q128 0 219 -57q250 61 254 57v-207h-39l-100 17q18 -50 18 -109q0 -152 -113.5 -244t-295.5 -92h-27q-29 -29 -29 -61
q0 -50 113 -61l201 -19q123 -11 184 -61t61 -164zM449 -268q99 0 163 44.5t64 106.5q0 76 -137 92l-168 21q-6 -5 -20.5 -15.5t-20.5 -15.5q-80 -67 -80 -123q0 -49 50.5 -79.5t148.5 -30.5z" />
    <glyph glyph-name="Gbreve" unicode="&#x11e;" horiz-adv-x="1222" 
d="M682 1516q151 0 178 172h148q0 -148 -100.5 -246.5t-235.5 -98.5q-146 0 -231 95.5t-85 249.5h148q27 -172 178 -172zM1110 55q-220 -86 -408 -86q-136 0 -248.5 38t-198.5 113t-133.5 197t-47.5 281t52 289t143 216.5t215 133.5t268 47q101 0 206.5 -20.5t159.5 -46.5
l-61 -216q-69 31 -161.5 52.5t-176.5 21.5q-169 0 -269 -103t-100 -325q0 -109 24.5 -193t63 -134t91.5 -82.5t105 -44t109 -11.5q60 0 131 11l-2 430h238v-568z" />
    <glyph glyph-name="gbreve" unicode="&#x11f;" horiz-adv-x="952" 
d="M481 1208q151 0 178 172h148q0 -148 -100.5 -246t-235.5 -98q-146 0 -230.5 95t-84.5 249h147q27 -172 178 -172zM571 627q0 92 -45 134t-116 42q-63 0 -90 -34.5t-27 -123.5q0 -90 46 -133t116 -43q58 0 87 36.5t29 121.5zM911 -49q0 -107 -69.5 -199.5t-193 -147.5
t-271.5 -55q-177 0 -271 65.5t-94 166.5q0 44 23 84.5t47.5 63t60.5 48.5q4 3 33.5 22.5t48.5 31.5q-100 46 -100 141q0 82 111 174q-89 35 -139 104t-50 166q0 154 111.5 245t306.5 91q128 0 219 -57q250 61 254 57v-207h-39l-100 17q18 -50 18 -109q0 -152 -113.5 -244
t-295.5 -92h-27q-29 -29 -29 -61q0 -50 113 -61l201 -19q123 -11 184 -61t61 -164zM449 -268q99 0 163 44.5t64 106.5q0 76 -137 92l-168 21q-6 -5 -20.5 -15.5t-20.5 -15.5q-80 -67 -80 -123q0 -49 50.5 -79.5t148.5 -30.5z" />
    <glyph glyph-name="Gdotaccent" unicode="&#x120;" horiz-adv-x="1222" 
d="M512 1522q0 43 55.5 102t96.5 59t104 -48.5t63 -90.5t-56 -101t-95 -59q-42 0 -105 48.5t-63 89.5zM1110 55q-220 -86 -408 -86q-136 0 -248.5 38t-198.5 113t-133.5 197t-47.5 281t52 289t143 216.5t215 133.5t268 47q101 0 206.5 -20.5t159.5 -46.5l-61 -216
q-69 31 -161.5 52.5t-176.5 21.5q-169 0 -269 -103t-100 -325q0 -109 24.5 -193t63 -134t91.5 -82.5t105 -44t109 -11.5q60 0 131 11l-2 430h238v-568z" />
    <glyph glyph-name="gdotaccent" unicode="&#x121;" horiz-adv-x="952" 
d="M289 1214q0 43 55 102.5t96 59.5t104.5 -48.5t63.5 -90.5t-56 -101t-95 -59q-42 0 -105 48t-63 89zM571 627q0 92 -45 134t-116 42q-63 0 -90 -34.5t-27 -123.5q0 -90 46 -133t116 -43q58 0 87 36.5t29 121.5zM911 -49q0 -107 -69.5 -199.5t-193 -147.5t-271.5 -55
q-177 0 -271 65.5t-94 166.5q0 44 23 84.5t47.5 63t60.5 48.5q4 3 33.5 22.5t48.5 31.5q-100 46 -100 141q0 82 111 174q-89 35 -139 104t-50 166q0 154 111.5 245t306.5 91q128 0 219 -57q250 61 254 57v-207h-39l-100 17q18 -50 18 -109q0 -152 -113.5 -244t-295.5 -92
h-27q-29 -29 -29 -61q0 -50 113 -61l201 -19q123 -11 184 -61t61 -164zM449 -268q99 0 163 44.5t64 106.5q0 76 -137 92l-168 21q-6 -5 -20.5 -15.5t-20.5 -15.5q-80 -67 -80 -123q0 -49 50.5 -79.5t148.5 -30.5z" />
    <glyph glyph-name="Gcommaaccent" unicode="&#x122;" horiz-adv-x="1222" 
d="M1110 55q-220 -86 -408 -86q-136 0 -248.5 38t-198.5 113t-133.5 197t-47.5 281t52 289t143 216.5t215 133.5t268 47q101 0 206.5 -20.5t159.5 -46.5l-61 -216q-69 31 -161.5 52.5t-176.5 21.5q-169 0 -269 -103t-100 -325q0 -109 24.5 -193t63 -134t91.5 -82.5t105 -44
t109 -11.5q60 0 131 11l-2 430h238v-568zM563 -190q0 34 39.5 70t77.5 36q39 0 86 -49.5t47 -85.5q0 -83 -139 -309l-121 47q9 20 22.5 48t22 47t17.5 39.5t13.5 34t4.5 21.5q0 11 -35 45.5t-35 55.5z" />
    <glyph glyph-name="gcommaaccent" unicode="&#x123;" horiz-adv-x="952" 
d="M563 1141q0 -34 -39.5 -70.5t-77.5 -36.5q-39 0 -86 49.5t-47 85.5q0 82 140 310l120 -47q-8 -18 -22 -47.5t-22.5 -48t-17 -39.5t-13 -34.5t-4.5 -21.5q0 -11 34.5 -45t34.5 -55zM571 627q0 92 -45 134t-116 42q-63 0 -90 -34.5t-27 -123.5q0 -90 46 -133t116 -43
q58 0 87 36.5t29 121.5zM911 -49q0 -107 -69.5 -199.5t-193 -147.5t-271.5 -55q-177 0 -271 65.5t-94 166.5q0 44 23 84.5t47.5 63t60.5 48.5q4 3 33.5 22.5t48.5 31.5q-100 46 -100 141q0 82 111 174q-89 35 -139 104t-50 166q0 154 111.5 245t306.5 91q128 0 219 -57
q250 61 254 57v-207h-39l-100 17q18 -50 18 -109q0 -152 -113.5 -244t-295.5 -92h-27q-29 -29 -29 -61q0 -50 113 -61l201 -19q123 -11 184 -61t61 -164zM449 -268q99 0 163 44.5t64 106.5q0 76 -137 92l-168 21q-6 -5 -20.5 -15.5t-20.5 -15.5q-80 -67 -80 -123
q0 -49 50.5 -79.5t148.5 -30.5z" />
    <glyph glyph-name="Hcircumflex" unicode="&#x124;" horiz-adv-x="1335" 
d="M831 1343l-163 146l-164 -146h-189l244 322h217l246 -322h-191zM918 0v537h-500v-537h-271v1253h271v-501h500v501h270v-1253h-270z" />
    <glyph glyph-name="hcircumflex" unicode="&#x125;" horiz-adv-x="1058" 
d="M418 1436l-164 145l-164 -145h-188l243 321h217l246 -321h-190zM532 758q-75 0 -159 -45v-713h-258v1382l258 37v-545q164 78 278 78q132 0 212.5 -71.5t80.5 -206.5v-674h-258v590q0 91 -43 129.5t-111 38.5z" />
    <glyph glyph-name="Hbar" unicode="&#x126;" horiz-adv-x="1335" 
d="M918 752v155h-500v-155h500zM918 0v537h-500v-537h-271v907h-129v39l43 137h86v170h271v-170h500v170h270v-170h129v-39l-43 -137h-86v-907h-270z" />
    <glyph glyph-name="hbar" unicode="&#x127;" horiz-adv-x="1052" 
d="M532 758q-75 0 -159 -45v-713h-258v1108h-135v31l47 110h88v133l258 37v-170h297v-30l-47 -111h-250v-234q164 78 278 78q132 0 212.5 -71.5t80.5 -206.5v-674h-258v590q0 91 -43 129.5t-111 38.5z" />
    <glyph glyph-name="Itilde" unicode="&#x128;" horiz-adv-x="565" 
d="M526 1638l72 -94q-111 -127 -201 -127q-32 0 -120.5 32t-108.5 32q-56 0 -123 -60l-78 92q3 3 22.5 23.5t39 38t45.5 38t54 32.5t52 12q37 0 117.5 -30t103.5 -30q61 0 125 41zM418 1253v-1253h-271v1253h271z" />
    <glyph glyph-name="itilde" unicode="&#x129;" horiz-adv-x="487" 
d="M485 1329l72 -117q-97 -127 -190 -127q-40 0 -133 35t-117 35q-11 0 -22.5 -3.5t-20.5 -7.5t-21 -12.5t-18 -12.5t-17.5 -13.5t-13.5 -11.5l-80 106q16 20 43.5 48.5t77 63t84.5 34.5q46 0 131 -34t111 -34q13 0 24.5 2.5t24.5 9t20 10.5t23 14.5t22 14.5zM373 954v-954
h-258v918z" />
    <glyph glyph-name="Imacron" unicode="&#x12a;" horiz-adv-x="565" 
d="M557 1595v-30l-47 -125h-485v30l47 125h485zM418 1253v-1253h-271v1253h271z" />
    <glyph glyph-name="imacron" unicode="&#x12b;" horiz-adv-x="487" 
d="M492 1284v-31l-48 -145h-444v31l47 145h445zM375 954v-954h-258v918z" />
    <glyph glyph-name="Ibreve" unicode="&#x12c;" horiz-adv-x="565" 
d="M289 1528q68 0 106.5 44t44.5 128h150q0 -149 -92.5 -246.5t-218.5 -97.5q-136 0 -213.5 94.5t-77.5 249.5h149q4 -84 44 -128t108 -44zM418 1253v-1253h-271v1253h271z" />
    <glyph glyph-name="ibreve" unicode="&#x12d;" horiz-adv-x="487" 
d="M250 1214q136 0 164 172h145q0 -146 -93 -242.5t-226 -96.5q-144 0 -221.5 92.5t-77.5 246.5h145q10 -77 51.5 -124.5t112.5 -47.5zM371 954v-954h-258v918z" />
    <glyph glyph-name="Iogonek" unicode="&#x12e;" horiz-adv-x="565" 
d="M270 0h-123v1253h271v-1253h-6q-104 -74 -151.5 -139t-47.5 -113q0 -34 24 -55t58 -21q47 0 92 25l37 -113q-87 -47 -172 -47q-93 0 -148 49t-55 135q0 72 61.5 148t159.5 131z" />
    <glyph glyph-name="iogonek" unicode="&#x12f;" horiz-adv-x="487" 
d="M86 1223q0 43 55.5 102t96.5 59t104.5 -48.5t63.5 -90.5t-56.5 -101t-95.5 -59q-42 0 -105 48.5t-63 89.5zM256 0h-141v918l258 36v-954h24q-104 -74 -151 -139t-47 -113q0 -34 24 -55t58 -21q47 0 92 25l37 -113q-87 -47 -172 -47q-93 0 -148 49t-55 135q0 72 61.5 148
t159.5 131z" />
    <glyph glyph-name="Idotaccent" unicode="&#x130;" horiz-adv-x="565" 
d="M127 1522q0 43 55.5 102t96.5 59t104 -48.5t63 -90.5t-56 -101t-95 -59q-42 0 -105 48.5t-63 89.5zM418 1253v-1253h-271v1253h271z" />
    <glyph glyph-name="dotlessi" unicode="&#x131;" horiz-adv-x="487" 
d="M373 954v-954h-258v918z" />
    <glyph glyph-name="IJ" unicode="&#x132;" horiz-adv-x="1296" 
d="M418 1253v-1253h-271v1253h271zM1149 1253v-882q0 -197 -112.5 -299.5t-293.5 -102.5q-115 0 -196 33l39 209q94 -33 157 -33q62 0 99 39t37 121v915h270z" />
    <glyph glyph-name="ij" unicode="&#x133;" horiz-adv-x="976" 
d="M575 1223q0 43 55.5 102t96.5 59t104.5 -48.5t63.5 -90.5t-56.5 -101t-95.5 -59q-42 0 -105 48.5t-63 89.5zM86 1223q0 43 55.5 102t96.5 59t104.5 -48.5t63.5 -90.5t-56.5 -101t-95.5 -59q-42 0 -105 48.5t-63 89.5zM115 918l258 36v-954h-258v918zM600 -41v959l258 34
v-962q0 -94 -26 -176t-76 -145.5t-131 -100.5t-183 -37l-43 197q102 13 151.5 64t49.5 167z" />
    <glyph glyph-name="Jcircumflex" unicode="&#x134;" horiz-adv-x="761" 
d="M641 1343l-164 146l-164 -146h-188l244 322h217l245 -322h-190zM614 1253v-882q0 -197 -112 -299.5t-293 -102.5q-116 0 -197 33l39 209q93 -33 158 -33q62 0 98.5 39t36.5 121v915h270z" />
    <glyph glyph-name="jcircumflex" unicode="&#x135;" horiz-adv-x="487" 
d="M412 1036l-164 146l-164 -146h-188l243 322h217l246 -322h-190zM115 -41v959l258 34v-962q0 -94 -26 -176t-76 -145.5t-131 -100.5t-183 -37l-43 197q102 13 151.5 64t49.5 167z" />
    <glyph glyph-name="Kcommaaccent" unicode="&#x136;" horiz-adv-x="1222" 
d="M1223 0h-334l-471 649l463 604h305l-490 -579zM418 1253v-1253h-271v1253h271zM483 -190q0 34 39.5 70t77.5 36q39 0 86 -49.5t47 -85.5q0 -83 -139 -309l-121 47q9 20 22.5 48t22 47t17.5 39.5t13.5 34t4.5 21.5q0 11 -35 45.5t-35 55.5z" />
    <glyph glyph-name="kcommaaccent" unicode="&#x137;" horiz-adv-x="1001" 
d="M115 0v1389l258 30v-1419h-258zM995 0h-295l-325 500l-2 2l329 420h275l-336 -408zM387 -190q0 34 39.5 70t77.5 36q39 0 86 -49.5t47 -85.5q0 -83 -139 -309l-121 47q9 20 22.5 48t22 47t17.5 39.5t13.5 34t4.5 21.5q0 11 -35 45.5t-35 55.5z" />
    <glyph glyph-name="Lacute" unicode="&#x139;" horiz-adv-x="948" 
d="M115 1343l264 322l260 -47l-313 -275h-211zM147 0v1253h271v-1048l506 6l-27 -211h-750z" />
    <glyph glyph-name="lacute" unicode="&#x13a;" horiz-adv-x="544" 
d="M76 1450l264 322l260 -48l-313 -274h-211zM506 193l20 -189q-35 -13 -93 -24t-103 -11q-105 0 -166.5 55.5t-61.5 170.5v1189l258 35v-1169q0 -70 72 -70q35 0 74 13z" />
    <glyph glyph-name="Lcommaaccent" unicode="&#x13b;" horiz-adv-x="948" 
d="M147 0v1253h271v-1048l506 6l-27 -211h-750zM389 -190q0 34 39.5 70t77.5 36q39 0 86 -49.5t47 -85.5q0 -83 -139 -309l-121 47q9 20 22.5 48t22 47t17.5 39.5t13.5 34t4.5 21.5q0 11 -35 45.5t-35 55.5z" />
    <glyph glyph-name="lcommaaccent" unicode="&#x13c;" horiz-adv-x="544" 
d="M506 193l20 -189q-35 -13 -93 -24t-103 -11q-105 0 -166.5 55.5t-61.5 170.5v1189l258 35v-1169q0 -70 72 -70q35 0 74 13zM201 -190q0 34 39 70t77 36q39 0 86.5 -49.5t47.5 -85.5q0 -81 -140 -309l-121 47q9 20 22.5 48t22 47t17.5 39.5t13.5 34t4.5 21.5
q0 11 -34.5 45.5t-34.5 55.5z" />
    <glyph glyph-name="Lcaron" unicode="&#x13d;" horiz-adv-x="972" 
d="M147 0v1253h271v-1048l506 6l-27 -211h-750z" />
    <glyph glyph-name="lcaron" unicode="&#x13e;" horiz-adv-x="761" 
d="M520 1335q0 32 47.5 59t89.5 27q44 0 73.5 -63t29.5 -129q0 -116 -174 -359l-103 56q76 143 76 239q0 41 -19.5 96.5t-19.5 73.5zM506 193l20 -189q-35 -13 -93 -24t-103 -11q-105 0 -166.5 55.5t-61.5 170.5v1189l258 35v-1169q0 -70 72 -70q35 0 74 13z" />
    <glyph glyph-name="Ldot" unicode="&#x13f;" horiz-adv-x="974" 
d="M592 686q0 43 55 102.5t96 59.5t104.5 -48.5t63.5 -90.5t-56 -101t-95 -59q-42 0 -105 48t-63 89zM147 0v1253h271v-1048l506 6l-27 -211h-750z" />
    <glyph glyph-name="ldot" unicode="&#x140;" horiz-adv-x="788" 
d="M506 193l20 -189q-35 -13 -93 -24t-103 -11q-105 0 -166.5 55.5t-61.5 170.5v1189l258 35v-1169q0 -70 72 -70q35 0 74 13zM461 557q0 43 55 102.5t96 59.5t104.5 -48.5t63.5 -90.5t-56 -101t-95 -59q-42 0 -105 48t-63 89z" />
    <glyph glyph-name="Lslash" unicode="&#x141;" horiz-adv-x="964" 
d="M176 0v498l-141 -58v189l141 57v567h270v-456l263 108v-188l-263 -109v-403l506 6l-26 -211h-750z" />
    <glyph glyph-name="lslash" unicode="&#x142;" horiz-adv-x="587" 
d="M344 -31q-105 0 -166 55.5t-61 170.5v352l-111 -45v182l111 45v655l258 35v-583l164 67v-182l-164 -68v-403q0 -70 71 -70q35 0 74 13l21 -189q-35 -13 -93.5 -24t-103.5 -11z" />
    <glyph glyph-name="Nacute" unicode="&#x143;" horiz-adv-x="1343" 
d="M481 1343l264 322l261 -47l-314 -275h-211zM950 0l-563 840v-840h-240v1253h269l540 -823v823h240v-1253h-246z" />
    <glyph glyph-name="nacute" unicode="&#x144;" horiz-adv-x="1052" 
d="M338 1036l264 322l260 -47l-313 -275h-211zM532 758q-75 0 -159 -45v-713h-258v915l184 37l49 -92q172 92 303 92q132 0 212.5 -71.5t80.5 -206.5v-674h-258v590q0 91 -43 129.5t-111 38.5z" />
    <glyph glyph-name="Ncommaaccent" unicode="&#x145;" horiz-adv-x="1343" 
d="M950 0l-563 840v-840h-240v1253h269l540 -823v823h240v-1253h-246zM553 -190q0 34 39.5 70t77.5 36q39 0 86 -49.5t47 -85.5q0 -83 -139 -309l-121 47q9 20 22.5 48t22 47t17.5 39.5t13.5 34t4.5 21.5q0 11 -35 45.5t-35 55.5z" />
    <glyph glyph-name="ncommaaccent" unicode="&#x146;" horiz-adv-x="1052" 
d="M532 758q-75 0 -159 -45v-713h-258v915l184 37l49 -92q172 92 303 92q132 0 212.5 -71.5t80.5 -206.5v-674h-258v590q0 91 -43 129.5t-111 38.5zM406 -190q0 34 39 70t77 36q39 0 86 -49.5t47 -85.5q0 -83 -139 -309l-121 47q9 20 22.5 48t22 47t17.5 39.5t13.5 34
t4.5 21.5q0 11 -34.5 45.5t-34.5 55.5z" />
    <glyph glyph-name="Ncaron" unicode="&#x147;" horiz-adv-x="1343" 
d="M797 1354h-217l-246 321h190l164 -145l164 145h188zM950 0l-563 840v-840h-240v1253h269l540 -823v823h240v-1253h-246z" />
    <glyph glyph-name="ncaron" unicode="&#x148;" horiz-adv-x="1052" 
d="M649 1047h-217l-246 321h191l164 -145l164 145h188zM532 758q-75 0 -159 -45v-713h-258v915l184 37l49 -92q172 92 303 92q132 0 212.5 -71.5t80.5 -206.5v-674h-258v590q0 91 -43 129.5t-111 38.5z" />
    <glyph glyph-name="Eng" unicode="&#x14a;" horiz-adv-x="1343" 
d="M811 -375q-116 0 -197 33l39 209q103 -43 178 -43q58 0 86.5 36.5t28.5 114.5v31l-559 834v-840h-240v1253h269l540 -823v823h240v-1253q-9 -176 -113 -275.5t-272 -99.5z" />
    <glyph glyph-name="eng" unicode="&#x14b;" horiz-adv-x="1052" 
d="M528 -469l-43 197q102 13 151.5 64t49.5 167v631q0 91 -43 129.5t-111 38.5q-75 0 -159 -45v-713h-258v915l184 37l49 -92q172 92 303 92q132 0 212.5 -71.5t80.5 -206.5v-684q0 -94 -26 -176t-76 -145.5t-131 -100.5t-183 -37z" />
    <glyph glyph-name="Omacron" unicode="&#x14c;" horiz-adv-x="1382" 
d="M969 1585v-31l-47 -145h-527v31l47 145h527zM1309 651q0 -209 -85 -364.5t-235 -236.5t-346 -81q-257 0 -413 169t-156 464q0 209 85 364.5t235 236.5t345 81q257 0 413.5 -169.5t156.5 -463.5zM1032 594q0 255 -100 373t-275 118q-138 0 -222.5 -104t-84.5 -322
q0 -256 99.5 -373.5t275.5 -117.5q138 0 222.5 103t84.5 323z" />
    <glyph glyph-name="omacron" unicode="&#x14d;" horiz-adv-x="1050" 
d="M821 1278v-31l-47 -145h-526v31l47 145h526zM993 479q0 -236 -136.5 -373t-362.5 -137q-199 0 -318 121t-119 352q0 236 137 373t363 137q206 0 321 -120t115 -353zM731 436q0 96 -17 163t-49 103.5t-71 52t-90 15.5q-91 0 -138 -64.5t-47 -220.5q0 -96 17 -163t49 -103
t71.5 -51.5t90.5 -15.5q91 0 137.5 64t46.5 220z" />
    <glyph glyph-name="Obreve" unicode="&#x14e;" horiz-adv-x="1382" 
d="M694 1516q151 0 178 172h148q0 -148 -100.5 -246.5t-235.5 -98.5q-146 0 -230.5 95t-84.5 250h147q27 -172 178 -172zM1309 651q0 -209 -85 -364.5t-235 -236.5t-346 -81q-257 0 -413 169t-156 464q0 209 85 364.5t235 236.5t345 81q257 0 413.5 -169.5t156.5 -463.5z
M1032 594q0 255 -100 373t-275 118q-138 0 -222.5 -104t-84.5 -322q0 -256 99.5 -373.5t275.5 -117.5q138 0 222.5 103t84.5 323z" />
    <glyph glyph-name="obreve" unicode="&#x14f;" horiz-adv-x="1050" 
d="M553 1208q151 0 178 172h148q0 -148 -100.5 -246t-235.5 -98q-146 0 -231 95t-85 249h148q27 -172 178 -172zM993 479q0 -236 -136.5 -373t-362.5 -137q-199 0 -318 121t-119 352q0 236 137 373t363 137q206 0 321 -120t115 -353zM731 436q0 96 -17 163t-49 103.5t-71 52
t-90 15.5q-91 0 -138 -64.5t-47 -220.5q0 -96 17 -163t49 -103t71.5 -51.5t90.5 -15.5q91 0 137.5 64t46.5 220z" />
    <glyph glyph-name="Ohungarumlaut" unicode="&#x150;" horiz-adv-x="1382" 
d="M668 1343l243 322l260 -47l-292 -275h-211zM350 1343l244 322l260 -47l-293 -275h-211zM1309 651q0 -209 -85 -364.5t-235 -236.5t-346 -81q-257 0 -413 169t-156 464q0 209 85 364.5t235 236.5t345 81q257 0 413.5 -169.5t156.5 -463.5zM1032 594q0 255 -100 373
t-275 118q-138 0 -222.5 -104t-84.5 -322q0 -256 99.5 -373.5t275.5 -117.5q138 0 222.5 103t84.5 323z" />
    <glyph glyph-name="ohungarumlaut" unicode="&#x151;" horiz-adv-x="1050" 
d="M514 1036l244 322l260 -47l-293 -275h-211zM197 1036l243 322l260 -47l-292 -275h-211zM993 479q0 -236 -136.5 -373t-362.5 -137q-199 0 -318 121t-119 352q0 236 137 373t363 137q206 0 321 -120t115 -353zM731 436q0 96 -17 163t-49 103.5t-71 52t-90 15.5
q-91 0 -138 -64.5t-47 -220.5q0 -96 17 -163t49 -103t71.5 -51.5t90.5 -15.5q91 0 137.5 64t46.5 220z" />
    <glyph glyph-name="OE" unicode="&#x152;" horiz-adv-x="1748" 
d="M725 168q95 0 162 47v797q-85 73 -230 73q-138 0 -222.5 -104t-84.5 -322q0 -491 375 -491zM887 0v6q-110 -37 -246 -37q-256 0 -411.5 169t-155.5 464q0 314 183.5 498t475.5 184q103 0 201 -31h721l-25 -204l-473 6v-318h440l-20 -192l-420 6v-346l531 6l-25 -211h-776
z" />
    <glyph glyph-name="oe" unicode="&#x153;" horiz-adv-x="1622" 
d="M1157 788q-72 0 -110 -44.5t-48 -155.5h320q0 200 -162 200zM731 436q0 96 -17 163t-49 103.5t-71 52t-90 15.5q-91 0 -138 -64.5t-47 -220.5q0 -96 17 -163t49 -103t71.5 -51.5t90.5 -15.5q91 0 137.5 64t46.5 220zM1561 51q-171 -82 -373 -82q-215 0 -336 133
q-133 -133 -358 -133q-199 0 -318 121t-119 352q0 236 137 373t363 137q210 0 324 -123q120 123 317 123q99 0 170.5 -31t111 -86.5t57 -121t17.5 -146.5q0 -73 -8 -131h-553q4 -76 27.5 -130.5t60 -84t77 -42.5t87.5 -13q142 0 275 53z" />
    <glyph glyph-name="Racute" unicode="&#x154;" horiz-adv-x="1138" 
d="M332 1343l264 322l260 -47l-313 -275h-211zM549 670q85 0 143 46t58 134q0 103 -65 163t-196 60q-48 0 -71 -2v-395q59 -6 131 -6zM498 494q-49 0 -80 2v-496h-271v1253h437q207 0 323.5 -90.5t116.5 -253.5q0 -111 -58 -197t-157 -141l311 -571h-297l-245 498
q-54 -4 -80 -4z" />
    <glyph glyph-name="racute" unicode="&#x155;" horiz-adv-x="688" 
d="M207 1036l264 322l260 -47l-313 -275h-211zM563 725q-100 0 -190 -41v-684h-258v915l184 37l59 -110q144 110 260 110q34 0 64 -6l-31 -227q-24 6 -88 6z" />
    <glyph glyph-name="Rcommaaccent" unicode="&#x156;" horiz-adv-x="1138" 
d="M549 670q85 0 143 46t58 134q0 103 -65 163t-196 60q-48 0 -71 -2v-395q59 -6 131 -6zM498 494q-49 0 -80 2v-496h-271v1253h437q207 0 323.5 -90.5t116.5 -253.5q0 -111 -58 -197t-157 -141l311 -571h-297l-245 498q-54 -4 -80 -4zM455 -190q0 34 39 70t77 36
q39 0 86.5 -49.5t47.5 -85.5q0 -81 -140 -309l-121 47q9 20 22.5 48t22 47t17.5 39.5t13.5 34t4.5 21.5q0 11 -34.5 45.5t-34.5 55.5z" />
    <glyph glyph-name="rcommaaccent" unicode="&#x157;" horiz-adv-x="688" 
d="M563 725q-100 0 -190 -41v-684h-258v915l184 37l59 -110q144 110 260 110q34 0 64 -6l-31 -227q-24 6 -88 6zM131 -190q0 34 39.5 70t77.5 36q39 0 86 -49.5t47 -85.5q0 -83 -139 -309l-121 47q9 20 22.5 48t22 47t17.5 39.5t13.5 34t4.5 21.5q0 11 -35 45.5t-35 55.5z
" />
    <glyph glyph-name="Rcaron" unicode="&#x158;" horiz-adv-x="1138" 
d="M666 1354h-217l-246 321h190l164 -145l164 145h188zM549 670q85 0 143 46t58 134q0 103 -65 163t-196 60q-48 0 -71 -2v-395q59 -6 131 -6zM498 494q-49 0 -80 2v-496h-271v1253h437q207 0 323.5 -90.5t116.5 -253.5q0 -111 -58 -197t-157 -141l311 -571h-297l-245 498
q-54 -4 -80 -4z" />
    <glyph glyph-name="rcaron" unicode="&#x159;" horiz-adv-x="688" 
d="M510 1047h-217l-246 321h191l163 -145l164 145h189zM563 725q-100 0 -190 -41v-684h-258v915l184 37l59 -110q144 110 260 110q34 0 64 -6l-31 -227q-24 6 -88 6z" />
    <glyph glyph-name="Sacute" unicode="&#x15a;" horiz-adv-x="999" 
d="M324 1343l264 322l260 -47l-313 -275h-211zM444 524q-188 70 -268 159.5t-80 221.5q0 169 124.5 274t340.5 105q203 0 340 -53l-57 -227q-183 73 -342 73q-71 0 -110.5 -35.5t-39.5 -95.5q0 -64 44 -105t173 -89q197 -72 277 -154.5t80 -214.5q0 -190 -135.5 -302
t-360.5 -112q-93 0 -192.5 17.5t-161.5 42.5l45 241q212 -90 366 -90q78 0 125 39t47 105q0 67 -43 109.5t-172 90.5z" />
    <glyph glyph-name="sacute" unicode="&#x15b;" horiz-adv-x="833" 
d="M254 1036l264 322l260 -47l-313 -275h-211zM389 -31q-181 0 -336 58l47 198q186 -69 324 -69q54 0 82.5 22.5t28.5 59.5q0 81 -111 120l-143 50q-102 36 -153.5 95t-51.5 156q0 127 109.5 210t260.5 83q183 0 314 -43l-43 -196q-168 59 -287 59q-59 0 -88 -22t-29 -58
q0 -37 24.5 -62.5t90.5 -47.5l137 -45q215 -70 215 -261q0 -77 -37.5 -138t-97 -96.5t-125.5 -54t-131 -18.5z" />
    <glyph glyph-name="Scircumflex" unicode="&#x15c;" horiz-adv-x="999" 
d="M694 1343l-164 146l-163 -146h-189l244 322h217l246 -322h-191zM444 524q-188 70 -268 159.5t-80 221.5q0 169 124.5 274t340.5 105q203 0 340 -53l-57 -227q-183 73 -342 73q-71 0 -110.5 -35.5t-39.5 -95.5q0 -64 44 -105t173 -89q197 -72 277 -154.5t80 -214.5
q0 -190 -135.5 -302t-360.5 -112q-93 0 -192.5 17.5t-161.5 42.5l45 241q212 -90 366 -90q78 0 125 39t47 105q0 67 -43 109.5t-172 90.5z" />
    <glyph glyph-name="scircumflex" unicode="&#x15d;" horiz-adv-x="833" 
d="M602 1036l-164 146l-164 -146h-188l244 322h217l246 -322h-191zM389 -31q-181 0 -336 58l47 198q186 -69 324 -69q54 0 82.5 22.5t28.5 59.5q0 81 -111 120l-143 50q-102 36 -153.5 95t-51.5 156q0 127 109.5 210t260.5 83q183 0 314 -43l-43 -196q-168 59 -287 59
q-59 0 -88 -22t-29 -58q0 -37 24.5 -62.5t90.5 -47.5l137 -45q215 -70 215 -261q0 -77 -37.5 -138t-97 -96.5t-125.5 -54t-131 -18.5z" />
    <glyph glyph-name="Scedilla" unicode="&#x15e;" horiz-adv-x="999" 
d="M313 -481l-28 108q99 10 149.5 27.5t50.5 54.5q0 48 -151 86l-6 10l80 164q-201 7 -332 60l45 241q212 -90 366 -90q78 0 125 39t47 105q0 67 -43 109.5t-172 90.5q-188 70 -268 159.5t-80 221.5q0 169 124.5 274t340.5 105q203 0 340 -53l-57 -227q-183 73 -342 73
q-71 0 -110.5 -35.5t-39.5 -95.5q0 -64 44 -105t173 -89q197 -72 277 -154.5t80 -214.5q0 -169 -108 -277.5t-294 -130.5l-37 -81q87 -34 128.5 -67.5t41.5 -88.5q0 -36 -19.5 -71t-59 -66.5t-108 -53.5t-157.5 -28z" />
    <glyph glyph-name="scedilla" unicode="&#x15f;" horiz-adv-x="833" 
d="M248 -481l-29 108q99 10 150 27.5t51 54.5q0 48 -152 86l-6 10l80 164q-161 7 -289 58l47 198q186 -69 324 -69q54 0 82.5 22.5t28.5 59.5q0 81 -111 120l-143 50q-102 36 -153.5 95t-51.5 156q0 127 109.5 210t260.5 83q183 0 314 -43l-43 -196q-168 59 -287 59
q-59 0 -88 -22t-29 -58q0 -37 24.5 -62.5t90.5 -47.5l137 -45q215 -70 215 -261q0 -67 -28.5 -122t-76 -91t-102.5 -58.5t-116 -31.5l-35 -79q87 -34 128.5 -67.5t41.5 -88.5q0 -36 -19.5 -71t-59 -66.5t-108 -53.5t-157.5 -28z" />
    <glyph glyph-name="Scaron" unicode="&#x160;" horiz-adv-x="999" 
d="M641 1354h-217l-246 321h191l163 -145l164 145h189zM444 524q-188 70 -268 159.5t-80 221.5q0 169 124.5 274t340.5 105q203 0 340 -53l-57 -227q-183 73 -342 73q-71 0 -110.5 -35.5t-39.5 -95.5q0 -64 44 -105t173 -89q197 -72 277 -154.5t80 -214.5
q0 -190 -135.5 -302t-360.5 -112q-93 0 -192.5 17.5t-161.5 42.5l45 241q212 -90 366 -90q78 0 125 39t47 105q0 67 -43 109.5t-172 90.5z" />
    <glyph glyph-name="scaron" unicode="&#x161;" horiz-adv-x="833" 
d="M557 1047h-217l-246 321h191l164 -145l163 145h189zM389 -31q-181 0 -336 58l47 198q186 -69 324 -69q54 0 82.5 22.5t28.5 59.5q0 81 -111 120l-143 50q-102 36 -153.5 95t-51.5 156q0 127 109.5 210t260.5 83q183 0 314 -43l-43 -196q-168 59 -287 59q-59 0 -88 -22
t-29 -58q0 -37 24.5 -62.5t90.5 -47.5l137 -45q215 -70 215 -261q0 -77 -37.5 -138t-97 -96.5t-125.5 -54t-131 -18.5z" />
    <glyph glyph-name="Tcommaaccent" unicode="&#x162;" horiz-adv-x="1044" 
d="M1016 1044l-354 7v-1051h-271v1051l-391 -7l31 209h1013zM383 -190q0 34 39.5 70t77.5 36q39 0 86 -49.5t47 -85.5q0 -83 -139 -309l-121 47q9 20 22.5 48t22 47t17.5 39.5t13.5 34t4.5 21.5q0 11 -35 45.5t-35 55.5z" />
    <glyph glyph-name="tcommaaccent" unicode="&#x163;" horiz-adv-x="727" 
d="M696 31q-49 -23 -123.5 -42.5t-146.5 -19.5q-76 0 -138.5 26.5t-104 89t-40.5 153.5l7 507h-138v156l140 21l2 163l258 37l-2 -200h286l-20 -177h-268l-7 -411q-3 -158 129 -158q66 0 148 25zM272 -190q0 34 39.5 70t77.5 36q39 0 86 -49.5t47 -85.5q0 -83 -139 -309
l-121 47q9 20 22.5 48t22 47t17.5 39.5t13.5 34t4.5 21.5q0 11 -35 45.5t-35 55.5z" />
    <glyph glyph-name="Tcaron" unicode="&#x164;" horiz-adv-x="1044" 
d="M631 1354h-217l-246 321h190l164 -145l164 145h188zM1016 1044l-354 7v-1051h-271v1051l-391 -7l31 209h1013z" />
    <glyph glyph-name="tcaron" unicode="&#x165;" horiz-adv-x="727" 
d="M551 1438q0 32 47.5 59t89.5 27q44 0 73.5 -63.5t29.5 -129.5q0 -113 -175 -358l-102 55q76 143 76 240q0 41 -19.5 96.5t-19.5 73.5zM696 31q-49 -23 -123.5 -42.5t-146.5 -19.5q-76 0 -138.5 26.5t-104 89t-40.5 153.5l7 507h-138v156l140 21l2 163l258 37l-2 -200h286
l-20 -177h-268l-7 -411q-3 -158 129 -158q66 0 148 25z" />
    <glyph glyph-name="Tbar" unicode="&#x166;" horiz-adv-x="1044" 
d="M911 555h-249v-555h-271v555h-321v31l43 149h278v316l-391 -7l31 209h1013l-28 -209l-354 7v-316h292v-30z" />
    <glyph glyph-name="tbar" unicode="&#x167;" horiz-adv-x="727" 
d="M696 31q-49 -23 -123.5 -42.5t-146.5 -19.5q-76 0 -138.5 26.5t-104 89t-40.5 153.5l2 190h-129v31l47 110h84l3 176h-138v156l140 21l2 163l258 37l-2 -200h286l-20 -177h-268l-5 -176h263v-30l-48 -111h-215l-2 -94q-3 -158 129 -158q66 0 148 25z" />
    <glyph glyph-name="Utilde" unicode="&#x168;" horiz-adv-x="1302" 
d="M926 1634l90 -94q-30 -60 -102 -121t-132 -61q-40 0 -139 33.5t-123 33.5q-34 0 -75.5 -30t-57.5 -49l-82 104q18 22 48.5 54.5t85 72t93.5 39.5q46 0 136 -33t116 -33q62 0 142 84zM135 420v833h271v-768q0 -286 274 -286q102 0 164.5 57t62.5 166v831h260v-790
q0 -234 -142.5 -365t-393.5 -129q-242 2 -369 117.5t-127 333.5z" />
    <glyph glyph-name="utilde" unicode="&#x169;" horiz-adv-x="1052" 
d="M811 1327l90 -94q-30 -60 -101.5 -121t-131.5 -61q-40 0 -139 33.5t-123 33.5q-34 0 -76 -30t-58 -50l-82 105q17 22 48 54.5t86 72t94 39.5q46 0 136 -33t116 -33q61 0 141 84zM762 -31l-57 90q-176 -90 -304 -90q-132 0 -212 72t-80 207v667l258 37v-620
q0 -168 153 -168q76 0 160 45v706l258 37v-946z" />
    <glyph glyph-name="Umacron" unicode="&#x16a;" horiz-adv-x="1302" 
d="M946 1585v-31l-47 -145h-526v31l47 145h526zM135 420v833h271v-768q0 -286 274 -286q102 0 164.5 57t62.5 166v831h260v-790q0 -234 -142.5 -365t-393.5 -129q-242 2 -369 117.5t-127 333.5z" />
    <glyph glyph-name="umacron" unicode="&#x16b;" horiz-adv-x="1052" 
d="M834 1278v-31l-48 -145h-526v31l47 145h527zM762 -31l-57 90q-176 -90 -304 -90q-132 0 -212 72t-80 207v667l258 37v-620q0 -168 153 -168q76 0 160 45v706l258 37v-946z" />
    <glyph glyph-name="Ubreve" unicode="&#x16c;" horiz-adv-x="1302" 
d="M657 1516q152 0 179 172h147q0 -148 -100.5 -246.5t-235.5 -98.5q-146 0 -230.5 95t-84.5 250h147q27 -172 178 -172zM135 420v833h271v-768q0 -286 274 -286q102 0 164.5 57t62.5 166v831h260v-790q0 -234 -142.5 -365t-393.5 -129q-242 2 -369 117.5t-127 333.5z" />
    <glyph glyph-name="ubreve" unicode="&#x16d;" horiz-adv-x="1052" 
d="M567 1208q151 0 178 172h148q0 -148 -100.5 -246t-235.5 -98q-146 0 -230.5 95t-84.5 249h147q27 -172 178 -172zM762 -31l-57 90q-176 -90 -304 -90q-132 0 -212 72t-80 207v667l258 37v-620q0 -168 153 -168q76 0 160 45v706l258 37v-946z" />
    <glyph glyph-name="Uring" unicode="&#x16e;" horiz-adv-x="1302" 
d="M866 1532q0 -81 -62.5 -140t-146.5 -59q-88 0 -147 54t-59 145q0 83 62 142t146 59q89 0 148 -53t59 -148zM569 1532q0 -38 25.5 -63t62.5 -25t64 25t27 63q0 40 -26.5 66t-64.5 26q-37 0 -62.5 -25.5t-25.5 -66.5zM135 420v833h271v-768q0 -286 274 -286q102 0 164.5 57
t62.5 166v831h260v-790q0 -234 -142.5 -365t-393.5 -129q-242 2 -369 117.5t-127 333.5z" />
    <glyph glyph-name="uring" unicode="&#x16f;" horiz-adv-x="1052" 
d="M750 1225q0 -81 -62.5 -140t-146.5 -59q-88 0 -147.5 54t-59.5 145q0 82 62.5 141t146.5 59q89 0 148 -53t59 -147zM453 1225q0 -38 25.5 -63t62.5 -25t63.5 25t26.5 63q0 40 -26 66t-64 26q-37 0 -62.5 -25.5t-25.5 -66.5zM762 -31l-57 90q-176 -90 -304 -90
q-132 0 -212 72t-80 207v667l258 37v-620q0 -168 153 -168q76 0 160 45v706l258 37v-946z" />
    <glyph glyph-name="Uhungarumlaut" unicode="&#x170;" horiz-adv-x="1302" 
d="M586 1343l243 322l261 -47l-293 -275h-211zM268 1343l244 322l260 -47l-293 -275h-211zM135 420v833h271v-768q0 -286 274 -286q102 0 164.5 57t62.5 166v831h260v-790q0 -234 -142.5 -365t-393.5 -129q-242 2 -369 117.5t-127 333.5z" />
    <glyph glyph-name="uhungarumlaut" unicode="&#x171;" horiz-adv-x="1052" 
d="M518 1036l244 322l260 -47l-293 -275h-211zM201 1036l243 322l261 -47l-293 -275h-211zM762 -31l-57 90q-176 -90 -304 -90q-132 0 -212 72t-80 207v667l258 37v-620q0 -168 153 -168q76 0 160 45v706l258 37v-946z" />
    <glyph glyph-name="Uogonek" unicode="&#x172;" horiz-adv-x="1302" 
d="M778 -422q-93 0 -148 49t-55 135q0 106 121 209q-20 -2 -65 -2q-242 2 -369 117.5t-127 333.5v833h271v-768q0 -286 274 -286q102 0 164.5 57t62.5 166v831h260v-790q0 -155 -63.5 -266t-183.5 -170q-95 -70 -138 -131t-43 -107q0 -34 24 -55t58 -21q47 0 92 25l37 -113
q-87 -47 -172 -47z" />
    <glyph glyph-name="uogonek" unicode="&#x173;" horiz-adv-x="1052" 
d="M780 -463q-93 0 -147.5 49t-54.5 135q0 64 49 131t131 123l-53 84q-176 -90 -304 -90q-132 0 -212 72t-80 207v667l258 37v-620q0 -168 153 -168q76 0 160 45v706l258 37v-946l-29 -6h31q-104 -74 -151.5 -139t-47.5 -113q0 -34 24 -55t58 -21q47 0 92 25l37 -113
q-87 -47 -172 -47z" />
    <glyph glyph-name="Wcircumflex" unicode="&#x174;" horiz-adv-x="1816" 
d="M1085 1343l-163 146l-164 -146h-189l244 322h217l246 -322h-191zM1178 0l-273 846l-278 -846h-305l-281 1253h272l199 -921l289 921h246l290 -919l187 919h250l-287 -1253h-309z" />
    <glyph glyph-name="wcircumflex" unicode="&#x175;" horiz-adv-x="1474" 
d="M899 1036l-164 146l-164 -146h-188l244 322h217l246 -322h-191zM924 0l-189 580l-205 -580h-272l-233 905l260 37l149 -682l193 645l229 37l213 -682l135 662h246l-254 -922h-272z" />
    <glyph glyph-name="Ycircumflex" unicode="&#x176;" horiz-adv-x="1118" 
d="M743 1343l-163 146l-164 -146h-189l244 322h217l246 -322h-191zM696 465v-465h-270v465l-442 788h299l295 -532l286 532h264z" />
    <glyph glyph-name="ycircumflex" unicode="&#x177;" horiz-adv-x="958" 
d="M655 1036l-163 146l-164 -146h-189l244 322h217l246 -322h-191zM135 -481q-62 0 -108 12l-15 205q150 -18 253 41t163 223h-115l-307 905l268 37l224 -723q94 311 198 703h256q-259 -854 -311 -990q-73 -206 -204.5 -309.5t-301.5 -103.5z" />
    <glyph glyph-name="Ydieresis" unicode="&#x178;" horiz-adv-x="1118" 
d="M633 1507q0 39 49.5 92.5t85.5 53.5q38 0 95 -44t57 -83q0 -38 -51 -91t-85 -53q-39 0 -95 43.5t-56 81.5zM246 1507q0 39 49.5 92.5t85.5 53.5q38 0 94.5 -44t56.5 -83q0 -38 -50.5 -91t-84.5 -53q-39 0 -95 43.5t-56 81.5zM696 465v-465h-270v465l-442 788h299
l295 -532l286 532h264z" />
    <glyph glyph-name="Zacute" unicode="&#x179;" horiz-adv-x="1073" 
d="M342 1343l264 322l260 -47l-313 -275h-211zM991 0h-925v176l616 873l-610 -13l39 217h880v-186l-610 -866l649 12z" />
    <glyph glyph-name="zacute" unicode="&#x17a;" horiz-adv-x="870" 
d="M250 1036l264 322l260 -47l-313 -275h-211zM807 0h-748v170l428 561l-430 -2l19 193h717v-181l-433 -557l465 2z" />
    <glyph glyph-name="Zdotaccent" unicode="&#x17b;" horiz-adv-x="1073" 
d="M397 1522q0 43 55.5 102t96.5 59t104.5 -48.5t63.5 -90.5t-56.5 -101t-95.5 -59q-42 0 -105 48.5t-63 89.5zM991 0h-925v176l616 873l-610 -13l39 217h880v-186l-610 -866l649 12z" />
    <glyph glyph-name="zdotaccent" unicode="&#x17c;" horiz-adv-x="870" 
d="M289 1214q0 43 55 102.5t96 59.5t104.5 -48.5t63.5 -90.5t-56 -101t-95 -59q-42 0 -105 48t-63 89zM807 0h-748v170l428 561l-430 -2l19 193h717v-181l-433 -557l465 2z" />
    <glyph glyph-name="Zcaron" unicode="&#x17d;" horiz-adv-x="1073" 
d="M655 1354h-217l-245 321h190l164 -145l164 145h188zM991 0h-925v176l616 873l-610 -13l39 217h880v-186l-610 -866l649 12z" />
    <glyph glyph-name="zcaron" unicode="&#x17e;" horiz-adv-x="870" 
d="M561 1047h-217l-246 321h191l164 -145l163 145h189zM807 0h-748v170l428 561l-430 -2l19 193h717v-181l-433 -557l465 2z" />
    <glyph glyph-name="Acaron" unicode="&#x1cd;" horiz-adv-x="1189" 
d="M711 1354h-217l-246 321h190l164 -145l164 145h188zM745 514l-161 504l-162 -504h323zM909 0l-104 326h-443l-104 -326h-256l432 1253h338l416 -1253h-279z" />
    <glyph glyph-name="acaron" unicode="&#x1ce;" horiz-adv-x="933" 
d="M592 1047h-217l-246 321h190l164 -145l164 145h189zM649 -31l-51 99q-154 -99 -260 -99q-122 0 -201.5 72.5t-79.5 191.5q0 299 516 318v39q0 84 -38 122t-115 38q-111 0 -283 -62l-49 178q237 86 410 86q159 0 243 -77.5t84 -233.5v-635zM420 150q65 0 153 45v188
q-47 8 -114 8q-172 0 -172 -119q0 -55 37 -88.5t96 -33.5z" />
    <glyph glyph-name="AEacute" unicode="&#x1fc;" horiz-adv-x="1630" 
d="M799 1343l264 322l260 -47l-313 -275h-211zM745 1024l-253 -510h276v510h-23zM768 0v326h-369l-161 -326h-269l664 1253h903l-25 -204l-473 6v-318h441l-21 -192l-420 6v-346l531 6l-25 -211h-776z" />
    <glyph glyph-name="aeacute" unicode="&#x1fd;" horiz-adv-x="1452" 
d="M590 1036l264 322l260 -47l-313 -275h-211zM987 788q-72 0 -110 -44.5t-48 -155.5h320q0 200 -162 200zM1391 51q-171 -82 -373 -82q-210 0 -326 131q-195 -131 -348 -131q-126 0 -206.5 72t-80.5 192q0 299 518 318v39q0 85 -38 122.5t-117 37.5q-111 0 -283 -62
l-49 178q237 86 410 86q175 0 254 -94q114 94 276 94q99 0 170.5 -31t111 -86.5t57 -121t17.5 -146.5q0 -73 -8 -131h-553q15 -270 252 -270q142 0 275 53zM420 150q36 0 95 17.5t108 43.5q-32 87 -37 172q-70 8 -127 8q-172 0 -172 -119q0 -55 37 -88.5t96 -33.5z" />
    <glyph glyph-name="Oslashacute" unicode="&#x1fe;" horiz-adv-x="1382" 
d="M469 1343l264 322l260 -47l-313 -275h-211zM350 659q0 -233 88 -358l359 762q-59 22 -140 22q-138 0 -222.5 -104t-84.5 -322zM725 168q138 0 222.5 103t84.5 323q0 242 -98 371l-361 -770q68 -27 152 -27zM643 -31q-89 0 -166 21l-76 -160h-184l107 227
q-119 78 -184.5 217.5t-65.5 327.5q0 209 85 364.5t235 236.5t345 81q81 0 154 -18l72 153h184l-102 -217q125 -76 193.5 -217.5t68.5 -333.5q0 -209 -85 -364.5t-235 -236.5t-346 -81z" />
    <glyph glyph-name="oslashacute" unicode="&#x1ff;" horiz-adv-x="1050" 
d="M344 1036l264 322l260 -47l-313 -275h-211zM319 485q0 -141 39 -221l242 488q-44 18 -96 18q-91 0 -138 -64.5t-47 -220.5zM547 152q91 0 137.5 64t46.5 220q0 140 -35 215l-241 -483q39 -16 92 -16zM494 -31q-70 0 -129 15l-66 -129h-145l90 180q-187 118 -187 407
q0 236 137 373t363 137q69 0 135 -16l68 135h145l-92 -184q180 -116 180 -408q0 -236 -136.5 -373t-362.5 -137z" />
    <glyph glyph-name="Scommaaccent" unicode="&#x218;" horiz-adv-x="999" 
d="M444 524q-188 70 -268 159.5t-80 221.5q0 169 124.5 274t340.5 105q203 0 340 -53l-57 -227q-183 73 -342 73q-71 0 -110.5 -35.5t-39.5 -95.5q0 -64 44 -105t173 -89q197 -72 277 -154.5t80 -214.5q0 -190 -135.5 -302t-360.5 -112q-93 0 -192.5 17.5t-161.5 42.5
l45 241q212 -90 366 -90q78 0 125 39t47 105q0 67 -43 109.5t-172 90.5zM387 -190q0 34 39.5 70t77.5 36q39 0 86 -49.5t47 -85.5q0 -83 -139 -309l-121 47q9 20 22.5 48t22 47t17.5 39.5t13.5 34t4.5 21.5q0 11 -35 45.5t-35 55.5z" />
    <glyph glyph-name="scommaaccent" unicode="&#x219;" horiz-adv-x="833" 
d="M389 -31q-181 0 -336 58l47 198q186 -69 324 -69q54 0 82.5 22.5t28.5 59.5q0 81 -111 120l-143 50q-102 36 -153.5 95t-51.5 156q0 127 109.5 210t260.5 83q183 0 314 -43l-43 -196q-168 59 -287 59q-59 0 -88 -22t-29 -58q0 -37 24.5 -62.5t90.5 -47.5l137 -45
q215 -70 215 -261q0 -77 -37.5 -138t-97 -96.5t-125.5 -54t-131 -18.5zM301 -190q0 34 39.5 70t77.5 36q39 0 86 -49.5t47 -85.5q0 -83 -139 -309l-121 47q9 20 22.5 48t22 47t17.5 39.5t13.5 34t4.5 21.5q0 11 -35 45.5t-35 55.5z" />
    <glyph glyph-name="uni021A" unicode="&#x21a;" horiz-adv-x="1044" 
d="M473 0h-82v1051l-391 -7l31 209h1013l-28 -209l-354 7v-1051h-76l-47 -106q87 -34 128.5 -67.5t41.5 -88.5q0 -36 -19.5 -71t-59 -66.5t-108 -53.5t-157.5 -28l-29 108q99 10 150 27.5t51 54.5q0 48 -152 86l-6 10z" />
    <glyph glyph-name="uni021B" unicode="&#x21b;" horiz-adv-x="727" 
d="M584 -262q0 -36 -19.5 -71t-59 -66.5t-108 -53.5t-157.5 -28l-29 108q99 10 150 27.5t51 54.5q0 48 -152 86l-6 10l84 175q-89 22 -142.5 86t-52.5 172l7 507h-138v156l140 21l2 163l258 37l-2 -200h286l-20 -177h-268l-7 -411q-3 -158 129 -158q66 0 148 25l18 -170
q-121 -57 -250 -62l-32 -75q87 -34 128.5 -67.5t41.5 -88.5z" />
    <glyph glyph-name="circumflex" unicode="&#x2c6;" horiz-adv-x="954" 
d="M639 1036l-164 146l-164 -146h-188l244 322h217l245 -322h-190z" />
    <glyph glyph-name="caron" unicode="&#x2c7;" horiz-adv-x="954" 
d="M586 1047h-217l-246 321h190l164 -145l164 145h188z" />
    <glyph glyph-name="breve" unicode="&#x2d8;" horiz-adv-x="1011" 
d="M506 1208q151 0 178 172h147q0 -148 -100 -246t-235 -98q-146 0 -231 95t-85 249h148q27 -172 178 -172z" />
    <glyph glyph-name="dotaccent" unicode="&#x2d9;" horiz-adv-x="606" 
d="M143 1214q0 43 55.5 102.5t96.5 59.5t104.5 -48.5t63.5 -90.5t-56.5 -101t-95.5 -59q-42 0 -105 48t-63 89z" />
    <glyph glyph-name="ring" unicode="&#x2da;" horiz-adv-x="743" 
d="M580 1225q0 -81 -62.5 -140t-146.5 -59q-88 0 -147.5 54t-59.5 145q0 82 62.5 141t146.5 59q89 0 148 -53t59 -147zM283 1225q0 -38 25.5 -63t62.5 -25t63.5 25t26.5 63q0 40 -26 66t-64 26q-37 0 -62.5 -25.5t-25.5 -66.5z" />
    <glyph glyph-name="ogonek" unicode="&#x2db;" horiz-adv-x="712" 
d="M168 -279q0 72 61.5 148t159.5 131h141q-104 -74 -151 -139t-47 -113q0 -34 24 -55t58 -21q47 0 92 25l37 -113q-87 -47 -172 -47q-93 0 -148 49t-55 135z" />
    <glyph glyph-name="tilde" unicode="&#x2dc;" horiz-adv-x="999" 
d="M764 1327l90 -94q-30 -60 -101.5 -121t-131.5 -61q-40 0 -139.5 33.5t-123.5 33.5q-34 0 -75 -30t-58 -50l-82 105q17 22 48 54.5t86 72t94 39.5q46 0 136 -33t116 -33q61 0 141 84z" />
    <glyph glyph-name="hungarumlaut" unicode="&#x2dd;" horiz-adv-x="995" 
d="M403 1036l244 322l260 -47l-293 -275h-211zM86 1036l244 322l260 -47l-293 -275h-211z" />
    <glyph glyph-name="commaaccent" unicode="&#x326;" horiz-adv-x="516" 
d="M137 -190q0 34 39.5 70t77.5 36q39 0 86 -49.5t47 -85.5q0 -83 -139 -309l-121 47q9 20 22.5 48t22 47t17.5 39.5t13.5 34t4.5 21.5q0 11 -35 45.5t-35 55.5z" />
    <glyph glyph-name="Wgrave" unicode="&#x1e80;" horiz-adv-x="1816" 
d="M1079 1343h-211l-313 275l260 47zM1178 0l-273 846l-278 -846h-305l-281 1253h272l199 -921l289 921h246l290 -919l187 919h250l-287 -1253h-309z" />
    <glyph glyph-name="wgrave" unicode="&#x1e81;" horiz-adv-x="1474" 
d="M950 1036h-211l-313 275l260 47zM924 0l-189 580l-205 -580h-272l-233 905l260 37l149 -682l193 645l229 37l213 -682l135 662h246l-254 -922h-272z" />
    <glyph glyph-name="Wacute" unicode="&#x1e82;" horiz-adv-x="1816" 
d="M752 1343l264 322l260 -47l-313 -275h-211zM1178 0l-273 846l-278 -846h-305l-281 1253h272l199 -921l289 921h246l290 -919l187 919h250l-287 -1253h-309z" />
    <glyph glyph-name="wacute" unicode="&#x1e83;" horiz-adv-x="1474" 
d="M565 1036l264 322l261 -47l-314 -275h-211zM924 0l-189 580l-205 -580h-272l-233 905l260 37l149 -682l193 645l229 37l213 -682l135 662h246l-254 -922h-272z" />
    <glyph glyph-name="Wdieresis" unicode="&#x1e84;" horiz-adv-x="1816" 
d="M975 1507q0 39 49.5 92.5t85.5 53.5q38 0 95 -44t57 -83q0 -38 -51 -91t-85 -53q-39 0 -95 43.5t-56 81.5zM588 1507q0 39 49.5 92.5t85.5 53.5q38 0 94.5 -44t56.5 -83q0 -38 -50.5 -91t-84.5 -53q-39 0 -95 43.5t-56 81.5zM1178 0l-273 846l-278 -846h-305l-281 1253
h272l199 -921l289 921h246l290 -919l187 919h250l-287 -1253h-309z" />
    <glyph glyph-name="wdieresis" unicode="&#x1e85;" horiz-adv-x="1474" 
d="M805 1200q0 39 49.5 92.5t85.5 53.5q38 0 95 -44t57 -83q0 -38 -51 -91t-85 -53q-39 0 -95 43.5t-56 81.5zM418 1200q0 39 49.5 92.5t85.5 53.5q38 0 95 -44t57 -83q0 -38 -51 -91t-85 -53q-39 0 -95 43.5t-56 81.5zM924 0l-189 580l-205 -580h-272l-233 905l260 37
l149 -682l193 645l229 37l213 -682l135 662h246l-254 -922h-272z" />
    <glyph glyph-name="Ygrave" unicode="&#x1ef2;" horiz-adv-x="1118" 
d="M766 1343h-211l-313 275l260 47zM696 465v-465h-270v465l-442 788h299l295 -532l286 532h264z" />
    <glyph glyph-name="ygrave" unicode="&#x1ef3;" horiz-adv-x="958" 
d="M741 1036h-211l-313 275l260 47zM135 -481q-62 0 -108 12l-15 205q150 -18 253 41t163 223h-115l-307 905l268 37l224 -723q94 311 198 703h256q-259 -854 -311 -990q-73 -206 -204.5 -309.5t-301.5 -103.5z" />
    <glyph glyph-name="endash" unicode="&#x2013;" horiz-adv-x="935" 
d="M854 584v-43l-47 -125h-725v43l57 125h715z" />
    <glyph glyph-name="emdash" unicode="&#x2014;" horiz-adv-x="1368" 
d="M1286 584v-43l-47 -125h-1157v43l57 125h1147z" />
    <glyph glyph-name="quoteleft" unicode="&#x2018;" horiz-adv-x="491" 
d="M389 1008q0 -46 -44.5 -86.5t-88.5 -40.5q-49 0 -106.5 55.5t-57.5 124.5q0 109 168 393l139 -51q-39 -83 -54 -116.5t-31.5 -81t-16.5 -75.5q0 -12 23 -32t46 -43.5t23 -46.5z" />
    <glyph glyph-name="quoteright" unicode="&#x2019;" horiz-adv-x="491" 
d="M102 1292q0 46 45 86.5t89 40.5q49 0 106 -55.5t57 -124.5q0 -109 -168 -393l-139 51q79 167 93 215q10 34 10 57q0 10 -14.5 25t-32 28.5t-32 32.5t-14.5 37z" />
    <glyph glyph-name="quotesinglbase" unicode="&#x201a;" horiz-adv-x="491" 
d="M102 133q0 46 45 86.5t89 40.5q49 0 106 -55.5t57 -124.5q0 -109 -168 -393l-139 51q79 167 93 215q10 34 10 57q0 10 -14.5 25t-32 28.5t-32 32.5t-14.5 37z" />
    <glyph glyph-name="quotedblleft" unicode="&#x201c;" horiz-adv-x="860" 
d="M758 1008q0 -46 -44.5 -86.5t-88.5 -40.5q-49 0 -106.5 55.5t-57.5 124.5q0 109 168 393l139 -51q-39 -83 -54 -116.5t-31.5 -81t-16.5 -75.5q0 -12 23 -32t46 -43.5t23 -46.5zM389 1008q0 -46 -44.5 -86.5t-88.5 -40.5q-49 0 -106.5 55.5t-57.5 124.5q0 109 168 393
l139 -51q-39 -83 -54 -116.5t-31.5 -81t-16.5 -75.5q0 -12 23 -32t46 -43.5t23 -46.5z" />
    <glyph glyph-name="quotedblright" unicode="&#x201d;" horiz-adv-x="860" 
d="M471 1292q0 46 44.5 86.5t88.5 40.5q49 0 106.5 -55.5t57.5 -124.5q0 -109 -168 -393l-139 51q40 85 54.5 116.5t31 79.5t16.5 76q0 12 -23 32t-46 44t-23 47zM102 1292q0 46 45 86.5t89 40.5q49 0 106 -55.5t57 -124.5q0 -109 -168 -393l-139 51q79 167 93 215
q10 34 10 57q0 10 -14.5 25t-32 28.5t-32 32.5t-14.5 37z" />
    <glyph glyph-name="quotedblbase" unicode="&#x201e;" horiz-adv-x="860" 
d="M471 133q0 46 44.5 86.5t88.5 40.5q49 0 106.5 -55.5t57.5 -124.5q0 -109 -168 -393l-139 51q40 85 54.5 116.5t31 79.5t16.5 76q0 12 -23 32t-46 44t-23 47zM102 133q0 46 45 86.5t89 40.5q49 0 106 -55.5t57 -124.5q0 -109 -168 -393l-139 51q79 167 93 215
q10 34 10 57q0 10 -14.5 25t-32 28.5t-32 32.5t-14.5 37z" />
    <glyph glyph-name="bullet" unicode="&#x2022;" horiz-adv-x="819" 
d="M152 528q0 47 43 111.5t101 111t99 46.5t105.5 -36t116 -92t51.5 -104q0 -47 -44 -111t-102.5 -109.5t-97.5 -45.5q-43 0 -107.5 35.5t-114.5 91t-50 102.5z" />
    <glyph glyph-name="ellipsis" unicode="&#x2026;" horiz-adv-x="1490" 
d="M80 80q0 43 58.5 101.5t99.5 58.5q42 0 108 -48t66 -90t-59.5 -99.5t-98.5 -57.5q-43 0 -108.5 47.5t-65.5 87.5zM1079 80q0 43 58.5 101.5t99.5 58.5q42 0 108 -48t66 -90t-59.5 -99.5t-98.5 -57.5q-43 0 -108.5 47.5t-65.5 87.5zM580 80q0 43 58 101.5t99 58.5
q42 0 108 -48t66 -90t-59 -99.5t-98 -57.5q-43 0 -108.5 47.5t-65.5 87.5z" />
    <glyph glyph-name="guilsinglleft" unicode="&#x2039;" horiz-adv-x="679" 
d="M432 37l-371 438l371 438l146 -82l-234 -356l234 -356z" />
    <glyph glyph-name="guilsinglright" unicode="&#x203a;" horiz-adv-x="679" 
d="M248 913l370 -438l-370 -438l-146 80l234 358l-234 354z" />
    <glyph glyph-name="fraction" unicode="&#x2044;" horiz-adv-x="522" 
d="M-123 6l635 1311l133 -72l-635 -1311z" />
    <glyph glyph-name="Euro" unicode="&#x20ac;" 
d="M1073 53q-59 -35 -167.5 -59.5t-223.5 -24.5q-427 0 -504 430h-164l39 136l103 28h6v41q0 46 2 66h-144l37 135l95 29h30q43 212 178 331t369 119q195 0 338 -53l-53 -219q-148 59 -326 59q-105 0 -161 -53t-76 -184h456l-45 -164h-424v-23q0 -57 2 -84h402l-45 -164
h-328q66 -209 281 -209q79 0 160.5 18t131.5 42z" />
    <glyph glyph-name="minus" unicode="&#x2212;" 
d="M932 631v-174h-762v174h762z" />
    <glyph glyph-name="idotaccent" horiz-adv-x="487" 
d="M86 1223q0 43 55.5 102t96.5 59t104.5 -48.5t63.5 -90.5t-56.5 -101t-95.5 -59q-42 0 -105 48.5t-63 89.5zM115 918l258 36v-954h-258v918z" />
    <glyph glyph-name="caron.alt" horiz-adv-x="567" 
d="M182 1335q0 32 47.5 59t89.5 27q44 0 73.5 -63t29.5 -129q0 -116 -174 -359l-103 56q76 143 76 239q0 41 -19.5 96.5t-19.5 73.5z" />
    <glyph glyph-name="caron.alt.sc" horiz-adv-x="567" 
d="M182 1049q0 32 47.5 59t89.5 27q44 0 73.5 -63.5t29.5 -129.5q0 -115 -174 -358l-103 55q76 143 76 240q0 41 -19.5 96.5t-19.5 73.5z" />
    <glyph glyph-name="caron.alt.case" horiz-adv-x="567" 
d="M182 1167q0 32 47.5 59t89.5 27q44 0 73.5 -63t29.5 -129q0 -116 -174 -359l-103 56q76 143 76 239q0 41 -19.5 96.5t-19.5 73.5z" />
    <glyph glyph-name="commaaccent.case" horiz-adv-x="516" 
d="M137 -190q0 34 39.5 70t77.5 36q39 0 86 -49.5t47 -85.5q0 -83 -139 -309l-121 47q9 20 22.5 48t22 47t17.5 39.5t13.5 34t4.5 21.5q0 11 -35 45.5t-35 55.5z" />
    <glyph glyph-name="acute.case" horiz-adv-x="720" 
d="M98 1343l264 322l261 -47l-314 -275h-211z" />
    <glyph glyph-name="grave.case" horiz-adv-x="720" 
d="M623 1343h-211l-314 275l260 47z" />
    <glyph glyph-name="hungarumlaut.case" horiz-adv-x="995" 
d="M403 1343l244 322l260 -47l-293 -275h-211zM86 1343l244 322l260 -47l-293 -275h-211z" />
    <glyph glyph-name="circumflex.case" horiz-adv-x="954" 
d="M639 1343l-164 146l-164 -146h-188l244 322h217l245 -322h-190z" />
    <glyph glyph-name="caron.case" horiz-adv-x="954" 
d="M586 1354h-217l-246 321h190l164 -145l164 145h188z" />
    <glyph glyph-name="breve.case" horiz-adv-x="1011" 
d="M506 1516q151 0 178 172h147q0 -148 -100 -246.5t-235 -98.5q-146 0 -231 95.5t-85 249.5h148q27 -172 178 -172z" />
    <glyph glyph-name="tilde.case" horiz-adv-x="999" 
d="M764 1634l90 -94q-30 -60 -101.5 -121t-131.5 -61q-40 0 -139.5 33.5t-123.5 33.5q-34 0 -75.5 -30t-57.5 -49l-82 104q17 22 48 54.5t86 72t94 39.5q46 0 136 -33t116 -33q61 0 141 84z" />
    <glyph glyph-name="macron.case" horiz-adv-x="901" 
d="M737 1585v-31l-47 -145h-526v31l47 145h526z" />
    <glyph glyph-name="dieresis.case" horiz-adv-x="1001" 
d="M551 1507q0 39 49.5 92.5t85.5 53.5q38 0 95 -44t57 -83q0 -38 -51 -91t-85 -53q-39 0 -95 43.5t-56 81.5zM164 1507q0 39 49.5 92.5t85.5 53.5q38 0 95 -44t57 -83q0 -38 -51 -91t-85 -53q-39 0 -95 43.5t-56 81.5z" />
    <glyph glyph-name="dotaccent.case" horiz-adv-x="606" 
d="M143 1522q0 43 55.5 102t96.5 59t104.5 -48.5t63.5 -90.5t-56.5 -101t-95.5 -59q-42 0 -105 48.5t-63 89.5z" />
    <glyph glyph-name="ring.case" horiz-adv-x="743" 
d="M580 1532q0 -81 -62.5 -140t-146.5 -59q-88 0 -147.5 54t-59.5 145q0 83 62.5 142t146.5 59q89 0 148 -53t59 -148zM283 1532q0 -38 25.5 -63t62.5 -25t63.5 25t26.5 63q0 40 -26 66t-64 26q-37 0 -62.5 -25.5t-25.5 -66.5z" />
    <glyph glyph-name="cedilla.case" horiz-adv-x="618" 
d="M166 -195l94 195h113l-47 -106q87 -34 128.5 -67.5t41.5 -88.5q0 -36 -19.5 -71t-59 -66.5t-108 -53.5t-157.5 -28l-29 108q99 10 150 27.5t51 54.5q0 48 -152 86z" />
    <glyph glyph-name="ogonek.case" horiz-adv-x="712" 
d="M168 -279q0 72 61.5 148t159.5 131h141q-104 -74 -151 -139t-47 -113q0 -34 24 -55t58 -21q47 0 92 25l37 -113q-87 -47 -172 -47q-93 0 -148 49t-55 135z" />
    <glyph glyph-name="zero.fit" horiz-adv-x="1157" 
d="M1083 651q0 -325 -143.5 -503.5t-398.5 -178.5q-467 0 -467 633q0 325 143.5 503.5t398.5 178.5q467 0 467 -633zM807 627q0 137 -16.5 230.5t-50.5 146t-78.5 74.5t-106.5 22q-69 0 -112 -39.5t-68 -145.5t-25 -288q0 -138 16 -231t49 -145.5t77 -74.5t106 -22
q69 0 113 39t70 146t26 288z" />
    <glyph glyph-name="one.fit" horiz-adv-x="772" 
d="M625 0h-258v1034l-267 -114l-59 192q134 41 422 141h162v-1253z" />
    <glyph glyph-name="two.fit" horiz-adv-x="1009" 
d="M913 0h-831v178q102 93 176 165t147.5 151.5t119 143.5t74 127t28.5 114q0 94 -58.5 147t-148.5 53q-129 0 -285 -69l-61 184q227 90 418 90t306 -94.5t115 -255.5q0 -88 -37 -177t-112 -182.5t-165.5 -181t-221.5 -198.5l575 22z" />
    <glyph glyph-name="three.fit" horiz-adv-x="962" 
d="M391 -31q-167 0 -325 45l51 203q168 -51 297 -51q117 0 175 43t58 135q0 88 -66.5 144.5t-181.5 56.5q-30 0 -129 -6l-28 176q177 0 272.5 53.5t95.5 146.5q0 75 -52 122.5t-136 47.5q-139 0 -272 -65l-58 178q76 34 191 60t213 26q100 0 184.5 -30.5t140.5 -99
t56 -163.5q0 -105 -68 -188t-174 -129q135 -26 206.5 -102.5t71.5 -194.5t-71 -212t-190 -145t-261 -51z" />
    <glyph glyph-name="four.fit" horiz-adv-x="1107" 
d="M645 418v520l-381 -520h381zM1030 225h-141v-225h-244v225h-620v181l657 872h207v-860h207z" />
    <glyph glyph-name="five.fit" horiz-adv-x="1036" 
d="M365 -31q-129 0 -289 41l53 203q69 -24 161.5 -40.5t155.5 -16.5q117 0 180.5 51t63.5 139q0 108 -86 168.5t-237 60.5q-86 0 -211 -16l41 694h731l-35 -209h-494l-18 -274q49 6 111 6q130 0 234.5 -44t166 -128.5t61.5 -195.5q0 -192 -157.5 -315.5t-431.5 -123.5z" />
    <glyph glyph-name="six.fit" horiz-adv-x="1069" 
d="M1008 422q0 -192 -137 -322.5t-351 -130.5t-336.5 151t-122.5 421q0 184 45 327t128 233.5t195 136.5t249 46q64 0 146 -12t130 -25l-47 -219q-50 20 -130.5 36.5t-147.5 16.5q-64 0 -109.5 -15t-83.5 -53.5t-61.5 -108t-34.5 -173.5q132 64 266 64q192 0 297 -100
t105 -273zM569 150q85 0 128.5 54.5t43.5 160.5q0 105 -51.5 175t-161.5 70q-90 0 -198 -45v-45q0 -184 62 -277t177 -93z" />
    <glyph glyph-name="seven.fit" horiz-adv-x="1005" 
d="M467 -27l-266 78q73 174 216.5 471t260.5 518l-637 -8l41 221h866v-176q-83 -162 -248 -541.5t-233 -562.5z" />
    <glyph glyph-name="eight.fit" horiz-adv-x="1032" 
d="M479 -31q-195 0 -312.5 85.5t-117.5 226.5q0 109 66 187.5t194 154.5q-103 63 -156 138.5t-53 174.5q0 152 126.5 250t336.5 98q155 0 263 -75.5t108 -200.5q0 -93 -57 -167t-172 -145q162 -84 220 -160t58 -184q0 -71 -36 -140t-100 -123t-160.5 -87t-207.5 -33z
M336 975q0 -58 48.5 -104.5t176.5 -106.5q71 51 109.5 100.5t38.5 106.5q0 58 -58.5 100.5t-146.5 42.5q-168 0 -168 -139zM537 145q97 0 151.5 43t54.5 119q0 62 -55.5 110.5t-218.5 121.5q-2 1 -7 3t-7 3q-44 -30 -69.5 -49.5t-49.5 -46.5t-34.5 -57t-10.5 -68
q0 -76 70 -127.5t176 -51.5z" />
    <glyph glyph-name="nine.fit" horiz-adv-x="1058" 
d="M541 645q99 0 190 41v57q0 169 -65.5 266t-173.5 97q-84 0 -124 -53t-40 -162q0 -105 51.5 -175.5t161.5 -70.5zM346 -31q-127 0 -264 39l35 201q128 -47 280 -47q119 0 202.5 86t115.5 270q-116 -57 -244 -57q-201 0 -305.5 107.5t-104.5 277.5q0 191 127 315.5
t344 124.5q231 0 348 -149t117 -422q0 -176 -52.5 -319.5t-142.5 -235.5t-207 -141.5t-249 -49.5z" />
    <glyph glyph-name="zero.osf" horiz-adv-x="1087" 
d="M1032 539q0 -247 -146 -408.5t-372 -161.5q-213 0 -336 145.5t-123 383.5q0 247 146 408t372 161q213 0 336 -145t123 -383zM801 498q0 161 -74.5 257.5t-200.5 96.5q-117 0 -178 -81.5t-61 -235.5q0 -161 74 -255t200 -94q117 0 178.5 79.5t61.5 232.5z" />
    <glyph glyph-name="one.osf" horiz-adv-x="698" 
d="M573 0h-258v807q-91 -44 -247 -109l-60 193q190 66 398 149h167v-1040z" />
    <glyph glyph-name="two.osf" horiz-adv-x="960" 
d="M860 0h-776v186q267 197 369 305.5t102 200.5q0 79 -50 123.5t-136 44.5q-114 0 -240 -55l-55 188q74 30 175.5 52t192.5 22q178 0 287 -84.5t109 -232.5q0 -145 -112.5 -281t-344.5 -279l516 19z" />
    <glyph glyph-name="three.osf" horiz-adv-x="890" 
d="M68 -248l-43 203q296 0 419 47t123 156q0 84 -77 133t-189 49q-75 0 -102 -2l-31 178q180 0 281.5 50t101.5 141q0 70 -55 114.5t-150 44.5q-134 0 -256 -45l-43 187q59 23 164 41t186 18q182 0 291 -83t109 -212q0 -90 -62 -173t-168 -130q128 -30 195 -101t67 -167
q0 -93 -49.5 -174t-142.5 -142.5t-240 -97t-329 -35.5z" />
    <glyph glyph-name="four.osf" horiz-adv-x="1062" 
d="M592 188v529l-346 -529h346zM840 -223l-248 -35v258h-602v156l602 884h248v-852h200l-36 -188h-164v-223z" />
    <glyph glyph-name="five.osf" horiz-adv-x="927" 
d="M879 231q0 -93 -48 -174.5t-140.5 -146.5t-241 -106.5t-336.5 -51.5l-64 211q302 0 435.5 56t133.5 163q0 205 -354 205q-75 0 -149 -16l35 669h716l-41 -209h-456l-19 -247q25 2 64 2q224 0 344.5 -96t120.5 -259z" />
    <glyph glyph-name="six.osf" horiz-adv-x="1034" 
d="M498 -31q-215 0 -332 132t-117 354q0 267 187 491t493 354l113 -178q-174 -78 -290.5 -170.5t-176.5 -214.5q107 51 219 51q191 0 291 -104.5t100 -273.5q0 -186 -134.5 -313.5t-352.5 -127.5zM541 154q78 0 130 50.5t52 149.5q0 50 -12 92.5t-38 78.5t-73 56.5
t-111 20.5q-94 0 -170 -43q-8 -47 -8 -113q0 -133 58.5 -212.5t171.5 -79.5z" />
    <glyph glyph-name="seven.osf" horiz-adv-x="937" 
d="M428 -248l-268 74q93 205 239 508t246 489h-620l34 217h854v-196q-84 -156 -237.5 -506t-247.5 -586z" />
    <glyph glyph-name="eight.osf" horiz-adv-x="1019" 
d="M473 -31q-197 0 -313.5 86.5t-116.5 239.5q0 101 66 184.5t192 159.5q-106 62 -158.5 131.5t-52.5 173.5q0 145 127 242.5t330 97.5q165 0 275 -79t110 -210q0 -93 -60.5 -167t-185.5 -148q166 -83 228.5 -154.5t62.5 -185.5q0 -153 -140 -262t-364 -109zM340 969
q0 -61 43.5 -109t148.5 -104q83 56 120.5 104.5t37.5 102.5q0 62 -53.5 101.5t-140.5 39.5q-75 0 -115.5 -34.5t-40.5 -100.5zM535 158q88 0 139 38t51 103q0 75 -50.5 128t-207.5 128q-60 -43 -89 -68.5t-51 -64.5t-22 -86q0 -85 64.5 -131.5t165.5 -46.5z" />
    <glyph glyph-name="nine.osf" horiz-adv-x="1034" 
d="M276 -248l-112 185q192 74 312 160t179 198q-106 -47 -209 -47q-180 0 -287.5 101t-107.5 276q0 189 135.5 315.5t337.5 126.5q205 0 331 -131.5t126 -351.5q0 -259 -191 -484t-514 -348zM541 434q84 0 172 45q6 44 6 88q0 157 -63.5 236.5t-172.5 79.5
q-81 0 -125.5 -53.5t-44.5 -157.5q0 -102 59.5 -170t168.5 -68z" />
    <glyph glyph-name="zero.tosf" horiz-adv-x="1026" 
d="M1001 539q0 -247 -146 -408.5t-372 -161.5q-212 0 -335 145.5t-123 383.5q0 247 146 408t372 161q212 0 335 -145t123 -383zM770 498q0 162 -74 258t-200 96q-117 0 -178.5 -81.5t-61.5 -235.5q0 -161 74 -255t200 -94q117 0 178.5 79.5t61.5 232.5z" />
    <glyph glyph-name="one.tosf" horiz-adv-x="1026" 
d="M729 0h-258v807q-85 -42 -248 -109l-59 193q183 63 397 149h168v-1040z" />
    <glyph glyph-name="two.tosf" horiz-adv-x="1026" 
d="M891 0h-776v186q267 197 369 305.5t102 200.5q0 79 -50.5 123.5t-136.5 44.5q-113 0 -239 -55l-56 188q74 30 176 52t193 22q178 0 286.5 -84.5t108.5 -232.5q0 -145 -112.5 -281t-343.5 -279l516 19z" />
    <glyph glyph-name="three.tosf" horiz-adv-x="1026" 
d="M135 -248l-43 203q200 0 319 21.5t171.5 65t52.5 116.5q0 84 -77 133t-189 49q-76 0 -103 -2l-30 178q180 0 281 49.5t101 141.5q0 71 -54.5 115t-149.5 44q-134 0 -256 -45l-43 187q59 23 164 41t186 18q182 0 290.5 -83t108.5 -212q0 -91 -61.5 -173.5t-167.5 -129.5
q128 -30 195 -101t67 -167q0 -93 -49.5 -174t-143 -142.5t-240 -97t-329.5 -35.5z" />
    <glyph glyph-name="four.tosf" horiz-adv-x="1026" 
d="M608 188v529l-346 -529h346zM856 -223l-248 -35v258h-602v156l602 884h248v-852h201l-37 -188h-164v-223z" />
    <glyph glyph-name="five.tosf" horiz-adv-x="1026" 
d="M920 231q0 -93 -48 -174.5t-140.5 -146.5t-241 -106.5t-336.5 -51.5l-64 211q302 0 435.5 56t133.5 163q0 205 -354 205q-75 0 -149 -16l34 669h717l-41 -209h-456l-19 -247q25 2 64 2q224 0 344.5 -96t120.5 -259z" />
    <glyph glyph-name="six.tosf" horiz-adv-x="1026" 
d="M494 -31q-215 0 -332 132t-117 354q0 267 187 491t493 354l113 -178q-174 -78 -290.5 -170.5t-176.5 -214.5q107 51 219 51q191 0 291 -104.5t100 -273.5q0 -186 -134.5 -313.5t-352.5 -127.5zM537 154q78 0 130 50.5t52 149.5q0 50 -12 92.5t-38 78.5t-73 56.5
t-111 20.5q-94 0 -170 -43q-8 -47 -8 -113q0 -133 58.5 -212.5t171.5 -79.5z" />
    <glyph glyph-name="seven.tosf" horiz-adv-x="1026" 
d="M455 -248l-269 74q91 200 238 505t248 492h-621l35 217h854v-196q-84 -156 -237.5 -506t-247.5 -586z" />
    <glyph glyph-name="eight.tosf" horiz-adv-x="1026" 
d="M475 -31q-197 0 -313.5 86.5t-116.5 239.5q0 101 66 184.5t192 159.5q-106 62 -158.5 131.5t-52.5 173.5q0 145 127 242.5t330 97.5q165 0 275 -79t110 -210q0 -93 -60.5 -167t-185.5 -148q166 -83 228.5 -154.5t62.5 -185.5q0 -153 -140 -262t-364 -109zM342 969
q0 -61 44 -109t149 -104q83 55 120 104t37 103q0 62 -53.5 101.5t-140.5 39.5q-75 0 -115.5 -34.5t-40.5 -100.5zM537 158q88 0 139 38t51 103q0 75 -50.5 128t-207.5 128q-60 -43 -89 -68.5t-51 -64.5t-22 -86q0 -85 64.5 -131.5t165.5 -46.5z" />
    <glyph glyph-name="nine.tosf" horiz-adv-x="1026" 
d="M272 -248l-112 185q192 74 312 160t179 198q-106 -47 -209 -47q-180 0 -287.5 101t-107.5 276q0 189 135.5 315.5t337.5 126.5q205 0 331 -131.5t126 -351.5q0 -259 -191 -484t-514 -348zM537 434q84 0 172 45q6 44 6 88q0 157 -63.5 236.5t-172.5 79.5
q-81 0 -125.5 -53.5t-44.5 -157.5q0 -102 59.5 -170t168.5 -68z" />
    <glyph glyph-name="A.sc" horiz-adv-x="1058" 
d="M653 416l-129 411l-137 -411h266zM786 0l-71 225h-391l-76 -225h-248l381 1040h324l354 -1040h-273z" />
    <glyph glyph-name="Agrave.sc" horiz-adv-x="1058" 
d="M729 1139h-211l-313 274l260 47zM653 416l-129 411l-137 -411h266zM786 0l-71 225h-391l-76 -225h-248l381 1040h324l354 -1040h-273z" />
    <glyph glyph-name="Aacute.sc" horiz-adv-x="1058" 
d="M379 1139l264 321l260 -47l-313 -274h-211zM653 416l-129 411l-137 -411h266zM786 0l-71 225h-391l-76 -225h-248l381 1040h324l354 -1040h-273z" />
    <glyph glyph-name="Acircumflex.sc" horiz-adv-x="1058" 
d="M713 1139l-164 145l-164 -145h-188l243 321h217l246 -321h-190zM653 416l-129 411l-137 -411h266zM786 0l-71 225h-391l-76 -225h-248l381 1040h324l354 -1040h-273z" />
    <glyph glyph-name="Atilde.sc" horiz-adv-x="1058" 
d="M823 1430l90 -95q-30 -60 -101.5 -121t-131.5 -61q-40 0 -139 34t-123 34q-34 0 -75 -30t-58 -50l-82 104q18 22 48.5 54.5t85 72t93.5 39.5q46 0 136 -32.5t116 -32.5q61 0 141 84zM653 416l-129 411l-137 -411h266zM786 0l-71 225h-391l-76 -225h-248l381 1040h324
l354 -1040h-273z" />
    <glyph glyph-name="Adieresis.sc" horiz-adv-x="1058" 
d="M604 1303q0 38 49 91.5t86 53.5q38 0 95 -44t57 -83q0 -38 -50.5 -90.5t-84.5 -52.5q-39 0 -95.5 43.5t-56.5 81.5zM217 1303q0 38 49 91.5t86 53.5q38 0 95 -44t57 -83q0 -38 -50.5 -90.5t-84.5 -52.5q-39 0 -95.5 43.5t-56.5 81.5zM653 416l-129 411l-137 -411h266z
M786 0l-71 225h-391l-76 -225h-248l381 1040h324l354 -1040h-273z" />
    <glyph glyph-name="Aring.sc" horiz-adv-x="1058" 
d="M756 1327q0 -81 -62.5 -140t-146.5 -59q-88 0 -147.5 54t-59.5 145q0 83 62.5 142t146.5 59q89 0 148 -53t59 -148zM459 1327q0 -38 25.5 -63t62.5 -25t63.5 25t26.5 63q0 40 -26 66t-64 26q-37 0 -62.5 -25.5t-25.5 -66.5zM653 416l-129 411l-137 -411h266zM786 0
l-71 225h-391l-76 -225h-248l381 1040h324l354 -1040h-273z" />
    <glyph glyph-name="Amacron.sc" horiz-adv-x="1058" 
d="M840 1380v-30l-47 -146h-527v31l47 145h527zM653 416l-129 411l-137 -411h266zM786 0l-71 225h-391l-76 -225h-248l381 1040h324l354 -1040h-273z" />
    <glyph glyph-name="Abreve.sc" horiz-adv-x="1058" 
d="M555 1311q151 0 178 172h148q0 -148 -100.5 -246t-235.5 -98q-146 0 -231 95t-85 249h148q27 -172 178 -172zM653 416l-129 411l-137 -411h266zM786 0l-71 225h-391l-76 -225h-248l381 1040h324l354 -1040h-273z" />
    <glyph glyph-name="Aogonek.sc" horiz-adv-x="1058" 
d="M653 416l-129 411l-137 -411h266zM915 0h-129l-71 225h-391l-76 -225h-248l381 1040h324l354 -1040h-2q-104 -74 -151.5 -139t-47.5 -113q0 -34 24 -55t58 -21q47 0 92 25l37 -113q-87 -47 -172 -47q-93 0 -148 49t-55 135q0 72 61.5 148t159.5 131z" />
    <glyph glyph-name="Acaron.sc" horiz-adv-x="1058" 
d="M664 1149h-218l-245 321h190l164 -145l164 145h188zM653 416l-129 411l-137 -411h266zM786 0l-71 225h-391l-76 -225h-248l381 1040h324l354 -1040h-273z" />
    <glyph glyph-name="B.sc" horiz-adv-x="1044" 
d="M504 600q76 0 121 33.5t45 97.5q0 156 -242 156h-25v-283q66 -4 101 -4zM547 158q84 0 129 35t45 100q0 81 -64 124.5t-182 43.5h-72v-297q61 -6 144 -6zM143 0v1040h381q190 0 293 -64t103 -183q0 -159 -187 -244q122 -18 186 -82.5t64 -159.5q0 -141 -129.5 -224
t-361.5 -83h-349z" />
    <glyph glyph-name="C.sc" horiz-adv-x="1030" 
d="M926 225l39 -180q-148 -74 -361 -74q-113 0 -208.5 33.5t-167.5 98.5t-113 167.5t-41 231.5q0 121 41 225t115.5 180t187 119t248.5 43q94 0 174 -13t118 -32l-49 -203q-149 49 -276 49q-59 0 -107.5 -16.5t-88.5 -53t-62.5 -103t-22.5 -158.5q0 -96 27 -168.5
t74.5 -114.5t104 -62t122.5 -20q142 0 246 51z" />
    <glyph glyph-name="Ccedilla.sc" horiz-adv-x="1030" 
d="M817 -262q0 -36 -19.5 -71t-59 -66.5t-108 -53.5t-157.5 -28l-29 108q99 10 150 27.5t51 54.5q0 48 -151 86l-7 10l80 166q-106 5 -195 41.5t-156 101.5t-104.5 164.5t-37.5 223.5q0 121 41 225t115.5 180t187 119t248.5 43q94 0 174 -13t118 -32l-49 -203
q-149 49 -276 49q-59 0 -107.5 -16.5t-88.5 -53t-62.5 -103t-22.5 -158.5q0 -96 27 -168.5t74.5 -114.5t104 -62t122.5 -20q142 0 246 51l39 -180q-115 -57 -283 -72l-35 -79q87 -34 128.5 -67.5t41.5 -88.5z" />
    <glyph glyph-name="Cacute.sc" horiz-adv-x="1030" 
d="M438 1139l264 321l261 -47l-314 -274h-211zM926 225l39 -180q-148 -74 -361 -74q-113 0 -208.5 33.5t-167.5 98.5t-113 167.5t-41 231.5q0 121 41 225t115.5 180t187 119t248.5 43q94 0 174 -13t118 -32l-49 -203q-149 49 -276 49q-59 0 -107.5 -16.5t-88.5 -53
t-62.5 -103t-22.5 -158.5q0 -96 27 -168.5t74.5 -114.5t104 -62t122.5 -20q142 0 246 51z" />
    <glyph glyph-name="Ccircumflex.sc" horiz-adv-x="1030" 
d="M801 1139l-164 145l-164 -145h-188l243 321h217l246 -321h-190zM926 225l39 -180q-148 -74 -361 -74q-113 0 -208.5 33.5t-167.5 98.5t-113 167.5t-41 231.5q0 121 41 225t115.5 180t187 119t248.5 43q94 0 174 -13t118 -32l-49 -203q-149 49 -276 49q-59 0 -107.5 -16.5
t-88.5 -53t-62.5 -103t-22.5 -158.5q0 -96 27 -168.5t74.5 -114.5t104 -62t122.5 -20q142 0 246 51z" />
    <glyph glyph-name="Cdotaccent.sc" horiz-adv-x="1030" 
d="M479 1317q0 43 55.5 102.5t96.5 59.5t104.5 -49t63.5 -91t-56.5 -100.5t-95.5 -58.5q-42 0 -105 48t-63 89zM926 225l39 -180q-148 -74 -361 -74q-113 0 -208.5 33.5t-167.5 98.5t-113 167.5t-41 231.5q0 121 41 225t115.5 180t187 119t248.5 43q94 0 174 -13t118 -32
l-49 -203q-149 49 -276 49q-59 0 -107.5 -16.5t-88.5 -53t-62.5 -103t-22.5 -158.5q0 -96 27 -168.5t74.5 -114.5t104 -62t122.5 -20q142 0 246 51z" />
    <glyph glyph-name="Ccaron.sc" horiz-adv-x="1030" 
d="M748 1149h-218l-245 321h190l164 -145l164 145h188zM926 225l39 -180q-148 -74 -361 -74q-113 0 -208.5 33.5t-167.5 98.5t-113 167.5t-41 231.5q0 121 41 225t115.5 180t187 119t248.5 43q94 0 174 -13t118 -32l-49 -203q-149 49 -276 49q-59 0 -107.5 -16.5t-88.5 -53
t-62.5 -103t-22.5 -158.5q0 -96 27 -168.5t74.5 -114.5t104 -62t122.5 -20q142 0 246 51z" />
    <glyph glyph-name="D.sc" horiz-adv-x="1167" 
d="M143 1040h428q244 0 383.5 -126t139.5 -361q0 -257 -176.5 -410t-464.5 -153q-99 0 -310 24v1026zM408 868v-680q99 -6 114 -6q135 0 219 82.5t84 255.5q0 170 -89.5 259t-225.5 89h-102z" />
    <glyph glyph-name="Dcaron.sc" horiz-adv-x="1167" 
d="M676 1149h-217l-246 321h190l164 -145l164 145h189zM143 1040h428q244 0 383.5 -126t139.5 -361q0 -257 -176.5 -410t-464.5 -153q-99 0 -310 24v1026zM408 868v-680q99 -6 114 -6q135 0 219 82.5t84 255.5q0 170 -89.5 259t-225.5 89h-102z" />
    <glyph glyph-name="E.sc" horiz-adv-x="960" 
d="M143 0v1040h717l-22 -180l-422 6v-243h391l-21 -170l-370 4v-277l473 6l-23 -186h-723z" />
    <glyph glyph-name="Egrave.sc" horiz-adv-x="960" 
d="M791 1139h-211l-314 274l260 47zM143 0v1040h717l-22 -180l-422 6v-243h391l-21 -170l-370 4v-277l473 6l-23 -186h-723z" />
    <glyph glyph-name="Eacute.sc" horiz-adv-x="960" 
d="M317 1139l265 321l260 -47l-314 -274h-211zM143 0v1040h717l-22 -180l-422 6v-243h391l-21 -170l-370 4v-277l473 6l-23 -186h-723z" />
    <glyph glyph-name="Ecircumflex.sc" horiz-adv-x="960" 
d="M668 1139l-164 145l-164 -145h-188l243 321h217l246 -321h-190zM143 0v1040h717l-22 -180l-422 6v-243h391l-21 -170l-370 4v-277l473 6l-23 -186h-723z" />
    <glyph glyph-name="Edieresis.sc" horiz-adv-x="960" 
d="M561 1303q0 38 49 91.5t86 53.5q38 0 95 -44t57 -83q0 -38 -50.5 -90.5t-84.5 -52.5q-39 0 -95.5 43.5t-56.5 81.5zM174 1303q0 38 49 91.5t86 53.5q38 0 95 -44t57 -83q0 -38 -50.5 -90.5t-84.5 -52.5q-39 0 -95.5 43.5t-56.5 81.5zM143 0v1040h717l-22 -180l-422 6
v-243h391l-21 -170l-370 4v-277l473 6l-23 -186h-723z" />
    <glyph glyph-name="Emacron.sc" horiz-adv-x="960" 
d="M809 1380v-30l-47 -146h-526v31l47 145h526zM143 0v1040h717l-22 -180l-422 6v-243h391l-21 -170l-370 4v-277l473 6l-23 -186h-723z" />
    <glyph glyph-name="Ebreve.sc" horiz-adv-x="960" 
d="M516 1311q151 0 178 172h148q0 -148 -100.5 -246t-235.5 -98q-146 0 -231 95t-85 249h148q27 -172 178 -172zM143 0v1040h717l-22 -180l-422 6v-243h391l-21 -170l-370 4v-277l473 6l-23 -186h-723z" />
    <glyph glyph-name="Edotaccent.sc" horiz-adv-x="960" 
d="M365 1317q0 43 55 102.5t96 59.5t104.5 -49t63.5 -91t-56.5 -100.5t-95.5 -58.5q-42 0 -104.5 48t-62.5 89zM143 0v1040h717l-22 -180l-422 6v-243h391l-21 -170l-370 4v-277l473 6l-23 -186h-723z" />
    <glyph glyph-name="Eogonek.sc" horiz-adv-x="960" 
d="M143 0v1040h717l-22 -180l-422 6v-243h391l-21 -170l-370 4v-277l473 6l-23 -186h-723zM498 -279q0 72 61.5 148t159.5 131h141q-104 -74 -151 -139t-47 -113q0 -34 23.5 -55t57.5 -21q48 0 93 25l36 -113q-87 -47 -172 -47q-93 0 -147.5 49t-54.5 135z" />
    <glyph glyph-name="Ecaron.sc" horiz-adv-x="960" 
d="M621 1149h-218l-245 321h190l164 -145l164 145h188zM143 0v1040h717l-22 -180l-422 6v-243h391l-21 -170l-370 4v-277l473 6l-23 -186h-723z" />
    <glyph glyph-name="F.sc" horiz-adv-x="921" 
d="M780 416l-364 4v-420h-273v1040h717l-22 -186l-422 6v-268h387z" />
    <glyph glyph-name="G.sc" horiz-adv-x="1085" 
d="M987 51q-61 -33 -173.5 -57.5t-209.5 -24.5q-246 0 -388 137.5t-142 387.5q0 137 46 247t127 180.5t188 108t231 37.5q81 0 172.5 -14.5t140.5 -38.5l-47 -195q-146 53 -297 53q-135 0 -210 -84t-75 -256q0 -182 82.5 -273t212.5 -91q41 0 115 8l-15 340h242v-465z" />
    <glyph glyph-name="Gcircumflex.sc" horiz-adv-x="1085" 
d="M780 1139l-164 145l-163 -145h-189l244 321h217l246 -321h-191zM987 51q-61 -33 -173.5 -57.5t-209.5 -24.5q-246 0 -388 137.5t-142 387.5q0 137 46 247t127 180.5t188 108t231 37.5q81 0 172.5 -14.5t140.5 -38.5l-47 -195q-146 53 -297 53q-135 0 -210 -84t-75 -256
q0 -182 82.5 -273t212.5 -91q41 0 115 8l-15 340h242v-465z" />
    <glyph glyph-name="Gbreve.sc" horiz-adv-x="1085" 
d="M635 1311q151 0 178 172h148q0 -148 -100.5 -246t-235.5 -98q-146 0 -231 95t-85 249h148q27 -172 178 -172zM987 51q-61 -33 -173.5 -57.5t-209.5 -24.5q-246 0 -388 137.5t-142 387.5q0 137 46 247t127 180.5t188 108t231 37.5q81 0 172.5 -14.5t140.5 -38.5l-47 -195
q-146 53 -297 53q-135 0 -210 -84t-75 -256q0 -182 82.5 -273t212.5 -91q41 0 115 8l-15 340h242v-465z" />
    <glyph glyph-name="Gdotaccent.sc" horiz-adv-x="1085" 
d="M455 1317q0 43 55 102.5t96 59.5t104.5 -49t63.5 -91t-56 -100.5t-95 -58.5q-42 0 -105 48t-63 89zM987 51q-61 -33 -173.5 -57.5t-209.5 -24.5q-246 0 -388 137.5t-142 387.5q0 137 46 247t127 180.5t188 108t231 37.5q81 0 172.5 -14.5t140.5 -38.5l-47 -195
q-146 53 -297 53q-135 0 -210 -84t-75 -256q0 -182 82.5 -273t212.5 -91q41 0 115 8l-15 340h242v-465z" />
    <glyph glyph-name="Gcommaaccent.sc" horiz-adv-x="1085" 
d="M987 51q-61 -33 -173.5 -57.5t-209.5 -24.5q-246 0 -388 137.5t-142 387.5q0 137 46 247t127 180.5t188 108t231 37.5q81 0 172.5 -14.5t140.5 -38.5l-47 -195q-146 53 -297 53q-135 0 -210 -84t-75 -256q0 -182 82.5 -273t212.5 -91q41 0 115 8l-15 340h242v-465z
M487 -190q0 34 39.5 70t77.5 36q39 0 86 -49.5t47 -85.5q0 -83 -139 -309l-121 47q9 20 22.5 48t22 47t17.5 39.5t13.5 34t4.5 21.5q0 11 -35 45.5t-35 55.5z" />
    <glyph glyph-name="H.sc" horiz-adv-x="1236" 
d="M821 0v438h-405v-438h-273v1040h273v-403h405v403h273v-1040h-273z" />
    <glyph glyph-name="Hcircumflex.sc" horiz-adv-x="1236" 
d="M788 1139l-163 145l-164 -145h-189l244 321h217l246 -321h-191zM821 0v438h-405v-438h-273v1040h273v-403h405v403h273v-1040h-273z" />
    <glyph glyph-name="I.sc" horiz-adv-x="559" 
d="M416 1040v-1040h-273v1040h273z" />
    <glyph glyph-name="Igrave.sc" horiz-adv-x="559" 
d="M436 1139h-211l-313 274l260 47zM416 1040v-1040h-273v1040h273z" />
    <glyph glyph-name="Iacute.sc" horiz-adv-x="559" 
d="M147 1139l265 321l260 -47l-314 -274h-211zM416 1040v-1040h-273v1040h273z" />
    <glyph glyph-name="Icircumflex.sc" horiz-adv-x="559" 
d="M449 1139l-164 145l-164 -145h-189l244 321h217l246 -321h-190zM416 1040v-1040h-273v1040h273z" />
    <glyph glyph-name="Idieresis.sc" horiz-adv-x="559" 
d="M328 1303q0 38 49 91.5t86 53.5q38 0 94.5 -44t56.5 -83q0 -38 -50.5 -90.5t-84.5 -52.5q-39 0 -95 43.5t-56 81.5zM-59 1303q0 38 49 91.5t86 53.5q38 0 94.5 -44t56.5 -83q0 -38 -50.5 -90.5t-84.5 -52.5q-39 0 -95 43.5t-56 81.5zM416 1040v-1040h-273v1040h273z" />
    <glyph glyph-name="Itilde.sc" horiz-adv-x="559" 
d="M545 1430l90 -95q-30 -60 -102 -121t-132 -61q-40 0 -139 34t-123 34q-34 0 -75 -30t-58 -50l-82 104q17 22 48 54.5t86 72t94 39.5q46 0 135.5 -32.5t115.5 -32.5q62 0 142 84zM416 1040v-1040h-273v1040h273z" />
    <glyph glyph-name="Imacron.sc" horiz-adv-x="559" 
d="M567 1380v-30l-47 -146h-526v31l47 145h526zM416 1040v-1040h-273v1040h273z" />
    <glyph glyph-name="Ibreve.sc" horiz-adv-x="559" 
d="M281 1311q151 0 178 172h147q0 -148 -100.5 -246t-235.5 -98q-146 0 -230.5 95t-84.5 249h147q27 -172 179 -172zM416 1040v-1040h-273v1040h273z" />
    <glyph glyph-name="Iogonek.sc" horiz-adv-x="559" 
d="M270 0h-127v1040h273v-1040h-4q-104 -74 -151.5 -139t-47.5 -113q0 -34 24 -55t58 -21q47 0 92 25l37 -113q-87 -47 -172 -47q-93 0 -148 49t-55 135q0 72 61.5 148t159.5 131z" />
    <glyph glyph-name="Idotaccent.sc" horiz-adv-x="559" 
d="M121 1317q0 43 55 102.5t96 59.5t104.5 -49t63.5 -91t-56 -100.5t-95 -58.5q-42 0 -105 48t-63 89zM416 1040v-1040h-273v1040h273z" />
    <glyph glyph-name="J.sc" horiz-adv-x="712" 
d="M573 1040v-729q0 -157 -104.5 -248.5t-263.5 -91.5q-118 0 -191 31l37 205q72 -35 133 -35q55 0 85 31t30 92v745h274z" />
    <glyph glyph-name="Jcircumflex.sc" horiz-adv-x="712" 
d="M600 1139l-164 145l-164 -145h-188l244 321h217l246 -321h-191zM573 1040v-729q0 -157 -104.5 -248.5t-263.5 -91.5q-118 0 -191 31l37 205q72 -35 133 -35q55 0 85 31t30 92v745h274z" />
    <glyph glyph-name="K.sc" horiz-adv-x="1148" 
d="M1143 0h-338l-389 545l375 495h307l-396 -471zM416 1040v-1040h-273v1040h273z" />
    <glyph glyph-name="Kcommaaccent.sc" horiz-adv-x="1148" 
d="M1143 0h-338l-389 545l375 495h307l-396 -471zM416 1040v-1040h-273v1040h273zM459 -190q0 34 39 70t77 36q39 0 86.5 -49.5t47.5 -85.5q0 -81 -140 -309l-120 47q9 19 22.5 48t22 47.5t17 39t13 34t4.5 21.5q0 11 -34.5 45.5t-34.5 55.5z" />
    <glyph glyph-name="L.sc" horiz-adv-x="888" 
d="M143 0v1040h273v-854l442 7l-20 -193h-695z" />
    <glyph glyph-name="Lacute.sc" horiz-adv-x="888" 
d="M139 1139l264 321l261 -47l-314 -274h-211zM143 0v1040h273v-854l442 7l-20 -193h-695z" />
    <glyph glyph-name="Lcommaaccent.sc" horiz-adv-x="888" 
d="M143 0v1040h273v-854l442 7l-20 -193h-695zM342 -190q0 34 39.5 70t77.5 36q39 0 86 -49.5t47 -85.5q0 -83 -139 -309l-121 47q9 20 22.5 48t22 47t17.5 39.5t13.5 34t4.5 21.5q0 11 -35 45.5t-35 55.5z" />
    <glyph glyph-name="Lcaron.sc" horiz-adv-x="909" 
d="M614 1049q0 32 48 59t90 27q44 0 73 -63.5t29 -129.5q0 -115 -174 -358l-102 55q75 142 75 240q0 41 -19.5 96.5t-19.5 73.5zM143 0v1040h273v-854l442 7l-20 -193h-695z" />
    <glyph glyph-name="M.sc" horiz-adv-x="1538" 
d="M649 0l-258 698l-63 -698h-254l121 1040h325l258 -686l260 686h308l118 -1040h-268l-66 705l-256 -705h-225z" />
    <glyph glyph-name="N.sc" horiz-adv-x="1255" 
d="M854 0l-457 676v-676h-254v1040h283l432 -659v659h254v-1040h-258z" />
    <glyph glyph-name="Ntilde.sc" horiz-adv-x="1255" 
d="M918 1430l90 -95q-30 -60 -102 -121t-132 -61q-40 0 -139 34t-123 34q-34 0 -75 -30t-58 -50l-82 104q18 22 48.5 54.5t85 72t93.5 39.5q46 0 136 -32.5t116 -32.5q62 0 142 84zM854 0l-457 676v-676h-254v1040h283l432 -659v659h254v-1040h-258z" />
    <glyph glyph-name="Nacute.sc" horiz-adv-x="1255" 
d="M475 1139l264 321l260 -47l-313 -274h-211zM854 0l-457 676v-676h-254v1040h283l432 -659v659h254v-1040h-258z" />
    <glyph glyph-name="Ncommaaccent.sc" horiz-adv-x="1255" 
d="M854 0l-457 676v-676h-254v1040h283l432 -659v659h254v-1040h-258zM504 -190q0 34 39.5 70t77.5 36q39 0 86 -49.5t47 -85.5q0 -81 -140 -309l-120 47q9 19 22.5 48t22 47.5t17 39t13 34t4.5 21.5q0 11 -34.5 45.5t-34.5 55.5z" />
    <glyph glyph-name="Ncaron.sc" horiz-adv-x="1255" 
d="M764 1149h-217l-246 321h191l163 -145l164 145h189zM854 0l-457 676v-676h-254v1040h283l432 -659v659h254v-1040h-258z" />
    <glyph glyph-name="O.sc" horiz-adv-x="1267" 
d="M1194 541q0 -262 -167.5 -416t-436.5 -154q-244 0 -380 140t-136 389q0 262 167.5 415.5t436.5 153.5q244 0 380 -140t136 -388zM915 494q0 391 -311 391q-113 0 -183.5 -82.5t-70.5 -255.5q0 -210 82.5 -300.5t231.5 -90.5q113 0 182 81.5t69 256.5z" />
    <glyph glyph-name="Ograve.sc" horiz-adv-x="1267" 
d="M905 1139h-211l-313 274l260 47zM1194 541q0 -262 -167.5 -416t-436.5 -154q-244 0 -380 140t-136 389q0 262 167.5 415.5t436.5 153.5q244 0 380 -140t136 -388zM915 494q0 391 -311 391q-113 0 -183.5 -82.5t-70.5 -255.5q0 -210 82.5 -300.5t231.5 -90.5
q113 0 182 81.5t69 256.5z" />
    <glyph glyph-name="Oacute.sc" horiz-adv-x="1267" 
d="M453 1139l264 321l260 -47l-313 -274h-211zM1194 541q0 -262 -167.5 -416t-436.5 -154q-244 0 -380 140t-136 389q0 262 167.5 415.5t436.5 153.5q244 0 380 -140t136 -388zM915 494q0 391 -311 391q-113 0 -183.5 -82.5t-70.5 -255.5q0 -210 82.5 -300.5t231.5 -90.5
q113 0 182 81.5t69 256.5z" />
    <glyph glyph-name="Ocircumflex.sc" horiz-adv-x="1267" 
d="M805 1139l-164 145l-164 -145h-188l243 321h218l245 -321h-190zM1194 541q0 -262 -167.5 -416t-436.5 -154q-244 0 -380 140t-136 389q0 262 167.5 415.5t436.5 153.5q244 0 380 -140t136 -388zM915 494q0 391 -311 391q-113 0 -183.5 -82.5t-70.5 -255.5
q0 -210 82.5 -300.5t231.5 -90.5q113 0 182 81.5t69 256.5z" />
    <glyph glyph-name="Otilde.sc" horiz-adv-x="1267" 
d="M889 1430l90 -95q-30 -60 -102 -121t-132 -61q-40 0 -139 34t-123 34q-34 0 -75 -30t-58 -50l-82 104q17 22 48 54.5t86 72t94 39.5q46 0 136 -32.5t116 -32.5q61 0 141 84zM1194 541q0 -262 -167.5 -416t-436.5 -154q-244 0 -380 140t-136 389q0 262 167.5 415.5
t436.5 153.5q244 0 380 -140t136 -388zM915 494q0 391 -311 391q-113 0 -183.5 -82.5t-70.5 -255.5q0 -210 82.5 -300.5t231.5 -90.5q113 0 182 81.5t69 256.5z" />
    <glyph glyph-name="Odieresis.sc" horiz-adv-x="1267" 
d="M696 1303q0 38 49 91.5t86 53.5q38 0 95 -44t57 -83q0 -38 -50.5 -90.5t-84.5 -52.5q-39 0 -95.5 43.5t-56.5 81.5zM309 1303q0 38 49 91.5t86 53.5q38 0 95 -44t57 -83q0 -38 -50.5 -90.5t-84.5 -52.5q-39 0 -95.5 43.5t-56.5 81.5zM1194 541q0 -262 -167.5 -416
t-436.5 -154q-244 0 -380 140t-136 389q0 262 167.5 415.5t436.5 153.5q244 0 380 -140t136 -388zM915 494q0 391 -311 391q-113 0 -183.5 -82.5t-70.5 -255.5q0 -210 82.5 -300.5t231.5 -90.5q113 0 182 81.5t69 256.5z" />
    <glyph glyph-name="Omacron.sc" horiz-adv-x="1267" 
d="M942 1380v-30l-47 -146h-526v31l47 145h526zM1194 541q0 -262 -167.5 -416t-436.5 -154q-244 0 -380 140t-136 389q0 262 167.5 415.5t436.5 153.5q244 0 380 -140t136 -388zM915 494q0 391 -311 391q-113 0 -183.5 -82.5t-70.5 -255.5q0 -210 82.5 -300.5t231.5 -90.5
q113 0 182 81.5t69 256.5z" />
    <glyph glyph-name="Obreve.sc" horiz-adv-x="1267" 
d="M643 1311q151 0 178 172h148q0 -148 -100.5 -246t-235.5 -98q-146 0 -231 95t-85 249h148q27 -172 178 -172zM1194 541q0 -262 -167.5 -416t-436.5 -154q-244 0 -380 140t-136 389q0 262 167.5 415.5t436.5 153.5q244 0 380 -140t136 -388zM915 494q0 391 -311 391
q-113 0 -183.5 -82.5t-70.5 -255.5q0 -210 82.5 -300.5t231.5 -90.5q113 0 182 81.5t69 256.5z" />
    <glyph glyph-name="Ohungarumlaut.sc" horiz-adv-x="1267" 
d="M635 1139l244 321l260 -47l-293 -274h-211zM317 1139l244 321l260 -47l-293 -274h-211zM1194 541q0 -262 -167.5 -416t-436.5 -154q-244 0 -380 140t-136 389q0 262 167.5 415.5t436.5 153.5q244 0 380 -140t136 -388zM915 494q0 391 -311 391q-113 0 -183.5 -82.5
t-70.5 -255.5q0 -210 82.5 -300.5t231.5 -90.5q113 0 182 81.5t69 256.5z" />
    <glyph glyph-name="P.sc" horiz-adv-x="999" 
d="M494 524q101 0 153.5 40t52.5 132q0 90 -62 138.5t-181 48.5h-41v-357q12 0 37.5 -1t40.5 -1zM483 354q-44 0 -67 2v-356h-273v1040h408q204 0 311 -80.5t107 -230.5q0 -112 -68.5 -199t-178.5 -131.5t-239 -44.5z" />
    <glyph glyph-name="Q.sc" horiz-adv-x="1267" 
d="M1194 541q0 -262 -167.5 -416t-436.5 -154q-244 0 -380 140t-136 389q0 262 167.5 415.5t436.5 153.5q244 0 380 -140t136 -388zM915 494q0 391 -311 391q-113 0 -183.5 -82.5t-70.5 -255.5q0 -210 82.5 -300.5t231.5 -90.5q113 0 182 81.5t69 256.5zM1192 -127v-174
q-91 -55 -188 -55q-71 0 -168.5 32t-187.5 63.5t-144 31.5q-42 0 -86.5 -17.5t-110.5 -60.5l-57 155q148 74 285 74q80 0 178 -24t186.5 -48t144.5 -24q78 0 148 47z" />
    <glyph glyph-name="R.sc" horiz-adv-x="1069" 
d="M522 563q73 0 118.5 38t45.5 110q0 86 -55 129t-174 43h-41v-314q87 -6 106 -6zM481 397q-40 0 -65 2v-399h-273v1040h412q198 0 303 -72.5t105 -213.5q0 -95 -50 -169.5t-139 -119.5l264 -465h-286l-201 401q-46 -4 -70 -4z" />
    <glyph glyph-name="Racute.sc" horiz-adv-x="1069" 
d="M330 1139l264 321l260 -47l-313 -274h-211zM522 563q73 0 118.5 38t45.5 110q0 86 -55 129t-174 43h-41v-314q87 -6 106 -6zM481 397q-40 0 -65 2v-399h-273v1040h412q198 0 303 -72.5t105 -213.5q0 -95 -50 -169.5t-139 -119.5l264 -465h-286l-201 401q-46 -4 -70 -4z
" />
    <glyph glyph-name="Rcommaaccent.sc" horiz-adv-x="1069" 
d="M522 563q73 0 118.5 38t45.5 110q0 86 -55 129t-174 43h-41v-314q87 -6 106 -6zM481 397q-40 0 -65 2v-399h-273v1040h412q198 0 303 -72.5t105 -213.5q0 -95 -50 -169.5t-139 -119.5l264 -465h-286l-201 401q-46 -4 -70 -4zM424 -190q0 34 39.5 70t77.5 36
q39 0 86 -49.5t47 -85.5q0 -83 -139 -309l-121 47q9 20 22.5 48t22 47t17.5 39.5t13.5 34t4.5 21.5q0 11 -35 45.5t-35 55.5z" />
    <glyph glyph-name="Rcaron.sc" horiz-adv-x="1069" 
d="M639 1149h-217l-246 321h191l163 -145l164 145h189zM522 563q73 0 118.5 38t45.5 110q0 86 -55 129t-174 43h-41v-314q87 -6 106 -6zM481 397q-40 0 -65 2v-399h-273v1040h412q198 0 303 -72.5t105 -213.5q0 -95 -50 -169.5t-139 -119.5l264 -465h-286l-201 401
q-46 -4 -70 -4z" />
    <glyph glyph-name="S.sc" horiz-adv-x="954" 
d="M430 418q-186 59 -262 133t-76 201q0 139 115.5 227t300.5 88q109 0 203 -14t145 -33l-49 -199q-182 60 -334 60q-67 0 -101 -25t-34 -68q0 -49 45 -82t168 -69q83 -25 143 -54t95.5 -58.5t56.5 -67t28 -72.5t7 -80q0 -148 -125 -242t-324 -94q-182 0 -350 54l45 213
q184 -74 348 -74q154 0 154 98q0 49 -42.5 85.5t-156.5 72.5z" />
    <glyph glyph-name="Sacute.sc" horiz-adv-x="954" 
d="M324 1139l264 321l260 -47l-313 -274h-211zM430 418q-186 59 -262 133t-76 201q0 139 115.5 227t300.5 88q109 0 203 -14t145 -33l-49 -199q-182 60 -334 60q-67 0 -101 -25t-34 -68q0 -49 45 -82t168 -69q83 -25 143 -54t95.5 -58.5t56.5 -67t28 -72.5t7 -80
q0 -148 -125 -242t-324 -94q-182 0 -350 54l45 213q184 -74 348 -74q154 0 154 98q0 49 -42.5 85.5t-156.5 72.5z" />
    <glyph glyph-name="Scircumflex.sc" horiz-adv-x="954" 
d="M678 1139l-164 145l-164 -145h-188l244 321h217l245 -321h-190zM430 418q-186 59 -262 133t-76 201q0 139 115.5 227t300.5 88q109 0 203 -14t145 -33l-49 -199q-182 60 -334 60q-67 0 -101 -25t-34 -68q0 -49 45 -82t168 -69q83 -25 143 -54t95.5 -58.5t56.5 -67
t28 -72.5t7 -80q0 -148 -125 -242t-324 -94q-182 0 -350 54l45 213q184 -74 348 -74q154 0 154 98q0 49 -42.5 85.5t-156.5 72.5z" />
    <glyph glyph-name="Scedilla.sc" horiz-adv-x="954" 
d="M330 -481l-29 108q99 10 150 27.5t51 54.5q0 48 -152 86l-6 10l80 164q-186 3 -342 54l45 213q184 -74 348 -74q154 0 154 98q0 49 -42.5 85.5t-156.5 72.5q-186 59 -262 133t-76 201q0 139 115.5 227t300.5 88q109 0 203 -14t145 -33l-49 -199q-182 60 -334 60
q-67 0 -101 -25t-34 -68q0 -49 45 -82t168 -69q83 -25 143 -54t95.5 -58.5t56.5 -67t28 -72.5t7 -80q0 -126 -92 -214.5t-248 -113.5l-37 -83q87 -34 128.5 -67.5t41.5 -88.5q0 -36 -19.5 -71t-59 -66.5t-108 -53.5t-157.5 -28z" />
    <glyph glyph-name="Scaron.sc" horiz-adv-x="954" 
d="M633 1149h-217l-246 321h190l164 -145l164 145h189zM430 418q-186 59 -262 133t-76 201q0 139 115.5 227t300.5 88q109 0 203 -14t145 -33l-49 -199q-182 60 -334 60q-67 0 -101 -25t-34 -68q0 -49 45 -82t168 -69q83 -25 143 -54t95.5 -58.5t56.5 -67t28 -72.5t7 -80
q0 -148 -125 -242t-324 -94q-182 0 -350 54l45 213q184 -74 348 -74q154 0 154 98q0 49 -42.5 85.5t-156.5 72.5z" />
    <glyph glyph-name="Scommaaccent.sc" horiz-adv-x="954" 
d="M430 418q-186 59 -262 133t-76 201q0 139 115.5 227t300.5 88q109 0 203 -14t145 -33l-49 -199q-182 60 -334 60q-67 0 -101 -25t-34 -68q0 -49 45 -82t168 -69q83 -25 143 -54t95.5 -58.5t56.5 -67t28 -72.5t7 -80q0 -148 -125 -242t-324 -94q-182 0 -350 54l45 213
q184 -74 348 -74q154 0 154 98q0 49 -42.5 85.5t-156.5 72.5zM362 -190q0 34 39.5 70t77.5 36q39 0 86 -49.5t47 -85.5q0 -83 -139 -309l-121 47q9 20 22.5 48t22 47t17.5 39.5t13.5 34t4.5 21.5q0 11 -35 45.5t-35 55.5z" />
    <glyph glyph-name="T.sc" horiz-adv-x="970" 
d="M936 850l-309 6v-856h-273v856l-342 -6l27 190h919z" />
    <glyph glyph-name="Tcommaaccent.sc" horiz-adv-x="970" 
d="M936 850l-309 6v-856h-273v856l-342 -6l27 190h919zM356 -190q0 34 39.5 70t77.5 36q39 0 86 -49.5t47 -85.5q0 -83 -139 -309l-121 47q9 20 22.5 48t22 47t17.5 39.5t13.5 34t4.5 21.5q0 11 -35 45.5t-35 55.5z" />
    <glyph glyph-name="Tcaron.sc" horiz-adv-x="970" 
d="M604 1149h-217l-246 321h191l164 -145l163 145h189zM936 850l-309 6v-856h-273v856l-342 -6l27 190h919z" />
    <glyph glyph-name="U.sc" horiz-adv-x="1216" 
d="M133 356v684h273v-624q0 -111 57 -167t158 -56q200 0 200 188v659h262v-649q0 -191 -133 -305.5t-364 -114.5q-217 0 -335 100.5t-118 284.5z" />
    <glyph glyph-name="Ugrave.sc" horiz-adv-x="1216" 
d="M866 1139h-211l-313 274l260 47zM133 356v684h273v-624q0 -111 57 -167t158 -56q200 0 200 188v659h262v-649q0 -191 -133 -305.5t-364 -114.5q-217 0 -335 100.5t-118 284.5z" />
    <glyph glyph-name="Uacute.sc" horiz-adv-x="1216" 
d="M403 1139l265 321l260 -47l-314 -274h-211zM133 356v684h273v-624q0 -111 57 -167t158 -56q200 0 200 188v659h262v-649q0 -191 -133 -305.5t-364 -114.5q-217 0 -335 100.5t-118 284.5z" />
    <glyph glyph-name="Ucircumflex.sc" horiz-adv-x="1216" 
d="M782 1139l-164 145l-163 -145h-189l244 321h217l246 -321h-191zM133 356v684h273v-624q0 -111 57 -167t158 -56q200 0 200 188v659h262v-649q0 -191 -133 -305.5t-364 -114.5q-217 0 -335 100.5t-118 284.5z" />
    <glyph glyph-name="Udieresis.sc" horiz-adv-x="1216" 
d="M674 1303q0 38 49 91.5t86 53.5q38 0 95 -44t57 -83q0 -38 -51 -90.5t-85 -52.5q-39 0 -95 43.5t-56 81.5zM287 1303q0 38 49 91.5t86 53.5q38 0 94.5 -44t56.5 -83q0 -38 -50.5 -90.5t-84.5 -52.5q-39 0 -95 43.5t-56 81.5zM133 356v684h273v-624q0 -111 57 -167
t158 -56q200 0 200 188v659h262v-649q0 -191 -133 -305.5t-364 -114.5q-217 0 -335 100.5t-118 284.5z" />
    <glyph glyph-name="Utilde.sc" horiz-adv-x="1216" 
d="M889 1430l90 -95q-30 -60 -102 -121t-132 -61q-40 0 -139 34t-123 34q-34 0 -75 -30t-58 -50l-82 104q17 22 48 54.5t86 72t94 39.5q46 0 136 -32.5t116 -32.5q61 0 141 84zM133 356v684h273v-624q0 -111 57 -167t158 -56q200 0 200 188v659h262v-649q0 -191 -133 -305.5
t-364 -114.5q-217 0 -335 100.5t-118 284.5z" />
    <glyph glyph-name="Umacron.sc" horiz-adv-x="1216" 
d="M924 1380v-30l-47 -146h-527v31l47 145h527zM133 356v684h273v-624q0 -111 57 -167t158 -56q200 0 200 188v659h262v-649q0 -191 -133 -305.5t-364 -114.5q-217 0 -335 100.5t-118 284.5z" />
    <glyph glyph-name="Ubreve.sc" horiz-adv-x="1216" 
d="M616 1311q152 0 179 172h147q0 -148 -100.5 -246t-235.5 -98q-146 0 -230.5 95t-84.5 249h147q27 -172 178 -172zM133 356v684h273v-624q0 -111 57 -167t158 -56q200 0 200 188v659h262v-649q0 -191 -133 -305.5t-364 -114.5q-217 0 -335 100.5t-118 284.5z" />
    <glyph glyph-name="Uring.sc" horiz-adv-x="1216" 
d="M827 1327q0 -81 -62.5 -140t-146.5 -59q-88 0 -147 54t-59 145q0 83 62.5 142t146.5 59q89 0 147.5 -53t58.5 -148zM530 1327q0 -38 25.5 -63t62.5 -25t64 25t27 63q0 40 -26.5 66t-64.5 26q-37 0 -62.5 -25.5t-25.5 -66.5zM133 356v684h273v-624q0 -111 57 -167t158 -56
q200 0 200 188v659h262v-649q0 -191 -133 -305.5t-364 -114.5q-217 0 -335 100.5t-118 284.5z" />
    <glyph glyph-name="Uhungarumlaut.sc" horiz-adv-x="1216" 
d="M594 1139l244 321l260 -47l-293 -274h-211zM276 1139l244 321l260 -47l-293 -274h-211zM133 356v684h273v-624q0 -111 57 -167t158 -56q200 0 200 188v659h262v-649q0 -191 -133 -305.5t-364 -114.5q-217 0 -335 100.5t-118 284.5z" />
    <glyph glyph-name="Uogonek.sc" horiz-adv-x="1216" 
d="M784 -381q-93 0 -147.5 49t-54.5 135q0 84 82 172q-50 -4 -78 -4q-217 0 -335 100.5t-118 284.5v684h273v-624q0 -111 57 -167t158 -56q200 0 200 188v659h262v-649q0 -226 -180 -340q-82 -64 -120 -121.5t-38 -99.5q0 -34 24 -55t58 -21q48 0 93 25l36 -113
q-87 -47 -172 -47z" />
    <glyph glyph-name="V.sc" horiz-adv-x="1107" 
d="M698 0h-307l-385 1040h289l270 -776l260 776h277z" />
    <glyph glyph-name="W.sc" horiz-adv-x="1617" 
d="M1047 0l-238 688l-240 -688h-290l-254 1040h272l162 -716l243 716h246l246 -714l154 714h245l-256 -1040h-290z" />
    <glyph glyph-name="Wcircumflex.sc" horiz-adv-x="1617" 
d="M1001 1139l-163 145l-164 -145h-189l244 321h217l246 -321h-191zM1047 0l-238 688l-240 -688h-290l-254 1040h272l162 -716l243 716h246l246 -714l154 714h245l-256 -1040h-290z" />
    <glyph glyph-name="Wgrave.sc" horiz-adv-x="1617" 
d="M1030 1139h-211l-313 274l260 47zM1047 0l-238 688l-240 -688h-290l-254 1040h272l162 -716l243 716h246l246 -714l154 714h245l-256 -1040h-290z" />
    <glyph glyph-name="Wacute.sc" horiz-adv-x="1617" 
d="M700 1139l265 321l260 -47l-314 -274h-211zM1047 0l-238 688l-240 -688h-290l-254 1040h272l162 -716l243 716h246l246 -714l154 714h245l-256 -1040h-290z" />
    <glyph glyph-name="Wdieresis.sc" horiz-adv-x="1617" 
d="M874 1303q0 38 49.5 91.5t86.5 53.5q38 0 94.5 -44t56.5 -83q0 -38 -50.5 -90.5t-84.5 -52.5q-39 0 -95.5 43.5t-56.5 81.5zM487 1303q0 38 49.5 91.5t86.5 53.5q38 0 94.5 -44t56.5 -83q0 -38 -50.5 -90.5t-84.5 -52.5q-39 0 -95.5 43.5t-56.5 81.5zM1047 0l-238 688
l-240 -688h-290l-254 1040h272l162 -716l243 716h246l246 -714l154 714h245l-256 -1040h-290z" />
    <glyph glyph-name="X.sc" horiz-adv-x="1046" 
d="M745 0l-237 346l-211 -346h-297l373 545l-342 495h311l205 -303l180 303h299l-342 -505l363 -535h-302z" />
    <glyph glyph-name="Y.sc" horiz-adv-x="1019" 
d="M645 381v-381h-272v381l-367 659h293l238 -434l235 434h242z" />
    <glyph glyph-name="Yacute.sc" horiz-adv-x="1019" 
d="M354 1139l264 321l261 -47l-314 -274h-211zM645 381v-381h-272v381l-367 659h293l238 -434l235 434h242z" />
    <glyph glyph-name="Ycircumflex.sc" horiz-adv-x="1019" 
d="M705 1139l-164 145l-164 -145h-189l244 321h217l246 -321h-190zM645 381v-381h-272v381l-367 659h293l238 -434l235 434h242z" />
    <glyph glyph-name="Ydieresis.sc" horiz-adv-x="1019" 
d="M596 1303q0 38 49 91.5t86 53.5q38 0 95 -44t57 -83q0 -38 -50.5 -90.5t-84.5 -52.5q-39 0 -95.5 43.5t-56.5 81.5zM209 1303q0 38 49 91.5t86 53.5q38 0 95 -44t57 -83q0 -38 -51 -90.5t-85 -52.5q-39 0 -95 43.5t-56 81.5zM645 381v-381h-272v381l-367 659h293
l238 -434l235 434h242z" />
    <glyph glyph-name="Ygrave.sc" horiz-adv-x="1019" 
d="M745 1139h-210l-314 274l260 47zM645 381v-381h-272v381l-367 659h293l238 -434l235 434h242z" />
    <glyph glyph-name="Z.sc" horiz-adv-x="980" 
d="M893 0h-823v166l520 678h-520l36 196h791v-170l-514 -675h549z" />
    <glyph glyph-name="Zacute.sc" horiz-adv-x="980" 
d="M315 1139l265 321l260 -47l-314 -274h-211zM893 0h-823v166l520 678h-520l36 196h791v-170l-514 -675h549z" />
    <glyph glyph-name="Zdotaccent.sc" horiz-adv-x="980" 
d="M360 1317q0 43 55.5 102.5t96.5 59.5t104.5 -49t63.5 -91t-56.5 -100.5t-95.5 -58.5q-42 0 -105 48t-63 89zM893 0h-823v166l520 678h-520l36 196h791v-170l-514 -675h549z" />
    <glyph glyph-name="Zcaron.sc" horiz-adv-x="980" 
d="M625 1149h-217l-246 321h190l164 -145l164 145h188zM893 0h-823v166l520 678h-520l36 196h791v-170l-514 -675h549z" />
    <glyph glyph-name="AE.sc" horiz-adv-x="1464" 
d="M649 827l-190 -383h213v383h-23zM672 0v254h-310l-126 -254h-271l555 1040h869l-23 -180l-422 6v-243h391l-20 -170l-371 4v-277l473 6l-22 -186h-723z" />
    <glyph glyph-name="AEacute.sc" horiz-adv-x="1464" 
d="M725 1139l264 321l260 -47l-313 -274h-211zM649 827l-190 -383h213v383h-23zM672 0v254h-310l-126 -254h-271l555 1040h869l-23 -180l-422 6v-243h391l-20 -170l-371 4v-277l473 6l-22 -186h-723z" />
    <glyph glyph-name="Eth.sc" horiz-adv-x="1177" 
d="M463 -10q-98 0 -309 24v449h-97v151h97v426h428q244 0 383 -126t139 -361q0 -257 -176.5 -410t-464.5 -153zM532 182q135 0 219.5 82.5t84.5 255.5q0 170 -90 259t-226 89h-102v-254h246l-19 -151h-227v-275q99 -6 114 -6z" />
    <glyph glyph-name="Oslash.sc" horiz-adv-x="1267" 
d="M350 547q0 -179 66 -277l293 602q-54 13 -105 13q-113 0 -183.5 -82.5t-70.5 -255.5zM664 156q113 0 182 81.5t69 256.5q0 188 -69 282l-295 -606q49 -14 113 -14zM590 -29q-66 0 -129 13l-62 -125h-184l88 180q-111 63 -170 181t-59 280q0 262 167.5 415.5t436.5 153.5
q58 0 123 -10l57 119h184l-84 -174q114 -62 175 -180.5t61 -282.5q0 -262 -167.5 -416t-436.5 -154z" />
    <glyph glyph-name="Oslashacute.sc" horiz-adv-x="1267" 
d="M432 1139l264 321l260 -47l-313 -274h-211zM350 547q0 -179 66 -277l293 602q-54 13 -105 13q-113 0 -183.5 -82.5t-70.5 -255.5zM664 156q113 0 182 81.5t69 256.5q0 188 -69 282l-295 -606q49 -14 113 -14zM590 -29q-66 0 -129 13l-62 -125h-184l88 180
q-111 63 -170 181t-59 280q0 262 167.5 415.5t436.5 153.5q58 0 123 -10l57 119h184l-84 -174q114 -62 175 -180.5t61 -282.5q0 -262 -167.5 -416t-436.5 -154z" />
    <glyph glyph-name="Thorn.sc" horiz-adv-x="999" 
d="M494 360q101 0 153.5 40t52.5 132q0 90 -62 138.5t-181 48.5h-41v-357q12 0 37.5 -1t40.5 -1zM483 190q-33 0 -67 3v-193h-273v1040h273v-163h135q204 0 311 -81t107 -231q0 -112 -68.5 -199t-178.5 -131.5t-239 -44.5z" />
    <glyph glyph-name="Dcroat.sc" horiz-adv-x="1177" 
d="M463 -10q-98 0 -309 24v449h-97v151h97v426h428q244 0 383 -126t139 -361q0 -257 -176.5 -410t-464.5 -153zM532 182q135 0 219.5 82.5t84.5 255.5q0 170 -90 259t-226 89h-102v-254h246l-19 -151h-227v-275q99 -6 114 -6z" />
    <glyph glyph-name="Hbar.sc" horiz-adv-x="1236" 
d="M821 637v123h-405v-123h405zM821 0v438h-405v-438h-273v760h-100v31l43 108h57v141h273v-141h405v141h273v-141h104v-31l-43 -108h-61v-760h-273z" />
    <glyph glyph-name="IJ.sc" horiz-adv-x="1236" 
d="M416 1040v-1040h-273v1040h273zM1098 1040v-729q0 -157 -105 -248.5t-264 -91.5q-117 0 -190 31l36 205q72 -35 134 -35q55 0 84.5 31t29.5 92v745h275z" />
    <glyph glyph-name="Ldot.sc" horiz-adv-x="909" 
d="M551 610q0 43 55 102.5t96 59.5t104.5 -48.5t63.5 -90.5t-56 -101t-95 -59q-42 0 -105 48t-63 89zM143 0v1040h273v-854l442 7l-20 -193h-695z" />
    <glyph glyph-name="Lslash.sc" horiz-adv-x="888" 
d="M143 0v410l-114 -48v166l114 45v467h273v-358l209 84v-164l-209 -84v-332l442 7l-20 -193h-695z" />
    <glyph glyph-name="Eng.sc" horiz-adv-x="1255" 
d="M727 -375q-116 0 -197 33l39 209q103 -43 179 -43q58 0 86 36t28 115v13l-465 688v-676h-254v1040h283l436 -667v667h250v-1013v-17q-6 -181 -110.5 -283t-274.5 -102z" />
    <glyph glyph-name="OE.sc" horiz-adv-x="1615" 
d="M664 156q79 0 135 34v641q-73 54 -195 54q-113 0 -183.5 -82.5t-70.5 -255.5q0 -210 82.5 -300.5t231.5 -90.5zM799 0v2q-109 -31 -209 -31q-244 0 -380 140t-136 389q0 173 76 303.5t206.5 198t294.5 67.5q95 0 191 -29h674l-23 -180l-422 6v-243h391l-20 -170l-371 4
v-277l473 6l-22 -186h-723z" />
    <glyph glyph-name="Tbar.sc" horiz-adv-x="970" 
d="M817 473h-190v-473h-273v473h-245v41l43 119h202v223l-342 -6l27 190h919l-22 -190l-309 6v-223h233v-41z" />
    <glyph glyph-name="commaaccent.sc" horiz-adv-x="516" 
d="M137 -190q0 34 39.5 70t77.5 36q39 0 86 -49.5t47 -85.5q0 -83 -139 -309l-121 47q9 20 22.5 48t22 47t17.5 39.5t13.5 34t4.5 21.5q0 11 -35 45.5t-35 55.5z" />
    <glyph glyph-name="acute.sc" horiz-adv-x="720" 
d="M98 1139l264 321l261 -47l-314 -274h-211z" />
    <glyph glyph-name="grave.sc" horiz-adv-x="720" 
d="M623 1139h-211l-314 274l260 47z" />
    <glyph glyph-name="hungarumlaut.sc" horiz-adv-x="995" 
d="M403 1139l244 321l260 -47l-293 -274h-211zM86 1139l244 321l260 -47l-293 -274h-211z" />
    <glyph glyph-name="circumflex.sc" horiz-adv-x="954" 
d="M639 1139l-164 145l-164 -145h-188l244 321h217l245 -321h-190z" />
    <glyph glyph-name="caron.sc" horiz-adv-x="954" 
d="M586 1149h-217l-246 321h190l164 -145l164 145h188z" />
    <glyph glyph-name="breve.sc" horiz-adv-x="1011" 
d="M506 1311q151 0 178 172h147q0 -148 -100 -246t-235 -98q-146 0 -231 95t-85 249h148q27 -172 178 -172z" />
    <glyph glyph-name="tilde.sc" horiz-adv-x="999" 
d="M764 1430l90 -95q-30 -60 -101.5 -121t-131.5 -61q-40 0 -139.5 34t-123.5 34q-34 0 -75 -30t-58 -50l-82 104q17 22 48 54.5t86 72t94 39.5q46 0 136 -32.5t116 -32.5q61 0 141 84z" />
    <glyph glyph-name="macron.sc" horiz-adv-x="901" 
d="M737 1380v-30l-47 -146h-526v31l47 145h526z" />
    <glyph glyph-name="dieresis.sc" horiz-adv-x="1001" 
d="M551 1303q0 38 49 91.5t86 53.5q38 0 95 -44t57 -83q0 -38 -51 -90.5t-85 -52.5q-39 0 -95 43.5t-56 81.5zM164 1303q0 38 49 91.5t86 53.5q38 0 95 -44t57 -83q0 -38 -51 -90.5t-85 -52.5q-39 0 -95 43.5t-56 81.5z" />
    <glyph glyph-name="dotaccent.sc" horiz-adv-x="606" 
d="M143 1317q0 43 55.5 102.5t96.5 59.5t104.5 -49t63.5 -91t-56.5 -100.5t-95.5 -58.5q-42 0 -105 48t-63 89z" />
    <glyph glyph-name="ring.sc" horiz-adv-x="743" 
d="M580 1327q0 -81 -62.5 -140t-146.5 -59q-88 0 -147.5 54t-59.5 145q0 83 62.5 142t146.5 59q89 0 148 -53t59 -148zM283 1327q0 -38 25.5 -63t62.5 -25t63.5 25t26.5 63q0 40 -26 66t-64 26q-37 0 -62.5 -25.5t-25.5 -66.5z" />
    <glyph glyph-name="cedilla.sc" horiz-adv-x="618" 
d="M166 -195l94 195h113l-47 -106q87 -34 128.5 -67.5t41.5 -88.5q0 -36 -19.5 -71t-59 -66.5t-108 -53.5t-157.5 -28l-29 108q99 10 150 27.5t51 54.5q0 48 -152 86z" />
    <glyph glyph-name="ogonek.sc" horiz-adv-x="712" 
d="M168 -279q0 72 61.5 148t159.5 131h141q-104 -74 -151 -139t-47 -113q0 -34 24 -55t58 -21q47 0 92 25l37 -113q-87 -47 -172 -47q-93 0 -148 49t-55 135z" />
    <glyph glyph-name="Dotlessi.sc" horiz-adv-x="559" 
d="M418 1040v-1040h-273v1040h273z" />
    <glyph glyph-name="Tcedilla.sc" horiz-adv-x="970" 
d="M436 0h-82v856l-342 -6l27 190h919l-22 -190l-309 6v-856h-78l-47 -106q87 -34 128.5 -67.5t41.5 -88.5q0 -36 -19.5 -71t-59 -66.5t-108 -53.5t-157.5 -28l-29 108q99 10 150 27.5t51 54.5q0 48 -152 86l-6 10z" />
    <glyph glyph-name="f_f.sc" horiz-adv-x="1843" 
d="M780 416l-364 4v-420h-273v1040h717l-22 -186l-422 6v-268h387zM1702 416l-365 4v-420h-272v1040h717l-23 -186l-422 6v-268h387z" />
    <glyph glyph-name="f_f_i.sc" horiz-adv-x="2379" 
d="M2236 1040v-1040h-272v1040h272zM780 416l-364 4v-420h-273v1040h717l-22 -186l-422 6v-268h387zM1702 416l-365 4v-420h-272v1040h717l-23 -186l-422 6v-268h387z" />
    <glyph glyph-name="f_f_l.sc" horiz-adv-x="2721" 
d="M780 416l-364 4v-420h-273v1040h717l-22 -186l-422 6v-268h387zM1702 416l-365 4v-420h-272v1040h717l-23 -186l-422 6v-268h387zM1976 0v1040h273v-854l442 7l-20 -193h-695z" />
    <glyph glyph-name="fi.sc" horiz-adv-x="1480" 
d="M1337 1040v-1040h-272v1040h272zM780 416l-364 4v-420h-273v1040h717l-22 -186l-422 6v-268h387z" />
    <glyph glyph-name="fl.sc" horiz-adv-x="1800" 
d="M780 416l-364 4v-420h-273v1040h717l-22 -186l-422 6v-268h387zM1055 0v1040h272v-854l442 7l-20 -193h-694z" />
    </font>
</defs>
</svg>
